<svg xmlns="http://www.w3.org/2000/svg" xmlns:xlink="http://www.w3.org/1999/xlink" width="108" height="108" viewBox="0 0 108 108">
  <defs>
    <filter id="Trazado_982549" x="0" y="0" width="108" height="108" filterUnits="userSpaceOnUse">
      <feOffset dy="3" input="SourceAlpha"/>
      <feGaussianBlur stdDeviation="3" result="blur"/>
      <feFlood flood-opacity="0.161"/>
      <feComposite operator="in" in2="blur"/>
      <feComposite in="SourceGraphic"/>
    </filter>
  </defs>
  <g id="Grupo_1146637" data-name="Grupo 1146637" transform="translate(-201 -1157)">
    <g transform="matrix(1, 0, 0, 1, 201, 1157)" filter="url(#Trazado_982549)">
      <g id="Trazado_982549-2" data-name="Trazado 982549" transform="translate(9 6)" fill="#f3f3f3">
        <path d="M 45 88.5 C 39.12687683105469 88.5 33.43022537231445 87.35007476806641 28.06830024719238 85.08217620849609 C 22.88852500915527 82.89131164550781 18.23629951477051 79.75458526611328 14.2408504486084 75.75914764404297 C 10.24541282653809 71.76370239257812 7.108687400817871 67.11147308349609 4.917825222015381 61.93170166015625 C 2.649924993515015 56.56977462768555 1.5 50.87312316894531 1.5 45 C 1.5 39.12687683105469 2.649924993515015 33.43022537231445 4.917825222015381 28.06830024719238 C 7.108687400817871 22.88852500915527 10.24541282653809 18.23629951477051 14.2408504486084 14.2408504486084 C 18.23629951477051 10.24541282653809 22.88852500915527 7.108687400817871 28.06830024719238 4.917825222015381 C 33.43022537231445 2.649924993515015 39.12687683105469 1.5 45 1.5 C 50.87312316894531 1.5 56.56977462768555 2.649924993515015 61.93170166015625 4.917825222015381 C 67.11147308349609 7.108687400817871 71.76370239257812 10.24541282653809 75.75914764404297 14.2408504486084 C 79.75458526611328 18.23629951477051 82.89131164550781 22.88852500915527 85.08217620849609 28.06830024719238 C 87.35007476806641 33.43022537231445 88.5 39.12687683105469 88.5 45 C 88.5 50.87312316894531 87.35007476806641 56.56977462768555 85.08217620849609 61.93170166015625 C 82.89131164550781 67.11147308349609 79.75458526611328 71.76370239257812 75.75914764404297 75.75914764404297 C 71.76370239257812 79.75458526611328 67.11147308349609 82.89131164550781 61.93170166015625 85.08217620849609 C 56.56977462768555 87.35007476806641 50.87312316894531 88.5 45 88.5 Z" stroke="none"/>
        <path d="M 45 3 C 39.32871246337891 3 33.82865524291992 4.110054016113281 28.65262985229492 6.299339294433594 C 23.65165710449219 8.414573669433594 19.15968322753906 11.44334411621094 15.301513671875 15.301513671875 C 11.44334411621094 19.15968322753906 8.414573669433594 23.65165710449219 6.299339294433594 28.65262985229492 C 4.110054016113281 33.82865524291992 3 39.32871246337891 3 45 C 3 50.67128753662109 4.110054016113281 56.17134475708008 6.299339294433594 61.34737396240234 C 8.414573669433594 66.34834289550781 11.44334411621094 70.84031677246094 15.301513671875 74.698486328125 C 19.15968322753906 78.55665588378906 23.65165710449219 81.58542633056641 28.65262985229492 83.70066070556641 C 33.82865524291992 85.88994598388672 39.32871246337891 87 45 87 C 50.67128753662109 87 56.17134475708008 85.88994598388672 61.34737396240234 83.70066070556641 C 66.34834289550781 81.58542633056641 70.84031677246094 78.55665588378906 74.698486328125 74.698486328125 C 78.55665588378906 70.84031677246094 81.58542633056641 66.34834289550781 83.70066070556641 61.34737396240234 C 85.88994598388672 56.17134475708008 87 50.67128753662109 87 45 C 87 39.32871246337891 85.88994598388672 33.82865524291992 83.70066070556641 28.65262985229492 C 81.58542633056641 23.65165710449219 78.55665588378906 19.15968322753906 74.698486328125 15.301513671875 C 70.84031677246094 11.44334411621094 66.34834289550781 8.414573669433594 61.34737396240234 6.299339294433594 C 56.17134475708008 4.110054016113281 50.67128753662109 3 45 3 M 45 0 C 69.85281372070312 0 90 20.14718627929688 90 45 C 90 69.85281372070312 69.85281372070312 90 45 90 C 20.14718627929688 90 0 69.85281372070312 0 45 C 0 20.14718627929688 20.14718627929688 0 45 0 Z" stroke="none" fill="#3b89e1"/>
      </g>
    </g>
    <g id="goal" transform="translate(225.236 1174.162)">
      <path id="Trazado_982699" data-name="Trazado 982699" d="M70.589,35.127a.523.523,0,0,0-.436-.347l-3.189-.356,1.05-1.05h0a1.528,1.528,0,0,0-2.161-2.16l-1.05,1.05-.356-3.189a.524.524,0,0,0-.892-.312l-5.061,5.061a.525.525,0,0,0-.15.429l.449,4.022-1.5,1.5a16.226,16.226,0,0,0-3.048-1.995V13.728a2.624,2.624,0,0,0-2.621-2.621H44.25a2.616,2.616,0,0,0-2.5-1.878H36.107a5.235,5.235,0,0,0-10.2,0H20.261a2.616,2.616,0,0,0-2.5,1.878H10.39a2.624,2.624,0,0,0-2.621,2.621V65.791a2.624,2.624,0,0,0,2.621,2.621H46.972A16.173,16.173,0,0,0,59.449,41.938l1.5-1.5,4.022.449a.54.54,0,0,0,.058,0,.522.522,0,0,0,.371-.154l5.061-5.061a.523.523,0,0,0,.124-.544Z" transform="translate(-1.903 -1.903)" fill="#e6e7e8"/>
      <g id="Grupo_1146636" data-name="Grupo 1146636" transform="translate(3.769 1.167)">
        <g id="Grupo_1146631" data-name="Grupo 1146631" transform="translate(0.524 0.524)">
          <path id="Trazado_982700" data-name="Trazado 982700" d="M27.79,54.1a15.662,15.662,0,0,1,22.4-14.133V15.6a2.1,2.1,0,0,0-2.1-2.1H6.865a2.1,2.1,0,0,0-2.1,2.1V67.66a2.1,2.1,0,0,0,2.1,2.1H43.447A15.657,15.657,0,0,1,27.79,54.1Z" transform="translate(-4.768 -7.56)" fill="#6dc9f7"/>
          <path id="Trazado_982701" data-name="Trazado 982701" d="M31.121,57.431A15.663,15.663,0,0,1,49.855,42.077V21.548A1.048,1.048,0,0,0,48.807,20.5H12.816a1.048,1.048,0,0,0-1.048,1.048V68.37a1.048,1.048,0,0,0,1.048,1.048H36.711a15.622,15.622,0,0,1-5.59-11.988Z" transform="translate(-8.099 -10.891)" fill="#d4fbff"/>
          <path id="Trazado_982702" data-name="Trazado 982702" d="M41.109,6.229a4.711,4.711,0,0,0-9.333,0H25.7a2.1,2.1,0,0,0-2.1,2.1v4.455a1.048,1.048,0,0,0,1.048,1.048H48.235a1.048,1.048,0,0,0,1.048-1.048V8.326a2.1,2.1,0,0,0-2.1-2.1Z" transform="translate(-13.73 -2.167)" fill="#0089ef"/>
          <g id="Grupo_1146630" data-name="Grupo 1146630" transform="translate(9.871 3.145)">
            <path id="Trazado_982703" data-name="Trazado 982703" d="M48.235,20.465H24.649A1.048,1.048,0,0,1,23.6,19.417v1.572a1.048,1.048,0,0,0,1.048,1.048H48.235a1.048,1.048,0,0,0,1.048-1.048V19.417A1.048,1.048,0,0,1,48.235,20.465Z" transform="translate(-23.601 -13.521)" fill="#fff"/>
            <circle id="Elipse_11594" data-name="Elipse 11594" cx="1.572" cy="1.572" r="1.572" transform="translate(11.269)" fill="#fff"/>
          </g>
        </g>
        <g id="Grupo_1146635" data-name="Grupo 1146635">
          <circle id="Elipse_11595" data-name="Elipse 11595" cx="15.657" cy="15.657" r="15.657" transform="translate(23.545 31.406)" fill="#fa759e"/>
          <circle id="Elipse_11596" data-name="Elipse 11596" cx="10.065" cy="10.065" r="10.065" transform="translate(29.137 36.998)" fill="#ffd7e5"/>
          <circle id="Elipse_11597" data-name="Elipse 11597" cx="4.473" cy="4.473" r="4.473" transform="translate(34.729 42.59)" fill="#fa759e"/>
          <g id="Grupo_1146634" data-name="Grupo 1146634">
            <path id="Trazado_982704" data-name="Trazado 982704" d="M98.207,52.719,78.116,72.809A1,1,0,0,1,76.7,71.39L96.788,51.3a1,1,0,1,1,1.419,1.42Z" transform="translate(-38.333 -24.883)" fill="#6dc9f7"/>
            <path id="Trazado_982705" data-name="Trazado 982705" d="M106.317,46.89l-5.061,5.061.476,4.273,5.062-5.062Z" transform="translate(-50.16 -22.925)" fill="#0089ef"/>
            <g id="Grupo_1146633" data-name="Grupo 1146633">
              <path id="Trazado_982706" data-name="Trazado 982706" d="M114.207,58.225l-5.062,5.062-4.272-.477,5.061-5.061Z" transform="translate(-51.881 -28.093)" fill="#0089ef"/>
              <g id="Grupo_1146632" data-name="Grupo 1146632">
                <path id="Trazado_982707" data-name="Trazado 982707" d="M4.293,41.855a.524.524,0,0,0,.524-.524v-5.65a.524.524,0,0,0-1.048,0v5.65A.524.524,0,0,0,4.293,41.855Z" transform="translate(-3.769 -17.342)" fill="#3a2c60"/>
                <path id="Trazado_982708" data-name="Trazado 982708" d="M46.2,11.36a2.1,2.1,0,1,0-2.1-2.1A2.1,2.1,0,0,0,46.2,11.36Zm0-3.145A1.048,1.048,0,1,1,45.15,9.264,1.049,1.049,0,0,1,46.2,8.215Z" transform="translate(-22.962 -4.022)" fill="#3a2c60"/>
                <path id="Trazado_982709" data-name="Trazado 982709" d="M26.4,72.834l-.64.688a1.564,1.564,0,0,0-1.247-.626h-3.8a1.574,1.574,0,0,0-1.572,1.572v3.8a1.574,1.574,0,0,0,1.572,1.572h3.8a1.574,1.574,0,0,0,1.572-1.572V74.712l1.082-1.164a.524.524,0,0,0-.767-.714ZM25.04,78.268a.525.525,0,0,1-.524.524h-3.8a.525.525,0,0,1-.524-.524v-3.8a.525.525,0,0,1,.524-.524h3.8a.517.517,0,0,1,.5.385L22.73,76.782,21.5,75.416a.524.524,0,0,0-.778.7l1.616,1.791a.524.524,0,0,0,.385.173h0a.525.525,0,0,0,.384-.167l1.931-2.077v2.429Z" transform="translate(-11.085 -35.192)" fill="#3a2c60"/>
                <path id="Trazado_982710" data-name="Trazado 982710" d="M38.668,55.777H57.537a.524.524,0,1,0,0-1.048H38.668a.524.524,0,1,0,0,1.048Z" transform="translate(-20.127 -26.656)" fill="#3a2c60"/>
                <path id="Trazado_982711" data-name="Trazado 982711" d="M26.4,52.834l-.64.688a1.564,1.564,0,0,0-1.247-.626h-3.8a1.574,1.574,0,0,0-1.572,1.572v3.8a1.574,1.574,0,0,0,1.572,1.572h3.8a1.574,1.574,0,0,0,1.572-1.572V54.712l1.082-1.164a.524.524,0,0,0-.767-.714ZM25.04,58.268a.525.525,0,0,1-.524.524h-3.8a.525.525,0,0,1-.524-.524v-3.8a.525.525,0,0,1,.524-.524h3.8a.517.517,0,0,1,.5.385L22.73,56.782,21.5,55.416a.524.524,0,0,0-.778.7l1.616,1.791a.524.524,0,0,0,.385.173h0a.525.525,0,0,0,.384-.167l1.931-2.077v2.429Z" transform="translate(-11.085 -25.674)" fill="#3a2c60"/>
                <path id="Trazado_982712" data-name="Trazado 982712" d="M38.668,35.777H57.537a.524.524,0,1,0,0-1.048H38.668a.524.524,0,1,0,0,1.048Z" transform="translate(-20.127 -17.138)" fill="#3a2c60"/>
                <path id="Trazado_982713" data-name="Trazado 982713" d="M38.668,43.777H57.537a.524.524,0,1,0,0-1.048H38.668a.524.524,0,1,0,0,1.048Z" transform="translate(-20.127 -20.945)" fill="#3a2c60"/>
                <path id="Trazado_982714" data-name="Trazado 982714" d="M26.4,32.834l-.64.688a1.564,1.564,0,0,0-1.247-.626h-3.8a1.574,1.574,0,0,0-1.572,1.572v3.8a1.574,1.574,0,0,0,1.572,1.572h3.8a1.574,1.574,0,0,0,1.572-1.572V34.712l1.082-1.164a.524.524,0,0,0-.767-.714ZM25.04,38.268a.525.525,0,0,1-.524.524h-3.8a.525.525,0,0,1-.524-.524v-3.8a.525.525,0,0,1,.524-.524h3.8a.517.517,0,0,1,.5.385L22.73,36.782,21.5,35.416a.524.524,0,1,0-.778.7l1.616,1.791a.524.524,0,0,0,.385.173h0a.525.525,0,0,0,.384-.167l1.931-2.077v2.429Z" transform="translate(-11.085 -16.157)" fill="#3a2c60"/>
                <path id="Trazado_982715" data-name="Trazado 982715" d="M26.4,92.835l-.64.688a1.564,1.564,0,0,0-1.247-.626h-3.8a1.574,1.574,0,0,0-1.572,1.572v3.8a1.574,1.574,0,0,0,1.572,1.572h3.8a1.574,1.574,0,0,0,1.572-1.572V94.713l1.082-1.164a.524.524,0,0,0-.767-.714ZM25.04,98.269a.525.525,0,0,1-.524.524h-3.8a.525.525,0,0,1-.524-.524v-3.8a.525.525,0,0,1,.524-.524h3.8a.517.517,0,0,1,.5.385L22.73,96.783,21.5,95.417a.524.524,0,1,0-.778.7l1.616,1.791a.524.524,0,0,0,.385.173h0a.525.525,0,0,0,.384-.167l1.931-2.077v2.429Z" transform="translate(-11.085 -44.709)" fill="#3a2c60"/>
                <path id="Trazado_982716" data-name="Trazado 982716" d="M66.589,31.127a.523.523,0,0,0-.436-.347l-3.189-.356,1.05-1.05h0a1.528,1.528,0,0,0-2.161-2.16l-1.05,1.05-.356-3.189a.524.524,0,0,0-.892-.312l-5.061,5.061a.525.525,0,0,0-.15.429l.449,4.022L53.286,35.78a16.264,16.264,0,0,0-3.044-2V9.728a2.624,2.624,0,0,0-2.621-2.621H40.25a2.616,2.616,0,0,0-2.5-1.878H32.107a5.235,5.235,0,0,0-10.2,0H16.261a2.616,2.616,0,0,0-2.5,1.878H6.39A2.624,2.624,0,0,0,3.769,9.728v6.912a.524.524,0,1,0,1.048,0V9.728A1.574,1.574,0,0,1,6.39,8.155h7.25v2.621H9.01a1.574,1.574,0,0,0-1.572,1.572V59.17A1.574,1.574,0,0,0,9.01,60.743H32.725a16.171,16.171,0,0,0,4.526,2.621H6.39a1.574,1.574,0,0,1-1.572-1.572V27.777a.524.524,0,1,0-1.048,0V61.791A2.624,2.624,0,0,0,6.39,64.412H42.972A16.165,16.165,0,0,0,55.444,37.943l1.509-1.509,4.022.449a.542.542,0,0,0,.058,0,.522.522,0,0,0,.371-.154l5.061-5.061a.523.523,0,0,0,.124-.544Zm-7.063-4.854.328,2.939-4.112,4.112-.328-2.939Zm3.069,1.681a.479.479,0,1,1,.678.678h0L43.181,48.722a.49.49,0,0,1-.678,0,.477.477,0,0,1,0-.677ZM41.763,49.463a1.527,1.527,0,0,0,2.16,0l2.707-2.707a3.9,3.9,0,0,1,.291,1.474,3.949,3.949,0,1,1-3.949-3.949,3.9,3.9,0,0,1,1.508.306L41.764,47.3a1.529,1.529,0,0,0,0,2.16Zm3.5-5.662a4.949,4.949,0,0,0-2.292-.569,5,5,0,1,0,5,5,4.945,4.945,0,0,0-.553-2.26l3.3-3.295a9.569,9.569,0,1,1-2.156-2.165ZM49.193,9.728V33.3a15.971,15.971,0,0,0-2.621-.843V12.348A1.574,1.574,0,0,0,45,10.776h-4.63V8.155h7.25a1.574,1.574,0,0,1,1.572,1.572ZM14.688,7.85a1.574,1.574,0,0,1,1.572-1.572h6.078a.524.524,0,0,0,.519-.452,4.187,4.187,0,0,1,8.295,0,.524.524,0,0,0,.519.452H37.75A1.574,1.574,0,0,1,39.322,7.85V12.3a.525.525,0,0,1-.524.524H15.212a.525.525,0,0,1-.524-.524ZM9.01,59.694a.525.525,0,0,1-.524-.524V12.348a.525.525,0,0,1,.524-.524h4.63V12.3a1.574,1.574,0,0,0,1.572,1.572H38.8A1.574,1.574,0,0,0,40.371,12.3v-.481H45a.525.525,0,0,1,.524.524V32.255a16.079,16.079,0,0,0-9.089,1.179H22.31a.524.524,0,1,0,0,1.048H34.453a16.307,16.307,0,0,0-5.237,5.241H22.31a.524.524,0,1,0,0,1.048H28.62a16.073,16.073,0,0,0-1.241,3.145H22.31a.524.524,0,1,0,0,1.048h4.812a16.05,16.05,0,0,0-.207,5.241H22.31a.524.524,0,1,0,0,1.048h4.768a16.04,16.04,0,0,0,.937,3.145h-5.7a.524.524,0,1,0,0,1.048H28.5a16.257,16.257,0,0,0,3.069,4.248ZM58.1,48.23a15.165,15.165,0,1,1-5.563-11.706L49.3,39.761a10.617,10.617,0,1,0,2.157,2.163L54.7,38.686A15.055,15.055,0,0,1,58.1,48.23ZM60.84,35.812,57.9,35.484l4.112-4.112,2.938.328Z" transform="translate(-3.769 -1.167)" fill="#3a2c60"/>
              </g>
            </g>
          </g>
        </g>
      </g>
    </g>
  </g>
</svg>
