<svg xmlns="http://www.w3.org/2000/svg" xmlns:xlink="http://www.w3.org/1999/xlink" width="108" height="108" viewBox="0 0 108 108">
  <defs>
    <filter id="Trazado_982550" x="0" y="0" width="108" height="108" filterUnits="userSpaceOnUse">
      <feOffset dy="3" input="SourceAlpha"/>
      <feGaussianBlur stdDeviation="3" result="blur"/>
      <feFlood flood-opacity="0.161"/>
      <feComposite operator="in" in2="blur"/>
      <feComposite in="SourceGraphic"/>
    </filter>
  </defs>
  <g id="Grupo_1146639" data-name="Grupo 1146639" transform="translate(-201 -1605)">
    <g transform="matrix(1, 0, 0, 1, 201, 1605)" filter="url(#Trazado_982550)">
      <g id="Trazado_982550-2" data-name="Trazado 982550" transform="translate(9 6)" fill="#f3f3f3">
        <path d="M 45 88.5 C 39.12687683105469 88.5 33.43022537231445 87.35007476806641 28.06830024719238 85.08217620849609 C 22.88852500915527 82.89131164550781 18.23629951477051 79.75458526611328 14.2408504486084 75.75914764404297 C 10.24541282653809 71.76370239257812 7.108687400817871 67.11147308349609 4.917825222015381 61.93170166015625 C 2.649924993515015 56.56977462768555 1.5 50.87312316894531 1.5 45 C 1.5 39.12687683105469 2.649924993515015 33.43022537231445 4.917825222015381 28.06830024719238 C 7.108687400817871 22.88852500915527 10.24541282653809 18.23629951477051 14.2408504486084 14.2408504486084 C 18.23629951477051 10.24541282653809 22.88852500915527 7.108687400817871 28.06830024719238 4.917825222015381 C 33.43022537231445 2.649924993515015 39.12687683105469 1.5 45 1.5 C 50.87312316894531 1.5 56.56977462768555 2.649924993515015 61.93170166015625 4.917825222015381 C 67.11147308349609 7.108687400817871 71.76370239257812 10.24541282653809 75.75914764404297 14.2408504486084 C 79.75458526611328 18.23629951477051 82.89131164550781 22.88852500915527 85.08217620849609 28.06830024719238 C 87.35007476806641 33.43022537231445 88.5 39.12687683105469 88.5 45 C 88.5 50.87312316894531 87.35007476806641 56.56977462768555 85.08217620849609 61.93170166015625 C 82.89131164550781 67.11147308349609 79.75458526611328 71.76370239257812 75.75914764404297 75.75914764404297 C 71.76370239257812 79.75458526611328 67.11147308349609 82.89131164550781 61.93170166015625 85.08217620849609 C 56.56977462768555 87.35007476806641 50.87312316894531 88.5 45 88.5 Z" stroke="none"/>
        <path d="M 45 3 C 39.32871246337891 3 33.82865524291992 4.110054016113281 28.65262985229492 6.299339294433594 C 23.65165710449219 8.414573669433594 19.15968322753906 11.44334411621094 15.301513671875 15.301513671875 C 11.44334411621094 19.15968322753906 8.414573669433594 23.65165710449219 6.299339294433594 28.65262985229492 C 4.110054016113281 33.82865524291992 3 39.32871246337891 3 45 C 3 50.67128753662109 4.110054016113281 56.17134475708008 6.299339294433594 61.34737396240234 C 8.414573669433594 66.34834289550781 11.44334411621094 70.84031677246094 15.301513671875 74.698486328125 C 19.15968322753906 78.55665588378906 23.65165710449219 81.58542633056641 28.65262985229492 83.70066070556641 C 33.82865524291992 85.88994598388672 39.32871246337891 87 45 87 C 50.67128753662109 87 56.17134475708008 85.88994598388672 61.34737396240234 83.70066070556641 C 66.34834289550781 81.58542633056641 70.84031677246094 78.55665588378906 74.698486328125 74.698486328125 C 78.55665588378906 70.84031677246094 81.58542633056641 66.34834289550781 83.70066070556641 61.34737396240234 C 85.88994598388672 56.17134475708008 87 50.67128753662109 87 45 C 87 39.32871246337891 85.88994598388672 33.82865524291992 83.70066070556641 28.65262985229492 C 81.58542633056641 23.65165710449219 78.55665588378906 19.15968322753906 74.698486328125 15.301513671875 C 70.84031677246094 11.44334411621094 66.34834289550781 8.414573669433594 61.34737396240234 6.299339294433594 C 56.17134475708008 4.110054016113281 50.67128753662109 3 45 3 M 45 0 C 69.85281372070312 0 90 20.14718627929688 90 45 C 90 69.85281372070312 69.85281372070312 90 45 90 C 20.14718627929688 90 0 69.85281372070312 0 45 C 0 20.14718627929688 20.14718627929688 0 45 0 Z" stroke="none" fill="#82e0e0"/>
      </g>
    </g>
    <g id="three_15127026" transform="translate(220.499 1621.499)">
      <path id="Trazado_982717" data-name="Trazado 982717" d="M63.717,32a2.31,2.31,0,0,1,2.3,2.623A33.634,33.634,0,0,1,12.961,56.588a2.285,2.285,0,0,1-.236-3.463l7.507-7.46a2.321,2.321,0,0,1,2.857-.317,18.553,18.553,0,0,0,27.788-11.54A2.314,2.314,0,0,1,53.13,32Z" transform="translate(1.806 4.8)" fill="#55cba9"/>
      <path id="Trazado_982718" data-name="Trazado 982718" d="M60.706,31.9H50.119a2.331,2.331,0,0,1-2.26-1.84A18.546,18.546,0,0,0,33.966,16.17a2.329,2.329,0,0,1-1.84-2.26V3.33a2.316,2.316,0,0,1,2.632-2.3A33.523,33.523,0,0,1,63.007,29.268a2.317,2.317,0,0,1-2.3,2.632Z" transform="translate(4.819 0.151)" fill="#fcd576"/>
      <path id="Trazado_982719" data-name="Trazado 982719" d="M32.05,3.327V13.914a2.314,2.314,0,0,1-1.808,2.253,18.547,18.547,0,0,0-11.456,27.91,2.32,2.32,0,0,1-.307,2.875l-7.454,7.5a2.286,2.286,0,0,1-3.458-.23A33.637,33.637,0,0,1,29.427,1.026a2.31,2.31,0,0,1,2.623,2.3Z" transform="translate(0.15 0.151)" fill="#ae97ec"/>
      <g id="Grupo_1146638" data-name="Grupo 1146638" transform="translate(0 0.001)">
        <path id="Trazado_982720" data-name="Trazado 982720" d="M66.507,32.21A3.486,3.486,0,0,0,63.866,31H53.279a3.45,3.45,0,0,0-3.374,2.7,17.4,17.4,0,0,1-26.062,10.81,3.466,3.466,0,0,0-4.271.481l-7.507,7.459a3.457,3.457,0,0,0-1.012,2.717,3.389,3.389,0,0,0,1.38,2.49A34.551,34.551,0,0,0,32.977,64.35a1.15,1.15,0,0,0,0-2.3,32.258,32.258,0,0,1-19.186-6.243A1.089,1.089,0,0,1,13.346,55a1.15,1.15,0,0,1,.345-.912L21.2,46.631a1.17,1.17,0,0,1,1.444-.154,19.7,19.7,0,0,0,29.5-12.257,1.164,1.164,0,0,1,1.133-.92H63.866a1.189,1.189,0,0,1,.9.412,1.105,1.105,0,0,1,.263.894A32.315,32.315,0,0,1,39.514,61.4a1.15,1.15,0,0,0,.46,2.253A34.621,34.621,0,0,0,67.3,34.943a3.412,3.412,0,0,0-.8-2.734Z" transform="translate(1.657 4.649)" fill="#373737"/>
        <path id="Trazado_982721" data-name="Trazado 982721" d="M35.078.037a3.43,3.43,0,0,0-2.742.805,3.486,3.486,0,0,0-1.208,2.636V14.066a3.467,3.467,0,0,0,2.727,3.376A17.436,17.436,0,0,1,46.889,30.475a3.467,3.467,0,0,0,3.38,2.73H60.857A3.486,3.486,0,0,0,63.493,32a3.428,3.428,0,0,0,.805-2.74A34.834,34.834,0,0,0,35.078.037ZM61.751,30.49a1.182,1.182,0,0,1-.895.411H50.269a1.181,1.181,0,0,1-1.139-.943A19.749,19.749,0,0,0,34.371,15.2a1.181,1.181,0,0,1-.942-1.139V3.474a1.182,1.182,0,0,1,.411-.895,1.128,1.128,0,0,1,.737-.279,1.214,1.214,0,0,1,.167.013A32.518,32.518,0,0,1,62.018,29.587a1.12,1.12,0,0,1-.267.9Z" transform="translate(4.67 -0.001)" fill="#373737"/>
        <path id="Trazado_982722" data-name="Trazado 982722" d="M9.282,56.425c.085.007.17.009.254.009a3.458,3.458,0,0,0,2.455-1.022l7.454-7.5a3.45,3.45,0,0,0,.46-4.293,17.4,17.4,0,0,1,10.74-26.178,3.45,3.45,0,0,0,2.706-3.374V3.477A3.486,3.486,0,0,0,32.141.832,3.4,3.4,0,0,0,29.408.039,34.787,34.787,0,0,0,6.791,55.055a3.4,3.4,0,0,0,2.491,1.37Zm20.47-54.11a1.048,1.048,0,0,1,.161-.015,1.116,1.116,0,0,1,.726.276,1.189,1.189,0,0,1,.412.9V14.064a1.166,1.166,0,0,1-.92,1.133,19.7,19.7,0,0,0-12.167,29.64,1.167,1.167,0,0,1-.15,1.45l-7.456,7.5a1.206,1.206,0,0,1-.909.345,1.088,1.088,0,0,1-.805-.442,32.485,32.485,0,0,1,21.1-51.379Z" transform="translate(0 -0.001)" fill="#373737"/>
        <path id="Trazado_982723" data-name="Trazado 982723" d="M21.337,41.363a1.15,1.15,0,0,0,1.626,0l18.4-18.4a1.15,1.15,0,1,0-1.626-1.626l-18.4,18.4A1.15,1.15,0,0,0,21.337,41.363Z" transform="translate(3.151 3.149)" fill="#373737"/>
        <path id="Trazado_982724" data-name="Trazado 982724" d="M28.9,25.45a3.45,3.45,0,1,0-3.45,3.45,3.45,3.45,0,0,0,3.45-3.45Zm-4.6,0a1.15,1.15,0,1,1,1.15,1.15A1.15,1.15,0,0,1,24.3,25.45Z" transform="translate(3.301 3.299)" fill="#373737"/>
        <path id="Trazado_982725" data-name="Trazado 982725" d="M32,35.45A3.45,3.45,0,1,0,35.45,32,3.45,3.45,0,0,0,32,35.45Zm4.6,0a1.15,1.15,0,1,1-1.15-1.15A1.15,1.15,0,0,1,36.6,35.45Z" transform="translate(4.801 4.799)" fill="#373737"/>
      </g>
    </g>
  </g>
</svg>
