<svg xmlns="http://www.w3.org/2000/svg" xmlns:xlink="http://www.w3.org/1999/xlink" width="108" height="108" viewBox="0 0 108 108">
  <defs>
    <filter id="Trazado_982551" x="0" y="0" width="108" height="108" filterUnits="userSpaceOnUse">
      <feOffset dy="3" input="SourceAlpha"/>
      <feGaussianBlur stdDeviation="3" result="blur"/>
      <feFlood flood-opacity="0.161"/>
      <feComposite operator="in" in2="blur"/>
      <feComposite in="SourceGraphic"/>
    </filter>
  </defs>
  <g id="Grupo_1146642" data-name="Grupo 1146642" transform="translate(-831 -1605)">
    <g transform="matrix(1, 0, 0, 1, 831, 1605)" filter="url(#Trazado_982551)">
      <g id="Trazado_982551-2" data-name="Trazado 982551" transform="translate(9 6)" fill="#f3f3f3">
        <path d="M 45 88.5 C 39.12687683105469 88.5 33.43022537231445 87.35007476806641 28.06830024719238 85.08217620849609 C 22.88852500915527 82.89131164550781 18.23629951477051 79.75458526611328 14.2408504486084 75.75914764404297 C 10.24541282653809 71.76370239257812 7.108687400817871 67.11147308349609 4.917825222015381 61.93170166015625 C 2.649924993515015 56.56977462768555 1.5 50.87312316894531 1.5 45 C 1.5 39.12687683105469 2.649924993515015 33.43022537231445 4.917825222015381 28.06830024719238 C 7.108687400817871 22.88852500915527 10.24541282653809 18.23629951477051 14.2408504486084 14.2408504486084 C 18.23629951477051 10.24541282653809 22.88852500915527 7.108687400817871 28.06830024719238 4.917825222015381 C 33.43022537231445 2.649924993515015 39.12687683105469 1.5 45 1.5 C 50.87312316894531 1.5 56.56977462768555 2.649924993515015 61.93170166015625 4.917825222015381 C 67.11147308349609 7.108687400817871 71.76370239257812 10.24541282653809 75.75914764404297 14.2408504486084 C 79.75458526611328 18.23629951477051 82.89131164550781 22.88852500915527 85.08217620849609 28.06830024719238 C 87.35007476806641 33.43022537231445 88.5 39.12687683105469 88.5 45 C 88.5 50.87312316894531 87.35007476806641 56.56977462768555 85.08217620849609 61.93170166015625 C 82.89131164550781 67.11147308349609 79.75458526611328 71.76370239257812 75.75914764404297 75.75914764404297 C 71.76370239257812 79.75458526611328 67.11147308349609 82.89131164550781 61.93170166015625 85.08217620849609 C 56.56977462768555 87.35007476806641 50.87312316894531 88.5 45 88.5 Z" stroke="none"/>
        <path d="M 45 3 C 39.32871246337891 3 33.82865524291992 4.110054016113281 28.65262985229492 6.299339294433594 C 23.65165710449219 8.414573669433594 19.15968322753906 11.44334411621094 15.301513671875 15.301513671875 C 11.44334411621094 19.15968322753906 8.414573669433594 23.65165710449219 6.299339294433594 28.65262985229492 C 4.110054016113281 33.82865524291992 3 39.32871246337891 3 45 C 3 50.67128753662109 4.110054016113281 56.17134475708008 6.299339294433594 61.34737396240234 C 8.414573669433594 66.34834289550781 11.44334411621094 70.84031677246094 15.301513671875 74.698486328125 C 19.15968322753906 78.55665588378906 23.65165710449219 81.58542633056641 28.65262985229492 83.70066070556641 C 33.82865524291992 85.88994598388672 39.32871246337891 87 45 87 C 50.67128753662109 87 56.17134475708008 85.88994598388672 61.34737396240234 83.70066070556641 C 66.34834289550781 81.58542633056641 70.84031677246094 78.55665588378906 74.698486328125 74.698486328125 C 78.55665588378906 70.84031677246094 81.58542633056641 66.34834289550781 83.70066070556641 61.34737396240234 C 85.88994598388672 56.17134475708008 87 50.67128753662109 87 45 C 87 39.32871246337891 85.88994598388672 33.82865524291992 83.70066070556641 28.65262985229492 C 81.58542633056641 23.65165710449219 78.55665588378906 19.15968322753906 74.698486328125 15.301513671875 C 70.84031677246094 11.44334411621094 66.34834289550781 8.414573669433594 61.34737396240234 6.299339294433594 C 56.17134475708008 4.110054016113281 50.67128753662109 3 45 3 M 45 0 C 69.85281372070312 0 90 20.14718627929688 90 45 C 90 69.85281372070312 69.85281372070312 90 45 90 C 20.14718627929688 90 0 69.85281372070312 0 45 C 0 20.14718627929688 20.14718627929688 0 45 0 Z" stroke="none" fill="#fd7940"/>
      </g>
    </g>
    <g id="development_16611718" transform="translate(856.166 1622.277)">
      <g id="Color" transform="translate(6.611 2.611)">
        <path id="Trazado_982726" data-name="Trazado 982726" d="M50.446,2V64.224H45.957a16.5,16.5,0,0,0-.156-3.778l-2.867-.822a14.586,14.586,0,0,0-1.889-4.6l1.444-2.6a17.462,17.462,0,0,0-3.156-3.245V33.112L34.89,28.667V19.778l-6.667-6.667-6.667,6.667v8.889l-4.445,4.445V49.179a17.462,17.462,0,0,0-3.156,3.245l1.444,2.6a14.586,14.586,0,0,0-1.889,4.6l-2.867.822a16.5,16.5,0,0,0-.156,3.778H6V10.889h8.889V2Z" transform="translate(-6 -2)" fill="#f2f2f2" fill-rule="evenodd"/>
        <path id="Trazado_982727" data-name="Trazado 982727" d="M14.889,2v8.889H6Z" transform="translate(-6 -2)" fill="#43b3ff" fill-rule="evenodd"/>
        <path id="Trazado_982728" data-name="Trazado 982728" d="M43.512,40.438H33.4v-1.2a7.622,7.622,0,1,0-15.245,0v1.2H8.044A16.5,16.5,0,0,1,8.2,36.66l2.867-.822a14.586,14.586,0,0,1,1.889-4.6l-1.444-2.6a17.462,17.462,0,0,1,3.156-3.245,4.266,4.266,0,0,1,.489-.4l2.622,1.422a9.551,9.551,0,0,1,1.333-.711,14.576,14.576,0,0,1,3.245-1.178L23.2,21.66a16.713,16.713,0,0,1,5.156,0l.844,2.867A14.576,14.576,0,0,1,32.445,25.7a9.551,9.551,0,0,1,1.333.711L36.4,24.993a4.267,4.267,0,0,1,.489.4,17.462,17.462,0,0,1,3.156,3.245l-1.444,2.6a14.586,14.586,0,0,1,1.889,4.6l2.867.822a16.5,16.5,0,0,1,.156,3.778Z" transform="translate(-3.555 21.786)" fill="#ffc943" fill-rule="evenodd"/>
        <path id="Trazado_982729" data-name="Trazado 982729" d="M27.815,33.652v1.2H12.57v-1.2a7.622,7.622,0,1,1,15.245,0Z" transform="translate(2.03 27.371)" fill="#f2f2f2" fill-rule="evenodd"/>
        <g id="Grupo_1146640" data-name="Grupo 1146640" transform="translate(11.111 11.111)">
          <path id="Trazado_982730" data-name="Trazado 982730" d="M26.334,13.667V43.379A14.576,14.576,0,0,0,23.089,42.2l-.844-2.867a16.713,16.713,0,0,0-5.156,0L16.245,42.2A14.575,14.575,0,0,0,13,43.379V13.667L19.667,7l6.667,6.667Z" transform="translate(-8.555 -7)" fill="#f45151" fill-rule="evenodd"/>
          <path id="Trazado_982731" data-name="Trazado 982731" d="M15.445,14V34.823a9.551,9.551,0,0,0-1.333.711l-2.622-1.422a4.266,4.266,0,0,0-.489.4V18.445Z" transform="translate(-11 1.556)" fill="#f45151" fill-rule="evenodd"/>
          <path id="Trazado_982732" data-name="Trazado 982732" d="M23.445,18.445V34.512a4.266,4.266,0,0,0-.489-.4l-2.622,1.422A9.551,9.551,0,0,0,19,34.823V14Z" transform="translate(-1.222 1.556)" fill="#f45151" fill-rule="evenodd"/>
        </g>
      </g>
      <g id="Line" transform="translate(5.5 1.5)">
        <g id="Grupo_1146641" data-name="Grupo 1146641">
          <path id="Trazado_982733" data-name="Trazado 982733" d="M5.5,64.835a1.111,1.111,0,0,0,1.111,1.111H51.057a1.111,1.111,0,0,0,1.111-1.111V2.611A1.111,1.111,0,0,0,51.057,1.5H15.5a1.11,1.11,0,0,0-.786.326L5.826,10.715A1.11,1.11,0,0,0,5.5,11.5V47.057a1.111,1.111,0,0,0,2.222,0V12.611H15.5A1.111,1.111,0,0,0,16.611,11.5V3.722H49.946v60H47.694a17.348,17.348,0,0,0-.184-2.843,1.112,1.112,0,0,0-.791-.892l-2.246-.645a15.616,15.616,0,0,0-1.533-3.728l1.133-2.04a1.111,1.111,0,0,0-.08-1.2A18.754,18.754,0,0,0,40.118,48.5a1.119,1.119,0,0,0-1.193-.085l-2.07,1.124a16.738,16.738,0,0,0-3.711-1.532l-.666-2.264a1.112,1.112,0,0,0-.894-.783,17.972,17.972,0,0,0-5.5,0,1.112,1.112,0,0,0-.894.783l-.666,2.264a16.737,16.737,0,0,0-3.711,1.532l-2.07-1.124a1.12,1.12,0,0,0-1.193.085,18.754,18.754,0,0,0-3.874,3.874,1.111,1.111,0,0,0-.08,1.2l1.133,2.04A15.616,15.616,0,0,0,13.2,59.344l-2.246.645a1.112,1.112,0,0,0-.791.892,17.347,17.347,0,0,0-.184,2.843H7.722V55.946a1.111,1.111,0,1,0-2.222,0v8.889ZM9.294,10.389l5.1-5.1v5.1ZM22.309,63.724c0-.029.017-.053.017-.082a6.508,6.508,0,1,1,13.017,0c0,.029.015.054.017.082H22.309Zm-10.05-1.8,2.169-.623a1.111,1.111,0,0,0,.779-.829,13.47,13.47,0,0,1,1.746-4.249,1.11,1.11,0,0,0,.029-1.129L15.9,53.138a16.584,16.584,0,0,1,2.424-2.426L20.3,51.79a1.118,1.118,0,0,0,1.109-.028A14.649,14.649,0,0,1,25.667,50a1.11,1.11,0,0,0,.811-.766l.641-2.177a15.635,15.635,0,0,1,3.431,0l.641,2.177A1.11,1.11,0,0,0,32,50a14.649,14.649,0,0,1,4.255,1.758,1.118,1.118,0,0,0,1.109.028l1.984-1.079a16.583,16.583,0,0,1,2.424,2.426L40.685,55.1a1.11,1.11,0,0,0,.029,1.129,13.469,13.469,0,0,1,1.746,4.249,1.111,1.111,0,0,0,.779.829l2.169.623a15.549,15.549,0,0,1,.078,1.8H37.548c0-.029.017-.053.017-.082a8.731,8.731,0,1,0-17.461,0c0,.029.015.054.017.082H12.181A15.548,15.548,0,0,1,12.259,61.925Z" transform="translate(-5.5 -1.5)" fill-rule="evenodd"/>
          <path id="Trazado_982734" data-name="Trazado 982734" d="M12.049,26.825l0,0L9.826,29.048A1.111,1.111,0,1,0,11.4,30.62l.326-.326v8.429a1.111,1.111,0,0,0,2.222,0V28.072l2.222-2.222V38.723a1.111,1.111,0,0,0,2.222,0V14.738l5.556-5.556L29.5,14.738V38.723a1.111,1.111,0,0,0,2.222,0V25.85l2.222,2.222V38.723a1.111,1.111,0,1,0,2.222,0V30.294l.326.326a1.111,1.111,0,1,0,1.571-1.571l-2.221-2.221,0,0-4.118-4.118V16.96l.326.326a1.111,1.111,0,1,0,1.571-1.571L31.4,13.494l0,0L24.73,6.826a1.111,1.111,0,0,0-1.571,0l-6.665,6.665,0,0L14.27,15.715a1.111,1.111,0,0,0,1.571,1.571l.326-.326v5.747l-4.118,4.118Z" transform="translate(-0.611 4.611)" fill-rule="evenodd"/>
          <circle id="Elipse_11598" data-name="Elipse 11598" cx="1.054" cy="1.054" r="1.054" transform="translate(0 48.633)"/>
        </g>
      </g>
    </g>
  </g>
</svg>
