<svg xmlns="http://www.w3.org/2000/svg" xmlns:xlink="http://www.w3.org/1999/xlink" width="108" height="108" viewBox="0 0 108 108">
  <defs>
    <filter id="Trazado_982553" x="0" y="0" width="108" height="108" filterUnits="userSpaceOnUse">
      <feOffset dy="3" input="SourceAlpha"/>
      <feGaussianBlur stdDeviation="3" result="blur"/>
      <feFlood flood-opacity="0.161"/>
      <feComposite operator="in" in2="blur"/>
      <feComposite in="SourceGraphic"/>
    </filter>
  </defs>
  <g id="Grupo_1146644" data-name="Grupo 1146644" transform="translate(-201 -1790)">
    <g transform="matrix(1, 0, 0, 1, 201, 1790)" filter="url(#Trazado_982553)">
      <g id="Trazado_982553-2" data-name="Trazado 982553" transform="translate(9 6)" fill="#f3f3f3">
        <path d="M 45 88.5 C 39.12687683105469 88.5 33.43022537231445 87.35007476806641 28.06830024719238 85.08217620849609 C 22.88852500915527 82.89131164550781 18.23629951477051 79.75458526611328 14.2408504486084 75.75914764404297 C 10.24541282653809 71.76370239257812 7.108687400817871 67.11147308349609 4.917825222015381 61.93170166015625 C 2.649924993515015 56.56977462768555 1.5 50.87312316894531 1.5 45 C 1.5 39.12687683105469 2.649924993515015 33.43022537231445 4.917825222015381 28.06830024719238 C 7.108687400817871 22.88852500915527 10.24541282653809 18.23629951477051 14.2408504486084 14.2408504486084 C 18.23629951477051 10.24541282653809 22.88852500915527 7.108687400817871 28.06830024719238 4.917825222015381 C 33.43022537231445 2.649924993515015 39.12687683105469 1.5 45 1.5 C 50.87312316894531 1.5 56.56977462768555 2.649924993515015 61.93170166015625 4.917825222015381 C 67.11147308349609 7.108687400817871 71.76370239257812 10.24541282653809 75.75914764404297 14.2408504486084 C 79.75458526611328 18.23629951477051 82.89131164550781 22.88852500915527 85.08217620849609 28.06830024719238 C 87.35007476806641 33.43022537231445 88.5 39.12687683105469 88.5 45 C 88.5 50.87312316894531 87.35007476806641 56.56977462768555 85.08217620849609 61.93170166015625 C 82.89131164550781 67.11147308349609 79.75458526611328 71.76370239257812 75.75914764404297 75.75914764404297 C 71.76370239257812 79.75458526611328 67.11147308349609 82.89131164550781 61.93170166015625 85.08217620849609 C 56.56977462768555 87.35007476806641 50.87312316894531 88.5 45 88.5 Z" stroke="none"/>
        <path d="M 45 3 C 39.32871246337891 3 33.82865524291992 4.110054016113281 28.65262985229492 6.299339294433594 C 23.65165710449219 8.414573669433594 19.15968322753906 11.44334411621094 15.301513671875 15.301513671875 C 11.44334411621094 19.15968322753906 8.414573669433594 23.65165710449219 6.299339294433594 28.65262985229492 C 4.110054016113281 33.82865524291992 3 39.32871246337891 3 45 C 3 50.67128753662109 4.110054016113281 56.17134475708008 6.299339294433594 61.34737396240234 C 8.414573669433594 66.34834289550781 11.44334411621094 70.84031677246094 15.301513671875 74.698486328125 C 19.15968322753906 78.55665588378906 23.65165710449219 81.58542633056641 28.65262985229492 83.70066070556641 C 33.82865524291992 85.88994598388672 39.32871246337891 87 45 87 C 50.67128753662109 87 56.17134475708008 85.88994598388672 61.34737396240234 83.70066070556641 C 66.34834289550781 81.58542633056641 70.84031677246094 78.55665588378906 74.698486328125 74.698486328125 C 78.55665588378906 70.84031677246094 81.58542633056641 66.34834289550781 83.70066070556641 61.34737396240234 C 85.88994598388672 56.17134475708008 87 50.67128753662109 87 45 C 87 39.32871246337891 85.88994598388672 33.82865524291992 83.70066070556641 28.65262985229492 C 81.58542633056641 23.65165710449219 78.55665588378906 19.15968322753906 74.698486328125 15.301513671875 C 70.84031677246094 11.44334411621094 66.34834289550781 8.414573669433594 61.34737396240234 6.299339294433594 C 56.17134475708008 4.110054016113281 50.67128753662109 3 45 3 M 45 0 C 69.85281372070312 0 90 20.14718627929688 90 45 C 90 69.85281372070312 69.85281372070312 90 45 90 C 20.14718627929688 90 0 69.85281372070312 0 45 C 0 20.14718627929688 20.14718627929688 0 45 0 Z" stroke="none" fill="#fd7940"/>
      </g>
    </g>
    <g id="labor_12539753" transform="translate(216.204 1801.705)">
      <g id="Grupo_1146643" data-name="Grupo 1146643" transform="translate(4.952 5.598)">
        <path id="Trazado_982735" data-name="Trazado 982735" d="M61.006,122.942a34.712,34.712,0,0,0,21.9,0,.5.5,0,0,0,.153-.845,8.119,8.119,0,0,1-2.431-5.609v-2.968H63.284v2.968a8.119,8.119,0,0,1-2.431,5.609.5.5,0,0,0,.153.845Z" transform="translate(-53.803 -99.995)" fill="#232f54" fill-rule="evenodd"/>
        <path id="Trazado_982736" data-name="Trazado 982736" d="M29.018,176.475a18.232,18.232,0,0,1,18.155,16.574H10.863A18.232,18.232,0,0,1,29.018,176.475Z" transform="translate(-10.863 -154.257)" fill="#f23353" fill-rule="evenodd"/>
        <path id="Trazado_982737" data-name="Trazado 982737" d="M43.832,197.048H10.863a18.245,18.245,0,0,1,13.008-15.837,18.445,18.445,0,0,1,1.877-.1,18.232,18.232,0,0,1,18.085,15.934Z" transform="translate(-10.863 -158.256)" fill="#ff5471" fill-rule="evenodd"/>
        <path id="Trazado_982738" data-name="Trazado 982738" d="M88.158,50.274a8.682,8.682,0,1,1-8.682,8.682A8.682,8.682,0,0,1,88.158,50.274Z" transform="translate(-70.003 -45.48)" fill="#fdb0a0" fill-rule="evenodd"/>
        <path id="Trazado_982739" data-name="Trazado 982739" d="M86.985,68.053a8.683,8.683,0,0,1,0-17.206,8.683,8.683,0,0,1,0,17.206Z" transform="translate(-70.002 -45.973)" fill="#ffcec0" fill-rule="evenodd"/>
        <path id="Trazado_982740" data-name="Trazado 982740" d="M92.564,26.478V25.045a9.5,9.5,0,1,0-19,0v1.433Z" transform="translate(-64.911 -15.547)" fill="#fdc72e" fill-rule="evenodd"/>
        <path id="Trazado_982741" data-name="Trazado 982741" d="M81.936,16.04a9.531,9.531,0,0,0-8.368,9.43V26.9H90.305V25.47a9.532,9.532,0,0,0-8.368-9.43Z" transform="translate(-64.911 -15.972)" fill="#fcdb35" fill-rule="evenodd"/>
        <path id="Trazado_982742" data-name="Trazado 982742" d="M70.36,92.05v-.726H90.241v.726A28.959,28.959,0,0,1,80.3,94.28a28.962,28.962,0,0,1-9.941-2.23Z" transform="translate(-62.146 -80.862)" fill="#f19a00" fill-rule="evenodd"/>
        <path id="Trazado_982743" data-name="Trazado 982743" d="M70.36,91.325H90.241a28.962,28.962,0,0,1-9.941,2.23,28.965,28.965,0,0,1-9.941-2.23Z" transform="translate(-62.146 -80.863)" fill="#f9ac00" fill-rule="evenodd"/>
        <path id="Trazado_982744" data-name="Trazado 982744" d="M62.026,183.974,66,187.95a2.955,2.955,0,0,0,4.171,0l3.976-3.976a18.235,18.235,0,0,1,5.835,3.38v12.184H56.191V187.354a18.231,18.231,0,0,1,5.835-3.38Z" transform="translate(-49.933 -160.721)" fill="#fcdb35" fill-rule="evenodd"/>
        <path id="Trazado_982745" data-name="Trazado 982745" d="M176.04,185.387l1.412-1.412a18.231,18.231,0,0,1,5.835,3.38V191.7A18.308,18.308,0,0,0,176.04,185.387Z" transform="translate(-153.236 -160.722)" fill="#fdc72e" fill-rule="evenodd"/>
        <path id="Trazado_982746" data-name="Trazado 982746" d="M114.991,342.619l2.832,1.9a1.142,1.142,0,0,0,1.455-.142l4.383-4.383a1.142,1.142,0,0,0,.142-1.455l-1.9-2.832,2.409-5.815,3.345-.66a1.142,1.142,0,0,0,.928-1.129V325h-10.6v.015a13.7,13.7,0,1,1-27.4,0V325H79.99v3.1a1.142,1.142,0,0,0,.928,1.129l3.345.66,2.409,5.815-1.9,2.832a1.142,1.142,0,0,0,.142,1.455l4.383,4.383a1.142,1.142,0,0,0,1.455.142l2.832-1.9,5.815,2.409.66,3.345a1.142,1.142,0,0,0,1.129.928h6.2a1.142,1.142,0,0,0,1.129-.928l.66-3.345,5.815-2.409Z" transform="translate(-70.446 -282.28)" fill="#f9ac00" fill-rule="evenodd"/>
        <path id="Trazado_982747" data-name="Trazado 982747" d="M114.991,342.621,117.046,344l4.673-4.673-2.426-3.618,2.409-5.815,4.274-.843v-4.046h-7.986v.015a13.7,13.7,0,1,1-27.4,0v-.015h-10.6v3.1a1.142,1.142,0,0,0,.928,1.129l3.345.66,2.409,5.815-1.9,2.832A1.142,1.142,0,0,0,84.914,340l3.647,3.647,2.859-1.917,2.164.9L99.4,345.03l.66,3.345a1.142,1.142,0,0,0,1.129.928h4.534l1.1-5.595,6.049-2.506,2.116,1.419Z" transform="translate(-70.445 -282.281)" fill="#fcdb35" fill-rule="evenodd"/>
        <path id="Trazado_982748" data-name="Trazado 982748" d="M158.532,338.692a13.7,13.7,0,0,1-12.819-13.673V325h-1.766v.015a13.7,13.7,0,0,0,13.7,13.7C157.946,338.721,158.24,338.71,158.532,338.692Z" transform="translate(-125.573 -282.28)" fill="#f9ac00" fill-rule="evenodd"/>
        <path id="Trazado_982749" data-name="Trazado 982749" d="M256.271,176.7a18.232,18.232,0,0,1,18.155,16.574h-36.31A18.232,18.232,0,0,1,256.271,176.7Z" transform="translate(-206.741 -154.452)" fill="#2a92fa" fill-rule="evenodd"/>
        <path id="Trazado_982750" data-name="Trazado 982750" d="M271.085,197.274H238.116a18.245,18.245,0,0,1,13.008-15.837,18.45,18.45,0,0,1,1.877-.1,18.232,18.232,0,0,1,18.085,15.934Z" transform="translate(-206.742 -158.451)" fill="#4eb1fc" fill-rule="evenodd"/>
        <path id="Trazado_982751" data-name="Trazado 982751" d="M315.41,50.5a8.682,8.682,0,1,1-8.682,8.682A8.682,8.682,0,0,1,315.41,50.5Z" transform="translate(-265.881 -45.674)" fill="#fdb0a0" fill-rule="evenodd"/>
        <path id="Trazado_982752" data-name="Trazado 982752" d="M314.238,68.279a8.683,8.683,0,1,1,7.51-8.6A8.684,8.684,0,0,1,314.238,68.279Z" transform="translate(-265.881 -46.168)" fill="#ffcec0" fill-rule="evenodd"/>
        <path id="Trazado_982753" data-name="Trazado 982753" d="M319.817,26.7V25.271a9.5,9.5,0,1,0-19,0V26.7Z" transform="translate(-260.789 -15.742)" fill="#fdc72e" fill-rule="evenodd"/>
        <path id="Trazado_982754" data-name="Trazado 982754" d="M309.19,16.266a9.531,9.531,0,0,0-8.368,9.43V27.13h16.737V25.7a9.532,9.532,0,0,0-8.368-9.43Z" transform="translate(-260.789 -16.167)" fill="#fcdb35" fill-rule="evenodd"/>
        <path id="Trazado_982755" data-name="Trazado 982755" d="M297.612,92.276V91.55h19.881v.726a23.267,23.267,0,0,1-19.881,0Z" transform="translate(-258.023 -81.057)" fill="#f19a00" fill-rule="evenodd"/>
        <path id="Trazado_982756" data-name="Trazado 982756" d="M297.612,91.551h19.881a23.267,23.267,0,0,1-19.881,0Z" transform="translate(-258.023 -81.058)" fill="#f9ac00" fill-rule="evenodd"/>
        <path id="Trazado_982757" data-name="Trazado 982757" d="M289.279,184.2l3.976,3.976a2.955,2.955,0,0,0,4.171,0L301.4,184.2a18.235,18.235,0,0,1,5.835,3.38v12.184H283.444V187.58a18.234,18.234,0,0,1,5.835-3.38Z" transform="translate(-245.812 -160.916)" fill="#fcdb35" fill-rule="evenodd"/>
        <path id="Trazado_982758" data-name="Trazado 982758" d="M403.293,185.613l1.412-1.412a18.233,18.233,0,0,1,5.835,3.38v4.343A18.307,18.307,0,0,0,403.293,185.613Z" transform="translate(-349.114 -160.917)" fill="#fdc72e" fill-rule="evenodd"/>
      </g>
      <path id="Trazado_982759" data-name="Trazado 982759" d="M316.159,240.467H330.92v4.689H316.159Z" transform="translate(-269.058 -203.817)" fill="#ff5471"/>
      <path id="Trazado_982760" data-name="Trazado 982760" d="M414.889,240.467h1.13v4.689h-1.13Z" transform="translate(-354.157 -203.817)" fill="#f23353"/>
      <path id="Trazado_982761" data-name="Trazado 982761" d="M62.123,51.42a.176.176,0,0,1-.146.184l-3.347.659a.978.978,0,0,0-.705.578l-2.409,5.813a.979.979,0,0,0,.093.908l1.9,2.831a.177.177,0,0,1-.02.236L53.1,67.009a.173.173,0,0,1-.233.023l-2.828-1.9a.974.974,0,0,0-.912-.091l-5.816,2.409a.968.968,0,0,0-.572.706L42.08,71.5a.184.184,0,0,1-.186.15H35.7a.173.173,0,0,1-.18-.15l-.665-3.343a.954.954,0,0,0-.572-.706l-5.816-2.409a.991.991,0,0,0-.373-.073.944.944,0,0,0-.532.164l-2.835,1.9a.173.173,0,0,1-.233-.023l-4.379-4.381a.171.171,0,0,1-.027-.236l1.9-2.831a.979.979,0,0,0,.093-.908L19.668,52.84a.978.978,0,0,0-.705-.578L15.615,51.6a.181.181,0,0,1-.146-.184V49.29h8.678a14.682,14.682,0,0,0,29.3,0h8.678v2.13Zm.972-4.063H52.514a.966.966,0,0,0-.965.967,12.753,12.753,0,0,1-25.507,0,.966.966,0,0,0-.965-.967H14.5a.967.967,0,0,0-.972.967v3.1a2.1,2.1,0,0,0,1.71,2.079l2.835.559,2.016,4.858-1.61,2.4a2.1,2.1,0,0,0,.26,2.68l4.379,4.381a2.1,2.1,0,0,0,2.682.261l2.4-1.61,4.858,2.013.559,2.835a2.091,2.091,0,0,0,2.076,1.71h6.2a2.1,2.1,0,0,0,2.083-1.71l.559-2.835,4.851-2.013,2.4,1.61a2.1,2.1,0,0,0,2.682-.261L58.849,64a2.1,2.1,0,0,0,.26-2.68l-1.6-2.4,2.01-4.858L62.35,53.5a2.1,2.1,0,0,0,1.71-2.079v-3.1a.966.966,0,0,0-.965-.967Zm-2.2-6.983H48.069V37.617H60.9Zm.965-4.689H47.1a.966.966,0,0,0-.965.966v4.69a.966.966,0,0,0,.965.966h14.76a.966.966,0,0,0,.965-.966V36.65A.966.966,0,0,0,61.864,35.684Zm5.457,7.764V34.5a17.153,17.153,0,0,1,4.212,8.948ZM41.647,34.5v8.948H37.435A17.153,17.153,0,0,1,41.647,34.5Zm-31.376,0v8.948H6.059A17.2,17.2,0,0,1,10.271,34.5Zm2.921-6.615A9.167,9.167,0,0,0,15.049,24.4a9.658,9.658,0,0,0,3.281,3.094A19.319,19.319,0,0,0,15.4,28.5C14.63,28.325,13.885,28.118,13.193,27.885ZM23.1,20.032a25.112,25.112,0,0,1-7.679-1.4c-.013.163-.02.325-.02.488a7.706,7.706,0,1,0,15.412,0c0-.163-.007-.325-.013-.488a25.189,25.189,0,0,1-7.686,1.4Zm6.189-2.953a21.99,21.99,0,0,1-6.182,1.02,21.985,21.985,0,0,1-6.175-1.02ZM20.047,7.2l-.18,4.77a.969.969,0,0,0,1.936.072l.22-6.035a8.106,8.106,0,0,1,2.169,0l.226,6.035a.966.966,0,0,0,.965.931h.033a.964.964,0,0,0,.932-1L26.176,7.2a8.592,8.592,0,0,1,5.457,7.944H14.59A8.583,8.583,0,0,1,20.047,7.2ZM33.03,27.885c-.7.233-1.444.44-2.216.621a19.028,19.028,0,0,0-2.928-1.011,9.745,9.745,0,0,0,3.287-3.1,8.991,8.991,0,0,0,1.857,3.486ZM24.073,34.56a3.831,3.831,0,0,0,1.8-1.023l3.52-3.516a17.394,17.394,0,0,1,4.625,2.7V43.448H24.073Zm3.247-5.206a17.05,17.05,0,0,0-4.212-.531,17.5,17.5,0,0,0-4.226.514L21.71,32.17a1.981,1.981,0,0,0,2.795,0Zm-15.112,3.31a17.106,17.106,0,0,1,4.6-2.669l3.54,3.542a3.861,3.861,0,0,0,1.8,1.023v8.888H12.208ZM37.675,36.83a17.622,17.622,0,0,0-1.73-2.271v6.584a18.928,18.928,0,0,1,1.73-4.313Zm9.1-17.706c0-.163.007-.326.013-.488a25.189,25.189,0,0,0,7.686,1.4h.013a25.186,25.186,0,0,0,7.686-1.4c.007.163.013.325.013.488a7.706,7.706,0,1,1-15.412,0Zm13.881-2.046a21.948,21.948,0,0,1-6.175,1.02,22.026,22.026,0,0,1-6.182-1.02ZM51.423,7.2l-.18,4.77a.966.966,0,1,0,1.93.072L53.4,6.009a8.106,8.106,0,0,1,2.169,0l.226,6.035a.961.961,0,0,0,.965.931h.033a.969.969,0,0,0,.932-1l-.18-4.77a8.589,8.589,0,0,1,5.463,7.944H45.96A8.6,8.6,0,0,1,51.423,7.2ZM50.252,29.337a17.668,17.668,0,0,1,8.465,0L55.881,32.17a1.981,1.981,0,0,1-2.795,0l-2.835-2.832Zm-6.675,3.327V43.448H65.391V32.665a17.19,17.19,0,0,0-4.6-2.67l-3.547,3.542a3.909,3.909,0,0,1-5.523,0l-3.54-3.542a17.142,17.142,0,0,0-4.6,2.669ZM73.583,44.328A19.192,19.192,0,0,0,59.262,27.492a9.648,9.648,0,0,0,4.865-8.368A9.131,9.131,0,0,0,64.053,18c.233-.082.459-.166.7-.253a.968.968,0,0,0,.632-.906v-.725a.966.966,0,0,0-.446-.811v-.152A10.534,10.534,0,0,0,57.465,5.132a.958.958,0,0,0-.745-.876,10.065,10.065,0,0,0-4.472,0,.958.958,0,0,0-.745.876A10.534,10.534,0,0,0,44.03,15.149V15.3a.966.966,0,0,0-.446.811v.725a.968.968,0,0,0,.632.906l.692.253a10.629,10.629,0,0,0-.067,1.128,9.647,9.647,0,0,0,4.864,8.368,19.262,19.262,0,0,0-10.913,7.544,19.256,19.256,0,0,0-5.483-5.211c.373-.118.739-.244,1.091-.375a1.439,1.439,0,0,0,.925-1.111,1.424,1.424,0,0,0-.479-1.367,7.109,7.109,0,0,1-2.1-4.88V19.124A10.628,10.628,0,0,0,32.684,18c.226-.082.459-.166.692-.253a.968.968,0,0,0,.632-.906v-.725a.966.966,0,0,0-.446-.811v-.152A10.534,10.534,0,0,0,26.09,5.132a.958.958,0,0,0-.745-.876,10.065,10.065,0,0,0-4.472,0,.966.966,0,0,0-.745.876,10.534,10.534,0,0,0-7.473,10.017V15.3a.96.96,0,0,0-.439.811v.725a.962.962,0,0,0,.626.906l.7.253a9.125,9.125,0,0,0-.067,1.128v2.968a7.115,7.115,0,0,1-2.1,4.879,1.466,1.466,0,0,0,.453,2.48c.353.132.712.257,1.085.375a19.222,19.222,0,0,0-8.9,14.5.966.966,0,0,0,.246.738.982.982,0,0,0,.719.315H72.624a.978.978,0,0,0,.712-.315.966.966,0,0,0,.246-.738Z" transform="translate(0)" fill-rule="evenodd"/>
    </g>
  </g>
</svg>
