<svg xmlns="http://www.w3.org/2000/svg" xmlns:xlink="http://www.w3.org/1999/xlink" width="108" height="108" viewBox="0 0 108 108">
  <defs>
    <filter id="Trazado_982552" x="0" y="0" width="108" height="108" filterUnits="userSpaceOnUse">
      <feOffset dy="3" input="SourceAlpha"/>
      <feGaussianBlur stdDeviation="3" result="blur"/>
      <feFlood flood-opacity="0.161"/>
      <feComposite operator="in" in2="blur"/>
      <feComposite in="SourceGraphic"/>
    </filter>
  </defs>
  <g id="Grupo_1146645" data-name="Grupo 1146645" transform="translate(-831 -1790)">
    <g transform="matrix(1, 0, 0, 1, 831, 1790)" filter="url(#Trazado_982552)">
      <g id="Trazado_982552-2" data-name="Trazado 982552" transform="translate(9 6)" fill="#f3f3f3">
        <path d="M 45 88.5 C 39.12687683105469 88.5 33.43022537231445 87.35007476806641 28.06830024719238 85.08217620849609 C 22.88852500915527 82.89131164550781 18.23629951477051 79.75458526611328 14.2408504486084 75.75914764404297 C 10.24541282653809 71.76370239257812 7.108687400817871 67.11147308349609 4.917825222015381 61.93170166015625 C 2.649924993515015 56.56977462768555 1.5 50.87312316894531 1.5 45 C 1.5 39.12687683105469 2.649924993515015 33.43022537231445 4.917825222015381 28.06830024719238 C 7.108687400817871 22.88852500915527 10.24541282653809 18.23629951477051 14.2408504486084 14.2408504486084 C 18.23629951477051 10.24541282653809 22.88852500915527 7.108687400817871 28.06830024719238 4.917825222015381 C 33.43022537231445 2.649924993515015 39.12687683105469 1.5 45 1.5 C 50.87312316894531 1.5 56.56977462768555 2.649924993515015 61.93170166015625 4.917825222015381 C 67.11147308349609 7.108687400817871 71.76370239257812 10.24541282653809 75.75914764404297 14.2408504486084 C 79.75458526611328 18.23629951477051 82.89131164550781 22.88852500915527 85.08217620849609 28.06830024719238 C 87.35007476806641 33.43022537231445 88.5 39.12687683105469 88.5 45 C 88.5 50.87312316894531 87.35007476806641 56.56977462768555 85.08217620849609 61.93170166015625 C 82.89131164550781 67.11147308349609 79.75458526611328 71.76370239257812 75.75914764404297 75.75914764404297 C 71.76370239257812 79.75458526611328 67.11147308349609 82.89131164550781 61.93170166015625 85.08217620849609 C 56.56977462768555 87.35007476806641 50.87312316894531 88.5 45 88.5 Z" stroke="none"/>
        <path d="M 45 3 C 39.32871246337891 3 33.82865524291992 4.110054016113281 28.65262985229492 6.299339294433594 C 23.65165710449219 8.414573669433594 19.15968322753906 11.44334411621094 15.301513671875 15.301513671875 C 11.44334411621094 19.15968322753906 8.414573669433594 23.65165710449219 6.299339294433594 28.65262985229492 C 4.110054016113281 33.82865524291992 3 39.32871246337891 3 45 C 3 50.67128753662109 4.110054016113281 56.17134475708008 6.299339294433594 61.34737396240234 C 8.414573669433594 66.34834289550781 11.44334411621094 70.84031677246094 15.301513671875 74.698486328125 C 19.15968322753906 78.55665588378906 23.65165710449219 81.58542633056641 28.65262985229492 83.70066070556641 C 33.82865524291992 85.88994598388672 39.32871246337891 87 45 87 C 50.67128753662109 87 56.17134475708008 85.88994598388672 61.34737396240234 83.70066070556641 C 66.34834289550781 81.58542633056641 70.84031677246094 78.55665588378906 74.698486328125 74.698486328125 C 78.55665588378906 70.84031677246094 81.58542633056641 66.34834289550781 83.70066070556641 61.34737396240234 C 85.88994598388672 56.17134475708008 87 50.67128753662109 87 45 C 87 39.32871246337891 85.88994598388672 33.82865524291992 83.70066070556641 28.65262985229492 C 81.58542633056641 23.65165710449219 78.55665588378906 19.15968322753906 74.698486328125 15.301513671875 C 70.84031677246094 11.44334411621094 66.34834289550781 8.414573669433594 61.34737396240234 6.299339294433594 C 56.17134475708008 4.110054016113281 50.67128753662109 3 45 3 M 45 0 C 69.85281372070312 0 90 20.14718627929688 90 45 C 90 69.85281372070312 69.85281372070312 90 45 90 C 20.14718627929688 90 0 69.85281372070312 0 45 C 0 20.14718627929688 20.14718627929688 0 45 0 Z" stroke="none" fill="#fd7940"/>
      </g>
    </g>
    <g id="iteration_17400562" transform="translate(845.096 1793.452)">
      <rect id="Rectángulo_406036" data-name="Rectángulo 406036" width="16.152" height="8.537" rx="4.269" transform="translate(21.656 64.798)" fill="#fe646f"/>
      <path id="Trazado_982762" data-name="Trazado 982762" d="M150.044,231.55H114.755a.608.608,0,0,0-.6.6v7.333a.61.61,0,0,0,.6.6h35.289a.6.6,0,0,0,.6-.6v-7.333a.6.6,0,0,0-.6-.6Z" transform="translate(-92.497 -187.147)" fill="#ffe177"/>
      <path id="Trazado_982763" data-name="Trazado 982763" d="M381.572,365.344a7.454,7.454,0,1,0,7.454,7.454A7.462,7.462,0,0,0,381.572,365.344Z" transform="translate(-319.018 -303.729)" fill="#6cf5c2"/>
      <path id="Trazado_982764" data-name="Trazado 982764" d="M287.819,70.713H272.871a.61.61,0,0,0-.6.6v7.333a.608.608,0,0,0,.6.6h14.948a.6.6,0,0,0,.6-.6V71.315A.6.6,0,0,0,287.819,70.713Z" transform="translate(-230.272 -47.002)" fill="#8ac9fe"/>
      <path id="Trazado_982765" data-name="Trazado 982765" d="M15.132,66.073a.9.9,0,0,0-1.274,1.273l.821.823H10.626a.825.825,0,0,1-.824-.824V50.394a.825.825,0,0,1,.824-.824h9.23v2.764a2.406,2.406,0,0,0,2.4,2.4H57.547a2.406,2.406,0,0,0,2.4-2.4V45a2.4,2.4,0,0,0-2.4-2.4H22.258a2.4,2.4,0,0,0-2.4,2.4v2.768h-9.23A2.628,2.628,0,0,0,8,50.394v16.95a2.628,2.628,0,0,0,2.625,2.625h4.053l-.821.823a.9.9,0,1,0,1.274,1.272l2.356-2.359a.9.9,0,0,0,0-1.273l-2.356-2.359ZM21.656,45a.608.608,0,0,1,.6-.6H57.547a.6.6,0,0,1,.6.6v7.333a.6.6,0,0,1-.6.6H22.258a.61.61,0,0,1-.6-.6Zm15.55,18H22.258a2.406,2.406,0,0,0-2.4,2.4v7.333a2.406,2.406,0,0,0,2.4,2.4H37.206a2.406,2.406,0,0,0,2.4-2.4V65.4a2.406,2.406,0,0,0-2.4-2.4Zm.6,9.736a.6.6,0,0,1-.6.6H22.258a.61.61,0,0,1-.6-.6V65.4a.61.61,0,0,1,.6-.6H37.206a.61.61,0,0,1,.6.6Zm24.746-12.92a9.255,9.255,0,1,0,9.255,9.255,9.265,9.265,0,0,0-9.255-9.255Zm0,16.709a7.454,7.454,0,1,1,7.454-7.454A7.462,7.462,0,0,1,62.554,76.523ZM66.6,66.272a.9.9,0,0,1-.026,1.273l-4.529,4.347a.9.9,0,0,1-1.261-.013l-2.261-2.265A.9.9,0,0,1,59.8,68.341l1.637,1.64,3.892-3.735a.9.9,0,0,1,1.273.026Zm-15.668,2.16a.9.9,0,0,1,0,1.273l-2.359,2.359A.9.9,0,1,1,47.3,70.791l.822-.822H42.614a.9.9,0,0,1,0-1.8H48.12l-.822-.822a.9.9,0,0,1,1.274-1.273l2.359,2.359ZM19.206,33.138a5.16,5.16,0,1,0-5.16-5.16A5.166,5.166,0,0,0,19.206,33.138Zm0-8.519a3.359,3.359,0,1,1-3.359,3.359,3.363,3.363,0,0,1,3.359-3.359Zm-10.684,5.5,1.745.808.533,1.287-.663,1.807a.9.9,0,0,0,.209.948l1.874,1.871a.9.9,0,0,0,.947.208l1.8-.663,1.286.533.808,1.745a.9.9,0,0,0,.817.522H20.53a.9.9,0,0,0,.817-.522l.808-1.745,1.287-.533,1.807.663a.9.9,0,0,0,.947-.209l1.871-1.871a.9.9,0,0,0,.209-.947l-.663-1.807.533-1.287,1.745-.808a.9.9,0,0,0,.522-.817v-.423H35.02L34.2,29.7a.9.9,0,1,0,1.274,1.272l2.356-2.359a.9.9,0,0,0,0-1.273l-2.356-2.359A.9.9,0,1,0,34.2,26.255l.821.823H30.412v-.423a.9.9,0,0,0-.522-.817l-1.745-.808-.533-1.286.663-1.8a.9.9,0,0,0-.208-.947L26.2,19.119a.9.9,0,0,0-.947-.209l-1.808.663-1.286-.53-.807-1.747a.9.9,0,0,0-.817-.523H17.882a.9.9,0,0,0-.817.523l-.807,1.747-1.286.53-1.808-.663a.9.9,0,0,0-.948.209l-1.871,1.874a.9.9,0,0,0-.208.947l.663,1.8-.533,1.286-1.745.808A.9.9,0,0,0,8,26.654V29.3a.9.9,0,0,0,.522.817ZM9.8,27.23l1.542-.714a.9.9,0,0,0,.454-.473l.8-1.936a.9.9,0,0,0,.013-.655l-.586-1.594,1.058-1.06,1.6.586a.9.9,0,0,0,.654-.013l1.936-.8a.9.9,0,0,0,.474-.455l.714-1.545h1.5l.714,1.545a.9.9,0,0,0,.474.455l1.936.8a.9.9,0,0,0,.654.013l1.6-.586,1.058,1.06L25.8,23.452a.9.9,0,0,0,.013.655l.8,1.936a.9.9,0,0,0,.454.473l1.542.714v1.5l-1.542.714a.9.9,0,0,0-.454.473l-.8,1.936a.9.9,0,0,0-.013.655l.586,1.6-1.057,1.057-1.6-.586a.9.9,0,0,0-.655.014l-1.936.8a.9.9,0,0,0-.473.454l-.714,1.542h-1.5l-.714-1.542a.9.9,0,0,0-.473-.454l-1.936-.8a.9.9,0,0,0-.655-.013l-1.594.586L12.027,34.1l.586-1.6a.9.9,0,0,0-.013-.655l-.8-1.936a.9.9,0,0,0-.454-.473L9.8,28.726v-1.5Zm59.379-.152H59.95V24.313a2.406,2.406,0,0,0-2.4-2.4H42.6a2.406,2.406,0,0,0-2.4,2.4v7.333a2.4,2.4,0,0,0,2.4,2.4H57.547a2.4,2.4,0,0,0,2.4-2.4V28.879h9.23a.827.827,0,0,1,.828.824V46.944a.827.827,0,0,1-.828.824H65.129l.822-.822a.9.9,0,0,0-1.274-1.273l-2.359,2.359a.9.9,0,0,0,0,1.273l2.359,2.359a.9.9,0,0,0,1.273-1.273l-.822-.822H69.18a2.63,2.63,0,0,0,2.629-2.625V29.7a2.63,2.63,0,0,0-2.629-2.625ZM58.149,31.647a.6.6,0,0,1-.6.6H42.6a.608.608,0,0,1-.6-.6V24.313a.61.61,0,0,1,.6-.6H57.547a.6.6,0,0,1,.6.6Zm-1.805-2.006a.9.9,0,0,1-.9.9H44.707a.9.9,0,0,1,0-1.8H55.443A.9.9,0,0,1,56.343,29.641Zm0-3.326a.9.9,0,0,1-.9.9H48.726a.9.9,0,1,1,0-1.8h6.717A.9.9,0,0,1,56.343,26.315Zm-12.537,0a.9.9,0,0,1,.9-.9h.821a.9.9,0,1,1,0,1.8h-.821A.9.9,0,0,1,43.807,26.315ZM36,70.732a.9.9,0,0,1-.9.9H24.366a.9.9,0,1,1,0-1.8H35.1A.9.9,0,0,1,36,70.732Zm0-3.326a.9.9,0,0,1-.9.9H28.385a.9.9,0,1,1,0-1.8H35.1A.9.9,0,0,1,36,67.406Zm-12.537,0a.9.9,0,0,1,.9-.9h.821a.9.9,0,0,1,0,1.8h-.821A.9.9,0,0,1,23.465,67.406Zm0-17.074a.9.9,0,0,1,.9-.9H55.443a.9.9,0,1,1,0,1.8H24.366a.9.9,0,0,1-.9-.9Zm4.019-3.326a.9.9,0,0,1,.9-.9H55.443a.9.9,0,1,1,0,1.8H28.385a.9.9,0,0,1-.9-.9Zm-4.019,0a.9.9,0,0,1,.9-.9h.821a.9.9,0,0,1,0,1.8h-.821A.9.9,0,0,1,23.465,47.006Z"/>
      <path id="Trazado_982766" data-name="Trazado 982766" d="M23.995,42.113l.8,1.936a.9.9,0,0,1,.013.655l-.586,1.6,1.06,1.058,1.594-.586a.9.9,0,0,1,.655.013l1.936.8a.9.9,0,0,1,.473.454l.714,1.542h1.5l.714-1.542a.9.9,0,0,1,.473-.454l1.936-.8a.9.9,0,0,1,.655-.014l1.6.586L38.584,46.3,38,44.7a.9.9,0,0,1,.013-.655l.8-1.936a.9.9,0,0,1,.454-.473l1.542-.714v-1.5l-1.542-.714a.9.9,0,0,1-.454-.473l-.8-1.936A.9.9,0,0,1,38,35.653l.586-1.594L37.526,33l-1.6.586a.9.9,0,0,1-.654-.013l-1.936-.8a.9.9,0,0,1-.474-.455l-.714-1.545h-1.5l-.714,1.545a.9.9,0,0,1-.474.455l-1.936.8a.9.9,0,0,1-.654.013L25.282,33l-1.058,1.06.586,1.594a.9.9,0,0,1-.013.655l-.8,1.936a.9.9,0,0,1-.454.473L22,39.431v1.5l1.542.714a.9.9,0,0,1,.454.473ZM31.4,35.019a5.16,5.16,0,1,1-5.16,5.16A5.166,5.166,0,0,1,31.4,35.019Z" transform="translate(-12.198 -12.201)" fill="#ffc338"/>
    </g>
  </g>
</svg>
