<svg xmlns="http://www.w3.org/2000/svg" xmlns:xlink="http://www.w3.org/1999/xlink" width="108" height="108" viewBox="0 0 108 108">
  <defs>
    <filter id="Trazado_979055" x="0" y="0" width="108" height="108" filterUnits="userSpaceOnUse">
      <feOffset dy="3" input="SourceAlpha"/>
      <feGaussianBlur stdDeviation="3" result="blur"/>
      <feFlood flood-opacity="0.161"/>
      <feComposite operator="in" in2="blur"/>
      <feComposite in="SourceGraphic"/>
    </filter>
  </defs>
  <g id="Grupo_1146617" data-name="Grupo 1146617" transform="translate(-201 -319)">
    <g transform="matrix(1, 0, 0, 1, 201, 319)" filter="url(#Trazado_979055)">
      <g id="Trazado_979055-2" data-name="Trazado 979055" transform="translate(9 6)" fill="#f3f3f3">
        <path d="M 45 88.5 C 39.12687683105469 88.5 33.43022537231445 87.35007476806641 28.06830024719238 85.08217620849609 C 22.88852500915527 82.89131164550781 18.23629951477051 79.75458526611328 14.2408504486084 75.75914764404297 C 10.24541282653809 71.76370239257812 7.108687400817871 67.11147308349609 4.917825222015381 61.93170166015625 C 2.649924993515015 56.56977462768555 1.5 50.87312316894531 1.5 45 C 1.5 39.12687683105469 2.649924993515015 33.43022537231445 4.917825222015381 28.06830024719238 C 7.108687400817871 22.88852500915527 10.24541282653809 18.23629951477051 14.2408504486084 14.2408504486084 C 18.23629951477051 10.24541282653809 22.88852500915527 7.108687400817871 28.06830024719238 4.917825222015381 C 33.43022537231445 2.649924993515015 39.12687683105469 1.5 45 1.5 C 50.87312316894531 1.5 56.56977462768555 2.649924993515015 61.93170166015625 4.917825222015381 C 67.11147308349609 7.108687400817871 71.76370239257812 10.24541282653809 75.75914764404297 14.2408504486084 C 79.75458526611328 18.23629951477051 82.89131164550781 22.88852500915527 85.08217620849609 28.06830024719238 C 87.35007476806641 33.43022537231445 88.5 39.12687683105469 88.5 45 C 88.5 50.87312316894531 87.35007476806641 56.56977462768555 85.08217620849609 61.93170166015625 C 82.89131164550781 67.11147308349609 79.75458526611328 71.76370239257812 75.75914764404297 75.75914764404297 C 71.76370239257812 79.75458526611328 67.11147308349609 82.89131164550781 61.93170166015625 85.08217620849609 C 56.56977462768555 87.35007476806641 50.87312316894531 88.5 45 88.5 Z" stroke="none"/>
        <path d="M 45 3 C 39.32871246337891 3 33.82865524291992 4.110054016113281 28.65262985229492 6.299339294433594 C 23.65165710449219 8.414573669433594 19.15968322753906 11.44334411621094 15.301513671875 15.301513671875 C 11.44334411621094 19.15968322753906 8.414573669433594 23.65165710449219 6.299339294433594 28.65262985229492 C 4.110054016113281 33.82865524291992 3 39.32871246337891 3 45 C 3 50.67128753662109 4.110054016113281 56.17134475708008 6.299339294433594 61.34737396240234 C 8.414573669433594 66.34834289550781 11.44334411621094 70.84031677246094 15.301513671875 74.698486328125 C 19.15968322753906 78.55665588378906 23.65165710449219 81.58542633056641 28.65262985229492 83.70066070556641 C 33.82865524291992 85.88994598388672 39.32871246337891 87 45 87 C 50.67128753662109 87 56.17134475708008 85.88994598388672 61.34737396240234 83.70066070556641 C 66.34834289550781 81.58542633056641 70.84031677246094 78.55665588378906 74.698486328125 74.698486328125 C 78.55665588378906 70.84031677246094 81.58542633056641 66.34834289550781 83.70066070556641 61.34737396240234 C 85.88994598388672 56.17134475708008 87 50.67128753662109 87 45 C 87 39.32871246337891 85.88994598388672 33.82865524291992 83.70066070556641 28.65262985229492 C 81.58542633056641 23.65165710449219 78.55665588378906 19.15968322753906 74.698486328125 15.301513671875 C 70.84031677246094 11.44334411621094 66.34834289550781 8.414573669433594 61.34737396240234 6.299339294433594 C 56.17134475708008 4.110054016113281 50.67128753662109 3 45 3 M 45 0 C 69.85281372070312 0 90 20.14718627929688 90 45 C 90 69.85281372070312 69.85281372070312 90 45 90 C 20.14718627929688 90 0 69.85281372070312 0 45 C 0 20.14718627929688 20.14718627929688 0 45 0 Z" stroke="none" fill="#fd7940"/>
      </g>
    </g>
    <g id="knowledge_12886455" transform="translate(220.497 328.27)">
      <g id="Grupo_1146616" data-name="Grupo 1146616" transform="translate(13.322 13.795)">
        <g id="Grupo_1146606" data-name="Grupo 1146606" transform="translate(14.634 52.564)">
          <path id="Trazado_982554" data-name="Trazado 982554" d="M217.813,431.241v2.466a5.52,5.52,0,0,1-11.008,0v-2.466Z" transform="translate(-206.805 -431.241)" fill="#5170ed" fill-rule="evenodd"/>
        </g>
        <g id="Grupo_1146607" data-name="Grupo 1146607" transform="translate(10.121 45.195)">
          <path id="Trazado_982555" data-name="Trazado 982555" d="M192.929,375.876v5.5A2.741,2.741,0,0,1,190.1,384H175.73a2.741,2.741,0,0,1-2.83-2.624v-5.5Z" transform="translate(-172.9 -375.876)" fill="#8399fe" fill-rule="evenodd"/>
        </g>
        <g id="Grupo_1146608" data-name="Grupo 1146608" transform="translate(0 4.88)">
          <path id="Trazado_982556" data-name="Trazado 982556" d="M116.984,72.946a19.922,19.922,0,0,1,20.135,19.7c0,11.748-7.707,11.711-7.707,18.939a2.253,2.253,0,0,1-2.271,2.223H106.83a2.256,2.256,0,0,1-2.275-2.223c0-7.228-7.707-7.191-7.707-18.939A19.925,19.925,0,0,1,116.984,72.946Z" transform="translate(-96.849 -72.946)" fill="#fdd835" fill-rule="evenodd"/>
        </g>
        <g id="Grupo_1146609" data-name="Grupo 1146609" transform="translate(0 4.88)">
          <path id="Trazado_982557" data-name="Trazado 982557" d="M108.114,110.284a7.578,7.578,0,0,0-.523-1.9,19.457,19.457,0,0,0-3.257-4.593,18.331,18.331,0,0,1-2.083-3.069,16.833,16.833,0,0,1-1.752-8.075,19.881,19.881,0,0,1,18.31-19.628c-.6-.051-1.211-.077-1.826-.077a19.925,19.925,0,0,0-20.135,19.7,16.833,16.833,0,0,0,1.752,8.075,18.118,18.118,0,0,0,2.087,3.069c1.682,2.068,3.371,3.7,3.776,6.489a8.635,8.635,0,0,1,.092,1.306,2.182,2.182,0,0,0,.434,1.3,2.3,2.3,0,0,0,1.84.92h3.651a2.3,2.3,0,0,1-1.494-.552,2.2,2.2,0,0,1-.78-1.671A9.084,9.084,0,0,0,108.114,110.284Z" transform="translate(-96.848 -72.946)" fill="#fbc02d" fill-rule="evenodd"/>
        </g>
        <g id="Grupo_1146610" data-name="Grupo 1146610" transform="translate(10.121 45.748)">
          <path id="Trazado_982558" data-name="Trazado 982558" d="M176.411,380.025H172.9v4.95a2.741,2.741,0,0,0,2.83,2.624h3.651a2.928,2.928,0,0,1-1.969-.743,2.532,2.532,0,0,1-.861-1.881v-4.95Z" transform="translate(-172.9 -380.025)" fill="#728bf1" fill-rule="evenodd"/>
        </g>
        <g id="Grupo_1146611" data-name="Grupo 1146611" transform="translate(14.634 53.322)">
          <path id="Trazado_982559" data-name="Trazado 982559" d="M208.774,436.938h-1.969v1.708a5.331,5.331,0,0,0,5.5,5.1,5.666,5.666,0,0,0,.71-.044,5.57,5.57,0,0,0,1.115-.247,5.664,5.664,0,0,1-.784-.324,5.5,5.5,0,0,1-1.042-.677,4.955,4.955,0,0,1-1.855-3.813v-1.708Z" transform="translate(-206.805 -436.938)" fill="#4a68e0" fill-rule="evenodd"/>
        </g>
        <g id="Grupo_1146612" data-name="Grupo 1146612" transform="translate(17.401)">
          <path id="Trazado_982560" data-name="Trazado 982560" d="M249.93,41.3a13.715,13.715,0,0,1,2.091.865l4.358-2.749,4.335,4.332-2.753,4.358a13.553,13.553,0,0,1,.868,2.094l5.024,1.137v6.128L258.829,58.6a13.274,13.274,0,0,1-.868,2.094l2.753,4.358-4.336,4.332-4.358-2.749a13.729,13.729,0,0,1-2.09.869l-1.137,5.024h-6.128L241.528,67.5a13.744,13.744,0,0,1-2.091-.869l-4.361,2.749-4.332-4.332,2.749-4.358a13.607,13.607,0,0,1-.865-2.094L227.6,57.467V51.339l5.027-1.137a13.921,13.921,0,0,1,.865-2.094l-2.749-4.358,4.332-4.332,4.361,2.749a13.714,13.714,0,0,1,2.091-.865l1.137-5.027h6.128Z" transform="translate(-227.601 -36.275)" fill="#8399fe" fill-rule="evenodd"/>
        </g>
        <g id="Grupo_1146613" data-name="Grupo 1146613" transform="translate(17.401)">
          <path id="Trazado_982561" data-name="Trazado 982561" d="M249.742,68.331l-.95,4.2h-6.128L241.528,67.5a13.744,13.744,0,0,1-2.091-.869l-4.361,2.749-4.332-4.332,2.749-4.358a13.607,13.607,0,0,1-.865-2.094L227.6,57.467V51.339l5.027-1.137a13.921,13.921,0,0,1,.865-2.094l-2.749-4.358,4.332-4.332,4.361,2.749a13.714,13.714,0,0,1,2.091-.865l1.137-5.027h6.128l.95,4.2c-7.2.986-12.727,6.846-12.727,13.93S242.543,67.349,249.742,68.331Z" transform="translate(-227.601 -36.275)" fill="#728bf1" fill-rule="evenodd"/>
        </g>
        <g id="Grupo_1146614" data-name="Grupo 1146614" transform="translate(26.525 9.124)">
          <path id="Trazado_982562" data-name="Trazado 982562" d="M305.158,122.84a9,9,0,1,0-9-9.006A9.022,9.022,0,0,0,305.158,122.84Z" transform="translate(-296.156 -104.832)" fill="#deddff" fill-rule="evenodd"/>
        </g>
        <g id="Grupo_1146615" data-name="Grupo 1146615" transform="translate(26.525 9.124)">
          <path id="Trazado_982563" data-name="Trazado 982563" d="M305.158,104.832a9.293,9.293,0,0,1,1.019.055,9,9,0,0,0,0,17.894,9.291,9.291,0,0,1-1.019.059,9,9,0,0,1,0-18.008Z" transform="translate(-296.156 -104.832)" fill="#c6c6f7" fill-rule="evenodd"/>
        </g>
      </g>
      <path id="Trazado_982564" data-name="Trazado 982564" d="M67.781,27.787l-4.635-1.049c-.158-.439-.338-.872-.537-1.294l2.538-4.017a.93.93,0,0,0-.129-1.155l-4.435-4.431a.93.93,0,0,0-1.153-.129l-4.018,2.535c-.421-.2-.853-.376-1.29-.534l-1.049-4.635a.93.93,0,0,0-.907-.725H45.9a.93.93,0,0,0-.907.725l-1.049,4.635c-.437.157-.868.336-1.29.534l-4.018-2.535a.93.93,0,0,0-1.153.129l-4.435,4.431a.93.93,0,0,0-.129,1.155l2.538,4.017c-.2.422-.378.855-.537,1.294l-4.635,1.049a.93.93,0,0,0-.725.907v6.269a.93.93,0,0,0,.725.907l4.634,1.045c.158.44.338.873.537,1.295l-2.537,4.016a.93.93,0,0,0,.129,1.154l4.435,4.431a.93.93,0,0,0,1.153.129l4.018-2.535c.419.2.85.376,1.289.535l1.049,4.634a.93.93,0,0,0,.907.725h6.269a.93.93,0,0,0,.907-.725l1.049-4.634c.439-.16.87-.338,1.289-.535l4.018,2.535a.93.93,0,0,0,1.153-.129l4.435-4.431a.93.93,0,0,0,.129-1.155L62.609,38.21c.2-.421.378-.854.537-1.295L67.78,35.87a.93.93,0,0,0,.725-.907V28.694A.93.93,0,0,0,67.781,27.787Zm-1.135,6.432-4.417,1a.93.93,0,0,0-.682.625,12.7,12.7,0,0,1-.828,2,.93.93,0,0,0,.039.925l2.419,3.829-3.384,3.381-3.83-2.416a.929.929,0,0,0-.921-.041,13.556,13.556,0,0,1-2,.831.93.93,0,0,0-.62.679l-1,4.415H46.64l-1-4.415a.93.93,0,0,0-.62-.679,13.548,13.548,0,0,1-2-.831.929.929,0,0,0-.921.041l-3.83,2.416L34.886,42.59l2.419-3.829a.93.93,0,0,0,.039-.925,12.689,12.689,0,0,1-.828-2,.93.93,0,0,0-.682-.625l-4.417-1V29.437l4.418-1a.93.93,0,0,0,.681-.624,13.015,13.015,0,0,1,.829-2,.93.93,0,0,0-.04-.923l-2.419-3.829,3.384-3.381L42.1,20.1a.93.93,0,0,0,.921.041,13.124,13.124,0,0,1,2-.826.93.93,0,0,0,.624-.681l1-4.418h4.783l1,4.418a.93.93,0,0,0,.624.681,13.143,13.143,0,0,1,2,.826.93.93,0,0,0,.921-.041l3.83-2.416,3.384,3.381-2.419,3.829a.93.93,0,0,0-.04.923,12.988,12.988,0,0,1,.829,2,.93.93,0,0,0,.681.624l4.418,1ZM46.583,22.687A9.463,9.463,0,1,0,58.17,29.38a9.4,9.4,0,0,0-11.587-6.693Zm9.032,12.941a7.6,7.6,0,1,1,.758-5.766A7.55,7.55,0,0,1,55.615,35.628ZM7.149,39.79H1.43a.93.93,0,0,1,0-1.86H7.149a.93.93,0,0,1,0,1.86Zm9.405-28.05a.93.93,0,0,1,1.611-.93l2.858,4.947a.93.93,0,1,1-1.611.93Zm-5.1,39.727a.93.93,0,0,1-.34,1.27L6.164,55.594a.93.93,0,1,1-.93-1.61l4.947-2.858A.93.93,0,0,1,11.452,51.466Zm36.035,1.409a.93.93,0,0,0-1.263.365A9.1,9.1,0,0,0,45.069,57.8a1.372,1.372,0,0,1-1.393,1.348H22.9A1.375,1.375,0,0,1,21.5,57.8c0-3.587-1.675-5.581-3.448-7.692-2.181-2.6-4.436-5.281-4.436-11.678A19.5,19.5,0,0,1,31.668,19.272a.93.93,0,0,0-.147-1.854A21.624,21.624,0,0,0,17.5,24.1a20.785,20.785,0,0,0-5.74,14.335,17.568,17.568,0,0,0,4.871,12.874c1.683,2,3.012,3.587,3.012,6.5a3.223,3.223,0,0,0,2.47,3.113v4.229a3.729,3.729,0,0,0,3.825,3.614h.791v.817a6.372,6.372,0,0,0,6.559,6.152,6.374,6.374,0,0,0,6.562-6.152v-.817h.787a3.729,3.729,0,0,0,3.825-3.614V60.918a3.222,3.222,0,0,0,2.47-3.113,7.3,7.3,0,0,1,.924-3.666.93.93,0,0,0-.366-1.263Zm-9.5,16.7a4.516,4.516,0,0,1-4.7,4.292,4.514,4.514,0,0,1-4.7-4.292v-.817h9.4ZM42.6,65.146A1.871,1.871,0,0,1,40.634,66.9h-14.7a1.871,1.871,0,0,1-1.965-1.754V61.012H42.6ZM11.452,26.253a.929.929,0,0,1-1.27.341L5.235,23.74a.93.93,0,1,1,.929-1.611l4.947,2.854a.93.93,0,0,1,.341,1.27Z" transform="translate(0)"/>
    </g>
  </g>
</svg>
