<svg xmlns="http://www.w3.org/2000/svg" xmlns:xlink="http://www.w3.org/1999/xlink" width="108" height="108" viewBox="0 0 108 108">
  <defs>
    <filter id="Trazado_979056" x="0" y="0" width="108" height="108" filterUnits="userSpaceOnUse">
      <feOffset dy="3" input="SourceAlpha"/>
      <feGaussianBlur stdDeviation="3" result="blur"/>
      <feFlood flood-opacity="0.161"/>
      <feComposite operator="in" in2="blur"/>
      <feComposite in="SourceGraphic"/>
    </filter>
  </defs>
  <g id="Grupo_1146618" data-name="Grupo 1146618" transform="translate(-616.093 -1486)">
    <g transform="matrix(1, 0, 0, 1, 616.09, 1486)" filter="url(#Trazado_979056)">
      <g id="Trazado_979056-2" data-name="Trazado 979056" transform="translate(9 6)" fill="#f1fbfb">
        <path d="M 45 88.5 C 39.12687683105469 88.5 33.43022537231445 87.35007476806641 28.06830024719238 85.08217620849609 C 22.88852500915527 82.89131164550781 18.23629951477051 79.75458526611328 14.2408504486084 75.75914764404297 C 10.24541282653809 71.76370239257812 7.108687400817871 67.11147308349609 4.917825222015381 61.93170166015625 C 2.649924993515015 56.56977462768555 1.5 50.87312316894531 1.5 45 C 1.5 39.12687683105469 2.649924993515015 33.43022537231445 4.917825222015381 28.06830024719238 C 7.108687400817871 22.88852500915527 10.24541282653809 18.23629951477051 14.2408504486084 14.2408504486084 C 18.23629951477051 10.24541282653809 22.88852500915527 7.108687400817871 28.06830024719238 4.917825222015381 C 33.43022537231445 2.649924993515015 39.12687683105469 1.5 45 1.5 C 50.87312316894531 1.5 56.56977462768555 2.649924993515015 61.93170166015625 4.917825222015381 C 67.11147308349609 7.108687400817871 71.76370239257812 10.24541282653809 75.75914764404297 14.2408504486084 C 79.75458526611328 18.23629951477051 82.89131164550781 22.88852500915527 85.08217620849609 28.06830024719238 C 87.35007476806641 33.43022537231445 88.5 39.12687683105469 88.5 45 C 88.5 50.87312316894531 87.35007476806641 56.56977462768555 85.08217620849609 61.93170166015625 C 82.89131164550781 67.11147308349609 79.75458526611328 71.76370239257812 75.75914764404297 75.75914764404297 C 71.76370239257812 79.75458526611328 67.11147308349609 82.89131164550781 61.93170166015625 85.08217620849609 C 56.56977462768555 87.35007476806641 50.87312316894531 88.5 45 88.5 Z" stroke="none"/>
        <path d="M 45 3 C 39.32871246337891 3 33.82865524291992 4.110054016113281 28.65262985229492 6.299339294433594 C 23.65165710449219 8.414573669433594 19.15968322753906 11.44334411621094 15.301513671875 15.301513671875 C 11.44334411621094 19.15968322753906 8.414573669433594 23.65165710449219 6.299339294433594 28.65262985229492 C 4.110054016113281 33.82865524291992 3 39.32871246337891 3 45 C 3 50.67128753662109 4.110054016113281 56.17134475708008 6.299339294433594 61.34737396240234 C 8.414573669433594 66.34834289550781 11.44334411621094 70.84031677246094 15.301513671875 74.698486328125 C 19.15968322753906 78.55665588378906 23.65165710449219 81.58542633056641 28.65262985229492 83.70066070556641 C 33.82865524291992 85.88994598388672 39.32871246337891 87 45 87 C 50.67128753662109 87 56.17134475708008 85.88994598388672 61.34737396240234 83.70066070556641 C 66.34834289550781 81.58542633056641 70.84031677246094 78.55665588378906 74.698486328125 74.698486328125 C 78.55665588378906 70.84031677246094 81.58542633056641 66.34834289550781 83.70066070556641 61.34737396240234 C 85.88994598388672 56.17134475708008 87 50.67128753662109 87 45 C 87 39.32871246337891 85.88994598388672 33.82865524291992 83.70066070556641 28.65262985229492 C 81.58542633056641 23.65165710449219 78.55665588378906 19.15968322753906 74.698486328125 15.301513671875 C 70.84031677246094 11.44334411621094 66.34834289550781 8.414573669433594 61.34737396240234 6.299339294433594 C 56.17134475708008 4.110054016113281 50.67128753662109 3 45 3 M 45 0 C 69.85281372070312 0 90 20.14718627929688 90 45 C 90 69.85281372070312 69.85281372070312 90 45 90 C 20.14718627929688 90 0 69.85281372070312 0 45 C 0 20.14718627929688 20.14718627929688 0 45 0 Z" stroke="none" fill="#204a7b"/>
      </g>
    </g>
    <g id="launch_1740380" transform="translate(640.296 1507.203)">
      <path id="Trazado_982565" data-name="Trazado 982565" d="M328.571,198.515v5.767l-2.394.6a13.361,13.361,0,0,1-1.336,3.239l1.269,2.114-4.085,4.076-2.114-1.259a13.363,13.363,0,0,1-3.239,1.336l-.6,2.394h-5.767l-.6-2.394A13.288,13.288,0,0,1,306.8,213.2l1.086-3.8a9.6,9.6,0,1,0,10.179-16.282,45.145,45.145,0,0,0,2.73-3.9l1.23-.74,4.085,4.085-1.269,2.114a13.361,13.361,0,0,1,1.336,3.239Zm0,0" transform="translate(-269.94 -165.835)" fill="#ffc729"/>
      <path id="Trazado_982566" data-name="Trazado 982566" d="M326.019,227.121A9.6,9.6,0,1,1,315.84,243.4l1.144-4.018a5.766,5.766,0,1,0,6.488-9.266C324.375,229.158,325.222,228.149,326.019,227.121Zm0,0" transform="translate(-277.893 -199.833)" fill="#fcd770"/>
      <path id="Trazado_982567" data-name="Trazado 982567" d="M100.1,14.344a45.163,45.163,0,0,0-5.085,3.21A9.6,9.6,0,0,0,79.382,28.7L75.576,29.79a13.441,13.441,0,0,1-1.182-2.931L72,26.262V20.5l2.394-.6a13.363,13.363,0,0,1,1.336-3.239l-1.269-2.114,4.085-4.085,2.114,1.269A13.363,13.363,0,0,1,83.9,10.394L84.5,8h5.767l.6,2.394A13.363,13.363,0,0,1,94.1,11.729l2.114-1.269Zm0,0" transform="translate(-63.35 -7.039)" fill="#ffc729"/>
      <path id="Trazado_982568" data-name="Trazado 982568" d="M137.244,59.787c-1.038.74-2.047,1.538-3.018,2.374a5.761,5.761,0,1,0-8.583,7.622l-4.027,1.154a9.6,9.6,0,0,1,15.629-11.15Zm0,0" transform="translate(-105.583 -49.271)" fill="#fcd770"/>
      <path id="Trazado_982569" data-name="Trazado 982569" d="M27.1,166.849l1.855-.528a47.034,47.034,0,0,0-5.219,8.583l-2.028,4.325L8,180.959a11.459,11.459,0,0,1,8.314-11.025l2.951-.846L23.072,168Zm0,0" transform="translate(-7.039 -146.337)" fill="#ff826e"/>
      <path id="Trazado_982570" data-name="Trazado 982570" d="M222.1,300.339l-1.144,4.018-1.086,3.8-.846,2.951A11.436,11.436,0,0,1,208,319.418l1.768-14.158,5.095-2.864a46.386,46.386,0,0,0,8.362-6Zm0,0" transform="translate(-183.009 -260.786)" fill="#ff826e"/>
      <path id="Trazado_982571" data-name="Trazado 982571" d="M103.709,325.607l1.922,1.922-.019.019-3.845,1.922L96,323.7l1.922-3.845.019-.019Zm0,0" transform="translate(-84.466 -281.412)" fill="#ccd1d9"/>
      <path id="Trazado_982572" data-name="Trazado 982572" d="M147.307,37.858a12.489,12.489,0,0,1-9.285-9.7,45.727,45.727,0,0,0-9.631,3.922,45.164,45.164,0,0,0-5.085,3.21c-1.038.74-2.047,1.538-3.018,2.374q-1.369,1.168-2.653,2.451l-.01.01a46.642,46.642,0,0,0-9.285,13.216l-2.028,4.325-2.153,4.575,9.612,9.612,4.633-2.6,5.095-2.864a46.382,46.382,0,0,0,8.362-6c.635-.557,1.24-1.134,1.836-1.73l2.211-2.211c.452-.452.894-.913,1.317-1.385.9-.961,1.75-1.97,2.547-3a45.159,45.159,0,0,0,2.73-3.9,46.385,46.385,0,0,0,4.825-10.294Zm0,0" transform="translate(-91.646 -24.777)" fill="#e6e9ed"/>
      <path id="Trazado_982573" data-name="Trazado 982573" d="M139.675,274.883,132,283.515l-3.845-3.845,8.631-7.67Zm0,0" transform="translate(-112.762 -239.32)" fill="#fc6e51"/>
      <path id="Trazado_982574" data-name="Trazado 982574" d="M398.255,9.682a1.559,1.559,0,0,1-.067.471l-2.355,8.256c-.163.577-.337,1.153-.528,1.721l-.019-.01a12.489,12.489,0,0,1-9.285-9.7c.788-.231,1.586-.433,2.394-.615l7.757-1.768A1.639,1.639,0,0,1,396.525,8h.048a1.69,1.69,0,0,1,1.682,1.682Zm0,0" transform="translate(-339.623 -7.039)" fill="#ff826e"/>
      <path id="Trazado_982575" data-name="Trazado 982575" d="M248.651,104A8.651,8.651,0,1,1,240,112.651,8.651,8.651,0,0,1,248.651,104Zm4.806,8.651a4.806,4.806,0,1,0-4.806,4.806A4.808,4.808,0,0,0,253.457,112.651Zm0,0" transform="translate(-211.165 -91.504)" fill="#4fc1e9"/>
      <path id="Trazado_982576" data-name="Trazado 982576" d="M281.612,140.806A4.806,4.806,0,1,1,276.806,136,4.806,4.806,0,0,1,281.612,140.806Zm0,0" transform="translate(-239.32 -119.66)" fill="#69d6f4"/>
      <path id="Trazado_982577" data-name="Trazado 982577" d="M268.746,367.735l.55-1.922,1.849.528-.55,1.922Zm0,0" transform="translate(-236.457 -321.861)"/>
      <path id="Trazado_982578" data-name="Trazado 982578" d="M246.72,398.992a6.624,6.624,0,0,1-1.994,3.151L246,403.584a8.557,8.557,0,0,0,2.57-4.064l.342-1.2-1.849-.528Zm0,0" transform="translate(-215.323 -349.999)"/>
      <path id="Trazado_982579" data-name="Trazado 982579" d="M29.957,244.646l1.858-.494.494,1.858-1.858.494Zm0,0" transform="translate(-26.358 -214.818)"/>
      <path id="Trazado_982580" data-name="Trazado 982580" d="M60.883,236.436l1.858-.494.494,1.858-1.858.494Zm0,0" transform="translate(-53.568 -207.594)"/>
      <path id="Trazado_982581" data-name="Trazado 982581" d="M91.82,228.236l1.857-.494.494,1.859-1.857.493Zm0,0" transform="translate(-80.789 -200.38)"/>
      <path id="Trazado_982582" data-name="Trazado 982582" d="M2.34,468.262l1.922-1.922,1.359,1.36L3.7,469.621Zm0,0" transform="translate(-2.059 -410.31)"/>
      <path id="Trazado_982583" data-name="Trazado 982583" d="M26.34,394.991l8.651-8.651,1.359,1.36L27.7,396.35Zm0,0" transform="translate(-23.175 -339.922)"/>
      <path id="Trazado_982584" data-name="Trazado 982584" d="M66.34,452.266l1.922-1.922,1.359,1.359L67.7,453.625Zm0,0" transform="translate(-58.369 -396.236)"/>
      <path id="Trazado_982585" data-name="Trazado 982585" d="M90.34,414.181l3.845-3.845,1.359,1.36L91.7,415.54Zm0,0" transform="translate(-79.486 -361.035)"/>
      <path id="Trazado_982586" data-name="Trazado 982586" d="M18.34,404.266l1.922-1.922,1.359,1.359L19.7,405.625Zm0,0" transform="translate(-16.137 -354.003)"/>
      <path id="Trazado_982587" data-name="Trazado 982587" d="M42.344,366.181l3.845-3.845,1.359,1.36L43.7,367.54Zm0,0" transform="translate(-37.257 -318.802)"/>
      <path id="Trazado_982588" data-name="Trazado 982588" d="M56.007,28.862l1.371-2.283-4.6-4.6a47.9,47.9,0,0,0,4.348-10.346l2.36-8.262A2.649,2.649,0,0,0,56.9,0a2.709,2.709,0,0,0-.587.065L48.559,1.827a47.873,47.873,0,0,0-11.637,4.3L33.014,2.216,30.731,3.585a14.332,14.332,0,0,0-2.421-1L27.662,0H20.4l-.647,2.585a14.331,14.331,0,0,0-2.421,1L15.044,2.217,9.9,7.356l1.371,2.283a14.268,14.268,0,0,0-1,2.421l-2.585.646v7.268l2.586.647a14.293,14.293,0,0,0,.59,1.521l-1.852.528A12.481,12.481,0,0,0,0,34.622v1.09l13.051-1.647-1.695,3.6.943.943-1.935,3.87,6.747,6.747,3.87-1.935.98.98,3.608-2.028L23.9,59.593H24.99a12.485,12.485,0,0,0,11.952-9.015l.527-1.844a14.166,14.166,0,0,0,1.5.583L39.62,51.9h7.267l.647-2.585a14.33,14.33,0,0,0,2.421-1l2.284,1.369,5.14-5.139-1.371-2.283a14.268,14.268,0,0,0,1-2.421l2.584-.646V31.93l-2.585-.646a14.39,14.39,0,0,0-1-2.421ZM48.985,3.7l7.75-1.762a.874.874,0,0,1,.211-.018.725.725,0,0,1,.7.924L55.282,11.11c-.077.268-.173.528-.255.795a11.556,11.556,0,0,1-7.5-7.842c.484-.127.97-.248,1.459-.36ZM11.972,19.574l-.146-.546-2.215-.554V14.207l2.215-.553.146-.546A12.385,12.385,0,0,1,13.216,10.1l.284-.49L12.326,7.654l3.017-3.016L17.3,5.812l.49-.283A12.434,12.434,0,0,1,20.8,4.284l.546-.146L21.9,1.923h4.267l.553,2.215.546.146a12.4,12.4,0,0,1,3.007,1.244l.49.283,1.956-1.173,2.455,2.455c-1.146.663-2.267,1.37-3.355,2.128a10.466,10.466,0,0,0-7.785-3.452,10.562,10.562,0,0,0-9.445,15.312l-1.836.525a12.145,12.145,0,0,1-.776-2.03Zm9.385-.429-.978.28a4.738,4.738,0,0,1-1.156-3.083,4.812,4.812,0,0,1,4.806-4.806,4.75,4.75,0,0,1,3.247,1.278c-.671.6-1.331,1.214-1.97,1.852a48.014,48.014,0,0,0-3.948,4.479Zm7.382-7.589a6.646,6.646,0,0,0-4.711-1.943A6.736,6.736,0,0,0,17.3,16.34a6.641,6.641,0,0,0,1.087,3.652l-1.9.542A8.631,8.631,0,0,1,30.258,10.352q-.772.585-1.518,1.2ZM1.981,33.524a10.559,10.559,0,0,1,7.562-9.005l9.991-2.854a47.865,47.865,0,0,0-3.709,6.5L14.019,32ZM17.49,46.89,12.7,42.1l1.029-2.058,5.816,5.816Zm-.691-6.5L23.991,34l1.6,1.6L19.2,42.795Zm3.762,3.763,7.672-8.63-4.166-4.165-8.63,7.672-1.767-1.767,3.894-8.285A45.96,45.96,0,0,1,45.677,4.589a13.486,13.486,0,0,0,8.763,9.147A46.081,46.081,0,0,1,43.584,30.99L41.371,33.2a45.953,45.953,0,0,1-9.987,7.57l-9.1,5.11ZM51.9,35.564a8.611,8.611,0,0,1-12.828,7.547l.541-1.895a6.659,6.659,0,0,0,3.636,1.076,6.714,6.714,0,0,0,3.833-12.237c.422-.482.82-.983,1.222-1.481a8.678,8.678,0,0,1,3.6,6.99Zm-9.173-1,2.213-2.214c.284-.283.545-.585.821-.874a4.8,4.8,0,0,1-2.512,8.9,4.736,4.736,0,0,1-3.067-1.142l.892-3.122c.558-.507,1.12-1.01,1.653-1.545ZM26.087,57.613l1.567-12.538,4.674-2.627a47.853,47.853,0,0,0,6.111-4.107L35.092,50.05a10.555,10.555,0,0,1-9,7.564ZM57.67,37.7l-2.215.553-.146.546A12.385,12.385,0,0,1,54.066,41.8l-.284.49,1.174,1.956-3.017,3.016-1.956-1.173-.49.283a12.434,12.434,0,0,1-3.007,1.244l-.546.146-.553,2.216H41.119l-.553-2.215-.546-.146a12.136,12.136,0,0,1-2.013-.768l.525-1.837A10.553,10.553,0,0,0,49.486,27.057c.708-.951,1.375-1.929,2.009-2.93l.444-.266,3.017,3.016-1.174,1.956.284.49a12.438,12.438,0,0,1,1.244,3.008l.146.546,2.215.553Zm0,0" transform="translate(0)"/>
      <path id="Trazado_982589" data-name="Trazado 982589" d="M228.07,313.374l1.922-1.081.942,1.675-1.922,1.081Zm0,0" transform="translate(-200.668 -274.772)"/>
      <path id="Trazado_982590" data-name="Trazado 982590" d="M266.933,267.49l-1.288-1.427a42.35,42.35,0,0,1-5.883,4.442l1.019,1.629A44.186,44.186,0,0,0,266.933,267.49Zm0,0" transform="translate(-228.552 -234.096)"/>
      <path id="Trazado_982591" data-name="Trazado 982591" d="M195.871,177l1.554,1.13q.553-.76,1.139-1.5l-1.5-1.2Q196.448,176.208,195.871,177Zm0,0" transform="translate(-172.338 -154.362)"/>
      <path id="Trazado_982592" data-name="Trazado 982592" d="M177.848,203.543l1.651.986q.481-.807,1-1.59l-1.6-1.06Q178.352,202.7,177.848,203.543Zm0,0" transform="translate(-156.48 -177.623)"/>
      <path id="Trazado_982593" data-name="Trazado 982593" d="M162.344,231.7l1.731.834q.409-.846.854-1.672l-1.691-.914Q162.771,230.816,162.344,231.7Zm0,0" transform="translate(-142.839 -202.324)"/>
      <path id="Trazado_982594" data-name="Trazado 982594" d="M251.224,105.612a9.612,9.612,0,1,0-9.612,9.612A9.622,9.622,0,0,0,251.224,105.612Zm-17.3,0a7.689,7.689,0,1,1,7.689,7.689A7.7,7.7,0,0,1,233.922,105.612Zm0,0" transform="translate(-204.126 -84.466)"/>
      <path id="Trazado_982595" data-name="Trazado 982595" d="M275.534,133.767a5.767,5.767,0,1,0-5.767,5.767A5.773,5.773,0,0,0,275.534,133.767Zm-9.612,0a3.845,3.845,0,1,1,3.845,3.845A3.848,3.848,0,0,1,265.922,133.767Zm0,0" transform="translate(-232.281 -112.621)"/>
    </g>
  </g>
</svg>
