<svg xmlns="http://www.w3.org/2000/svg" xmlns:xlink="http://www.w3.org/1999/xlink" width="108" height="108" viewBox="0 0 108 108">
  <defs>
    <filter id="Trazado_982023" x="0" y="0" width="108" height="108" filterUnits="userSpaceOnUse">
      <feOffset dy="3" input="SourceAlpha"/>
      <feGaussianBlur stdDeviation="3" result="blur"/>
      <feFlood flood-opacity="0.161"/>
      <feComposite operator="in" in2="blur"/>
      <feComposite in="SourceGraphic"/>
    </filter>
  </defs>
  <g id="Grupo_1146619" data-name="Grupo 1146619" transform="translate(-201.093 -2599)">
    <g transform="matrix(1, 0, 0, 1, 201.09, 2599)" filter="url(#Trazado_982023)">
      <g id="Trazado_982023-2" data-name="Trazado 982023" transform="translate(9 6)" fill="#f3f3f3">
        <path d="M 45 88.5 C 39.12687683105469 88.5 33.43022537231445 87.35007476806641 28.06830024719238 85.08217620849609 C 22.88852500915527 82.89131164550781 18.23629951477051 79.75458526611328 14.2408504486084 75.75914764404297 C 10.24541282653809 71.76370239257812 7.108687400817871 67.11147308349609 4.917825222015381 61.93170166015625 C 2.649924993515015 56.56977462768555 1.5 50.87312316894531 1.5 45 C 1.5 39.12687683105469 2.649924993515015 33.43022537231445 4.917825222015381 28.06830024719238 C 7.108687400817871 22.88852500915527 10.24541282653809 18.23629951477051 14.2408504486084 14.2408504486084 C 18.23629951477051 10.24541282653809 22.88852500915527 7.108687400817871 28.06830024719238 4.917825222015381 C 33.43022537231445 2.649924993515015 39.12687683105469 1.5 45 1.5 C 50.87312316894531 1.5 56.56977462768555 2.649924993515015 61.93170166015625 4.917825222015381 C 67.11147308349609 7.108687400817871 71.76370239257812 10.24541282653809 75.75914764404297 14.2408504486084 C 79.75458526611328 18.23629951477051 82.89131164550781 22.88852500915527 85.08217620849609 28.06830024719238 C 87.35007476806641 33.43022537231445 88.5 39.12687683105469 88.5 45 C 88.5 50.87312316894531 87.35007476806641 56.56977462768555 85.08217620849609 61.93170166015625 C 82.89131164550781 67.11147308349609 79.75458526611328 71.76370239257812 75.75914764404297 75.75914764404297 C 71.76370239257812 79.75458526611328 67.11147308349609 82.89131164550781 61.93170166015625 85.08217620849609 C 56.56977462768555 87.35007476806641 50.87312316894531 88.5 45 88.5 Z" stroke="none"/>
        <path d="M 45 3 C 39.32871246337891 3 33.82865524291992 4.110054016113281 28.65262985229492 6.299339294433594 C 23.65165710449219 8.414573669433594 19.15968322753906 11.44334411621094 15.301513671875 15.301513671875 C 11.44334411621094 19.15968322753906 8.414573669433594 23.65165710449219 6.299339294433594 28.65262985229492 C 4.110054016113281 33.82865524291992 3 39.32871246337891 3 45 C 3 50.67128753662109 4.110054016113281 56.17134475708008 6.299339294433594 61.34737396240234 C 8.414573669433594 66.34834289550781 11.44334411621094 70.84031677246094 15.301513671875 74.698486328125 C 19.15968322753906 78.55665588378906 23.65165710449219 81.58542633056641 28.65262985229492 83.70066070556641 C 33.82865524291992 85.88994598388672 39.32871246337891 87 45 87 C 50.67128753662109 87 56.17134475708008 85.88994598388672 61.34737396240234 83.70066070556641 C 66.34834289550781 81.58542633056641 70.84031677246094 78.55665588378906 74.698486328125 74.698486328125 C 78.55665588378906 70.84031677246094 81.58542633056641 66.34834289550781 83.70066070556641 61.34737396240234 C 85.88994598388672 56.17134475708008 87 50.67128753662109 87 45 C 87 39.32871246337891 85.88994598388672 33.82865524291992 83.70066070556641 28.65262985229492 C 81.58542633056641 23.65165710449219 78.55665588378906 19.15968322753906 74.698486328125 15.301513671875 C 70.84031677246094 11.44334411621094 66.34834289550781 8.414573669433594 61.34737396240234 6.299339294433594 C 56.17134475708008 4.110054016113281 50.67128753662109 3 45 3 M 45 0 C 69.85281372070312 0 90 20.14718627929688 90 45 C 90 69.85281372070312 69.85281372070312 90 45 90 C 20.14718627929688 90 0 69.85281372070312 0 45 C 0 20.14718627929688 20.14718627929688 0 45 0 Z" stroke="none" fill="#fd7940"/>
      </g>
    </g>
    <g id="time-management_10109996" transform="translate(214.316 2610.819)">
      <circle id="Elipse_11590" data-name="Elipse 11590" cx="19.059" cy="19.059" r="19.059" transform="translate(13.82 40.776) rotate(-45)" fill="#ff5a5a"/>
      <circle id="Elipse_11591" data-name="Elipse 11591" cx="14.166" cy="14.166" r="14.166" transform="translate(20.739 40.776) rotate(-45)" fill="#e6e9ed"/>
      <path id="Trazado_982596" data-name="Trazado 982596" d="M34.27,259.632a11.76,11.76,0,0,1,2.481,1.028.794.794,0,0,0,.935-.109l1.58-1.44a.806.806,0,0,1,1.113.026l2.5,2.5a.806.806,0,0,1,.026,1.114l-1.441,1.581a.794.794,0,0,0-.109.935,11.828,11.828,0,0,1,1.03,2.481.8.8,0,0,0,.738.584l2.136.1a.806.806,0,0,1,.769.806v3.534a.806.806,0,0,1-.769.806l-2.134.1a.8.8,0,0,0-.738.584,11.759,11.759,0,0,1-1.028,2.481.794.794,0,0,0,.109.935l1.44,1.58a.806.806,0,0,1-.026,1.113l-2.5,2.5a.806.806,0,0,1-1.113.026l-1.581-1.44a.794.794,0,0,0-.935-.109,11.827,11.827,0,0,1-2.481,1.03.8.8,0,0,0-.584.738l-.1,2.136a.806.806,0,0,1-.806.769H29.247a.806.806,0,0,1-.806-.769l-.1-2.134a.8.8,0,0,0-.584-.738,11.757,11.757,0,0,1-2.481-1.028.794.794,0,0,0-.935.109l-1.58,1.44a.806.806,0,0,1-1.113-.026l-2.5-2.5a.806.806,0,0,1-.026-1.113l1.441-1.581a.794.794,0,0,0,.109-.935,11.761,11.761,0,0,1-1.03-2.481.8.8,0,0,0-.738-.584l-2.136-.1a.806.806,0,0,1-.769-.806v-3.534a.806.806,0,0,1,.769-.806l2.136-.1a.8.8,0,0,0,.738-.584,11.757,11.757,0,0,1,1.028-2.481.794.794,0,0,0-.109-.935l-1.44-1.581a.806.806,0,0,1,.026-1.113l2.5-2.5a.806.806,0,0,1,1.113-.026l1.581,1.44a.794.794,0,0,0,.935.109,11.757,11.757,0,0,1,2.481-1.028.8.8,0,0,0,.584-.738l.1-2.136a.806.806,0,0,1,.806-.769h3.534a.806.806,0,0,1,.806.769l.1,2.134a.791.791,0,0,0,.583.738Z" transform="translate(-5.249 -215.214)" fill="#2fb1d4" fill-rule="evenodd"/>
      <circle id="Elipse_11592" data-name="Elipse 11592" cx="7.747" cy="7.747" r="7.747" transform="translate(18.017 48.042)" fill="#e6e9ed"/>
      <path id="Trazado_982597" data-name="Trazado 982597" d="M313.944,15.99h20.446a1.247,1.247,0,0,1,1.244,1.244V43.3a1.247,1.247,0,0,1-1.244,1.244H313.944A1.247,1.247,0,0,1,312.7,43.3V17.235A1.247,1.247,0,0,1,313.944,15.99Z" transform="translate(-264.829 -5.241)" fill="#fbf3f3" fill-rule="evenodd"/>
      <circle id="Elipse_11593" data-name="Elipse 11593" cx="1.81" cy="1.81" r="1.81" transform="translate(38.585 39.408) rotate(-13.175)" fill="#2fb1d4"/>
      <path id="Trazado_982598" data-name="Trazado 982598" d="M40.758,41.793a1.06,1.06,0,1,0-1.06-1.06A1.061,1.061,0,0,0,40.758,41.793Zm3.847,4.567a.75.75,0,1,1-1.3.754l-2.234-3.84a2.632,2.632,0,0,1-.315.021,2.561,2.561,0,0,1-.732-5.014v-6.8a.751.751,0,0,1,1.5,0v6.81a2.557,2.557,0,0,1,.922,4.361ZM63.127,32.715H58.675a.751.751,0,0,0,0,1.5h4.451a.751.751,0,0,0,0-1.5Zm3.831-2.777H58.675a.751.751,0,0,0,0,1.5h8.282a.751.751,0,1,0,0-1.5Zm-12,.413-2.31,2.31-.711-.711a.751.751,0,1,0-1.061,1.062l1.241,1.241a.749.749,0,0,0,1.061,0l2.84-2.84A.751.751,0,1,0,54.96,30.35Zm3.716-3.377h4.451a.751.751,0,0,0,0-1.5H58.675a.751.751,0,0,0,0,1.5ZM66.958,22.7H58.675a.751.751,0,0,0,0,1.5h8.282a.751.751,0,1,0,0-1.5Zm-12,.415-2.31,2.31-.711-.712a.75.75,0,1,0-1.061,1.061l1.241,1.242a.751.751,0,0,0,1.061,0l2.84-2.839a.75.75,0,1,0-1.061-1.061Zm3.716-3.377h4.451a.751.751,0,0,0,0-1.5H58.675a.751.751,0,0,0,0,1.5Zm8.282-4.279H58.675a.751.751,0,0,0,0,1.5h8.282a.751.751,0,1,0,0-1.5Zm-12,.415L52.65,18.18l-.711-.711a.75.75,0,1,0-1.061,1.061l1.241,1.241a.749.749,0,0,0,1.061,0l2.84-2.84a.75.75,0,1,0-1.061-1.06Zm15.093-3.877V38.062a.5.5,0,0,1-.493.493H49.114a.5.5,0,0,1-.494-.493V11.994a.5.5,0,0,1,.494-.493H69.56A.5.5,0,0,1,70.053,11.994ZM59.072,40.056c.009.24.014.48.014.721A18.33,18.33,0,0,1,40.777,59.086c-.161,0-.322,0-.482-.006a1.554,1.554,0,0,0,1.232-1.521V55.675a14.935,14.935,0,0,0,14.166-14.9c0-.24-.006-.48-.018-.721ZM37.838,57.712a1.537,1.537,0,0,0-1.425,1.128,10.975,10.975,0,0,1-.963,2.322,1.536,1.536,0,0,0,.21,1.805l1.44,1.581a.055.055,0,0,1,0,.076l-2.5,2.5a.055.055,0,0,1-.076,0l-1.581-1.44a1.537,1.537,0,0,0-1.805-.21,10.985,10.985,0,0,1-2.323.963,1.537,1.537,0,0,0-1.127,1.425L27.587,70a.056.056,0,0,1-.055.054H24A.056.056,0,0,1,23.941,70l-.1-2.134a1.538,1.538,0,0,0-1.128-1.425,10.975,10.975,0,0,1-2.322-.963,1.577,1.577,0,0,0-.762-.2,1.541,1.541,0,0,0-1.043.41L17,67.125a.055.055,0,0,1-.076,0l-2.5-2.5a.055.055,0,0,1,0-.076l1.44-1.581a1.537,1.537,0,0,0,.21-1.805,11,11,0,0,1-.963-2.322,1.537,1.537,0,0,0-1.425-1.128l-2.134-.1a.055.055,0,0,1-.054-.055V54.022a.055.055,0,0,1,.054-.055l2.134-.1a1.537,1.537,0,0,0,1.425-1.127,10.958,10.958,0,0,1,.963-2.323,1.537,1.537,0,0,0-.21-1.805l-1.44-1.581a.055.055,0,0,1,0-.076l2.5-2.5a.055.055,0,0,1,.076,0l1.581,1.44a1.537,1.537,0,0,0,1.805.21,10.985,10.985,0,0,1,2.323-.963,1.537,1.537,0,0,0,1.127-1.425l.1-2.134A.056.056,0,0,1,24,41.528h3.536a.056.056,0,0,1,.055.054l.1,2.134a1.537,1.537,0,0,0,1.128,1.425,10.975,10.975,0,0,1,2.322.963,1.537,1.537,0,0,0,1.805-.21l1.581-1.44a.055.055,0,0,1,.076,0l2.5,2.5a.055.055,0,0,1,0,.076l-1.44,1.581a1.537,1.537,0,0,0-.21,1.805,11.013,11.013,0,0,1,.963,2.323,1.537,1.537,0,0,0,1.425,1.127l2.134.1a.055.055,0,0,1,.054.055v3.536a.055.055,0,0,1-.054.055ZM22.468,40.776A18.32,18.32,0,0,1,47.119,23.6v3.677a14.92,14.92,0,0,0-21.24,12.752H24a1.554,1.554,0,0,0-1.521,1.232c0-.159-.006-.319-.006-.482Zm26.646-.719h5.059q.019.36.019.721a13.344,13.344,0,0,1-1.441,6.047l-1.309-.756a.751.751,0,0,0-.751,1.3L52,48.122A13.553,13.553,0,0,1,48.122,52l-.753-1.306a.751.751,0,0,0-1.3.751l.756,1.309a13.326,13.326,0,0,1-5.3,1.42v-.149a1.555,1.555,0,0,0-1.485-1.555l-2.134-.1a.046.046,0,0,1-.051-.04,12.535,12.535,0,0,0-1.095-2.64.047.047,0,0,1,.008-.065l1.44-1.58a1.556,1.556,0,0,0-.05-2.151l-2.5-2.5a1.554,1.554,0,0,0-2.151-.05l-1.58,1.44a.047.047,0,0,1-.065.008,12.481,12.481,0,0,0-2.64-1.095.047.047,0,0,1-.04-.051l-.1-2.134a1.555,1.555,0,0,0-1.555-1.485h-.149a13.326,13.326,0,0,1,1.42-5.3l1.309.756a.751.751,0,0,0,.751-1.3l-1.306-.753a13.553,13.553,0,0,1,3.876-3.876l.753,1.306a.751.751,0,0,0,1.3-.751L34.731,28.8a13.326,13.326,0,0,1,5.3-1.42v1.511a.751.751,0,1,0,1.5,0v-1.51a13.407,13.407,0,0,1,5.591,1.568v9.111A2,2,0,0,0,49.114,40.056Zm22.44-28.062V38.062a2,2,0,0,1-1.994,1.994H60.573c.009.24.014.48.014.721A19.818,19.818,0,0,1,37.5,60.316a12.55,12.55,0,0,1-.738,1.576.047.047,0,0,0,.008.065l1.44,1.58a1.556,1.556,0,0,1-.05,2.151l-2.5,2.5a1.556,1.556,0,0,1-2.151.05l-1.58-1.44a.047.047,0,0,0-.065-.008,12.535,12.535,0,0,1-2.64,1.095.046.046,0,0,0-.04.051l-.1,2.134a1.555,1.555,0,0,1-1.555,1.485H24a1.555,1.555,0,0,1-1.555-1.485l-.1-2.134a.047.047,0,0,0-.04-.051,12.481,12.481,0,0,1-2.64-1.095.047.047,0,0,0-.065.008l-1.58,1.44a1.556,1.556,0,0,1-2.151-.05l-2.5-2.5a1.556,1.556,0,0,1-.05-2.151l1.44-1.58a.047.047,0,0,0,.008-.065,12.574,12.574,0,0,1-1.095-2.64.046.046,0,0,0-.051-.04l-2.134-.1A1.556,1.556,0,0,1,10,57.557V54.021a1.555,1.555,0,0,1,1.485-1.555l2.134-.1a.046.046,0,0,0,.051-.04,12.546,12.546,0,0,1,1.095-2.64.047.047,0,0,0-.008-.065l-1.44-1.58a1.556,1.556,0,0,1,.05-2.151l2.5-2.5a1.556,1.556,0,0,1,2.151-.05l1.58,1.44a.047.047,0,0,0,.065.008,12.626,12.626,0,0,1,1.576-.737,20.062,20.062,0,0,1-.271-3.278A19.82,19.82,0,0,1,47.119,22V11.994a2,2,0,0,1,2-1.994H69.56a2,2,0,0,1,1.994,1.994ZM30.711,50.843a7,7,0,1,0,0,9.894A7,7,0,0,0,30.711,50.843Zm1.061-1.061a8.492,8.492,0,1,0,0,12.016A8.506,8.506,0,0,0,31.772,49.783Zm-12.7-19.421a.75.75,0,0,0,1.012-.319,23.327,23.327,0,0,1,2.368-3.669.751.751,0,1,0-1.18-.928,24.839,24.839,0,0,0-2.521,3.9.75.75,0,0,0,.32,1.012ZM64.747,43.014a.75.75,0,0,0-.837.653,23.345,23.345,0,0,1-.8,3.822.75.75,0,1,0,1.438.432,24.747,24.747,0,0,0,.856-4.07A.75.75,0,0,0,64.747,43.014ZM31.569,19.293a.751.751,0,0,0,.287-.058,23.194,23.194,0,0,1,3.8-1.2.751.751,0,0,0-.329-1.465,24.825,24.825,0,0,0-4.041,1.281.751.751,0,0,0,.288,1.445ZM24.6,23.713a.744.744,0,0,0,.5-.2,23.5,23.5,0,0,1,3.29-2.5.75.75,0,1,0-.8-1.271,24.97,24.97,0,0,0-3.5,2.657.751.751,0,0,0,.505,1.306ZM46.576,63.359a23.182,23.182,0,0,1-3.835.646.751.751,0,0,0,.061,1.5.534.534,0,0,0,.063,0,24.811,24.811,0,0,0,4.084-.687.751.751,0,0,0-.373-1.455Zm8.45-4.132a23.523,23.523,0,0,1-3.268,2.117.751.751,0,1,0,.708,1.324,25,25,0,0,0,3.478-2.253.75.75,0,0,0-.918-1.187Zm7.081-7.283a.751.751,0,0,0-1.022.284,23.364,23.364,0,0,1-2.2,3.224.751.751,0,0,0,1.166.946,24.907,24.907,0,0,0,2.338-3.431.751.751,0,0,0-.285-1.023ZM16.78,38.869a.61.61,0,0,0,.083.005.752.752,0,0,0,.746-.669,23.158,23.158,0,0,1,.97-4.557.751.751,0,0,0-1.43-.459,24.744,24.744,0,0,0-1.032,4.852.75.75,0,0,0,.664.828ZM38.715,16.791a.751.751,0,0,0,.789.709,23.753,23.753,0,0,1,3.936.116c.029,0,.058.005.085.005a.751.751,0,0,0,.084-1.5A25.27,25.27,0,0,0,39.423,16a.751.751,0,0,0-.708.789Z" transform="translate(0 0)" fill="#222124" fill-rule="evenodd"/>
    </g>
  </g>
</svg>
