<svg xmlns="http://www.w3.org/2000/svg" xmlns:xlink="http://www.w3.org/1999/xlink" width="108" height="108" viewBox="0 0 108 108">
  <defs>
    <filter id="Trazado_982419" x="0" y="0" width="108" height="108" filterUnits="userSpaceOnUse">
      <feOffset dy="3" input="SourceAlpha"/>
      <feGaussianBlur stdDeviation="3" result="blur"/>
      <feFlood flood-opacity="0.161"/>
      <feComposite operator="in" in2="blur"/>
      <feComposite in="SourceGraphic"/>
    </filter>
  </defs>
  <g id="Grupo_1146621" data-name="Grupo 1146621" transform="translate(-201 -322)">
    <g transform="matrix(1, 0, 0, 1, 201, 322)" filter="url(#Trazado_982419)">
      <g id="Trazado_982419-2" data-name="Trazado 982419" transform="translate(9 6)" fill="#f3f3f3">
        <path d="M 45 88.5 C 39.12687683105469 88.5 33.43022537231445 87.35007476806641 28.06830024719238 85.08217620849609 C 22.88852500915527 82.89131164550781 18.23629951477051 79.75458526611328 14.2408504486084 75.75914764404297 C 10.24541282653809 71.76370239257812 7.108687400817871 67.11147308349609 4.917825222015381 61.93170166015625 C 2.649924993515015 56.56977462768555 1.5 50.87312316894531 1.5 45 C 1.5 39.12687683105469 2.649924993515015 33.43022537231445 4.917825222015381 28.06830024719238 C 7.108687400817871 22.88852500915527 10.24541282653809 18.23629951477051 14.2408504486084 14.2408504486084 C 18.23629951477051 10.24541282653809 22.88852500915527 7.108687400817871 28.06830024719238 4.917825222015381 C 33.43022537231445 2.649924993515015 39.12687683105469 1.5 45 1.5 C 50.87312316894531 1.5 56.56977462768555 2.649924993515015 61.93170166015625 4.917825222015381 C 67.11147308349609 7.108687400817871 71.76370239257812 10.24541282653809 75.75914764404297 14.2408504486084 C 79.75458526611328 18.23629951477051 82.89131164550781 22.88852500915527 85.08217620849609 28.06830024719238 C 87.35007476806641 33.43022537231445 88.5 39.12687683105469 88.5 45 C 88.5 50.87312316894531 87.35007476806641 56.56977462768555 85.08217620849609 61.93170166015625 C 82.89131164550781 67.11147308349609 79.75458526611328 71.76370239257812 75.75914764404297 75.75914764404297 C 71.76370239257812 79.75458526611328 67.11147308349609 82.89131164550781 61.93170166015625 85.08217620849609 C 56.56977462768555 87.35007476806641 50.87312316894531 88.5 45 88.5 Z" stroke="none"/>
        <path d="M 45 3 C 39.32871246337891 3 33.82865524291992 4.110054016113281 28.65262985229492 6.299339294433594 C 23.65165710449219 8.414573669433594 19.15968322753906 11.44334411621094 15.301513671875 15.301513671875 C 11.44334411621094 19.15968322753906 8.414573669433594 23.65165710449219 6.299339294433594 28.65262985229492 C 4.110054016113281 33.82865524291992 3 39.32871246337891 3 45 C 3 50.67128753662109 4.110054016113281 56.17134475708008 6.299339294433594 61.34737396240234 C 8.414573669433594 66.34834289550781 11.44334411621094 70.84031677246094 15.301513671875 74.698486328125 C 19.15968322753906 78.55665588378906 23.65165710449219 81.58542633056641 28.65262985229492 83.70066070556641 C 33.82865524291992 85.88994598388672 39.32871246337891 87 45 87 C 50.67128753662109 87 56.17134475708008 85.88994598388672 61.34737396240234 83.70066070556641 C 66.34834289550781 81.58542633056641 70.84031677246094 78.55665588378906 74.698486328125 74.698486328125 C 78.55665588378906 70.84031677246094 81.58542633056641 66.34834289550781 83.70066070556641 61.34737396240234 C 85.88994598388672 56.17134475708008 87 50.67128753662109 87 45 C 87 39.32871246337891 85.88994598388672 33.82865524291992 83.70066070556641 28.65262985229492 C 81.58542633056641 23.65165710449219 78.55665588378906 19.15968322753906 74.698486328125 15.301513671875 C 70.84031677246094 11.44334411621094 66.34834289550781 8.414573669433594 61.34737396240234 6.299339294433594 C 56.17134475708008 4.110054016113281 50.67128753662109 3 45 3 M 45 0 C 69.85281372070312 0 90 20.14718627929688 90 45 C 90 69.85281372070312 69.85281372070312 90 45 90 C 20.14718627929688 90 0 69.85281372070312 0 45 C 0 20.14718627929688 20.14718627929688 0 45 0 Z" stroke="none" fill="#fd7940"/>
      </g>
    </g>
    <g id="briefing_1705317" transform="translate(232.581 340.143)">
      <path id="Trazado_982599" data-name="Trazado 982599" d="M49.284,106.265H10.194a2.182,2.182,0,0,1-2.182-2.182V49.811a2.182,2.182,0,0,1,2.182-2.182H49.284a2.182,2.182,0,0,1,2.182,2.182v54.272A2.182,2.182,0,0,1,49.284,106.265Zm0,0" transform="translate(-6.549 -41.516)" fill="#ffded5"/>
      <path id="Trazado_982600" data-name="Trazado 982600" d="M49.262,47.629H46.953v51.81a2.2,2.2,0,0,1-2.2,2.2H8.012v2.417a2.2,2.2,0,0,0,2.2,2.2H49.262a2.2,2.2,0,0,0,2.2-2.2V49.833a2.2,2.2,0,0,0-2.2-2.2Zm0,0" transform="translate(-6.549 -41.516)" fill="#f7c6ba"/>
      <path id="Trazado_982601" data-name="Trazado 982601" d="M126.067,16.457H111.384a1.283,1.283,0,0,1-1.283-1.283V10.592a3.08,3.08,0,0,1,3.08-3.08H124.27a3.08,3.08,0,0,1,3.08,3.08v4.581a1.283,1.283,0,0,1-1.283,1.283Zm0,0" transform="translate(-95.535 -6.547)" fill="#ff6914"/>
      <path id="Trazado_982602" data-name="Trazado 982602" d="M124.239,7.512h-.794a3.123,3.123,0,0,1,.1.783v4.537a1.3,1.3,0,0,1-1.3,1.3H110.1V15.16a1.3,1.3,0,0,0,1.3,1.3h14.656a1.3,1.3,0,0,0,1.3-1.3V10.624a3.112,3.112,0,0,0-3.112-3.112Zm0,0" transform="translate(-95.536 -6.547)" fill="#ed500a"/>
      <path id="Trazado_982603" data-name="Trazado 982603" d="M254.818,88.6a11.282,11.282,0,1,1-11.282-11.282A11.282,11.282,0,0,1,254.818,88.6Zm0,0" transform="translate(-202.01 -67.397)" fill="#ff8900"/>
      <path id="Trazado_982604" data-name="Trazado 982604" d="M268.164,83.473a11.285,11.285,0,0,1-12.422,18.168,11.283,11.283,0,1,0,12.422-18.168Zm0,0" transform="translate(-222.484 -72.759)" fill="#ff6914"/>
      <path id="Trazado_982605" data-name="Trazado 982605" d="M263.911,95.7a2.2,2.2,0,0,1-1.559-.645l-5.4-5.4a2.2,2.2,0,0,1,3.117-3.117l3.839,3.839,9.973-9.973A2.2,2.2,0,0,1,277,83.518L265.47,95.05a2.206,2.206,0,0,1-1.559.645Zm0,0" transform="translate(-222.979 -69.518)" fill="#0882bf"/>
      <path id="Trazado_982606" data-name="Trazado 982606" d="M307.876,81a2.194,2.194,0,0,0-.94-.557,2.2,2.2,0,0,1-.557,2.177L294.847,94.154a2.2,2.2,0,0,1-3.117,0l1.5,1.5a2.205,2.205,0,0,0,3.117,0L307.876,84.12A2.2,2.2,0,0,0,307.876,81Zm0,0" transform="translate(-253.853 -70.12)" fill="#005ca0"/>
      <g id="Grupo_1146620" data-name="Grupo 1146620" transform="translate(5.699 14.248)">
        <path id="Trazado_982607" data-name="Trazado 982607" d="M118.614,190.475H106.866a.964.964,0,0,1,0-1.928h11.747a.964.964,0,1,1,0,1.928Zm0,0" transform="translate(-97.575 -178.595)" fill="#0882bf"/>
        <path id="Trazado_982608" data-name="Trazado 982608" d="M48.471,112.94H41.984a.964.964,0,1,1,0-1.928h6.487a.964.964,0,1,1,0,1.928Zm0,0" transform="translate(-41.019 -111.012)" fill="#0882bf"/>
        <path id="Trazado_982609" data-name="Trazado 982609" d="M118.614,225.322H106.866a.964.964,0,0,1,0-1.928h11.747a.964.964,0,1,1,0,1.928Zm0,0" transform="translate(-97.575 -208.971)" fill="#0882bf"/>
        <path id="Trazado_982610" data-name="Trazado 982610" d="M122.671,281.577H106.866a.964.964,0,0,1,0-1.928h15.805a.964.964,0,0,1,0,1.928Zm0,0" transform="translate(-97.575 -258.005)" fill="#0882bf"/>
        <path id="Trazado_982611" data-name="Trazado 982611" d="M114.768,316.425h-7.9a.964.964,0,0,1,0-1.928h7.9a.964.964,0,0,1,0,1.928Zm0,0" transform="translate(-97.575 -288.38)" fill="#0882bf"/>
        <path id="Trazado_982612" data-name="Trazado 982612" d="M118.614,372.776H106.866a.964.964,0,0,1,0-1.928h11.747a.964.964,0,0,1,0,1.928Zm0,0" transform="translate(-97.575 -337.499)" fill="#0882bf"/>
        <path id="Trazado_982613" data-name="Trazado 982613" d="M122.671,407.623H106.866a.964.964,0,0,1,0-1.928h15.805a.964.964,0,1,1,0,1.928Zm0,0" transform="translate(-97.575 -367.874)" fill="#0882bf"/>
      </g>
      <path id="Trazado_982614" data-name="Trazado 982614" d="M47.5,192.477a2.93,2.93,0,1,1-2.93-2.93A2.93,2.93,0,0,1,47.5,192.477Zm0,0" transform="translate(-35.865 -165.219)" fill="#ff8900"/>
      <path id="Trazado_982615" data-name="Trazado 982615" d="M47.5,284.688a2.93,2.93,0,1,1-2.93-2.93A2.929,2.929,0,0,1,47.5,284.688Zm0,0" transform="translate(-35.865 -245.595)" fill="#ff8900"/>
      <path id="Trazado_982616" data-name="Trazado 982616" d="M47.5,375.883a2.93,2.93,0,1,1-2.93-2.93A2.93,2.93,0,0,1,47.5,375.883Zm0,0" transform="translate(-35.865 -325.086)" fill="#ff8900"/>
      <path id="Trazado_982617" data-name="Trazado 982617" d="M118.614,190.475H106.866a.964.964,0,0,1,0-1.928h11.747a.964.964,0,1,1,0,1.928Zm0,0" transform="translate(-91.876 -164.347)"/>
      <path id="Trazado_982618" data-name="Trazado 982618" d="M48.471,112.94H41.984a.964.964,0,1,1,0-1.928h6.487a.964.964,0,1,1,0,1.928Zm0,0" transform="translate(-35.32 -96.764)"/>
      <path id="Trazado_982619" data-name="Trazado 982619" d="M118.614,225.322H106.866a.964.964,0,0,1,0-1.928h11.747a.964.964,0,1,1,0,1.928Zm0,0" transform="translate(-91.876 -194.723)"/>
      <path id="Trazado_982620" data-name="Trazado 982620" d="M122.671,281.577H106.866a.964.964,0,0,1,0-1.928h15.805a.964.964,0,0,1,0,1.928Zm0,0" transform="translate(-91.875 -243.757)"/>
      <path id="Trazado_982621" data-name="Trazado 982621" d="M114.768,316.425h-7.9a.964.964,0,0,1,0-1.928h7.9a.964.964,0,0,1,0,1.928Zm0,0" transform="translate(-91.875 -274.132)"/>
      <path id="Trazado_982622" data-name="Trazado 982622" d="M118.614,372.776H106.866a.964.964,0,0,1,0-1.928h11.747a.964.964,0,0,1,0,1.928Zm0,0" transform="translate(-91.876 -323.251)"/>
      <path id="Trazado_982623" data-name="Trazado 982623" d="M122.671,407.623H106.866a.964.964,0,0,1,0-1.928h15.805a.964.964,0,1,1,0,1.928Zm0,0" transform="translate(-91.875 -353.626)"/>
      <path id="Trazado_982624" data-name="Trazado 982624" d="M38.027,189.823a3.894,3.894,0,1,1,3.894-3.894A3.9,3.9,0,0,1,38.027,189.823Zm0-5.86a1.966,1.966,0,1,0,1.966,1.966A1.968,1.968,0,0,0,38.027,183.964Zm0,0" transform="translate(-29.317 -158.672)"/>
      <path id="Trazado_982625" data-name="Trazado 982625" d="M38.027,282.03a3.894,3.894,0,1,1,3.894-3.894A3.9,3.9,0,0,1,38.027,282.03Zm0-5.86a1.966,1.966,0,1,0,1.966,1.966A1.968,1.968,0,0,0,38.027,276.171Zm0,0" transform="translate(-29.317 -239.044)"/>
      <path id="Trazado_982626" data-name="Trazado 982626" d="M38.027,373.229a3.894,3.894,0,1,1,3.894-3.894A3.9,3.9,0,0,1,38.027,373.229Zm0-5.86a1.966,1.966,0,1,0,1.966,1.966A1.968,1.968,0,0,0,38.027,367.37Zm0,0" transform="translate(-29.317 -318.539)"/>
      <path id="Trazado_982627" data-name="Trazado 982627" d="M37.776,16.335a3.168,3.168,0,1,0-4.481,4.481l5.4,5.4a3.168,3.168,0,0,0,4.481,0L54.7,14.681A3.168,3.168,0,1,0,50.224,10.2l-1.271,1.271a12.247,12.247,0,0,0-3.071-1.713V8.318a3.172,3.172,0,0,0-3.168-3.169H32.779v-1.1A4.054,4.054,0,0,0,28.73,0H17.65A4.054,4.054,0,0,0,13.6,4.049V8.624a2.252,2.252,0,0,0,2.25,2.25H30.529a2.252,2.252,0,0,0,2.25-2.25V7.077h9.934a1.242,1.242,0,0,1,1.24,1.24v.888a12.244,12.244,0,1,0,0,24.006V62.545a1.241,1.241,0,0,1-1.24,1.24H3.667a1.241,1.241,0,0,1-1.24-1.24V8.318a1.241,1.241,0,0,1,1.24-1.24h6.409a.964.964,0,1,0,0-1.928H3.667A3.172,3.172,0,0,0,.5,8.318V62.545a3.172,3.172,0,0,0,3.168,3.168H42.713a3.172,3.172,0,0,0,3.168-3.168V32.654a12.253,12.253,0,0,0,7.884-11.02.964.964,0,0,0-1.927-.066A10.267,10.267,0,0,1,44.7,31.032a.916.916,0,0,0-.161.053,10.322,10.322,0,1,1-3.01-20.2,10.3,10.3,0,0,1,6.05,1.961l-6.643,6.643ZM30.85,8.624a.321.321,0,0,1-.321.321H15.851a.321.321,0,0,1-.321-.321V4.049a2.123,2.123,0,0,1,2.121-2.121H28.73a2.123,2.123,0,0,1,2.121,2.121Zm20.737,2.94a1.24,1.24,0,0,1,1.754,1.754L41.809,24.85a1.239,1.239,0,0,1-1.754,0l-5.4-5.4A1.24,1.24,0,1,1,36.412,17.7l3.839,3.839a.964.964,0,0,0,1.363,0Zm0,0" transform="translate(0 0)"/>
    </g>
  </g>
</svg>
