<svg xmlns="http://www.w3.org/2000/svg" xmlns:xlink="http://www.w3.org/1999/xlink" width="108" height="108" viewBox="0 0 108 108">
  <defs>
    <filter id="Trazado_982538" x="0" y="0" width="108" height="108" filterUnits="userSpaceOnUse">
      <feOffset dy="3" input="SourceAlpha"/>
      <feGaussianBlur stdDeviation="3" result="blur"/>
      <feFlood flood-opacity="0.161"/>
      <feComposite operator="in" in2="blur"/>
      <feComposite in="SourceGraphic"/>
    </filter>
  </defs>
  <g id="Grupo_1146625" data-name="Grupo 1146625" transform="translate(-201 -2969)">
    <g transform="matrix(1, 0, 0, 1, 201, 2969)" filter="url(#Trazado_982538)">
      <g id="Trazado_982538-2" data-name="Trazado 982538" transform="translate(9 6)" fill="#f3f3f3">
        <path d="M 45 88.5 C 39.12687683105469 88.5 33.43022537231445 87.35007476806641 28.06830024719238 85.08217620849609 C 22.88852500915527 82.89131164550781 18.23629951477051 79.75458526611328 14.2408504486084 75.75914764404297 C 10.24541282653809 71.76370239257812 7.108687400817871 67.11147308349609 4.917825222015381 61.93170166015625 C 2.649924993515015 56.56977462768555 1.5 50.87312316894531 1.5 45 C 1.5 39.12687683105469 2.649924993515015 33.43022537231445 4.917825222015381 28.06830024719238 C 7.108687400817871 22.88852500915527 10.24541282653809 18.23629951477051 14.2408504486084 14.2408504486084 C 18.23629951477051 10.24541282653809 22.88852500915527 7.108687400817871 28.06830024719238 4.917825222015381 C 33.43022537231445 2.649924993515015 39.12687683105469 1.5 45 1.5 C 50.87312316894531 1.5 56.56977462768555 2.649924993515015 61.93170166015625 4.917825222015381 C 67.11147308349609 7.108687400817871 71.76370239257812 10.24541282653809 75.75914764404297 14.2408504486084 C 79.75458526611328 18.23629951477051 82.89131164550781 22.88852500915527 85.08217620849609 28.06830024719238 C 87.35007476806641 33.43022537231445 88.5 39.12687683105469 88.5 45 C 88.5 50.87312316894531 87.35007476806641 56.56977462768555 85.08217620849609 61.93170166015625 C 82.89131164550781 67.11147308349609 79.75458526611328 71.76370239257812 75.75914764404297 75.75914764404297 C 71.76370239257812 79.75458526611328 67.11147308349609 82.89131164550781 61.93170166015625 85.08217620849609 C 56.56977462768555 87.35007476806641 50.87312316894531 88.5 45 88.5 Z" stroke="none"/>
        <path d="M 45 3 C 39.32871246337891 3 33.82865524291992 4.110054016113281 28.65262985229492 6.299339294433594 C 23.65165710449219 8.414573669433594 19.15968322753906 11.44334411621094 15.301513671875 15.301513671875 C 11.44334411621094 19.15968322753906 8.414573669433594 23.65165710449219 6.299339294433594 28.65262985229492 C 4.110054016113281 33.82865524291992 3 39.32871246337891 3 45 C 3 50.67128753662109 4.110054016113281 56.17134475708008 6.299339294433594 61.34737396240234 C 8.414573669433594 66.34834289550781 11.44334411621094 70.84031677246094 15.301513671875 74.698486328125 C 19.15968322753906 78.55665588378906 23.65165710449219 81.58542633056641 28.65262985229492 83.70066070556641 C 33.82865524291992 85.88994598388672 39.32871246337891 87 45 87 C 50.67128753662109 87 56.17134475708008 85.88994598388672 61.34737396240234 83.70066070556641 C 66.34834289550781 81.58542633056641 70.84031677246094 78.55665588378906 74.698486328125 74.698486328125 C 78.55665588378906 70.84031677246094 81.58542633056641 66.34834289550781 83.70066070556641 61.34737396240234 C 85.88994598388672 56.17134475708008 87 50.67128753662109 87 45 C 87 39.32871246337891 85.88994598388672 33.82865524291992 83.70066070556641 28.65262985229492 C 81.58542633056641 23.65165710449219 78.55665588378906 19.15968322753906 74.698486328125 15.301513671875 C 70.84031677246094 11.44334411621094 66.34834289550781 8.414573669433594 61.34737396240234 6.299339294433594 C 56.17134475708008 4.110054016113281 50.67128753662109 3 45 3 M 45 0 C 69.85281372070312 0 90 20.14718627929688 90 45 C 90 69.85281372070312 69.85281372070312 90 45 90 C 20.14718627929688 90 0 69.85281372070312 0 45 C 0 20.14718627929688 20.14718627929688 0 45 0 Z" stroke="none" fill="#fd7940"/>
      </g>
    </g>
    <g id="_x38_1_Budget_Plan" transform="translate(192.856 2981.837)">
      <g id="Grupo_1146624" data-name="Grupo 1146624" transform="translate(35.457 5.898)">
        <path id="Trazado_982628" data-name="Trazado 982628" d="M81.13,33.984v49.21a3.961,3.961,0,0,1-3.961,3.961H43.333a3.961,3.961,0,0,1-3.961-3.961V33.984a3.961,3.961,0,0,1,3.961-3.961H77.169a3.961,3.961,0,0,1,3.961,3.961Z" transform="translate(-38.898 -27.104)" fill="#475da9"/>
        <path id="Trazado_982629" data-name="Trazado 982629" d="M81.119,34.009V83.219a3.964,3.964,0,0,1-3.96,3.96H43.316a3.959,3.959,0,0,1-3.96-3.96v-.5H54.147A22.514,22.514,0,0,0,76.662,60.208V30.049h.5a3.964,3.964,0,0,1,3.96,3.96Z" transform="translate(-38.884 -27.127)" opacity="0.12"/>
        <path id="Trazado_982630" data-name="Trazado 982630" d="M74.384,65.033h33.285v48.659H74.384Z" transform="translate(-69.674 -57.877)" fill="#e8f1f8"/>
        <path id="Trazado_982631" data-name="Trazado 982631" d="M107.663,65.007V113.67H74.375v-3.727H89.546a14.39,14.39,0,0,0,14.383-14.39V65.007Z" transform="translate(-69.666 -57.854)" opacity="0.12"/>
        <path id="Trazado_982632" data-name="Trazado 982632" d="M114.933,123.029v-7.145h0a7.145,7.145,0,1,0,7.147,7.145Z" transform="translate(-99.035 -102.575)" fill="#fdcf17"/>
        <path id="Trazado_982633" data-name="Trazado 982633" d="M137.253,174.28a7.149,7.149,0,0,1-12.2,5.055l5.055-5.055Z" transform="translate(-114.21 -153.905)" fill="#f14f4a"/>
        <path id="Trazado_982634" data-name="Trazado 982634" d="M173.982,123.03v0a7.146,7.146,0,0,0-7.145-7.143v7.145Z" transform="translate(-150.939 -102.576)" fill="#0e9c4a"/>
        <g id="Grupo_1146622" data-name="Grupo 1146622" transform="translate(8.753 16.346)">
          <path id="Trazado_982635" data-name="Trazado 982635" d="M262.11,142.355a1.376,1.376,0,0,1-1.376,1.376H256.06a1.376,1.376,0,1,1,0-2.753h4.673A1.376,1.376,0,0,1,262.11,142.355Z" transform="translate(-236.909 -140.979)" fill="#acbadf"/>
          <path id="Trazado_982636" data-name="Trazado 982636" d="M262.11,186.234a1.376,1.376,0,0,1-1.376,1.376H256.06a1.376,1.376,0,1,1,0-2.753h4.673A1.376,1.376,0,0,1,262.11,186.234Z" transform="translate(-236.909 -179.548)" fill="#acbadf"/>
          <path id="Trazado_982637" data-name="Trazado 982637" d="M122.768,259.951a1.376,1.376,0,0,1-1.376,1.376H109.165a1.376,1.376,0,0,1,0-2.753h12.226A1.376,1.376,0,0,1,122.768,259.951Z" transform="translate(-107.789 -244.345)" fill="#acbadf"/>
          <path id="Trazado_982638" data-name="Trazado 982638" d="M122.768,307.934a1.376,1.376,0,0,1-1.376,1.376H109.165a1.376,1.376,0,1,1,0-2.753h12.226A1.376,1.376,0,0,1,122.768,307.934Z" transform="translate(-107.789 -286.522)" fill="#acbadf"/>
          <path id="Trazado_982639" data-name="Trazado 982639" d="M122.768,355.917a1.376,1.376,0,0,1-1.376,1.376H109.165a1.376,1.376,0,0,1,0-2.753h12.226A1.376,1.376,0,0,1,122.768,355.917Z" transform="translate(-107.789 -328.699)" fill="#acbadf"/>
          <path id="Trazado_982640" data-name="Trazado 982640" d="M117,403.9a1.376,1.376,0,0,1-1.376,1.376h-6.457a1.376,1.376,0,1,1,0-2.753h6.457A1.376,1.376,0,0,1,117,403.9Z" transform="translate(-107.789 -370.875)" fill="#acbadf"/>
        </g>
        <path id="Trazado_982641" data-name="Trazado 982641" d="M308.453,207.133a9.681,9.681,0,1,1-9.68-9.68A9.68,9.68,0,0,1,308.453,207.133Z" transform="translate(-258.4 -174.274)" fill="#f78721"/>
        <path id="Trazado_982642" data-name="Trazado 982642" d="M327.647,229.39a6.617,6.617,0,1,1-6.616-6.616A6.616,6.616,0,0,1,327.647,229.39Z" transform="translate(-280.658 -196.531)" fill="#fdcf17"/>
        <path id="Trazado_982643" data-name="Trazado 982643" d="M334.405,236.182a6.619,6.619,0,0,1-12.3,3.39,6.623,6.623,0,0,0,9.08-9.069,6.6,6.6,0,0,1,3.225,5.68Z" transform="translate(-287.415 -203.323)" opacity="0.12"/>
        <path id="Trazado_982644" data-name="Trazado 982644" d="M355.376,261.825h2.073a1.248,1.248,0,1,0,0-2.5h-.825a1.248,1.248,0,0,1,0-2.5H358.7" transform="translate(-316.664 -226.468)" fill="none" stroke="#f78721" stroke-linecap="round" stroke-linejoin="round" stroke-miterlimit="10" stroke-width="1.5"/>
        <path id="Trazado_982645" data-name="Trazado 982645" d="M369.094,299.122v-1.037" transform="translate(-328.722 -262.728)" fill="none" stroke="#f78721" stroke-linecap="round" stroke-linejoin="round" stroke-miterlimit="10" stroke-width="1.5"/>
        <path id="Trazado_982646" data-name="Trazado 982646" d="M369.094,249.3v-1.037" transform="translate(-328.722 -218.932)" fill="none" stroke="#f78721" stroke-linecap="round" stroke-linejoin="round" stroke-miterlimit="10" stroke-width="1.5"/>
        <path id="Trazado_982647" data-name="Trazado 982647" d="M305.447,476.835a1.632,1.632,0,0,1-1.632,1.632H284.066a1.632,1.632,0,1,1,0-3.264h19.749A1.632,1.632,0,0,1,305.447,476.835Z" transform="translate(-252.548 -418.414)" fill="#f78721"/>
        <path id="Trazado_982648" data-name="Trazado 982648" d="M288.593,449.864a1.632,1.632,0,0,1-1.632,1.632H267.212a1.632,1.632,0,1,1,0-3.264h19.749A1.632,1.632,0,0,1,288.593,449.864Z" transform="translate(-237.734 -394.707)" fill="#fdcf17"/>
        <path id="Trazado_982649" data-name="Trazado 982649" d="M305.447,422.894a1.632,1.632,0,0,1-1.632,1.632H284.066a1.632,1.632,0,1,1,0-3.264h19.749A1.632,1.632,0,0,1,305.447,422.894Z" transform="translate(-252.548 -371)" fill="#f78721"/>
        <path id="Trazado_982650" data-name="Trazado 982650" d="M288.593,395.923a1.632,1.632,0,0,1-1.632,1.632H267.212a1.632,1.632,0,1,1,0-3.264h19.749A1.632,1.632,0,0,1,288.593,395.923Z" transform="translate(-237.734 -347.293)" fill="#fdcf17"/>
        <path id="Trazado_982651" data-name="Trazado 982651" d="M305.447,368.952a1.632,1.632,0,0,1-1.632,1.632H284.066a1.632,1.632,0,1,1,0-3.264h19.749A1.632,1.632,0,0,1,305.447,368.952Z" transform="translate(-252.548 -323.586)" fill="#f78721"/>
        <path id="Trazado_982652" data-name="Trazado 982652" d="M288.593,341.981a1.632,1.632,0,0,1-1.632,1.632H267.212a1.632,1.632,0,1,1,0-3.264h19.749A1.632,1.632,0,0,1,288.593,341.981Z" transform="translate(-237.734 -299.878)" fill="#fdcf17"/>
        <path id="Trazado_982653" data-name="Trazado 982653" d="M432.524,476.833v0a1.631,1.631,0,0,1-1.63,1.63h-3.889a1.634,1.634,0,0,0,1.633-1.63v0a1.633,1.633,0,0,0-1.633-1.63h3.889A1.631,1.631,0,0,1,432.524,476.833Z" transform="translate(-379.625 -418.414)" opacity="0.12"/>
        <path id="Trazado_982654" data-name="Trazado 982654" d="M415.676,449.862v0a1.632,1.632,0,0,1-1.633,1.63h-3.886a1.631,1.631,0,0,0,1.63-1.63v0a1.631,1.631,0,0,0-1.63-1.63h3.886A1.632,1.632,0,0,1,415.676,449.862Z" transform="translate(-364.816 -394.707)" opacity="0.12"/>
        <path id="Trazado_982655" data-name="Trazado 982655" d="M432.524,422.891v0a1.631,1.631,0,0,1-1.63,1.63h-3.889a1.634,1.634,0,0,0,1.633-1.63v0a1.633,1.633,0,0,0-1.633-1.63h3.889A1.631,1.631,0,0,1,432.524,422.891Z" transform="translate(-379.625 -370.999)" opacity="0.12"/>
        <path id="Trazado_982656" data-name="Trazado 982656" d="M415.676,395.921v0a1.632,1.632,0,0,1-1.633,1.63h-3.886a1.631,1.631,0,0,0,1.63-1.63v0a1.631,1.631,0,0,0-1.63-1.63h3.886A1.632,1.632,0,0,1,415.676,395.921Z" transform="translate(-364.816 -347.293)" opacity="0.12"/>
        <path id="Trazado_982657" data-name="Trazado 982657" d="M432.524,368.95v0a1.631,1.631,0,0,1-1.63,1.63h-3.889a1.634,1.634,0,0,0,1.633-1.63v0a1.633,1.633,0,0,0-1.633-1.63h3.889A1.631,1.631,0,0,1,432.524,368.95Z" transform="translate(-379.625 -323.586)" opacity="0.12"/>
        <path id="Trazado_982658" data-name="Trazado 982658" d="M415.676,341.979v0a1.632,1.632,0,0,1-1.633,1.63h-3.886a1.631,1.631,0,0,0,1.63-1.63v0a1.631,1.631,0,0,0-1.63-1.63h3.886A1.632,1.632,0,0,1,415.676,341.979Z" transform="translate(-364.816 -299.878)" opacity="0.12"/>
        <path id="Trazado_982659" data-name="Trazado 982659" d="M140.365,16.423v.421a1.576,1.576,0,0,1-1.576,1.576H119.1a1.576,1.576,0,0,1-1.576-1.576v-.421a2.3,2.3,0,0,1,2.3-2.3h.855a2.15,2.15,0,0,0,2.15-2.15,2.15,2.15,0,0,1,2.15-2.15h7.933a2.15,2.15,0,0,1,2.15,2.15,2.15,2.15,0,0,0,2.15,2.15h.855A2.3,2.3,0,0,1,140.365,16.423Z" transform="translate(-107.597 -9.351)" fill="#d1660d"/>
        <g id="Grupo_1146623" data-name="Grupo 1146623" transform="translate(0 0)">
          <path id="Trazado_982660" data-name="Trazado 982660" d="M111.478,127.2a7.631,7.631,0,0,0,7.622-7.621v0a7.635,7.635,0,0,0-7.621-7.619h0a7.62,7.62,0,0,0,0,15.241Zm.477-14.273a6.68,6.68,0,0,1,6.168,6.1h-6.168Zm-.358,7.128h6.527a6.671,6.671,0,0,1-11.015,4.489ZM111,112.924V119.3l-4.6,4.6a6.661,6.661,0,0,1,4.6-10.973Z" transform="translate(-95.582 -99.123)"/>
          <path id="Trazado_982661" data-name="Trazado 982661" d="M252.609,140.754h4.673a1.852,1.852,0,0,0,0-3.7h-4.673a1.852,1.852,0,1,0,0,3.7Zm0-2.752h4.673a.9.9,0,0,1,0,1.8h-4.673a.9.9,0,1,1,0-1.8Z" transform="translate(-224.704 -121.181)"/>
          <path id="Trazado_982662" data-name="Trazado 982662" d="M257.282,184.635a1.852,1.852,0,0,0,0-3.7h-4.673a1.852,1.852,0,1,0,0,3.7Zm-5.574-1.852a.9.9,0,0,1,.9-.9h4.673a.9.9,0,0,1,0,1.8h-4.673A.9.9,0,0,1,251.708,182.783Z" transform="translate(-224.704 -159.752)"/>
          <path id="Trazado_982663" data-name="Trazado 982663" d="M117.938,254.65H105.712a1.852,1.852,0,1,0,0,3.7h12.226a1.852,1.852,0,0,0,0-3.7Zm0,2.752H105.712a.9.9,0,1,1,0-1.8h12.226a.9.9,0,0,1,0,1.8Z" transform="translate(-95.583 -224.549)"/>
          <path id="Trazado_982664" data-name="Trazado 982664" d="M117.938,302.628H105.712a1.852,1.852,0,0,0,0,3.7h12.226a1.852,1.852,0,0,0,0-3.7Zm0,2.753H105.712a.9.9,0,1,1,0-1.8h12.226a.9.9,0,0,1,0,1.8Z" transform="translate(-95.583 -266.722)"/>
          <path id="Trazado_982665" data-name="Trazado 982665" d="M117.938,350.612H105.712a1.852,1.852,0,1,0,0,3.7h12.226a1.852,1.852,0,0,0,0-3.7Zm0,2.752H105.712a.9.9,0,1,1,0-1.8h12.226a.9.9,0,0,1,0,1.8Z" transform="translate(-95.583 -308.899)"/>
          <path id="Trazado_982666" data-name="Trazado 982666" d="M112.168,398.6h-6.457a1.852,1.852,0,1,0,0,3.7h6.457a1.852,1.852,0,1,0,0-3.7Zm0,2.752h-6.457a.9.9,0,1,1,0-1.8h6.457a.9.9,0,1,1,0,1.8Z" transform="translate(-95.582 -351.077)"/>
          <path id="Trazado_982667" data-name="Trazado 982667" d="M310.485,225.937a7.093,7.093,0,1,0,7.093-7.092A7.1,7.1,0,0,0,310.485,225.937Zm7.093-6.141a6.142,6.142,0,1,1-6.142,6.141A6.148,6.148,0,0,1,317.578,219.8Z" transform="translate(-277.205 -193.077)"/>
          <path id="Trazado_982668" data-name="Trazado 982668" d="M353.994,250.362h-2.073a.475.475,0,1,0,0,.951h1.185v.562a.475.475,0,0,0,.951,0v-.568a1.721,1.721,0,0,0-.062-3.441h-.824a.772.772,0,1,1,0-1.545h2.072a.475.475,0,1,0,0-.951h-1.185v-.562a.475.475,0,1,0-.951,0v.568a1.72,1.72,0,0,0,.064,3.44h.824a.773.773,0,0,1,0,1.546Z" transform="translate(-313.209 -215.481)"/>
          <path id="Trazado_982669" data-name="Trazado 982669" d="M88.831,51.264a2.109,2.109,0,0,0-2.107-2.108h-.281a2.1,2.1,0,0,0-1.759-3.264H83.053a10.147,10.147,0,0,0-4.89-17.011V12.777A4.442,4.442,0,0,0,73.727,8.34H63.38A2.621,2.621,0,0,0,60.773,5.9H52.84A2.621,2.621,0,0,0,50.234,8.34H39.894a4.442,4.442,0,0,0-4.437,4.437V61.991a4.439,4.439,0,0,0,4.437,4.43l46.831,0a2.107,2.107,0,0,0,0-4.214h-.281a2.091,2.091,0,0,0,0-2.313h.282a2.107,2.107,0,0,0,0-4.214h-.281a2.091,2.091,0,0,0,0-2.313h.282a2.109,2.109,0,0,0,2.107-2.107Zm-4.147-4.421a1.157,1.157,0,1,1,0,2.313H64.935a1.157,1.157,0,0,1,0-2.313ZM65.216,52.42h-.281a2.107,2.107,0,0,0,0,4.214h.281a2.091,2.091,0,0,0,0,2.313h-.281a2.109,2.109,0,0,0-2.107,2.108c0,.062.013.121.018.182h-22.2V13.531h4.285a2.048,2.048,0,0,0,2.038,1.911H66.649a2.048,2.048,0,0,0,2.037-1.911h4.292V29.022a10.135,10.135,0,0,0-4.367,16.872H64.935a2.107,2.107,0,0,0,0,4.214h.281a2.09,2.09,0,0,0,0,2.313Zm19.468.951a1.157,1.157,0,1,1,0,2.313H64.935a1.157,1.157,0,0,1,0-2.313Zm0,6.527a1.157,1.157,0,1,1,0,2.313H64.935a1.157,1.157,0,0,1,0-2.313Zm.349-21.143a9.144,9.144,0,0,1-3.4,7.137h-11.6a9.188,9.188,0,0,1,3.54-16.057,9.2,9.2,0,0,1,11.461,8.92ZM73.727,9.291a3.49,3.49,0,0,1,3.486,3.486V28.713a10.18,10.18,0,0,0-3.284.084V13.055a.475.475,0,0,0-.475-.475H68.661A2.767,2.767,0,0,0,65.929,10.2h-.855a1.67,1.67,0,0,1-1.48-.907ZM51.166,8.524A1.676,1.676,0,0,1,52.84,6.849h7.933a1.677,1.677,0,0,1,1.675,1.675,2.646,2.646,0,0,0,2.626,2.626h.855A1.823,1.823,0,0,1,67.75,12.97v.421a1.1,1.1,0,0,1-1.1,1.1H46.964a1.1,1.1,0,0,1-1.1-1.1V12.97a1.823,1.823,0,0,1,1.822-1.821h.855A2.647,2.647,0,0,0,51.166,8.524ZM65.214,65.471H39.894a3.487,3.487,0,0,1-3.486-3.48V12.777a3.49,3.49,0,0,1,3.486-3.486H50.02a1.671,1.671,0,0,1-1.48.907h-.855a2.768,2.768,0,0,0-2.733,2.382H40.167a.475.475,0,0,0-.475.475V61.713a.475.475,0,0,0,.475.475h23a2.218,2.218,0,0,0,2.052.974,2.09,2.09,0,0,0,0,2.309Zm21.51-2.309a1.157,1.157,0,0,1,0,2.313H66.974a1.157,1.157,0,0,1,0-2.313Zm0-6.527a1.157,1.157,0,0,1,0,2.313H66.974a1.157,1.157,0,0,1,0-2.313ZM66.974,52.42a1.157,1.157,0,0,1,0-2.313h19.75a1.157,1.157,0,0,1,0,2.313Z" transform="translate(-35.457 -5.898)"/>
        </g>
      </g>
    </g>
  </g>
</svg>
