<svg xmlns="http://www.w3.org/2000/svg" xmlns:xlink="http://www.w3.org/1999/xlink" width="108" height="108" viewBox="0 0 108 108">
  <defs>
    <filter id="Trazado_982547" x="0" y="0" width="108" height="108" filterUnits="userSpaceOnUse">
      <feOffset dy="3" input="SourceAlpha"/>
      <feGaussianBlur stdDeviation="3" result="blur"/>
      <feFlood flood-opacity="0.161"/>
      <feComposite operator="in" in2="blur"/>
      <feComposite in="SourceGraphic"/>
    </filter>
  </defs>
  <g id="Grupo_1146627" data-name="Grupo 1146627" transform="translate(-616 -3983)">
    <g transform="matrix(1, 0, 0, 1, 616, 3983)" filter="url(#Trazado_982547)">
      <g id="Trazado_982547-2" data-name="Trazado 982547" transform="translate(9 6)" fill="#f3f3f3">
        <path d="M 45 88.5 C 39.12687683105469 88.5 33.43022537231445 87.35007476806641 28.06830024719238 85.08217620849609 C 22.88852500915527 82.89131164550781 18.23629951477051 79.75458526611328 14.2408504486084 75.75914764404297 C 10.24541282653809 71.76370239257812 7.108687400817871 67.11147308349609 4.917825222015381 61.93170166015625 C 2.649924993515015 56.56977462768555 1.5 50.87312316894531 1.5 45 C 1.5 39.12687683105469 2.649924993515015 33.43022537231445 4.917825222015381 28.06830024719238 C 7.108687400817871 22.88852500915527 10.24541282653809 18.23629951477051 14.2408504486084 14.2408504486084 C 18.23629951477051 10.24541282653809 22.88852500915527 7.108687400817871 28.06830024719238 4.917825222015381 C 33.43022537231445 2.649924993515015 39.12687683105469 1.5 45 1.5 C 50.87312316894531 1.5 56.56977462768555 2.649924993515015 61.93170166015625 4.917825222015381 C 67.11147308349609 7.108687400817871 71.76370239257812 10.24541282653809 75.75914764404297 14.2408504486084 C 79.75458526611328 18.23629951477051 82.89131164550781 22.88852500915527 85.08217620849609 28.06830024719238 C 87.35007476806641 33.43022537231445 88.5 39.12687683105469 88.5 45 C 88.5 50.87312316894531 87.35007476806641 56.56977462768555 85.08217620849609 61.93170166015625 C 82.89131164550781 67.11147308349609 79.75458526611328 71.76370239257812 75.75914764404297 75.75914764404297 C 71.76370239257812 79.75458526611328 67.11147308349609 82.89131164550781 61.93170166015625 85.08217620849609 C 56.56977462768555 87.35007476806641 50.87312316894531 88.5 45 88.5 Z" stroke="none"/>
        <path d="M 45 3 C 39.32871246337891 3 33.82865524291992 4.110054016113281 28.65262985229492 6.299339294433594 C 23.65165710449219 8.414573669433594 19.15968322753906 11.44334411621094 15.301513671875 15.301513671875 C 11.44334411621094 19.15968322753906 8.414573669433594 23.65165710449219 6.299339294433594 28.65262985229492 C 4.110054016113281 33.82865524291992 3 39.32871246337891 3 45 C 3 50.67128753662109 4.110054016113281 56.17134475708008 6.299339294433594 61.34737396240234 C 8.414573669433594 66.34834289550781 11.44334411621094 70.84031677246094 15.301513671875 74.698486328125 C 19.15968322753906 78.55665588378906 23.65165710449219 81.58542633056641 28.65262985229492 83.70066070556641 C 33.82865524291992 85.88994598388672 39.32871246337891 87 45 87 C 50.67128753662109 87 56.17134475708008 85.88994598388672 61.34737396240234 83.70066070556641 C 66.34834289550781 81.58542633056641 70.84031677246094 78.55665588378906 74.698486328125 74.698486328125 C 78.55665588378906 70.84031677246094 81.58542633056641 66.34834289550781 83.70066070556641 61.34737396240234 C 85.88994598388672 56.17134475708008 87 50.67128753662109 87 45 C 87 39.32871246337891 85.88994598388672 33.82865524291992 83.70066070556641 28.65262985229492 C 81.58542633056641 23.65165710449219 78.55665588378906 19.15968322753906 74.698486328125 15.301513671875 C 70.84031677246094 11.44334411621094 66.34834289550781 8.414573669433594 61.34737396240234 6.299339294433594 C 56.17134475708008 4.110054016113281 50.67128753662109 3 45 3 M 45 0 C 69.85281372070312 0 90 20.14718627929688 90 45 C 90 69.85281372070312 69.85281372070312 90 45 90 C 20.14718627929688 90 0 69.85281372070312 0 45 C 0 20.14718627929688 20.14718627929688 0 45 0 Z" stroke="none" fill="#82e0e0"/>
      </g>
    </g>
    <g id="evaluation_10650154" transform="translate(636.129 3986.652)">
      <path id="Trazado_982670" data-name="Trazado 982670" d="M66.057,61.769a1.581,1.581,0,0,0-2.131-.653l-1.169.621-1.3-2.442-2.063-8.387a17.584,17.584,0,0,0-4.075-6.848l6.406-3.415a.865.865,0,0,0,.357-1.169l-3.205-6.012a.866.866,0,0,0-1.168-.356l-5.576,2.972V27.512a6.672,6.672,0,0,0-6.665-6.665H39.224v-.764a.866.866,0,0,0-.865-.865H33.5c-.717-1.686-2.8-2.848-5.28-2.848s-4.562,1.161-5.28,2.848H18.091a.865.865,0,0,0-.865.865v.766H10.983a6.673,6.673,0,0,0-6.665,6.663v44a6.673,6.673,0,0,0,6.665,6.666H45.467a6.7,6.7,0,0,0,5.186-2.491l.617,1.163A1.578,1.578,0,0,0,53.4,77.5l15-7.963a1.582,1.582,0,0,0,.653-2.132Z" transform="translate(0)" fill-rule="evenodd"/>
      <path id="Trazado_982671" data-name="Trazado 982671" d="M54.6,94.362H74.87a.865.865,0,0,0,.865-.865v-.747h6.243a1.291,1.291,0,0,1,1.285,1.288v11.434l-1.783.951-.84-.229-5.771-1.577a3.468,3.468,0,0,0-3.447.835c-.026.026-.049.052-.072.078H61.341a.866.866,0,1,0,0,1.731h9.071a3.831,3.831,0,0,0,0,1.886,3.379,3.379,0,0,0,1.831,2.2l-4.507,2.4h-6.4a.865.865,0,1,0,0,1.731h4.2l-1.387,2.3H61.343a.865.865,0,0,0,0,1.727h1.769l-.629,1.042a.866.866,0,0,0,.7,1.307l6.622.322a.9.9,0,0,0,.476-.109l6.46-3.443,1.85,3.96c.112.367.216.712.313,1.039,1.088,3.624,1.55,5.159,4.36,7.536v.036H78.532a3.022,3.022,0,0,0-3.018,3.018v5.115H47.49a1.293,1.293,0,0,1-1.29-1.291v-44a1.292,1.292,0,0,1,1.291-1.29h6.246V93.5a.866.866,0,0,0,.861.864Zm26.136,8a.866.866,0,0,0-.866-.865l-18.524,0a.865.865,0,1,0,.056,1.729H79.87a.865.865,0,0,0,.864-.862Zm-2.459,23.629-16.923,0a.865.865,0,1,0,.056,1.729h16.87a.864.864,0,0,0,0-1.728Zm-4.693,4.028H61.355a.865.865,0,0,0,0,1.731H73.583a.866.866,0,0,0,0-1.731Zm-16.1-4.66a.865.865,0,0,0-.865-.841H49.633a.865.865,0,0,0-.865.865v6.982a.866.866,0,0,0,.865.865h6.981a.866.866,0,0,0,.866-.866v-4.851l.832-.675a.865.865,0,0,0-.555-1.53c-.028,0-.284.024-.277.05Zm0-12.248a.865.865,0,0,0-.865-.84H49.633a.866.866,0,0,0-.865.865v6.981a.865.865,0,0,0,.865.865h6.981a.866.866,0,0,0,.866-.865v-4.847l.832-.674a.865.865,0,0,0-.555-1.53c-.052,0-.278.045-.278.045Zm-8.712-5.243a.866.866,0,0,0,.866.866h6.981a.866.866,0,0,0,.866-.866v-4.849l.832-.675a.865.865,0,0,0-.833-1.484.866.866,0,0,0-.865-.84H49.633a.866.866,0,0,0-.864.865q0,3.492,0,6.983Z" transform="translate(-36.481 -66.531)" fill="#fff" fill-rule="evenodd"/>
      <g id="Grupo_1146626" data-name="Grupo 1146626" transform="translate(14.016 35.226)">
        <path id="Trazado_982672" data-name="Trazado 982672" d="M84.775,357.75H79.519v-5.257h5.253v.447l-2.458,1.994-1.154-1.089a.865.865,0,0,0-1.184,1.259l1.7,1.605a.866.866,0,0,0,1.137.041l1.956-1.587Z" transform="translate(-79.519 -328.002)" fill="#79aa30" fill-rule="evenodd"/>
        <path id="Trazado_982673" data-name="Trazado 982673" d="M84.775,262.781H79.519v-5.258h5.253v.451l-2.458,1.991-1.154-1.088a.866.866,0,0,0-1.186,1.261l1.706,1.606a.865.865,0,0,0,1.137.042l1.956-1.587Z" transform="translate(-79.519 -245.28)" fill="#79aa30" fill-rule="evenodd"/>
        <path id="Trazado_982674" data-name="Trazado 982674" d="M79.522,162.588h5.253v.447l-2.461,1.991-1.154-1.089a.866.866,0,0,0-1.184,1.259l1.706,1.606a.865.865,0,0,0,1.137.042l1.954-1.587v2.581H79.519Z" transform="translate(-79.519 -162.588)" fill="#79aa30" fill-rule="evenodd"/>
      </g>
      <path id="Trazado_982675" data-name="Trazado 982675" d="M360.592,388.9l-2.853-5.372q7.365-3.908,14.728-7.82l2.853,5.372Z" transform="translate(-307.842 -312.997)" fill="#31a7fb" fill-rule="evenodd"/>
      <path id="Trazado_982676" data-name="Trazado 982676" d="M22.872,118.356a4.945,4.945,0,0,1-4.934-4.938v-44a4.943,4.943,0,0,1,4.938-4.938h6.242V66.4H22.872a3.022,3.022,0,0,0-3.018,3.014v44a3.022,3.022,0,0,0,3.018,3.019H51.759a.859.859,0,0,0,.626-.269c1.428-1.5,6.872-7.265,7.9-8.338.106.079.217.159.325.24l1.254,2.361-1.045.555a1.578,1.578,0,0,0-.653,2.131l1.467,2.763a4.967,4.967,0,0,1-4.276,2.479Z" transform="translate(-11.864 -41.906)" fill="#71c2fd" fill-rule="evenodd"/>
      <path id="Trazado_982677" data-name="Trazado 982677" d="M118.011,32.61h4.628a.866.866,0,0,0,.85-.709c.216-1.2,1.884-2.139,3.793-2.139s3.575.938,3.793,2.138a.865.865,0,0,0,.85.709h4.63v5.163H118.017Z" transform="translate(-99.031 -11.666)" fill="#0587e5" fill-rule="evenodd"/>
      <path id="Trazado_982678" data-name="Trazado 982678" d="M281.422,64.47a4.944,4.944,0,0,1,4.938,4.936v9.489l-1.919,1.023V69.406a3.022,3.022,0,0,0-3.019-3.018h-6.243V64.47Z" transform="translate(-235.929 -41.898)" fill="#71c2fd" fill-rule="evenodd"/>
      <path id="Trazado_982679" data-name="Trazado 982679" d="M240.325,161.083l2.392,4.488-14.791,7.887-.361-.676a3.164,3.164,0,0,0-4.315-1.42,3.295,3.295,0,0,0-1.532,4.472l.348.745-5.789,3.092-2.392-4.488q13.215-7.059,26.44-14.1Z" transform="translate(-182.54 -126.051)" fill="#fcc16d" fill-rule="evenodd"/>
      <path id="Trazado_982680" data-name="Trazado 982680" d="M329.631,267.844l-.586-1.1.586-.313Z" transform="translate(-282.849 -217.809)" fill="#fff" fill-rule="evenodd"/>
      <path id="Trazado_982681" data-name="Trazado 982681" d="M286.89,405.556a1.291,1.291,0,0,1,1.29-1.291h3.58l-4.87,5.113Z" transform="translate(-246.129 -337.871)" fill="#9c9c9c" fill-rule="evenodd"/>
      <path id="Trazado_982682" data-name="Trazado 982682" d="M191.642,281.2l1.773,3.326-3.671-.179Z" transform="translate(-161.513 -230.676)" fill="#6e6e6e" fill-rule="evenodd"/>
      <path id="Trazado_982683" data-name="Trazado 982683" d="M248.8,200.966l-.958-.262a1.731,1.731,0,0,1-1.328-1.245,2.162,2.162,0,0,1,.554-2.026,1.733,1.733,0,0,1,1.777-.4l4.842,1.324Z" transform="translate(-210.904 -157.284)" fill="#ffd9cd" fill-rule="evenodd"/>
      <path id="Trazado_982684" data-name="Trazado 982684" d="M304.574,252.534a.893.893,0,0,0,.076.2l1.344,2.534-9.731,5.168-1.348-2.537a.859.859,0,0,0-.255-.293c-.649-.474-1.207-.9-1.689-1.286a.872.872,0,0,0-.089-.072c-2.628-2.142-2.99-3.344-4.065-6.925-.1-.347-.216-.714-.333-1.1a1.1,1.1,0,0,0-.043-.114l-2.958-6.327a1.586,1.586,0,0,1,.737-2.2,1.422,1.422,0,0,1,2.02.683l3.383,6.371a.857.857,0,0,0,1.622-.405v-5.808l5.244-2.8a16.321,16.321,0,0,1,3.993,6.414Z" transform="translate(-244.74 -192.723)" fill="#ffd9cd" fill-rule="evenodd"/>
    </g>
  </g>
</svg>
