<svg xmlns="http://www.w3.org/2000/svg" xmlns:xlink="http://www.w3.org/1999/xlink" width="108" height="108" viewBox="0 0 108 108">
  <defs>
    <filter id="Trazado_982548" x="0" y="0" width="108" height="108" filterUnits="userSpaceOnUse">
      <feOffset dy="3" input="SourceAlpha"/>
      <feGaussianBlur stdDeviation="3" result="blur"/>
      <feFlood flood-opacity="0.161"/>
      <feComposite operator="in" in2="blur"/>
      <feComposite in="SourceGraphic"/>
    </filter>
  </defs>
  <g id="Grupo_1146629" data-name="Grupo 1146629" transform="translate(-201 -4849)">
    <g transform="matrix(1, 0, 0, 1, 201, 4849)" filter="url(#Trazado_982548)">
      <g id="Trazado_982548-2" data-name="Trazado 982548" transform="translate(9 6)" fill="#f1fbfb">
        <path d="M 45 88.5 C 39.12687683105469 88.5 33.43022537231445 87.35007476806641 28.06830024719238 85.08217620849609 C 22.88852500915527 82.89131164550781 18.23629951477051 79.75458526611328 14.2408504486084 75.75914764404297 C 10.24541282653809 71.76370239257812 7.108687400817871 67.11147308349609 4.917825222015381 61.93170166015625 C 2.649924993515015 56.56977462768555 1.5 50.87312316894531 1.5 45 C 1.5 39.12687683105469 2.649924993515015 33.43022537231445 4.917825222015381 28.06830024719238 C 7.108687400817871 22.88852500915527 10.24541282653809 18.23629951477051 14.2408504486084 14.2408504486084 C 18.23629951477051 10.24541282653809 22.88852500915527 7.108687400817871 28.06830024719238 4.917825222015381 C 33.43022537231445 2.649924993515015 39.12687683105469 1.5 45 1.5 C 50.87312316894531 1.5 56.56977462768555 2.649924993515015 61.93170166015625 4.917825222015381 C 67.11147308349609 7.108687400817871 71.76370239257812 10.24541282653809 75.75914764404297 14.2408504486084 C 79.75458526611328 18.23629951477051 82.89131164550781 22.88852500915527 85.08217620849609 28.06830024719238 C 87.35007476806641 33.43022537231445 88.5 39.12687683105469 88.5 45 C 88.5 50.87312316894531 87.35007476806641 56.56977462768555 85.08217620849609 61.93170166015625 C 82.89131164550781 67.11147308349609 79.75458526611328 71.76370239257812 75.75914764404297 75.75914764404297 C 71.76370239257812 79.75458526611328 67.11147308349609 82.89131164550781 61.93170166015625 85.08217620849609 C 56.56977462768555 87.35007476806641 50.87312316894531 88.5 45 88.5 Z" stroke="none"/>
        <path d="M 45 3 C 39.32871246337891 3 33.82865524291992 4.110054016113281 28.65262985229492 6.299339294433594 C 23.65165710449219 8.414573669433594 19.15968322753906 11.44334411621094 15.301513671875 15.301513671875 C 11.44334411621094 19.15968322753906 8.414573669433594 23.65165710449219 6.299339294433594 28.65262985229492 C 4.110054016113281 33.82865524291992 3 39.32871246337891 3 45 C 3 50.67128753662109 4.110054016113281 56.17134475708008 6.299339294433594 61.34737396240234 C 8.414573669433594 66.34834289550781 11.44334411621094 70.84031677246094 15.301513671875 74.698486328125 C 19.15968322753906 78.55665588378906 23.65165710449219 81.58542633056641 28.65262985229492 83.70066070556641 C 33.82865524291992 85.88994598388672 39.32871246337891 87 45 87 C 50.67128753662109 87 56.17134475708008 85.88994598388672 61.34737396240234 83.70066070556641 C 66.34834289550781 81.58542633056641 70.84031677246094 78.55665588378906 74.698486328125 74.698486328125 C 78.55665588378906 70.84031677246094 81.58542633056641 66.34834289550781 83.70066070556641 61.34737396240234 C 85.88994598388672 56.17134475708008 87 50.67128753662109 87 45 C 87 39.32871246337891 85.88994598388672 33.82865524291992 83.70066070556641 28.65262985229492 C 81.58542633056641 23.65165710449219 78.55665588378906 19.15968322753906 74.698486328125 15.301513671875 C 70.84031677246094 11.44334411621094 66.34834289550781 8.414573669433594 61.34737396240234 6.299339294433594 C 56.17134475708008 4.110054016113281 50.67128753662109 3 45 3 M 45 0 C 69.85281372070312 0 90 20.14718627929688 90 45 C 90 69.85281372070312 69.85281372070312 90 45 90 C 20.14718627929688 90 0 69.85281372070312 0 45 C 0 20.14718627929688 20.14718627929688 0 45 0 Z" stroke="none" fill="#204a7b"/>
      </g>
    </g>
    <g id="implement_1702535" transform="translate(223.806 4874.667)">
      <path id="Trazado_982685" data-name="Trazado 982685" d="M67.622,117.642H11.757a4.241,4.241,0,0,1,0-8.483H16V77.652H67.622Zm0,0" transform="translate(-6.606 -68.261)" fill="#80deea"/>
      <path id="Trazado_982686" data-name="Trazado 982686" d="M11.757,47.505H16V7.515H11.757a4.241,4.241,0,0,0-4.241,4.241v39.99A4.241,4.241,0,0,1,11.757,47.5Zm0,0" transform="translate(-6.606 -6.606)" fill="#d7dfed"/>
      <path id="Trazado_982687" data-name="Trazado 982687" d="M120.734,21.543h41.2V56.686h-41.2Zm0,0" transform="translate(-106.132 -18.937)" fill="#ffde7a"/>
      <path id="Trazado_982688" data-name="Trazado 982688" d="M120.734,21.543h41.2v3.635h-41.2Zm0,0" transform="translate(-106.132 -18.937)" fill="#90a4ae"/>
      <path id="Trazado_982689" data-name="Trazado 982689" d="M120.734,51.6h41.2v3.635h-41.2Zm0,0" transform="translate(-106.132 -45.361)" fill="#ffca28"/>
      <path id="Trazado_982690" data-name="Trazado 982690" d="M120.734,21.543h3.635v3.635h-3.635Zm0,0" transform="translate(-106.132 -18.937)" fill="#78909c"/>
      <path id="Trazado_982691" data-name="Trazado 982691" d="M234.1,115.8a9.089,9.089,0,1,1-9.088-9.089A9.089,9.089,0,0,1,234.1,115.8Zm0,0" transform="translate(-189.807 -93.801)" fill="#80d183"/>
      <path id="Trazado_982692" data-name="Trazado 982692" d="M61.924,18.6V8.483H56.713V1.7H48.534V3.515H54.9V5.332H19.147V3.515H46.716V1.7H13.694V8.483H10.3V0H5.15A5.156,5.156,0,0,0,0,5.15v39.99a5.156,5.156,0,0,0,5.15,5.15H61.924V20.418H60.106V48.473H5.15a3.332,3.332,0,1,1,0-6.665H10.3V34.234H8.483V39.99H5.15a5.111,5.111,0,0,0-3.332,1.223V5.15A3.336,3.336,0,0,1,5.15,1.818H8.483v30.6H10.3V10.3h3.393V29.871h1.817V7.15H54.9V36.839H15.511v-5.15H13.694v6.968H56.713V10.3h3.393v8.3ZM17.329,5.332H15.511V3.515h1.818Zm0,0" transform="translate(0)"/>
      <path id="Trazado_982693" data-name="Trazado 982693" d="M208.406,109.192a10.024,10.024,0,0,0,2.2,6.255l1.417-1.138a8.091,8.091,0,0,1-1.8-5.117,8.18,8.18,0,0,1,13.357-6.333l1.151-1.406a10,10,0,0,0-16.327,7.74Zm0,0" transform="translate(-183.2 -87.198)"/>
      <path id="Trazado_982694" data-name="Trazado 982694" d="M244.535,144.036a8.19,8.19,0,0,1-5.238-1.9l-1.165,1.4a10,10,0,0,0,14.142-14.008l-1.406,1.151a8.181,8.181,0,0,1-6.333,13.357Zm0,0" transform="translate(-209.331 -113.861)"/>
      <g id="Grupo_1146628" data-name="Grupo 1146628" transform="translate(15.814 9.089)">
        <path id="Trazado_982695" data-name="Trazado 982695" d="M177.779,337.474h-9.7v-1.817h9.7Zm-11.513,0h-1.818v-1.817h1.818Zm-3.635,0h-1.818v-1.817h1.818Zm0,0" transform="translate(-157.177 -304.149)" fill="#fff"/>
        <path id="Trazado_982696" data-name="Trazado 982696" d="M141.661,367.532H134.39v-1.818h7.271Zm-9.088,0h-1.818v-1.818h1.818Zm0,0" transform="translate(-130.754 -330.572)" fill="#fff"/>
        <path id="Trazado_982697" data-name="Trazado 982697" d="M405.829,79.693h-1.818V76.966h-2.727V75.149h4.544Zm0,0" transform="translate(-368.565 -75.149)" fill="#fff"/>
        <path id="Trazado_982698" data-name="Trazado 982698" d="M251.992,159.479l-3.309-3.309,1.285-1.285,2.023,2.023,5.417-5.417,1.285,1.286Zm0,0" transform="translate(-234.42 -142.259)" fill="#fff"/>
      </g>
    </g>
  </g>
</svg>
