<svg id="_10" data-name="10" xmlns="http://www.w3.org/2000/svg" xmlns:xlink="http://www.w3.org/1999/xlink" width="474.792" height="331.131" viewBox="0 0 474.792 331.131">
  <defs>
    <clipPath id="clip-path">
      <rect id="Rectángulo_406424" data-name="Rectángulo 406424" width="474.792" height="331.131" fill="none"/>
    </clipPath>
    <clipPath id="clip-path-3">
      <rect id="Rectángulo_406391" data-name="Rectángulo 406391" width="474.792" height="321.502" fill="none"/>
    </clipPath>
    <clipPath id="clip-path-4">
      <path id="Trazado_983476" data-name="Trazado 983476" d="M252.079,320.219c-42.119,4.359-126.87-2.87-167.187-14.541C45.92,294.4,21.139,271.148,8.288,244.992s-11.5-60.879,9.317-81.27c14.54-14.24,37.039-20.788,46.2-38.959,5.374-10.658,4.915-23.159,5.948-35.051,2.462-28.354,15.009-56.62,37.6-73.925s55.755-21.6,80.037-6.759c21.077,12.883,36.22,38.985,60.915,39.614,17.1.435,31.354-11.967,46.17-20.505,23.26-13.407,52.389-17.861,77.479-8.309s44.664,34.343,44.591,61.19c-.033,12.4-3.842,25.619,1.706,36.713,2.73,5.458,7.421,9.632,12.007,13.656,12.268,10.769,24.784,21.73,33.186,35.725,15.495,25.811,14.527,59.72.684,86.453s-39.3,46.418-67.556,56.79-104.948,8.134-144.5,9.864" transform="translate(0 0.001)" fill="none"/>
    </clipPath>
    <linearGradient id="linear-gradient" x1="0.014" y1="0.8" x2="0.016" y2="0.8" gradientUnits="objectBoundingBox">
      <stop offset="0" stop-color="#b9bdff"/>
      <stop offset="1" stop-color="#564dc1"/>
    </linearGradient>
    <clipPath id="clip-path-5">
      <rect id="Rectángulo_406393" data-name="Rectángulo 406393" width="336.86" height="15.835" fill="none"/>
    </clipPath>
    <clipPath id="clip-path-6">
      <path id="Trazado_983477" data-name="Trazado 983477" d="M408.519,328.466c0,4.373-75.409,7.918-168.43,7.918s-168.43-3.545-168.43-7.918,75.409-7.917,168.43-7.917,168.43,3.545,168.43,7.917" transform="translate(-71.66 -320.549)" fill="none"/>
    </clipPath>
    <linearGradient id="linear-gradient-2" x1="-0.209" y1="1" x2="-0.206" y2="1" xlink:href="#linear-gradient"/>
    <clipPath id="clip-path-7">
      <path id="Trazado_983496" data-name="Trazado 983496" d="M420.138,53.558s-5.939,4.552-7.073,5.25a154.625,154.625,0,0,1-32.8,15.177c-14.81,4.845-30.363,7.453-44.711,13.533-25.851,10.955-46.339,33.033-57.344,58.862s-11.567,60.744-6.049,88.273c11.246-14.67,28.907-22.822,46.294-29.093s35.57-11.4,50.659-22.073c18.105-12.813,30.221-32.717,37.5-53.671s10.129-43.141,12.942-65.143c.359-2.8,1.754-11.116.583-11.115h0" transform="translate(-268.742 -53.558)" fill="none"/>
    </clipPath>
    <linearGradient id="linear-gradient-3" x1="-0.931" y1="1.291" x2="-0.927" y2="1.291" xlink:href="#linear-gradient"/>
    <clipPath id="clip-path-9">
      <path id="Trazado_983501" data-name="Trazado 983501" d="M75.622,180.033c-12.883,1.8-25.143,6.6-37.829,9.474a129.072,129.072,0,0,1-30,3.188c-1.11-.014-7.316-.729-7.316-.729-.843.5,3.723,5.859,5.181,7.712,11.447,14.554,23,29.223,37.2,41.115s31.407,20.954,49.868,22.37c15.386,1.18,30.606-2.945,45.75-5.906s31.29-4.694,45.634.992c-7.849-22.084-23.22-46.852-42.175-60.638-15.883-11.55-35.409-18.358-54.977-18.359a82.111,82.111,0,0,0-11.334.779" transform="translate(-0.376 -179.254)" fill="none"/>
    </clipPath>
    <linearGradient id="linear-gradient-4" x1="-0.226" y1="1.063" x2="-0.218" y2="1.063" xlink:href="#linear-gradient"/>
    <clipPath id="clip-path-11">
      <rect id="Rectángulo_406414" data-name="Rectángulo 406414" width="151.856" height="181.095" fill="none"/>
    </clipPath>
    <clipPath id="clip-path-12">
      <path id="Trazado_983506" data-name="Trazado 983506" d="M175.661,237.069c5.518-27.529,4.955-62.444-6.049-88.273s-31.492-47.908-57.344-58.862c-14.348-6.08-29.9-8.688-44.711-13.534a154.6,154.6,0,0,1-32.8-15.177c-1.134-.7-7.073-5.25-7.073-5.25-1.172-.007.223,8.312.582,11.115,2.813,22,5.669,44.189,12.942,65.143s19.39,40.858,37.5,53.672c15.089,10.677,33.271,15.8,50.659,22.073s35.048,14.424,46.294,29.093" transform="translate(-27.228 -55.973)" fill="none"/>
    </clipPath>
    <linearGradient id="linear-gradient-5" x1="0.065" y1="1.282" x2="0.069" y2="1.282" xlink:href="#linear-gradient"/>
    <clipPath id="clip-path-13">
      <rect id="Rectángulo_406416" data-name="Rectángulo 406416" width="188.606" height="84.871" fill="none"/>
    </clipPath>
    <clipPath id="clip-path-14">
      <path id="Trazado_983511" data-name="Trazado 983511" d="M268.81,254.04c8.8-22.065,25.311-46.56,45.038-59.794s44.443-19.43,67.829-15.264c12.979,2.311,25.21,7.643,37.948,11.044a130.8,130.8,0,0,0,30.259,4.377c1.125.029,7.437-.456,7.437-.456.835.536-4,5.791-5.543,7.612-12.151,14.3-24.417,28.714-39.247,40.212s-32.609,20.018-51.36,20.745c-15.627.606-30.883-4.155-46.107-7.734s-31.508-5.953-46.253-.743" transform="translate(-268.81 -177.698)" fill="none"/>
    </clipPath>
    <linearGradient id="linear-gradient-6" x1="-1.267" y1="1.424" x2="-1.262" y2="1.424" xlink:href="#linear-gradient"/>
    <clipPath id="clip-path-15">
      <rect id="Rectángulo_406417" data-name="Rectángulo 406417" width="27.019" height="71.539" fill="none"/>
    </clipPath>
    <clipPath id="clip-path-16">
      <path id="Trazado_983623" data-name="Trazado 983623" d="M306.9,113.076l.252,9.63a3.544,3.544,0,1,0,7.084-.185l-.251-9.63Z" transform="translate(-306.896 -112.891)" fill="none"/>
    </clipPath>
    <clipPath id="clip-path-18">
      <path id="Trazado_983639" data-name="Trazado 983639" d="M320.466,112.722l.25,9.631a3.544,3.544,0,1,0,7.085-.186l-.251-9.63Z" transform="translate(-320.466 -112.537)" fill="none"/>
    </clipPath>
    <clipPath id="clip-path-20">
      <rect id="Rectángulo_406422" data-name="Rectángulo 406422" width="48.57" height="27.501" fill="none"/>
    </clipPath>
  </defs>
  <g id="Grupo_1149493" data-name="Grupo 1149493" clip-path="url(#clip-path)">
    <g id="Grupo_1149460" data-name="Grupo 1149460">
      <g id="Grupo_1149459" data-name="Grupo 1149459" clip-path="url(#clip-path)">
        <g id="Grupo_1149453" data-name="Grupo 1149453" opacity="0.22">
          <g id="Grupo_1149452" data-name="Grupo 1149452">
            <g id="Grupo_1149451" data-name="Grupo 1149451" clip-path="url(#clip-path-3)">
              <g id="Grupo_1149450" data-name="Grupo 1149450" transform="translate(0 -0.001)">
                <g id="Grupo_1149449" data-name="Grupo 1149449" clip-path="url(#clip-path-4)">
                  <rect id="Rectángulo_406390" data-name="Rectángulo 406390" width="487.724" height="572.168" transform="matrix(0.375, -0.927, 0.927, 0.375, -119.512, 278.028)" fill="url(#linear-gradient)"/>
                </g>
              </g>
            </g>
          </g>
        </g>
        <g id="Grupo_1149458" data-name="Grupo 1149458" transform="translate(70.485 315.295)" opacity="0.56">
          <g id="Grupo_1149457" data-name="Grupo 1149457">
            <g id="Grupo_1149456" data-name="Grupo 1149456" clip-path="url(#clip-path-5)">
              <g id="Grupo_1149455" data-name="Grupo 1149455" transform="translate(0 0)">
                <g id="Grupo_1149454" data-name="Grupo 1149454" clip-path="url(#clip-path-6)">
                  <rect id="Rectángulo_406392" data-name="Rectángulo 406392" width="336.859" height="15.835" fill="url(#linear-gradient-2)"/>
                </g>
              </g>
            </g>
          </g>
        </g>
        <path id="Trazado_983478" data-name="Trazado 983478" d="M189.963,113.681a57.4,57.4,0,0,1,.913-13.648,53.263,53.263,0,0,1,1.655-6.727,51.416,51.416,0,0,1,2.581-6.51,44.014,44.014,0,0,1,3.657-6.086,38.115,38.115,0,0,1,4.826-5.353l1.4-1.167c.236-.191.462-.394.707-.574l.747-.524c.5-.343.99-.713,1.508-1.033l1.577-.928a16.926,16.926,0,0,1,1.623-.845c.552-.26,1.095-.546,1.656-.782l1.706-.661.858-.322.874-.258L218,67.754c.587-.161,1.183-.261,1.776-.393s1.184-.261,1.786-.359c.6-.083,1.208-.2,1.812-.252a46.582,46.582,0,0,1,7.227-.223,78.467,78.467,0,0,1,13.952,2.022c4.529,1.016,8.936,2.3,13.3,3.579,4.357,1.3,8.658,2.661,12.956,3.893,4.29,1.256,8.574,2.417,12.871,3.306a79.271,79.271,0,0,0,12.879,1.743,47.654,47.654,0,0,0,12.635-1,38.65,38.65,0,0,0,11.662-4.7,46.737,46.737,0,0,0,5.215-3.7l1.23-1.047c.4-.357.792-.729,1.19-1.093l.3-.274.123-.112.121-.123c.169-.176.348-.362.522-.556.352-.385.7-.79,1.041-1.2a49.9,49.9,0,0,0,3.775-5.289,56.471,56.471,0,0,0,3.161-5.766,64.485,64.485,0,0,0,4.452-12.5,74.053,74.053,0,0,0,1.906-13.348,65.548,65.548,0,0,1,.382,6.819,67.8,67.8,0,0,1-.418,6.863,59.142,59.142,0,0,1-3.217,13.477,54.541,54.541,0,0,1-6.456,12.476c-.345.488-.7.971-1.074,1.452-.187.241-.38.481-.588.727l-.165.191-.176.188-.3.323c-.41.428-.812.865-1.23,1.287l-1.279,1.24a46.821,46.821,0,0,1-5.582,4.5,41.868,41.868,0,0,1-13.128,6.042,51.21,51.21,0,0,1-14.294,1.637,82.141,82.141,0,0,1-14.027-1.607c-4.574-.911-9.037-2.1-13.436-3.361-4.391-1.293-8.719-2.67-13.015-4.007-4.291-1.358-8.567-2.639-12.838-3.738-8.523-2.152-17.2-3.547-25.336-1.42A30.272,30.272,0,0,0,206.474,78.8a35.944,35.944,0,0,0-4.61,4.374,41.941,41.941,0,0,0-3.811,5.231,51.9,51.9,0,0,0-3.023,5.841,61.1,61.1,0,0,0-2.32,6.241,66.113,66.113,0,0,0-1.681,6.509,61.241,61.241,0,0,0-1.066,6.689" transform="translate(-3.112 -0.497)" fill="#f69a2b"/>
        <path id="Trazado_983479" data-name="Trazado 983479" d="M323.049,8.5a61.156,61.156,0,0,0-6.764-.355,66.332,66.332,0,0,0-6.715.284,61.1,61.1,0,0,0-6.589.966,51.828,51.828,0,0,0-6.343,1.735,41.977,41.977,0,0,0-5.911,2.634,36,36,0,0,0-5.242,3.594,30.26,30.26,0,0,0-7.591,9.865c-3.78,7.515-4.228,16.289-3.9,25.072.182,4.407.541,8.856.973,13.336.411,4.481.852,9,1.2,13.566.319,4.566.545,9.178.479,13.841a82.022,82.022,0,0,1-1.358,14.053,51.175,51.175,0,0,1-4.587,13.637,41.885,41.885,0,0,1-8.652,11.576,46.943,46.943,0,0,1-5.566,4.52l-1.48.991c-.5.32-1.01.623-1.514.933l-.38.231-.221.133-.221.122c-.283.152-.558.291-.832.423-.55.268-1.1.511-1.646.748a54.549,54.549,0,0,1-13.549,3.707,59.138,59.138,0,0,1-13.852.331,67.919,67.919,0,0,1-6.8-1.025,65.616,65.616,0,0,1-6.588-1.8,74.146,74.146,0,0,0,13.451.924,64.551,64.551,0,0,0,13.159-1.74,56.638,56.638,0,0,0,6.3-1.888,49.924,49.924,0,0,0,5.963-2.588c.473-.247.942-.5,1.392-.765.226-.131.446-.267.653-.4l.145-.092.136-.1.33-.234c.44-.313.884-.617,1.318-.935l1.28-.984a46.544,46.544,0,0,0,4.71-4.327,38.619,38.619,0,0,0,7.037-10.421,47.679,47.679,0,0,0,3.622-12.147,79.292,79.292,0,0,0,.986-12.959c.029-4.388-.212-8.82-.544-13.278-.308-4.461-.736-8.95-1.1-13.483-.341-4.535-.675-9.112-.723-13.754a78.507,78.507,0,0,1,.937-14.067,46.739,46.739,0,0,1,1.728-7.02c.181-.579.418-1.147.625-1.719.222-.568.484-1.115.725-1.672s.475-1.114.755-1.654l.868-1.608.435-.8.494-.771,1-1.53c.348-.5.741-.972,1.111-1.457a17.009,17.009,0,0,1,1.165-1.41l1.237-1.349c.421-.44.884-.84,1.324-1.259l.67-.62c.226-.2.473-.382.709-.572l1.433-1.122a38.17,38.17,0,0,1,6.242-3.6,43.954,43.954,0,0,1,6.715-2.306,51.467,51.467,0,0,1,6.906-1.164,53.29,53.29,0,0,1,6.924-.213A57.377,57.377,0,0,1,323.049,8.5" transform="translate(-3.432 -0.107)" fill="#f69a2b"/>
        <rect id="Rectángulo_406394" data-name="Rectángulo 406394" width="1.143" height="44.816" transform="matrix(0.707, -0.707, 0.707, 0.707, 308.352, 7.746)" fill="#f69a2b"/>
        <rect id="Rectángulo_406395" data-name="Rectángulo 406395" width="1.143" height="61.35" transform="translate(294.12 8.031) rotate(-44.969)" fill="#f69a2b"/>
        <rect id="Rectángulo_406396" data-name="Rectángulo 406396" width="1.142" height="65.526" transform="matrix(0.701, -0.713, 0.713, 0.701, 286.365, 13.943)" fill="#f69a2b"/>
        <rect id="Rectángulo_406397" data-name="Rectángulo 406397" width="1.142" height="70.157" transform="translate(278.012 20.413) rotate(-45.417)" fill="#f69a2b"/>
        <rect id="Rectángulo_406398" data-name="Rectángulo 406398" width="1.143" height="69.105" transform="translate(270.641 28.365) rotate(-45.529)" fill="#f69a2b"/>
        <rect id="Rectángulo_406399" data-name="Rectángulo 406399" width="1.143" height="61.35" transform="translate(268.148 39.574) rotate(-44.969)" fill="#f69a2b"/>
        <rect id="Rectángulo_406400" data-name="Rectángulo 406400" width="1.142" height="47.345" transform="translate(266.931 53.082) rotate(-46.286)" fill="#f69a2b"/>
        <rect id="Rectángulo_406401" data-name="Rectángulo 406401" width="1.143" height="49.302" transform="translate(186.85 107.867) rotate(-43.197)" fill="#f69a2b"/>
        <rect id="Rectángulo_406402" data-name="Rectángulo 406402" width="1.142" height="62.897" transform="matrix(0.723, -0.691, 0.691, 0.723, 189.621, 96.461)" fill="#f69a2b"/>
        <rect id="Rectángulo_406403" data-name="Rectángulo 406403" width="1.142" height="71.929" transform="translate(193.555 86.61) rotate(-43.749)" fill="#f69a2b"/>
        <rect id="Rectángulo_406404" data-name="Rectángulo 406404" width="1.142" height="74.206" transform="matrix(0.728, -0.686, 0.686, 0.728, 201.078, 78.333)" fill="#f69a2b"/>
        <rect id="Rectángulo_406405" data-name="Rectángulo 406405" width="1.142" height="71.141" transform="matrix(0.726, -0.688, 0.688, 0.726, 210.262, 73.249)" fill="#f69a2b"/>
        <rect id="Rectángulo_406406" data-name="Rectángulo 406406" width="1.142" height="61.349" transform="translate(221.512 70.916) rotate(-44.267)" fill="#f69a2b"/>
        <rect id="Rectángulo_406407" data-name="Rectángulo 406407" width="1.142" height="47.345" transform="translate(235.017 69.86) rotate(-42.95)" fill="#f69a2b"/>
        <path id="Trazado_983480" data-name="Trazado 983480" d="M206.726,67.791a5.172,5.172,0,1,1-7.117,1.689,5.173,5.173,0,0,1,7.117-1.689" transform="translate(-3.259 -1.098)" fill="#f69a2b"/>
        <path id="Trazado_983481" data-name="Trazado 983481" d="M166.173,101.713a5.172,5.172,0,1,1-7.117,1.689,5.173,5.173,0,0,1,7.117-1.689" transform="translate(-2.594 -1.654)" fill="#f69a2b"/>
        <path id="Trazado_983482" data-name="Trazado 983482" d="M184.991,119.492a5.172,5.172,0,1,1-7.117,1.689,5.173,5.173,0,0,1,7.117-1.689" transform="translate(-2.903 -1.946)" fill="#f69a2b"/>
        <path id="Trazado_983483" data-name="Trazado 983483" d="M70.309,44.27a5.172,5.172,0,1,1,4.2,5.987,5.172,5.172,0,0,1-4.2-5.987" transform="translate(-1.151 -0.655)" fill="#f69a2b"/>
        <path id="Trazado_983484" data-name="Trazado 983484" d="M173.958,75.467a5.173,5.173,0,1,1-7.117,1.69,5.174,5.174,0,0,1,7.117-1.69" transform="translate(-2.722 -1.224)" fill="#f69a2b"/>
        <path id="Trazado_983485" data-name="Trazado 983485" d="M155.073,53.688a5.172,5.172,0,1,1-7.117,1.689,5.173,5.173,0,0,1,7.117-1.689" transform="translate(-2.412 -0.867)" fill="#f69a2b"/>
        <path id="Trazado_983486" data-name="Trazado 983486" d="M164.665,27.642a5.172,5.172,0,1,1-7.117,1.689,5.173,5.173,0,0,1,7.117-1.689" transform="translate(-2.569 -0.44)" fill="#f69a2b"/>
        <path id="Trazado_983487" data-name="Trazado 983487" d="M119.657,91.094a5.172,5.172,0,1,1-7.117,1.689,5.173,5.173,0,0,1,7.117-1.689" transform="translate(-1.832 -1.48)" fill="#f69a2b"/>
        <path id="Trazado_983488" data-name="Trazado 983488" d="M124.29,63.538a5.172,5.172,0,1,1-7.117,1.689,5.173,5.173,0,0,1,7.117-1.689" transform="translate(-1.908 -1.029)" fill="#f69a2b"/>
        <path id="Trazado_983489" data-name="Trazado 983489" d="M137.557,108.306A5.172,5.172,0,1,1,130.439,110a5.173,5.173,0,0,1,7.117-1.689" transform="translate(-2.125 -1.762)" fill="#f69a2b"/>
        <path id="Trazado_983490" data-name="Trazado 983490" d="M98.037,41.441a5.172,5.172,0,1,1,4.2,5.987,5.172,5.172,0,0,1-4.2-5.987" transform="translate(-1.605 -0.609)" fill="#f69a2b"/>
        <path id="Trazado_983491" data-name="Trazado 983491" d="M225.03,87.945a5.172,5.172,0,1,1-7.117,1.689,5.173,5.173,0,0,1,7.117-1.689" transform="translate(-3.559 -1.429)" fill="#f69a2b"/>
        <path id="Trazado_983492" data-name="Trazado 983492" d="M214.577,114.922a5.172,5.172,0,1,1-7.117,1.689,5.173,5.173,0,0,1,7.117-1.689" transform="translate(-3.387 -1.871)" fill="#f69a2b"/>
        <path id="Trazado_983493" data-name="Trazado 983493" d="M163.151,105.822l-28.669,6.6-.188-.163L115.777,96.278l5.359-28.8L152,57.6l18.965,21.872Zm-28.4,5.534,27.625-6.364,7.5-25.283L151.684,58.735,122,68.236,116.847,95.9Z" transform="translate(-1.897 -0.944)" fill="#f69a2b"/>
        <path id="Trazado_983494" data-name="Trazado 983494" d="M211.535,119.073l-29.624,4.575L165.031,107.1l.689-.7,16.528,16.2,28.577-4.412L220.893,92.2,203.286,72.815,174.03,79.469l-.218-.959,29.817-6.781,18.4,20.26Z" transform="translate(-2.705 -1.176)" fill="#f69a2b"/>
        <path id="Trazado_983495" data-name="Trazado 983495" d="M103,41.891l18.318,26.551-.81.559L102.524,42.929,75.539,45.681l-.1-.979Z" transform="translate(-1.236 -0.687)" fill="#f69a2b"/>
        <rect id="Rectángulo_406408" data-name="Rectángulo 406408" width="24.945" height="0.984" transform="translate(150.515 54.926) rotate(-70.317)" fill="#f69a2b"/>
      </g>
    </g>
    <g id="Grupo_1149462" data-name="Grupo 1149462" transform="translate(264.338 52.68)">
      <g id="Grupo_1149461" data-name="Grupo 1149461" clip-path="url(#clip-path-7)">
        <rect id="Rectángulo_406410" data-name="Rectángulo 406410" width="237.301" height="237.523" transform="translate(-92.636 89.469) rotate(-44.659)" fill="url(#linear-gradient-3)"/>
      </g>
    </g>
    <g id="Grupo_1149464" data-name="Grupo 1149464">
      <g id="Grupo_1149463" data-name="Grupo 1149463" clip-path="url(#clip-path)">
        <path id="Trazado_983497" data-name="Trazado 983497" d="M277.711,225.936a118.549,118.549,0,0,1,15-37.686,196.5,196.5,0,0,1,25.06-32.625,315.67,315.67,0,0,1,33.2-30.817c10.838-8.715,22.355-16.526,33.395-24.975,10.66-8.16,20.945-16.995,29.2-27.651q1.477-1.906,2.86-3.878c.423-.6-.567-1.174-.986-.576-7.81,11.132-17.923,20.362-28.564,28.727-10.8,8.489-22.194,16.177-33.023,24.626a319.936,319.936,0,0,0-34,30.685,210.679,210.679,0,0,0-25.708,32.009,125.024,125.024,0,0,0-16.454,37.01q-.6,2.411-1.079,4.849c-.143.717.958,1.024,1.1.3" transform="translate(-4.533 -1.106)" fill="#fff"/>
        <path id="Trazado_983498" data-name="Trazado 983498" d="M294,187.493A82.9,82.9,0,0,1,310.9,171.8a131.945,131.945,0,0,1,20.071-11.44c3.655-1.718,7.359-3.355,11.123-4.824,4.2-1.638,8.468-3.073,12.738-4.5,8.017-2.683,16.088-5.366,23.594-9.308,6.684-3.51,12.991-8.031,17.715-13.979q.873-1.1,1.676-2.254c.419-.6-.57-1.176-.986-.576-4.351,6.27-10.455,11.069-17.061,14.782-7.286,4.095-15.192,6.864-23.089,9.514-4.271,1.433-8.552,2.839-12.772,4.414-3.866,1.444-7.663,3.066-11.418,4.777a140.624,140.624,0,0,0-20.227,11.074,86.626,86.626,0,0,0-17.214,14.979q-.953,1.1-1.861,2.233c-.456.567.346,1.38.807.807" transform="translate(-4.803 -2.043)" fill="#fff"/>
        <path id="Trazado_983499" data-name="Trazado 983499" d="M306.395,169.577a98.31,98.31,0,0,1,1.783-15.757,116.619,116.619,0,0,1,4.347-16.139,113.785,113.785,0,0,1,6.7-15.518,96.758,96.758,0,0,1,8.906-14.033,71.968,71.968,0,0,1,10.83-11.407q.724-.608,1.47-1.192a.575.575,0,0,0,0-.807.584.584,0,0,0-.808,0A70.067,70.067,0,0,0,328.435,105.9a94.68,94.68,0,0,0-9.242,13.9,114.281,114.281,0,0,0-7.062,15.6,117.391,117.391,0,0,0-4.672,16.227,102.982,102.982,0,0,0-2.13,16.054q-.047.946-.074,1.894a.571.571,0,0,0,1.141,0" transform="translate(-5.003 -1.55)" fill="#fff"/>
        <path id="Trazado_983500" data-name="Trazado 983500" d="M366.928,113.845c1.716-4.441,3.6-8.822,5.74-13.074a71.623,71.623,0,0,1,7.91-12.743,32.569,32.569,0,0,1,5.329-5.37.573.573,0,0,0,0-.807.585.585,0,0,0-.808,0,41.313,41.313,0,0,0-9.183,10.8,103.789,103.789,0,0,0-7.11,13.653q-1.576,3.581-2.98,7.234a.575.575,0,0,0,.4.7.584.584,0,0,0,.7-.4" transform="translate(-5.995 -1.339)" fill="#fff"/>
      </g>
    </g>
    <g id="Grupo_1149466" data-name="Grupo 1149466" transform="translate(0.37 176.316)">
      <g id="Grupo_1149465" data-name="Grupo 1149465" clip-path="url(#clip-path-9)">
        <rect id="Rectángulo_406412" data-name="Rectángulo 406412" width="126.532" height="199.419" transform="matrix(0.238, -0.971, 0.971, 0.238, -20.401, 80.275)" fill="url(#linear-gradient-4)"/>
      </g>
    </g>
    <g id="Grupo_1149481" data-name="Grupo 1149481">
      <g id="Grupo_1149480" data-name="Grupo 1149480" clip-path="url(#clip-path)">
        <path id="Trazado_983502" data-name="Trazado 983502" d="M176.54,254.509a98.974,98.974,0,0,0-26.9-20.564A164.021,164.021,0,0,0,117.7,221.319a263.37,263.37,0,0,0-36.992-7.842c-11.5-1.6-23.1-2.254-34.628-3.574-11.133-1.275-22.288-3.194-32.769-7.289q-1.874-.733-3.711-1.552c-.562-.251-.1-1.084.458-.835,10.366,4.625,21.568,6.9,32.777,8.332,11.373,1.452,22.834,2.073,34.211,3.483a266.937,266.937,0,0,1,37.51,7.4,175.852,175.852,0,0,1,32.137,11.907,104.358,104.358,0,0,1,27.652,19.458q1.462,1.47,2.852,3.01c.409.453-.247,1.145-.658.69" transform="translate(-0.153 -3.281)" fill="#fff"/>
        <path id="Trazado_983503" data-name="Trazado 983503" d="M148.815,233.628a69.185,69.185,0,0,0-18.839-4,110.08,110.08,0,0,0-19.281.41c-3.355.336-6.71.751-10.036,1.313-3.708.626-7.383,1.428-11.054,2.236-6.893,1.515-13.824,3.053-20.891,3.448a45.792,45.792,0,0,1-18.683-2.42q-1.1-.413-2.166-.9c-.561-.253-.1-1.086.458-.835a42.111,42.111,0,0,0,18.558,3.274c6.974-.19,13.825-1.6,20.617-3.083,3.674-.8,7.343-1.633,11.042-2.312,3.388-.624,6.8-1.09,10.227-1.473A117.387,117.387,0,0,1,128,228.553a72.338,72.338,0,0,1,18.753,3.35q1.152.378,2.29.8c.57.211.343,1.137-.232.924" transform="translate(-0.78 -3.744)" fill="#fff"/>
        <path id="Trazado_983504" data-name="Trazado 983504" d="M133.082,225.689a82.136,82.136,0,0,0-8.032-10.523,97.312,97.312,0,0,0-10.033-9.7,95.148,95.148,0,0,0-11.448-8.246,80.837,80.837,0,0,0-12.4-6.234,60.085,60.085,0,0,0-12.647-3.528q-.78-.124-1.564-.224a.478.478,0,0,1-.345-.577.486.486,0,0,1,.577-.346A58.491,58.491,0,0,1,90,189.528a79.157,79.157,0,0,1,12.576,5.991,95.393,95.393,0,0,1,11.747,8.147,98.046,98.046,0,0,1,10.3,9.621,85.939,85.939,0,0,1,8.408,10.587q.44.658.866,1.326c.33.516-.487,1.005-.817.489" transform="translate(-1.256 -3.053)" fill="#fff"/>
        <path id="Trazado_983505" data-name="Trazado 983505" d="M66.009,211.611c-3.133-2.445-6.358-4.777-9.717-6.9a59.824,59.824,0,0,0-11.129-5.736,27.182,27.182,0,0,0-6.119-1.561.479.479,0,0,1-.346-.578.488.488,0,0,1,.578-.345,34.508,34.508,0,0,1,11.209,3.8,86.649,86.649,0,0,1,10.946,6.733q2.663,1.889,5.236,3.9a.479.479,0,0,1,.016.674.487.487,0,0,1-.674.016" transform="translate(-0.634 -3.22)" fill="#fff"/>
        <g id="Grupo_1149471" data-name="Grupo 1149471" transform="translate(26.782 55.056)" opacity="0.6">
          <g id="Grupo_1149470" data-name="Grupo 1149470">
            <g id="Grupo_1149469" data-name="Grupo 1149469" clip-path="url(#clip-path-11)">
              <g id="Grupo_1149468" data-name="Grupo 1149468" transform="translate(0 0)">
                <g id="Grupo_1149467" data-name="Grupo 1149467" clip-path="url(#clip-path-12)">
                  <rect id="Rectángulo_406413" data-name="Rectángulo 406413" width="237.529" height="237.307" transform="translate(-91.257 91.622) rotate(-45.341)" fill="url(#linear-gradient-5)"/>
                </g>
              </g>
            </g>
          </g>
        </g>
        <path id="Trazado_983507" data-name="Trazado 983507" d="M170.314,228.351a118.549,118.549,0,0,0-15-37.686,196.453,196.453,0,0,0-25.061-32.625,315.568,315.568,0,0,0-33.2-30.817C86.216,118.508,74.7,110.7,63.66,102.248,53,94.088,42.715,85.253,34.462,74.6q-1.477-1.906-2.86-3.878c-.423-.6.567-1.174.986-.576C40.4,81.273,50.51,90.5,61.151,98.869c10.8,8.489,22.194,16.177,33.023,24.626a319.936,319.936,0,0,1,34,30.685,210.679,210.679,0,0,1,25.708,32.009,125.024,125.024,0,0,1,16.454,37.01q.6,2.411,1.079,4.849c.142.717-.958,1.024-1.1.3" transform="translate(-0.516 -1.145)" fill="#fff"/>
        <path id="Trazado_983508" data-name="Trazado 983508" d="M154.614,189.908a82.9,82.9,0,0,0-16.905-15.7,131.943,131.943,0,0,0-20.071-11.44c-3.655-1.718-7.359-3.355-11.123-4.824-4.2-1.638-8.468-3.073-12.738-4.5-8.017-2.683-16.088-5.366-23.594-9.308-6.684-3.51-12.991-8.031-17.715-13.979q-.873-1.1-1.676-2.254c-.419-.6.57-1.176.986-.576,4.351,6.27,10.455,11.069,17.061,14.782,7.286,4.095,15.192,6.864,23.089,9.514,4.27,1.433,8.552,2.839,12.772,4.414,3.866,1.444,7.663,3.067,11.418,4.777a140.626,140.626,0,0,1,20.227,11.074,86.625,86.625,0,0,1,17.214,14.979q.953,1.1,1.861,2.233c.456.567-.346,1.38-.807.807" transform="translate(-0.831 -2.083)" fill="#fff"/>
        <path id="Trazado_983509" data-name="Trazado 983509" d="M143.374,171.993a98.418,98.418,0,0,0-1.783-15.757,116.619,116.619,0,0,0-4.347-16.139,113.787,113.787,0,0,0-6.7-15.518,96.842,96.842,0,0,0-8.906-14.033,71.966,71.966,0,0,0-10.83-11.407q-.724-.608-1.47-1.192a.575.575,0,0,1,0-.807.584.584,0,0,1,.808,0,70.069,70.069,0,0,1,11.183,11.182,94.682,94.682,0,0,1,9.242,13.9,114.278,114.278,0,0,1,7.062,15.6,117.4,117.4,0,0,1,4.672,16.227,102.988,102.988,0,0,1,2.131,16.054q.047.946.074,1.894a.571.571,0,0,1-1.141,0" transform="translate(-1.789 -1.589)" fill="#fff"/>
        <path id="Trazado_983510" data-name="Trazado 983510" d="M83.091,116.261c-1.716-4.441-3.6-8.822-5.74-13.074a71.622,71.622,0,0,0-7.91-12.743,32.571,32.571,0,0,0-5.329-5.37.573.573,0,0,1,0-.807.585.585,0,0,1,.808,0A41.313,41.313,0,0,1,74.1,95.07a103.788,103.788,0,0,1,7.11,13.653q1.576,3.581,2.98,7.234a.575.575,0,0,1-.4.7.584.584,0,0,1-.7-.4" transform="translate(-1.048 -1.378)" fill="#fff"/>
        <g id="Grupo_1149476" data-name="Grupo 1149476" transform="translate(264.404 174.786)" opacity="0.6">
          <g id="Grupo_1149475" data-name="Grupo 1149475">
            <g id="Grupo_1149474" data-name="Grupo 1149474" clip-path="url(#clip-path-13)">
              <g id="Grupo_1149473" data-name="Grupo 1149473" transform="translate(0 0)">
                <g id="Grupo_1149472" data-name="Grupo 1149472" clip-path="url(#clip-path-14)">
                  <rect id="Rectángulo_406415" data-name="Rectángulo 406415" width="203.227" height="124.552" transform="translate(-17.382 0.684) rotate(-11.592)" fill="url(#linear-gradient-6)"/>
                </g>
              </g>
            </g>
          </g>
        </g>
        <path id="Trazado_983512" data-name="Trazado 983512" d="M276.9,250.6a100.317,100.317,0,0,1,28.032-19.8,166.285,166.285,0,0,1,32.828-11.563,267.03,267.03,0,0,1,37.764-6.524c11.708-1.175,23.479-1.4,35.206-2.293,11.324-.864,22.695-2.38,33.465-6.126q1.927-.67,3.819-1.43c.577-.232.14-1.093-.433-.864-10.676,4.288-22.108,6.164-33.514,7.183-11.574,1.035-23.2,1.225-34.781,2.216a270.548,270.548,0,0,0-38.271,6.061,178.3,178.3,0,0,0-33,10.827,105.8,105.8,0,0,0-28.751,18.646q-1.537,1.433-3,2.94c-.432.443.207,1.169.64.723" transform="translate(-4.525 -3.31)" fill="#fff"/>
        <path id="Trazado_983513" data-name="Trazado 983513" d="M306.928,230.463a70.136,70.136,0,0,1,19.233-3.327,111.646,111.646,0,0,1,19.511,1.154c3.385.469,6.766,1.019,10.113,1.714,3.731.776,7.421,1.73,11.109,2.688,6.924,1.8,13.883,3.622,21.025,4.292a46.4,46.4,0,0,0,19.013-1.734q1.127-.376,2.229-.825c.576-.235.14-1.1-.433-.864a42.683,42.683,0,0,1-18.92,2.606c-7.055-.46-13.94-2.147-20.762-3.913-3.69-.954-7.374-1.934-11.093-2.765-3.408-.761-6.849-1.363-10.3-1.884a118.879,118.879,0,0,0-19.453-1.485,73.276,73.276,0,0,0-19.12,2.674q-1.182.338-2.35.723c-.585.193-.391,1.139.2.945" transform="translate(-5.021 -3.706)" fill="#fff"/>
        <path id="Trazado_983514" data-name="Trazado 983514" d="M323.893,223.073a83.344,83.344,0,0,1,8.538-10.35,98.679,98.679,0,0,1,10.532-9.436,96.294,96.294,0,0,1,11.911-7.912,81.792,81.792,0,0,1,12.792-5.839,60.953,60.953,0,0,1,12.943-3.09q.8-.094,1.592-.166a.486.486,0,0,0,.373-.571.494.494,0,0,0-.572-.373,59.279,59.279,0,0,0-13.091,2.766,80.154,80.154,0,0,0-12.967,5.586,96.606,96.606,0,0,0-12.209,7.8,99.288,99.288,0,0,0-10.8,9.348,87.062,87.062,0,0,0-8.921,10.4q-.471.649-.928,1.308c-.354.511.455,1.038.81.527" transform="translate(-5.294 -3.037)" fill="#fff"/>
        <path id="Trazado_983515" data-name="Trazado 983515" d="M392.87,211.387c3.267-2.357,6.623-4.6,10.106-6.62a60.663,60.663,0,0,1,11.491-5.384,27.535,27.535,0,0,1,6.257-1.346.486.486,0,0,0,.372-.572.5.5,0,0,0-.571-.373,34.947,34.947,0,0,0-11.5,3.419,87.637,87.637,0,0,0-11.343,6.4q-2.771,1.81-5.453,3.753a.487.487,0,0,0-.041.682.494.494,0,0,0,.682.041" transform="translate(-6.426 -3.23)" fill="#fff"/>
        <path id="Trazado_983516" data-name="Trazado 983516" d="M238.225,135.074a1.345,1.345,0,0,0,.292.732,2.42,2.42,0,0,0,1.223.675c.514.157,1.036.291,1.561.412a18.437,18.437,0,0,1-3.076-1.819" transform="translate(-3.904 -2.214)" fill="#f46969"/>
        <path id="Trazado_983517" data-name="Trazado 983517" d="M114.159,182.861a6.989,6.989,0,0,0-2.537-13.746l-8.491,1.567,2.537,13.746Z" transform="translate(-1.69 -2.77)" fill="#1c3077"/>
        <path id="Trazado_983518" data-name="Trazado 983518" d="M102.9,170.71,94.4,172.277a6.989,6.989,0,0,0,2.537,13.746l8.491-1.567Z" transform="translate(-1.453 -2.798)" fill="#f69a2b"/>
        <path id="Trazado_983519" data-name="Trazado 983519" d="M105.446,134.6a6.989,6.989,0,1,0-11.174-8.4l-5.188,6.9,11.174,8.4Z" transform="translate(-1.46 -2.023)" fill="#1c3077"/>
        <path id="Trazado_983520" data-name="Trazado 983520" d="M88.975,133.264l-5.188,6.9a6.989,6.989,0,0,0,11.175,8.4l5.187-6.9Z" transform="translate(-1.35 -2.184)" fill="#f69a2b"/>
        <path id="Trazado_983521" data-name="Trazado 983521" d="M66.142,146.764a6.989,6.989,0,1,0-13.934,1.113l.688,8.607L66.83,155.37Z" transform="translate(-0.855 -2.3)" fill="#1c3077"/>
        <path id="Trazado_983522" data-name="Trazado 983522" d="M52.908,156.733l.688,8.607a6.989,6.989,0,1,0,13.934-1.114l-.688-8.606Z" transform="translate(-0.867 -2.55)" fill="#f69a2b"/>
        <path id="Trazado_983523" data-name="Trazado 983523" d="M346.959,200.2v-42.33h-33.62v42.35a11.111,11.111,0,0,1-6.955,10.316,60.66,60.66,0,1,0,48.071,1.227,12.777,12.777,0,0,1-7.5-11.563" transform="translate(-4.398 -2.587)" fill="#e1ebf9"/>
        <path id="Trazado_983524" data-name="Trazado 983524" d="M270.433,252.465a60.667,60.667,0,1,0,116.493-2.145q-58.232,1.775-116.493,2.145" transform="translate(-4.398 -4.103)" fill="#f69a2b"/>
        <path id="Trazado_983525" data-name="Trazado 983525" d="M297.324,258.771a112.985,112.985,0,0,0,27.849-.6c9.9-1.265,19.656-3.447,29.541-4.79,8.413-1.143,16.914-1.429,25.287-2.805l.03-.066q-54.624,1.588-109.276,1.952a142.894,142.894,0,0,0,26.569,6.306" transform="translate(-4.437 -4.106)" fill="#ea871b"/>
        <path id="Trazado_983526" data-name="Trazado 983526" d="M389.15,259.353c-3.57,11.021-11.337,21.538-19.044,29.941-8.308,9.057-18.6,15.458-29.963,20-12.562,5.018-25.786,3.859-38.891,2a56.452,56.452,0,0,1-20.986-7.09,60.587,60.587,0,0,0,108.884-44.85" transform="translate(-4.593 -4.251)" fill="#ea871b"/>
        <path id="Trazado_983527" data-name="Trazado 983527" d="M328.994,327.952c-.5,0-.992-.006-1.491-.018a61.123,61.123,0,0,1-21.3-117.826,10.612,10.612,0,0,0,6.674-9.9v-42.8H347.4v42.779a12.389,12.389,0,0,0,7.234,11.155A61.348,61.348,0,0,1,390.1,266.833a61.122,61.122,0,0,1-61.107,61.12M313.781,158.309v41.9a11.5,11.5,0,0,1-7.237,10.733,60.212,60.212,0,1,0,47.714,1.218,13.291,13.291,0,0,1-7.756-11.972v-41.88Z" transform="translate(-4.39 -2.58)" fill="#1d3078"/>
        <path id="Trazado_983528" data-name="Trazado 983528" d="M348.84,165.6H312.822a2.858,2.858,0,0,1-2.858-2.858v-2.012a2.857,2.857,0,0,1,2.858-2.857H348.84a2.857,2.857,0,0,1,2.858,2.857v2.012a2.858,2.858,0,0,1-2.858,2.858" transform="translate(-5.08 -2.587)" fill="#1d3078"/>
        <g id="Grupo_1149479" data-name="Grupo 1149479" transform="translate(342.632 216.708)" opacity="0.56">
          <g id="Grupo_1149478" data-name="Grupo 1149478">
            <g id="Grupo_1149477" data-name="Grupo 1149477" clip-path="url(#clip-path-15)">
              <path id="Trazado_983529" data-name="Trazado 983529" d="M348.341,220.319s27.4,32.5,16.005,71.539c0,0,33.344-49.35-16.005-71.539" transform="translate(-348.341 -220.319)" fill="#fff"/>
            </g>
          </g>
        </g>
        <path id="Trazado_983530" data-name="Trazado 983530" d="M291.5,279.175a4.123,4.123,0,1,1-4.122-4.122,4.122,4.122,0,0,1,4.122,4.122" transform="translate(-4.642 -4.508)" fill="#ea871b"/>
        <path id="Trazado_983531" data-name="Trazado 983531" d="M335.836,300.214a4.123,4.123,0,1,1-4.122-4.122,4.122,4.122,0,0,1,4.122,4.122" transform="translate(-5.369 -4.853)" fill="#ea871b"/>
        <path id="Trazado_983532" data-name="Trazado 983532" d="M350.5,267.012a4.123,4.123,0,1,1-4.122-4.122,4.122,4.122,0,0,1,4.122,4.122" transform="translate(-5.609 -4.309)" fill="#ea871b"/>
        <path id="Trazado_983533" data-name="Trazado 983533" d="M357.128,286.919a2.334,2.334,0,1,1-2.334-2.334,2.334,2.334,0,0,1,2.334,2.334" transform="translate(-5.777 -4.664)" fill="#ea871b"/>
        <path id="Trazado_983534" data-name="Trazado 983534" d="M293.93,298.425a2.334,2.334,0,1,1-2.335-2.334,2.335,2.335,0,0,1,2.335,2.334" transform="translate(-4.741 -4.853)" fill="#ea871b"/>
        <path id="Trazado_983535" data-name="Trazado 983535" d="M321.512,273.606a2.334,2.334,0,1,1-2.334-2.334,2.334,2.334,0,0,1,2.334,2.334" transform="translate(-5.193 -4.446)" fill="#ea871b"/>
        <path id="Trazado_983536" data-name="Trazado 983536" d="M238.9,115.488a18.061,18.061,0,0,1,.038,17.008c-.511.942-1.1,2.157-.422,2.989a2.427,2.427,0,0,0,1.222.674,23.18,23.18,0,0,0,10.452.72,5.061,5.061,0,0,0,2.588-.994.821.821,0,0,0,.294-.427c.067-.338-.231-.626-.486-.858a10.173,10.173,0,0,1-2.965-6.825,30.235,30.235,0,0,1,.723-7.568" transform="translate(-3.904 -1.893)" fill="#ff8181"/>
        <path id="Trazado_983537" data-name="Trazado 983537" d="M241.11,122.636c1.343,4.447,4.786,5.935,8.677,6.367-.068-.408-.125-.818-.154-1.229a30.188,30.188,0,0,1,.722-7.568l-11.444-4.718a17.577,17.577,0,0,1,2.05,6.728c.053.137.105.273.15.42" transform="translate(-3.916 -1.893)" fill="#f46969"/>
        <path id="Trazado_983538" data-name="Trazado 983538" d="M246.249,248.657a82.632,82.632,0,0,0-1.939,12.054L238.8,310.473a3.124,3.124,0,0,1-.66,1.911c-.687.7-1.818.591-2.784.436l-7.075-1.138a1.651,1.651,0,0,1-1.1-.479,1.631,1.631,0,0,1-.246-.9c-1.305-17.724-2.611-35.491-1.957-53.25.306-8.292,1.039-16.569,1.1-24.867" transform="translate(-3.684 -3.805)" fill="#1c3077"/>
        <path id="Trazado_983539" data-name="Trazado 983539" d="M228.162,311.3c-.213,1.555-.811,4.742-1.024,6.3a4.642,4.642,0,0,0,.3,3.116c.759,1.208,2.4,1.438,3.82,1.526,4.579.281,9.168.347,13.756.414l4.686.068a3.963,3.963,0,0,0,2.037-.6c.7-.76-.036-2.073-.133-2.215-1.968-2.886-5.278-2.5-8.7-3.22a13.76,13.76,0,0,1-6.364-2.7" transform="translate(-3.721 -5.102)" fill="#1c3077"/>
        <path id="Trazado_983540" data-name="Trazado 983540" d="M250.83,248.826a82.677,82.677,0,0,1,1.1,12.159l2.054,50.023a3.124,3.124,0,0,0,.525,1.953c.637.742,1.773.714,2.747.627l7.137-.646a1.235,1.235,0,0,0,1.439-1.282c2.527-17.591,5.058-35.225,5.632-52.987.269-8.294.109-16.6.619-24.883" transform="translate(-4.111 -3.832)" fill="#1c3077"/>
        <path id="Trazado_983541" data-name="Trazado 983541" d="M255.671,313.911q-.32,2.333-.641,4.666a4.654,4.654,0,0,0,.3,3.116c.759,1.209,2.4,1.438,3.82,1.526,4.58.281,9.169.347,13.756.414l4.687.068a3.975,3.975,0,0,0,2.037-.6c.7-.761-.036-2.074-.134-2.216-1.968-2.886-5.278-2.5-8.7-3.22-2.248-.472-7.17-1.808-7.213-4.4" transform="translate(-4.178 -5.134)" fill="#1c3077"/>
        <path id="Trazado_983542" data-name="Trazado 983542" d="M309.476,136.5q1.291-1.394,2.62-2.754a5.729,5.729,0,0,1,1.181-1.006c1.165-.679,2.613-.486,3.958-.392a22.64,22.64,0,0,0,9.815-1.508,2.524,2.524,0,0,1,1.526-.271,1.564,1.564,0,0,1,1.02,1.6,2.874,2.874,0,0,1-1.74,2.3,8.45,8.45,0,0,1-2.95.616l-3.7.32a17.537,17.537,0,0,0-4.483.783,5.919,5.919,0,0,0-3.422,2.843" transform="translate(-5.072 -2.139)" fill="#ff8181"/>
        <path id="Trazado_983543" data-name="Trazado 983543" d="M268.194,136.351l18.72,18.156,20.861-21,8.5,6.758s-17.016,22.1-27.609,30.3a2.844,2.844,0,0,1-3.035.306c-3.425-1.695-11.518-6.05-15.366-11.1-4.955-6.5-2.069-23.419-2.069-23.419" transform="translate(-4.382 -2.188)" fill="#f5f7fd"/>
        <path id="Trazado_983544" data-name="Trazado 983544" d="M240.694,131.182c1.759,1.037,5.5,2.612,9.261.227a1.961,1.961,0,0,1,1.753-.167l2.915,1.129-1.559,45.08L236.475,133.9l2.245-2.414a1.591,1.591,0,0,1,1.974-.3" transform="translate(-3.876 -2.146)" fill="#1131c6"/>
        <path id="Trazado_983545" data-name="Trazado 983545" d="M237.8,131.983s10.618,19.881,13.314,26.815l3.195,92.5s-15.532,2.08-38.553-2.076c0,0,9.316-60.515,8.887-75.333-.349-12.074-1.781-26.629-2.3-31.605a2.67,2.67,0,0,1,1.383-2.623Z" transform="translate(-3.536 -2.163)" fill="#f5f7fd"/>
        <path id="Trazado_983546" data-name="Trazado 983546" d="M252.646,131.575l-.964,27.859,3.217,91.854,25.135-1.731s-5.8-39.819-8.134-68.142c-1.869-22.682-2.811-38.035-3.111-43.251a2.788,2.788,0,0,0-2.014-2.517Z" transform="translate(-4.125 -2.156)" fill="#f5f7fd"/>
        <path id="Trazado_983547" data-name="Trazado 983547" d="M251.428,158.8l-13.383-10.545,3.171-4.931L235,142.507l-.2-8.72,3.309-1.8s11.319,20.445,13.314,26.815" transform="translate(-3.848 -2.163)" fill="#dfe4ef"/>
        <path id="Trazado_983548" data-name="Trazado 983548" d="M251.7,158.791l7.764-13.494-4.075-2.782,4.852-1.192-2.524-8.287-5.075-1.463s-1.253,22.205-.941,27.217" transform="translate(-4.124 -2.156)" fill="#dfe4ef"/>
        <path id="Trazado_983549" data-name="Trazado 983549" d="M241.03,206.492l-17.761-.615.925-5.729,17.035.589Z" transform="translate(-3.659 -3.28)" fill="#dfe4ef"/>
        <path id="Trazado_983550" data-name="Trazado 983550" d="M265.953,206.251l8.788-.417-.632-5.734-8.428.4Z" transform="translate(-4.354 -3.279)" fill="#dfe4ef"/>
        <path id="Trazado_983551" data-name="Trazado 983551" d="M251.742,158.866l.551,93.087,1.467-.123L252.282,157.1Z" transform="translate(-4.126 -2.575)" fill="#dfe4ef"/>
        <path id="Trazado_983552" data-name="Trazado 983552" d="M224.112,187.091l.84-7.243,26.679-8.324s-7.691,10.322-27.519,15.568" transform="translate(-3.673 -2.811)" fill="#dfe4ef"/>
        <path id="Trazado_983553" data-name="Trazado 983553" d="M227.758,160.671s.4,2.194.95,5.786,16.662-.409,16.662-.409-13.855,13.865-19.222,11.732-2.1-13.343-2.1-13.343l1.878-8.251Z" transform="translate(-3.656 -2.56)" fill="#dfe4ef"/>
        <path id="Trazado_983554" data-name="Trazado 983554" d="M265.564,182.43l-20.581,1.645a1.578,1.578,0,0,1-1.7-1.448l-2.458-30.762a1.578,1.578,0,0,1,1.447-1.7l20.582-1.645a1.577,1.577,0,0,1,1.7,1.447l2.459,30.762a1.58,1.58,0,0,1-1.448,1.7" transform="translate(-3.947 -2.434)" fill="#11215e"/>
        <path id="Trazado_983555" data-name="Trazado 983555" d="M247.385,167.207a3.265,3.265,0,0,0,2.958-.9,32.016,32.016,0,0,0,2.133-2.416,8.429,8.429,0,0,1,4.868-2.314c.519-.1,1.313-.463,1.392.059a.866.866,0,0,1-.121.512c-.734,1.433-3.248,1.406-3.152,3.013,3.523-1.212,7.488-1.6,11.012-2.814.462-.159,1.062-.283,1.368.1s.058.932-.2,1.346c-2.369,3.856-4.951,6.6-9.321,7.78-2.067.557-4.709,1.585-6.847,1.688a10.405,10.405,0,0,0-6.052,1.8" transform="translate(-4.022 -2.645)" fill="#ff8181"/>
        <path id="Trazado_983556" data-name="Trazado 983556" d="M222.736,140.677a49.053,49.053,0,0,1,4.861,21.069l-1.18,8.961,21.274-5.561,1.436,8.62s-11.962,10.348-32.4,11.664a3.1,3.1,0,0,1-3.282-3.1c.03-8.2,1.5-29.957,9.3-41.648" transform="translate(-3.498 -2.306)" fill="#f5f7fd"/>
        <path id="Trazado_983557" data-name="Trazado 983557" d="M236.731,99.349a22.739,22.739,0,0,0,4.544,22.9c1.726,1.858,4.038,3.5,6.565,3.3,3.372-.276,5.576-3.617,6.886-6.735,1.582-3.767,1.794-8.37,1.4-12.436s-1.587-7.593-5.1-9.686-8.507-1.769-11.239,1.269" transform="translate(-3.858 -1.563)" fill="#ff8181"/>
        <path id="Trazado_983558" data-name="Trazado 983558" d="M236.693,111.216c-.766-1.169-2.09-1.435-2.841-.658a3.978,3.978,0,0,0-.4,3.8,4.393,4.393,0,0,0,2.57,2.765,1.587,1.587,0,0,0,1.447-.157c.7-.528.9-1.785.939-2.967" transform="translate(-3.821 -1.805)" fill="#ff8181"/>
        <path id="Trazado_983559" data-name="Trazado 983559" d="M236.81,113.776c.229.734.1,1.428-.291,1.55s-.893-.374-1.122-1.109-.1-1.427.291-1.55.893.375,1.122,1.109" transform="translate(-3.856 -1.846)" fill="#f46969"/>
        <path id="Trazado_983560" data-name="Trazado 983560" d="M254.9,111.379c-.02.552-.367.989-.777.974s-.728-.473-.709-1.025.368-.989.778-.974.727.473.708,1.025" transform="translate(-4.153 -1.809)" fill="#0f1e57"/>
        <path id="Trazado_983561" data-name="Trazado 983561" d="M245.938,111.069c-.019.552-.367.989-.778.974s-.727-.473-.708-1.025.368-.989.778-.974.728.473.708,1.025" transform="translate(-4.006 -1.804)" fill="#0f1e57"/>
        <path id="Trazado_983562" data-name="Trazado 983562" d="M249.547,110.857a4.541,4.541,0,0,0-.082,1.555,10.069,10.069,0,0,0,1.287,3.961c.044-.149.09-.3.134-.446a3.228,3.228,0,0,1-1.968.512c-.42-.054-.44.6-.023.658a3.819,3.819,0,0,0,2.3-.591.335.335,0,0,0,.134-.446,9.322,9.322,0,0,1-1.214-3.686,5.5,5.5,0,0,1,.008-1.018c0-.052.012-.1.02-.156.015-.11-.007.025.008-.048.006-.033.013-.067.022-.1.112-.408-.515-.606-.628-.2" transform="translate(-4.074 -1.813)" fill="#f46969"/>
        <path id="Trazado_983563" data-name="Trazado 983563" d="M247.157,107.553a6.16,6.16,0,0,0-2.936-.533c-1.623.127-2.978,1.075-2.631,1.2s1.994-.678,3.583-.274,1.9.348,2.139.263.232-.5-.155-.658" transform="translate(-3.959 -1.754)" fill="#0f1e57"/>
        <path id="Trazado_983564" data-name="Trazado 983564" d="M251.758,107.711a4.4,4.4,0,0,1,2.478-.345c1.343.228,2.411,1.261,2.114,1.366s-1.616-.8-2.966-.5-1.6.227-1.8.126-.161-.51.171-.646" transform="translate(-4.121 -1.759)" fill="#0f1e57"/>
        <path id="Trazado_983565" data-name="Trazado 983565" d="M245.488,115.063a2.231,2.231,0,1,1-2.111-1.793,1.985,1.985,0,0,1,2.111,1.793" transform="translate(-3.952 -1.856)" fill="#f46969"/>
        <path id="Trazado_983566" data-name="Trazado 983566" d="M256.1,115.163a1.719,1.719,0,1,1-1.659-1.777,1.72,1.72,0,0,1,1.659,1.777" transform="translate(-4.141 -1.858)" fill="#f46969"/>
        <path id="Trazado_983567" data-name="Trazado 983567" d="M251.006,119.365a9.132,9.132,0,0,0-4.307-.149s2.072,2.427,4.307.149" transform="translate(-4.043 -1.951)" fill="#f46969"/>
        <path id="Trazado_983568" data-name="Trazado 983568" d="M261.915,98.549a5.864,5.864,0,0,0-3.417-4.088c-2.642-1-5.669.5-8.277-.607-1.584-.671-2.807-2.228-4.42-2.8-2.037-.721-4.256.284-6.039,1.668a12.735,12.735,0,0,0-2.244,2.237,3.18,3.18,0,0,1-2.179,1.257c-3.166.323-3.744,5.086-3.563,7.519a13.626,13.626,0,0,0,2.427,6.887c.813,1.137,2.1,2.232,3.269,1.609.932-.5,1.036-1.88,1.287-3.035a25.346,25.346,0,0,1,.9-3.613c.862-2.252,2.726-1.115,4.787-.587a57.39,57.39,0,0,0,8.156,1.725c3.75.423,6.51.079,8.337-2.552a7.113,7.113,0,0,0,.98-5.621" transform="translate(-3.798 -1.488)" fill="#0f1e57"/>
        <path id="Trazado_983569" data-name="Trazado 983569" d="M310.788,126.733h0a4.109,4.109,0,0,1-4.215-4L305.9,97.1l8.216-.214.669,25.63a4.11,4.11,0,0,1-4,4.215" transform="translate(-5.014 -1.588)" fill="#fff"/>
        <path id="Trazado_983570" data-name="Trazado 983570" d="M310.79,126.95a4.336,4.336,0,0,1-4.442-4.217l-.674-25.851,8.659-.225.674,25.85a4.335,4.335,0,0,1-4.217,4.443m-4.661-29.636.662,25.408a3.888,3.888,0,0,0,7.773-.2L313.9,97.111Z" transform="translate(-5.01 -1.584)" fill="#1133a2"/>
        <path id="Trazado_983571" data-name="Trazado 983571" d="M313.958,97.949l-7.77.2a.983.983,0,0,1-.051-1.965l7.77-.2a.982.982,0,1,1,.051,1.964" transform="translate(-5.002 -1.573)" fill="#1133a2"/>
      </g>
    </g>
    <g id="Grupo_1149483" data-name="Grupo 1149483" transform="translate(301.866 111.041)">
      <g id="Grupo_1149482" data-name="Grupo 1149482" clip-path="url(#clip-path-16)">
        <path id="Trazado_983572" data-name="Trazado 983572" d="M313.987,113.135l-7.088.054,0-.113,7.084-.185Z" transform="translate(-306.896 -112.891)" fill="#aeb1f8"/>
        <path id="Trazado_983573" data-name="Trazado 983573" d="M313.994,113.407l-7.088.054-.007-.268,7.088-.054Z" transform="translate(-306.896 -112.895)" fill="#adb0f8"/>
        <path id="Trazado_983574" data-name="Trazado 983574" d="M314,113.679l-7.088.054-.007-.268,7.088-.054Z" transform="translate(-306.896 -112.9)" fill="#adaff7"/>
        <path id="Trazado_983575" data-name="Trazado 983575" d="M314.008,113.952l-7.088.054-.007-.268,7.088-.054Z" transform="translate(-306.896 -112.904)" fill="#acaef7"/>
        <path id="Trazado_983576" data-name="Trazado 983576" d="M314.016,114.224l-7.088.054-.007-.268,7.088-.054Z" transform="translate(-306.896 -112.908)" fill="#abadf6"/>
        <path id="Trazado_983577" data-name="Trazado 983577" d="M314.023,114.5l-7.088.054-.007-.268,7.088-.054Z" transform="translate(-306.897 -112.913)" fill="#aaacf6"/>
        <path id="Trazado_983578" data-name="Trazado 983578" d="M314.03,114.769l-7.088.054-.007-.268,7.088-.054Z" transform="translate(-306.897 -112.917)" fill="#a9abf5"/>
        <path id="Trazado_983579" data-name="Trazado 983579" d="M314.037,115.041l-7.088.054-.007-.268,7.088-.054Z" transform="translate(-306.897 -112.922)" fill="#a8aaf4"/>
        <path id="Trazado_983580" data-name="Trazado 983580" d="M314.044,115.314l-7.088.054-.007-.268,7.088-.054Z" transform="translate(-306.897 -112.926)" fill="#a7a9f4"/>
        <path id="Trazado_983581" data-name="Trazado 983581" d="M314.051,115.586l-7.088.054-.007-.268,7.088-.054Z" transform="translate(-306.897 -112.931)" fill="#a6a8f3"/>
        <path id="Trazado_983582" data-name="Trazado 983582" d="M314.058,115.859l-7.088.054-.007-.268,7.088-.054Z" transform="translate(-306.897 -112.935)" fill="#a5a7f3"/>
        <path id="Trazado_983583" data-name="Trazado 983583" d="M314.065,116.131l-7.088.054-.007-.268,7.088-.054Z" transform="translate(-306.897 -112.94)" fill="#a4a6f2"/>
        <path id="Trazado_983584" data-name="Trazado 983584" d="M314.072,116.4l-7.088.054-.007-.268,7.088-.054Z" transform="translate(-306.897 -112.944)" fill="#a4a5f2"/>
        <path id="Trazado_983585" data-name="Trazado 983585" d="M314.079,116.676l-7.088.054-.007-.268,7.088-.054Z" transform="translate(-306.897 -112.949)" fill="#a3a4f1"/>
        <path id="Trazado_983586" data-name="Trazado 983586" d="M314.087,116.948,307,117l-.007-.268,7.088-.054Z" transform="translate(-306.898 -112.953)" fill="#a2a3f0"/>
        <path id="Trazado_983587" data-name="Trazado 983587" d="M314.094,117.221l-7.088.054-.007-.268,7.088-.054Z" transform="translate(-306.898 -112.958)" fill="#a1a2f0"/>
        <path id="Trazado_983588" data-name="Trazado 983588" d="M314.1,117.493l-7.088.054-.007-.268,7.088-.054Z" transform="translate(-306.898 -112.962)" fill="#a0a1ef"/>
        <path id="Trazado_983589" data-name="Trazado 983589" d="M314.108,117.765l-7.088.054-.007-.268,7.088-.054Z" transform="translate(-306.898 -112.966)" fill="#9fa0ef"/>
        <path id="Trazado_983590" data-name="Trazado 983590" d="M314.115,118.038l-7.088.054-.007-.268,7.088-.054Z" transform="translate(-306.898 -112.971)" fill="#9e9fee"/>
        <path id="Trazado_983591" data-name="Trazado 983591" d="M314.122,118.31l-7.088.054-.007-.268,7.088-.054Z" transform="translate(-306.898 -112.975)" fill="#9d9eee"/>
        <path id="Trazado_983592" data-name="Trazado 983592" d="M314.129,118.583l-7.088.054-.007-.268,7.088-.054Z" transform="translate(-306.898 -112.98)" fill="#9c9ded"/>
        <path id="Trazado_983593" data-name="Trazado 983593" d="M314.136,118.855l-7.088.054-.007-.268,7.088-.054Z" transform="translate(-306.898 -112.984)" fill="#9c9ced"/>
        <path id="Trazado_983594" data-name="Trazado 983594" d="M314.143,119.127l-7.088.054-.007-.268,7.088-.054Z" transform="translate(-306.898 -112.989)" fill="#9b9bec"/>
        <path id="Trazado_983595" data-name="Trazado 983595" d="M314.151,119.4l-7.088.054-.007-.268,7.088-.054Z" transform="translate(-306.899 -112.993)" fill="#9a9aeb"/>
        <path id="Trazado_983596" data-name="Trazado 983596" d="M314.158,119.672l-7.088.054-.007-.268,7.088-.054Z" transform="translate(-306.899 -112.998)" fill="#9999eb"/>
        <path id="Trazado_983597" data-name="Trazado 983597" d="M314.165,119.945l-7.088.054-.007-.268,7.088-.054Z" transform="translate(-306.899 -113.002)" fill="#9898ea"/>
        <path id="Trazado_983598" data-name="Trazado 983598" d="M314.172,120.217l-7.088.054-.007-.268,7.088-.054Z" transform="translate(-306.899 -113.007)" fill="#9797ea"/>
        <path id="Trazado_983599" data-name="Trazado 983599" d="M314.179,120.489l-7.088.054-.007-.268,7.088-.054Z" transform="translate(-306.899 -113.011)" fill="#9696e9"/>
        <path id="Trazado_983600" data-name="Trazado 983600" d="M314.186,120.762l-7.088.054-.007-.268,7.088-.054Z" transform="translate(-306.899 -113.016)" fill="#9595e9"/>
        <path id="Trazado_983601" data-name="Trazado 983601" d="M314.193,121.034l-7.088.054-.007-.268,7.088-.054Z" transform="translate(-306.899 -113.02)" fill="#9494e8"/>
        <path id="Trazado_983602" data-name="Trazado 983602" d="M314.2,121.307l-7.088.054-.007-.268,7.088-.054Z" transform="translate(-306.899 -113.025)" fill="#9493e8"/>
        <path id="Trazado_983603" data-name="Trazado 983603" d="M314.207,121.579l-7.088.054-.007-.268,7.088-.054Z" transform="translate(-306.9 -113.029)" fill="#9392e7"/>
        <path id="Trazado_983604" data-name="Trazado 983604" d="M314.214,121.851l-7.088.054-.007-.268,7.088-.054Z" transform="translate(-306.9 -113.033)" fill="#9291e6"/>
        <path id="Trazado_983605" data-name="Trazado 983605" d="M314.222,122.124l-7.088.054-.007-.268,7.088-.054Z" transform="translate(-306.9 -113.038)" fill="#9190e6"/>
        <path id="Trazado_983606" data-name="Trazado 983606" d="M314.229,122.4l-7.088.054-.007-.268,7.088-.054Z" transform="translate(-306.9 -113.042)" fill="#908fe5"/>
        <path id="Trazado_983607" data-name="Trazado 983607" d="M314.236,122.669l-7.088.054-.007-.268,7.088-.054Z" transform="translate(-306.9 -113.047)" fill="#8f8ee5"/>
        <path id="Trazado_983608" data-name="Trazado 983608" d="M314.243,122.941l-7.088.054-.007-.268,7.088-.054Z" transform="translate(-306.9 -113.051)" fill="#8e8de4"/>
        <path id="Trazado_983609" data-name="Trazado 983609" d="M314.25,123.213l-7.088.054-.007-.268,7.088-.054Z" transform="translate(-306.9 -113.056)" fill="#8d8ce4"/>
        <path id="Trazado_983610" data-name="Trazado 983610" d="M314.257,123.486l-7.088.054-.007-.268,7.088-.054Z" transform="translate(-306.9 -113.06)" fill="#8c8be3"/>
        <path id="Trazado_983611" data-name="Trazado 983611" d="M314.264,123.758l-7.088.054-.007-.268,7.088-.054Z" transform="translate(-306.9 -113.065)" fill="#8c8ae3"/>
        <path id="Trazado_983612" data-name="Trazado 983612" d="M314.271,124.03l-7.088.054-.007-.268,7.088-.054Z" transform="translate(-306.901 -113.069)" fill="#8b89e2"/>
        <path id="Trazado_983613" data-name="Trazado 983613" d="M314.278,124.3l-7.088.054-.007-.268,7.088-.054Z" transform="translate(-306.901 -113.074)" fill="#8a88e1"/>
        <path id="Trazado_983614" data-name="Trazado 983614" d="M314.285,124.575l-7.088.054-.007-.268,7.088-.054Z" transform="translate(-306.901 -113.078)" fill="#8987e1"/>
        <path id="Trazado_983615" data-name="Trazado 983615" d="M314.293,124.848l-7.088.054-.007-.268,7.088-.054Z" transform="translate(-306.901 -113.083)" fill="#8886e0"/>
        <path id="Trazado_983616" data-name="Trazado 983616" d="M314.3,125.12l-7.088.054-.007-.268,7.088-.054Z" transform="translate(-306.901 -113.087)" fill="#8784e0"/>
        <path id="Trazado_983617" data-name="Trazado 983617" d="M314.307,125.392l-7.088.054-.007-.268,7.088-.054Z" transform="translate(-306.901 -113.092)" fill="#8683df"/>
        <path id="Trazado_983618" data-name="Trazado 983618" d="M314.314,125.665l-7.088.054-.007-.268,7.088-.054Z" transform="translate(-306.901 -113.096)" fill="#8582df"/>
        <path id="Trazado_983619" data-name="Trazado 983619" d="M314.321,125.937l-7.088.054-.007-.268,7.088-.054Z" transform="translate(-306.901 -113.1)" fill="#8481de"/>
        <path id="Trazado_983620" data-name="Trazado 983620" d="M314.328,126.21l-7.088.054-.007-.268,7.088-.054Z" transform="translate(-306.902 -113.105)" fill="#8380dd"/>
        <path id="Trazado_983621" data-name="Trazado 983621" d="M307.432,126.535h-.185l-.007-.268,7.088-.054,0,.141Z" transform="translate(-306.902 -113.109)" fill="#837fdd"/>
        <path id="Trazado_983622" data-name="Trazado 983622" d="M307.247,126.542h.185l-.185,0Z" transform="translate(-306.902 -113.115)" fill="#827edc"/>
      </g>
    </g>
    <g id="Grupo_1149485" data-name="Grupo 1149485">
      <g id="Grupo_1149484" data-name="Grupo 1149484" clip-path="url(#clip-path)">
        <path id="Trazado_983624" data-name="Trazado 983624" d="M324.357,126.379h0a4.109,4.109,0,0,1-4.215-4l-.669-25.63,8.216-.214.668,25.63a4.109,4.109,0,0,1-4,4.215" transform="translate(-5.236 -1.582)" fill="#fff"/>
        <path id="Trazado_983625" data-name="Trazado 983625" d="M324.36,126.6a4.337,4.337,0,0,1-4.443-4.217l-.674-25.851L327.9,96.3l.674,25.85a4.334,4.334,0,0,1-4.216,4.443M319.7,96.961l.663,25.408a3.888,3.888,0,0,0,7.773-.2l-.663-25.408Z" transform="translate(-5.232 -1.578)" fill="#1133a2"/>
        <path id="Trazado_983626" data-name="Trazado 983626" d="M327.527,97.6l-7.77.2a.983.983,0,0,1-.051-1.965l7.77-.2a.982.982,0,1,1,.051,1.964" transform="translate(-5.224 -1.567)" fill="#1133a2"/>
      </g>
    </g>
    <g id="Grupo_1149487" data-name="Grupo 1149487" transform="translate(315.214 110.693)">
      <g id="Grupo_1149486" data-name="Grupo 1149486" clip-path="url(#clip-path-18)">
        <path id="Trazado_983627" data-name="Trazado 983627" d="M327.7,113.923l-.306-1.379.27-.007Z" transform="translate(-320.58 -112.537)" fill="#b0b3f9"/>
        <path id="Trazado_983628" data-name="Trazado 983628" d="M327.8,118.327l-1.279-5.76.858-.022.306,1.378Z" transform="translate(-320.565 -112.537)" fill="#afb2f9"/>
        <path id="Trazado_983629" data-name="Trazado 983629" d="M327.9,122.73l-2.251-10.141.858-.022,1.279,5.759Z" transform="translate(-320.551 -112.538)" fill="#aeb1f8"/>
        <path id="Trazado_983630" data-name="Trazado 983630" d="M327.7,125.791l-2.926-13.178.858-.023,2.251,10.141.081,3.053Z" transform="translate(-320.537 -112.538)" fill="#adb0f8"/>
        <path id="Trazado_983631" data-name="Trazado 983631" d="M326.831,125.813,323.9,112.635l.858-.023,2.926,13.178Z" transform="translate(-320.522 -112.538)" fill="#adaff7"/>
        <path id="Trazado_983632" data-name="Trazado 983632" d="M325.959,125.836l-2.926-13.178.859-.023,2.925,13.178Z" transform="translate(-320.508 -112.539)" fill="#acaef7"/>
        <path id="Trazado_983633" data-name="Trazado 983633" d="M325.086,125.859,322.16,112.68l.858-.023,2.926,13.178Z" transform="translate(-320.494 -112.539)" fill="#abadf6"/>
        <path id="Trazado_983634" data-name="Trazado 983634" d="M324.214,125.882,321.288,112.7l.858-.023,2.926,13.178Z" transform="translate(-320.479 -112.539)" fill="#aaacf6"/>
        <path id="Trazado_983635" data-name="Trazado 983635" d="M323.343,125.9l-2.871-12.93-.006-.25.809-.022,2.926,13.178Z" transform="translate(-320.466 -112.54)" fill="#a9abf5"/>
        <path id="Trazado_983636" data-name="Trazado 983636" d="M322.485,125.931l-1.9-8.549-.114-4.4,2.87,12.93Z" transform="translate(-320.466 -112.544)" fill="#a8aaf4"/>
        <path id="Trazado_983637" data-name="Trazado 983637" d="M321.629,126.027l-.926-4.168-.114-4.4,1.9,8.549Z" transform="translate(-320.468 -112.618)" fill="#a7a9f4"/>
        <path id="Trazado_983638" data-name="Trazado 983638" d="M320.706,121.933l.926,4.168-.816.022Z" transform="translate(-320.47 -112.691)" fill="#a6a8f3"/>
      </g>
    </g>
    <g id="Grupo_1149492" data-name="Grupo 1149492">
      <g id="Grupo_1149491" data-name="Grupo 1149491" clip-path="url(#clip-path)">
        <path id="Trazado_983640" data-name="Trazado 983640" d="M338.195,126.018h0a4.109,4.109,0,0,1-4.215-4l-.669-25.63,8.216-.214.668,25.63a4.109,4.109,0,0,1-4,4.215" transform="translate(-5.463 -1.576)" fill="#fff"/>
        <path id="Trazado_983641" data-name="Trazado 983641" d="M338.2,126.236a4.337,4.337,0,0,1-4.443-4.217l-.674-25.851,8.659-.225.674,25.85a4.334,4.334,0,0,1-4.216,4.443M333.534,96.6l.662,25.408a3.888,3.888,0,0,0,7.773-.2L341.307,96.4Z" transform="translate(-5.459 -1.572)" fill="#1133a2"/>
        <path id="Trazado_983642" data-name="Trazado 983642" d="M341.365,97.235l-7.77.2a.983.983,0,0,1-.051-1.965l7.77-.2a.982.982,0,1,1,.051,1.964" transform="translate(-5.451 -1.561)" fill="#1133a2"/>
        <path id="Trazado_983643" data-name="Trazado 983643" d="M334.3,112.361l.251,9.63a3.544,3.544,0,1,0,7.085-.185l-.251-9.63Z" transform="translate(-5.479 -1.838)" fill="#f69a2b"/>
        <path id="Trazado_983644" data-name="Trazado 983644" d="M348.067,131.649,296.329,133a1.872,1.872,0,1,1-.1-3.743l51.738-1.35a1.872,1.872,0,0,1,.1,3.743" transform="translate(-4.825 -2.096)" fill="#1133a2"/>
        <path id="Trazado_983645" data-name="Trazado 983645" d="M347.949,101.8l-53.057,1.383a1.212,1.212,0,1,1-.064-2.423l53.058-1.384a1.212,1.212,0,1,1,.063,2.424" transform="translate(-4.813 -1.629)" fill="#1133a2"/>
        <rect id="Rectángulo_406420" data-name="Rectángulo 406420" width="1.631" height="28.052" transform="translate(293.591 99.041) rotate(-1.486)" fill="#1133a2"/>
        <rect id="Rectángulo_406421" data-name="Rectángulo 406421" width="1.631" height="28.052" transform="translate(338.269 97.876) rotate(-1.486)" fill="#1133a2"/>
        <path id="Trazado_983646" data-name="Trazado 983646" d="M200.552,221.709l.5,3.587a1.761,1.761,0,0,0,1.572,1.509,10.322,10.322,0,0,0,6.343-1.159,1.768,1.768,0,0,0,.78-1.9l-.87-3.684a1.757,1.757,0,0,0-2.065-1.317l-4.872,1a1.757,1.757,0,0,0-1.387,1.963" transform="translate(-3.287 -3.584)" fill="#1d3078"/>
        <path id="Trazado_983647" data-name="Trazado 983647" d="M192.775,208.973l1.513,10.884a1.753,1.753,0,0,0,1.46,1.493c3.076.492,11,1.21,16.408-3.191a1.779,1.779,0,0,0,.614-1.786l-2.58-10.919a1.759,1.759,0,0,0-2.065-1.317l-13.962,2.873a1.757,1.757,0,0,0-1.387,1.963" transform="translate(-3.159 -3.345)" fill="#091847"/>
        <path id="Trazado_983648" data-name="Trazado 983648" d="M186.9,195.572l2.149,15.457a1.75,1.75,0,0,0,1.431,1.488c3.774.655,15.2,1.96,22.679-4.492a1.721,1.721,0,0,0,.523-1.7l-3.651-15.449a1.757,1.757,0,0,0-2.065-1.317l-19.68,4.05a1.757,1.757,0,0,0-1.387,1.963" transform="translate(-3.063 -3.106)" fill="#1d3078"/>
        <path id="Trazado_983649" data-name="Trazado 983649" d="M179.505,186.324s-31.77-2.624-29.671,42.575,42.235,30.133,42.235,30.133l-32.108,34.146s-31.738-18.586-29.145-62.8,30.256-61.13,42.976-61.007,5.713,16.95,5.713,16.95" transform="translate(-2.142 -2.776)" fill="#1d3078"/>
        <path id="Trazado_983650" data-name="Trazado 983650" d="M192.342,259.732l-28.184,29.974a33.107,33.107,0,0,0-.692-11.538c-1.78-7.656-7.766-13.341-10.986-20.354a54.684,54.684,0,0,1-5.091-26.55c.485-6.457,2.211-12.77,3.866-19.052a69.613,69.613,0,0,0-1.147,17.386c2.1,45.2,42.235,30.133,42.235,30.133" transform="translate(-2.413 -3.478)" fill="#091847"/>
        <path id="Trazado_983651" data-name="Trazado 983651" d="M174.826,137.875,201.938,133a2.1,2.1,0,0,1,2.428,1.652l10.546,52.578a2.1,2.1,0,0,1-1.633,2.469L183.1,195.905a2.1,2.1,0,0,1-2.5-1.767l-7.482-53.91a2.1,2.1,0,0,1,1.707-2.354" transform="translate(-2.837 -2.179)" fill="#1d3078"/>
        <path id="Trazado_983652" data-name="Trazado 983652" d="M214.816,186.846c-9.649-.373-19.286-.924-26.4-8.3a40.728,40.728,0,0,1-9.8-17.786c-1.89-7.045-2.225-14.593-5.085-21.364-.056-.133-.1-.265-.145-.4a2.072,2.072,0,0,0-.266,1.327l7.483,53.91a2.1,2.1,0,0,0,2.5,1.768l30.175-6.209a2.1,2.1,0,0,0,1.634-2.468Z" transform="translate(-2.837 -2.278)" fill="#091847"/>
        <path id="Trazado_983653" data-name="Trazado 983653" d="M189.624,162.012a13.694,13.694,0,1,1-13.694-13.694,13.694,13.694,0,0,1,13.694,13.694" transform="translate(-2.659 -2.431)" fill="#5067b2"/>
        <path id="Trazado_983654" data-name="Trazado 983654" d="M183.714,162.112a7.684,7.684,0,1,1-7.684-7.684,7.685,7.685,0,0,1,7.684,7.684" transform="translate(-2.759 -2.531)" fill="#1d3078"/>
        <path id="Trazado_983655" data-name="Trazado 983655" d="M177.041,136.891l-7.719-34.718,23.958-4.281,5.148,35.151Z" transform="translate(-2.775 -1.604)" fill="#091847"/>
        <path id="Trazado_983656" data-name="Trazado 983656" d="M166.7,102.113l-.751-2.767A1.081,1.081,0,0,1,166.784,98L192.8,92.935a1.082,1.082,0,0,1,1.284.957l.284,2.939A1.083,1.083,0,0,1,193.49,98l-25.545,4.894a1.081,1.081,0,0,1-1.247-.779" transform="translate(-2.719 -1.523)" fill="#5067b2"/>
        <path id="Trazado_983657" data-name="Trazado 983657" d="M171.855,124.386l-.751-2.767a1.081,1.081,0,0,1,.837-1.345l26.012-5.067a1.082,1.082,0,0,1,1.284.957l.284,2.939a1.083,1.083,0,0,1-.873,1.167L173.1,125.165a1.082,1.082,0,0,1-1.247-.779" transform="translate(-2.804 -1.888)" fill="#5067b2"/>
        <path id="Trazado_983658" data-name="Trazado 983658" d="M255.814,256.656c-1.068-9.7-19.583-17.418-42.27-17.418s-41.2,7.72-42.271,17.418h0v.042a8.011,8.011,0,0,0-.049.843,7.922,7.922,0,0,0,.049.866v5.26a7.443,7.443,0,0,0,0,1.709v.5h.077c1.591,9.481,19.868,16.96,42.2,16.96s40.6-7.479,42.2-16.96h.126v-9.22Z" transform="translate(-2.806 -3.921)" fill="#091847"/>
        <path id="Trazado_983659" data-name="Trazado 983659" d="M249.769,256.686c0,8.628-16.173,15.622-36.122,15.622s-36.122-6.993-36.122-15.622,16.173-15.622,36.122-15.622,36.122,6.993,36.122,15.622" transform="translate(-2.91 -3.951)" fill="#adc3ef"/>
        <path id="Trazado_983660" data-name="Trazado 983660" d="M151.808,315.27l10.281-36.379a4.534,4.534,0,0,1,4.363-3.3H179.1a4.533,4.533,0,0,1,4.362,3.3l10.281,36.379a4.533,4.533,0,0,1-4.362,5.767H156.17a4.534,4.534,0,0,1-4.362-5.767" transform="translate(-2.485 -4.517)" fill="#1d3078"/>
        <path id="Trazado_983661" data-name="Trazado 983661" d="M193.755,315.3l-10.281-36.379a4.5,4.5,0,0,0-.865-1.628,4.985,4.985,0,0,1,.015.951,63.845,63.845,0,0,0-.066,12.638c.439,3.751,1.085,7.488.788,11.278a14.483,14.483,0,0,1-6.518,11.434c-7,4.715-16.387,4.952-24.7,4.96a4.516,4.516,0,0,0,4.051,2.511h33.215a4.534,4.534,0,0,0,4.362-5.767" transform="translate(-2.493 -4.545)" fill="#091847"/>
        <path id="Trazado_983662" data-name="Trazado 983662" d="M178.777,289.305a5.742,5.742,0,1,1-5.742-5.742,5.743,5.743,0,0,1,5.742,5.742" transform="translate(-2.742 -4.647)" fill="#5067b2"/>
        <path id="Trazado_983663" data-name="Trazado 983663" d="M227.949,323.22H115.087a1.859,1.859,0,0,1-1.859-1.858v-1.717a1.859,1.859,0,0,1,1.859-1.858H227.949a1.858,1.858,0,0,1,1.858,1.858v1.717a1.858,1.858,0,0,1-1.858,1.858" transform="translate(-1.856 -5.208)" fill="#1d3078"/>
        <g id="Grupo_1149490" data-name="Grupo 1149490" transform="translate(186.965 240.101)" opacity="0.24">
          <g id="Grupo_1149489" data-name="Grupo 1149489">
            <g id="Grupo_1149488" data-name="Grupo 1149488" clip-path="url(#clip-path-20)">
              <path id="Trazado_983664" data-name="Trazado 983664" d="M238.65,245.382,202.743,271.6,190.08,268.5,235.088,244.1" transform="translate(-190.08 -244.101)" fill="#fff"/>
            </g>
          </g>
        </g>
      </g>
    </g>
  </g>
</svg>
