<svg xmlns="http://www.w3.org/2000/svg" xmlns:xlink="http://www.w3.org/1999/xlink" width="108" height="108" viewBox="0 0 108 108">
  <defs>
    <filter id="Trazado_982547" x="0" y="0" width="108" height="108" filterUnits="userSpaceOnUse">
      <feOffset dy="3" input="SourceAlpha"/>
      <feGaussianBlur stdDeviation="3" result="blur"/>
      <feFlood flood-opacity="0.161"/>
      <feComposite operator="in" in2="blur"/>
      <feComposite in="SourceGraphic"/>
    </filter>
  </defs>
  <g id="_11" data-name="11" transform="translate(-200 -4345)">
    <g id="Grupo_1148964" data-name="Grupo 1148964" transform="translate(-416 362)">
      <g transform="matrix(1, 0, 0, 1, 616, 3983)" filter="url(#Trazado_982547)">
        <g id="Trazado_982547-2" data-name="Trazado 982547" transform="translate(9 6)" fill="#eafafc">
          <path d="M 45 88.5 C 39.12687683105469 88.5 33.43022537231445 87.35007476806641 28.06830024719238 85.08217620849609 C 22.88852500915527 82.89131164550781 18.23629951477051 79.75458526611328 14.2408504486084 75.75914764404297 C 10.24541282653809 71.76370239257812 7.108687400817871 67.11147308349609 4.917825222015381 61.93170166015625 C 2.649924993515015 56.56977462768555 1.5 50.87312316894531 1.5 45 C 1.5 39.12687683105469 2.649924993515015 33.43022537231445 4.917825222015381 28.06830024719238 C 7.108687400817871 22.88852500915527 10.24541282653809 18.23629951477051 14.2408504486084 14.2408504486084 C 18.23629951477051 10.24541282653809 22.88852500915527 7.108687400817871 28.06830024719238 4.917825222015381 C 33.43022537231445 2.649924993515015 39.12687683105469 1.5 45 1.5 C 50.87312316894531 1.5 56.56977462768555 2.649924993515015 61.93170166015625 4.917825222015381 C 67.11147308349609 7.108687400817871 71.76370239257812 10.24541282653809 75.75914764404297 14.2408504486084 C 79.75458526611328 18.23629951477051 82.89131164550781 22.88852500915527 85.08217620849609 28.06830024719238 C 87.35007476806641 33.43022537231445 88.5 39.12687683105469 88.5 45 C 88.5 50.87312316894531 87.35007476806641 56.56977462768555 85.08217620849609 61.93170166015625 C 82.89131164550781 67.11147308349609 79.75458526611328 71.76370239257812 75.75914764404297 75.75914764404297 C 71.76370239257812 79.75458526611328 67.11147308349609 82.89131164550781 61.93170166015625 85.08217620849609 C 56.56977462768555 87.35007476806641 50.87312316894531 88.5 45 88.5 Z" stroke="none"/>
          <path d="M 45 3 C 39.32871246337891 3 33.82865524291992 4.110054016113281 28.65262985229492 6.299339294433594 C 23.65165710449219 8.414573669433594 19.15968322753906 11.44334411621094 15.301513671875 15.301513671875 C 11.44334411621094 19.15968322753906 8.414573669433594 23.65165710449219 6.299339294433594 28.65262985229492 C 4.110054016113281 33.82865524291992 3 39.32871246337891 3 45 C 3 50.67128753662109 4.110054016113281 56.17134475708008 6.299339294433594 61.34737396240234 C 8.414573669433594 66.34834289550781 11.44334411621094 70.84031677246094 15.301513671875 74.698486328125 C 19.15968322753906 78.55665588378906 23.65165710449219 81.58542633056641 28.65262985229492 83.70066070556641 C 33.82865524291992 85.88994598388672 39.32871246337891 87 45 87 C 50.67128753662109 87 56.17134475708008 85.88994598388672 61.34737396240234 83.70066070556641 C 66.34834289550781 81.58542633056641 70.84031677246094 78.55665588378906 74.698486328125 74.698486328125 C 78.55665588378906 70.84031677246094 81.58542633056641 66.34834289550781 83.70066070556641 61.34737396240234 C 85.88994598388672 56.17134475708008 87 50.67128753662109 87 45 C 87 39.32871246337891 85.88994598388672 33.82865524291992 83.70066070556641 28.65262985229492 C 81.58542633056641 23.65165710449219 78.55665588378906 19.15968322753906 74.698486328125 15.301513671875 C 70.84031677246094 11.44334411621094 66.34834289550781 8.414573669433594 61.34737396240234 6.299339294433594 C 56.17134475708008 4.110054016113281 50.67128753662109 3 45 3 M 45 0 C 69.85281372070312 0 90 20.14718627929688 90 45 C 90 69.85281372070312 69.85281372070312 90 45 90 C 20.14718627929688 90 0 69.85281372070312 0 45 C 0 20.14718627929688 20.14718627929688 0 45 0 Z" stroke="none" fill="#3ad1e9"/>
        </g>
      </g>
    </g>
    <g id="informe-cientifico" transform="translate(228.218 4370.217)">
      <path id="Trazado_983665" data-name="Trazado 983665" d="M152,8V19.644h3.327V11.327H170.3V26.3H156.99v3.393a5,5,0,0,0,.225,1.489l2.562,8.334,3.643,11.843a5.054,5.054,0,0,1-4.832,6.546h28.344V8Zm0,0" transform="translate(-136.198 -7.168)" fill="#e6e9ed"/>
      <path id="Trazado_983666" data-name="Trazado 983666" d="M304.317,296A8.317,8.317,0,1,1,296,304.317,8.32,8.32,0,0,1,304.317,296Zm0,0" transform="translate(-265.227 -265.227)" fill="#b4dd7f"/>
      <path id="Trazado_983667" data-name="Trazado 983667" d="M344.317,338.5v3.327h-2.5v2.5H338.5v-2.5H336V338.5h2.5V336h3.327v2.5Zm0,0" transform="translate(-301.069 -301.069)" fill="#e6e9ed"/>
      <path id="Trazado_983668" data-name="Trazado 983668" d="M186.5,51.644a.834.834,0,0,0,.832-.832V49.149a.834.834,0,0,0-.832-.832H184V40h14.97V54.97H185.663V51.644Zm0,0" transform="translate(-164.871 -35.842)" fill="#fcd770"/>
      <path id="Trazado_983669" data-name="Trazado 983669" d="M72.634,120.832V122.5a.834.834,0,0,1-.832.832H56.832A.834.834,0,0,1,56,122.5v-1.663a.834.834,0,0,1,.832-.832H71.8A.834.834,0,0,1,72.634,120.832Zm0,0" transform="translate(-50.178 -107.525)" fill="#aab2bd"/>
      <path id="Trazado_983670" data-name="Trazado 983670" d="M61.517,160.209l2.562,8.334-.291.091H58.955a4.871,4.871,0,0,0,.674-2.5v-.283a5.01,5.01,0,0,0-.715-2.57l-4.275-7.127-4.275,7.127a5.01,5.01,0,0,0-.715,2.57v.283a4.871,4.871,0,0,0,.674,2.5H45.49l-.291-.091,2.562-8.334a5,5,0,0,0,.225-1.489V152H61.292v6.72a5,5,0,0,0,.225,1.489Zm0,0" transform="translate(-40.5 -136.198)" fill="#e6e9ed"/>
      <path id="Trazado_983671" data-name="Trazado 983671" d="M8.258,322.856l3.609-11.735.291.091h4.832a4.981,4.981,0,0,0,8.633,0h4.832l.291-.091,3.643,11.843a5.054,5.054,0,0,1-4.832,6.546h-16.5A5.055,5.055,0,0,1,8,324.453a5,5,0,0,1,.225-1.489Zm0,0" transform="translate(-7.168 -278.776)" fill="#ff826e"/>
      <path id="Trazado_983672" data-name="Trazado 983672" d="M97.307,204.475a4.981,4.981,0,0,1-8.633,0,4.871,4.871,0,0,1-.674-2.5V201.7a5.01,5.01,0,0,1,.715-2.57L92.991,192l4.275,7.127a5.01,5.01,0,0,1,.715,2.57v.283a4.871,4.871,0,0,1-.674,2.5Zm0,0" transform="translate(-78.852 -172.039)" fill="#ff826e"/>
      <path id="Trazado_983673" data-name="Trazado 983673" d="M113.663,288H112a2.5,2.5,0,0,0,2.5,2.5v-1.663A.832.832,0,0,1,113.663,288Zm0,0" transform="translate(-100.356 -258.059)"/>
      <path id="Trazado_983674" data-name="Trazado 983674" d="M208,376h1.663v1.663H208Zm0,0" transform="translate(-186.376 -336.91)"/>
      <path id="Trazado_983675" data-name="Trazado 983675" d="M144,408h1.663v1.663H144Zm0,0" transform="translate(-129.03 -365.584)"/>
      <path id="Trazado_983676" data-name="Trazado 983676" d="M88,448h1.663v1.663H88Zm0,0" transform="translate(-78.851 -401.425)"/>
      <path id="Trazado_983677" data-name="Trazado 983677" d="M200,440h1.663v1.663H200Zm0,0" transform="translate(-179.208 -394.257)"/>
      <path id="Trazado_983678" data-name="Trazado 983678" d="M120,360h1.663v1.663H120Zm0,0" transform="translate(-107.525 -322.574)"/>
      <path id="Trazado_983679" data-name="Trazado 983679" d="M14.97,0V11.644H6.654A1.665,1.665,0,0,0,4.99,13.307V14.97a1.665,1.665,0,0,0,1.663,1.663v5.893a4.2,4.2,0,0,1-.188,1.243L.261,43.939a5.891,5.891,0,0,0,5.631,7.626H51.565V0ZM6.654,13.307h14.97l0,1.663H6.653Zm14.97,3.327a1.665,1.665,0,0,0,1.663-1.663V13.307a1.665,1.665,0,0,0-1.663-1.663H19.961V4.99H33.268V18.3H21.624ZM8.056,24.26a5.852,5.852,0,0,0,.261-1.733V16.634H19.961v5.893a5.869,5.869,0,0,0,.26,1.732l2.26,7.346H19.715a5.787,5.787,0,0,0,.245-1.663V29.66a5.825,5.825,0,0,0-.83-3l-4.992-8.319-4.992,8.32a5.822,5.822,0,0,0-.83,2.995v.281A5.787,5.787,0,0,0,8.562,31.6H5.8Zm6.083,9.84A4.163,4.163,0,0,1,9.98,29.941V29.66a4.156,4.156,0,0,1,.593-2.139l3.566-5.944L17.7,27.52a4.161,4.161,0,0,1,.593,2.14v.281A4.163,4.163,0,0,1,14.139,34.1ZM5.892,49.9a4.189,4.189,0,0,1-4.152-4.99H7.485V43.248H2.214l.511-1.663H9.98V39.921H3.238l.511-1.663H7.485V36.594H4.261l1.023-3.327H9.367a5.808,5.808,0,0,0,9.541,0h4.084L26.426,44.43A4.225,4.225,0,0,1,22.385,49.9Zm44.009,0H26.478a5.877,5.877,0,0,0,1.539-5.962L21.811,23.769a4.22,4.22,0,0,1-.187-1.243V19.961H34.931V3.327H18.3v8.317H16.634V1.663H49.9Zm0,0" transform="translate(0)"/>
      <path id="Trazado_983680" data-name="Trazado 983680" d="M297.149,288a9.149,9.149,0,1,0,9.149,9.149A9.159,9.159,0,0,0,297.149,288Zm0,16.634a7.485,7.485,0,1,1,7.485-7.485A7.493,7.493,0,0,1,297.149,304.634Zm0,0" transform="translate(-258.059 -258.059)"/>
      <path id="Trazado_983681" data-name="Trazado 983681" d="M335.485,328H330.5v2.5H328v4.99h2.5v2.5h4.99v-2.5h2.5V330.5h-2.5Zm.832,4.158v1.663h-2.5v2.5h-1.663v-2.5h-2.5v-1.663h2.5v-2.5h1.663v2.5Zm0,0" transform="translate(-293.901 -293.901)"/>
      <path id="Trazado_983682" data-name="Trazado 983682" d="M352,40h1.663v1.663H352Zm0,0" transform="translate(-315.406 -35.842)"/>
      <path id="Trazado_983683" data-name="Trazado 983683" d="M384,40h8.317v1.663H384Zm0,0" transform="translate(-344.079 -35.842)"/>
      <path id="Trazado_983684" data-name="Trazado 983684" d="M352,104h1.663v1.663H352Zm0,0" transform="translate(-315.406 -93.188)"/>
      <path id="Trazado_983685" data-name="Trazado 983685" d="M384,104h8.317v1.663H384Zm0,0" transform="translate(-344.079 -93.188)"/>
      <path id="Trazado_983686" data-name="Trazado 983686" d="M352,72h11.644v1.663H352Zm0,0" transform="translate(-315.406 -64.515)"/>
      <path id="Trazado_983687" data-name="Trazado 983687" d="M352,136h11.644v1.663H352Zm0,0" transform="translate(-315.406 -121.861)"/>
      <path id="Trazado_983688" data-name="Trazado 983688" d="M352,168h11.644v1.663H352Zm0,0" transform="translate(-315.406 -150.534)"/>
      <path id="Trazado_983689" data-name="Trazado 983689" d="M240,224h23.287v1.663H240Zm0,0" transform="translate(-215.049 -200.713)"/>
      <path id="Trazado_983690" data-name="Trazado 983690" d="M240,256h23.287v1.663H240Zm0,0" transform="translate(-215.049 -229.386)"/>
    </g>
  </g>
</svg>
