<svg xmlns="http://www.w3.org/2000/svg" xmlns:xlink="http://www.w3.org/1999/xlink" width="108" height="108" viewBox="0 0 108 108">
  <defs>
    <filter id="Trazado_982419" x="0" y="0" width="108" height="108" filterUnits="userSpaceOnUse">
      <feOffset dy="3" input="SourceAlpha"/>
      <feGaussianBlur stdDeviation="3" result="blur"/>
      <feFlood flood-opacity="0.161"/>
      <feComposite operator="in" in2="blur"/>
      <feComposite in="SourceGraphic"/>
    </filter>
  </defs>
  <g id="_18" data-name="18" transform="translate(-621 -6337)">
    <g id="Grupo_1148967" data-name="Grupo 1148967" transform="translate(420 6015)">
      <g transform="matrix(1, 0, 0, 1, 201, 322)" filter="url(#Trazado_982419)">
        <g id="Trazado_982419-2" data-name="Trazado 982419" transform="translate(9 6)" fill="#e6fbf1">
          <path d="M 45 88.5 C 39.12687683105469 88.5 33.43022537231445 87.35007476806641 28.06830024719238 85.08217620849609 C 22.88852500915527 82.89131164550781 18.23629951477051 79.75458526611328 14.2408504486084 75.75914764404297 C 10.24541282653809 71.76370239257812 7.108687400817871 67.11147308349609 4.917825222015381 61.93170166015625 C 2.649924993515015 56.56977462768555 1.5 50.87312316894531 1.5 45 C 1.5 39.12687683105469 2.649924993515015 33.43022537231445 4.917825222015381 28.06830024719238 C 7.108687400817871 22.88852500915527 10.24541282653809 18.23629951477051 14.2408504486084 14.2408504486084 C 18.23629951477051 10.24541282653809 22.88852500915527 7.108687400817871 28.06830024719238 4.917825222015381 C 33.43022537231445 2.649924993515015 39.12687683105469 1.5 45 1.5 C 50.87312316894531 1.5 56.56977462768555 2.649924993515015 61.93170166015625 4.917825222015381 C 67.11147308349609 7.108687400817871 71.76370239257812 10.24541282653809 75.75914764404297 14.2408504486084 C 79.75458526611328 18.23629951477051 82.89131164550781 22.88852500915527 85.08217620849609 28.06830024719238 C 87.35007476806641 33.43022537231445 88.5 39.12687683105469 88.5 45 C 88.5 50.87312316894531 87.35007476806641 56.56977462768555 85.08217620849609 61.93170166015625 C 82.89131164550781 67.11147308349609 79.75458526611328 71.76370239257812 75.75914764404297 75.75914764404297 C 71.76370239257812 79.75458526611328 67.11147308349609 82.89131164550781 61.93170166015625 85.08217620849609 C 56.56977462768555 87.35007476806641 50.87312316894531 88.5 45 88.5 Z" stroke="none"/>
          <path d="M 45 3 C 39.32871246337891 3 33.82865524291992 4.110054016113281 28.65262985229492 6.299339294433594 C 23.65165710449219 8.414573669433594 19.15968322753906 11.44334411621094 15.301513671875 15.301513671875 C 11.44334411621094 19.15968322753906 8.414573669433594 23.65165710449219 6.299339294433594 28.65262985229492 C 4.110054016113281 33.82865524291992 3 39.32871246337891 3 45 C 3 50.67128753662109 4.110054016113281 56.17134475708008 6.299339294433594 61.34737396240234 C 8.414573669433594 66.34834289550781 11.44334411621094 70.84031677246094 15.301513671875 74.698486328125 C 19.15968322753906 78.55665588378906 23.65165710449219 81.58542633056641 28.65262985229492 83.70066070556641 C 33.82865524291992 85.88994598388672 39.32871246337891 87 45 87 C 50.67128753662109 87 56.17134475708008 85.88994598388672 61.34737396240234 83.70066070556641 C 66.34834289550781 81.58542633056641 70.84031677246094 78.55665588378906 74.698486328125 74.698486328125 C 78.55665588378906 70.84031677246094 81.58542633056641 66.34834289550781 83.70066070556641 61.34737396240234 C 85.88994598388672 56.17134475708008 87 50.67128753662109 87 45 C 87 39.32871246337891 85.88994598388672 33.82865524291992 83.70066070556641 28.65262985229492 C 81.58542633056641 23.65165710449219 78.55665588378906 19.15968322753906 74.698486328125 15.301513671875 C 70.84031677246094 11.44334411621094 66.34834289550781 8.414573669433594 61.34737396240234 6.299339294433594 C 56.17134475708008 4.110054016113281 50.67128753662109 3 45 3 M 45 0 C 69.85281372070312 0 90 20.14718627929688 90 45 C 90 69.85281372070312 69.85281372070312 90 45 90 C 20.14718627929688 90 0 69.85281372070312 0 45 C 0 20.14718627929688 20.14718627929688 0 45 0 Z" stroke="none" fill="#15da7e"/>
        </g>
      </g>
    </g>
    <g id="investigacion_1_" data-name="investigacion (1)" transform="translate(648.192 6359.191)">
      <path id="Trazado_983691" data-name="Trazado 983691" d="M46.765,58v1.794a1.8,1.8,0,0,1-1.794,1.794H37.794A1.8,1.8,0,0,1,36,59.794V58Z" transform="translate(-3.604 -5.868)" fill="#fcd770"/>
      <path id="Trazado_983692" data-name="Trazado 983692" d="M41.073,46H33v7.176l2.691,3.588H46.456l2.691-3.588V46Z" transform="translate(-3.296 -4.633)" fill="#b27946"/>
      <path id="Trazado_983693" data-name="Trazado 983693" d="M40.138,42.088H32.064v-.144a18.019,18.019,0,0,1-7.948-7.93v-.009a3.578,3.578,0,0,0,3.463-3.579V26.847a11.63,11.63,0,0,0-3.669-8.5,17.925,17.925,0,1,1,24.3,23.592v.144Z" transform="translate(-2.36 -0.721)" fill="#ffeaa7"/>
      <path id="Trazado_983694" data-name="Trazado 983694" d="M14.382,48.88V57.85A2.691,2.691,0,0,1,9,57.85V47.83a18.422,18.422,0,0,0,3.57.906v.009A13.462,13.462,0,0,0,14.382,48.88Z" transform="translate(-0.825 -4.821)" fill="#f0d0b4"/>
      <path id="Trazado_983695" data-name="Trazado 983695" d="M20.382,47.83V57.85a2.691,2.691,0,0,1-5.382,0V48.88A16.663,16.663,0,0,0,20.382,47.83Z" transform="translate(-1.443 -4.821)" fill="#f0d0b4"/>
      <path id="Trazado_983696" data-name="Trazado 983696" d="M21.653,19.253a11.6,11.6,0,0,0-4.091-2.5l-4.046,4.611L9.624,16.795A11.677,11.677,0,0,0,1.99,27.73v2.7a3.587,3.587,0,0,0,3.588,3.588h.888l.018,9.868a18.3,18.3,0,0,0,1.794.745,18.422,18.422,0,0,0,3.57.906v.009a13.462,13.462,0,0,0,1.812.135,16.663,16.663,0,0,0,5.382-1.05,18.3,18.3,0,0,0,1.794-.745l-.009-8.971h.906a.592.592,0,0,0,.126-.009,3.578,3.578,0,0,0,3.463-3.579V27.748A11.63,11.63,0,0,0,21.653,19.253Z" transform="translate(-0.103 -1.621)" fill="#e6e9ed"/>
      <path id="Trazado_983697" data-name="Trazado 983697" d="M18.951,26V38.559H9.98V34.971h3.14a2.243,2.243,0,1,0,0-4.485H9.98V26h8.971Z" transform="translate(-0.926 -2.574)" fill="#ff826e"/>
      <path id="Trazado_983698" data-name="Trazado 983698" d="M18.439,16.673l-4.046,4.611L10.5,16.718A11.532,11.532,0,0,1,14.528,16h.009A11.69,11.69,0,0,1,18.439,16.673Z" transform="translate(-0.979 -1.544)" fill="#fcd770"/>
      <path id="Trazado_983699" data-name="Trazado 983699" d="M14.279,2a6.279,6.279,0,1,1,0,12.559H14.27A6.279,6.279,0,0,1,14.279,2Z" transform="translate(-0.722 -0.103)" fill="#f0d0b4"/>
      <path id="Trazado_983700" data-name="Trazado 983700" d="M35.844,38.306a2.691,2.691,0,1,1,.538-1.615A2.689,2.689,0,0,1,35.844,38.306Z" transform="translate(-3.09 -3.397)" fill="#fcd770"/>
      <path id="Trazado_983701" data-name="Trazado 983701" d="M52.691,29A2.689,2.689,0,1,1,50,31.691,2.688,2.688,0,0,1,52.691,29Z" transform="translate(-5.046 -2.883)" fill="#fcd770"/>
      <path id="Trazado_983702" data-name="Trazado 983702" d="M48.353,17.382v3.588l-1.328.484c-.036.081-.063.17-.1.251l.592,1.274L44.98,25.519l-1.274-.592c-.081.036-.17.063-.251.1l-.484,1.328H39.382L38.9,25.025c-.081-.036-.17-.063-.251-.1l-1.274.592L34.834,22.98l.592-1.274c-.036-.081-.063-.17-.1-.251L34,20.971V17.382l1.328-.484c.036-.081.063-.17.1-.251l-.592-1.274,2.539-2.539,1.274.592c.081-.036.17-.063.251-.1L39.382,12h3.588l.484,1.328c.081.036.17.063.251.1l1.274-.592,2.539,2.539-.592,1.274c.036.081.063.17.1.251Zm-3.588,1.794a3.588,3.588,0,1,0-3.588,3.588A3.587,3.587,0,0,0,44.765,19.176Z" transform="translate(-3.399 -1.132)" fill="#ffc729"/>
      <path id="Trazado_983703" data-name="Trazado 983703" d="M50.74,11.551a18.791,18.791,0,0,0-29.472,4.677,12.526,12.526,0,0,0-3.807-2.039,7.176,7.176,0,1,0-7.812,0A12.582,12.582,0,0,0,.99,26.112l0,2.692a4.487,4.487,0,0,0,4.483,4.49l.013,9.526.5.248c.054.027.539.265,1.3.562v9.4a3.573,3.573,0,0,0,6.279,2.348,3.573,3.573,0,0,0,6.279-2.348v-9.4c.76-.3,1.245-.536,1.3-.562l.5-.248L21.626,34.9a19.084,19.084,0,0,0,7.181,6.868v7.074L31.5,52.432v1.494a2.694,2.694,0,0,0,2.691,2.691h7.176a2.694,2.694,0,0,0,2.691-2.691v-1.5l2.691-3.588V41.768A18.821,18.821,0,0,0,50.74,11.551ZM21.631,32.4h-.006l-.007-11.662H19.823l.013,20.952a17.1,17.1,0,0,1-6.279,1.473c-.3,0-.608-.016-.911-.042V36.882h6.279V22.529H12.646v-.56l5.068-5.779a10.784,10.784,0,0,1,6.608,9.931v3.584A2.694,2.694,0,0,1,21.631,32.4Zm-11.676.9H12.2a3.14,3.14,0,1,0,0-6.279H9.955V24.323h7.176V35.088H9.955Zm3.466-14.928L11.1,15.646a10.489,10.489,0,0,1,4.741-.043ZM8.175,8.176a5.382,5.382,0,1,1,5.382,5.382A5.388,5.388,0,0,1,8.175,8.176ZM2.782,28.807l0-2.692a10.783,10.783,0,0,1,6.478-9.862l2.965,3.477L10.853,21.3v1.233H8.162v4.485H4.574v1.794H12.2a1.346,1.346,0,0,1,0,2.691H5.473a2.691,2.691,0,0,1-2.691-2.693Zm4.483,4.487h.9v3.588h2.691v5.961a20.1,20.1,0,0,1-3.575-1.155Zm3.6,21.529a1.8,1.8,0,0,1-1.794-1.794V44.242a17.285,17.285,0,0,0,3.588.676v8.11A1.8,1.8,0,0,1,10.866,54.823Zm7.176-1.794a1.794,1.794,0,0,1-3.588,0v-8.11a17.285,17.285,0,0,0,3.588-.676ZM30.6,42.264H44.954v1.794H30.6Zm0,3.588H44.954v1.794H30.6Zm2.243,5.382L31.5,49.441H44.057l-1.346,1.794Zm8.522,3.588H34.19a.9.9,0,0,1-.9-.9v-.9h8.971v.9A.9.9,0,0,1,41.366,54.823Zm4.081-14.4-.089.045H38.675V39.048l7.159-7.159a3.541,3.541,0,0,0,1.811.509,3.588,3.588,0,1,0-3.588-3.588,3.541,3.541,0,0,0,.509,1.811l-5.891,5.891V26.117H40.2l.431-1.185,1.142.534L45.2,22.039,44.666,20.9l1.185-.431V15.622l-1.185-.431.534-1.142-3.427-3.427-1.142.534L40.2,9.971H35.356l-.431,1.185-1.142-.534-3.427,3.427.534,1.142-1.186.431v4.845l1.185.431-.534,1.142,3.427,3.427,1.142-.534.431,1.186h1.526V36.882l-2.964-2.223a3.669,3.669,0,1,0-1.089,1.426l4.053,3.039V40.47H30.2l-.089-.045a17.251,17.251,0,0,1-6.978-6.512,4.479,4.479,0,0,0,2.985-4.208V26.122a12.507,12.507,0,0,0-3.472-8.647,17.021,17.021,0,1,1,22.8,22.95Zm.4-11.617A1.794,1.794,0,1,1,47.645,30.6,1.8,1.8,0,0,1,45.851,28.809ZM32.616,19.616,31.5,19.209V16.878l.738-.268.4-.192.379-.914-.5-1.077,1.648-1.648,1.078.5.966-.4.406-1.117h2.331l.268.738.19.4.914.379,1.078-.5,1.648,1.648-.5,1.077.4.968,1.117.406V19.21l-.738.268-.4.192-.379.914.5,1.077L41.394,23.31l-1.077-.5-.968.4-.405,1.116H36.612l-.268-.738-.192-.4-.914-.379-1.077.5L32.512,21.66l.5-1.077ZM30.6,35.088A1.794,1.794,0,1,1,32.4,33.294,1.8,1.8,0,0,1,30.6,35.088Z"/>
      <path id="Trazado_983704" data-name="Trazado 983704" d="M41.485,23.971A4.485,4.485,0,1,0,37,19.485,4.49,4.49,0,0,0,41.485,23.971Zm0-7.176a2.691,2.691,0,1,1-2.691,2.691A2.694,2.694,0,0,1,41.485,16.794Z" transform="translate(-3.707 -1.441)"/>
      <path id="Trazado_983705" data-name="Trazado 983705" d="M57.631,21.773l-1.669.657a13.27,13.27,0,0,1,.516,1.6l1.738-.442A15.078,15.078,0,0,0,57.631,21.773Z" transform="translate(-5.659 -2.139)"/>
      <path id="Trazado_983706" data-name="Trazado 983706" d="M55.621,18.054,54.166,19.1a13.339,13.339,0,0,1,.9,1.422l1.573-.862A15.184,15.184,0,0,0,55.621,18.054Z" transform="translate(-5.475 -1.756)"/>
      <path id="Trazado_983707" data-name="Trazado 983707" d="M58.665,25.882l-1.78.221a13.8,13.8,0,0,1,.1,1.679h1.794A15.433,15.433,0,0,0,58.665,25.882Z" transform="translate(-5.755 -2.562)"/>
    </g>
  </g>
</svg>
