<svg xmlns="http://www.w3.org/2000/svg" xmlns:xlink="http://www.w3.org/1999/xlink" width="108" height="108" viewBox="0 0 108 108">
  <defs>
    <filter id="Trazado_982547" x="0" y="0" width="108" height="108" filterUnits="userSpaceOnUse">
      <feOffset dy="3" input="SourceAlpha"/>
      <feGaussianBlur stdDeviation="3" result="blur"/>
      <feFlood flood-opacity="0.161"/>
      <feComposite operator="in" in2="blur"/>
      <feComposite in="SourceGraphic"/>
    </filter>
  </defs>
  <g id="Grupo_1149836" data-name="Grupo 1149836" transform="translate(-588 -4859)">
    <g id="Grupo_1149674" data-name="Grupo 1149674" transform="translate(-158 -2821)">
      <g id="Grupo_1148534" data-name="Grupo 1148534" transform="translate(156 4253)">
        <g id="Grupo_1147066" data-name="Grupo 1147066" transform="translate(-26 -556)">
          <g transform="matrix(1, 0, 0, 1, 616, 3983)" filter="url(#Trazado_982547)">
            <g id="Trazado_982547-2" data-name="Trazado 982547" transform="translate(9 6)" fill="#f6f9fc">
              <path d="M 45 88.5 C 39.12687683105469 88.5 33.43022537231445 87.35007476806641 28.06830024719238 85.08217620849609 C 22.88852500915527 82.89131164550781 18.23629951477051 79.75458526611328 14.2408504486084 75.75914764404297 C 10.24541282653809 71.76370239257812 7.108687400817871 67.11147308349609 4.917825222015381 61.93170166015625 C 2.649924993515015 56.56977462768555 1.5 50.87312316894531 1.5 45 C 1.5 39.12687683105469 2.649924993515015 33.43022537231445 4.917825222015381 28.06830024719238 C 7.108687400817871 22.88852500915527 10.24541282653809 18.23629951477051 14.2408504486084 14.2408504486084 C 18.23629951477051 10.24541282653809 22.88852500915527 7.108687400817871 28.06830024719238 4.917825222015381 C 33.43022537231445 2.649924993515015 39.12687683105469 1.5 45 1.5 C 50.87312316894531 1.5 56.56977462768555 2.649924993515015 61.93170166015625 4.917825222015381 C 67.11147308349609 7.108687400817871 71.76370239257812 10.24541282653809 75.75914764404297 14.2408504486084 C 79.75458526611328 18.23629951477051 82.89131164550781 22.88852500915527 85.08217620849609 28.06830024719238 C 87.35007476806641 33.43022537231445 88.5 39.12687683105469 88.5 45 C 88.5 50.87312316894531 87.35007476806641 56.56977462768555 85.08217620849609 61.93170166015625 C 82.89131164550781 67.11147308349609 79.75458526611328 71.76370239257812 75.75914764404297 75.75914764404297 C 71.76370239257812 79.75458526611328 67.11147308349609 82.89131164550781 61.93170166015625 85.08217620849609 C 56.56977462768555 87.35007476806641 50.87312316894531 88.5 45 88.5 Z" stroke="none"/>
              <path d="M 45 3 C 39.32871246337891 3 33.82865524291992 4.110054016113281 28.65262985229492 6.299339294433594 C 23.65165710449219 8.414573669433594 19.15968322753906 11.44334411621094 15.301513671875 15.301513671875 C 11.44334411621094 19.15968322753906 8.414573669433594 23.65165710449219 6.299339294433594 28.65262985229492 C 4.110054016113281 33.82865524291992 3 39.32871246337891 3 45 C 3 50.67128753662109 4.110054016113281 56.17134475708008 6.299339294433594 61.34737396240234 C 8.414573669433594 66.34834289550781 11.44334411621094 70.84031677246094 15.301513671875 74.698486328125 C 19.15968322753906 78.55665588378906 23.65165710449219 81.58542633056641 28.65262985229492 83.70066070556641 C 33.82865524291992 85.88994598388672 39.32871246337891 87 45 87 C 50.67128753662109 87 56.17134475708008 85.88994598388672 61.34737396240234 83.70066070556641 C 66.34834289550781 81.58542633056641 70.84031677246094 78.55665588378906 74.698486328125 74.698486328125 C 78.55665588378906 70.84031677246094 81.58542633056641 66.34834289550781 83.70066070556641 61.34737396240234 C 85.88994598388672 56.17134475708008 87 50.67128753662109 87 45 C 87 39.32871246337891 85.88994598388672 33.82865524291992 83.70066070556641 28.65262985229492 C 81.58542633056641 23.65165710449219 78.55665588378906 19.15968322753906 74.698486328125 15.301513671875 C 70.84031677246094 11.44334411621094 66.34834289550781 8.414573669433594 61.34737396240234 6.299339294433594 C 56.17134475708008 4.110054016113281 50.67128753662109 3 45 3 M 45 0 C 69.85281372070312 0 90 20.14718627929688 90 45 C 90 69.85281372070312 69.85281372070312 90 45 90 C 20.14718627929688 90 0 69.85281372070312 0 45 C 0 20.14718627929688 20.14718627929688 0 45 0 Z" stroke="none" fill="#a530fe"/>
            </g>
          </g>
        </g>
      </g>
    </g>
    <g id="agregar-usuario" transform="translate(610.996 4878)">
      <path id="Trazado_984519" data-name="Trazado 984519" d="M19.773,60.067v.982a29.459,29.459,0,1,1,44.645-11.7,10.8,10.8,0,0,0-15.959,3.84H43.343V48.919A13.757,13.757,0,0,0,51.2,36.5v-10.8A5.886,5.886,0,0,0,45.307,19.8V14.89H35.486A11.775,11.775,0,0,0,23.7,26.675v9.82a13.755,13.755,0,0,0,7.857,12.423V53.19h-4.91a6.872,6.872,0,0,0-6.875,6.877Zm0,0" transform="translate(-7.004 -7.032)" fill="#ac92ec"/>
      <path id="Trazado_984520" data-name="Trazado 984520" d="M233.952,8.015c-.662,0-1.314.03-1.964.072a29.455,29.455,0,0,1,0,58.779c.65.044,1.3.073,1.964.073a29.462,29.462,0,1,0,0-58.924Zm0,0" transform="translate(-203.505 -7.031)" fill="#967adc"/>
      <path id="Trazado_984521" data-name="Trazado 984521" d="M345.18,330.037a11.312,11.312,0,0,1,1.3,1.11A10.8,10.8,0,1,1,331.2,346.418a11.35,11.35,0,0,1-1.109-1.287,10.805,10.805,0,0,1,15.085-15.095Zm0,0" transform="translate(-287.766 -287.717)" fill="#a0d468"/>
      <path id="Trazado_984522" data-name="Trazado 984522" d="M132.664,376.016h.01a10.81,10.81,0,0,0,.875,11.255,29.5,29.5,0,0,1-29.561-3.4v-.982a6.869,6.869,0,0,1,6.875-6.875h4.91l2.946,1.964,2.946-.982,2.946.982,2.946-1.964Zm0,0" transform="translate(-91.219 -329.856)" fill="#e6e9ed"/>
      <path id="Trazado_984523" data-name="Trazado 984523" d="M211.773,341.215v4.272l-2.946,1.964-2.946-.982-2.946.982-2.946-1.964v-4.272a13.756,13.756,0,0,0,11.785,0Zm0,0" transform="translate(-175.434 -299.327)" fill="#f5f7fa"/>
      <path id="Trazado_984524" data-name="Trazado 984524" d="M163.486,171.951v4.91a13.747,13.747,0,0,1-13.749,13.749,13.6,13.6,0,0,1-5.893-1.326,13.755,13.755,0,0,1-7.857-12.423v-4.929l3.928-3.909a25.534,25.534,0,0,0,19.642,0Zm0,0" transform="translate(-119.291 -147.397)" fill="#eac6bb"/>
      <path id="Trazado_984525" data-name="Trazado 984525" d="M243.773,168.016v8.839a13.756,13.756,0,0,1-7.857,12.423,13.537,13.537,0,0,1-3.928,1.17,13.86,13.86,0,0,0,1.964.155,13.611,13.611,0,0,0,5.893-1.326,13.757,13.757,0,0,0,7.857-12.423v-4.91Zm0,0" transform="translate(-203.505 -147.39)" fill="#d3b1a9"/>
      <path id="Trazado_984526" data-name="Trazado 984526" d="M163.486,74.819v5.893l-3.928-3.928a25.534,25.534,0,0,1-19.642,0l-3.928,3.909V75.8a11.775,11.775,0,0,1,11.785-11.785h9.821v4.91A5.886,5.886,0,0,1,163.486,74.819Zm0,0" transform="translate(-119.291 -56.157)" fill="#965353"/>
      <path id="Trazado_984527" data-name="Trazado 984527" d="M283.916,68.926v-4.91h-3.928v6.875c3.258,0,5.893,1.65,5.893,4.91v.982l3.928,3.928V74.819A5.886,5.886,0,0,0,283.916,68.926Zm0,0" transform="translate(-245.613 -56.157)" fill="#844646"/>
      <path id="Trazado_984528" data-name="Trazado 984528" d="M294.092,369.964h-5.106a.982.982,0,1,1,0-1.964h5.106a.982.982,0,0,1,0,1.964Zm0,0" transform="translate(-252.645 -322.824)"/>
      <path id="Trazado_984529" data-name="Trazado 984529" d="M96.986,376.839a.981.981,0,0,1-.982-.982A7.866,7.866,0,0,1,103.861,368a.982.982,0,1,1,0,1.964,5.9,5.9,0,0,0-5.893,5.893A.981.981,0,0,1,96.986,376.839Zm0,0" transform="translate(-84.215 -322.824)"/>
      <path id="Trazado_984530" data-name="Trazado 984530" d="M157.9,369.964h-4.91a.982.982,0,1,1,0-1.964h4.91a.982.982,0,1,1,0,1.964Zm0,0" transform="translate(-133.34 -322.824)"/>
      <path id="Trazado_984531" data-name="Trazado 984531" d="M96.986,427.966a.981.981,0,0,1-.982-.982v-.842a.982.982,0,1,1,1.964,0v.842A.981.981,0,0,1,96.986,427.966Zm0,0" transform="translate(-84.215 -372.967)"/>
      <path id="Trazado_984532" data-name="Trazado 984532" d="M192.986,339.449a.981.981,0,0,1-.982-.982V334.2a.982.982,0,0,1,1.964,0v4.27A.981.981,0,0,1,192.986,339.449Zm0,0" transform="translate(-168.43 -292.309)"/>
      <path id="Trazado_984533" data-name="Trazado 984533" d="M288.986,339.449a.981.981,0,0,1-.982-.982V334.2a.982.982,0,0,1,1.964,0v4.27A.981.981,0,0,1,288.986,339.449Zm0,0" transform="translate(-252.645 -292.309)"/>
      <path id="Trazado_984534" data-name="Trazado 984534" d="M142.735,247.713A14.748,14.748,0,0,1,128,232.982a.982.982,0,0,1,1.964,0,12.767,12.767,0,0,0,25.534,0,.982.982,0,0,1,1.964,0A14.748,14.748,0,0,1,142.735,247.713Zm0,0" transform="translate(-112.287 -203.52)"/>
      <path id="Trazado_984535" data-name="Trazado 984535" d="M128.986,163.762a.982.982,0,0,1-.982-.982v-9.8a.982.982,0,1,1,1.964,0v9.8A.982.982,0,0,1,128.986,163.762Zm0,0" transform="translate(-112.287 -133.34)"/>
      <path id="Trazado_984536" data-name="Trazado 984536" d="M352.986,156.775a.982.982,0,0,1-.982-.982v-10.8a.982.982,0,0,1,1.964,0v10.8A.982.982,0,0,1,352.986,156.775Zm0,0" transform="translate(-308.788 -126.329)"/>
      <path id="Trazado_984537" data-name="Trazado 984537" d="M310.879,103.857a.982.982,0,0,1-.982-.982,4.916,4.916,0,0,0-4.91-4.91.982.982,0,0,1,0-1.964,6.883,6.883,0,0,1,6.875,6.875A.982.982,0,0,1,310.879,103.857Zm0,0" transform="translate(-266.681 -84.215)"/>
      <path id="Trazado_984538" data-name="Trazado 984538" d="M304.986,62.875a.982.982,0,0,1-.982-.982v-4.91a.982.982,0,0,1,1.964,0v4.91A.982.982,0,0,1,304.986,62.875Zm0,0" transform="translate(-266.681 -49.125)"/>
      <path id="Trazado_984539" data-name="Trazado 984539" d="M128.986,69.749a.982.982,0,0,1-.982-.982A12.782,12.782,0,0,1,140.771,56a.982.982,0,1,1,0,1.964,10.816,10.816,0,0,0-10.8,10.8A.982.982,0,0,1,128.986,69.749Zm0,0" transform="translate(-112.287 -49.125)"/>
      <path id="Trazado_984540" data-name="Trazado 984540" d="M324.912,165.89a.98.98,0,0,1-.694-.288l-3.928-3.928a.982.982,0,0,1,1.389-1.389l3.928,3.928a.982.982,0,0,1-.694,1.676Zm0,0" transform="translate(-280.714 -140.356)"/>
      <path id="Trazado_984541" data-name="Trazado 984541" d="M170.811,163.925a28.112,28.112,0,0,1-10.215-2.047.982.982,0,0,1,.786-1.8,24.555,24.555,0,0,0,18.856,0,.982.982,0,1,1,.785,1.8,28.111,28.111,0,0,1-10.214,2.047Zm0,0" transform="translate(-140.362 -140.355)"/>
      <path id="Trazado_984542" data-name="Trazado 984542" d="M128.984,165.88a.982.982,0,0,1-.693-1.677l3.928-3.916a.982.982,0,0,1,1.387,1.391l-3.928,3.916A.975.975,0,0,1,128.984,165.88Zm0,0" transform="translate(-112.284 -140.358)"/>
      <path id="Trazado_984543" data-name="Trazado 984543" d="M195.926,371.928a.989.989,0,0,1-.544-.165l-2.946-1.964a.982.982,0,1,1,1.09-1.634l2.946,1.964a.982.982,0,0,1-.546,1.8Zm0,0" transform="translate(-168.425 -322.824)"/>
      <path id="Trazado_984544" data-name="Trazado 984544" d="M216.989,378.937a.983.983,0,0,1-.31-1.914l2.946-.982a.982.982,0,0,1,.621,1.863l-2.946.982A1,1,0,0,1,216.989,378.937Zm0,0" transform="translate(-189.486 -329.833)"/>
      <path id="Trazado_984545" data-name="Trazado 984545" d="M264.982,371.928a.982.982,0,0,1-.546-1.8l2.946-1.964a.982.982,0,0,1,1.09,1.634l-2.946,1.964A.989.989,0,0,1,264.982,371.928Zm0,0" transform="translate(-231.586 -322.824)"/>
      <path id="Trazado_984546" data-name="Trazado 984546" d="M243.935,378.938a.991.991,0,0,1-.31-.051l-2.946-.982a.982.982,0,0,1,.621-1.863l2.946.982a.982.982,0,0,1-.311,1.914Zm0,0" transform="translate(-210.54 -329.834)"/>
      <path id="Trazado_984547" data-name="Trazado 984547" d="M241.19,417.964a.982.982,0,0,1-.011-1.964h.011a.982.982,0,1,1,0,1.964Zm0,0" transform="translate(-210.712 -364.932)"/>
      <path id="Trazado_984548" data-name="Trazado 984548" d="M241.19,449.964a.982.982,0,0,1-.011-1.964h.011a.982.982,0,1,1,0,1.964Zm0,0" transform="translate(-210.712 -393.003)"/>
      <path id="Trazado_984549" data-name="Trazado 984549" d="M234.807,57.964h-9.821a.982.982,0,1,1,0-1.964h9.821a.982.982,0,1,1,0,1.964Zm0,0" transform="translate(-196.502 -49.125)"/>
      <path id="Trazado_984550" data-name="Trazado 984550" d="M30.449,60.889A30.422,30.422,0,1,1,58.314,42.726a.982.982,0,0,1-1.8-.791A28.459,28.459,0,1,0,41.933,56.515a.982.982,0,1,1,.792,1.8,30.212,30.212,0,0,1-12.276,2.577Zm0,0"/>
      <path id="Trazado_984551" data-name="Trazado 984551" d="M331.789,343.571a11.788,11.788,0,1,1,8.332-3.452A11.7,11.7,0,0,1,331.789,343.571Zm0-21.607a9.825,9.825,0,1,0,6.943,2.878A9.748,9.748,0,0,0,331.789,321.964Zm0,0" transform="translate(-280.717 -280.717)"/>
      <path id="Trazado_984552" data-name="Trazado 984552" d="M378.807,409.964h-9.821a.982.982,0,1,1,0-1.964h9.821a.982.982,0,1,1,0,1.964Zm0,0" transform="translate(-322.824 -357.914)"/>
      <path id="Trazado_984553" data-name="Trazado 984553" d="M408.986,379.785A.981.981,0,0,1,408,378.8v-9.821a.982.982,0,0,1,1.964,0V378.8A.981.981,0,0,1,408.986,379.785Zm0,0" transform="translate(-357.914 -322.824)"/>
    </g>
  </g>
</svg>
