<svg xmlns="http://www.w3.org/2000/svg" xmlns:xlink="http://www.w3.org/1999/xlink" width="108" height="108" viewBox="0 0 108 108">
  <defs>
    <filter id="Trazado_982547" x="0" y="0" width="108" height="108" filterUnits="userSpaceOnUse">
      <feOffset dy="3" input="SourceAlpha"/>
      <feGaussianBlur stdDeviation="3" result="blur"/>
      <feFlood flood-opacity="0.161"/>
      <feComposite operator="in" in2="blur"/>
      <feComposite in="SourceGraphic"/>
    </filter>
  </defs>
  <g id="_22" data-name="22" transform="translate(-326 -7680)">
    <g id="Grupo_1148532" data-name="Grupo 1148532" transform="translate(51 4253)">
      <g id="Grupo_1147065" data-name="Grupo 1147065" transform="translate(-341 -556)">
        <g transform="matrix(1, 0, 0, 1, 616, 3983)" filter="url(#Trazado_982547)">
          <g id="Trazado_982547-2" data-name="Trazado 982547" transform="translate(9 6)" fill="#f6f9fc">
            <path d="M 45 88.5 C 39.12687683105469 88.5 33.43022537231445 87.35007476806641 28.06830024719238 85.08217620849609 C 22.88852500915527 82.89131164550781 18.23629951477051 79.75458526611328 14.2408504486084 75.75914764404297 C 10.24541282653809 71.76370239257812 7.108687400817871 67.11147308349609 4.917825222015381 61.93170166015625 C 2.649924993515015 56.56977462768555 1.5 50.87312316894531 1.5 45 C 1.5 39.12687683105469 2.649924993515015 33.43022537231445 4.917825222015381 28.06830024719238 C 7.108687400817871 22.88852500915527 10.24541282653809 18.23629951477051 14.2408504486084 14.2408504486084 C 18.23629951477051 10.24541282653809 22.88852500915527 7.108687400817871 28.06830024719238 4.917825222015381 C 33.43022537231445 2.649924993515015 39.12687683105469 1.5 45 1.5 C 50.87312316894531 1.5 56.56977462768555 2.649924993515015 61.93170166015625 4.917825222015381 C 67.11147308349609 7.108687400817871 71.76370239257812 10.24541282653809 75.75914764404297 14.2408504486084 C 79.75458526611328 18.23629951477051 82.89131164550781 22.88852500915527 85.08217620849609 28.06830024719238 C 87.35007476806641 33.43022537231445 88.5 39.12687683105469 88.5 45 C 88.5 50.87312316894531 87.35007476806641 56.56977462768555 85.08217620849609 61.93170166015625 C 82.89131164550781 67.11147308349609 79.75458526611328 71.76370239257812 75.75914764404297 75.75914764404297 C 71.76370239257812 79.75458526611328 67.11147308349609 82.89131164550781 61.93170166015625 85.08217620849609 C 56.56977462768555 87.35007476806641 50.87312316894531 88.5 45 88.5 Z" stroke="none"/>
            <path d="M 45 3 C 39.32871246337891 3 33.82865524291992 4.110054016113281 28.65262985229492 6.299339294433594 C 23.65165710449219 8.414573669433594 19.15968322753906 11.44334411621094 15.301513671875 15.301513671875 C 11.44334411621094 19.15968322753906 8.414573669433594 23.65165710449219 6.299339294433594 28.65262985229492 C 4.110054016113281 33.82865524291992 3 39.32871246337891 3 45 C 3 50.67128753662109 4.110054016113281 56.17134475708008 6.299339294433594 61.34737396240234 C 8.414573669433594 66.34834289550781 11.44334411621094 70.84031677246094 15.301513671875 74.698486328125 C 19.15968322753906 78.55665588378906 23.65165710449219 81.58542633056641 28.65262985229492 83.70066070556641 C 33.82865524291992 85.88994598388672 39.32871246337891 87 45 87 C 50.67128753662109 87 56.17134475708008 85.88994598388672 61.34737396240234 83.70066070556641 C 66.34834289550781 81.58542633056641 70.84031677246094 78.55665588378906 74.698486328125 74.698486328125 C 78.55665588378906 70.84031677246094 81.58542633056641 66.34834289550781 83.70066070556641 61.34737396240234 C 85.88994598388672 56.17134475708008 87 50.67128753662109 87 45 C 87 39.32871246337891 85.88994598388672 33.82865524291992 83.70066070556641 28.65262985229492 C 81.58542633056641 23.65165710449219 78.55665588378906 19.15968322753906 74.698486328125 15.301513671875 C 70.84031677246094 11.44334411621094 66.34834289550781 8.414573669433594 61.34737396240234 6.299339294433594 C 56.17134475708008 4.110054016113281 50.67128753662109 3 45 3 M 45 0 C 69.85281372070312 0 90 20.14718627929688 90 45 C 90 69.85281372070312 69.85281372070312 90 45 90 C 20.14718627929688 90 0 69.85281372070312 0 45 C 0 20.14718627929688 20.14718627929688 0 45 0 Z" stroke="none" fill="#a530fe"/>
          </g>
        </g>
      </g>
    </g>
    <g id="observacion" transform="translate(351.017 7699.85)">
      <g id="Grupo_1149516" data-name="Grupo 1149516" transform="translate(0.935 0.935)">
        <g id="Grupo_1149497" data-name="Grupo 1149497" transform="translate(29.918 46.747)">
          <path id="Trazado_983708" data-name="Trazado 983708" d="M267.74,408v9.349H264v-8.414a.935.935,0,0,1,.935-.935Z" transform="translate(-264 -408)" fill="#ccd1d9"/>
        </g>
        <g id="Grupo_1149498" data-name="Grupo 1149498" transform="translate(33.658 27.113)">
          <path id="Trazado_983709" data-name="Trazado 983709" d="M304.239,243.446A10.731,10.731,0,0,1,310.024,240a10.745,10.745,0,0,1,8.414,10.49v18.493H296v-9.349h5.61V250.49A10.734,10.734,0,0,1,304.239,243.446Z" transform="translate(-296 -240)" fill="#e6e9ed"/>
        </g>
        <g id="Grupo_1149499" data-name="Grupo 1149499" transform="translate(16.829)">
          <path id="Trazado_983710" data-name="Trazado 983710" d="M162.374,10.421l1.967-.739A26.44,26.44,0,0,1,173.621,8a12.037,12.037,0,0,1,9.795,19.033l-2.433,3.405-.575-.115a8.553,8.553,0,0,1-5.97-4.56l.055-.027a3.283,3.283,0,0,0,1.468-4.406l-.38-.761.175-.1a1.1,1.1,0,0,0,.552-.951v-.041a1.1,1.1,0,0,0-.116-.49l-.517-1.033a1.095,1.095,0,0,0-1.469-.49l-1.982.991a4.1,4.1,0,0,0-3.548-2.042h-.04a4.123,4.123,0,0,0-1.44.261l-6.386,2.4a2.348,2.348,0,0,1-.822.148h-.043l-.007.014a4.353,4.353,0,0,0-.4,2.694l-4.636-.515a3.268,3.268,0,0,1-1.453-5.967l.6-.4a3.966,3.966,0,0,1,3.778-5.173h3.02a2.349,2.349,0,0,1,1.517.552Z" transform="translate(-152 -8)" fill="#b27946"/>
        </g>
        <g id="Grupo_1149500" data-name="Grupo 1149500" transform="translate(24.308 9.349)">
          <path id="Trazado_983711" data-name="Trazado 983711" d="M232.829,90.128v.041a1.1,1.1,0,0,1-.552.951l-.175.1-5.818,3.324a4.536,4.536,0,0,1-2.509,4.059l-4.5,2.252-.251.126a1.039,1.039,0,0,1-.458.108,1.023,1.023,0,0,1-.95-.644l-1.53-3.825a1.151,1.151,0,0,1,.555-1.46l.3-.148,11.811-5.905,1.982-.991a1.095,1.095,0,0,1,1.469.49l.517,1.033a1.1,1.1,0,0,1,.116.49Z" transform="translate(-216 -88)" fill="#69d6f4"/>
        </g>
        <g id="Grupo_1149501" data-name="Grupo 1149501" transform="translate(22.438 48.616)">
          <path id="Trazado_983712" data-name="Trazado 983712" d="M207.479,424v7.479h-3.74a3.74,3.74,0,1,1,0-7.479Z" transform="translate(-200 -424)" fill="#f0d0b4"/>
        </g>
        <g id="Grupo_1149502" data-name="Grupo 1149502" transform="translate(27.581 12.57)">
          <path id="Trazado_983713" data-name="Trazado 983713" d="M262.231,125.428l1.87,4.675a10.731,10.731,0,0,0-5.785,3.446l-2.629-4.381a6.386,6.386,0,0,1-4.515,1.87h-.513a6.385,6.385,0,0,1-5.927-4.013l-.732-1.83,4.5-2.252a4.536,4.536,0,0,0,2.509-4.059l5.818-3.324.38.761a3.285,3.285,0,0,1-1.468,4.406l-.055.027a8.553,8.553,0,0,0,5.97,4.56Z" transform="translate(-244 -115.56)" fill="#f0d0b4"/>
        </g>
        <g id="Grupo_1149503" data-name="Grupo 1149503" transform="translate(24.308 8.414)">
          <path id="Trazado_983714" data-name="Trazado 983714" d="M216.467,82.8h.043a2.348,2.348,0,0,0,.822-.148l6.386-2.4a4.123,4.123,0,0,1,1.44-.261h.04a4.1,4.1,0,0,1,3.548,2.042l-11.811,5.905-.623-1.558a4.3,4.3,0,0,1-.233-.795c-.006-.027-.011-.055-.015-.082a4.353,4.353,0,0,1,.4-2.694Z" transform="translate(-216 -80)" fill="#f0d0b4"/>
        </g>
        <g id="Grupo_1149504" data-name="Grupo 1149504" transform="translate(0 52.356)">
          <path id="Trazado_983715" data-name="Trazado 983715" d="M34.178,459.74H8.935A.935.935,0,0,1,8,458.8v-1.87A.935.935,0,0,1,8.935,456h21.5A3.74,3.74,0,0,0,34.178,459.74Z" transform="translate(-8 -456)" fill="#aab2bd"/>
        </g>
        <g id="Grupo_1149505" data-name="Grupo 1149505" transform="translate(5.61 48.616)">
          <path id="Trazado_983716" data-name="Trazado 983716" d="M63.479,424.935v2.8H56v-2.8a.935.935,0,0,1,.935-.935h5.61A.935.935,0,0,1,63.479,424.935Z" transform="translate(-56 -424)" fill="#ccd1d9"/>
        </g>
        <g id="Grupo_1149506" data-name="Grupo 1149506" transform="translate(6.358 28.048)">
          <path id="Trazado_983717" data-name="Trazado 983717" d="M85.959,264.732a3.741,3.741,0,0,0-3.739-3.643h-2.8a10.957,10.957,0,0,0-9.541-8.246l-1.233-.124.38-.761a1.034,1.034,0,0,0-.527-1.419L62.4,248H71l.116.014A16.945,16.945,0,0,1,85.959,264.732Z" transform="translate(-62.4 -248)" fill="#ffeaa7"/>
        </g>
        <g id="Grupo_1149507" data-name="Grupo 1149507" transform="translate(0 41.137)">
          <path id="Trazado_983718" data-name="Trazado 983718" d="M34.178,360a3.74,3.74,0,0,0-3.74,3.74H8.935A.935.935,0,0,1,8,362.8v-1.87A.935.935,0,0,1,8.935,360H34.178Z" transform="translate(-8 -360)" fill="#ccd1d9"/>
        </g>
        <g id="Grupo_1149508" data-name="Grupo 1149508" transform="translate(22.438 41.137)">
          <path id="Trazado_983719" data-name="Trazado 983719" d="M203.74,360a3.741,3.741,0,0,1,3.739,3.643c0,.033,0,.064,0,.1a3.74,3.74,0,1,1-3.74-3.74Z" transform="translate(-200 -360)" fill="#fcd770"/>
        </g>
        <g id="Grupo_1149509" data-name="Grupo 1149509" transform="translate(11.539 18.96)">
          <path id="Trazado_983720" data-name="Trazado 983720" d="M112.142,170.24l2.342,5.465-4.436,1.478a6.547,6.547,0,0,0-3.307-4.541h0Z" transform="translate(-106.74 -170.24)" fill="#ccd1d9"/>
        </g>
        <g id="Grupo_1149510" data-name="Grupo 1149510" transform="translate(16.941 17.764)">
          <path id="Trazado_983721" data-name="Trazado 983721" d="M158.384,164.491a1.024,1.024,0,0,1-.119.979,1.031,1.031,0,0,1-.507.373l-2.455.818L152.96,161.2l2.494-1.109a1.038,1.038,0,0,1,.416-.088h.025a1.023,1.023,0,0,1,.95.644Z" transform="translate(-152.96 -160)" fill="#ccd1d9"/>
        </g>
        <g id="Grupo_1149511" data-name="Grupo 1149511" transform="translate(1.931 20.569)">
          <path id="Trazado_983722" data-name="Trazado 983722" d="M37.548,190.545v.935h-8.6l-4.3-1.79a1.017,1.017,0,0,0-.131-.044,6.545,6.545,0,0,1,13.028.9Z" transform="translate(-24.52 -184)" fill="#aab2bd"/>
        </g>
        <g id="Grupo_1149512" data-name="Grupo 1149512" transform="translate(0 26.178)">
          <path id="Trazado_983723" data-name="Trazado 983723" d="M9.931,232.035a1.012,1.012,0,0,1,.131.044l4.3,1.79,6.095,2.54a1.034,1.034,0,0,1,.527,1.419l-.38.761-.159.318a1.04,1.04,0,0,1-.645.534,1.07,1.07,0,0,1-.282.039h-.088a1.036,1.036,0,0,1-.4-.079l-2.372-.989-.8-.334-3.046-1.269-.8-.333-3.046-1.269-.325-.136a1.034,1.034,0,0,1-.527-1.419l.539-1.079A1.036,1.036,0,0,1,9.575,232h.088A1.026,1.026,0,0,1,9.931,232.035Z" transform="translate(-8 -232)" fill="#aab2bd"/>
        </g>
        <g id="Grupo_1149513" data-name="Grupo 1149513" transform="translate(7.479 32.589)">
          <path id="Trazado_983724" data-name="Trazado 983724" d="M75.947,287.928h.088a1.071,1.071,0,0,0,.282-.039l-1.254,3.134a1.024,1.024,0,0,1-.95.644,1.038,1.038,0,0,1-.458-.108l-1.088-.545A1.023,1.023,0,0,1,72,290.1V290a1.014,1.014,0,0,1,.074-.381l1.1-2.755,2.372.989A1.037,1.037,0,0,0,75.947,287.928Z" transform="translate(-72 -286.86)" fill="#ccd1d9"/>
        </g>
        <g id="Grupo_1149514" data-name="Grupo 1149514" transform="translate(3.74 30.986)">
          <path id="Trazado_983725" data-name="Trazado 983725" d="M44.114,274.409l-1.052,2.628a1.024,1.024,0,0,1-.95.644,1.038,1.038,0,0,1-.458-.108l-1.088-.545a1.023,1.023,0,0,1-.566-.915v-.105a1.014,1.014,0,0,1,.074-.381l.995-2.488Z" transform="translate(-40 -273.14)" fill="#ccd1d9"/>
        </g>
        <g id="Grupo_1149515" data-name="Grupo 1149515" transform="translate(0 29.384)">
          <path id="Trazado_983726" data-name="Trazado 983726" d="M12.007,260.7l-.945,2.361a1.024,1.024,0,0,1-.95.644,1.038,1.038,0,0,1-.458-.108l-1.088-.545A1.023,1.023,0,0,1,8,262.137v-.105a1.014,1.014,0,0,1,.074-.381l.888-2.22Z" transform="translate(-8 -259.43)" fill="#ccd1d9"/>
        </g>
      </g>
      <g id="Grupo_1149517" data-name="Grupo 1149517" transform="translate(0)">
        <path id="Trazado_983727" data-name="Trazado 983727" d="M55.4,31.229a11.725,11.725,0,0,0-6.09-3.974L47.8,23.5l2.136-2.99A12.972,12.972,0,0,0,39.385,0a27.269,27.269,0,0,0-9.608,1.742l-1.514.568a3.277,3.277,0,0,0-1.643-.44H23.6a4.9,4.9,0,0,0-4.838,5.69L18.7,7.6a4.2,4.2,0,0,0,1.867,7.675l3.989.443c.039.123.081.246.13.366l.329.823a2.088,2.088,0,0,0-.559,2.343l1.53,3.825a1.95,1.95,0,0,0,1.819,1.231c.056,0,.111,0,.167-.008l.407,1.017a7.284,7.284,0,0,0,6.8,4.6h.513a7.264,7.264,0,0,0,4.279-1.379l1.726,2.877a11.721,11.721,0,0,0-2.426,7.122v8.209H31.788c-.032,0-.063,0-.1,0a4.673,4.673,0,0,0,.1-.94A17.909,17.909,0,0,0,16.829,28.173v-.125c0-.19-.009-.378-.023-.565l6.164-2.055a1.958,1.958,0,0,0,1.2-2.585l-1.539-3.848a1.949,1.949,0,0,0-1.818-1.231h-.025a1.945,1.945,0,0,0-.8.169l-7.5,3.332a7.433,7.433,0,0,0-3.145-.7A7.509,7.509,0,0,0,2.1,26.221,1.958,1.958,0,0,0,.747,27.267L.208,28.346a1.971,1.971,0,0,0,.509,2.4L.14,32.192A1.947,1.947,0,0,0,0,32.92v.1a1.948,1.948,0,0,0,1.083,1.752l1.087.544a1.962,1.962,0,0,0,1.63.057,1.946,1.946,0,0,0,1.022,1.27l1.087.544a1.962,1.962,0,0,0,1.63.057,1.946,1.946,0,0,0,1.022,1.27l1.087.544a1.959,1.959,0,0,0,2.7-1.024l1.114-2.785a1.957,1.957,0,0,0,.6-.556l.616.062a10.053,10.053,0,0,1,8.359,6.381H1.87A1.872,1.872,0,0,0,0,43.007v1.87a1.872,1.872,0,0,0,1.87,1.87H22.532a4.683,4.683,0,0,0,1.779,2.8,4.683,4.683,0,0,0-1.779,2.8H14.959v-1.87a1.872,1.872,0,0,0-1.87-1.87H7.479a1.872,1.872,0,0,0-1.87,1.87v1.87H1.87A1.872,1.872,0,0,0,0,54.226V56.1a1.872,1.872,0,0,0,1.87,1.87h56.1V38.537A11.722,11.722,0,0,0,55.4,31.229ZM18.7,11.1a2.328,2.328,0,0,1,.753-1.716,4.938,4.938,0,0,0,.682.855l.708.708,1.322-1.322-.708-.708A3.032,3.032,0,0,1,23.6,3.74h3.019a1.43,1.43,0,0,1,1.428,1.428,1.376,1.376,0,0,1-2.607.615l-.3-.592-1.672.836.3.592a3.246,3.246,0,0,0,6.15-1.452,3.277,3.277,0,0,0-.3-1.37l.815-.306A25.405,25.405,0,0,1,39.385,1.87a11.1,11.1,0,0,1,9.034,17.554l-2.081,2.914a7.556,7.556,0,0,1-4.885-3.33,4.192,4.192,0,0,0,1.555-3.273,4.241,4.241,0,0,0-.445-1.887l-.04-.079a2.033,2.033,0,0,0,.485-1.315v-.041a2.039,2.039,0,0,0-.214-.908l-.517-1.034A2.019,2.019,0,0,0,40.46,9.349a2.04,2.04,0,0,0-.908.214l-1.27.635a5.054,5.054,0,0,0-3.842-1.784H34.4a5.02,5.02,0,0,0-1.769.321L26.247,11.13a1.4,1.4,0,0,1-1.749-.687l-.288-.577-1.672.836.288.577a3.258,3.258,0,0,0,1.645,1.549,5.33,5.33,0,0,0-.153.983l-3.543-.394A2.331,2.331,0,0,1,18.7,11.1Zm7.97,4.907-.246-.614a3.411,3.411,0,0,1-.067-2.359,3.272,3.272,0,0,0,.547-.152l6.386-2.395a3.154,3.154,0,0,1,1.112-.2h.04a3.177,3.177,0,0,1,2.091.79Zm-.475,2.552a.218.218,0,0,1,.105-.276l14.09-7.045a.159.159,0,0,1,.214.071l.517,1.034a.159.159,0,0,1,.017.071v.041a.16.16,0,0,1-.08.139l-6.464,3.694v.543A3.584,3.584,0,0,1,32.6,20.052l-4.755,2.377a.091.091,0,0,1-.122-.047Zm13.347,7.895a5.413,5.413,0,0,1-3.853,1.6h-.513a5.423,5.423,0,0,1-5.059-3.425L29.7,23.591l3.734-1.867a5.439,5.439,0,0,0,3-4.337l4.513-2.579a2.361,2.361,0,0,1,.19.925,2.336,2.336,0,0,1-1.3,2.1l-.891.445.418.836a9.423,9.423,0,0,0,6.623,5.058l.078.016,1.293,3.233a11.743,11.743,0,0,0-4.351,2.55l-2.622-4.369ZM33.658,48.616V56.1h-1.87V48.616ZM20.75,19.641a.089.089,0,0,1,.036-.007h.025a.088.088,0,0,1,.082.056l1.539,3.848a.09.09,0,0,1,.006.033.089.089,0,0,1-.061.084l-1.639.546L19.1,20.375Zm-3.36,1.494,1.568,3.66-2.53.843a7.5,7.5,0,0,0-2.083-3.15Zm-8.04,1.3a5.616,5.616,0,0,1,5.61,5.61H7.48L3.937,26.572A5.632,5.632,0,0,1,9.349,22.438ZM1.88,29.182,2.42,28.1a.1.1,0,0,1,.09-.056H2.6a.1.1,0,0,1,.039.008l10.391,4.33a.1.1,0,0,1,.051.138L12.539,33.6a.1.1,0,0,1-.09.056h-.088a.1.1,0,0,1-.039-.008L1.932,29.32a.1.1,0,0,1-.051-.138Zm1.126,4.466L1.919,33.1a.088.088,0,0,1-.049-.08v-.1a.09.09,0,0,1,.006-.033l.536-1.34,1.319.55-.6,1.506A.091.091,0,0,1,3.007,33.648Zm3.74,1.87-1.088-.544a.088.088,0,0,1-.049-.08v-.1a.09.09,0,0,1,.006-.033l.643-1.608,1.319.55-.709,1.773A.091.091,0,0,1,6.746,35.518Zm3.74,1.87L9.4,36.844a.088.088,0,0,1-.049-.08v-.1a.09.09,0,0,1,.006-.033l.75-1.875,1.319.55-.816,2.04a.091.091,0,0,1-.122.047ZM14.912,32.9a1.965,1.965,0,0,0-1.166-2.242l-1.779-.741h3.868l.058.007a16.045,16.045,0,0,1,13.495,11.8,4.644,4.644,0,0,0-2.275-.593h-2.1A11.923,11.923,0,0,0,14.912,32.9ZM1.87,43.007H23.376a4.656,4.656,0,0,0-.843,1.87H1.87Zm22.438,2.8a2.8,2.8,0,1,1,2.8,2.8,2.808,2.808,0,0,1-2.8-2.8ZM7.479,50.486h5.61v1.87H7.479Zm-5.61,3.74H22.532a4.656,4.656,0,0,0,.843,1.87H1.87Zm22.438-.935a2.808,2.808,0,0,1,2.8-2.8h2.8V56.1h-2.8a2.808,2.808,0,0,1-2.8-2.8ZM56.1,56.1h-5a8.4,8.4,0,0,0,3.134-6.545V36.85a4.1,4.1,0,0,0-1.209-2.918L51.7,35.254a2.242,2.242,0,0,1,.661,1.6v12.7A6.552,6.552,0,0,1,45.812,56.1H35.527V48.616h9.9a2.242,2.242,0,0,1,1.6.661l1.322-1.322a4.1,4.1,0,0,0-2.918-1.209h-.548v-6.7A8.737,8.737,0,0,1,49.1,32.589l-.962-1.6a10.617,10.617,0,0,0-5.129,9.058v6.7h-1.87V38.537a9.748,9.748,0,0,1,7.479-9.527A9.748,9.748,0,0,1,56.1,38.537Z" transform="translate(0)"/>
        <ellipse id="Elipse_11620" data-name="Elipse 11620" cx="0.474" cy="0.948" rx="0.474" ry="0.948" transform="translate(26.542 44.695)"/>
      </g>
    </g>
  </g>
</svg>
