<svg xmlns="http://www.w3.org/2000/svg" xmlns:xlink="http://www.w3.org/1999/xlink" width="108" height="108" viewBox="0 0 108 108">
  <defs>
    <filter id="Trazado_982547" x="0" y="0" width="108" height="108" filterUnits="userSpaceOnUse">
      <feOffset dy="3" input="SourceAlpha"/>
      <feGaussianBlur stdDeviation="3" result="blur"/>
      <feFlood flood-opacity="0.161"/>
      <feComposite operator="in" in2="blur"/>
      <feComposite in="SourceGraphic"/>
    </filter>
  </defs>
  <g id="_23" data-name="23" transform="translate(-746 -7680)">
    <g id="Grupo_1148534" data-name="Grupo 1148534" transform="translate(156 4253)">
      <g id="Grupo_1147066" data-name="Grupo 1147066" transform="translate(-26 -556)">
        <g transform="matrix(1, 0, 0, 1, 616, 3983)" filter="url(#Trazado_982547)">
          <g id="Trazado_982547-2" data-name="Trazado 982547" transform="translate(9 6)" fill="#f6f9fc">
            <path d="M 45 88.5 C 39.12687683105469 88.5 33.43022537231445 87.35007476806641 28.06830024719238 85.08217620849609 C 22.88852500915527 82.89131164550781 18.23629951477051 79.75458526611328 14.2408504486084 75.75914764404297 C 10.24541282653809 71.76370239257812 7.108687400817871 67.11147308349609 4.917825222015381 61.93170166015625 C 2.649924993515015 56.56977462768555 1.5 50.87312316894531 1.5 45 C 1.5 39.12687683105469 2.649924993515015 33.43022537231445 4.917825222015381 28.06830024719238 C 7.108687400817871 22.88852500915527 10.24541282653809 18.23629951477051 14.2408504486084 14.2408504486084 C 18.23629951477051 10.24541282653809 22.88852500915527 7.108687400817871 28.06830024719238 4.917825222015381 C 33.43022537231445 2.649924993515015 39.12687683105469 1.5 45 1.5 C 50.87312316894531 1.5 56.56977462768555 2.649924993515015 61.93170166015625 4.917825222015381 C 67.11147308349609 7.108687400817871 71.76370239257812 10.24541282653809 75.75914764404297 14.2408504486084 C 79.75458526611328 18.23629951477051 82.89131164550781 22.88852500915527 85.08217620849609 28.06830024719238 C 87.35007476806641 33.43022537231445 88.5 39.12687683105469 88.5 45 C 88.5 50.87312316894531 87.35007476806641 56.56977462768555 85.08217620849609 61.93170166015625 C 82.89131164550781 67.11147308349609 79.75458526611328 71.76370239257812 75.75914764404297 75.75914764404297 C 71.76370239257812 79.75458526611328 67.11147308349609 82.89131164550781 61.93170166015625 85.08217620849609 C 56.56977462768555 87.35007476806641 50.87312316894531 88.5 45 88.5 Z" stroke="none"/>
            <path d="M 45 3 C 39.32871246337891 3 33.82865524291992 4.110054016113281 28.65262985229492 6.299339294433594 C 23.65165710449219 8.414573669433594 19.15968322753906 11.44334411621094 15.301513671875 15.301513671875 C 11.44334411621094 19.15968322753906 8.414573669433594 23.65165710449219 6.299339294433594 28.65262985229492 C 4.110054016113281 33.82865524291992 3 39.32871246337891 3 45 C 3 50.67128753662109 4.110054016113281 56.17134475708008 6.299339294433594 61.34737396240234 C 8.414573669433594 66.34834289550781 11.44334411621094 70.84031677246094 15.301513671875 74.698486328125 C 19.15968322753906 78.55665588378906 23.65165710449219 81.58542633056641 28.65262985229492 83.70066070556641 C 33.82865524291992 85.88994598388672 39.32871246337891 87 45 87 C 50.67128753662109 87 56.17134475708008 85.88994598388672 61.34737396240234 83.70066070556641 C 66.34834289550781 81.58542633056641 70.84031677246094 78.55665588378906 74.698486328125 74.698486328125 C 78.55665588378906 70.84031677246094 81.58542633056641 66.34834289550781 83.70066070556641 61.34737396240234 C 85.88994598388672 56.17134475708008 87 50.67128753662109 87 45 C 87 39.32871246337891 85.88994598388672 33.82865524291992 83.70066070556641 28.65262985229492 C 81.58542633056641 23.65165710449219 78.55665588378906 19.15968322753906 74.698486328125 15.301513671875 C 70.84031677246094 11.44334411621094 66.34834289550781 8.414573669433594 61.34737396240234 6.299339294433594 C 56.17134475708008 4.110054016113281 50.67128753662109 3 45 3 M 45 0 C 69.85281372070312 0 90 20.14718627929688 90 45 C 90 69.85281372070312 69.85281372070312 90 45 90 C 20.14718627929688 90 0 69.85281372070312 0 45 C 0 20.14718627929688 20.14718627929688 0 45 0 Z" stroke="none" fill="#617080"/>
          </g>
        </g>
      </g>
    </g>
    <g id="pensamiento-lateral" transform="translate(761.504 7696.036)">
      <path id="Trazado_983728" data-name="Trazado 983728" d="M114.833,163.235c.817.281,1.363,1.1,1.487,2.656.016.233,0,3.984-.033,4.6h15.6c-.409-13.14,12.625-22.783,10.348-34.376A17.9,17.9,0,0,0,135.52,125.3c-7.78-5.941-23.716-4.956-29.859,2.731-1.253,1.869.214,2.28.387,3.858.131,1.19-1.376,5.5-1.706,7.4-.439,2.541,1.425,2.527,1.377,4.378-.024.937-.642,2.481-2.508,5.336-.531.823-.953,1.321-.839,2.2.2,1.52,2.43.785,3.153,2.258a1.888,1.888,0,0,1,.025,1.31c-.384.864-.314,1.284-.165,1.571a2.067,2.067,0,0,0,1.135.8,2.958,2.958,0,0,0-1.04,1.116,2,2,0,0,0,.211,1.419,2.745,2.745,0,0,1,.02,1.277c-.119.942-.24,2.118.59,2.8.68.559,1.838.552,3.375.419q2.741-.363,5.156-.929Z" transform="translate(-85.66 -102.293)" fill="#fdb0a0" fill-rule="evenodd"/>
      <path id="Trazado_983729" data-name="Trazado 983729" d="M132.745,171.592h9.468c-.409-13.14,12.625-22.783,10.348-34.376a17.9,17.9,0,0,0-6.718-10.813,20.482,20.482,0,0,0-10.151-3.676c-5.464.582-10.655,2.725-13.6,6.408-1.253,1.869.214,2.28.387,3.858.131,1.19-1.376,5.5-1.706,7.4-.439,2.541,1.425,2.527,1.377,4.378-.024.936-.642,2.481-2.508,5.336-.531.823-.953,1.321-.839,2.2.2,1.52,2.43.785,3.153,2.258a1.889,1.889,0,0,1,.025,1.31c-.385.864-.314,1.284-.165,1.571a2.067,2.067,0,0,0,1.135.8,2.957,2.957,0,0,0-1.04,1.116,2,2,0,0,0,.211,1.419,2.743,2.743,0,0,1,.02,1.277c-.119.942-.24,2.118.59,2.8a2.2,2.2,0,0,0,1.081.434l.173-.014q2.741-.363,5.156-.929s1.308-.329,1.945-.515a29.844,29.844,0,0,0,5.769-2.31.9.9,0,0,1,.856,1.591c-4.48,2.408-4.917,2.418-4.97,8.486Z" transform="translate(-99.972 -103.397)" fill="#ffcec0" fill-rule="evenodd"/>
      <path id="Trazado_983730" data-name="Trazado 983730" d="M466.929,314.989a2.5,2.5,0,1,1-.915-3.416A2.5,2.5,0,0,1,466.929,314.989Z" transform="translate(-399.104 -267.572)" fill="#99d100" fill-rule="evenodd"/>
      <path id="Trazado_983731" data-name="Trazado 983731" d="M463.879,317.17a2.5,2.5,0,0,1-1.281-3.589,1.914,1.914,0,1,1,1.281,3.589Z" transform="translate(-399.103 -268.664)" fill="#a8e304" fill-rule="evenodd"/>
      <circle id="Elipse_11621" data-name="Elipse 11621" cx="2.732" cy="2.732" r="2.732" transform="translate(32.757 10.226) rotate(-86.846)" fill="#fdc72e"/>
      <g id="Grupo_1149519" data-name="Grupo 1149519" transform="translate(4.901 5.051)">
        <path id="Trazado_983732" data-name="Trazado 983732" d="M229.831,17.3a2.733,2.733,0,1,1,1.848-2.586A2.733,2.733,0,0,1,229.831,17.3Z" transform="translate(-199.971 -12.132)" fill="#ffeb87" fill-rule="evenodd"/>
        <path id="Trazado_983733" data-name="Trazado 983733" d="M355.539,348.613a3.137,3.137,0,1,1-1.148-4.285,3.137,3.137,0,0,1,1.148,4.285Z" transform="translate(-305.96 -301.074)" fill="#2a92fa" fill-rule="evenodd"/>
        <path id="Trazado_983734" data-name="Trazado 983734" d="M351.938,350.914a3.137,3.137,0,1,1,1.834-1.442,3.139,3.139,0,0,1-1.834,1.442Z" transform="translate(-305.961 -301.933)" fill="#4eb1fc" fill-rule="evenodd"/>
        <path id="Trazado_983735" data-name="Trazado 983735" d="M79.5,72.586a3.108,3.108,0,1,1-1.138-4.246A3.108,3.108,0,0,1,79.5,72.586Z" transform="translate(-65.607 -60.72)" fill="#99d100" fill-rule="evenodd"/>
        <path id="Trazado_983736" data-name="Trazado 983736" d="M75.925,74.881a3.109,3.109,0,0,1,0-5.961,3.109,3.109,0,0,1,0,5.961Z" transform="translate(-65.607 -61.589)" fill="#a8e304" fill-rule="evenodd"/>
        <path id="Trazado_983737" data-name="Trazado 983737" d="M17.116,221.587a3.108,3.108,0,1,1-3.807-2.2,3.109,3.109,0,0,1,3.807,2.2Z" transform="translate(-11.005 -192.539)" fill="#2dcffc" fill-rule="evenodd"/>
        <path id="Trazado_983738" data-name="Trazado 983738" d="M13.229,226.242a3.109,3.109,0,0,1,0-5.961,3.109,3.109,0,0,1,0,5.961Z" transform="translate(-11.004 -193.409)" fill="#66deff" fill-rule="evenodd"/>
        <path id="Trazado_983739" data-name="Trazado 983739" d="M182.01,162.6l-2.349-.463-1.032-2.487,1.335-1.99-2.751-2.751-1.99,1.335-2.487-1.032-.463-2.349h-3.891l-.463,2.349-2.487,1.032-1.99-1.335-2.751,2.751,1.335,1.99-1.032,2.487-2.35.463V166.5l2.35.463,1.032,2.487-1.335,1.99,2.751,2.751,1.99-1.335,2.487,1.032.463,2.349h3.891l.463-2.349,2.487-1.032,1.99,1.335,2.751-2.751-1.335-1.99,1.032-2.487,2.349-.463Z" transform="translate(-139.583 -134.697)" fill="#f23353" fill-rule="evenodd"/>
        <path id="Trazado_983740" data-name="Trazado 983740" d="M180.875,166.495l-2.349.463-1.032,2.487,1.335,1.99-2.3,2.3-1.744-1.17-3.189,1.323-.463,2.349h-2.755l-.463-2.349-3.189-1.323-1.744,1.17-2.3-2.3,1.335-1.99-1.032-2.487-2.35-.463V162.6l2.35-.463,1.032-2.487-1.335-1.99,2.3-2.3,1.744,1.17,3.189-1.323.463-2.349h2.755l.463,2.349,3.189,1.323,1.744-1.17,2.3,2.3-1.335,1.99,1.032,2.487,2.349.463Z" transform="translate(-139.583 -134.697)" fill="#ff5471" fill-rule="evenodd"/>
      </g>
      <circle id="Elipse_11622" data-name="Elipse 11622" cx="6.01" cy="6.01" r="6.01" transform="translate(26.438 36.854) rotate(-58.28)" fill="#f23353"/>
      <circle id="Elipse_11623" data-name="Elipse 11623" cx="5.986" cy="5.986" r="5.986" transform="matrix(0.952, -0.305, 0.305, 0.952, 28.105, 31.027)" fill="#f3f3ff"/>
      <path id="Trazado_983741" data-name="Trazado 983741" d="M344.4,35.847a1.846,1.846,0,0,0,1.84,1.84h6.776a1.846,1.846,0,0,0,1.84-1.84V33.32c0-5.065,5.229-6.488,5.229-13.295,0-6.245-5.229-9.368-10.457-9.368s-10.457,3.123-10.457,9.368c0,6.807,5.229,8.23,5.229,13.295v2.527Z" transform="translate(-291.908 -5.798)" fill="#fcdb35" fill-rule="evenodd"/>
      <path id="Trazado_983742" data-name="Trazado 983742" d="M344.4,35.847a1.846,1.846,0,0,0,1.84,1.84h4.7a1.846,1.846,0,0,0,1.84-1.84v-3c0-5.065,5.229-6.488,5.229-13.295a8.91,8.91,0,0,0-6.569-8.767,13.029,13.029,0,0,0-1.81-.126c-5.229,0-10.457,3.123-10.457,9.368,0,6.807,5.229,8.23,5.229,13.295v2.527Z" transform="translate(-291.907 -5.798)" fill="#ffeb87" fill-rule="evenodd"/>
      <path id="Trazado_983743" data-name="Trazado 983743" d="M404.095,210.034v3.243a1.414,1.414,0,0,1-1.41,1.41h-2.779a1.414,1.414,0,0,1-1.41-1.41v-3.243h5.6Z" transform="translate(-343.57 -179.434)" fill="#495586" fill-rule="evenodd"/>
      <path id="Trazado_983744" data-name="Trazado 983744" d="M400.533,214.687h-.627a1.414,1.414,0,0,1-1.41-1.41v-3.243h3.446v3.243A1.414,1.414,0,0,1,400.533,214.687Z" transform="translate(-343.57 -179.434)" fill="#5d689e" fill-rule="evenodd"/>
      <path id="Trazado_983745" data-name="Trazado 983745" d="M390.111,193.592a1.847,1.847,0,0,1-1.842,1.842h-6.782a1.847,1.847,0,0,1-1.842-1.842v-1.805h10.465Z" transform="translate(-327.153 -163.543)" fill="#5d689e" fill-rule="evenodd"/>
      <path id="Trazado_983746" data-name="Trazado 983746" d="M386.187,195.434h-4.7a1.847,1.847,0,0,1-1.842-1.842v-1.805h8.383v1.62A1.947,1.947,0,0,1,386.187,195.434Z" transform="translate(-327.153 -163.543)" fill="#7986bf" fill-rule="evenodd"/>
      <path id="Trazado_983747" data-name="Trazado 983747" d="M67.04,46.965a1.6,1.6,0,0,1-2.179.584,1.6,1.6,0,0,1,.8-2.979A1.6,1.6,0,0,1,67.2,45.753a1.588,1.588,0,0,1-.162,1.212ZM53.7,52.138a2.235,2.235,0,1,1-2.516-3.274,2.272,2.272,0,0,1,.585-.077,2.233,2.233,0,0,1,1.93,3.351ZM45.279,67.261H31.557c.019-1.339.025-3.529.012-3.757A5.241,5.241,0,0,0,31,61.389a32.458,32.458,0,0,0,6.737-2.624.9.9,0,0,0-.853-1.592,38.168,38.168,0,0,1-12.957,3.778,4.7,4.7,0,0,1-2.7-.219c-.43-.354-.374-1.141-.268-1.984a3.276,3.276,0,0,0-.1-1.773c-.012-.024-.019-.046-.031-.069a1.188,1.188,0,0,1-.137-.654,2.081,2.081,0,0,1,.648-.648.755.755,0,0,0,.068-.051A.9.9,0,0,0,21.233,54a1.94,1.94,0,0,1-.685-.384c-.044-.076-.019-.328.187-.784a.887.887,0,0,0,.056-.179,2.762,2.762,0,0,0-.093-1.895,3.18,3.18,0,0,0-2.266-1.562c-.735-.207-.778-.268-.8-.413-.056-.416.087-.659.511-1.3.062-.092.124-.187.187-.283,1.8-2.758,2.621-4.548,2.652-5.8a3.351,3.351,0,0,0-.878-2.306,2.008,2.008,0,0,1-.511-1.935c.062-.359.174-.829.305-1.349h3.15V36.85a.9.9,0,0,0,.729.887l1.874.37L26.32,39.7l-1.065,1.589a.9.9,0,0,0,.106,1.142l2.752,2.753a.908.908,0,0,0,1.146.111l1.588-1.065,1.594.661.374,1.876a.9.9,0,0,0,.884.729H37.59a.9.9,0,0,0,.884-.729l.374-1.876,1.594-.661L42.029,45.3a.908.908,0,0,0,1.146-.111l.735-.737,4.427,4.429L48.262,49a4.04,4.04,0,0,0,.878,5.092c-2.017,4.007-3.786,8.356-3.86,13.167ZM21.308,29.513a4.351,4.351,0,0,0-.6-1.684c-.336-.618-.442-.81.037-1.535a13.252,13.252,0,0,1,2.59-2.416L26.1,26.638l-.741.737a.9.9,0,0,0-.106,1.143l1.065,1.589L25.654,31.7l-1.874.37a.9.9,0,0,0-.729.887V34H20.4a16.016,16.016,0,0,0,.909-4.487Zm10.348-8.961a22.125,22.125,0,0,0-6.749,2.337l2.472,2.472.735-.737a.908.908,0,0,1,1.146-.112l1.588,1.066,1.594-.661.374-1.876a.9.9,0,0,1,.884-.729h1.04V20.168a27.332,27.332,0,0,0-3.082.384ZM33.817,7.636a1.827,1.827,0,1,1,1.824,1.828,1.831,1.831,0,0,1-1.824-1.828Zm3.35,18.1-.318-1.622H34.44l-.318,1.622a.911.911,0,0,1-.542.659L31.09,27.432a.9.9,0,0,1-.847-.084l-1.376-.922-1.7,1.7.922,1.374a.9.9,0,0,1,.081.849l-1.027,2.489a.915.915,0,0,1-.66.54l-1.625.319v2.406l1.625.32a.914.914,0,0,1,.66.54l1.027,2.488a.9.9,0,0,1-.081.85l-.922,1.374,1.7,1.7,1.376-.922a.9.9,0,0,1,.847-.084l2.491,1.032a.912.912,0,0,1,.542.66l.318,1.621h2.41l.318-1.621a.9.9,0,0,1,.542-.66L40.2,42.375a.9.9,0,0,1,.847.084l1.376.922,1.7-1.7L43.2,40.305a.917.917,0,0,1-.087-.85l1.034-2.488a.914.914,0,0,1,.66-.54l1.625-.32V33.7l-1.625-.319a.916.916,0,0,1-.66-.54l-1.034-2.489A.916.916,0,0,1,43.2,29.5l.922-1.374-1.7-1.7-1.376.922a.9.9,0,0,1-.847.084L37.708,26.4a.9.9,0,0,1-.542-.659ZM8.582,37.033a2.205,2.205,0,1,1-1.146-4.259,2.281,2.281,0,0,1,.579-.076,2.206,2.206,0,0,1,.567,4.335Zm8.094-19.541a2.205,2.205,0,1,1-.567-4.334,2.166,2.166,0,0,1,1.1.3,2.2,2.2,0,0,1-.529,4.039Zm52.27,27.793a3.355,3.355,0,0,0-1.588-2.067,3.4,3.4,0,0,0-4.645,1.246,3.358,3.358,0,0,0-.448,1.931l-7.079,2.472a4.057,4.057,0,0,0-.8-.92A29,29,0,0,0,57.608,38.5a.9.9,0,1,0-1.793-.21,27.242,27.242,0,0,1-3.032,8.823,4.013,4.013,0,0,0-2.067.007,4.069,4.069,0,0,0-1.1.478l-4.427-4.428.741-.737a.9.9,0,0,0,.106-1.142L44.968,39.7l.666-1.595,1.874-.37a.9.9,0,0,0,.729-.887V32.957a.9.9,0,0,0-.729-.887l-1.874-.37-.666-1.594,1.065-1.59a.9.9,0,0,0-.106-1.142l-2.752-2.752a.908.908,0,0,0-1.146-.112l-1.588,1.066-1.594-.661-.374-1.876a.9.9,0,0,0-.884-.729H36.55V20.1a24.892,24.892,0,0,1,8.511,1.389.9.9,0,1,0,.616-1.7,26.709,26.709,0,0,0-9.128-1.5V11.159a3.633,3.633,0,1,0-1.812,0v7.2a29.17,29.17,0,0,0-3.412.42,23.62,23.62,0,0,0-7.739,2.792l-4.078-4.079c.019-.039.044-.078.069-.118a4.005,4.005,0,1,0-3.48,2.008,4.077,4.077,0,0,0,1.046-.138,4.141,4.141,0,0,0,1.09-.471l3.817,3.819a14.581,14.581,0,0,0-2.733,2.608.352.352,0,0,0-.044.061,2.836,2.836,0,0,0-.149,3.435,2.814,2.814,0,0,1,.386,1.02,21.962,21.962,0,0,1-.9,3.994c-.031.1-.056.2-.081.3H11.919l-.037-.134a4.01,4.01,0,1,0-7.745,2.077,4.011,4.011,0,0,0,7.783-.135h6.12c-.093.385-.174.738-.224,1.041a3.749,3.749,0,0,0,.859,3.345,1.615,1.615,0,0,1,.5,1.159c-.019.862-.816,2.5-2.36,4.863-.056.094-.118.184-.174.271a3.4,3.4,0,0,0-.8,2.531c.181,1.377,1.332,1.7,2.1,1.918.654.184.978.305,1.133.618.025.046.068.141-.031.636a2.54,2.54,0,0,0-.1,2.262,2.045,2.045,0,0,0,.423.546,3.2,3.2,0,0,0-.342.558.6.6,0,0,0-.037.1,2.83,2.83,0,0,0,.237,2.076,3.7,3.7,0,0,1-.05.793c-.118.969-.324,2.59.915,3.606.984.809,2.466.755,4.022.621l.037-.005c1.731-.229,3.381-.521,4.931-.874a2.285,2.285,0,0,1,.685,1.763c.013.336,0,3.9-.031,4.48a.9.9,0,0,0,.9.953H46.2a.9.9,0,0,0,.9-.931c-.149-4.777,1.613-9.162,3.642-13.2a3.983,3.983,0,0,0,1.015.132,4.075,4.075,0,0,0,1.052-.139,4.041,4.041,0,0,0,2.97-4.349L62.857,48.1a3.454,3.454,0,0,0,1.1,1.012,3.377,3.377,0,0,0,1.694.458,3.445,3.445,0,0,0,.89-.118,3.4,3.4,0,0,0,2.4-4.169Zm-33.3-15.472A5.09,5.09,0,1,0,40.734,34.9,5.1,5.1,0,0,0,35.641,29.813ZM28.749,34.9a6.9,6.9,0,1,0,6.893-6.9,6.9,6.9,0,0,0-6.893,6.9ZM54.974,18.286a4.206,4.206,0,0,1-1.625-1.831c-.648-1.381-.417-2.106-.3-2.176h.013a.655.655,0,0,1,.342.161c.629.478,1.289,1.714,1.569,3.847Zm5.5,0c.28-2.133.946-3.37,1.569-3.847a.678.678,0,0,1,.342-.161H62.4c.118.071.355.8-.293,2.177a4.219,4.219,0,0,1-1.631,1.831ZM57.726,5.808c4.589,0,9.533,2.642,9.533,8.444,0,3.357-1.389,5.29-2.733,7.162-1.189,1.664-2.422,3.383-2.484,5.9H60.335V20.372a6.187,6.187,0,0,0,3.406-3.153c.809-1.74.8-3.3-.019-4.172a1.874,1.874,0,0,0-2.123-.421c-1.314.523-2.708,2.464-3.014,6.349a5.33,5.33,0,0,1-1.718,0c-.305-3.885-1.7-5.826-3.02-6.349a1.864,1.864,0,0,0-2.117.421c-.828.873-.834,2.432-.025,4.172a6.219,6.219,0,0,0,3.412,3.153v6.945H53.411c-.068-2.52-1.3-4.239-2.491-5.9-1.339-1.871-2.727-3.8-2.727-7.162,0-5.8,4.944-8.444,9.533-8.444Zm.8,21.509h-1.6V20.809a7.552,7.552,0,0,0,1.6,0Zm2.584,3.637H54.345a.933.933,0,0,1-.934-.933v-.9h8.63v.9a.933.933,0,0,1-.934.933Zm-2,3.352H56.338a.508.508,0,0,1-.5-.5V32.761h3.773V33.8a.509.509,0,0,1-.5.5Zm-7.5-6.787v2.5a2.74,2.74,0,0,0,2.428,2.721V33.8a2.309,2.309,0,0,0,2.3,2.309h2.771a2.31,2.31,0,0,0,2.31-2.309V32.742a2.745,2.745,0,0,0,2.428-2.721v-2.5c0-2.05,1-3.441,2.148-5.052,1.438-2,3.07-4.277,3.07-8.214a9.505,9.505,0,0,0-3.605-7.718,13.078,13.078,0,0,0-15.472,0,9.518,9.518,0,0,0-3.6,7.718c0,3.937,1.625,6.209,3.063,8.214,1.158,1.611,2.154,3,2.154,5.052Z" transform="translate(0)" fill-rule="evenodd"/>
    </g>
  </g>
</svg>
