<svg xmlns="http://www.w3.org/2000/svg" xmlns:xlink="http://www.w3.org/1999/xlink" width="108" height="108" viewBox="0 0 108 108">
  <defs>
    <filter id="Trazado_982547" x="0" y="0" width="108" height="108" filterUnits="userSpaceOnUse">
      <feOffset dy="3" input="SourceAlpha"/>
      <feGaussianBlur stdDeviation="3" result="blur"/>
      <feFlood flood-opacity="0.161"/>
      <feComposite operator="in" in2="blur"/>
      <feComposite in="SourceGraphic"/>
    </filter>
  </defs>
  <g id="_24" data-name="24" transform="translate(-1166 -7680)">
    <g id="Grupo_1148550" data-name="Grupo 1148550" transform="translate(261 4253)">
      <g id="Grupo_1147067" data-name="Grupo 1147067" transform="translate(289 -556)">
        <g transform="matrix(1, 0, 0, 1, 616, 3983)" filter="url(#Trazado_982547)">
          <g id="Trazado_982547-2" data-name="Trazado 982547" transform="translate(9 6)" fill="#f6f9fc">
            <path d="M 45 88.5 C 39.12687683105469 88.5 33.43022537231445 87.35007476806641 28.06830024719238 85.08217620849609 C 22.88852500915527 82.89131164550781 18.23629951477051 79.75458526611328 14.2408504486084 75.75914764404297 C 10.24541282653809 71.76370239257812 7.108687400817871 67.11147308349609 4.917825222015381 61.93170166015625 C 2.649924993515015 56.56977462768555 1.5 50.87312316894531 1.5 45 C 1.5 39.12687683105469 2.649924993515015 33.43022537231445 4.917825222015381 28.06830024719238 C 7.108687400817871 22.88852500915527 10.24541282653809 18.23629951477051 14.2408504486084 14.2408504486084 C 18.23629951477051 10.24541282653809 22.88852500915527 7.108687400817871 28.06830024719238 4.917825222015381 C 33.43022537231445 2.649924993515015 39.12687683105469 1.5 45 1.5 C 50.87312316894531 1.5 56.56977462768555 2.649924993515015 61.93170166015625 4.917825222015381 C 67.11147308349609 7.108687400817871 71.76370239257812 10.24541282653809 75.75914764404297 14.2408504486084 C 79.75458526611328 18.23629951477051 82.89131164550781 22.88852500915527 85.08217620849609 28.06830024719238 C 87.35007476806641 33.43022537231445 88.5 39.12687683105469 88.5 45 C 88.5 50.87312316894531 87.35007476806641 56.56977462768555 85.08217620849609 61.93170166015625 C 82.89131164550781 67.11147308349609 79.75458526611328 71.76370239257812 75.75914764404297 75.75914764404297 C 71.76370239257812 79.75458526611328 67.11147308349609 82.89131164550781 61.93170166015625 85.08217620849609 C 56.56977462768555 87.35007476806641 50.87312316894531 88.5 45 88.5 Z" stroke="none"/>
            <path d="M 45 3 C 39.32871246337891 3 33.82865524291992 4.110054016113281 28.65262985229492 6.299339294433594 C 23.65165710449219 8.414573669433594 19.15968322753906 11.44334411621094 15.301513671875 15.301513671875 C 11.44334411621094 19.15968322753906 8.414573669433594 23.65165710449219 6.299339294433594 28.65262985229492 C 4.110054016113281 33.82865524291992 3 39.32871246337891 3 45 C 3 50.67128753662109 4.110054016113281 56.17134475708008 6.299339294433594 61.34737396240234 C 8.414573669433594 66.34834289550781 11.44334411621094 70.84031677246094 15.301513671875 74.698486328125 C 19.15968322753906 78.55665588378906 23.65165710449219 81.58542633056641 28.65262985229492 83.70066070556641 C 33.82865524291992 85.88994598388672 39.32871246337891 87 45 87 C 50.67128753662109 87 56.17134475708008 85.88994598388672 61.34737396240234 83.70066070556641 C 66.34834289550781 81.58542633056641 70.84031677246094 78.55665588378906 74.698486328125 74.698486328125 C 78.55665588378906 70.84031677246094 81.58542633056641 66.34834289550781 83.70066070556641 61.34737396240234 C 85.88994598388672 56.17134475708008 87 50.67128753662109 87 45 C 87 39.32871246337891 85.88994598388672 33.82865524291992 83.70066070556641 28.65262985229492 C 81.58542633056641 23.65165710449219 78.55665588378906 19.15968322753906 74.698486328125 15.301513671875 C 70.84031677246094 11.44334411621094 66.34834289550781 8.414573669433594 61.34737396240234 6.299339294433594 C 56.17134475708008 4.110054016113281 50.67128753662109 3 45 3 M 45 0 C 69.85281372070312 0 90 20.14718627929688 90 45 C 90 69.85281372070312 69.85281372070312 90 45 90 C 20.14718627929688 90 0 69.85281372070312 0 45 C 0 20.14718627929688 20.14718627929688 0 45 0 Z" stroke="none" fill="#617080"/>
          </g>
        </g>
      </g>
    </g>
    <g id="compromiso" transform="translate(1187.398 7704.806)">
      <path id="Trazado_983748" data-name="Trazado 983748" d="M260.951,133.631l-20.869,9.708,2.028,22.923a21.758,21.758,0,0,0,18.842-32.631Z" transform="translate(-209.507 -116.617)" fill="#80d261"/>
      <path id="Trazado_983749" data-name="Trazado 983749" d="M88.073,133.631a21.758,21.758,0,0,0,18.842,32.631V142.4Z" transform="translate(-74.313 -116.617)" fill="#01c0fa"/>
      <path id="Trazado_983750" data-name="Trazado 983750" d="M145.71,59.1a21.76,21.76,0,0,0-37.683,0l18.842,10.878Z" transform="translate(-94.266 -42.083)" fill="#ffc344"/>
      <path id="Trazado_983751" data-name="Trazado 983751" d="M273.537,133.631l-4.745,2.207A21.778,21.778,0,0,1,254.5,164.1l.191,2.162a21.758,21.758,0,0,0,18.842-32.631Z" transform="translate(-222.093 -116.617)" fill="#68ca44"/>
      <path id="Trazado_983752" data-name="Trazado 983752" d="M277.476,61.92l4.59-2.65a21.748,21.748,0,0,0-17.788-10.85A21.813,21.813,0,0,1,277.476,61.92Z" transform="translate(-230.622 -42.255)" fill="#feb237"/>
      <path id="Trazado_983753" data-name="Trazado 983753" d="M192.22,256a1.978,1.978,0,0,0-2.073,1.975v-3.843a2.014,2.014,0,0,0-1.882-2.031,1.978,1.978,0,0,0-2.073,1.975v-1.914a2.014,2.014,0,0,0-1.882-2.031,1.978,1.978,0,0,0-2.073,1.975v1.97a1.978,1.978,0,0,0-2.073-1.975,2.014,2.014,0,0,0-1.882,2.031V265.6l-1-1a2.547,2.547,0,0,0-3.6,0l-.546.546a.637.637,0,0,0,0,.9l7.407,7.407a7.955,7.955,0,0,0,.767.686.629.629,0,0,1,.238.5v2.152l3.955,3,5.933-3v-2.679a.632.632,0,0,1,.2-.458,7.888,7.888,0,0,0,2.464-5.736v-9.888A2.014,2.014,0,0,0,192.22,256Z" transform="translate(-150.925 -218.284)" fill="#f1b0a2"/>
      <path id="Trazado_983754" data-name="Trazado 983754" d="M236.808,459.535H225.58a.637.637,0,0,0-.637.637v4.453a.637.637,0,0,0,.637.637h10.592a.637.637,0,0,0,.637-.637Z" transform="translate(-196.296 -401.025)" fill="#c8effe"/>
      <path id="Trazado_983755" data-name="Trazado 983755" d="M277.653,54.75a1.978,1.978,0,0,0,2.747.808l-3.328,1.922a2.014,2.014,0,0,0-.818,2.645,1.978,1.978,0,0,0,2.747.808l-1.657.957a2.014,2.014,0,0,0-.818,2.645,1.978,1.978,0,0,0,2.747.808l1.706-.985a1.978,1.978,0,0,0-.674,2.783,2.014,2.014,0,0,0,2.7.614l9.933-5.735-.364,1.36a2.547,2.547,0,0,0,1.8,3.119l.746.2a.637.637,0,0,0,.78-.45l2.711-10.118a7.963,7.963,0,0,0,.211-1.007.628.628,0,0,1,.31-.453l1.863-1.076.621-4.925-5.565-3.638-2.32,1.34a.633.633,0,0,1-.5.055,7.888,7.888,0,0,0-6.2.735L278.472,52.1a2.014,2.014,0,0,0-.818,2.645Z" transform="translate(-240.888 -39.299)" fill="#ffcebf"/>
      <path id="Trazado_983756" data-name="Trazado 983756" d="M433.2,12.29l5.614,9.724a.637.637,0,0,0,.87.233l2.277-1.315a.637.637,0,0,0,.318-.551V8.15a.637.637,0,0,0-.955-.551Z" transform="translate(-378.033 -6.556)" fill="#d5efc8"/>
      <path id="Trazado_983757" data-name="Trazado 983757" d="M49.838,80.382a1.978,1.978,0,0,0-.674-2.783l3.328,1.922a2.014,2.014,0,0,0,2.7-.614,1.978,1.978,0,0,0-.674-2.783l1.657.957a2.014,2.014,0,0,0,2.7-.614,1.978,1.978,0,0,0-.674-2.783L56.5,72.7a1.978,1.978,0,0,0,2.747-.808,2.014,2.014,0,0,0-.818-2.645l-9.933-5.735,1.36-.364a2.547,2.547,0,0,0,1.8-3.119l-.2-.746a.637.637,0,0,0-.78-.45L40.556,61.542a7.948,7.948,0,0,0-.978.321.628.628,0,0,1-.548-.042l-1.863-1.076-4.576,1.925-.368,6.638,2.32,1.34a.632.632,0,0,1,.3.4,7.888,7.888,0,0,0,3.736,5L47.138,81A2.015,2.015,0,0,0,49.838,80.382Z" transform="translate(-28.114 -51.322)" fill="#fff3de"/>
      <path id="Trazado_983758" data-name="Trazado 983758" d="M16.267,28.372,10.653,38.1,7.824,36.463a.637.637,0,0,1-.318-.551V23.681a.637.637,0,0,1,.955-.551L16.034,27.5A.637.637,0,0,1,16.267,28.372Z" transform="translate(-6.544 -20.11)" fill="#ffc344"/>
      <path id="Trazado_983759" data-name="Trazado 983759" d="M64.4.215a1.575,1.575,0,0,0-1.592,0L54.69,4.9l0,0-2.2,1.269a8.783,8.783,0,0,0-6.819.86L43.783,8.124A22.756,22.756,0,0,0,23.8,6.953a1.608,1.608,0,0,0-.283-.207,1.582,1.582,0,0,0-1.208-.159L12.2,9.3a8.934,8.934,0,0,0-.943.3l-.9-.522.193-.334a1.591,1.591,0,0,0-.583-2.174L2.394,2.193a1.575,1.575,0,0,0-1.592,0,1.576,1.576,0,0,0-.8,1.378V15.8A1.6,1.6,0,0,0,.8,17.18l5.026,2.9a8.783,8.783,0,0,0,4.155,5.476l.028.016a23.061,23.061,0,0,0-.117,2.319,22.674,22.674,0,0,0,5.739,15.09.955.955,0,1,0,1.427-1.27A20.766,20.766,0,0,1,11.8,27.892c0-.42.013-.842.038-1.262l6.7,3.871a3.028,3.028,0,0,0,1.517.409,2.922,2.922,0,0,0,2.891-2.431l.946.546a2.957,2.957,0,0,0,3.981-.926,2.926,2.926,0,0,0,.443-1.207,3,3,0,0,0,.812.1l2.51,1.449v2.951a2.941,2.941,0,0,0-1.194,1.687A2.937,2.937,0,0,0,26.4,35.85v9.3a3.508,3.508,0,0,0-4.317.5l-.119.119c-.577-.344-1.139-.717-1.679-1.115a.955.955,0,1,0-1.132,1.538,22.8,22.8,0,0,0,1.925,1.272,1.584,1.584,0,0,0,.459.982l7.4,7.4a8.947,8.947,0,0,0,.731.667v1.043h-.386a1.593,1.593,0,0,0-1.592,1.592V63.6a1.593,1.593,0,0,0,1.592,1.592H39.876A1.593,1.593,0,0,0,41.467,63.6V55.973a8.783,8.783,0,0,0,2.665-6.336V47.459A22.744,22.744,0,0,0,55.309,28.088a1.584,1.584,0,0,0,.624-.891l2.709-10.109a8.968,8.968,0,0,0,.212-.966l.9-.522.193.334a1.593,1.593,0,0,0,2.174.583L64.4,15.2a1.6,1.6,0,0,0,.8-1.378V1.594A1.576,1.576,0,0,0,64.4.215ZM30.28,20.13a1.022,1.022,0,0,1-1.421.419l0,0-6.847-3.953a.955.955,0,1,0-.955,1.654L27.9,22.2l.006,0,1.7.981a1.022,1.022,0,0,1,.348,1.44,1.063,1.063,0,0,1-1.419.3l-8.508-4.912a.955.955,0,0,0-.955,1.654l6.85,3.955a1.022,1.022,0,0,1,.348,1.44,1.063,1.063,0,0,1-1.419.3l-6.8-3.927A.955.955,0,0,0,17.1,25.1L20.572,27.1a1.022,1.022,0,0,1,.348,1.44,1.063,1.063,0,0,1-1.419.3L10.938,23.9a6.894,6.894,0,0,1-3.285-4.4A1.6,1.6,0,0,0,6.907,18.5l-1.493-.862,1.434-2.483A.955.955,0,1,0,5.193,14.2L3.759,16.682,1.917,15.618V4.122L8.737,8.06,7.476,10.244A.955.955,0,1,0,9.13,11.2l.272-.471,1.036.6a1.573,1.573,0,0,0,1.381.1,7.05,7.05,0,0,1,.869-.285L22.5,8.514l.118.438A1.591,1.591,0,0,1,21.491,10.9l-1.36.365a.955.955,0,0,0-.23,1.749l9.933,5.735a1.064,1.064,0,0,1,.447,1.38Zm1,5.9a2.935,2.935,0,0,0,.664-2.647,2.946,2.946,0,0,0-.788-1.392,2.937,2.937,0,0,0-.372-4.893l-8.049-4.647a3.5,3.5,0,0,0,1.782-3.726,20.853,20.853,0,0,1,17.311.528l-4.726,2.729a2.938,2.938,0,0,0-.453,4.828l-.946.546a2.937,2.937,0,0,0-.365,4.9,2.939,2.939,0,0,0-.608,3.307L32.6,26.79Zm8.273,37.253H29.6V59.465h9.955Zm2.665-13.645a6.893,6.893,0,0,1-2.166,5.044,1.6,1.6,0,0,0-.5,1.15v1.724H31.58v-1.2a1.575,1.575,0,0,0-.6-1.247,7.066,7.066,0,0,1-.681-.61L23.114,47.32,23.435,47a1.593,1.593,0,0,1,2.251,0l1,1a.955.955,0,0,0,1.63-.675V35.851a1.063,1.063,0,0,1,.972-1.077,1.022,1.022,0,0,1,1.073,1.021V43.7a.955.955,0,1,0,1.91,0v-9.88A1.022,1.022,0,0,1,33.34,32.8a1.063,1.063,0,0,1,.972,1.077V43.7a.955.955,0,0,0,1.91,0v-7.91A1.022,1.022,0,0,1,37.3,34.773a1.063,1.063,0,0,1,.972,1.077V43.7a.955.955,0,0,0,1.91,0V39.694a1.022,1.022,0,0,1,1.073-1.021,1.063,1.063,0,0,1,.972,1.077v9.888ZM57.766,14.545a1.574,1.574,0,0,0-.778,1.145,7.072,7.072,0,0,1-.188.9L54.171,26.4l-.438-.117a1.593,1.593,0,0,1-1.126-1.949l.364-1.36a.955.955,0,0,0-1.4-1.074l-2.861,1.652a.955.955,0,0,0,.955,1.654l.979-.565a3.508,3.508,0,0,0,2.594,3.488l.16.043A20.833,20.833,0,0,1,44.132,45.2V39.75a2.937,2.937,0,0,0-3.955-2.807V35.85a2.937,2.937,0,0,0-4.06-2.765,2.939,2.939,0,0,0-2.56-2.18V28.444l2.555-1.475a2.943,2.943,0,0,0,2.058.19,2.921,2.921,0,0,0,2.907,2.534,3.03,3.03,0,0,0,1.517-.409l3.159-1.824a.955.955,0,0,0-.955-1.654l-3.159,1.824a1.064,1.064,0,0,1-1.419-.3,1.022,1.022,0,0,1,.348-1.44h0l6.85-3.955a.955.955,0,0,0-.955-1.654L39.617,24.23l0,0,0,0-1.7.983a1.022,1.022,0,0,1-1.421-.419,1.063,1.063,0,0,1,.447-1.38l1.655-.955h0l6.85-3.955a.955.955,0,0,0-.955-1.654L37.64,20.8l0,0a1.022,1.022,0,0,1-1.421-.419,1.063,1.063,0,0,1,.447-1.38l3.325-1.92,0,0,3.474-2.006a.955.955,0,0,0-.955-1.654l-3.474,2.006h0a1.022,1.022,0,0,1-1.419-.42,1.063,1.063,0,0,1,.447-1.38l8.563-4.944a6.894,6.894,0,0,1,5.451-.646A1.6,1.6,0,0,0,53.321,7.9l1.493-.862L58.8,13.946Zm5.522-.9L61.445,14.7l-.511-.884h0L56.468,6.083l6.82-3.938v11.5Z" transform="translate(0 0)"/>
    </g>
  </g>
</svg>
