<svg xmlns="http://www.w3.org/2000/svg" xmlns:xlink="http://www.w3.org/1999/xlink" width="108" height="108" viewBox="0 0 108 108">
  <defs>
    <filter id="Trazado_982547" x="0" y="0" width="108" height="108" filterUnits="userSpaceOnUse">
      <feOffset dy="3" input="SourceAlpha"/>
      <feGaussianBlur stdDeviation="3" result="blur"/>
      <feFlood flood-opacity="0.161"/>
      <feComposite operator="in" in2="blur"/>
      <feComposite in="SourceGraphic"/>
    </filter>
  </defs>
  <g id="Grupo_1149843" data-name="Grupo 1149843" transform="translate(-174 -6781)">
    <g id="Grupo_1149525" data-name="Grupo 1149525" transform="translate(-18 -3405)">
      <g id="Grupo_1149261" data-name="Grupo 1149261" transform="translate(-83 6759)">
        <g id="Grupo_1147065" data-name="Grupo 1147065" transform="translate(-341 -556)">
          <g transform="matrix(1, 0, 0, 1, 616, 3983)" filter="url(#Trazado_982547)">
            <g id="Trazado_982547-2" data-name="Trazado 982547" transform="translate(9 6)" fill="#eff4fa">
              <path d="M 45 88.5 C 39.12687683105469 88.5 33.43022537231445 87.35007476806641 28.06830024719238 85.08217620849609 C 22.88852500915527 82.89131164550781 18.23629951477051 79.75458526611328 14.2408504486084 75.75914764404297 C 10.24541282653809 71.76370239257812 7.108687400817871 67.11147308349609 4.917825222015381 61.93170166015625 C 2.649924993515015 56.56977462768555 1.5 50.87312316894531 1.5 45 C 1.5 39.12687683105469 2.649924993515015 33.43022537231445 4.917825222015381 28.06830024719238 C 7.108687400817871 22.88852500915527 10.24541282653809 18.23629951477051 14.2408504486084 14.2408504486084 C 18.23629951477051 10.24541282653809 22.88852500915527 7.108687400817871 28.06830024719238 4.917825222015381 C 33.43022537231445 2.649924993515015 39.12687683105469 1.5 45 1.5 C 50.87312316894531 1.5 56.56977462768555 2.649924993515015 61.93170166015625 4.917825222015381 C 67.11147308349609 7.108687400817871 71.76370239257812 10.24541282653809 75.75914764404297 14.2408504486084 C 79.75458526611328 18.23629951477051 82.89131164550781 22.88852500915527 85.08217620849609 28.06830024719238 C 87.35007476806641 33.43022537231445 88.5 39.12687683105469 88.5 45 C 88.5 50.87312316894531 87.35007476806641 56.56977462768555 85.08217620849609 61.93170166015625 C 82.89131164550781 67.11147308349609 79.75458526611328 71.76370239257812 75.75914764404297 75.75914764404297 C 71.76370239257812 79.75458526611328 67.11147308349609 82.89131164550781 61.93170166015625 85.08217620849609 C 56.56977462768555 87.35007476806641 50.87312316894531 88.5 45 88.5 Z" stroke="none"/>
              <path d="M 45 3 C 39.32871246337891 3 33.82865524291992 4.110054016113281 28.65262985229492 6.299339294433594 C 23.65165710449219 8.414573669433594 19.15968322753906 11.44334411621094 15.301513671875 15.301513671875 C 11.44334411621094 19.15968322753906 8.414573669433594 23.65165710449219 6.299339294433594 28.65262985229492 C 4.110054016113281 33.82865524291992 3 39.32871246337891 3 45 C 3 50.67128753662109 4.110054016113281 56.17134475708008 6.299339294433594 61.34737396240234 C 8.414573669433594 66.34834289550781 11.44334411621094 70.84031677246094 15.301513671875 74.698486328125 C 19.15968322753906 78.55665588378906 23.65165710449219 81.58542633056641 28.65262985229492 83.70066070556641 C 33.82865524291992 85.88994598388672 39.32871246337891 87 45 87 C 50.67128753662109 87 56.17134475708008 85.88994598388672 61.34737396240234 83.70066070556641 C 66.34834289550781 81.58542633056641 70.84031677246094 78.55665588378906 74.698486328125 74.698486328125 C 78.55665588378906 70.84031677246094 81.58542633056641 66.34834289550781 83.70066070556641 61.34737396240234 C 85.88994598388672 56.17134475708008 87 50.67128753662109 87 45 C 87 39.32871246337891 85.88994598388672 33.82865524291992 83.70066070556641 28.65262985229492 C 81.58542633056641 23.65165710449219 78.55665588378906 19.15968322753906 74.698486328125 15.301513671875 C 70.84031677246094 11.44334411621094 66.34834289550781 8.414573669433594 61.34737396240234 6.299339294433594 C 56.17134475708008 4.110054016113281 50.67128753662109 3 45 3 M 45 0 C 69.85281372070312 0 90 20.14718627929688 90 45 C 90 69.85281372070312 69.85281372070312 90 45 90 C 20.14718627929688 90 0 69.85281372070312 0 45 C 0 20.14718627929688 20.14718627929688 0 45 0 Z" stroke="none" fill="#3ad1e9"/>
            </g>
          </g>
        </g>
      </g>
    </g>
    <g id="lluvia-de-ideas" transform="translate(201 6800)">
      <path id="Trazado_984588" data-name="Trazado 984588" d="M215.121,136.89v2.487a.894.894,0,0,0,.893.893h2.012a.894.894,0,0,0,.893-.893V136.89a.893.893,0,0,0-.893-.893h-2.012A.893.893,0,0,0,215.121,136.89Zm0,0" transform="translate(-188.524 -119.182)" fill="#86919e"/>
      <path id="Trazado_984589" data-name="Trazado 984589" d="M25.781,99.575,16.028,83.4a2.327,2.327,0,0,0-3.2-.79L8.591,85.174a2.335,2.335,0,0,0-.791,3.2L17.822,105Zm0,0" transform="translate(-6.542 -72.101)" fill="#84eaf5"/>
      <path id="Trazado_984590" data-name="Trazado 984590" d="M186.286,14.732a7.26,7.26,0,1,0-10.163,6.654V23.11a1.591,1.591,0,0,0,1.591,1.591h2.626a1.591,1.591,0,0,0,1.591-1.591V21.385a7.26,7.26,0,0,0,4.356-6.654Zm0,0" transform="translate(-150.53 -6.548)" fill="#feda5f"/>
      <path id="Trazado_984591" data-name="Trazado 984591" d="M339.876,99.121l4.526-7.505-.062-9.342-8.294,4.309-4.468,7.408Zm0,0" transform="translate(-290.582 -72.101)" fill="#fce49d"/>
      <path id="Trazado_984592" data-name="Trazado 984592" d="M310.762,120.8h0l-3.481-3.673-8.526,14.162,3.143,4.252,4.99,1.171,8.749-14.552Zm0,0" transform="translate(-261.817 -102.647)" fill="#f4c84e"/>
      <path id="Trazado_984593" data-name="Trazado 984593" d="M340.079,162.741l8.749-14.552-4.875-1.361-7.325,12.092Zm0,0" transform="translate(-295.009 -128.674)" fill="#feda5f"/>
      <path id="Trazado_984594" data-name="Trazado 984594" d="M413.8,82.273l-2.962,1.539,2.985,1.837Zm0,0" transform="translate(-360.045 -72.101)" fill="#86919e"/>
      <path id="Trazado_984595" data-name="Trazado 984595" d="M68.415,220.34H80.458a7.116,7.116,0,0,0,.493-14.215,7.116,7.116,0,0,0-10.4-7.781,7.118,7.118,0,0,0-13.15,0,7.115,7.115,0,0,0-10.394,7.8,7.117,7.117,0,0,0,.738,14.2Zm0,0" transform="translate(-35.606 -169.973)" fill="#f0a8d0"/>
      <path id="Trazado_984596" data-name="Trazado 984596" d="M298.33,230.9a7.116,7.116,0,0,0-9.654-8.139,7.115,7.115,0,0,1,4.232,8.139,7.116,7.116,0,0,1-.493,14.215h5.422a7.116,7.116,0,0,0,.493-14.215Zm0,0" transform="translate(-252.985 -194.75)" fill="#ea89bf"/>
      <path id="Trazado_984597" data-name="Trazado 984597" d="M178.009,293.324l6.732.085-3.718,9.609,6.15.161-13.106,16.27,4.56-12.026-5.682-.071Zm0,0" transform="translate(-151.563 -257.058)" fill="#feda5f"/>
      <path id="Trazado_984598" data-name="Trazado 984598" d="M296.763,110.244l1.971,1.233a.925.925,0,0,0,.98-1.568l-1.972-1.232A.925.925,0,0,0,296.763,110.244Zm0,0" transform="translate(-259.699 -95.11)"/>
      <path id="Trazado_984599" data-name="Trazado 984599" d="M299.3,3.976a.921.921,0,0,0,.489-.141L301.759,2.6a.925.925,0,0,0-.979-1.568l-1.971,1.233a.932.932,0,0,0,.49,1.708Zm0,0" transform="translate(-261.498 -0.778)"/>
      <path id="Trazado_984600" data-name="Trazado 984600" d="M310.219,60.674a.924.924,0,0,0,.924.924h2.465a.925.925,0,0,0,0-1.848h-2.465a.924.924,0,0,0-.924.924Zm0,0" transform="translate(-271.864 -52.362)"/>
      <path id="Trazado_984601" data-name="Trazado 984601" d="M136.285,108.678l-1.972,1.232a.925.925,0,0,0,.979,1.568l1.972-1.233A.925.925,0,0,0,136.285,108.678Zm0,0" transform="translate(-117.335 -95.112)"/>
      <path id="Trazado_984602" data-name="Trazado 984602" d="M132.31,2.6l1.971,1.232a.925.925,0,0,0,.98-1.567L133.29,1.034A.925.925,0,0,0,132.31,2.6Zm0,0" transform="translate(-115.579 -0.777)"/>
      <path id="Trazado_984603" data-name="Trazado 984603" d="M117,61.6h2.465a.925.925,0,0,0,0-1.848H117A.925.925,0,0,0,117,61.6Zm0,0" transform="translate(-101.752 -52.362)"/>
      <path id="Trazado_984604" data-name="Trazado 984604" d="M168.644,15.417v1.146a2.51,2.51,0,0,0,1,2.006v2.519a.924.924,0,0,0,.924.924h3.8a.924.924,0,0,0,.924-.924V18.569a2.509,2.509,0,0,0,1-2.006V15.417a8.192,8.192,0,0,0,4.307-8.131.925.925,0,0,0-1.837.2,6.344,6.344,0,0,1-3.764,6.5.925.925,0,0,0-.554.847v1.725a.668.668,0,0,1-.666.667h-2.626a.668.668,0,0,1-.667-.667V14.838a.923.923,0,0,0-.554-.847A6.336,6.336,0,1,1,176.02,2.935.925.925,0,0,0,177.056,1.4a8.184,8.184,0,1,0-8.413,14.013Zm2.853,4.747V19.078h1.95v1.086Zm0,0" transform="translate(-143.975 0)"/>
      <path id="Trazado_984605" data-name="Trazado 984605" d="M50.081,93.048l0-.006,4.526-7.506a.94.94,0,0,0,.133-.483l-.062-9.342a.933.933,0,0,0-1.35-.814l-8.294,4.309c-.536.279-.81,1.08-1.1,1.556L37.031,92.217a8.048,8.048,0,0,0-1.657.471,8.044,8.044,0,0,0-14.007,0,8.076,8.076,0,0,0-1.519-.448L10.277,76.366a3.252,3.252,0,0,0-4.468-1.1L1.571,77.826A3.264,3.264,0,0,0,.467,82.3l9.948,16.5a8.05,8.05,0,0,0-.072,2.16,8.043,8.043,0,0,0,1.8,15.881h2.8a.925.925,0,0,0,0-1.848h-2.8a6.193,6.193,0,0,1-.643-12.353.933.933,0,0,0,.807-1.123,6.19,6.19,0,0,1,6.038-7.567,6.351,6.351,0,0,1,5.08,2.635.924.924,0,0,0,1.465-1.127,9.841,9.841,0,0,0-1.9-1.872,6.194,6.194,0,0,1,11.1.69.933.933,0,0,0,1.3.453,6.193,6.193,0,0,1,9.2,5.415,6.094,6.094,0,0,1-.043.719,6.631,6.631,0,0,0-3.681,1.54.925.925,0,0,0,1.307,1.307,5.223,5.223,0,0,1,3.194-1.049c3.159,0,5.674,3.139,5.674,6.139a6.2,6.2,0,0,1-6.193,6.193H34.121l2.209-2.742a.938.938,0,0,0-.7-1.5l-4.839-.127,3.245-8.386a.933.933,0,0,0-.85-1.258l-6.732-.084a.919.919,0,0,0-.881.61L20.521,115.5a.939.939,0,0,0,.828,1.333h4.376L21.64,127.608a.931.931,0,0,0,1.584.907l9.42-11.695a.929.929,0,0,0,.165.015H44.853a8.041,8.041,0,0,0,1.553-15.93c.048-.5-.181-1.465.06-1.865Zm-38.9,3.438L2.05,81.342a1.412,1.412,0,0,1,.478-1.935l4.238-2.563a1.4,1.4,0,0,1,1.928.476l.96,1.591-1.736,1.05a.924.924,0,0,0,.957,1.582l1.733-1.049L12.482,83.6,9.7,85.282a.924.924,0,0,0,.957,1.582l2.775-1.678,1.874,3.107-1.736,1.049a.924.924,0,1,0,.957,1.582l1.733-1.049,1.36,2.255a8.053,8.053,0,0,0-6.443,4.355Zm16.748,19.752a.924.924,0,0,0-.852-1.252l-4.383-.055,4.4-12.187,4.743.059L28.6,111.171a.924.924,0,0,0,.838,1.258l4.282.112-8.291,10.293Zm11.308-24.1,2.546-4.22.005-.008,3.84-6.368,2.161,2.28-5.606,9.22a7.989,7.989,0,0,0-2.946-.9Zm10.2-9.263-2.459-2.6,3.751-1.949,2.131,1.284.028,4.224Zm3.408-5.428-.193-.116.192-.1ZM43.7,94.1l5.668-9.323,3.03.846-6.71,11.125A8.085,8.085,0,0,0,43.7,94.1Zm0,0" transform="translate(0 -65.544)"/>
    </g>
  </g>
</svg>
