<svg xmlns="http://www.w3.org/2000/svg" xmlns:xlink="http://www.w3.org/1999/xlink" width="108" height="108" viewBox="0 0 108 108">
  <defs>
    <filter id="Trazado_982548" x="0" y="0" width="108" height="108" filterUnits="userSpaceOnUse">
      <feOffset dy="3" input="SourceAlpha"/>
      <feGaussianBlur stdDeviation="3" result="blur"/>
      <feFlood flood-opacity="0.161"/>
      <feComposite operator="in" in2="blur"/>
      <feComposite in="SourceGraphic"/>
    </filter>
  </defs>
  <g id="Grupo_1149863" data-name="Grupo 1149863" transform="translate(-201 -562)">
    <g id="Grupo_1149552" data-name="Grupo 1149552" transform="translate(0 107)">
      <g id="Grupo_1149263" data-name="Grupo 1149263" transform="translate(0 -4394)">
        <g transform="matrix(1, 0, 0, 1, 201, 4849)" filter="url(#Trazado_982548)">
          <g id="Trazado_982548-2" data-name="Trazado 982548" transform="translate(9 6)" fill="#f6f9fc">
            <path d="M 45 88.5 C 39.12687683105469 88.5 33.43022537231445 87.35007476806641 28.06830024719238 85.08217620849609 C 22.88852500915527 82.89131164550781 18.23629951477051 79.75458526611328 14.2408504486084 75.75914764404297 C 10.24541282653809 71.76370239257812 7.108687400817871 67.11147308349609 4.917825222015381 61.93170166015625 C 2.649924993515015 56.56977462768555 1.5 50.87312316894531 1.5 45 C 1.5 39.12687683105469 2.649924993515015 33.43022537231445 4.917825222015381 28.06830024719238 C 7.108687400817871 22.88852500915527 10.24541282653809 18.23629951477051 14.2408504486084 14.2408504486084 C 18.23629951477051 10.24541282653809 22.88852500915527 7.108687400817871 28.06830024719238 4.917825222015381 C 33.43022537231445 2.649924993515015 39.12687683105469 1.5 45 1.5 C 50.87312316894531 1.5 56.56977462768555 2.649924993515015 61.93170166015625 4.917825222015381 C 67.11147308349609 7.108687400817871 71.76370239257812 10.24541282653809 75.75914764404297 14.2408504486084 C 79.75458526611328 18.23629951477051 82.89131164550781 22.88852500915527 85.08217620849609 28.06830024719238 C 87.35007476806641 33.43022537231445 88.5 39.12687683105469 88.5 45 C 88.5 50.87312316894531 87.35007476806641 56.56977462768555 85.08217620849609 61.93170166015625 C 82.89131164550781 67.11147308349609 79.75458526611328 71.76370239257812 75.75914764404297 75.75914764404297 C 71.76370239257812 79.75458526611328 67.11147308349609 82.89131164550781 61.93170166015625 85.08217620849609 C 56.56977462768555 87.35007476806641 50.87312316894531 88.5 45 88.5 Z" stroke="none"/>
            <path d="M 45 3 C 39.32871246337891 3 33.82865524291992 4.110054016113281 28.65262985229492 6.299339294433594 C 23.65165710449219 8.414573669433594 19.15968322753906 11.44334411621094 15.301513671875 15.301513671875 C 11.44334411621094 19.15968322753906 8.414573669433594 23.65165710449219 6.299339294433594 28.65262985229492 C 4.110054016113281 33.82865524291992 3 39.32871246337891 3 45 C 3 50.67128753662109 4.110054016113281 56.17134475708008 6.299339294433594 61.34737396240234 C 8.414573669433594 66.34834289550781 11.44334411621094 70.84031677246094 15.301513671875 74.698486328125 C 19.15968322753906 78.55665588378906 23.65165710449219 81.58542633056641 28.65262985229492 83.70066070556641 C 33.82865524291992 85.88994598388672 39.32871246337891 87 45 87 C 50.67128753662109 87 56.17134475708008 85.88994598388672 61.34737396240234 83.70066070556641 C 66.34834289550781 81.58542633056641 70.84031677246094 78.55665588378906 74.698486328125 74.698486328125 C 78.55665588378906 70.84031677246094 81.58542633056641 66.34834289550781 83.70066070556641 61.34737396240234 C 85.88994598388672 56.17134475708008 87 50.67128753662109 87 45 C 87 39.32871246337891 85.88994598388672 33.82865524291992 83.70066070556641 28.65262985229492 C 81.58542633056641 23.65165710449219 78.55665588378906 19.15968322753906 74.698486328125 15.301513671875 C 70.84031677246094 11.44334411621094 66.34834289550781 8.414573669433594 61.34737396240234 6.299339294433594 C 56.17134475708008 4.110054016113281 50.67128753662109 3 45 3 M 45 0 C 69.85281372070312 0 90 20.14718627929688 90 45 C 90 69.85281372070312 69.85281372070312 90 45 90 C 20.14718627929688 90 0 69.85281372070312 0 45 C 0 20.14718627929688 20.14718627929688 0 45 0 Z" stroke="none" fill="#a530fe"/>
          </g>
        </g>
      </g>
    </g>
    <g id="tecnologia" transform="translate(223.001 583)">
      <g id="Grupo_1149861" data-name="Grupo 1149861">
        <g id="Grupo_1149844" data-name="Grupo 1149844">
          <path id="Trazado_984606" data-name="Trazado 984606" d="M20.98,40l4-5,4.23.84A7.8,7.8,0,0,0,30.8,36h1.13a8.48,8.48,0,0,0,2.21-.3,20.742,20.742,0,0,1,2.42,5.76A11.938,11.938,0,0,1,33,42H11.75a3.773,3.773,0,0,0-3.77,3.77,3.553,3.553,0,0,0,.03.46l1.22,9.76L9.14,56H8a6.009,6.009,0,0,1-6-6A14.976,14.976,0,0,1,16.01,35.06L17,35Z" fill="#5cd6b3"/>
        </g>
        <g id="Grupo_1149845" data-name="Grupo 1149845">
          <circle id="Elipse_11681" data-name="Elipse 11681" cx="2" cy="2" r="2" transform="translate(56 2)" fill="#ff826e"/>
        </g>
        <g id="Grupo_1149846" data-name="Grupo 1149846">
          <path id="Trazado_984607" data-name="Trazado 984607" d="M58,28a2,2,0,1,1-2,2,1.94,1.94,0,0,1,.47-1.28A1.983,1.983,0,0,1,58,28Z" fill="#ff826e"/>
        </g>
        <g id="Grupo_1149847" data-name="Grupo 1149847">
          <circle id="Elipse_11682" data-name="Elipse 11682" cx="2" cy="2" r="2" transform="translate(58 18)" fill="#ff826e"/>
        </g>
        <g id="Grupo_1149848" data-name="Grupo 1149848">
          <path id="Trazado_984608" data-name="Trazado 984608" d="M29,17H21.21a3.993,3.993,0,0,1-2.22-.67l-.21-.14A3.932,3.932,0,0,1,17.17,14H17a4,4,0,0,0-4,4v2H12a2.987,2.987,0,0,0-2.29,1.06A19.614,19.614,0,0,1,9,15.84a6.258,6.258,0,0,1,3.43-5.56L13,10a7.383,7.383,0,0,1,2.67-2.92A7.243,7.243,0,0,1,19.47,6h3.69a9.831,9.831,0,0,1,9.53,7.38A9.989,9.989,0,0,1,33,15.84a19.614,19.614,0,0,1-.71,5.22A2.987,2.987,0,0,0,30,20H29Z" fill="#656d78"/>
        </g>
        <g id="Grupo_1149849" data-name="Grupo 1149849">
          <path id="Trazado_984609" data-name="Trazado 984609" d="M32.39,58.7A3.751,3.751,0,0,1,28.66,62H13.31a3.761,3.761,0,0,1-3.74-3.3L9.48,58h23Z" fill="#aab2bd"/>
        </g>
        <g id="Grupo_1149850" data-name="Grupo 1149850">
          <path id="Trazado_984610" data-name="Trazado 984610" d="M33.98,45.77a3.553,3.553,0,0,1-.03.46L32.48,58h-23l-.25-2.01L8.01,46.23a3.553,3.553,0,0,1-.03-.46A3.773,3.773,0,0,1,11.75,42H30.22a3.748,3.748,0,0,1,2.66,1.1,3.789,3.789,0,0,1,1.1,2.67Z" fill="#ccd1d9"/>
        </g>
        <g id="Grupo_1149851" data-name="Grupo 1149851">
          <circle id="Elipse_11683" data-name="Elipse 11683" cx="2" cy="2" r="2" transform="translate(19 46)" fill="#69d6f4"/>
        </g>
        <g id="Grupo_1149852" data-name="Grupo 1149852">
          <path id="Trazado_984611" data-name="Trazado 984611" d="M45,27v3a11.992,11.992,0,0,1-8.44,11.46,20.742,20.742,0,0,0-2.42-5.76A8.158,8.158,0,0,0,40,29l-2.06-1.37a2.11,2.11,0,0,1-.32-3.25l.97-.97a1.477,1.477,0,0,1,.45-.3,1.5,1.5,0,0,1,.55-.11,1.226,1.226,0,0,1,.39.06c.75.4,1.02.84,1.02,1.35V25a2.006,2.006,0,0,0,2,2Z" fill="#f0d0b4"/>
        </g>
        <g id="Grupo_1149853" data-name="Grupo 1149853">
          <path id="Trazado_984612" data-name="Trazado 984612" d="M43,23h2a2.015,2.015,0,0,1,2,2,2.006,2.006,0,0,1-2,2H43a2.006,2.006,0,0,1-2-2v-.59c0-.51-.27-.95-1.02-1.35L40,23Z" fill="#f0d0b4"/>
        </g>
        <g id="Grupo_1149854" data-name="Grupo 1149854">
          <circle id="Elipse_11684" data-name="Elipse 11684" cx="8" cy="8" r="8" transform="translate(35 2)" fill="#69d6f4"/>
        </g>
        <g id="Grupo_1149855" data-name="Grupo 1149855">
          <path id="Trazado_984613" data-name="Trazado 984613" d="M40,23l-.02.06a1.226,1.226,0,0,0-.39-.06,1.5,1.5,0,0,0-.55.11L39,23V19a1.955,1.955,0,0,1,.59-1.41,1.935,1.935,0,0,1,.27-.23A2,2,0,0,1,43,19v4Z" fill="#f0d0b4"/>
        </g>
        <g id="Grupo_1149856" data-name="Grupo 1149856">
          <path id="Trazado_984614" data-name="Trazado 984614" d="M24,32l.98,3-4,5L17,35l.78-3.12A6.082,6.082,0,0,0,19,32h4a5.361,5.361,0,0,0,.99-.09Z" fill="#f0d0b4"/>
        </g>
        <g id="Grupo_1149857" data-name="Grupo 1149857">
          <path id="Trazado_984615" data-name="Trazado 984615" d="M32.29,21.06A3,3,0,0,1,30,26H29V20h1a2.987,2.987,0,0,1,2.29,1.06Z" fill="#f0d0b4"/>
        </g>
        <g id="Grupo_1149858" data-name="Grupo 1149858">
          <path id="Trazado_984616" data-name="Trazado 984616" d="M13,20v6H12a3,3,0,1,1,0-6Z" fill="#f0d0b4"/>
        </g>
        <g id="Grupo_1149859" data-name="Grupo 1149859">
          <path id="Trazado_984617" data-name="Trazado 984617" d="M29,20v6a6,6,0,0,1-5.01,5.91A5.361,5.361,0,0,1,23,32H19a6.082,6.082,0,0,1-1.22-.12A6.015,6.015,0,0,1,13,26V18a4,4,0,0,1,4-4h.17a3.932,3.932,0,0,0,1.61,2.19l.21.14a3.993,3.993,0,0,0,2.22.67H29Z" fill="#f0d0b4"/>
        </g>
        <g id="Grupo_1149860" data-name="Grupo 1149860">
          <path id="Trazado_984618" data-name="Trazado 984618" d="M17,24h8a4,4,0,1,1-8,0Z" fill="#ff826e"/>
        </g>
      </g>
      <g id="Grupo_1149862" data-name="Grupo 1149862">
        <path id="Trazado_984619" data-name="Trazado 984619" d="M21,45a3,3,0,1,0,3,3A3,3,0,0,0,21,45Zm0,4a1,1,0,1,1,1-1A1,1,0,0,1,21,49Z"/>
        <circle id="Elipse_11685" data-name="Elipse 11685" cx="1" cy="1" r="1" transform="translate(16 19)"/>
        <circle id="Elipse_11686" data-name="Elipse 11686" cx="1" cy="1" r="1" transform="translate(24 19)"/>
        <path id="Trazado_984620" data-name="Trazado 984620" d="M26,24V23H16v1a5,5,0,0,0,10,0ZM18.17,25h5.658a3,3,0,0,1-5.658,0Z"/>
        <path id="Trazado_984621" data-name="Trazado 984621" d="M60,23a3,3,0,0,0,0-6,2.9,2.9,0,0,0-.363.037L57.618,13H51.475a8.882,8.882,0,0,0,.466-2h3.677l2.018-4.037A2.933,2.933,0,0,0,58,7a3.015,3.015,0,1,0-2.156-.923L54.382,9H51.941a9,9,0,1,0-13.624,8.685A2.956,2.956,0,0,0,38,19v3.613c-.039.034-.085.057-.121.094l-.969.968a3.108,3.108,0,0,0,.474,4.783L38.9,29.466A7.2,7.2,0,0,1,31.929,35H30.8a7.134,7.134,0,0,1-1.4-.138l-3.656-.729-.5-1.513A7.011,7.011,0,0,0,29.92,27H30a4,4,0,0,0,4-4,3.961,3.961,0,0,0-.634-2.143A20.493,20.493,0,0,0,34,15.838,10.851,10.851,0,0,0,23.162,5h-3.69a8.192,8.192,0,0,0-7.208,4.25l-.279.14A7.17,7.17,0,0,0,8,15.839a20.454,20.454,0,0,0,.635,5.017A3.96,3.96,0,0,0,8,23a4,4,0,0,0,4,4h.08a7.011,7.011,0,0,0,4.5,5.56l-.373,1.489-.266.017A16,16,0,0,0,1,50a7.008,7.008,0,0,0,7,7h.35l.228,1.825A4.773,4.773,0,0,0,13.306,63H28.659a4.775,4.775,0,0,0,4.729-4.174l1.559-12.469a4.876,4.876,0,0,0,.037-.592,4.721,4.721,0,0,0-.943-2.818A13.008,13.008,0,0,0,46,30V27.816A2.993,2.993,0,0,0,45,22H44V19c0-.02-.005-.038-.006-.058A8.932,8.932,0,0,0,48,17.478v2.057l3,2v3.933l4.195,3.5a3.035,3.035,0,1,0,1.282-1.534L53,24.532V20.465l-3-2v-2.82c.168-.208.329-.422.478-.644h5.9l1.462,2.923A2.993,2.993,0,0,0,60,23ZM58,3a1,1,0,1,1-1,1A1,1,0,0,1,58,3Zm1,27a1,1,0,1,1-1-1A1,1,0,0,1,59,30ZM39.848,16.231A6.947,6.947,0,0,1,38.124,15h5.695a11.164,11.164,0,0,1-.991,1.638,2.956,2.956,0,0,0-2.98-.407ZM49,13H46.653a13.072,13.072,0,0,0,.309-2H49.92a6.937,6.937,0,0,1-.6,2Zm-7.586,0a11.143,11.143,0,0,1-.368-2h3.9a11.214,11.214,0,0,1-.362,2Zm3.175-6a11.214,11.214,0,0,1,.362,2h-3.9a11.214,11.214,0,0,1,.362-2ZM42.182,5A11.3,11.3,0,0,1,43,3.6,11.175,11.175,0,0,1,43.818,5Zm4.78,4a13.073,13.073,0,0,0-.309-2h2.662a6.906,6.906,0,0,1,.6,2Zm-.941-4a13.246,13.246,0,0,0-.8-1.633A7.009,7.009,0,0,1,47.89,5ZM39.979,5H38.11a7,7,0,0,1,2.67-1.633A13.246,13.246,0,0,0,39.979,5Zm-.632,2a13.072,13.072,0,0,0-.309,2H36.08a6.937,6.937,0,0,1,.6-2Zm-.306,4a13.226,13.226,0,0,0,.311,2H36.675a6.985,6.985,0,0,1-.6-2Zm6.98,4H47.89a7,7,0,0,1-2.67,1.633,13.246,13.246,0,0,0,.8-1.633ZM30.8,37h1.124a9.048,9.048,0,0,0,1.718-.167,20.23,20.23,0,0,1,1.683,3.913A10.994,10.994,0,0,1,33,41H21.463l3.92-4.9,3.633.725A9.258,9.258,0,0,0,30.8,37ZM30,25V21a2,2,0,0,1,0,4ZM10,23a2,2,0,0,1,2-2v4A2,2,0,0,1,10,23Zm2-5v1a3.96,3.96,0,0,0-1.653.368A18.416,18.416,0,0,1,10,15.838a5.183,5.183,0,0,1,2.88-4.66l.865-.433.149-.3A6.206,6.206,0,0,1,19.472,7h3.69A8.848,8.848,0,0,1,32,15.838a18.471,18.471,0,0,1-.346,3.53A3.968,3.968,0,0,0,30,19V16H29a3,3,0,0,1-3-3V11H24v2a4.948,4.948,0,0,0,1.026,3H25a3,3,0,0,1-3-3V11H20v2a4.948,4.948,0,0,0,1.014,2.985,3,3,0,0,1-1.468-.49l-.21-.14A2.993,2.993,0,0,1,18,12.859V11H16v1.859q0,.12.006.24A5.01,5.01,0,0,0,12,18Zm2,8V18a3,3,0,0,1,2.5-2.958,4.988,4.988,0,0,0,1.729,1.979l.21.139a4.974,4.974,0,0,0,2.773.84H28v8a5.006,5.006,0,0,1-5,5H19A5.006,5.006,0,0,1,14,26Zm5,7h4c.092,0,.181-.01.272-.014l.592,1.81-2.879,3.6-2.9-3.634.447-1.787c.153.012.307.025.463.025ZM8,55a5.006,5.006,0,0,1-5-5,14,14,0,0,1,13.07-13.938l.473-.03L20.5,41H11.748a4.771,4.771,0,0,0-4.766,4.766,4.846,4.846,0,0,0,.037.591L7.35,49H5v2H7.6l.5,4Zm20.659,6H13.306a2.767,2.767,0,0,1-2.651-2H31.309A2.767,2.767,0,0,1,28.658,61Zm4.3-14.892L31.6,57H10.365L9,46.107a2.606,2.606,0,0,1-.021-.342A2.769,2.769,0,0,1,11.749,43H30.218a2.769,2.769,0,0,1,2.766,2.766,3.024,3.024,0,0,1-.023.343Zm4.275-5.959a22.064,22.064,0,0,0-1.648-3.932,9.194,9.194,0,0,0,5.4-7.076l.089-.624-2.587-1.725a1.106,1.106,0,0,1-.168-1.7l.97-.969a.43.43,0,0,1,.706.293V25a3,3,0,0,0,3,3h1v2a11.014,11.014,0,0,1-6.764,10.149ZM46,25a1,1,0,0,1-1,1H43a1,1,0,0,1-1-1v-.586A2.461,2.461,0,0,0,41.965,24H45A1,1,0,0,1,46,25Zm-6-3V19a1,1,0,0,1,2,0v3Zm21-2a1,1,0,1,1-1-1A1,1,0,0,1,61,20Z"/>
      </g>
    </g>
  </g>
</svg>
