<svg xmlns="http://www.w3.org/2000/svg" xmlns:xlink="http://www.w3.org/1999/xlink" width="108" height="108" viewBox="0 0 108 108">
  <defs>
    <filter id="Trazado_982419" x="0" y="0" width="108" height="108" filterUnits="userSpaceOnUse">
      <feOffset dy="3" input="SourceAlpha"/>
      <feGaussianBlur stdDeviation="3" result="blur"/>
      <feFlood flood-opacity="0.161"/>
      <feComposite operator="in" in2="blur"/>
      <feComposite in="SourceGraphic"/>
    </filter>
  </defs>
  <g id="_3" data-name="3" transform="translate(-612 -822)">
    <g id="Grupo_1148767" data-name="Grupo 1148767" transform="translate(411 500)">
      <g transform="matrix(1, 0, 0, 1, 201, 322)" filter="url(#Trazado_982419)">
        <g id="Trazado_982419-2" data-name="Trazado 982419" transform="translate(9 6)" fill="#f3f3f3">
          <path d="M 45 88.5 C 39.12687683105469 88.5 33.43022537231445 87.35007476806641 28.06830024719238 85.08217620849609 C 22.88852500915527 82.89131164550781 18.23629951477051 79.75458526611328 14.2408504486084 75.75914764404297 C 10.24541282653809 71.76370239257812 7.108687400817871 67.11147308349609 4.917825222015381 61.93170166015625 C 2.649924993515015 56.56977462768555 1.5 50.87312316894531 1.5 45 C 1.5 39.12687683105469 2.649924993515015 33.43022537231445 4.917825222015381 28.06830024719238 C 7.108687400817871 22.88852500915527 10.24541282653809 18.23629951477051 14.2408504486084 14.2408504486084 C 18.23629951477051 10.24541282653809 22.88852500915527 7.108687400817871 28.06830024719238 4.917825222015381 C 33.43022537231445 2.649924993515015 39.12687683105469 1.5 45 1.5 C 50.87312316894531 1.5 56.56977462768555 2.649924993515015 61.93170166015625 4.917825222015381 C 67.11147308349609 7.108687400817871 71.76370239257812 10.24541282653809 75.75914764404297 14.2408504486084 C 79.75458526611328 18.23629951477051 82.89131164550781 22.88852500915527 85.08217620849609 28.06830024719238 C 87.35007476806641 33.43022537231445 88.5 39.12687683105469 88.5 45 C 88.5 50.87312316894531 87.35007476806641 56.56977462768555 85.08217620849609 61.93170166015625 C 82.89131164550781 67.11147308349609 79.75458526611328 71.76370239257812 75.75914764404297 75.75914764404297 C 71.76370239257812 79.75458526611328 67.11147308349609 82.89131164550781 61.93170166015625 85.08217620849609 C 56.56977462768555 87.35007476806641 50.87312316894531 88.5 45 88.5 Z" stroke="none"/>
          <path d="M 45 3 C 39.32871246337891 3 33.82865524291992 4.110054016113281 28.65262985229492 6.299339294433594 C 23.65165710449219 8.414573669433594 19.15968322753906 11.44334411621094 15.301513671875 15.301513671875 C 11.44334411621094 19.15968322753906 8.414573669433594 23.65165710449219 6.299339294433594 28.65262985229492 C 4.110054016113281 33.82865524291992 3 39.32871246337891 3 45 C 3 50.67128753662109 4.110054016113281 56.17134475708008 6.299339294433594 61.34737396240234 C 8.414573669433594 66.34834289550781 11.44334411621094 70.84031677246094 15.301513671875 74.698486328125 C 19.15968322753906 78.55665588378906 23.65165710449219 81.58542633056641 28.65262985229492 83.70066070556641 C 33.82865524291992 85.88994598388672 39.32871246337891 87 45 87 C 50.67128753662109 87 56.17134475708008 85.88994598388672 61.34737396240234 83.70066070556641 C 66.34834289550781 81.58542633056641 70.84031677246094 78.55665588378906 74.698486328125 74.698486328125 C 78.55665588378906 70.84031677246094 81.58542633056641 66.34834289550781 83.70066070556641 61.34737396240234 C 85.88994598388672 56.17134475708008 87 50.67128753662109 87 45 C 87 39.32871246337891 85.88994598388672 33.82865524291992 83.70066070556641 28.65262985229492 C 81.58542633056641 23.65165710449219 78.55665588378906 19.15968322753906 74.698486328125 15.301513671875 C 70.84031677246094 11.44334411621094 66.34834289550781 8.414573669433594 61.34737396240234 6.299339294433594 C 56.17134475708008 4.110054016113281 50.67128753662109 3 45 3 M 45 0 C 69.85281372070312 0 90 20.14718627929688 90 45 C 90 69.85281372070312 69.85281372070312 90 45 90 C 20.14718627929688 90 0 69.85281372070312 0 45 C 0 20.14718627929688 20.14718627929688 0 45 0 Z" stroke="none" fill="#a530fe"/>
        </g>
      </g>
    </g>
    <g id="investigacion" transform="translate(637.495 844.527)">
      <path id="Trazado_983410" data-name="Trazado 983410" d="M414.874,59.7l-6.882-6.881a1.983,1.983,0,0,0-2.8,2.8l6.881,6.882a1.983,1.983,0,0,0,2.8-2.8Zm0,0" transform="translate(-359.554 -46.419)" fill="#e1e3e9"/>
      <path id="Trazado_983411" data-name="Trazado 983411" d="M9.988,11.966V56.653a1.977,1.977,0,0,0,1.977,1.977H45.975a1.977,1.977,0,0,0,1.977-1.977V18L39.944,9.989H11.965a1.977,1.977,0,0,0-1.977,1.977Zm0,0" transform="translate(-8.877 -8.876)" fill="#fff"/>
      <path id="Trazado_983412" data-name="Trazado 983412" d="M313.239,465.906H289.66a4.449,4.449,0,0,1,4.449-4.449H308.79a4.449,4.449,0,0,1,4.449,4.449Zm0,0" transform="translate(-257.407 -410.073)" fill="#b5bcc9"/>
      <path id="Trazado_983413" data-name="Trazado 983413" d="M282.394,168.746l-3.734,3.733a10.458,10.458,0,0,1-14.789,14.789L260.137,191a15.738,15.738,0,0,0,22.257-22.256Zm0,0" transform="translate(-231.172 -149.955)" fill="#b5bcc9"/>
      <path id="Trazado_983414" data-name="Trazado 983414" d="M352.928,357.578a5.339,5.339,0,0,0-5.339,5.339v6.228h10.678v-6.228A5.339,5.339,0,0,0,352.928,357.578Zm0,0" transform="translate(-308.886 -317.761)" fill="#eff3f3"/>
      <path id="Trazado_983415" data-name="Trazado 983415" d="M285.478,83.371l6.717,6.717-15.673,15.674L269.8,99.045Zm0,0" transform="translate(-239.763 -74.087)" fill="#eff3f3"/>
      <path id="Trazado_983416" data-name="Trazado 983416" d="M243.036,235.277l4.234,4.234-4.751,4.751-4.234-4.234Zm0,0" transform="translate(-211.753 -209.078)" fill="#d3d7df"/>
      <path id="Trazado_983417" data-name="Trazado 983417" d="M183.014,339.543h11.159a2.224,2.224,0,0,0,0-4.449H183.014a2.224,2.224,0,1,0,0,4.449Zm0,0" transform="translate(-160.659 -297.78)" fill="#eff3f3"/>
      <path id="Trazado_983418" data-name="Trazado 983418" d="M287.02,18l-8.008-8.008v6.131A1.877,1.877,0,0,0,280.889,18Zm0,0" transform="translate(-247.944 -8.876)" fill="#ffd89e"/>
      <path id="Trazado_983419" data-name="Trazado 983419" d="M352.928,357.578a5.339,5.339,0,0,0-5.339,5.339v6.228h10.678v-6.228A5.339,5.339,0,0,0,352.928,357.578Zm0,0" transform="translate(-308.886 -317.761)" fill="#e1e3e9"/>
      <path id="Trazado_983420" data-name="Trazado 983420" d="M285.478,83.371l6.717,6.717-15.673,15.674L269.8,99.045Zm0,0" transform="translate(-239.763 -74.087)" fill="#91def5"/>
      <path id="Trazado_983421" data-name="Trazado 983421" d="M183.014,339.543h11.159a2.224,2.224,0,0,0,0-4.449H183.014a2.224,2.224,0,1,0,0,4.449Zm0,0" transform="translate(-160.659 -297.78)" fill="#e1e3e9"/>
      <path id="Trazado_983422" data-name="Trazado 983422" d="M386.659,399.531a1.113,1.113,0,1,0,.786.326A1.12,1.12,0,0,0,386.659,399.531Zm0,0" transform="translate(-342.616 -355.042)"/>
      <path id="Trazado_983423" data-name="Trazado 983423" d="M56.944,29.919A16.738,16.738,0,0,0,52.009,18l0,0,.544-.544a3.095,3.095,0,0,0,3.556-4.965L49.224,5.611A3.095,3.095,0,0,0,44.26,9.167l-4.072,4.072V9.12h0a1.11,1.11,0,0,0-.323-.787L31.854.326A1.111,1.111,0,0,0,31.067,0a.006.006,0,0,1,0,0H3.089A3.093,3.093,0,0,0,0,3.09V47.776a3.093,3.093,0,0,0,3.09,3.09H14.358a1.112,1.112,0,0,0,0-2.224H3.089a.866.866,0,0,1-.865-.865V3.09a.866.866,0,0,1,.865-.865H29.955V7.243a2.993,2.993,0,0,0,2.989,2.989h5.019v5.231l-8.707,8.708a1.112,1.112,0,0,0,0,1.573l.455.455-3.965,3.965a1.112,1.112,0,0,0,0,1.573l4.234,4.234a1.109,1.109,0,0,0,.337.23H22.355a3.337,3.337,0,0,0,0,6.673H29.32a16.68,16.68,0,0,0,8.271,3.709v2.058H24.368a1.112,1.112,0,1,0,0,2.224h9.838a5.567,5.567,0,0,0-3.065,4.967,1.112,1.112,0,0,0,1.112,1.112H55.832a1.112,1.112,0,0,0,1.112-1.112,5.567,5.567,0,0,0-5.561-5.561h-.89V45.156a6.436,6.436,0,0,0-.253-1.783,17.055,17.055,0,0,0,1.768-1.539,16.738,16.738,0,0,0,4.935-11.915Zm-24-21.911a.765.765,0,0,1-.765-.765V3.8l4.21,4.21ZM46.42,7.184a.87.87,0,0,1,1.231,0l6.882,6.882A.871.871,0,1,1,53.3,15.3l-.082-.082L46.5,8.5l-.082-.082a.871.871,0,0,1,0-1.231Zm-6.559,9.527h0l5.854-5.854L50.86,16l-14.1,14.1-.455-.455L32.07,25.413l-.455-.455Zm6.841,6.6a9.359,9.359,0,0,1-3.6,15.464,6.424,6.424,0,0,0-1.342.348,9.215,9.215,0,0,1-1.575.15V29.82L46.7,23.308l0,0Zm-18.6,7.64,3.178-3.178,2.662,2.662-3.178,3.178Zm3.448,5.021,3.965-3.965.455.455a1.112,1.112,0,0,0,1.573,0l.417-.417v6.977a9.448,9.448,0,0,1-1.237-.382A3.342,3.342,0,0,0,33.513,36.2h-2.3a1.115,1.115,0,0,0,.337-.23ZM21.242,39.537a1.114,1.114,0,0,1,1.112-1.112H33.514a1.112,1.112,0,1,1,0,2.224H22.355a1.113,1.113,0,0,1-1.112-1.112Zm12.271,3.337a3.34,3.34,0,0,0,3.03-1.941,11.628,11.628,0,0,0,2.115.474,1.107,1.107,0,0,0,.113.038,6.415,6.415,0,0,0-1.126,2.894,14.472,14.472,0,0,1-4.351-1.465h.22ZM54.529,54.721H33.556A3.342,3.342,0,0,1,36.7,52.5H51.383a3.342,3.342,0,0,1,3.146,2.224ZM39.816,50.272V45.156a4.232,4.232,0,0,1,2.558-3.883,11.5,11.5,0,0,0,1.238-.322,4.228,4.228,0,0,1,4.656,4.2v5.116Zm9.42-8.937a6.5,6.5,0,0,0-2.415-2A11.75,11.75,0,0,0,48.275,38.1a11.57,11.57,0,0,0,0-16.363l0,0,2.161-2.161,0,0a14.642,14.642,0,0,1,0,20.684,14.926,14.926,0,0,1-1.2,1.075Zm0,0" transform="translate(0)"/>
      <path id="Trazado_983424" data-name="Trazado 983424" d="M75.058,122.084h21.5a1.112,1.112,0,1,0,0-2.224h-21.5a1.112,1.112,0,1,0,0,2.224Zm0,0" transform="translate(-65.712 -106.513)"/>
      <path id="Trazado_983425" data-name="Trazado 983425" d="M75.058,170.025h19.62a1.112,1.112,0,1,0,0-2.224H75.058a1.112,1.112,0,1,0,0,2.224Zm0,0" transform="translate(-65.712 -149.115)"/>
      <path id="Trazado_983426" data-name="Trazado 983426" d="M75.058,217.971H91.627a1.112,1.112,0,0,0,0-2.224H75.058a1.112,1.112,0,0,0,0,2.224Zm0,0" transform="translate(-65.712 -191.722)"/>
      <path id="Trazado_983427" data-name="Trazado 983427" d="M75.058,265.916H85.849a1.112,1.112,0,1,0,0-2.224H75.058a1.112,1.112,0,1,0,0,2.224Zm0,0" transform="translate(-65.712 -234.329)"/>
      <path id="Trazado_983428" data-name="Trazado 983428" d="M81.672,311.633H75.058a1.112,1.112,0,1,0,0,2.224h6.614a1.112,1.112,0,1,0,0-2.224Zm0,0" transform="translate(-65.712 -276.932)"/>
      <path id="Trazado_983429" data-name="Trazado 983429" d="M165.019,437.484a1.112,1.112,0,1,0,.786.326A1.121,1.121,0,0,0,165.019,437.484Zm0,0" transform="translate(-145.656 -388.769)"/>
    </g>
  </g>
</svg>
