<svg xmlns="http://www.w3.org/2000/svg" xmlns:xlink="http://www.w3.org/1999/xlink" width="108" height="108" viewBox="0 0 108 108">
  <defs>
    <filter id="Trazado_982547" x="0" y="0" width="108" height="108" filterUnits="userSpaceOnUse">
      <feOffset dy="3" input="SourceAlpha"/>
      <feGaussianBlur stdDeviation="3" result="blur"/>
      <feFlood flood-opacity="0.161"/>
      <feComposite operator="in" in2="blur"/>
      <feComposite in="SourceGraphic"/>
    </filter>
  </defs>
  <g id="_31" data-name="31" transform="translate(-192 -10186)">
    <g id="Grupo_1149261" data-name="Grupo 1149261" transform="translate(-83 6759)">
      <g id="Grupo_1147065" data-name="Grupo 1147065" transform="translate(-341 -556)">
        <g transform="matrix(1, 0, 0, 1, 616, 3983)" filter="url(#Trazado_982547)">
          <g id="Trazado_982547-2" data-name="Trazado 982547" transform="translate(9 6)" fill="#eff4fa">
            <path d="M 45 88.5 C 39.12687683105469 88.5 33.43022537231445 87.35007476806641 28.06830024719238 85.08217620849609 C 22.88852500915527 82.89131164550781 18.23629951477051 79.75458526611328 14.2408504486084 75.75914764404297 C 10.24541282653809 71.76370239257812 7.108687400817871 67.11147308349609 4.917825222015381 61.93170166015625 C 2.649924993515015 56.56977462768555 1.5 50.87312316894531 1.5 45 C 1.5 39.12687683105469 2.649924993515015 33.43022537231445 4.917825222015381 28.06830024719238 C 7.108687400817871 22.88852500915527 10.24541282653809 18.23629951477051 14.2408504486084 14.2408504486084 C 18.23629951477051 10.24541282653809 22.88852500915527 7.108687400817871 28.06830024719238 4.917825222015381 C 33.43022537231445 2.649924993515015 39.12687683105469 1.5 45 1.5 C 50.87312316894531 1.5 56.56977462768555 2.649924993515015 61.93170166015625 4.917825222015381 C 67.11147308349609 7.108687400817871 71.76370239257812 10.24541282653809 75.75914764404297 14.2408504486084 C 79.75458526611328 18.23629951477051 82.89131164550781 22.88852500915527 85.08217620849609 28.06830024719238 C 87.35007476806641 33.43022537231445 88.5 39.12687683105469 88.5 45 C 88.5 50.87312316894531 87.35007476806641 56.56977462768555 85.08217620849609 61.93170166015625 C 82.89131164550781 67.11147308349609 79.75458526611328 71.76370239257812 75.75914764404297 75.75914764404297 C 71.76370239257812 79.75458526611328 67.11147308349609 82.89131164550781 61.93170166015625 85.08217620849609 C 56.56977462768555 87.35007476806641 50.87312316894531 88.5 45 88.5 Z" stroke="none"/>
            <path d="M 45 3 C 39.32871246337891 3 33.82865524291992 4.110054016113281 28.65262985229492 6.299339294433594 C 23.65165710449219 8.414573669433594 19.15968322753906 11.44334411621094 15.301513671875 15.301513671875 C 11.44334411621094 19.15968322753906 8.414573669433594 23.65165710449219 6.299339294433594 28.65262985229492 C 4.110054016113281 33.82865524291992 3 39.32871246337891 3 45 C 3 50.67128753662109 4.110054016113281 56.17134475708008 6.299339294433594 61.34737396240234 C 8.414573669433594 66.34834289550781 11.44334411621094 70.84031677246094 15.301513671875 74.698486328125 C 19.15968322753906 78.55665588378906 23.65165710449219 81.58542633056641 28.65262985229492 83.70066070556641 C 33.82865524291992 85.88994598388672 39.32871246337891 87 45 87 C 50.67128753662109 87 56.17134475708008 85.88994598388672 61.34737396240234 83.70066070556641 C 66.34834289550781 81.58542633056641 70.84031677246094 78.55665588378906 74.698486328125 74.698486328125 C 78.55665588378906 70.84031677246094 81.58542633056641 66.34834289550781 83.70066070556641 61.34737396240234 C 85.88994598388672 56.17134475708008 87 50.67128753662109 87 45 C 87 39.32871246337891 85.88994598388672 33.82865524291992 83.70066070556641 28.65262985229492 C 81.58542633056641 23.65165710449219 78.55665588378906 19.15968322753906 74.698486328125 15.301513671875 C 70.84031677246094 11.44334411621094 66.34834289550781 8.414573669433594 61.34737396240234 6.299339294433594 C 56.17134475708008 4.110054016113281 50.67128753662109 3 45 3 M 45 0 C 69.85281372070312 0 90 20.14718627929688 90 45 C 90 69.85281372070312 69.85281372070312 90 45 90 C 20.14718627929688 90 0 69.85281372070312 0 45 C 0 20.14718627929688 20.14718627929688 0 45 0 Z" stroke="none" fill="#3ad1e9"/>
          </g>
        </g>
      </g>
    </g>
    <g id="herbario" transform="translate(196.502 10205.897)">
      <g id="Grupo_1149523" data-name="Grupo 1149523" transform="translate(17.41 0.891)">
        <path id="Trazado_983760" data-name="Trazado 983760" d="M319.916,28.034a2.336,2.336,0,0,0-2.048-2.048c-6.07-.707-11.78.842-15.776,4.838s-5.546,9.706-4.838,15.776a2.336,2.336,0,0,0,2.048,2.048c6.07.707,11.78-.842,15.776-4.838S320.623,34.1,319.916,28.034Z" transform="translate(-264.21 -23.601)" fill="#00ba66"/>
        <path id="Trazado_983761" data-name="Trazado 983761" d="M301.428,48.37c-.707-6.07.842-11.78,4.838-15.776a18.106,18.106,0,0,1,13.555-5,2.336,2.336,0,0,0-1.954-1.614c-6.07-.707-11.779.842-15.776,4.838s-5.546,9.706-4.838,15.776a2.336,2.336,0,0,0,2.048,2.048q1.12.131,2.221.158A2.32,2.32,0,0,1,301.428,48.37Z" transform="translate(-264.21 -23.6)" fill="#00a855"/>
        <path id="Trazado_983762" data-name="Trazado 983762" d="M161.511,82.632a1.66,1.66,0,0,1,1.456-1.456c4.314-.5,8.372.6,11.212,3.438s3.941,6.9,3.438,11.212a1.66,1.66,0,0,1-1.456,1.456c-4.314.5-8.372-.6-11.212-3.438S161.008,86.945,161.511,82.632Z" transform="translate(-144.856 -72.187)" fill="#00ba66"/>
        <path id="Trazado_983763" data-name="Trazado 983763" d="M167.879,91.443a13.045,13.045,0,0,1-3.521-10.284q-.69.025-1.392.106a1.66,1.66,0,0,0-1.456,1.456c-.5,4.314.6,8.372,3.438,11.212s6.9,3.941,11.212,3.438a1.66,1.66,0,0,0,1.456-1.456c.036-.311.063-.62.083-.927A12.918,12.918,0,0,1,167.879,91.443Z" transform="translate(-144.856 -72.275)" fill="#00a855"/>
        <path id="Trazado_983764" data-name="Trazado 983764" d="M257.217,7.632a.633.633,0,0,1,.763-.181,5.072,5.072,0,0,1,2.951,3.357,5.071,5.071,0,0,1-1.125,4.325.633.633,0,0,1-.763.181,5.072,5.072,0,0,1-2.951-3.357,5.072,5.072,0,0,1,1.125-4.325Z" transform="translate(-228.046 -7.392)" fill="#00ba66"/>
        <path id="Trazado_983765" data-name="Trazado 983765" d="M369.632,284.221a1.69,1.69,0,0,0,1.158-.311l7.551-5.431a2.879,2.879,0,0,1,1.323-.522.24.24,0,0,0,.208-.244,3.328,3.328,0,0,0-1.237-2.577,2.894,2.894,0,0,0-4.071.717l-5.328,7.683a1.716,1.716,0,0,1-.682.576h0Z" transform="translate(-327.069 -242.415)" fill="#ffbd86"/>
        <path id="Trazado_983766" data-name="Trazado 983766" d="M378.373,275.853a2.964,2.964,0,0,1,.29-.356.239.239,0,0,0-.026-.36l0,0a2.894,2.894,0,0,0-4.071.717l-5.328,7.683a1.716,1.716,0,0,1-.682.576h0l1.078.11a1.69,1.69,0,0,0,1.158-.311l3.948-2.839a.24.24,0,0,0,.057-.058Z" transform="translate(-327.068 -242.415)" fill="#f6a96c"/>
        <path id="Trazado_983767" data-name="Trazado 983767" d="M173.388,282.418a2.931,2.931,0,0,0-4.133-.779l-7.478,5.269a1.954,1.954,0,0,1-1.319.347l-3.924-.391a.411.411,0,0,1-.2-.743A3.192,3.192,0,0,0,155,280.327l-12.983-1.985a5.749,5.749,0,0,0-4.18.982l-6.892,4.856a.24.24,0,0,0-.057.336l7.7,10.815a.24.24,0,0,0,.314.069,18.171,18.171,0,0,1,9.189-2.366l11.7.143a9.353,9.353,0,0,0,5.619-1.7l7.168-5.051a2.942,2.942,0,0,0,.813-4Z" transform="translate(-117.982 -245.654)" fill="#fed2a4"/>
        <path id="Trazado_983768" data-name="Trazado 983768" d="M136.732,282.767l4.889-3.445a5.678,5.678,0,0,1,.8-.473.24.24,0,0,0-.065-.455l-.348-.053a5.749,5.749,0,0,0-4.18.982l-6.892,4.856a.24.24,0,0,0-.057.336l7.7,10.815a.24.24,0,0,0,.314.069,18.148,18.148,0,0,1,2.355-1.12.24.24,0,0,0,.11-.363l-5.273-7.405A2.678,2.678,0,0,1,136.732,282.767Z" transform="translate(-117.983 -245.653)" fill="#ffbd86"/>
        <path id="Trazado_983769" data-name="Trazado 983769" d="M276.157,330.21a.241.241,0,0,0,.261-.172.165.165,0,0,1,.1-.118,3.221,3.221,0,0,0,1.617-1.418.963.963,0,0,0-.173-.032l-8.727-.777a.947.947,0,1,0-.17,1.886Z" transform="translate(-238.802 -289.117)" fill="#ffbd86"/>
        <path id="Trazado_983770" data-name="Trazado 983770" d="M31.634,332.514a.24.24,0,0,0-.335-.057l-6.644,4.706a1.335,1.335,0,0,0-.348,1.854l9.607,13.564a1.335,1.335,0,0,0,1.865.287l6.644-4.706a.24.24,0,0,0,.057-.335Z" transform="translate(-24.072 -293.271)" fill="#22a7ff"/>
        <path id="Trazado_983771" data-name="Trazado 983771" d="M28.364,339.018a1.334,1.334,0,0,1,.348-1.854l3.983-2.729a.24.24,0,0,0,.06-.337l-1.121-1.582a.24.24,0,0,0-.335-.057l-6.644,4.706a1.335,1.335,0,0,0-.348,1.854l9.607,13.564a1.335,1.335,0,0,0,1.865.287l1.4-.99a.24.24,0,0,0,.057-.335Z" transform="translate(-24.073 -293.272)" fill="#0094fd"/>
        <path id="Trazado_983772" data-name="Trazado 983772" d="M96.4,330.915a.24.24,0,0,0,.335.057l2.725-1.93a1.321,1.321,0,0,0,.326-1.839l-9.607-13.564a1.321,1.321,0,0,0-1.843-.3l-2.725,1.93a.24.24,0,0,0-.057.335Z" transform="translate(-78.113 -276.275)" fill="#d9edff"/>
        <g id="Grupo_1149522" data-name="Grupo 1149522" transform="translate(7.399 36.814)">
          <path id="Trazado_983773" data-name="Trazado 983773" d="M90.664,314.747a.24.24,0,0,0,.06-.337l-.544-.768a1.321,1.321,0,0,0-1.843-.3l-2.725,1.93a.24.24,0,0,0-.057.335l1.124,1.587a.24.24,0,0,0,.332.059Z" transform="translate(-85.51 -313.091)" fill="#b4dbff"/>
        </g>
      </g>
      <g id="Grupo_1149524" data-name="Grupo 1149524" transform="translate(16.498 0.001)">
        <path id="Trazado_983774" data-name="Trazado 983774" d="M252.065,9.647a1.53,1.53,0,0,0,1.854-.441,5.664,5.664,0,0,0-2.153-9.06,1.53,1.53,0,0,0-1.854.441A5.663,5.663,0,0,0,252.065,9.647ZM251.2,1.879a3.829,3.829,0,0,1,1.434,6.035A3.829,3.829,0,0,1,251.2,1.879Z" transform="translate(-220.537 -0.001)"/>
        <path id="Trazado_983775" data-name="Trazado 983775" d="M71.484,275.93l-7.169,5.051a8.517,8.517,0,0,1-5.089,1.538l-5.442-.066h-.011a.9.9,0,0,0-.011,1.806l5.431.066a10.323,10.323,0,0,0,6.163-1.867l7.169-5.051a3.867,3.867,0,0,0,1.047-5.241,3.8,3.8,0,0,0-2.485-1.653l-.036-.006a3.788,3.788,0,0,0-6.888-1.686l-5.318,7.668-1.711-.17a4.1,4.1,0,0,0-2.575-6.64l-12.985-1.985a6.619,6.619,0,0,0-4.837,1.136l-6.2,4.37-.325-.458a2.227,2.227,0,0,0-3.1-.518l-9.644,6.831a2.236,2.236,0,0,0-.563,3.114l9.608,13.566a2.237,2.237,0,0,0,3.124.5l9.644-6.831a2.223,2.223,0,0,0,.541-3.1L39.6,286a17.293,17.293,0,0,1,7.9-1.812l2.044.025a.9.9,0,0,0,.022-1.806l-2.044-.025a19.089,19.089,0,0,0-8.983,2.127l-6.962-9.83,6.2-4.367a4.823,4.823,0,0,1,3.523-.827l12.985,1.985a2.294,2.294,0,0,1-.217,4.56c-.023,0-.045,0-.067.007l-4.845-.387a.9.9,0,1,0-.144,1.8c7.3.583,4.987.377,10.871.963a2.649,2.649,0,0,0,1.767-.465l7.553-5.321a2.009,2.009,0,1,1,2.281,3.308ZM28.59,294.762a.433.433,0,0,1-.606-.072l-9.608-13.566a.433.433,0,0,1,.133-.6l6.1-4.323,10.082,14.233Zm9.755-7.411a.418.418,0,0,1-.111.58L36.167,289.4,26.086,275.162l2.066-1.463a.418.418,0,0,1,.584.088Zm29.818-16.206-6.676,4.7,4.16-6a1.972,1.972,0,0,1,3.583.767A3.91,3.91,0,0,0,68.163,271.146Z" transform="translate(-16.498 -234.999)"/>
        <path id="Trazado_983776" data-name="Trazado 983776" d="M194.862,21.442a3.225,3.225,0,0,0-2.841-2.841c-11-1.281-19.22,4.671-21.28,13.93-2.318-5.023-7.613-8.126-14.477-7.326a2.553,2.553,0,0,0-2.248,2.248c-1.159,9.943,5.872,16.791,15.652,15.652a2.552,2.552,0,0,0,1.7-.937,3.23,3.23,0,0,0,1.879.889A20.3,20.3,0,0,0,187.6,39.79a.9.9,0,1,0-1.049-1.471,18.475,18.475,0,0,1-13.08,2.946l4.385-4.385h5.711a.9.9,0,0,0,0-1.806h-3.9l3.451-3.451h4.528a.9.9,0,0,0,0-1.806h-2.721l3.474-3.474a.9.9,0,0,0-1.277-1.277l-3.474,3.474V25.817a.9.9,0,1,0-1.806,0v4.528L178.389,33.8v-3.9a.9.9,0,0,0-1.806,0V35.6L172.2,39.988c-1.442-12.463,7.124-21.049,19.614-19.593a1.426,1.426,0,0,1,1.256,1.256c.632,5.42-.646,10.375-3.6,13.952a.9.9,0,0,0,1.393,1.15c3.268-3.96,4.688-9.4,4-15.311ZM170.177,40.088l-2.649-2.649v-3.95a.9.9,0,0,0-1.806,0v2.144l-1.93-1.93v-3.11a.9.9,0,0,0-1.806,0v1.3l-2.023-2.023a.9.9,0,1,0-1.277,1.277l2.023,2.023h-1.3a.9.9,0,1,0,0,1.806h3.11l1.93,1.93H162.3a.9.9,0,0,0,0,1.806h3.95l2.649,2.649c-8.415.7-14.08-5.2-13.089-13.7a.753.753,0,0,1,.663-.663C165.014,26,170.874,31.711,170.177,40.088Z" transform="translate(-137.345 -16.209)"/>
      </g>
    </g>
  </g>
</svg>
