<svg xmlns="http://www.w3.org/2000/svg" xmlns:xlink="http://www.w3.org/1999/xlink" width="108" height="108" viewBox="0 0 108 108">
  <defs>
    <filter id="Trazado_982548" x="0" y="0" width="108" height="108" filterUnits="userSpaceOnUse">
      <feOffset dy="3" input="SourceAlpha"/>
      <feGaussianBlur stdDeviation="3" result="blur"/>
      <feFlood flood-opacity="0.161"/>
      <feComposite operator="in" in2="blur"/>
      <feComposite in="SourceGraphic"/>
    </filter>
  </defs>
  <g id="_32" data-name="32" transform="translate(-201 -455)">
    <g id="Grupo_1149263" data-name="Grupo 1149263" transform="translate(0 -4394)">
      <g transform="matrix(1, 0, 0, 1, 201, 4849)" filter="url(#Trazado_982548)">
        <g id="Trazado_982548-2" data-name="Trazado 982548" transform="translate(9 6)" fill="#f6f9fc">
          <path d="M 45 88.5 C 39.12687683105469 88.5 33.43022537231445 87.35007476806641 28.06830024719238 85.08217620849609 C 22.88852500915527 82.89131164550781 18.23629951477051 79.75458526611328 14.2408504486084 75.75914764404297 C 10.24541282653809 71.76370239257812 7.108687400817871 67.11147308349609 4.917825222015381 61.93170166015625 C 2.649924993515015 56.56977462768555 1.5 50.87312316894531 1.5 45 C 1.5 39.12687683105469 2.649924993515015 33.43022537231445 4.917825222015381 28.06830024719238 C 7.108687400817871 22.88852500915527 10.24541282653809 18.23629951477051 14.2408504486084 14.2408504486084 C 18.23629951477051 10.24541282653809 22.88852500915527 7.108687400817871 28.06830024719238 4.917825222015381 C 33.43022537231445 2.649924993515015 39.12687683105469 1.5 45 1.5 C 50.87312316894531 1.5 56.56977462768555 2.649924993515015 61.93170166015625 4.917825222015381 C 67.11147308349609 7.108687400817871 71.76370239257812 10.24541282653809 75.75914764404297 14.2408504486084 C 79.75458526611328 18.23629951477051 82.89131164550781 22.88852500915527 85.08217620849609 28.06830024719238 C 87.35007476806641 33.43022537231445 88.5 39.12687683105469 88.5 45 C 88.5 50.87312316894531 87.35007476806641 56.56977462768555 85.08217620849609 61.93170166015625 C 82.89131164550781 67.11147308349609 79.75458526611328 71.76370239257812 75.75914764404297 75.75914764404297 C 71.76370239257812 79.75458526611328 67.11147308349609 82.89131164550781 61.93170166015625 85.08217620849609 C 56.56977462768555 87.35007476806641 50.87312316894531 88.5 45 88.5 Z" stroke="none"/>
          <path d="M 45 3 C 39.32871246337891 3 33.82865524291992 4.110054016113281 28.65262985229492 6.299339294433594 C 23.65165710449219 8.414573669433594 19.15968322753906 11.44334411621094 15.301513671875 15.301513671875 C 11.44334411621094 19.15968322753906 8.414573669433594 23.65165710449219 6.299339294433594 28.65262985229492 C 4.110054016113281 33.82865524291992 3 39.32871246337891 3 45 C 3 50.67128753662109 4.110054016113281 56.17134475708008 6.299339294433594 61.34737396240234 C 8.414573669433594 66.34834289550781 11.44334411621094 70.84031677246094 15.301513671875 74.698486328125 C 19.15968322753906 78.55665588378906 23.65165710449219 81.58542633056641 28.65262985229492 83.70066070556641 C 33.82865524291992 85.88994598388672 39.32871246337891 87 45 87 C 50.67128753662109 87 56.17134475708008 85.88994598388672 61.34737396240234 83.70066070556641 C 66.34834289550781 81.58542633056641 70.84031677246094 78.55665588378906 74.698486328125 74.698486328125 C 78.55665588378906 70.84031677246094 81.58542633056641 66.34834289550781 83.70066070556641 61.34737396240234 C 85.88994598388672 56.17134475708008 87 50.67128753662109 87 45 C 87 39.32871246337891 85.88994598388672 33.82865524291992 83.70066070556641 28.65262985229492 C 81.58542633056641 23.65165710449219 78.55665588378906 19.15968322753906 74.698486328125 15.301513671875 C 70.84031677246094 11.44334411621094 66.34834289550781 8.414573669433594 61.34737396240234 6.299339294433594 C 56.17134475708008 4.110054016113281 50.67128753662109 3 45 3 M 45 0 C 69.85281372070312 0 90 20.14718627929688 90 45 C 90 69.85281372070312 69.85281372070312 90 45 90 C 20.14718627929688 90 0 69.85281372070312 0 45 C 0 20.14718627929688 20.14718627929688 0 45 0 Z" stroke="none" fill="#a530fe"/>
        </g>
      </g>
    </g>
    <g id="ciencias" transform="translate(224.708 477.855)">
      <path id="Trazado_983777" data-name="Trazado 983777" d="M29.694,194.635v-4.381h7.359l-9.225-15.978a3.38,3.38,0,0,1-.453-1.69V157.195h-8.9v15.391a3.38,3.38,0,0,1-.453,1.69L8.036,191.57a3.845,3.845,0,0,0,3.33,5.768H32.4A2.7,2.7,0,0,1,29.694,194.635Z" transform="translate(-6.626 -143.081)" fill="#c8effe"/>
      <g id="Grupo_1149526" data-name="Grupo 1149526" transform="translate(0.89 14.114)">
        <path id="Trazado_983778" data-name="Trazado 983778" d="M13.01,191.57,23,174.276a3.378,3.378,0,0,0,.453-1.69V157.195H18.474v15.391a3.38,3.38,0,0,1-.453,1.69L8.036,191.57a3.845,3.845,0,0,0,3.33,5.768H16.34A3.845,3.845,0,0,1,13.01,191.57Z" transform="translate(-7.515 -157.195)" fill="#99e6fc"/>
      </g>
      <path id="Trazado_983779" data-name="Trazado 983779" d="M29.694,361v-4.381h7.359l-6.2-10.731H14.992L8.036,357.939a3.845,3.845,0,0,0,3.33,5.768H32.4a2.7,2.7,0,0,1-2.7-2.7Z" transform="translate(-6.626 -309.45)" fill="#01d0fb"/>
      <g id="Grupo_1149527" data-name="Grupo 1149527" transform="translate(0.89 36.442)">
        <path id="Trazado_983780" data-name="Trazado 983780" d="M11.366,363.707H16.34a3.845,3.845,0,0,1-3.33-5.768l6.956-12.048H14.992L8.036,357.939a3.845,3.845,0,0,0,3.33,5.768Z" transform="translate(-7.515 -345.891)" fill="#01c0fa"/>
      </g>
      <g id="Grupo_1149550" data-name="Grupo 1149550" transform="translate(3.814 -5.088)">
        <g id="Grupo_1149539" data-name="Grupo 1149539" transform="translate(0 0)">
          <g id="Grupo_1149530" data-name="Grupo 1149530" transform="translate(10.039)">
            <g id="Grupo_1149528" data-name="Grupo 1149528" transform="translate(0)">
              <ellipse id="Elipse_11624" data-name="Elipse 11624" cx="6.866" cy="3.69" rx="6.866" ry="3.69" transform="translate(0 9.709) rotate(-45)" fill="#05e39c"/>
            </g>
            <g id="Grupo_1149529" data-name="Grupo 1149529" transform="translate(2.446 2.442)">
              <path id="Trazado_983781" data-name="Trazado 983781" d="M140.16,17.961a8.224,8.224,0,0,0-2.246,7.465l9.71-9.71A8.224,8.224,0,0,0,140.16,17.961Z" transform="translate(-137.749 -15.55)" fill="#0ed290"/>
            </g>
          </g>
          <g id="Grupo_1149533" data-name="Grupo 1149533" transform="translate(0 2.393)">
            <g id="Grupo_1149531" data-name="Grupo 1149531">
              <ellipse id="Elipse_11625" data-name="Elipse 11625" cx="3.69" cy="6.866" rx="3.69" ry="6.866" transform="translate(0 5.218) rotate(-45)" fill="#05e39c"/>
            </g>
            <g id="Grupo_1149532" data-name="Grupo 1149532" transform="translate(2.446 2.608)">
              <path id="Trazado_983782" data-name="Trazado 983782" d="M55.307,44.646a8.224,8.224,0,0,0,7.465,2.246l-9.71-9.71A8.224,8.224,0,0,0,55.307,44.646Z" transform="translate(-52.896 -37.181)" fill="#0ed290"/>
            </g>
          </g>
          <g id="Grupo_1149536" data-name="Grupo 1149536" transform="translate(19.255 52.26)">
            <g id="Grupo_1149534" data-name="Grupo 1149534">
              <path id="Trazado_983783" data-name="Trazado 983783" d="M197.662,443.668h27.545a2.7,2.7,0,0,0,2.7-2.7v-4.381H194.959v4.381A2.7,2.7,0,0,0,197.662,443.668Z" transform="translate(-194.959 -436.584)" fill="#05e39c"/>
            </g>
            <g id="Grupo_1149535" data-name="Grupo 1149535">
              <path id="Trazado_983784" data-name="Trazado 983784" d="M200.527,440.965v-4.381h-5.568v4.381a2.7,2.7,0,0,0,2.7,2.7h5.568A2.7,2.7,0,0,1,200.527,440.965Z" transform="translate(-194.959 -436.584)" fill="#0ed290"/>
            </g>
          </g>
          <g id="Grupo_1149537" data-name="Grupo 1149537" transform="translate(4.553 37.336)">
            <path id="Trazado_983785" data-name="Trazado 983785" d="M70.7,314.648H86.569l-2.421-4.193H73.124Z" transform="translate(-70.703 -310.455)" fill="#f9f3f1"/>
          </g>
          <g id="Grupo_1149538" data-name="Grupo 1149538" transform="translate(4.553 37.336)">
            <path id="Trazado_983786" data-name="Trazado 983786" d="M73.124,310.455,70.7,314.648h4.974l2.421-4.193Z" transform="translate(-70.703 -310.455)" fill="#f3eae6"/>
          </g>
        </g>
        <g id="Grupo_1149549" data-name="Grupo 1149549" transform="translate(23.78 7.269)">
          <g id="Grupo_1149540" data-name="Grupo 1149540" transform="translate(9.639 13.811)">
            <circle id="Elipse_11626" data-name="Elipse 11626" cx="4.355" cy="4.355" r="4.355" fill="#ffd15b"/>
          </g>
          <g id="Grupo_1149541" data-name="Grupo 1149541" transform="translate(9.639 13.811)">
            <path id="Trazado_983787" data-name="Trazado 983787" d="M318.657,177.425a4.353,4.353,0,0,1,2.359-3.87,4.355,4.355,0,1,0,0,7.741A4.353,4.353,0,0,1,318.657,177.425Z" transform="translate(-314.666 -173.07)" fill="#ffc344"/>
          </g>
          <g id="Grupo_1149542" data-name="Grupo 1149542" transform="translate(15.304)">
            <circle id="Elipse_11627" data-name="Elipse 11627" cx="2.24" cy="2.24" r="2.24" fill="#fd6930"/>
          </g>
          <g id="Grupo_1149543" data-name="Grupo 1149543" transform="translate(15.304 0)">
            <path id="Trazado_983788" data-name="Trazado 983788" d="M364.507,58.589a2.238,2.238,0,0,1,1.257-2.01,2.24,2.24,0,1,0,0,4.021,2.238,2.238,0,0,1-1.257-2.01Z" transform="translate(-362.542 -56.349)" fill="#ef4424"/>
          </g>
          <g id="Grupo_1149544" data-name="Grupo 1149544" transform="translate(0 27.124)">
            <circle id="Elipse_11628" data-name="Elipse 11628" cx="2.24" cy="2.24" r="2.24" fill="#fd6930"/>
          </g>
          <g id="Grupo_1149545" data-name="Grupo 1149545" transform="translate(0 27.124)">
            <circle id="Elipse_11629" data-name="Elipse 11629" cx="2.24" cy="2.24" r="2.24" fill="#05e39c"/>
          </g>
          <g id="Grupo_1149546" data-name="Grupo 1149546" transform="translate(0 27.124)">
            <path id="Trazado_983789" data-name="Trazado 983789" d="M235.208,287.825a2.238,2.238,0,0,1,1.237-2,2.24,2.24,0,1,0,0,4A2.237,2.237,0,0,1,235.208,287.825Z" transform="translate(-233.203 -285.585)" fill="#0ed290"/>
          </g>
          <g id="Grupo_1149547" data-name="Grupo 1149547" transform="translate(27.622 20.903)">
            <circle id="Elipse_11630" data-name="Elipse 11630" cx="2.24" cy="2.24" r="2.24" fill="#01d0fb"/>
          </g>
          <g id="Grupo_1149548" data-name="Grupo 1149548" transform="translate(27.622 20.903)">
            <path id="Trazado_983790" data-name="Trazado 983790" d="M468.6,235.248a2.237,2.237,0,0,1,1.263-2.013,2.24,2.24,0,1,0,0,4.027A2.237,2.237,0,0,1,468.6,235.248Z" transform="translate(-466.645 -233.008)" fill="#01c0fa"/>
          </g>
        </g>
      </g>
      <g id="Grupo_1149551" data-name="Grupo 1149551" transform="translate(0.001 -3.534)">
        <path id="Trazado_983791" data-name="Trazado 983791" d="M55.338,52.754H27.991l-6.02-10.426a2.5,2.5,0,0,1-.334-1.246V35.726a.887.887,0,1,0-1.775,0v5.356a4.273,4.273,0,0,0,.426,1.856h-3.1V26.578h2.676v5.006a.887.887,0,1,0,1.775,0V26.578h.742a.887.887,0,0,0,0-1.775H17.187V19.812A9.12,9.12,0,0,0,27.045,8.919a.887.887,0,0,0-.693-.693,9.12,9.12,0,0,0-9.229,3.618.887.887,0,0,0-1.711.33V14.15a9.121,9.121,0,0,0-9.164-3.53.887.887,0,0,0-.693.693,9.114,9.114,0,0,0,9.858,10.893v2.6H10.218a.887.887,0,0,0,0,1.775h.743v14.5a2.5,2.5,0,0,1-.334,1.246L.642,59.622a4.733,4.733,0,0,0,4.1,7.1H53.317a3.6,3.6,0,0,0,3.591-3.591l-.05-8.857a1.521,1.521,0,0,0-1.519-1.519ZM25.445,11.081a7.344,7.344,0,0,1-6.995,6.995Zm-6.107.888a7.326,7.326,0,0,1,4.852-2.143l-6.994,6.995A7.327,7.327,0,0,1,19.338,11.969ZM9.3,18.327a7.328,7.328,0,0,1-2.143-4.852l6.995,6.995A7.326,7.326,0,0,1,9.3,18.327ZM8.41,12.221A7.343,7.343,0,0,1,15.4,19.215ZM28.891,57.862H23.956V54.529h3.01ZM15.412,26.578V42.938h-3.1a4.272,4.272,0,0,0,.426-1.856V38.143h.6a.887.887,0,1,0,0-1.775h-.6V34.284h.6a.887.887,0,0,0,0-1.775h-.6V30.425h.6a.887.887,0,1,0,0-1.775h-.6V26.578ZM11.3,44.712h10l1.4,2.418H9.9ZM22.676,64.946H4.741a2.958,2.958,0,0,1-2.562-4.437l6.7-11.6H23.72l2.222,3.849H23.7a1.521,1.521,0,0,0-1.519,1.519V63.13A3.568,3.568,0,0,0,22.676,64.946ZM55.133,63.13a1.818,1.818,0,0,1-1.816,1.816H25.772a1.818,1.818,0,0,1-1.816-1.816V59.637H46.977a.887.887,0,1,0,0-1.775H30.94l-1.924-3.333H55.083v3.333H51.118a.887.887,0,1,0,0,1.775h4.015V63.13Z" transform="translate(-0.001 -8.042)"/>
        <path id="Trazado_983792" data-name="Trazado 983792" d="M312.408,165.57a5.242,5.242,0,1,0,4.291,8.253.887.887,0,1,0-1.452-1.02,3.467,3.467,0,1,1,.373-3.3.887.887,0,0,0,1.644-.669A5.224,5.224,0,0,0,312.408,165.57Z" transform="translate(-270.821 -146.931)"/>
        <path id="Trazado_983793" data-name="Trazado 983793" d="M243.741,72.88a3.131,3.131,0,0,0-3.127-3.127c-.089,0-.176,0-.263.012a17.6,17.6,0,0,0-1.183-1.862c2.5-3.455,3.317-6.886,1.864-9.4s-4.832-3.526-9.074-3.087a17.729,17.729,0,0,0-.962-1.86,3.125,3.125,0,0,0-4.478-4.147,5.272,5.272,0,0,0-1.77-.309c-2.905,0-5.469,2.422-7.211,6.315-4.243-.439-7.622.571-9.074,3.087-1.339,2.319-.8,5.474,1.509,8.883.118.173.24.347.365.519-.125.173-.248.346-.365.519-2.312,3.409-2.848,6.564-1.509,8.883a5.336,5.336,0,0,0,1.412,1.584c0,.07-.008.14-.008.212a3.126,3.126,0,0,0,5.927,1.39q.843-.006,1.743-.1c1.741,3.893,4.305,6.315,7.21,6.315s5.469-2.422,7.21-6.315a18.106,18.106,0,0,0,1.859.1c3.36,0,5.982-1.051,7.215-3.187a5.235,5.235,0,0,0,.569-1.458,3.131,3.131,0,0,0,2.141-2.967ZM231.862,61.073q-1.115-.754-2.33-1.458T227.1,58.326a26.229,26.229,0,0,1,3.72-.948A26.243,26.243,0,0,1,231.862,61.073Zm-2.214-9.1a1.352,1.352,0,1,1-1.352-1.352A1.354,1.354,0,0,1,229.648,51.977Zm-4.9-1.1a3.447,3.447,0,0,1,.6.055,3.126,3.126,0,0,0,4.305,3.864q.237.428.46.893a29.27,29.27,0,0,0-5.369,1.6,29.275,29.275,0,0,0-5.369-1.6C220.787,52.723,222.689,50.874,224.746,50.874Zm-6.077,6.5a26.229,26.229,0,0,1,3.719.948q-1.211.588-2.428,1.289t-2.331,1.46A26.23,26.23,0,0,1,218.67,57.378Zm-5.677,23.075a1.352,1.352,0,1,1,1.352-1.352A1.354,1.354,0,0,1,212.992,80.453Zm3.1-1.749a3.125,3.125,0,0,0-5.536-1.562,3.5,3.5,0,0,1-.559-.725c-.966-1.673-.441-4.224,1.441-7l.046-.066a29.407,29.407,0,0,0,4.063,3.855,29.291,29.291,0,0,0,1.3,5.454Q216.465,78.692,216.093,78.7Zm-.818-8.038a25.541,25.541,0,0,1-2.692-2.763,25.54,25.54,0,0,1,2.692-2.763q-.1,1.35-.1,2.763t.1,2.763Zm.273-8.067a29.414,29.414,0,0,0-4.063,3.855l-.046-.066c-1.882-2.775-2.407-5.326-1.441-7,.893-1.547,2.935-2.3,5.6-2.3.4,0,.822.018,1.253.052A29.289,29.289,0,0,0,215.548,62.6Zm2.082,12.132q1.123.762,2.331,1.46t2.428,1.289a26.226,26.226,0,0,1-3.72.948A26.265,26.265,0,0,1,217.631,74.731Zm7.116,10.2c-2.057,0-3.959-1.849-5.369-4.812a29.284,29.284,0,0,0,5.369-1.6,29.277,29.277,0,0,0,5.369,1.6C228.706,83.083,226.8,84.932,224.746,84.932Zm6.077-6.5a26.244,26.244,0,0,1-3.72-.948q1.211-.588,2.428-1.289t2.33-1.458A26.245,26.245,0,0,1,230.823,78.428Zm1.45-6.18a35.254,35.254,0,0,1-7.525,4.345,34.933,34.933,0,0,1-3.9-1.94,35.606,35.606,0,0,1-3.627-2.4,35.208,35.208,0,0,1,0-8.71,35.594,35.594,0,0,1,3.627-2.4,34.952,34.952,0,0,1,3.9-1.94,35.244,35.244,0,0,1,7.526,4.345,35.213,35.213,0,0,1,0,8.691Zm7.222-12.86c1.029,1.782.378,4.353-1.483,7.056a29.275,29.275,0,0,0-4.068-3.851,29.282,29.282,0,0,0-1.3-5.448C235.913,56.884,238.465,57.607,239.494,59.388Zm-5.275,5.767A26.237,26.237,0,0,1,236.9,67.9a26.237,26.237,0,0,1-2.681,2.747q.1-1.343.1-2.747T234.219,65.156Zm-1.577,13.506a29.278,29.278,0,0,0,1.3-5.448,29.281,29.281,0,0,0,4.068-3.851c.246.357.468.711.67,1.062a3.124,3.124,0,0,0,1.062,5.459,3.452,3.452,0,0,1-.249.535C238.466,78.2,235.913,78.922,232.642,78.661Zm7.972-4.429a1.352,1.352,0,1,1,1.352-1.352A1.354,1.354,0,0,1,240.614,74.232Z" transform="translate(-183.159 -44.021)"/>
        <circle id="Elipse_11631" data-name="Elipse 11631" cx="0.887" cy="0.887" r="0.887" transform="translate(10.41 45.145)"/>
        <circle id="Elipse_11632" data-name="Elipse 11632" cx="0.887" cy="0.887" r="0.887" transform="translate(13.112 50.821)"/>
        <circle id="Elipse_11633" data-name="Elipse 11633" cx="0.887" cy="0.887" r="0.887" transform="translate(7.706 49.47)"/>
      </g>
    </g>
  </g>
</svg>
