<svg xmlns="http://www.w3.org/2000/svg" xmlns:xlink="http://www.w3.org/1999/xlink" width="1240" height="505" viewBox="0 0 1240 505">
  <defs>
    <clipPath id="clip-path">
      <rect id="Rectángulo_406425" data-name="Rectángulo 406425" width="227" height="227" transform="translate(0 -0.309)" fill="none"/>
    </clipPath>
    <filter id="Trazado_983817">
      <feOffset dy="3" input="SourceAlpha"/>
      <feGaussianBlur stdDeviation="3" result="blur"/>
      <feFlood flood-opacity="0.161" result="color"/>
      <feComposite operator="out" in="SourceGraphic" in2="blur"/>
      <feComposite operator="in" in="color"/>
      <feComposite operator="in" in2="SourceGraphic"/>
    </filter>
    <clipPath id="clip-path-2">
      <rect id="Rectángulo_406426" data-name="Rectángulo 406426" width="226" height="227" transform="translate(0.371 -0.392)" fill="none"/>
    </clipPath>
    <filter id="Trazado_983818">
      <feOffset dy="3" input="SourceAlpha"/>
      <feGaussianBlur stdDeviation="3" result="blur-2"/>
      <feFlood flood-opacity="0.161" result="color-2"/>
      <feComposite operator="out" in="SourceGraphic" in2="blur-2"/>
      <feComposite operator="in" in="color-2"/>
      <feComposite operator="in" in2="SourceGraphic"/>
    </filter>
    <clipPath id="clip-path-3">
      <rect id="Rectángulo_406427" data-name="Rectángulo 406427" width="227" height="227" transform="translate(-0.257 -0.309)" fill="none"/>
    </clipPath>
    <filter id="Trazado_983819" x="631.257" y="158.416" width="244.743" height="244.743" filterUnits="userSpaceOnUse">
      <feOffset dy="3" input="SourceAlpha"/>
      <feGaussianBlur stdDeviation="3" result="blur-3"/>
      <feFlood flood-opacity="0.161"/>
      <feComposite operator="in" in2="blur-3"/>
      <feComposite in="SourceGraphic"/>
    </filter>
    <clipPath id="clip-path-4">
      <rect id="Rectángulo_406428" data-name="Rectángulo 406428" width="42.514" height="42.514" fill="none"/>
    </clipPath>
    <filter id="Trazado_983827" x="372.629" y="169.045" width="223.486" height="223.485" filterUnits="userSpaceOnUse">
      <feOffset dy="3" input="SourceAlpha"/>
      <feGaussianBlur stdDeviation="3" result="blur-4"/>
      <feFlood flood-opacity="0.161"/>
      <feComposite operator="in" in2="blur-4"/>
      <feComposite in="SourceGraphic"/>
    </filter>
    <filter id="Trazado_983828" x="399.563" y="195.979" width="169.617" height="169.616" filterUnits="userSpaceOnUse">
      <feOffset dy="3" input="SourceAlpha"/>
      <feGaussianBlur stdDeviation="3" result="blur-5"/>
      <feFlood flood-opacity="0.161"/>
      <feComposite operator="in" in2="blur-5"/>
      <feComposite in="SourceGraphic"/>
    </filter>
    <filter id="Trazado_983829" x="507.257" y="52.128" width="223.486" height="223.486" filterUnits="userSpaceOnUse">
      <feOffset dy="3" input="SourceAlpha"/>
      <feGaussianBlur stdDeviation="3" result="blur-6"/>
      <feFlood flood-opacity="0.161"/>
      <feComposite operator="in" in2="blur-6"/>
      <feComposite in="SourceGraphic"/>
    </filter>
    <filter id="Trazado_983830" x="534.192" y="79.063" width="169.617" height="169.617" filterUnits="userSpaceOnUse">
      <feOffset dy="3" input="SourceAlpha"/>
      <feGaussianBlur stdDeviation="3" result="blur-7"/>
      <feFlood flood-opacity="0.161"/>
      <feComposite operator="in" in2="blur-7"/>
      <feComposite in="SourceGraphic"/>
    </filter>
    <filter id="Trazado_983831" x="641.886" y="169.044" width="223.486" height="223.487" filterUnits="userSpaceOnUse">
      <feOffset dy="3" input="SourceAlpha"/>
      <feGaussianBlur stdDeviation="3" result="blur-8"/>
      <feFlood flood-opacity="0.161"/>
      <feComposite operator="in" in2="blur-8"/>
      <feComposite in="SourceGraphic"/>
    </filter>
    <filter id="Trazado_983832" x="668.821" y="195.979" width="169.617" height="169.616" filterUnits="userSpaceOnUse">
      <feOffset dy="3" input="SourceAlpha"/>
      <feGaussianBlur stdDeviation="3" result="blur-9"/>
      <feFlood flood-opacity="0.161"/>
      <feComposite operator="in" in2="blur-9"/>
      <feComposite in="SourceGraphic"/>
    </filter>
  </defs>
  <g id="_36" data-name="36" transform="translate(-181 -2401)">
    <rect id="Rectángulo_406348" data-name="Rectángulo 406348" width="1240" height="505" rx="8" transform="translate(181 2401)" fill="#edf3fc"/>
    <g id="Grupo_1149619" data-name="Grupo 1149619">
      <path id="Trazado_983837" data-name="Trazado 983837" d="M20.42-14.474a28.2,28.2,0,0,1-.651,6.386,14.88,14.88,0,0,1-1.882,4.695,8.47,8.47,0,0,1-3.023,2.9A8.276,8.276,0,0,1,10.791.5,7.728,7.728,0,0,1,6.937-.45,8.077,8.077,0,0,1,4.084-3.223,14.053,14.053,0,0,1,2.322-7.7a27.667,27.667,0,0,1-.6-6.076,31.318,31.318,0,0,1,.631-6.646A15.2,15.2,0,0,1,4.2-25.255,8.242,8.242,0,0,1,7.237-28.2a8.516,8.516,0,0,1,4.154-.991Q20.42-29.188,20.42-14.474Zm-3.363.32q0-12.252-5.826-12.252-6.146,0-6.146,12.472Q5.085-2.3,11.111-2.3,17.057-2.3,17.057-14.154ZM36.6,0H33.313V-24.8a7.6,7.6,0,0,1-1.111.871,18.111,18.111,0,0,1-1.642.971q-.911.48-1.922.9a13.967,13.967,0,0,1-1.972.661v-3.323a19.087,19.087,0,0,0,2.292-.811q1.211-.51,2.382-1.141T33.553-28a17.562,17.562,0,0,0,1.8-1.351H36.6Z" transform="translate(642.472 2667.364)" fill="#a530fe"/>
      <path id="Trazado_983835" data-name="Trazado 983835" d="M20.42-14.474a28.2,28.2,0,0,1-.651,6.386,14.88,14.88,0,0,1-1.882,4.695,8.47,8.47,0,0,1-3.023,2.9A8.276,8.276,0,0,1,10.791.5,7.728,7.728,0,0,1,6.937-.45,8.077,8.077,0,0,1,4.084-3.223,14.053,14.053,0,0,1,2.322-7.7a27.667,27.667,0,0,1-.6-6.076,31.318,31.318,0,0,1,.631-6.646A15.2,15.2,0,0,1,4.2-25.255,8.242,8.242,0,0,1,7.237-28.2a8.516,8.516,0,0,1,4.154-.991Q20.42-29.188,20.42-14.474Zm-3.363.32q0-12.252-5.826-12.252-6.146,0-6.146,12.472Q5.085-2.3,11.111-2.3,17.057-2.3,17.057-14.154ZM41.18-8.128a8.369,8.369,0,0,1-.731,3.533,7.8,7.8,0,0,1-2.062,2.723A9.517,9.517,0,0,1,35.194-.12,12.916,12.916,0,0,1,31.09.5a11.926,11.926,0,0,1-6.526-1.562V-4.584A10.459,10.459,0,0,0,31.21-2.3a9.032,9.032,0,0,0,2.713-.38,6.082,6.082,0,0,0,2.082-1.1,4.891,4.891,0,0,0,1.341-1.742,5.439,5.439,0,0,0,.47-2.3q0-5.625-8.008-5.625H27.427v-2.783h2.262q7.087,0,7.087-5.285,0-4.885-5.405-4.885a9.2,9.2,0,0,0-5.706,2.042v-3.183a12.473,12.473,0,0,1,6.526-1.642,10.028,10.028,0,0,1,3.263.5,7.477,7.477,0,0,1,2.5,1.4,6.21,6.21,0,0,1,1.612,2.162,6.673,6.673,0,0,1,.571,2.783q0,5.666-5.726,7.287v.08a9.057,9.057,0,0,1,2.7.711,7.212,7.212,0,0,1,2.142,1.431A6.381,6.381,0,0,1,40.67-10.76,6.615,6.615,0,0,1,41.18-8.128Z" transform="translate(913.642 2662.838)" fill="#66c4ae"/>
      <path id="Trazado_983836" data-name="Trazado 983836" d="M20.42-14.474a28.2,28.2,0,0,1-.651,6.386,14.88,14.88,0,0,1-1.882,4.695,8.47,8.47,0,0,1-3.023,2.9A8.276,8.276,0,0,1,10.791.5,7.728,7.728,0,0,1,6.937-.45,8.077,8.077,0,0,1,4.084-3.223,14.053,14.053,0,0,1,2.322-7.7a27.667,27.667,0,0,1-.6-6.076,31.318,31.318,0,0,1,.631-6.646A15.2,15.2,0,0,1,4.2-25.255,8.242,8.242,0,0,1,7.237-28.2a8.516,8.516,0,0,1,4.154-.991Q20.42-29.188,20.42-14.474Zm-3.363.32q0-12.252-5.826-12.252-6.146,0-6.146,12.472Q5.085-2.3,11.111-2.3,17.057-2.3,17.057-14.154Zm20.5-7.027a5.936,5.936,0,0,0-.41-2.3,4.56,4.56,0,0,0-1.121-1.632,4.593,4.593,0,0,0-1.672-.971,6.546,6.546,0,0,0-2.082-.32,6.887,6.887,0,0,0-1.882.26,9.148,9.148,0,0,0-1.792.721,11.022,11.022,0,0,0-1.682,1.1A12.147,12.147,0,0,0,25.4-22.9v-3.523A9.816,9.816,0,0,1,28.5-28.478a10.89,10.89,0,0,1,4.174-.711,10.077,10.077,0,0,1,3.263.51,7.482,7.482,0,0,1,2.6,1.491,6.9,6.9,0,0,1,1.732,2.422,8.17,8.17,0,0,1,.631,3.3,11.327,11.327,0,0,1-.39,3.083,9.534,9.534,0,0,1-1.181,2.6,12.558,12.558,0,0,1-1.992,2.342,28.216,28.216,0,0,1-2.823,2.282Q32.492-9.709,31.18-8.688A14.735,14.735,0,0,0,29.1-6.777a5.548,5.548,0,0,0-1.081,1.782,6.228,6.228,0,0,0-.31,2.052H42V0H24.284V-1.421a11.845,11.845,0,0,1,.4-3.243,8.422,8.422,0,0,1,1.321-2.663A14.777,14.777,0,0,1,28.418-9.85q1.491-1.261,3.654-2.843a23.1,23.1,0,0,0,2.613-2.142,11.137,11.137,0,0,0,1.692-2.042,7.334,7.334,0,0,0,.911-2.072A8.934,8.934,0,0,0,37.557-21.181Z" transform="translate(777.485 2543.214)" fill="#15da7e"/>
      <path id="Trazado_983995" data-name="Trazado 983995" d="M2535.172,2672H2494.2" transform="translate(-1474.839 3.5)" fill="none" stroke="#5a1a8a" stroke-width="1"/>
      <g id="Grupo_1149618" data-name="Grupo 1149618">
        <g id="Grupo_1149607" data-name="Grupo 1149607" transform="translate(0 10)">
          <g id="Grupo_1149606" data-name="Grupo 1149606">
            <g id="Rectángulo_406439" data-name="Rectángulo 406439" transform="translate(291 2653)" fill="#fff" stroke="#a530fe" stroke-width="1">
              <rect width="243" height="37" rx="18.5" stroke="none"/>
              <rect x="0.5" y="0.5" width="242" height="36" rx="18" fill="none"/>
            </g>
            <path id="Trazado_984111" data-name="Trazado 984111" d="M3.8,0H1.281V-11.2H3.8ZM13.838,0H11.377V-4.445q0-1.859-1.328-1.859a1.318,1.318,0,0,0-1.055.492,1.875,1.875,0,0,0-.414,1.25V0H6.111V-8H8.58v1.266h.031A2.829,2.829,0,0,1,11.181-8.2q2.656,0,2.656,3.3Zm9.572-8L20.433,0H17.62L14.784-8h2.641l1.391,4.93a7.2,7.2,0,0,1,.273,1.422h.031a8.069,8.069,0,0,1,.289-1.375L20.831-8ZM31.5-3.3H26.278q.125,1.742,2.2,1.742a4.286,4.286,0,0,0,2.32-.625V-.4A6.1,6.1,0,0,1,27.911.2,4.058,4.058,0,0,1,24.9-.879a4.058,4.058,0,0,1-1.07-3,4.281,4.281,0,0,1,1.156-3.156A3.852,3.852,0,0,1,27.833-8.2,3.5,3.5,0,0,1,30.54-7.156a4,4,0,0,1,.957,2.82ZM29.208-4.812q0-1.719-1.391-1.719a1.328,1.328,0,0,0-1.027.492,2.234,2.234,0,0,0-.527,1.227Zm3.236,4.6v-2a5.256,5.256,0,0,0,1.215.547,4.028,4.028,0,0,0,1.145.18,2.455,2.455,0,0,0,1.035-.18.581.581,0,0,0,.379-.547.506.506,0,0,0-.172-.391,1.6,1.6,0,0,0-.441-.273,5.009,5.009,0,0,0-.59-.211q-.32-.094-.617-.211a5.913,5.913,0,0,1-.84-.387,2.427,2.427,0,0,1-.609-.48,1.889,1.889,0,0,1-.375-.633,2.525,2.525,0,0,1-.129-.852A2.192,2.192,0,0,1,32.737-6.8a2.393,2.393,0,0,1,.781-.793,3.57,3.57,0,0,1,1.117-.453A5.825,5.825,0,0,1,35.944-8.2a7.261,7.261,0,0,1,1.078.082,8.047,8.047,0,0,1,1.078.238v1.906a3.9,3.9,0,0,0-1-.41,4.235,4.235,0,0,0-1.051-.137,2.328,2.328,0,0,0-.457.043,1.505,1.505,0,0,0-.379.125.7.7,0,0,0-.258.211.486.486,0,0,0-.094.293A.541.541,0,0,0,35-5.469a1.221,1.221,0,0,0,.367.27,3.625,3.625,0,0,0,.5.2q.277.09.551.184a7.161,7.161,0,0,1,.891.375,2.848,2.848,0,0,1,.684.477,1.871,1.871,0,0,1,.438.641,2.277,2.277,0,0,1,.152.875,2.282,2.282,0,0,1-.309,1.215,2.471,2.471,0,0,1-.82.82,3.72,3.72,0,0,1-1.18.461A6.54,6.54,0,0,1,34.889.2,7.149,7.149,0,0,1,32.444-.211Zm12.4.117A3.649,3.649,0,0,1,43.2.2q-2.609,0-2.609-2.711V-6.18h-1.3V-8h1.3V-9.727l2.461-.7V-8h1.8v1.82h-1.8v3.234q0,1.25.992,1.25a1.673,1.673,0,0,0,.8-.227Zm2.642-9.172a1.442,1.442,0,0,1-1.023-.371,1.2,1.2,0,0,1-.4-.91,1.153,1.153,0,0,1,.4-.906,1.49,1.49,0,0,1,1.023-.352,1.486,1.486,0,0,1,1.027.352,1.158,1.158,0,0,1,.395.906,1.191,1.191,0,0,1-.395.922A1.466,1.466,0,0,1,47.486-9.266ZM48.7,0H46.236V-8H48.7Zm9.923-.914a4.526,4.526,0,0,1-1.289,3.449A5.224,5.224,0,0,1,53.6,3.758,5.919,5.919,0,0,1,51.042,3.3V1.219a4.907,4.907,0,0,0,2.492.719,2.684,2.684,0,0,0,1.938-.66A2.369,2.369,0,0,0,56.16-.516v-.633h-.031A2.757,2.757,0,0,1,53.636.2a3,3,0,0,1-2.43-1.078,4.372,4.372,0,0,1-.9-2.891,4.87,4.87,0,0,1,1-3.227,3.265,3.265,0,0,1,2.633-1.2A2.429,2.429,0,0,1,56.128-7.07h.031V-8h2.469Zm-2.437-2.93v-.633a1.945,1.945,0,0,0-.449-1.293A1.453,1.453,0,0,0,54.574-6.3a1.51,1.51,0,0,0-1.289.641,3.012,3.012,0,0,0-.469,1.8,2.543,2.543,0,0,0,.445,1.582A1.451,1.451,0,0,0,54.48-1.7a1.511,1.511,0,0,0,1.238-.59A2.418,2.418,0,0,0,56.191-3.844ZM67.349,0H65.013V-1.148h-.031A2.607,2.607,0,0,1,62.6.2a2.492,2.492,0,0,1-1.832-.66A2.366,2.366,0,0,1,60.1-2.227q0-2.328,2.758-2.687L65.028-5.2q0-1.312-1.422-1.312a4.853,4.853,0,0,0-2.719.852V-7.523a6.116,6.116,0,0,1,1.41-.469,7.413,7.413,0,0,1,1.629-.2q3.422,0,3.422,3.414Zm-2.32-3.25v-.539L63.575-3.6q-1.2.156-1.2,1.086a.9.9,0,0,0,.293.691,1.126,1.126,0,0,0,.793.27,1.462,1.462,0,0,0,1.133-.48A1.735,1.735,0,0,0,65.028-3.25ZM75.366-.289A4.881,4.881,0,0,1,72.952.2,4.083,4.083,0,0,1,69.968-.922,3.859,3.859,0,0,1,68.827-3.8,4.251,4.251,0,0,1,70.05-7.02,4.518,4.518,0,0,1,73.319-8.2a4.2,4.2,0,0,1,2.047.375v2.094A2.814,2.814,0,0,0,73.639-6.3a2.275,2.275,0,0,0-1.684.621,2.317,2.317,0,0,0-.621,1.715A2.28,2.28,0,0,0,71.928-2.3a2.182,2.182,0,0,0,1.633.605,3.258,3.258,0,0,0,1.8-.578Zm2.869-8.977a1.442,1.442,0,0,1-1.023-.371,1.2,1.2,0,0,1-.4-.91,1.153,1.153,0,0,1,.4-.906,1.49,1.49,0,0,1,1.023-.352,1.486,1.486,0,0,1,1.027.352,1.158,1.158,0,0,1,.395.906,1.191,1.191,0,0,1-.395.922A1.466,1.466,0,0,1,78.235-9.266ZM79.453,0H76.985V-8h2.469Zm5.892.2A4.3,4.3,0,0,1,82.2-.926a4.064,4.064,0,0,1-1.145-3.043,4.065,4.065,0,0,1,1.188-3.105A4.487,4.487,0,0,1,85.455-8.2,4.249,4.249,0,0,1,88.58-7.074a3.985,3.985,0,0,1,1.133,2.965A4.23,4.23,0,0,1,88.545-.961,4.348,4.348,0,0,1,85.346.2Zm.063-6.5a1.647,1.647,0,0,0-1.359.6A2.653,2.653,0,0,0,83.564-4q0,2.3,1.859,2.3Q87.2-1.7,87.2-4.062,87.2-6.3,85.408-6.3Zm2.648-5.484L85.611-9.266H83.83l2.031-2.523ZM99.035,0H96.574V-4.445q0-1.859-1.328-1.859a1.318,1.318,0,0,0-1.055.492,1.875,1.875,0,0,0-.414,1.25V0H91.308V-8h2.469v1.266h.031A2.829,2.829,0,0,1,96.379-8.2q2.656,0,2.656,3.3Zm13.558-3.3h-5.219q.125,1.742,2.2,1.742a4.286,4.286,0,0,0,2.32-.625V-.4A6.1,6.1,0,0,1,109.007.2,4.058,4.058,0,0,1,106-.879a4.058,4.058,0,0,1-1.07-3,4.281,4.281,0,0,1,1.156-3.156A3.852,3.852,0,0,1,108.929-8.2a3.5,3.5,0,0,1,2.707,1.039,4,4,0,0,1,.957,2.82ZM110.3-4.812q0-1.719-1.391-1.719a1.328,1.328,0,0,0-1.027.492,2.234,2.234,0,0,0-.527,1.227ZM121.79-8l-2.641,3.875L121.774,0H118.93l-1.156-2.156q-.141-.258-.336-.727h-.031a5.073,5.073,0,0,1-.32.7L115.922,0h-2.836l2.7-3.984L113.251-8h2.859l1.141,2.242a4.918,4.918,0,0,1,.32.75h.031a5.286,5.286,0,0,1,.336-.766L119.1-8ZM125.4-.93h-.031V3.68H122.9V-8h2.469v1.2h.031a2.9,2.9,0,0,1,2.57-1.4,2.892,2.892,0,0,1,2.4,1.066,4.54,4.54,0,0,1,.848,2.9,4.922,4.922,0,0,1-.988,3.211A3.222,3.222,0,0,1,127.6.2,2.491,2.491,0,0,1,125.4-.93Zm-.07-3.281v.641a2.037,2.037,0,0,0,.438,1.352,1.424,1.424,0,0,0,1.148.523,1.514,1.514,0,0,0,1.309-.652A3.15,3.15,0,0,0,128.69-4.2q0-2.109-1.641-2.109a1.541,1.541,0,0,0-1.238.574A2.29,2.29,0,0,0,125.33-4.211ZM135.293,0h-2.469V-11.844h2.469Zm5.892.2a4.3,4.3,0,0,1-3.145-1.121A4.064,4.064,0,0,1,136.9-3.969a4.065,4.065,0,0,1,1.188-3.105A4.487,4.487,0,0,1,141.294-8.2a4.249,4.249,0,0,1,3.125,1.121,3.985,3.985,0,0,1,1.133,2.965,4.23,4.23,0,0,1-1.168,3.148A4.348,4.348,0,0,1,141.185.2Zm.063-6.5a1.647,1.647,0,0,0-1.359.6A2.653,2.653,0,0,0,139.4-4q0,2.3,1.859,2.3,1.773,0,1.773-2.367Q143.037-6.3,141.248-6.3Zm11.127.531a2.142,2.142,0,0,0-1.039-.242,1.5,1.5,0,0,0-1.258.59,2.573,2.573,0,0,0-.453,1.605V0h-2.469V-8h2.469v1.484h.031a2.136,2.136,0,0,1,2.109-1.625,1.59,1.59,0,0,1,.609.094ZM160.18,0h-2.336V-1.148h-.031A2.607,2.607,0,0,1,155.43.2a2.492,2.492,0,0,1-1.832-.66,2.366,2.366,0,0,1-.668-1.762q0-2.328,2.758-2.687L157.86-5.2q0-1.312-1.422-1.312a4.853,4.853,0,0,0-2.719.852V-7.523a6.116,6.116,0,0,1,1.41-.469,7.413,7.413,0,0,1,1.629-.2q3.422,0,3.422,3.414Zm-2.32-3.25v-.539l-1.453.188q-1.2.156-1.2,1.086a.9.9,0,0,0,.293.691,1.126,1.126,0,0,0,.793.27,1.462,1.462,0,0,0,1.133-.48A1.735,1.735,0,0,0,157.86-3.25Zm9.111,3.156A3.649,3.649,0,0,1,165.323.2q-2.609,0-2.609-2.711V-6.18h-1.3V-8h1.3V-9.727l2.461-.7V-8h1.8v1.82h-1.8v3.234q0,1.25.992,1.25a1.673,1.673,0,0,0,.8-.227ZM172.113.2a4.3,4.3,0,0,1-3.145-1.121,4.064,4.064,0,0,1-1.145-3.043,4.065,4.065,0,0,1,1.188-3.105A4.487,4.487,0,0,1,172.223-8.2a4.249,4.249,0,0,1,3.125,1.121,3.985,3.985,0,0,1,1.133,2.965,4.23,4.23,0,0,1-1.168,3.148A4.348,4.348,0,0,1,172.113.2Zm.063-6.5a1.647,1.647,0,0,0-1.359.6,2.653,2.653,0,0,0-.484,1.7q0,2.3,1.859,2.3,1.773,0,1.773-2.367Q173.965-6.3,172.176-6.3Zm11.127.531a2.142,2.142,0,0,0-1.039-.242,1.5,1.5,0,0,0-1.258.59,2.573,2.573,0,0,0-.453,1.605V0h-2.469V-8h2.469v1.484h.031a2.136,2.136,0,0,1,2.109-1.625,1.59,1.59,0,0,1,.609.094Zm2.463-3.492a1.442,1.442,0,0,1-1.023-.371,1.2,1.2,0,0,1-.4-.91,1.153,1.153,0,0,1,.4-.906,1.49,1.49,0,0,1,1.023-.352,1.486,1.486,0,0,1,1.027.352,1.158,1.158,0,0,1,.395.906,1.191,1.191,0,0,1-.395.922A1.466,1.466,0,0,1,185.765-9.266ZM186.984,0h-2.469V-8h2.469Zm8.736,0h-2.336V-1.148h-.031A2.607,2.607,0,0,1,190.97.2a2.492,2.492,0,0,1-1.832-.66,2.366,2.366,0,0,1-.668-1.762q0-2.328,2.758-2.687L193.4-5.2q0-1.312-1.422-1.312a4.853,4.853,0,0,0-2.719.852V-7.523a6.116,6.116,0,0,1,1.41-.469,7.413,7.413,0,0,1,1.629-.2q3.422,0,3.422,3.414ZM193.4-3.25v-.539l-1.453.188q-1.2.156-1.2,1.086a.9.9,0,0,0,.293.691,1.126,1.126,0,0,0,.793.27,1.462,1.462,0,0,0,1.133-.48A1.735,1.735,0,0,0,193.4-3.25Z" transform="translate(325 2678)" fill="#0b0a0a"/>
          </g>
          <g id="Elipse_11658" data-name="Elipse 11658" transform="translate(263 2644)" fill="#fff" stroke="#a530fe" stroke-width="1">
            <circle cx="28" cy="28" r="28" stroke="none"/>
            <circle cx="28" cy="28" r="27.5" fill="none"/>
          </g>
        </g>
        <path id="Trazado_983994" data-name="Trazado 983994" d="M2494.2,2672h40.968" transform="translate(-1955.521 10)" fill="none" stroke="#5a1a8a" stroke-width="1"/>
        <g id="Grupo_1149614" data-name="Grupo 1149614">
          <g id="Grupo_1149606-2" data-name="Grupo 1149606" transform="translate(1065.016 2656.5)">
            <g id="Rectángulo_406439-2" data-name="Rectángulo 406439" fill="#fff" stroke="#a530fe" stroke-width="1">
              <rect width="243" height="37" rx="18.5" stroke="none"/>
              <rect x="0.5" y="0.5" width="242" height="36" rx="18" fill="none"/>
            </g>
            <path id="Trazado_984109" data-name="Trazado 984109" d="M3.8,0H1.281V-11.2H3.8ZM13.838,0H11.377V-4.445q0-1.859-1.328-1.859a1.318,1.318,0,0,0-1.055.492,1.875,1.875,0,0,0-.414,1.25V0H6.111V-8H8.58v1.266h.031A2.829,2.829,0,0,1,11.181-8.2q2.656,0,2.656,3.3Zm9.572-8L20.433,0H17.62L14.784-8h2.641l1.391,4.93a7.2,7.2,0,0,1,.273,1.422h.031a8.069,8.069,0,0,1,.289-1.375L20.831-8ZM31.5-3.3H26.278q.125,1.742,2.2,1.742a4.286,4.286,0,0,0,2.32-.625V-.4A6.1,6.1,0,0,1,27.911.2,4.058,4.058,0,0,1,24.9-.879a4.058,4.058,0,0,1-1.07-3,4.281,4.281,0,0,1,1.156-3.156A3.852,3.852,0,0,1,27.833-8.2,3.5,3.5,0,0,1,30.54-7.156a4,4,0,0,1,.957,2.82ZM29.208-4.812q0-1.719-1.391-1.719a1.328,1.328,0,0,0-1.027.492,2.234,2.234,0,0,0-.527,1.227Zm3.236,4.6v-2a5.256,5.256,0,0,0,1.215.547,4.028,4.028,0,0,0,1.145.18,2.455,2.455,0,0,0,1.035-.18.581.581,0,0,0,.379-.547.506.506,0,0,0-.172-.391,1.6,1.6,0,0,0-.441-.273,5.009,5.009,0,0,0-.59-.211q-.32-.094-.617-.211a5.913,5.913,0,0,1-.84-.387,2.427,2.427,0,0,1-.609-.48,1.889,1.889,0,0,1-.375-.633,2.525,2.525,0,0,1-.129-.852A2.192,2.192,0,0,1,32.737-6.8a2.393,2.393,0,0,1,.781-.793,3.57,3.57,0,0,1,1.117-.453A5.825,5.825,0,0,1,35.944-8.2a7.261,7.261,0,0,1,1.078.082,8.047,8.047,0,0,1,1.078.238v1.906a3.9,3.9,0,0,0-1-.41,4.235,4.235,0,0,0-1.051-.137,2.328,2.328,0,0,0-.457.043,1.505,1.505,0,0,0-.379.125.7.7,0,0,0-.258.211.486.486,0,0,0-.094.293A.541.541,0,0,0,35-5.469a1.221,1.221,0,0,0,.367.27,3.625,3.625,0,0,0,.5.2q.277.09.551.184a7.161,7.161,0,0,1,.891.375,2.848,2.848,0,0,1,.684.477,1.871,1.871,0,0,1,.438.641,2.277,2.277,0,0,1,.152.875,2.282,2.282,0,0,1-.309,1.215,2.471,2.471,0,0,1-.82.82,3.72,3.72,0,0,1-1.18.461A6.54,6.54,0,0,1,34.889.2,7.149,7.149,0,0,1,32.444-.211Zm12.4.117A3.649,3.649,0,0,1,43.2.2q-2.609,0-2.609-2.711V-6.18h-1.3V-8h1.3V-9.727l2.461-.7V-8h1.8v1.82h-1.8v3.234q0,1.25.992,1.25a1.673,1.673,0,0,0,.8-.227Zm2.642-9.172a1.442,1.442,0,0,1-1.023-.371,1.2,1.2,0,0,1-.4-.91,1.153,1.153,0,0,1,.4-.906,1.49,1.49,0,0,1,1.023-.352,1.486,1.486,0,0,1,1.027.352,1.158,1.158,0,0,1,.395.906,1.191,1.191,0,0,1-.395.922A1.466,1.466,0,0,1,47.486-9.266ZM48.7,0H46.236V-8H48.7Zm9.923-.914a4.526,4.526,0,0,1-1.289,3.449A5.224,5.224,0,0,1,53.6,3.758,5.919,5.919,0,0,1,51.042,3.3V1.219a4.907,4.907,0,0,0,2.492.719,2.684,2.684,0,0,0,1.938-.66A2.369,2.369,0,0,0,56.16-.516v-.633h-.031A2.757,2.757,0,0,1,53.636.2a3,3,0,0,1-2.43-1.078,4.372,4.372,0,0,1-.9-2.891,4.87,4.87,0,0,1,1-3.227,3.265,3.265,0,0,1,2.633-1.2A2.429,2.429,0,0,1,56.128-7.07h.031V-8h2.469Zm-2.437-2.93v-.633a1.945,1.945,0,0,0-.449-1.293A1.453,1.453,0,0,0,54.574-6.3a1.51,1.51,0,0,0-1.289.641,3.012,3.012,0,0,0-.469,1.8,2.543,2.543,0,0,0,.445,1.582A1.451,1.451,0,0,0,54.48-1.7a1.511,1.511,0,0,0,1.238-.59A2.418,2.418,0,0,0,56.191-3.844ZM67.349,0H65.013V-1.148h-.031A2.607,2.607,0,0,1,62.6.2a2.492,2.492,0,0,1-1.832-.66A2.366,2.366,0,0,1,60.1-2.227q0-2.328,2.758-2.687L65.028-5.2q0-1.312-1.422-1.312a4.853,4.853,0,0,0-2.719.852V-7.523a6.116,6.116,0,0,1,1.41-.469,7.413,7.413,0,0,1,1.629-.2q3.422,0,3.422,3.414Zm-2.32-3.25v-.539L63.575-3.6q-1.2.156-1.2,1.086a.9.9,0,0,0,.293.691,1.126,1.126,0,0,0,.793.27,1.462,1.462,0,0,0,1.133-.48A1.735,1.735,0,0,0,65.028-3.25ZM75.366-.289A4.881,4.881,0,0,1,72.952.2,4.083,4.083,0,0,1,69.968-.922,3.859,3.859,0,0,1,68.827-3.8,4.251,4.251,0,0,1,70.05-7.02,4.518,4.518,0,0,1,73.319-8.2a4.2,4.2,0,0,1,2.047.375v2.094A2.814,2.814,0,0,0,73.639-6.3a2.275,2.275,0,0,0-1.684.621,2.317,2.317,0,0,0-.621,1.715A2.28,2.28,0,0,0,71.928-2.3a2.182,2.182,0,0,0,1.633.605,3.258,3.258,0,0,0,1.8-.578Zm2.869-8.977a1.442,1.442,0,0,1-1.023-.371,1.2,1.2,0,0,1-.4-.91,1.153,1.153,0,0,1,.4-.906,1.49,1.49,0,0,1,1.023-.352,1.486,1.486,0,0,1,1.027.352,1.158,1.158,0,0,1,.395.906,1.191,1.191,0,0,1-.395.922A1.466,1.466,0,0,1,78.235-9.266ZM79.453,0H76.985V-8h2.469Zm5.892.2A4.3,4.3,0,0,1,82.2-.926a4.064,4.064,0,0,1-1.145-3.043,4.065,4.065,0,0,1,1.188-3.105A4.487,4.487,0,0,1,85.455-8.2,4.249,4.249,0,0,1,88.58-7.074a3.985,3.985,0,0,1,1.133,2.965A4.23,4.23,0,0,1,88.545-.961,4.348,4.348,0,0,1,85.346.2Zm.063-6.5a1.647,1.647,0,0,0-1.359.6A2.653,2.653,0,0,0,83.564-4q0,2.3,1.859,2.3Q87.2-1.7,87.2-4.062,87.2-6.3,85.408-6.3Zm2.648-5.484L85.611-9.266H83.83l2.031-2.523ZM99.035,0H96.574V-4.445q0-1.859-1.328-1.859a1.318,1.318,0,0,0-1.055.492,1.875,1.875,0,0,0-.414,1.25V0H91.308V-8h2.469v1.266h.031A2.829,2.829,0,0,1,96.379-8.2q2.656,0,2.656,3.3Zm13.558-3.3h-5.219q.125,1.742,2.2,1.742a4.286,4.286,0,0,0,2.32-.625V-.4A6.1,6.1,0,0,1,109.007.2,4.058,4.058,0,0,1,106-.879a4.058,4.058,0,0,1-1.07-3,4.281,4.281,0,0,1,1.156-3.156A3.852,3.852,0,0,1,108.929-8.2a3.5,3.5,0,0,1,2.707,1.039,4,4,0,0,1,.957,2.82ZM110.3-4.812q0-1.719-1.391-1.719a1.328,1.328,0,0,0-1.027.492,2.234,2.234,0,0,0-.527,1.227ZM121.79-8l-2.641,3.875L121.774,0H118.93l-1.156-2.156q-.141-.258-.336-.727h-.031a5.073,5.073,0,0,1-.32.7L115.922,0h-2.836l2.7-3.984L113.251-8h2.859l1.141,2.242a4.918,4.918,0,0,1,.32.75h.031a5.286,5.286,0,0,1,.336-.766L119.1-8ZM125.4-.93h-.031V3.68H122.9V-8h2.469v1.2h.031a2.9,2.9,0,0,1,2.57-1.4,2.892,2.892,0,0,1,2.4,1.066,4.54,4.54,0,0,1,.848,2.9,4.922,4.922,0,0,1-.988,3.211A3.222,3.222,0,0,1,127.6.2,2.491,2.491,0,0,1,125.4-.93Zm-.07-3.281v.641a2.037,2.037,0,0,0,.438,1.352,1.424,1.424,0,0,0,1.148.523,1.514,1.514,0,0,0,1.309-.652A3.15,3.15,0,0,0,128.69-4.2q0-2.109-1.641-2.109a1.541,1.541,0,0,0-1.238.574A2.29,2.29,0,0,0,125.33-4.211ZM135.293,0h-2.469V-11.844h2.469Zm3.33-9.266a1.442,1.442,0,0,1-1.023-.371,1.2,1.2,0,0,1-.4-.91,1.153,1.153,0,0,1,.4-.906,1.49,1.49,0,0,1,1.023-.352,1.486,1.486,0,0,1,1.027.352,1.158,1.158,0,0,1,.395.906,1.191,1.191,0,0,1-.395.922A1.466,1.466,0,0,1,138.623-9.266ZM139.841,0h-2.469V-8h2.469Zm8.142-.289A4.881,4.881,0,0,1,145.569.2a4.083,4.083,0,0,1-2.984-1.117A3.859,3.859,0,0,1,141.444-3.8a4.251,4.251,0,0,1,1.223-3.215,4.518,4.518,0,0,1,3.27-1.176,4.2,4.2,0,0,1,2.047.375v2.094a2.814,2.814,0,0,0-1.727-.578,2.275,2.275,0,0,0-1.684.621,2.317,2.317,0,0,0-.621,1.715,2.28,2.28,0,0,0,.594,1.668,2.182,2.182,0,0,0,1.633.605,3.258,3.258,0,0,0,1.8-.578ZM156.259,0h-2.336V-1.148h-.031A2.607,2.607,0,0,1,151.509.2a2.492,2.492,0,0,1-1.832-.66,2.366,2.366,0,0,1-.668-1.762q0-2.328,2.758-2.687l2.172-.289q0-1.312-1.422-1.312a4.853,4.853,0,0,0-2.719.852V-7.523a6.116,6.116,0,0,1,1.41-.469,7.413,7.413,0,0,1,1.629-.2q3.422,0,3.422,3.414Zm-2.32-3.25v-.539l-1.453.188q-1.2.156-1.2,1.086a.9.9,0,0,0,.293.691,1.126,1.126,0,0,0,.793.27,1.462,1.462,0,0,0,1.133-.48A1.735,1.735,0,0,0,153.938-3.25Zm9.111,3.156A3.649,3.649,0,0,1,161.4.2q-2.609,0-2.609-2.711V-6.18h-1.3V-8h1.3V-9.727l2.461-.7V-8h1.8v1.82h-1.8v3.234q0,1.25.992,1.25a1.673,1.673,0,0,0,.8-.227Zm2.642-9.172a1.442,1.442,0,0,1-1.023-.371,1.2,1.2,0,0,1-.4-.91,1.153,1.153,0,0,1,.4-.906,1.49,1.49,0,0,1,1.023-.352,1.486,1.486,0,0,1,1.027.352,1.158,1.158,0,0,1,.395.906,1.191,1.191,0,0,1-.395.922A1.466,1.466,0,0,1,165.691-9.266ZM166.91,0h-2.469V-8h2.469Zm9.7-8-2.977,8h-2.812l-2.836-8h2.641l1.391,4.93a7.2,7.2,0,0,1,.273,1.422h.031a8.069,8.069,0,0,1,.289-1.375L174.029-8Zm7.47,8h-2.336V-1.148h-.031A2.607,2.607,0,0,1,179.327.2a2.492,2.492,0,0,1-1.832-.66,2.366,2.366,0,0,1-.668-1.762q0-2.328,2.758-2.687l2.172-.289q0-1.312-1.422-1.312a4.853,4.853,0,0,0-2.719.852V-7.523a6.116,6.116,0,0,1,1.41-.469,7.413,7.413,0,0,1,1.629-.2q3.422,0,3.422,3.414Zm-2.32-3.25v-.539L180.3-3.6q-1.2.156-1.2,1.086a.9.9,0,0,0,.293.691,1.126,1.126,0,0,0,.793.27,1.462,1.462,0,0,0,1.133-.48A1.735,1.735,0,0,0,181.757-3.25Z" transform="translate(17 25)" fill="#0b0a0a"/>
          </g>
          <g id="Elipse_11658-2" data-name="Elipse 11658" transform="translate(1280.016 2647.5)" fill="#fff" stroke="#a530fe" stroke-width="1">
            <circle cx="28" cy="28" r="28" stroke="none"/>
            <circle cx="28" cy="28" r="27.5" fill="none"/>
          </g>
        </g>
        <g id="Grupo_1149613" data-name="Grupo 1149613">
          <g id="Grupo_1149610" data-name="Grupo 1149610" transform="translate(940.325 2524.714)">
            <g id="Rectángulo_406439-3" data-name="Rectángulo 406439" fill="#fff" stroke="#a530fe" stroke-width="1">
              <rect width="243" height="37" rx="18.5" stroke="none"/>
              <rect x="0.5" y="0.5" width="242" height="36" rx="18" fill="none"/>
            </g>
            <path id="Trazado_984110" data-name="Trazado 984110" d="M3.8,0H1.281V-11.2H3.8ZM13.838,0H11.377V-4.445q0-1.859-1.328-1.859a1.318,1.318,0,0,0-1.055.492,1.875,1.875,0,0,0-.414,1.25V0H6.111V-8H8.58v1.266h.031A2.829,2.829,0,0,1,11.181-8.2q2.656,0,2.656,3.3Zm9.572-8L20.433,0H17.62L14.784-8h2.641l1.391,4.93a7.2,7.2,0,0,1,.273,1.422h.031a8.069,8.069,0,0,1,.289-1.375L20.831-8ZM31.5-3.3H26.278q.125,1.742,2.2,1.742a4.286,4.286,0,0,0,2.32-.625V-.4A6.1,6.1,0,0,1,27.911.2,4.058,4.058,0,0,1,24.9-.879a4.058,4.058,0,0,1-1.07-3,4.281,4.281,0,0,1,1.156-3.156A3.852,3.852,0,0,1,27.833-8.2,3.5,3.5,0,0,1,30.54-7.156a4,4,0,0,1,.957,2.82ZM29.208-4.812q0-1.719-1.391-1.719a1.328,1.328,0,0,0-1.027.492,2.234,2.234,0,0,0-.527,1.227Zm3.236,4.6v-2a5.256,5.256,0,0,0,1.215.547,4.028,4.028,0,0,0,1.145.18,2.455,2.455,0,0,0,1.035-.18.581.581,0,0,0,.379-.547.506.506,0,0,0-.172-.391,1.6,1.6,0,0,0-.441-.273,5.009,5.009,0,0,0-.59-.211q-.32-.094-.617-.211a5.913,5.913,0,0,1-.84-.387,2.427,2.427,0,0,1-.609-.48,1.889,1.889,0,0,1-.375-.633,2.525,2.525,0,0,1-.129-.852A2.192,2.192,0,0,1,32.737-6.8a2.393,2.393,0,0,1,.781-.793,3.57,3.57,0,0,1,1.117-.453A5.825,5.825,0,0,1,35.944-8.2a7.261,7.261,0,0,1,1.078.082,8.047,8.047,0,0,1,1.078.238v1.906a3.9,3.9,0,0,0-1-.41,4.235,4.235,0,0,0-1.051-.137,2.328,2.328,0,0,0-.457.043,1.505,1.505,0,0,0-.379.125.7.7,0,0,0-.258.211.486.486,0,0,0-.094.293A.541.541,0,0,0,35-5.469a1.221,1.221,0,0,0,.367.27,3.625,3.625,0,0,0,.5.2q.277.09.551.184a7.161,7.161,0,0,1,.891.375,2.848,2.848,0,0,1,.684.477,1.871,1.871,0,0,1,.438.641,2.277,2.277,0,0,1,.152.875,2.282,2.282,0,0,1-.309,1.215,2.471,2.471,0,0,1-.82.82,3.72,3.72,0,0,1-1.18.461A6.54,6.54,0,0,1,34.889.2,7.149,7.149,0,0,1,32.444-.211Zm12.4.117A3.649,3.649,0,0,1,43.2.2q-2.609,0-2.609-2.711V-6.18h-1.3V-8h1.3V-9.727l2.461-.7V-8h1.8v1.82h-1.8v3.234q0,1.25.992,1.25a1.673,1.673,0,0,0,.8-.227Zm2.642-9.172a1.442,1.442,0,0,1-1.023-.371,1.2,1.2,0,0,1-.4-.91,1.153,1.153,0,0,1,.4-.906,1.49,1.49,0,0,1,1.023-.352,1.486,1.486,0,0,1,1.027.352,1.158,1.158,0,0,1,.395.906,1.191,1.191,0,0,1-.395.922A1.466,1.466,0,0,1,47.486-9.266ZM48.7,0H46.236V-8H48.7Zm9.923-.914a4.526,4.526,0,0,1-1.289,3.449A5.224,5.224,0,0,1,53.6,3.758,5.919,5.919,0,0,1,51.042,3.3V1.219a4.907,4.907,0,0,0,2.492.719,2.684,2.684,0,0,0,1.938-.66A2.369,2.369,0,0,0,56.16-.516v-.633h-.031A2.757,2.757,0,0,1,53.636.2a3,3,0,0,1-2.43-1.078,4.372,4.372,0,0,1-.9-2.891,4.87,4.87,0,0,1,1-3.227,3.265,3.265,0,0,1,2.633-1.2A2.429,2.429,0,0,1,56.128-7.07h.031V-8h2.469Zm-2.437-2.93v-.633a1.945,1.945,0,0,0-.449-1.293A1.453,1.453,0,0,0,54.574-6.3a1.51,1.51,0,0,0-1.289.641,3.012,3.012,0,0,0-.469,1.8,2.543,2.543,0,0,0,.445,1.582A1.451,1.451,0,0,0,54.48-1.7a1.511,1.511,0,0,0,1.238-.59A2.418,2.418,0,0,0,56.191-3.844ZM67.349,0H65.013V-1.148h-.031A2.607,2.607,0,0,1,62.6.2a2.492,2.492,0,0,1-1.832-.66A2.366,2.366,0,0,1,60.1-2.227q0-2.328,2.758-2.687L65.028-5.2q0-1.312-1.422-1.312a4.853,4.853,0,0,0-2.719.852V-7.523a6.116,6.116,0,0,1,1.41-.469,7.413,7.413,0,0,1,1.629-.2q3.422,0,3.422,3.414Zm-2.32-3.25v-.539L63.575-3.6q-1.2.156-1.2,1.086a.9.9,0,0,0,.293.691,1.126,1.126,0,0,0,.793.27,1.462,1.462,0,0,0,1.133-.48A1.735,1.735,0,0,0,65.028-3.25ZM75.366-.289A4.881,4.881,0,0,1,72.952.2,4.083,4.083,0,0,1,69.968-.922,3.859,3.859,0,0,1,68.827-3.8,4.251,4.251,0,0,1,70.05-7.02,4.518,4.518,0,0,1,73.319-8.2a4.2,4.2,0,0,1,2.047.375v2.094A2.814,2.814,0,0,0,73.639-6.3a2.275,2.275,0,0,0-1.684.621,2.317,2.317,0,0,0-.621,1.715A2.28,2.28,0,0,0,71.928-2.3a2.182,2.182,0,0,0,1.633.605,3.258,3.258,0,0,0,1.8-.578Zm2.869-8.977a1.442,1.442,0,0,1-1.023-.371,1.2,1.2,0,0,1-.4-.91,1.153,1.153,0,0,1,.4-.906,1.49,1.49,0,0,1,1.023-.352,1.486,1.486,0,0,1,1.027.352,1.158,1.158,0,0,1,.395.906,1.191,1.191,0,0,1-.395.922A1.466,1.466,0,0,1,78.235-9.266ZM79.453,0H76.985V-8h2.469Zm5.892.2A4.3,4.3,0,0,1,82.2-.926a4.064,4.064,0,0,1-1.145-3.043,4.065,4.065,0,0,1,1.188-3.105A4.487,4.487,0,0,1,85.455-8.2,4.249,4.249,0,0,1,88.58-7.074a3.985,3.985,0,0,1,1.133,2.965A4.23,4.23,0,0,1,88.545-.961,4.348,4.348,0,0,1,85.346.2Zm.063-6.5a1.647,1.647,0,0,0-1.359.6A2.653,2.653,0,0,0,83.564-4q0,2.3,1.859,2.3Q87.2-1.7,87.2-4.062,87.2-6.3,85.408-6.3Zm2.648-5.484L85.611-9.266H83.83l2.031-2.523ZM99.035,0H96.574V-4.445q0-1.859-1.328-1.859a1.318,1.318,0,0,0-1.055.492,1.875,1.875,0,0,0-.414,1.25V0H91.308V-8h2.469v1.266h.031A2.829,2.829,0,0,1,96.379-8.2q2.656,0,2.656,3.3Zm14.2,0h-2.469V-1.1h-.031A2.768,2.768,0,0,1,108.257.2a3.033,3.033,0,0,1-2.414-1.059,4.382,4.382,0,0,1-.914-2.957A4.77,4.77,0,0,1,105.936-7a3.287,3.287,0,0,1,2.641-1.2,2.246,2.246,0,0,1,2.156,1.109h.031v-4.758h2.469Zm-2.422-3.891v-.6a1.893,1.893,0,0,0-.453-1.3,1.5,1.5,0,0,0-1.18-.516,1.487,1.487,0,0,0-1.281.645,2.993,2.993,0,0,0-.461,1.77,2.59,2.59,0,0,0,.445,1.625,1.479,1.479,0,0,0,1.234.57,1.485,1.485,0,0,0,1.223-.6A2.507,2.507,0,0,0,110.811-3.891ZM122.5-3.3h-5.219q.125,1.742,2.2,1.742a4.286,4.286,0,0,0,2.32-.625V-.4A6.1,6.1,0,0,1,118.915.2a4.058,4.058,0,0,1-3.008-1.074,4.058,4.058,0,0,1-1.07-3,4.281,4.281,0,0,1,1.156-3.156A3.852,3.852,0,0,1,118.837-8.2a3.5,3.5,0,0,1,2.707,1.039,4,4,0,0,1,.957,2.82Zm-2.289-1.516q0-1.719-1.391-1.719a1.328,1.328,0,0,0-1.027.492,2.234,2.234,0,0,0-.527,1.227Zm3.236,4.6v-2a5.256,5.256,0,0,0,1.215.547,4.028,4.028,0,0,0,1.145.18,2.455,2.455,0,0,0,1.035-.18.581.581,0,0,0,.379-.547.506.506,0,0,0-.172-.391,1.6,1.6,0,0,0-.441-.273,5.009,5.009,0,0,0-.59-.211q-.32-.094-.617-.211a5.913,5.913,0,0,1-.84-.387,2.427,2.427,0,0,1-.609-.48,1.889,1.889,0,0,1-.375-.633,2.525,2.525,0,0,1-.129-.852A2.192,2.192,0,0,1,123.74-6.8a2.393,2.393,0,0,1,.781-.793,3.57,3.57,0,0,1,1.117-.453,5.825,5.825,0,0,1,1.309-.145,7.261,7.261,0,0,1,1.078.082,8.047,8.047,0,0,1,1.078.238v1.906a3.9,3.9,0,0,0-1-.41,4.235,4.235,0,0,0-1.051-.137,2.328,2.328,0,0,0-.457.043,1.505,1.505,0,0,0-.379.125.7.7,0,0,0-.258.211.486.486,0,0,0-.094.293.541.541,0,0,0,.141.375,1.221,1.221,0,0,0,.367.27,3.625,3.625,0,0,0,.5.2q.277.09.551.184a7.161,7.161,0,0,1,.891.375,2.848,2.848,0,0,1,.684.477,1.871,1.871,0,0,1,.438.641,2.277,2.277,0,0,1,.152.875,2.282,2.282,0,0,1-.309,1.215,2.471,2.471,0,0,1-.82.82,3.72,3.72,0,0,1-1.18.461A6.54,6.54,0,0,1,125.893.2,7.149,7.149,0,0,1,123.447-.211Zm13.627-.078A4.881,4.881,0,0,1,134.66.2a4.083,4.083,0,0,1-2.984-1.117A3.859,3.859,0,0,1,130.535-3.8a4.251,4.251,0,0,1,1.223-3.215,4.518,4.518,0,0,1,3.27-1.176,4.2,4.2,0,0,1,2.047.375v2.094a2.814,2.814,0,0,0-1.727-.578,2.275,2.275,0,0,0-1.684.621,2.317,2.317,0,0,0-.621,1.715,2.28,2.28,0,0,0,.594,1.668,2.182,2.182,0,0,0,1.633.605,3.258,3.258,0,0,0,1.8-.578Zm6.838-5.484a2.142,2.142,0,0,0-1.039-.242,1.5,1.5,0,0,0-1.258.59,2.573,2.573,0,0,0-.453,1.605V0h-2.469V-8h2.469v1.484h.031A2.136,2.136,0,0,1,143.3-8.141a1.59,1.59,0,0,1,.609.094Zm2.463-3.492a1.442,1.442,0,0,1-1.023-.371,1.2,1.2,0,0,1-.4-.91,1.153,1.153,0,0,1,.4-.906,1.49,1.49,0,0,1,1.023-.352,1.486,1.486,0,0,1,1.027.352,1.158,1.158,0,0,1,.395.906,1.191,1.191,0,0,1-.395.922A1.466,1.466,0,0,1,146.374-9.266ZM147.593,0h-2.469V-8h2.469Zm4.58-.93h-.031V3.68h-2.469V-8h2.469v1.2h.031a2.9,2.9,0,0,1,2.57-1.4,2.892,2.892,0,0,1,2.4,1.066,4.54,4.54,0,0,1,.848,2.9A4.922,4.922,0,0,1,157-1.016,3.222,3.222,0,0,1,154.376.2,2.491,2.491,0,0,1,152.173-.93Zm-.07-3.281v.641a2.036,2.036,0,0,0,.438,1.352,1.424,1.424,0,0,0,1.148.523A1.514,1.514,0,0,0,155-2.348a3.15,3.15,0,0,0,.465-1.848q0-2.109-1.641-2.109a1.541,1.541,0,0,0-1.238.574A2.29,2.29,0,0,0,152.1-4.211Zm12.33,4.117A3.649,3.649,0,0,1,162.784.2q-2.609,0-2.609-2.711V-6.18h-1.3V-8h1.3V-9.727l2.461-.7V-8h1.8v1.82h-1.8v3.234q0,1.25.992,1.25a1.673,1.673,0,0,0,.8-.227Zm2.642-9.172a1.442,1.442,0,0,1-1.023-.371,1.2,1.2,0,0,1-.4-.91,1.153,1.153,0,0,1,.4-.906,1.49,1.49,0,0,1,1.023-.352,1.486,1.486,0,0,1,1.027.352,1.158,1.158,0,0,1,.395.906,1.191,1.191,0,0,1-.395.922A1.466,1.466,0,0,1,167.074-9.266ZM168.293,0h-2.469V-8h2.469Zm9.7-8-2.977,8H172.2l-2.836-8h2.641L173.4-3.07a7.2,7.2,0,0,1,.273,1.422h.031a8.069,8.069,0,0,1,.289-1.375L175.412-8Zm7.47,8h-2.336V-1.148h-.031A2.607,2.607,0,0,1,180.71.2a2.492,2.492,0,0,1-1.832-.66,2.366,2.366,0,0,1-.668-1.762q0-2.328,2.758-2.687L183.14-5.2q0-1.312-1.422-1.312A4.853,4.853,0,0,0,179-5.664V-7.523a6.116,6.116,0,0,1,1.41-.469,7.413,7.413,0,0,1,1.629-.2q3.422,0,3.422,3.414Zm-2.32-3.25v-.539l-1.453.188q-1.2.156-1.2,1.086a.9.9,0,0,0,.293.691,1.126,1.126,0,0,0,.793.27,1.462,1.462,0,0,0,1.133-.48A1.735,1.735,0,0,0,183.14-3.25Z" transform="translate(17 25)" fill="#0b0a0a"/>
          </g>
          <g id="Elipse_11659" data-name="Elipse 11659" transform="translate(1155.325 2515.714)" fill="#fff" stroke="#a530fe" stroke-width="1">
            <circle cx="28" cy="28" r="28" stroke="none"/>
            <circle cx="28" cy="28" r="27.5" fill="none"/>
          </g>
        </g>
        <path id="Trazado_983996" data-name="Trazado 983996" d="M2535.172,2672H2494.2" transform="translate(-1599.529 -128.286)" fill="none" stroke="#5a1a8a" stroke-width="1"/>
      </g>
      <g id="Grupo_1149612" data-name="Grupo 1149612" transform="translate(552 2448.499)">
        <g id="Grupo_1149579" data-name="Grupo 1149579" transform="translate(0 116.916)" style="mix-blend-mode: multiply;isolation: isolate">
          <g id="Grupo_1149578" data-name="Grupo 1149578">
            <g id="Grupo_1149577" data-name="Grupo 1149577" clip-path="url(#clip-path)">
              <g data-type="innerShadowGroup">
                <path id="Trazado_983817-2" data-name="Trazado 983817" d="M226.744,278.374A113.372,113.372,0,1,1,113.372,165,113.371,113.371,0,0,1,226.744,278.374" transform="translate(0 -165.002)" fill="#f1f1f1"/>
                <g transform="matrix(1, 0, 0, 1, -371, -164.42)" filter="url(#Trazado_983817)">
                  <path id="Trazado_983817-3" data-name="Trazado 983817" d="M226.744,278.374A113.372,113.372,0,1,1,113.372,165,113.371,113.371,0,0,1,226.744,278.374" transform="translate(371 -0.59)" fill="#fff"/>
                </g>
              </g>
            </g>
          </g>
        </g>
        <g id="Grupo_1149582" data-name="Grupo 1149582" transform="translate(134.629)" style="mix-blend-mode: multiply;isolation: isolate">
          <g id="Grupo_1149581" data-name="Grupo 1149581">
            <g id="Grupo_1149580" data-name="Grupo 1149580" clip-path="url(#clip-path-2)">
              <g data-type="innerShadowGroup">
                <path id="Trazado_983818-2" data-name="Trazado 983818" d="M416.743,113.371A113.371,113.371,0,1,1,303.371,0,113.371,113.371,0,0,1,416.743,113.371" transform="translate(-190.001 0.001)" fill="#f1f1f1"/>
                <g transform="matrix(1, 0, 0, 1, -505.63, -47.5)" filter="url(#Trazado_983818)">
                  <path id="Trazado_983818-3" data-name="Trazado 983818" d="M416.743,113.371A113.371,113.371,0,1,1,303.371,0,113.371,113.371,0,0,1,416.743,113.371" transform="translate(315.63 47.5)" fill="#fff"/>
                </g>
              </g>
            </g>
          </g>
        </g>
        <g id="Grupo_1149585" data-name="Grupo 1149585" transform="translate(269.257 116.917)" style="mix-blend-mode: multiply;isolation: isolate">
          <g id="Grupo_1149584" data-name="Grupo 1149584">
            <g id="Grupo_1149583" data-name="Grupo 1149583" clip-path="url(#clip-path-3)">
              <g transform="matrix(1, 0, 0, 1, -640.26, -164.42)" filter="url(#Trazado_983819)">
                <path id="Trazado_983819-2" data-name="Trazado 983819" d="M606.743,278.374A113.371,113.371,0,1,1,493.371,165,113.372,113.372,0,0,1,606.743,278.374" transform="translate(260.26 -0.59)" fill="#f1f1f1"/>
              </g>
            </g>
          </g>
        </g>
        <path id="Trazado_983820" data-name="Trazado 983820" d="M478.316,523.958a7.971,7.971,0,0,1-7.971,7.971H35.658a7.971,7.971,0,1,1,0-15.942H470.344a7.971,7.971,0,0,1,7.971,7.971" transform="translate(-8.069 -150.373)" fill="#5a1a8a"/>
        <g id="Grupo_1149588" data-name="Grupo 1149588" transform="translate(90.947 351.822)" style="mix-blend-mode: multiply;isolation: isolate">
          <g id="Grupo_1149587" data-name="Grupo 1149587">
            <g id="Grupo_1149586" data-name="Grupo 1149586" clip-path="url(#clip-path-4)">
              <path id="Trazado_983821" data-name="Trazado 983821" d="M170.866,517.779a21.257,21.257,0,1,1-21.257-21.257,21.259,21.259,0,0,1,21.257,21.257" transform="translate(-128.352 -496.522)" fill="#f1f1f1"/>
            </g>
          </g>
        </g>
        <path id="Trazado_983822" data-name="Trazado 983822" d="M166.694,520.692a14.17,14.17,0,1,1-14.17-14.174,14.172,14.172,0,0,1,14.17,14.174" transform="translate(-40.32 -147.613)" fill="#a530fe"/>
        <rect id="Rectángulo_406429" data-name="Rectángulo 406429" width="8.149" height="77.234" transform="translate(108.129 284.685)" fill="#a530fe"/>
        <g id="Grupo_1149591" data-name="Grupo 1149591" transform="translate(361.608 351.822)" style="mix-blend-mode: multiply;isolation: isolate">
          <g id="Grupo_1149590" data-name="Grupo 1149590">
            <g id="Grupo_1149589" data-name="Grupo 1149589" clip-path="url(#clip-path-4)">
              <path id="Trazado_983823" data-name="Trazado 983823" d="M552.848,517.779a21.257,21.257,0,1,1-21.257-21.257,21.26,21.26,0,0,1,21.257,21.257" transform="translate(-510.334 -496.522)" fill="#f1f1f1"/>
            </g>
          </g>
        </g>
        <path id="Trazado_983824" data-name="Trazado 983824" d="M548.679,520.692A14.174,14.174,0,1,1,534.5,506.518a14.175,14.175,0,0,1,14.174,14.174" transform="translate(-151.639 -147.613)" fill="#3ad1e9"/>
        <rect id="Rectángulo_406431" data-name="Rectángulo 406431" width="8.149" height="77.234" transform="translate(378.791 283.976)" fill="#3ad1e9"/>
        <g id="Grupo_1149594" data-name="Grupo 1149594" transform="translate(226.277 351.822)" style="mix-blend-mode: multiply;isolation: isolate">
          <g id="Grupo_1149593" data-name="Grupo 1149593">
            <g id="Grupo_1149592" data-name="Grupo 1149592" clip-path="url(#clip-path-4)">
              <path id="Trazado_983825" data-name="Trazado 983825" d="M361.856,517.779A21.257,21.257,0,1,1,340.6,496.522a21.26,21.26,0,0,1,21.257,21.257" transform="translate(-319.342 -496.522)" fill="#f1f1f1"/>
            </g>
          </g>
        </g>
        <path id="Trazado_983826" data-name="Trazado 983826" d="M357.688,520.692a14.172,14.172,0,1,1-14.174-14.174,14.176,14.176,0,0,1,14.174,14.174" transform="translate(-95.98 -147.613)" fill="#15da7e"/>
        <rect id="Rectángulo_406433" data-name="Rectángulo 406433" width="8.149" height="221.776" transform="translate(243.459 138.726)" fill="#15da7e"/>
        <g transform="matrix(1, 0, 0, 1, -371, -47.5)" filter="url(#Trazado_983827)">
          <path id="Trazado_983827-2" data-name="Trazado 983827" d="M220.486,282.746A102.743,102.743,0,1,1,117.744,180,102.742,102.742,0,0,1,220.486,282.746" transform="translate(366.63 -4.96)" fill="#a530fe"/>
        </g>
        <g transform="matrix(1, 0, 0, 1, -371, -47.5)" filter="url(#Trazado_983828)">
          <path id="Trazado_983828-2" data-name="Trazado 983828" d="M204.63,293.824a75.808,75.808,0,1,1-75.808-75.809,75.807,75.807,0,0,1,75.808,75.809" transform="translate(355.55 -16.04)" fill="#f4f4f4"/>
        </g>
        <g transform="matrix(1, 0, 0, 1, -371, -47.5)" filter="url(#Trazado_983829)">
          <path id="Trazado_983829-2" data-name="Trazado 983829" d="M410.486,117.743A102.743,102.743,0,1,1,307.743,15,102.743,102.743,0,0,1,410.486,117.743" transform="translate(311.26 43.13)" fill="#15da7e"/>
        </g>
        <g transform="matrix(1, 0, 0, 1, -371, -47.5)" filter="url(#Trazado_983830)">
          <path id="Trazado_983830-2" data-name="Trazado 983830" d="M394.63,128.821a75.809,75.809,0,1,1-75.809-75.809,75.808,75.808,0,0,1,75.809,75.809" transform="translate(300.18 32.05)" fill="#f4f4f4"/>
        </g>
        <g transform="matrix(1, 0, 0, 1, -371, -47.5)" filter="url(#Trazado_983831)">
          <path id="Trazado_983831-2" data-name="Trazado 983831" d="M600.486,282.745A102.743,102.743,0,1,1,497.743,180,102.743,102.743,0,0,1,600.486,282.745" transform="translate(255.89 -4.96)" fill="#3ad1e9"/>
        </g>
        <g transform="matrix(1, 0, 0, 1, -371, -47.5)" filter="url(#Trazado_983832)">
          <path id="Trazado_983832-2" data-name="Trazado 983832" d="M584.63,293.824a75.809,75.809,0,1,1-75.809-75.809,75.807,75.807,0,0,1,75.809,75.809" transform="translate(244.81 -16.04)" fill="#f4f4f4"/>
        </g>
        <g id="_20-Effective" data-name="20-Effective" transform="translate(84.283 228.784)">
          <path id="Trazado_984013" data-name="Trazado 984013" d="M7.929,44.331V40L3.6,44.331H1V59.921H21.787V44.331Z" transform="translate(-0.134 -5.354)" fill="#ffc247"/>
          <path id="Trazado_984014" data-name="Trazado 984014" d="M3.6,57.992V45H1V60.591H21.787v-2.6Z" transform="translate(-0.134 -6.024)" fill="#fc9942"/>
          <path id="Trazado_984015" data-name="Trazado 984015" d="M7.929,16.591v4.331L3.6,16.591H1V1H21.787V16.591Z" transform="translate(-0.134 -0.134)" fill="#ffc247"/>
          <path id="Trazado_984016" data-name="Trazado 984016" d="M3.6,3.6V16.591H1V1H21.787V3.6Z" transform="translate(-0.134 -0.134)" fill="#fc9942"/>
          <path id="Trazado_984017" data-name="Trazado 984017" d="M52.858,16.591v4.331l4.331-4.331h2.6V1H39V16.591Z" transform="translate(-5.22 -0.134)" fill="#ffc247"/>
          <path id="Trazado_984018" data-name="Trazado 984018" d="M57.189,3.6V16.591h2.6V1H39V3.6Z" transform="translate(-5.22 -0.134)" fill="#fc9942"/>
          <path id="Trazado_984019" data-name="Trazado 984019" d="M47.378,26.157V32.22l-4.435.243a14.27,14.27,0,0,1-1.715,4.132L44.2,39.912,39.912,44.2l-3.317-2.971a14.371,14.371,0,0,1-4.131,1.715l-.243,4.435H26.157l-.243-4.435a14.27,14.27,0,0,1-4.132-1.715L18.466,44.2l-4.287-4.287,2.971-3.317a14.27,14.27,0,0,1-1.715-4.132L11,32.22V26.157l4.435-.243a14.27,14.27,0,0,1,1.715-4.132l-2.971-3.317,4.287-4.287,3.317,2.971a14.27,14.27,0,0,1,4.132-1.715L26.157,11H32.22l.243,4.435a14.37,14.37,0,0,1,4.131,1.715l3.317-2.971L44.2,18.466l-2.971,3.317a14.27,14.27,0,0,1,1.715,4.132Zm-8.661,3.031a9.522,9.522,0,1,0-2.789,6.739A9.528,9.528,0,0,0,38.717,29.189Z" transform="translate(-1.472 -1.472)" fill="#e9edf5"/>
          <path id="Trazado_984020" data-name="Trazado 984020" d="M0,0H6.124V8.574H0Z" transform="translate(44.163 48.504) rotate(-45)" fill="#9196aa"/>
          <path id="Trazado_984021" data-name="Trazado 984021" d="M50.165,50.165,52.331,48l2.6,2.6L50.6,54.929l-2.6-2.6Z" transform="translate(-6.425 -6.425)" fill="#707789"/>
          <circle id="Elipse_11662" data-name="Elipse 11662" cx="10" cy="10" r="10" transform="translate(17.717 17.717)" fill="#80dbff"/>
          <circle id="Elipse_11663" data-name="Elipse 11663" cx="6" cy="6" r="6" transform="translate(21.717 21.717)" fill="#19cffc"/>
          <path id="Trazado_984022" data-name="Trazado 984022" d="M.866,17.323h2.24L7.183,21.4a.866.866,0,0,0,.612.254.855.855,0,0,0,.332-.066.866.866,0,0,0,.534-.8V17.323h1.732V15.591H7.8a.866.866,0,0,0-.866.866V18.7L4.077,15.844a.866.866,0,0,0-.612-.254H1.732V1.732H20.787V12.126H22.52V.866A.866.866,0,0,0,21.654,0H.866A.866.866,0,0,0,0,.866V16.457a.866.866,0,0,0,.866.866Z" transform="translate(0 0)"/>
          <path id="Trazado_984023" data-name="Trazado 984023" d="M59.654,0H38.866A.866.866,0,0,0,38,.866v11.26h1.732V1.732H58.787V15.591H57.055a.866.866,0,0,0-.612.254L53.591,18.7v-2.24a.866.866,0,0,0-.866-.866h-2.6v1.732h1.732v3.465a.866.866,0,0,0,.534.8.855.855,0,0,0,.332.066.866.866,0,0,0,.612-.254l4.077-4.077h2.24a.866.866,0,0,0,.866-.866V.866A.866.866,0,0,0,59.654,0Z" transform="translate(-5.087 0)"/>
          <path id="Trazado_984024" data-name="Trazado 984024" d="M20.787,58.921H1.732V45.063H3.465a.866.866,0,0,0,.612-.254l2.852-2.852V44.2a.866.866,0,0,0,.866.866h2.6V43.331H8.661V39.866a.866.866,0,0,0-1.479-.612L3.106,43.331H.866A.866.866,0,0,0,0,44.2V59.787a.866.866,0,0,0,.866.866H21.654a.866.866,0,0,0,.866-.866V48.528H20.787Z" transform="translate(0 -5.22)"/>
          <path id="Trazado_984025" data-name="Trazado 984025" d="M4,5H5.732V6.732H4Z" transform="translate(-0.535 -0.669)"/>
          <path id="Trazado_984026" data-name="Trazado 984026" d="M8,5H20.126V6.732H8Z" transform="translate(-1.071 -0.669)"/>
          <path id="Trazado_984027" data-name="Trazado 984027" d="M4,9H19.591v1.732H4Z" transform="translate(-0.535 -1.205)"/>
          <path id="Trazado_984028" data-name="Trazado 984028" d="M4,13h8.661v1.732H4Z" transform="translate(-0.535 -1.74)"/>
          <path id="Trazado_984029" data-name="Trazado 984029" d="M4,49H5.732v1.732H4Z" transform="translate(-0.535 -6.559)"/>
          <path id="Trazado_984030" data-name="Trazado 984030" d="M8,49h5.2v1.732H8Z" transform="translate(-1.071 -6.559)"/>
          <path id="Trazado_984031" data-name="Trazado 984031" d="M4,53H19.591v1.732H4Z" transform="translate(-0.535 -7.094)"/>
          <path id="Trazado_984032" data-name="Trazado 984032" d="M4,57H19.591v1.732H4Z" transform="translate(-0.535 -7.63)"/>
          <path id="Trazado_984033" data-name="Trazado 984033" d="M42,5h1.732V6.732H42Z" transform="translate(-5.622 -0.669)"/>
          <path id="Trazado_984034" data-name="Trazado 984034" d="M46,5H58.126V6.732H46Z" transform="translate(-6.157 -0.669)"/>
          <path id="Trazado_984035" data-name="Trazado 984035" d="M42,9H57.591v1.732H42Z" transform="translate(-5.622 -1.205)"/>
          <path id="Trazado_984036" data-name="Trazado 984036" d="M50,13h8.661v1.732H50Z" transform="translate(-6.693 -1.74)"/>
          <path id="Trazado_984037" data-name="Trazado 984037" d="M30.394,20A10.394,10.394,0,1,0,40.787,30.394,10.394,10.394,0,0,0,30.394,20Zm0,19.055a8.661,8.661,0,1,1,8.661-8.661A8.661,8.661,0,0,1,30.394,39.055Z" transform="translate(-2.677 -2.677)"/>
          <path id="Trazado_984038" data-name="Trazado 984038" d="M47.856,42.3a.866.866,0,0,0-1.225,0l-1.553,1.553-1.932-1.932,1.531-1.531a.866.866,0,0,0,.033-1.19L42.16,36.352a15.177,15.177,0,0,0,1.327-3.192l3.8-.209a.866.866,0,0,0,.819-.866V26.022a.866.866,0,0,0-.819-.866l-3.8-.209a15.177,15.177,0,0,0-1.327-3.192l2.551-2.849a.866.866,0,0,0-.033-1.19L40.39,13.429A.866.866,0,0,0,39.2,13.4L36.351,15.95a15.178,15.178,0,0,0-3.192-1.326l-.207-3.806A.866.866,0,0,0,32.086,10H26.023a.866.866,0,0,0-.866.819l-.209,3.8a15.176,15.176,0,0,0-3.192,1.327L18.908,13.4a.866.866,0,0,0-1.19.033L13.431,17.72a.866.866,0,0,0-.033,1.19l2.551,2.849a15.177,15.177,0,0,0-1.327,3.192l-3.8.209a.866.866,0,0,0-.819.866v6.063a.866.866,0,0,0,.819.866l3.8.209a15.176,15.176,0,0,0,1.327,3.192L13.4,39.2a.866.866,0,0,0,.033,1.19l4.287,4.287a.866.866,0,0,0,1.19.033l2.849-2.551a15.176,15.176,0,0,0,3.192,1.327l.209,3.8a.866.866,0,0,0,.866.819h6.063a.866.866,0,0,0,.866-.819l.209-3.806a15.178,15.178,0,0,0,3.192-1.326L39.2,44.714a.866.866,0,0,0,1.19-.033l1.531-1.531,1.931,1.929L42.3,46.632a.866.866,0,0,0,0,1.225l8.661,8.661a.866.866,0,0,0,1.225,0l4.331-4.331a.866.866,0,0,0,0-1.225Zm-8.111.573-2.707-2.425a.866.866,0,0,0-1.029-.094,13.536,13.536,0,0,1-3.882,1.611.866.866,0,0,0-.663.8l-.2,3.617H26.843l-.2-3.616a.866.866,0,0,0-.663-.8A13.468,13.468,0,0,1,22.1,40.356a.866.866,0,0,0-1.029.094l-2.707,2.425-3.129-3.129,2.425-2.707a.866.866,0,0,0,.094-1.029,13.468,13.468,0,0,1-1.611-3.881.866.866,0,0,0-.8-.663l-3.617-.2V26.843l3.616-.2a.866.866,0,0,0,.8-.663A13.468,13.468,0,0,1,17.754,22.1a.866.866,0,0,0-.094-1.029l-2.425-2.707,3.129-3.129,2.707,2.425a.866.866,0,0,0,1.029.094,13.468,13.468,0,0,1,3.881-1.611.866.866,0,0,0,.663-.8l.2-3.617h4.424l.2,3.616a.866.866,0,0,0,.663.8,13.536,13.536,0,0,1,3.882,1.611.866.866,0,0,0,1.029-.094l2.707-2.425,3.129,3.129-2.425,2.707a.866.866,0,0,0-.094,1.029,13.468,13.468,0,0,1,1.611,3.881.866.866,0,0,0,.8.663l3.617.2v4.424l-3.616.2a.866.866,0,0,0-.8.663,13.468,13.468,0,0,1-1.611,3.881.866.866,0,0,0,.094,1.029l2.425,2.707Zm7.5,1.265,1.374,1.374-3.106,3.106-1.374-1.374Zm4.331,10.543-4.838-4.838,3.106-3.106,4.838,4.838Z" transform="translate(-1.338 -1.339)"/>
          <path id="Trazado_984039" data-name="Trazado 984039" d="M32,24v1.732a5.2,5.2,0,0,1,5.2,5.2h1.732A6.937,6.937,0,0,0,32,24Z" transform="translate(-4.283 -3.213)"/>
          <path id="Trazado_984040" data-name="Trazado 984040" d="M25.732,32H24a6.937,6.937,0,0,0,6.929,6.929V37.2a5.2,5.2,0,0,1-5.2-5.2Z" transform="translate(-3.213 -4.283)"/>
        </g>
        <g id="_20-Effective-2" data-name="20-Effective" transform="translate(355.926 228.784)">
          <path id="Trazado_984013-2" data-name="Trazado 984013" d="M7.929,44.331V40L3.6,44.331H1V59.921H21.787V44.331Z" transform="translate(-0.134 -5.354)" fill="#ffc247"/>
          <path id="Trazado_984014-2" data-name="Trazado 984014" d="M3.6,57.992V45H1V60.591H21.787v-2.6Z" transform="translate(-0.134 -6.024)" fill="#fc9942"/>
          <path id="Trazado_984015-2" data-name="Trazado 984015" d="M7.929,16.591v4.331L3.6,16.591H1V1H21.787V16.591Z" transform="translate(-0.134 -0.134)" fill="#ffc247"/>
          <path id="Trazado_984016-2" data-name="Trazado 984016" d="M3.6,3.6V16.591H1V1H21.787V3.6Z" transform="translate(-0.134 -0.134)" fill="#fc9942"/>
          <path id="Trazado_984017-2" data-name="Trazado 984017" d="M52.858,16.591v4.331l4.331-4.331h2.6V1H39V16.591Z" transform="translate(-5.22 -0.134)" fill="#ffc247"/>
          <path id="Trazado_984018-2" data-name="Trazado 984018" d="M57.189,3.6V16.591h2.6V1H39V3.6Z" transform="translate(-5.22 -0.134)" fill="#fc9942"/>
          <path id="Trazado_984019-2" data-name="Trazado 984019" d="M47.378,26.157V32.22l-4.435.243a14.27,14.27,0,0,1-1.715,4.132L44.2,39.912,39.912,44.2l-3.317-2.971a14.371,14.371,0,0,1-4.131,1.715l-.243,4.435H26.157l-.243-4.435a14.27,14.27,0,0,1-4.132-1.715L18.466,44.2l-4.287-4.287,2.971-3.317a14.27,14.27,0,0,1-1.715-4.132L11,32.22V26.157l4.435-.243a14.27,14.27,0,0,1,1.715-4.132l-2.971-3.317,4.287-4.287,3.317,2.971a14.27,14.27,0,0,1,4.132-1.715L26.157,11H32.22l.243,4.435a14.37,14.37,0,0,1,4.131,1.715l3.317-2.971L44.2,18.466l-2.971,3.317a14.27,14.27,0,0,1,1.715,4.132Zm-8.661,3.031a9.522,9.522,0,1,0-2.789,6.739A9.528,9.528,0,0,0,38.717,29.189Z" transform="translate(-1.472 -1.472)" fill="#e9edf5"/>
          <path id="Trazado_984020-2" data-name="Trazado 984020" d="M0,0H6.124V8.574H0Z" transform="translate(44.163 48.504) rotate(-45)" fill="#9196aa"/>
          <path id="Trazado_984021-2" data-name="Trazado 984021" d="M50.165,50.165,52.331,48l2.6,2.6L50.6,54.929l-2.6-2.6Z" transform="translate(-6.425 -6.425)" fill="#707789"/>
          <circle id="Elipse_11662-2" data-name="Elipse 11662" cx="10" cy="10" r="10" transform="translate(17.717 17.717)" fill="#80dbff"/>
          <circle id="Elipse_11663-2" data-name="Elipse 11663" cx="6" cy="6" r="6" transform="translate(21.717 21.717)" fill="#19cffc"/>
          <path id="Trazado_984022-2" data-name="Trazado 984022" d="M.866,17.323h2.24L7.183,21.4a.866.866,0,0,0,.612.254.855.855,0,0,0,.332-.066.866.866,0,0,0,.534-.8V17.323h1.732V15.591H7.8a.866.866,0,0,0-.866.866V18.7L4.077,15.844a.866.866,0,0,0-.612-.254H1.732V1.732H20.787V12.126H22.52V.866A.866.866,0,0,0,21.654,0H.866A.866.866,0,0,0,0,.866V16.457a.866.866,0,0,0,.866.866Z" transform="translate(0 0)"/>
          <path id="Trazado_984023-2" data-name="Trazado 984023" d="M59.654,0H38.866A.866.866,0,0,0,38,.866v11.26h1.732V1.732H58.787V15.591H57.055a.866.866,0,0,0-.612.254L53.591,18.7v-2.24a.866.866,0,0,0-.866-.866h-2.6v1.732h1.732v3.465a.866.866,0,0,0,.534.8.855.855,0,0,0,.332.066.866.866,0,0,0,.612-.254l4.077-4.077h2.24a.866.866,0,0,0,.866-.866V.866A.866.866,0,0,0,59.654,0Z" transform="translate(-5.087 0)"/>
          <path id="Trazado_984024-2" data-name="Trazado 984024" d="M20.787,58.921H1.732V45.063H3.465a.866.866,0,0,0,.612-.254l2.852-2.852V44.2a.866.866,0,0,0,.866.866h2.6V43.331H8.661V39.866a.866.866,0,0,0-1.479-.612L3.106,43.331H.866A.866.866,0,0,0,0,44.2V59.787a.866.866,0,0,0,.866.866H21.654a.866.866,0,0,0,.866-.866V48.528H20.787Z" transform="translate(0 -5.22)"/>
          <path id="Trazado_984025-2" data-name="Trazado 984025" d="M4,5H5.732V6.732H4Z" transform="translate(-0.535 -0.669)"/>
          <path id="Trazado_984026-2" data-name="Trazado 984026" d="M8,5H20.126V6.732H8Z" transform="translate(-1.071 -0.669)"/>
          <path id="Trazado_984027-2" data-name="Trazado 984027" d="M4,9H19.591v1.732H4Z" transform="translate(-0.535 -1.205)"/>
          <path id="Trazado_984028-2" data-name="Trazado 984028" d="M4,13h8.661v1.732H4Z" transform="translate(-0.535 -1.74)"/>
          <path id="Trazado_984029-2" data-name="Trazado 984029" d="M4,49H5.732v1.732H4Z" transform="translate(-0.535 -6.559)"/>
          <path id="Trazado_984030-2" data-name="Trazado 984030" d="M8,49h5.2v1.732H8Z" transform="translate(-1.071 -6.559)"/>
          <path id="Trazado_984031-2" data-name="Trazado 984031" d="M4,53H19.591v1.732H4Z" transform="translate(-0.535 -7.094)"/>
          <path id="Trazado_984032-2" data-name="Trazado 984032" d="M4,57H19.591v1.732H4Z" transform="translate(-0.535 -7.63)"/>
          <path id="Trazado_984033-2" data-name="Trazado 984033" d="M42,5h1.732V6.732H42Z" transform="translate(-5.622 -0.669)"/>
          <path id="Trazado_984034-2" data-name="Trazado 984034" d="M46,5H58.126V6.732H46Z" transform="translate(-6.157 -0.669)"/>
          <path id="Trazado_984035-2" data-name="Trazado 984035" d="M42,9H57.591v1.732H42Z" transform="translate(-5.622 -1.205)"/>
          <path id="Trazado_984036-2" data-name="Trazado 984036" d="M50,13h8.661v1.732H50Z" transform="translate(-6.693 -1.74)"/>
          <path id="Trazado_984037-2" data-name="Trazado 984037" d="M30.394,20A10.394,10.394,0,1,0,40.787,30.394,10.394,10.394,0,0,0,30.394,20Zm0,19.055a8.661,8.661,0,1,1,8.661-8.661A8.661,8.661,0,0,1,30.394,39.055Z" transform="translate(-2.677 -2.677)"/>
          <path id="Trazado_984038-2" data-name="Trazado 984038" d="M47.856,42.3a.866.866,0,0,0-1.225,0l-1.553,1.553-1.932-1.932,1.531-1.531a.866.866,0,0,0,.033-1.19L42.16,36.352a15.177,15.177,0,0,0,1.327-3.192l3.8-.209a.866.866,0,0,0,.819-.866V26.022a.866.866,0,0,0-.819-.866l-3.8-.209a15.177,15.177,0,0,0-1.327-3.192l2.551-2.849a.866.866,0,0,0-.033-1.19L40.39,13.429A.866.866,0,0,0,39.2,13.4L36.351,15.95a15.178,15.178,0,0,0-3.192-1.326l-.207-3.806A.866.866,0,0,0,32.086,10H26.023a.866.866,0,0,0-.866.819l-.209,3.8a15.176,15.176,0,0,0-3.192,1.327L18.908,13.4a.866.866,0,0,0-1.19.033L13.431,17.72a.866.866,0,0,0-.033,1.19l2.551,2.849a15.177,15.177,0,0,0-1.327,3.192l-3.8.209a.866.866,0,0,0-.819.866v6.063a.866.866,0,0,0,.819.866l3.8.209a15.176,15.176,0,0,0,1.327,3.192L13.4,39.2a.866.866,0,0,0,.033,1.19l4.287,4.287a.866.866,0,0,0,1.19.033l2.849-2.551a15.176,15.176,0,0,0,3.192,1.327l.209,3.8a.866.866,0,0,0,.866.819h6.063a.866.866,0,0,0,.866-.819l.209-3.806a15.178,15.178,0,0,0,3.192-1.326L39.2,44.714a.866.866,0,0,0,1.19-.033l1.531-1.531,1.931,1.929L42.3,46.632a.866.866,0,0,0,0,1.225l8.661,8.661a.866.866,0,0,0,1.225,0l4.331-4.331a.866.866,0,0,0,0-1.225Zm-8.111.573-2.707-2.425a.866.866,0,0,0-1.029-.094,13.536,13.536,0,0,1-3.882,1.611.866.866,0,0,0-.663.8l-.2,3.617H26.843l-.2-3.616a.866.866,0,0,0-.663-.8A13.468,13.468,0,0,1,22.1,40.356a.866.866,0,0,0-1.029.094l-2.707,2.425-3.129-3.129,2.425-2.707a.866.866,0,0,0,.094-1.029,13.468,13.468,0,0,1-1.611-3.881.866.866,0,0,0-.8-.663l-3.617-.2V26.843l3.616-.2a.866.866,0,0,0,.8-.663A13.468,13.468,0,0,1,17.754,22.1a.866.866,0,0,0-.094-1.029l-2.425-2.707,3.129-3.129,2.707,2.425a.866.866,0,0,0,1.029.094,13.468,13.468,0,0,1,3.881-1.611.866.866,0,0,0,.663-.8l.2-3.617h4.424l.2,3.616a.866.866,0,0,0,.663.8,13.536,13.536,0,0,1,3.882,1.611.866.866,0,0,0,1.029-.094l2.707-2.425,3.129,3.129-2.425,2.707a.866.866,0,0,0-.094,1.029,13.468,13.468,0,0,1,1.611,3.881.866.866,0,0,0,.8.663l3.617.2v4.424l-3.616.2a.866.866,0,0,0-.8.663,13.468,13.468,0,0,1-1.611,3.881.866.866,0,0,0,.094,1.029l2.425,2.707Zm7.5,1.265,1.374,1.374-3.106,3.106-1.374-1.374Zm4.331,10.543-4.838-4.838,3.106-3.106,4.838,4.838Z" transform="translate(-1.338 -1.339)"/>
          <path id="Trazado_984039-2" data-name="Trazado 984039" d="M32,24v1.732a5.2,5.2,0,0,1,5.2,5.2h1.732A6.937,6.937,0,0,0,32,24Z" transform="translate(-4.283 -3.213)"/>
          <path id="Trazado_984040-2" data-name="Trazado 984040" d="M25.732,32H24a6.937,6.937,0,0,0,6.929,6.929V37.2a5.2,5.2,0,0,1-5.2-5.2Z" transform="translate(-3.213 -4.283)"/>
        </g>
        <g id="_20-Effective-3" data-name="20-Effective" transform="translate(220.283 110.784)">
          <path id="Trazado_984013-3" data-name="Trazado 984013" d="M7.929,44.331V40L3.6,44.331H1V59.921H21.787V44.331Z" transform="translate(-0.134 -5.354)" fill="#ffc247"/>
          <path id="Trazado_984014-3" data-name="Trazado 984014" d="M3.6,57.992V45H1V60.591H21.787v-2.6Z" transform="translate(-0.134 -6.024)" fill="#fc9942"/>
          <path id="Trazado_984015-3" data-name="Trazado 984015" d="M7.929,16.591v4.331L3.6,16.591H1V1H21.787V16.591Z" transform="translate(-0.134 -0.134)" fill="#ffc247"/>
          <path id="Trazado_984016-3" data-name="Trazado 984016" d="M3.6,3.6V16.591H1V1H21.787V3.6Z" transform="translate(-0.134 -0.134)" fill="#fc9942"/>
          <path id="Trazado_984017-3" data-name="Trazado 984017" d="M52.858,16.591v4.331l4.331-4.331h2.6V1H39V16.591Z" transform="translate(-5.22 -0.134)" fill="#ffc247"/>
          <path id="Trazado_984018-3" data-name="Trazado 984018" d="M57.189,3.6V16.591h2.6V1H39V3.6Z" transform="translate(-5.22 -0.134)" fill="#fc9942"/>
          <path id="Trazado_984019-3" data-name="Trazado 984019" d="M47.378,26.157V32.22l-4.435.243a14.27,14.27,0,0,1-1.715,4.132L44.2,39.912,39.912,44.2l-3.317-2.971a14.371,14.371,0,0,1-4.131,1.715l-.243,4.435H26.157l-.243-4.435a14.27,14.27,0,0,1-4.132-1.715L18.466,44.2l-4.287-4.287,2.971-3.317a14.27,14.27,0,0,1-1.715-4.132L11,32.22V26.157l4.435-.243a14.27,14.27,0,0,1,1.715-4.132l-2.971-3.317,4.287-4.287,3.317,2.971a14.27,14.27,0,0,1,4.132-1.715L26.157,11H32.22l.243,4.435a14.37,14.37,0,0,1,4.131,1.715l3.317-2.971L44.2,18.466l-2.971,3.317a14.27,14.27,0,0,1,1.715,4.132Zm-8.661,3.031a9.522,9.522,0,1,0-2.789,6.739A9.528,9.528,0,0,0,38.717,29.189Z" transform="translate(-1.472 -1.472)" fill="#e9edf5"/>
          <path id="Trazado_984020-3" data-name="Trazado 984020" d="M0,0H6.124V8.574H0Z" transform="translate(44.163 48.504) rotate(-45)" fill="#9196aa"/>
          <path id="Trazado_984021-3" data-name="Trazado 984021" d="M50.165,50.165,52.331,48l2.6,2.6L50.6,54.929l-2.6-2.6Z" transform="translate(-6.425 -6.425)" fill="#707789"/>
          <circle id="Elipse_11662-3" data-name="Elipse 11662" cx="10" cy="10" r="10" transform="translate(17.717 17.717)" fill="#80dbff"/>
          <circle id="Elipse_11663-3" data-name="Elipse 11663" cx="6" cy="6" r="6" transform="translate(21.717 21.717)" fill="#19cffc"/>
          <path id="Trazado_984022-3" data-name="Trazado 984022" d="M.866,17.323h2.24L7.183,21.4a.866.866,0,0,0,.612.254.855.855,0,0,0,.332-.066.866.866,0,0,0,.534-.8V17.323h1.732V15.591H7.8a.866.866,0,0,0-.866.866V18.7L4.077,15.844a.866.866,0,0,0-.612-.254H1.732V1.732H20.787V12.126H22.52V.866A.866.866,0,0,0,21.654,0H.866A.866.866,0,0,0,0,.866V16.457a.866.866,0,0,0,.866.866Z" transform="translate(0 0)"/>
          <path id="Trazado_984023-3" data-name="Trazado 984023" d="M59.654,0H38.866A.866.866,0,0,0,38,.866v11.26h1.732V1.732H58.787V15.591H57.055a.866.866,0,0,0-.612.254L53.591,18.7v-2.24a.866.866,0,0,0-.866-.866h-2.6v1.732h1.732v3.465a.866.866,0,0,0,.534.8.855.855,0,0,0,.332.066.866.866,0,0,0,.612-.254l4.077-4.077h2.24a.866.866,0,0,0,.866-.866V.866A.866.866,0,0,0,59.654,0Z" transform="translate(-5.087 0)"/>
          <path id="Trazado_984024-3" data-name="Trazado 984024" d="M20.787,58.921H1.732V45.063H3.465a.866.866,0,0,0,.612-.254l2.852-2.852V44.2a.866.866,0,0,0,.866.866h2.6V43.331H8.661V39.866a.866.866,0,0,0-1.479-.612L3.106,43.331H.866A.866.866,0,0,0,0,44.2V59.787a.866.866,0,0,0,.866.866H21.654a.866.866,0,0,0,.866-.866V48.528H20.787Z" transform="translate(0 -5.22)"/>
          <path id="Trazado_984025-3" data-name="Trazado 984025" d="M4,5H5.732V6.732H4Z" transform="translate(-0.535 -0.669)"/>
          <path id="Trazado_984026-3" data-name="Trazado 984026" d="M8,5H20.126V6.732H8Z" transform="translate(-1.071 -0.669)"/>
          <path id="Trazado_984027-3" data-name="Trazado 984027" d="M4,9H19.591v1.732H4Z" transform="translate(-0.535 -1.205)"/>
          <path id="Trazado_984028-3" data-name="Trazado 984028" d="M4,13h8.661v1.732H4Z" transform="translate(-0.535 -1.74)"/>
          <path id="Trazado_984029-3" data-name="Trazado 984029" d="M4,49H5.732v1.732H4Z" transform="translate(-0.535 -6.559)"/>
          <path id="Trazado_984030-3" data-name="Trazado 984030" d="M8,49h5.2v1.732H8Z" transform="translate(-1.071 -6.559)"/>
          <path id="Trazado_984031-3" data-name="Trazado 984031" d="M4,53H19.591v1.732H4Z" transform="translate(-0.535 -7.094)"/>
          <path id="Trazado_984032-3" data-name="Trazado 984032" d="M4,57H19.591v1.732H4Z" transform="translate(-0.535 -7.63)"/>
          <path id="Trazado_984033-3" data-name="Trazado 984033" d="M42,5h1.732V6.732H42Z" transform="translate(-5.622 -0.669)"/>
          <path id="Trazado_984034-3" data-name="Trazado 984034" d="M46,5H58.126V6.732H46Z" transform="translate(-6.157 -0.669)"/>
          <path id="Trazado_984035-3" data-name="Trazado 984035" d="M42,9H57.591v1.732H42Z" transform="translate(-5.622 -1.205)"/>
          <path id="Trazado_984036-3" data-name="Trazado 984036" d="M50,13h8.661v1.732H50Z" transform="translate(-6.693 -1.74)"/>
          <path id="Trazado_984037-3" data-name="Trazado 984037" d="M30.394,20A10.394,10.394,0,1,0,40.787,30.394,10.394,10.394,0,0,0,30.394,20Zm0,19.055a8.661,8.661,0,1,1,8.661-8.661A8.661,8.661,0,0,1,30.394,39.055Z" transform="translate(-2.677 -2.677)"/>
          <path id="Trazado_984038-3" data-name="Trazado 984038" d="M47.856,42.3a.866.866,0,0,0-1.225,0l-1.553,1.553-1.932-1.932,1.531-1.531a.866.866,0,0,0,.033-1.19L42.16,36.352a15.177,15.177,0,0,0,1.327-3.192l3.8-.209a.866.866,0,0,0,.819-.866V26.022a.866.866,0,0,0-.819-.866l-3.8-.209a15.177,15.177,0,0,0-1.327-3.192l2.551-2.849a.866.866,0,0,0-.033-1.19L40.39,13.429A.866.866,0,0,0,39.2,13.4L36.351,15.95a15.178,15.178,0,0,0-3.192-1.326l-.207-3.806A.866.866,0,0,0,32.086,10H26.023a.866.866,0,0,0-.866.819l-.209,3.8a15.176,15.176,0,0,0-3.192,1.327L18.908,13.4a.866.866,0,0,0-1.19.033L13.431,17.72a.866.866,0,0,0-.033,1.19l2.551,2.849a15.177,15.177,0,0,0-1.327,3.192l-3.8.209a.866.866,0,0,0-.819.866v6.063a.866.866,0,0,0,.819.866l3.8.209a15.176,15.176,0,0,0,1.327,3.192L13.4,39.2a.866.866,0,0,0,.033,1.19l4.287,4.287a.866.866,0,0,0,1.19.033l2.849-2.551a15.176,15.176,0,0,0,3.192,1.327l.209,3.8a.866.866,0,0,0,.866.819h6.063a.866.866,0,0,0,.866-.819l.209-3.806a15.178,15.178,0,0,0,3.192-1.326L39.2,44.714a.866.866,0,0,0,1.19-.033l1.531-1.531,1.931,1.929L42.3,46.632a.866.866,0,0,0,0,1.225l8.661,8.661a.866.866,0,0,0,1.225,0l4.331-4.331a.866.866,0,0,0,0-1.225Zm-8.111.573-2.707-2.425a.866.866,0,0,0-1.029-.094,13.536,13.536,0,0,1-3.882,1.611.866.866,0,0,0-.663.8l-.2,3.617H26.843l-.2-3.616a.866.866,0,0,0-.663-.8A13.468,13.468,0,0,1,22.1,40.356a.866.866,0,0,0-1.029.094l-2.707,2.425-3.129-3.129,2.425-2.707a.866.866,0,0,0,.094-1.029,13.468,13.468,0,0,1-1.611-3.881.866.866,0,0,0-.8-.663l-3.617-.2V26.843l3.616-.2a.866.866,0,0,0,.8-.663A13.468,13.468,0,0,1,17.754,22.1a.866.866,0,0,0-.094-1.029l-2.425-2.707,3.129-3.129,2.707,2.425a.866.866,0,0,0,1.029.094,13.468,13.468,0,0,1,3.881-1.611.866.866,0,0,0,.663-.8l.2-3.617h4.424l.2,3.616a.866.866,0,0,0,.663.8,13.536,13.536,0,0,1,3.882,1.611.866.866,0,0,0,1.029-.094l2.707-2.425,3.129,3.129-2.425,2.707a.866.866,0,0,0-.094,1.029,13.468,13.468,0,0,1,1.611,3.881.866.866,0,0,0,.8.663l3.617.2v4.424l-3.616.2a.866.866,0,0,0-.8.663,13.468,13.468,0,0,1-1.611,3.881.866.866,0,0,0,.094,1.029l2.425,2.707Zm7.5,1.265,1.374,1.374-3.106,3.106-1.374-1.374Zm4.331,10.543-4.838-4.838,3.106-3.106,4.838,4.838Z" transform="translate(-1.338 -1.339)"/>
          <path id="Trazado_984039-3" data-name="Trazado 984039" d="M32,24v1.732a5.2,5.2,0,0,1,5.2,5.2h1.732A6.937,6.937,0,0,0,32,24Z" transform="translate(-4.283 -3.213)"/>
          <path id="Trazado_984040-3" data-name="Trazado 984040" d="M25.732,32H24a6.937,6.937,0,0,0,6.929,6.929V37.2a5.2,5.2,0,0,1-5.2-5.2Z" transform="translate(-3.213 -4.283)"/>
        </g>
      </g>
      <path id="Trazado_983997" data-name="Trazado 983997" d="M20.42-14.474a28.2,28.2,0,0,1-.651,6.386,14.88,14.88,0,0,1-1.882,4.695,8.47,8.47,0,0,1-3.023,2.9A8.276,8.276,0,0,1,10.791.5,7.728,7.728,0,0,1,6.937-.45,8.077,8.077,0,0,1,4.084-3.223,14.053,14.053,0,0,1,2.322-7.7a27.667,27.667,0,0,1-.6-6.076,31.318,31.318,0,0,1,.631-6.646A15.2,15.2,0,0,1,4.2-25.255,8.242,8.242,0,0,1,7.237-28.2a8.516,8.516,0,0,1,4.154-.991Q20.42-29.188,20.42-14.474Zm-3.363.32q0-12.252-5.826-12.252-6.146,0-6.146,12.472Q5.085-2.3,11.111-2.3,17.057-2.3,17.057-14.154ZM36.6,0H33.313V-24.8a7.6,7.6,0,0,1-1.111.871,18.111,18.111,0,0,1-1.642.971q-.911.48-1.922.9a13.967,13.967,0,0,1-1.972.661v-3.323a19.087,19.087,0,0,0,2.292-.811q1.211-.51,2.382-1.141T33.553-28a17.562,17.562,0,0,0,1.8-1.351H36.6Z" transform="translate(642.472 2661.349)" fill="#a530fe"/>
      <path id="Trazado_983998" data-name="Trazado 983998" d="M20.42-14.474a28.2,28.2,0,0,1-.651,6.386,14.88,14.88,0,0,1-1.882,4.695,8.47,8.47,0,0,1-3.023,2.9A8.276,8.276,0,0,1,10.791.5,7.728,7.728,0,0,1,6.937-.45,8.077,8.077,0,0,1,4.084-3.223,14.053,14.053,0,0,1,2.322-7.7a27.667,27.667,0,0,1-.6-6.076,31.318,31.318,0,0,1,.631-6.646A15.2,15.2,0,0,1,4.2-25.255,8.242,8.242,0,0,1,7.237-28.2a8.516,8.516,0,0,1,4.154-.991Q20.42-29.188,20.42-14.474Zm-3.363.32q0-12.252-5.826-12.252-6.146,0-6.146,12.472Q5.085-2.3,11.111-2.3,17.057-2.3,17.057-14.154ZM41.18-8.128a8.369,8.369,0,0,1-.731,3.533,7.8,7.8,0,0,1-2.062,2.723A9.517,9.517,0,0,1,35.194-.12,12.916,12.916,0,0,1,31.09.5a11.926,11.926,0,0,1-6.526-1.562V-4.584A10.459,10.459,0,0,0,31.21-2.3a9.032,9.032,0,0,0,2.713-.38,6.082,6.082,0,0,0,2.082-1.1,4.891,4.891,0,0,0,1.341-1.742,5.439,5.439,0,0,0,.47-2.3q0-5.625-8.008-5.625H27.427v-2.783h2.262q7.087,0,7.087-5.285,0-4.885-5.405-4.885a9.2,9.2,0,0,0-5.706,2.042v-3.183a12.473,12.473,0,0,1,6.526-1.642,10.028,10.028,0,0,1,3.263.5,7.477,7.477,0,0,1,2.5,1.4,6.21,6.21,0,0,1,1.612,2.162,6.673,6.673,0,0,1,.571,2.783q0,5.666-5.726,7.287v.08a9.057,9.057,0,0,1,2.7.711,7.212,7.212,0,0,1,2.142,1.431A6.381,6.381,0,0,1,40.67-10.76,6.615,6.615,0,0,1,41.18-8.128Z" transform="translate(913.642 2661.188)" fill="#3ad1e9"/>
      <path id="Trazado_983999" data-name="Trazado 983999" d="M20.42-14.474a28.2,28.2,0,0,1-.651,6.386,14.88,14.88,0,0,1-1.882,4.695,8.47,8.47,0,0,1-3.023,2.9A8.276,8.276,0,0,1,10.791.5,7.728,7.728,0,0,1,6.937-.45,8.077,8.077,0,0,1,4.084-3.223,14.053,14.053,0,0,1,2.322-7.7a27.667,27.667,0,0,1-.6-6.076,31.318,31.318,0,0,1,.631-6.646A15.2,15.2,0,0,1,4.2-25.255,8.242,8.242,0,0,1,7.237-28.2a8.516,8.516,0,0,1,4.154-.991Q20.42-29.188,20.42-14.474Zm-3.363.32q0-12.252-5.826-12.252-6.146,0-6.146,12.472Q5.085-2.3,11.111-2.3,17.057-2.3,17.057-14.154Zm20.5-7.027a5.936,5.936,0,0,0-.41-2.3,4.56,4.56,0,0,0-1.121-1.632,4.593,4.593,0,0,0-1.672-.971,6.546,6.546,0,0,0-2.082-.32,6.887,6.887,0,0,0-1.882.26,9.148,9.148,0,0,0-1.792.721,11.022,11.022,0,0,0-1.682,1.1A12.147,12.147,0,0,0,25.4-22.9v-3.523A9.816,9.816,0,0,1,28.5-28.478a10.89,10.89,0,0,1,4.174-.711,10.077,10.077,0,0,1,3.263.51,7.482,7.482,0,0,1,2.6,1.491,6.9,6.9,0,0,1,1.732,2.422,8.17,8.17,0,0,1,.631,3.3,11.327,11.327,0,0,1-.39,3.083,9.534,9.534,0,0,1-1.181,2.6,12.558,12.558,0,0,1-1.992,2.342,28.216,28.216,0,0,1-2.823,2.282Q32.492-9.709,31.18-8.688A14.735,14.735,0,0,0,29.1-6.777a5.548,5.548,0,0,0-1.081,1.782,6.228,6.228,0,0,0-.31,2.052H42V0H24.284V-1.421a11.845,11.845,0,0,1,.4-3.243,8.422,8.422,0,0,1,1.321-2.663A14.777,14.777,0,0,1,28.418-9.85q1.491-1.261,3.654-2.843a23.1,23.1,0,0,0,2.613-2.142,11.137,11.137,0,0,0,1.692-2.042,7.334,7.334,0,0,0,.911-2.072A8.934,8.934,0,0,0,37.557-21.181Z" transform="translate(777.485 2543.214)" fill="#15da7e"/>
    </g>
  </g>
</svg>
