<svg xmlns="http://www.w3.org/2000/svg" xmlns:xlink="http://www.w3.org/1999/xlink" width="108" height="108" viewBox="0 0 108 108">
  <defs>
    <filter id="Trazado_982547" x="0" y="0" width="108" height="108" filterUnits="userSpaceOnUse">
      <feOffset dy="3" input="SourceAlpha"/>
      <feGaussianBlur stdDeviation="3" result="blur"/>
      <feFlood flood-opacity="0.161"/>
      <feComposite operator="in" in2="blur"/>
      <feComposite in="SourceGraphic"/>
    </filter>
  </defs>
  <g id="_37" data-name="37" transform="translate(-449 -3200)">
    <g id="Grupo_1149368" data-name="Grupo 1149368" transform="translate(-167 -783)">
      <g transform="matrix(1, 0, 0, 1, 616, 3983)" filter="url(#Trazado_982547)">
        <g id="Trazado_982547-2" data-name="Trazado 982547" transform="translate(9 6)" fill="#eafafc">
          <path d="M 45 88.5 C 39.12687683105469 88.5 33.43022537231445 87.35007476806641 28.06830024719238 85.08217620849609 C 22.88852500915527 82.89131164550781 18.23629951477051 79.75458526611328 14.2408504486084 75.75914764404297 C 10.24541282653809 71.76370239257812 7.108687400817871 67.11147308349609 4.917825222015381 61.93170166015625 C 2.649924993515015 56.56977462768555 1.5 50.87312316894531 1.5 45 C 1.5 39.12687683105469 2.649924993515015 33.43022537231445 4.917825222015381 28.06830024719238 C 7.108687400817871 22.88852500915527 10.24541282653809 18.23629951477051 14.2408504486084 14.2408504486084 C 18.23629951477051 10.24541282653809 22.88852500915527 7.108687400817871 28.06830024719238 4.917825222015381 C 33.43022537231445 2.649924993515015 39.12687683105469 1.5 45 1.5 C 50.87312316894531 1.5 56.56977462768555 2.649924993515015 61.93170166015625 4.917825222015381 C 67.11147308349609 7.108687400817871 71.76370239257812 10.24541282653809 75.75914764404297 14.2408504486084 C 79.75458526611328 18.23629951477051 82.89131164550781 22.88852500915527 85.08217620849609 28.06830024719238 C 87.35007476806641 33.43022537231445 88.5 39.12687683105469 88.5 45 C 88.5 50.87312316894531 87.35007476806641 56.56977462768555 85.08217620849609 61.93170166015625 C 82.89131164550781 67.11147308349609 79.75458526611328 71.76370239257812 75.75914764404297 75.75914764404297 C 71.76370239257812 79.75458526611328 67.11147308349609 82.89131164550781 61.93170166015625 85.08217620849609 C 56.56977462768555 87.35007476806641 50.87312316894531 88.5 45 88.5 Z" stroke="none"/>
          <path d="M 45 3 C 39.32871246337891 3 33.82865524291992 4.110054016113281 28.65262985229492 6.299339294433594 C 23.65165710449219 8.414573669433594 19.15968322753906 11.44334411621094 15.301513671875 15.301513671875 C 11.44334411621094 19.15968322753906 8.414573669433594 23.65165710449219 6.299339294433594 28.65262985229492 C 4.110054016113281 33.82865524291992 3 39.32871246337891 3 45 C 3 50.67128753662109 4.110054016113281 56.17134475708008 6.299339294433594 61.34737396240234 C 8.414573669433594 66.34834289550781 11.44334411621094 70.84031677246094 15.301513671875 74.698486328125 C 19.15968322753906 78.55665588378906 23.65165710449219 81.58542633056641 28.65262985229492 83.70066070556641 C 33.82865524291992 85.88994598388672 39.32871246337891 87 45 87 C 50.67128753662109 87 56.17134475708008 85.88994598388672 61.34737396240234 83.70066070556641 C 66.34834289550781 81.58542633056641 70.84031677246094 78.55665588378906 74.698486328125 74.698486328125 C 78.55665588378906 70.84031677246094 81.58542633056641 66.34834289550781 83.70066070556641 61.34737396240234 C 85.88994598388672 56.17134475708008 87 50.67128753662109 87 45 C 87 39.32871246337891 85.88994598388672 33.82865524291992 83.70066070556641 28.65262985229492 C 81.58542633056641 23.65165710449219 78.55665588378906 19.15968322753906 74.698486328125 15.301513671875 C 70.84031677246094 11.44334411621094 66.34834289550781 8.414573669433594 61.34737396240234 6.299339294433594 C 56.17134475708008 4.110054016113281 50.67128753662109 3 45 3 M 45 0 C 69.85281372070312 0 90 20.14718627929688 90 45 C 90 69.85281372070312 69.85281372070312 90 45 90 C 20.14718627929688 90 0 69.85281372070312 0 45 C 0 20.14718627929688 20.14718627929688 0 45 0 Z" stroke="none" fill="#3ad1e9"/>
        </g>
      </g>
    </g>
    <g id="analisis" transform="translate(476.684 3224.684)">
      <g id="Grupo_1149555" data-name="Grupo 1149555" transform="translate(1.031 1.029)">
        <path id="Trazado_983795" data-name="Trazado 983795" d="M24.785,95H12.076a2.062,2.062,0,0,0-2.056,2.056v10.279a2.062,2.062,0,0,0,2.056,2.056H31.092l3.6,3.6,3.6-3.6h2.57a2.063,2.063,0,0,0,2.056-2.056V97.057A2.062,2.062,0,0,0,40.857,95H24.785Z" transform="translate(-10.02 -86.264)" fill="#ffee80" fill-rule="evenodd"/>
        <path id="Trazado_983796" data-name="Trazado 983796" d="M187.6,71.446a2.063,2.063,0,0,1-2.056,2.056h-2.57l-3.6,3.6-3.6-3.6h-4.5a14.921,14.921,0,0,0,17.787,10.935,7.186,7.186,0,0,1,.109-.785L187.2,82.2l2.056-3.561,2.251.986a7.186,7.186,0,0,1,2.406-1.391l.271-2.441H198.3l.2,1.836a14.906,14.906,0,0,0-23.029-18.516h10.073a2.062,2.062,0,0,1,2.056,2.056V71.446Z" transform="translate(-154.708 -50.374)" fill="#33d6f5" fill-rule="evenodd"/>
        <path id="Trazado_983797" data-name="Trazado 983797" d="M332.849,259.706a7.19,7.19,0,0,0-2.406,1.391l-2.251-.986-2.056,3.561,1.979,1.456a7.217,7.217,0,0,0-.109.785q-.025.3-.025.6a7.226,7.226,0,0,0,.135,1.389l-1.979,1.456.817,1.416,1.238,2.145,2.251-.986a7.186,7.186,0,0,0,2.406,1.391l.271,2.441h4.111l.271-2.441a7.188,7.188,0,0,0,2.405-1.391l2.251.986,2.056-3.561-1.979-1.456a7.25,7.25,0,0,0,0-2.779l1.979-1.456-2.056-3.561h0l-2.249.985a7.187,7.187,0,0,0-2.405-1.391l-.067-.6-.2-1.836H333.12Zm-.243,6.81a2.57,2.57,0,1,1,2.57,2.57A2.57,2.57,0,0,1,332.606,266.516Z" transform="translate(-293.642 -231.849)" fill="#9ea6bf" fill-rule="evenodd"/>
        <g id="Grupo_1149554" data-name="Grupo 1149554" transform="translate(11.845)">
          <circle id="Elipse_11634" data-name="Elipse 11634" cx="2.57" cy="2.57" r="2.57" transform="translate(27.119 32.098)" fill="#fff"/>
          <path id="Trazado_983798" data-name="Trazado 983798" d="M182.756,37.857a7.188,7.188,0,0,1,2.405,1.391l2.249-.986a19.532,19.532,0,0,0-33.75-19.525h6a14.906,14.906,0,0,1,23.029,18.516Z" transform="translate(-150.74 -10)" fill="#fff" fill-rule="evenodd"/>
          <path id="Trazado_983799" data-name="Trazado 983799" d="M144.45,246.307A14.91,14.91,0,0,1,129.984,235h-4.732a19.535,19.535,0,0,0,21.466,15.8l-.817-1.416,1.979-1.456a7.23,7.23,0,0,1-.135-1.389q0-.305.025-.6a14.952,14.952,0,0,1-3.32.372Z" transform="translate(-125.252 -211.872)" fill="#fff" fill-rule="evenodd"/>
        </g>
        <path id="Trazado_983800" data-name="Trazado 983800" d="M126.265,316.549a19.643,19.643,0,0,1-4.2-4.2l-.223.223-3.985,3.795,4.392,4.392,3.96-4.158Z" transform="translate(-106.776 -281.271)" fill="#cfd3df" fill-rule="evenodd"/>
        <path id="Trazado_983801" data-name="Trazado 983801" d="M25.5,355.824l-4.392-4.392-10.08,9.6A3.446,3.446,0,1,0,15.9,365.9Z" transform="translate(-10.02 -316.336)" fill="#9ea6bf" fill-rule="evenodd"/>
      </g>
      <g id="Grupo_1149556" data-name="Grupo 1149556" transform="translate(0.001 0.001)">
        <path id="Trazado_983802" data-name="Trazado 983802" d="M52.213,37.714l-1.478-1.087a8.274,8.274,0,0,0,0-1.86l1.478-1.087a1.028,1.028,0,0,0,.281-1.342l-1.784-3.091a20.341,20.341,0,0,0,1.922-8.688A20.558,20.558,0,0,0,15.253,8.738H3.086A3.087,3.087,0,0,0,0,11.822V22.1a3.087,3.087,0,0,0,3.084,3.084h8.953a20.4,20.4,0,0,0,2.938,6.8l-13.651,13L1.309,45a4.474,4.474,0,0,0,6.327,6.327l.017-.018,13-13.656a20.51,20.51,0,0,0,11.416,3.468c.565,0,1.138-.024,1.71-.071l.907,1.571a1.028,1.028,0,0,0,1.3.428l1.68-.736a8.149,8.149,0,0,0,1.611.932l.2,1.822a1.028,1.028,0,0,0,1.022.914H44.62a1.028,1.028,0,0,0,1.022-.914l.2-1.822a8.151,8.151,0,0,0,1.611-.932l1.681.736a1.028,1.028,0,0,0,1.3-.428l2.056-3.561A1.028,1.028,0,0,0,52.213,37.714ZM32.073,2.057a18.523,18.523,0,0,1,18.5,18.5A18.305,18.305,0,0,1,48.788,28.5l-1.333.584a8.152,8.152,0,0,0-1.42-.846,15.919,15.919,0,0,0,1.971-7.681A16.144,16.144,0,0,0,47.9,18.7a1.028,1.028,0,0,0-2.042.238,14.092,14.092,0,0,1,.1,1.625,13.9,13.9,0,0,1-.909,4.948,1.024,1.024,0,0,0-.421-.09H40.508a1.028,1.028,0,0,0-1.022.914l-.2,1.822a8.156,8.156,0,0,0-1.611.932l-1.68-.736a1.028,1.028,0,0,0-1.3.428l-2.056,3.561a1.028,1.028,0,0,0,.281,1.342l.883.65a14.027,14.027,0,0,1-1.725.107,13.876,13.876,0,0,1-13.087-9.251h2.69l3.3,3.3a1.028,1.028,0,0,0,1.454,0l3.3-3.3h2.144A3.087,3.087,0,0,0,34.951,22.1V11.822a3.087,3.087,0,0,0-3.084-3.084H24.8A13.883,13.883,0,0,1,42.316,11.2,1.028,1.028,0,1,0,43.833,9.81,15.932,15.932,0,0,0,21.391,8.738H17.84A18.485,18.485,0,0,1,32.073,2.057ZM2.058,22.1V11.822a1.029,1.029,0,0,1,1.028-1.028H31.868A1.029,1.029,0,0,1,32.9,11.822V22.1a1.029,1.029,0,0,1-1.028,1.028H29.3a1.028,1.028,0,0,0-.727.3L25.7,26.3,22.829,23.43a1.028,1.028,0,0,0-.727-.3H3.086A1.029,1.029,0,0,1,2.058,22.1ZM6.174,49.878a2.418,2.418,0,0,1-3.42-3.42l9.343-8.9,2.974,2.974ZM16.49,39.045l-2.9-2.9,2.629-2.5A20.673,20.673,0,0,0,19,36.414ZM14.155,25.185h2.669A15.947,15.947,0,0,0,34.365,36.327q.011.15.028.3l-1.478,1.087a1.028,1.028,0,0,0-.283,1.339q-.281.009-.559.009A18.529,18.529,0,0,1,14.155,25.185ZM48.616,34.5a6.225,6.225,0,0,1,0,2.384,1.028,1.028,0,0,0,.4,1.025l1.238.911-1.136,1.967-1.409-.617a1.028,1.028,0,0,0-1.089.167,6.132,6.132,0,0,1-2.062,1.192,1.028,1.028,0,0,0-.689.859L43.7,43.92H41.428l-.17-1.526a1.028,1.028,0,0,0-.689-.859,6.13,6.13,0,0,1-2.061-1.192,1.028,1.028,0,0,0-1.089-.168l-1.409.617-1.136-1.967,1.238-.911a1.028,1.028,0,0,0,.4-1.025,6.216,6.216,0,0,1,0-2.384,1.028,1.028,0,0,0-.4-1.025l-1.238-.911L36.01,30.6l1.409.617a1.028,1.028,0,0,0,1.089-.168,6.133,6.133,0,0,1,2.061-1.192A1.028,1.028,0,0,0,41.258,29l.17-1.526H43.7L43.869,29a1.028,1.028,0,0,0,.689.859,6.128,6.128,0,0,1,2.061,1.192,1.028,1.028,0,0,0,1.089.168l1.409-.617,1.136,1.967-1.238.91a1.028,1.028,0,0,0-.4,1.025Z" transform="translate(-0.001 -0.001)"/>
        <path id="Trazado_983803" data-name="Trazado 983803" d="M382.677,312.266a3.6,3.6,0,1,0,3.6,3.6A3.6,3.6,0,0,0,382.677,312.266Zm0,5.139a1.542,1.542,0,1,1,1.542-1.542A1.544,1.544,0,0,1,382.677,317.405Z" transform="translate(-340.113 -280.168)"/>
        <path id="Trazado_983804" data-name="Trazado 983804" d="M41.049,140a1.028,1.028,0,0,0-1.028,1.028v3.084a1.028,1.028,0,0,0,2.056,0v-3.084A1.028,1.028,0,0,0,41.049,140Z" transform="translate(-35.907 -125.609)"/>
        <path id="Trazado_983805" data-name="Trazado 983805" d="M81.049,130a1.028,1.028,0,0,0-1.028,1.028v5.14a1.028,1.028,0,1,0,2.056,0v-5.14A1.028,1.028,0,0,0,81.049,130Z" transform="translate(-71.796 -116.637)"/>
        <path id="Trazado_983806" data-name="Trazado 983806" d="M121.049,147.837a1.028,1.028,0,0,0-1.028,1.028v1.473a1.028,1.028,0,1,0,2.056,0v-1.473A1.028,1.028,0,0,0,121.049,147.837Z" transform="translate(-107.684 -132.641)"/>
        <path id="Trazado_983807" data-name="Trazado 983807" d="M161.049,125a1.028,1.028,0,0,0-1.028,1.028V132.2a1.028,1.028,0,1,0,2.056,0v-6.167A1.028,1.028,0,0,0,161.049,125Z" transform="translate(-143.572 -112.151)"/>
        <path id="Trazado_983808" data-name="Trazado 983808" d="M202.077,150.338v-1.473a1.028,1.028,0,0,0-2.056,0v1.473a1.028,1.028,0,1,0,2.056,0Z" transform="translate(-179.461 -132.641)"/>
        <path id="Trazado_983809" data-name="Trazado 983809" d="M241.049,137.2a1.028,1.028,0,0,0,1.028-1.028v-5.14a1.028,1.028,0,0,0-2.056,0v5.14A1.028,1.028,0,0,0,241.049,137.2Z" transform="translate(-215.349 -116.637)"/>
        <path id="Trazado_983810" data-name="Trazado 983810" d="M281.049,145.14a1.028,1.028,0,0,0,1.028-1.028v-3.084a1.028,1.028,0,0,0-2.056,0v3.084A1.028,1.028,0,0,0,281.049,145.14Z" transform="translate(-251.238 -125.609)"/>
        <path id="Trazado_983811" data-name="Trazado 983811" d="M434.945,131.742a1.028,1.028,0,0,0,0-2.056h0a1.028,1.028,0,0,0,0,2.056Z" transform="translate(-389.315 -116.356)"/>
      </g>
    </g>
  </g>
</svg>
