<svg xmlns="http://www.w3.org/2000/svg" xmlns:xlink="http://www.w3.org/1999/xlink" width="108" height="108" viewBox="0 0 108 108">
  <defs>
    <filter id="Trazado_982547" x="0" y="0" width="108" height="108" filterUnits="userSpaceOnUse">
      <feOffset dy="3" input="SourceAlpha"/>
      <feGaussianBlur stdDeviation="3" result="blur"/>
      <feFlood flood-opacity="0.161"/>
      <feComposite operator="in" in2="blur"/>
      <feComposite in="SourceGraphic"/>
    </filter>
  </defs>
  <g id="Grupo_1149982" data-name="Grupo 1149982" transform="translate(-174 -3470)">
    <g id="Grupo_1149748" data-name="Grupo 1149748" transform="translate(-18 -6716)">
      <g id="Grupo_1149261" data-name="Grupo 1149261" transform="translate(-83 6759)">
        <g id="Grupo_1147065" data-name="Grupo 1147065" transform="translate(-341 -556)">
          <g transform="matrix(1, 0, 0, 1, 616, 3983)" filter="url(#Trazado_982547)">
            <g id="Trazado_982547-2" data-name="Trazado 982547" transform="translate(9 6)" fill="#eff4fa">
              <path d="M 45 88.5 C 39.12687683105469 88.5 33.43022537231445 87.35007476806641 28.06830024719238 85.08217620849609 C 22.88852500915527 82.89131164550781 18.23629951477051 79.75458526611328 14.2408504486084 75.75914764404297 C 10.24541282653809 71.76370239257812 7.108687400817871 67.11147308349609 4.917825222015381 61.93170166015625 C 2.649924993515015 56.56977462768555 1.5 50.87312316894531 1.5 45 C 1.5 39.12687683105469 2.649924993515015 33.43022537231445 4.917825222015381 28.06830024719238 C 7.108687400817871 22.88852500915527 10.24541282653809 18.23629951477051 14.2408504486084 14.2408504486084 C 18.23629951477051 10.24541282653809 22.88852500915527 7.108687400817871 28.06830024719238 4.917825222015381 C 33.43022537231445 2.649924993515015 39.12687683105469 1.5 45 1.5 C 50.87312316894531 1.5 56.56977462768555 2.649924993515015 61.93170166015625 4.917825222015381 C 67.11147308349609 7.108687400817871 71.76370239257812 10.24541282653809 75.75914764404297 14.2408504486084 C 79.75458526611328 18.23629951477051 82.89131164550781 22.88852500915527 85.08217620849609 28.06830024719238 C 87.35007476806641 33.43022537231445 88.5 39.12687683105469 88.5 45 C 88.5 50.87312316894531 87.35007476806641 56.56977462768555 85.08217620849609 61.93170166015625 C 82.89131164550781 67.11147308349609 79.75458526611328 71.76370239257812 75.75914764404297 75.75914764404297 C 71.76370239257812 79.75458526611328 67.11147308349609 82.89131164550781 61.93170166015625 85.08217620849609 C 56.56977462768555 87.35007476806641 50.87312316894531 88.5 45 88.5 Z" stroke="none"/>
              <path d="M 45 3 C 39.32871246337891 3 33.82865524291992 4.110054016113281 28.65262985229492 6.299339294433594 C 23.65165710449219 8.414573669433594 19.15968322753906 11.44334411621094 15.301513671875 15.301513671875 C 11.44334411621094 19.15968322753906 8.414573669433594 23.65165710449219 6.299339294433594 28.65262985229492 C 4.110054016113281 33.82865524291992 3 39.32871246337891 3 45 C 3 50.67128753662109 4.110054016113281 56.17134475708008 6.299339294433594 61.34737396240234 C 8.414573669433594 66.34834289550781 11.44334411621094 70.84031677246094 15.301513671875 74.698486328125 C 19.15968322753906 78.55665588378906 23.65165710449219 81.58542633056641 28.65262985229492 83.70066070556641 C 33.82865524291992 85.88994598388672 39.32871246337891 87 45 87 C 50.67128753662109 87 56.17134475708008 85.88994598388672 61.34737396240234 83.70066070556641 C 66.34834289550781 81.58542633056641 70.84031677246094 78.55665588378906 74.698486328125 74.698486328125 C 78.55665588378906 70.84031677246094 81.58542633056641 66.34834289550781 83.70066070556641 61.34737396240234 C 85.88994598388672 56.17134475708008 87 50.67128753662109 87 45 C 87 39.32871246337891 85.88994598388672 33.82865524291992 83.70066070556641 28.65262985229492 C 81.58542633056641 23.65165710449219 78.55665588378906 19.15968322753906 74.698486328125 15.301513671875 C 70.84031677246094 11.44334411621094 66.34834289550781 8.414573669433594 61.34737396240234 6.299339294433594 C 56.17134475708008 4.110054016113281 50.67128753662109 3 45 3 M 45 0 C 69.85281372070312 0 90 20.14718627929688 90 45 C 90 69.85281372070312 69.85281372070312 90 45 90 C 20.14718627929688 90 0 69.85281372070312 0 45 C 0 20.14718627929688 20.14718627929688 0 45 0 Z" stroke="none" fill="#3ad1e9"/>
            </g>
          </g>
        </g>
      </g>
    </g>
    <g id="plataforma" transform="translate(200 3493)">
      <g id="Grupo_1149980" data-name="Grupo 1149980" transform="translate(1.864 1.864)">
        <g id="Grupo_1149966" data-name="Grupo 1149966" transform="translate(32.832 38.016)">
          <path id="Trazado_985553" data-name="Trazado 985553" d="M46.48,46.19l.432-.19H49.5a2.6,2.6,0,0,0-2.592,2.592V54.64H40a10.615,10.615,0,0,1,1.132-3.491A10.806,10.806,0,0,1,46.48,46.19Z" transform="translate(-40 -46)" fill="#fcd770"/>
        </g>
        <g id="Grupo_1149967" data-name="Grupo 1149967" transform="translate(31.104 38.016)">
          <path id="Trazado_985554" data-name="Trazado 985554" d="M39.728,54.64H46.64V48.592a2.592,2.592,0,1,1,5.184,0V54.64a5.188,5.188,0,0,1-5.184,5.184H38V54.64Z" transform="translate(-38 -46)" fill="#fcd770"/>
        </g>
        <g id="Grupo_1149968" data-name="Grupo 1149968" transform="translate(10.368 46.656)">
          <path id="Trazado_985555" data-name="Trazado 985555" d="M29.552,57.728v1.728H14V56H31.28A1.733,1.733,0,0,0,29.552,57.728Z" transform="translate(-14 -56)" fill="#aab2bd"/>
        </g>
        <g id="Grupo_1149969" data-name="Grupo 1149969" transform="translate(0 39.744)">
          <path id="Trazado_985556" data-name="Trazado 985556" d="M35.955,51.421h.009a10.615,10.615,0,0,0-1.132,3.491H5.456A3.455,3.455,0,0,1,2,51.456V48H31.679a5.176,5.176,0,0,0,4.277,3.421Z" transform="translate(-2 -48)" fill="#ccd1d9"/>
        </g>
        <g id="Grupo_1149970" data-name="Grupo 1149970" transform="translate(0 19.008)">
          <path id="Trazado_985557" data-name="Trazado 985557" d="M7.184,24V44.736H2V27.456A3.455,3.455,0,0,1,5.456,24Z" transform="translate(-2 -24)" fill="#69d6f4"/>
        </g>
        <g id="Grupo_1149971" data-name="Grupo 1149971" transform="translate(29.376 13.824)">
          <path id="Trazado_985558" data-name="Trazado 985558" d="M48.1,42.192a6.91,6.91,0,0,0,6.912-6.912V28.368a10.438,10.438,0,0,1-7.379-3.059l-.4-.4-.406.406a10.424,10.424,0,0,1-7.37,3.05V35.28a6.91,6.91,0,0,0,6.912,6.912l-.432.19a10.806,10.806,0,0,0-5.348,4.959h-.009A5.176,5.176,0,0,1,36.3,43.92a4.978,4.978,0,0,1-.3-1.728V29.232a11.263,11.263,0,0,1,6.9-10.368h.009A11.232,11.232,0,0,1,58.464,29.232v12.96a5.188,5.188,0,0,1-5.184,5.184H51.552V44.784a2.589,2.589,0,0,0-2.592-2.592Z" transform="translate(-36 -18)" fill="#656d78"/>
        </g>
        <g id="Grupo_1149972" data-name="Grupo 1149972" transform="translate(5.184 14.688)">
          <path id="Trazado_985559" data-name="Trazado 985559" d="M32.192,42.328a4.978,4.978,0,0,0,.3,1.728H8V19H39.1a11.263,11.263,0,0,0-6.9,10.368Z" transform="translate(-8 -19)" fill="#e6e9ed"/>
        </g>
        <g id="Grupo_1149973" data-name="Grupo 1149973" transform="translate(5.184 7.776)">
          <path id="Trazado_985560" data-name="Trazado 985560" d="M8,17.912V11.864A.867.867,0,0,1,8.864,11H38.24a.867.867,0,0,1,.864.864v6.048H8Z" transform="translate(-8 -11)" fill="#5cd6b3"/>
        </g>
        <g id="Grupo_1149974" data-name="Grupo 1149974" transform="translate(19.008 32.832)">
          <path id="Trazado_985561" data-name="Trazado 985561" d="M24,40h6.912v3.456H24Z" transform="translate(-24 -40)" fill="#ff826e"/>
        </g>
        <g id="Grupo_1149975" data-name="Grupo 1149975" transform="translate(8.562 18.143)">
          <circle id="Elipse_11697" data-name="Elipse 11697" cx="4.189" cy="4.189" r="4.189" transform="translate(0 0)" fill="#fcd770"/>
        </g>
        <g id="Grupo_1149976" data-name="Grupo 1149976" transform="translate(39.744 0)">
          <path id="Trazado_985562" data-name="Trazado 985562" d="M60.1,3.728V10.64a1.733,1.733,0,0,1-1.728,1.728H56.64l-1.391,2.091a1.133,1.133,0,0,1-.942.5,1.121,1.121,0,0,1-1.123-1.123V12.368H49.728A1.733,1.733,0,0,1,48,10.64V3.728A1.733,1.733,0,0,1,49.728,2h8.64A1.733,1.733,0,0,1,60.1,3.728Z" transform="translate(-48 -2)" fill="#e6e9ed"/>
        </g>
        <g id="Grupo_1149977" data-name="Grupo 1149977" transform="translate(25.92 46.656)">
          <path id="Trazado_985563" data-name="Trazado 985563" d="M37.184,56v3.456H32V57.728A1.733,1.733,0,0,1,33.728,56Z" transform="translate(-32 -56)" fill="#f0d0b4"/>
        </g>
        <g id="Grupo_1149978" data-name="Grupo 1149978" transform="translate(32.832 20.736)">
          <path id="Trazado_985564" data-name="Trazado 985564" d="M40,36.368V29.456a10.424,10.424,0,0,0,7.37-3.05L47.776,26l.4.4a10.438,10.438,0,0,0,7.379,3.059v6.912A6.91,6.91,0,0,1,48.64,43.28H46.912A6.91,6.91,0,0,1,40,36.368Z" transform="translate(-40 -26)" fill="#f0d0b4"/>
        </g>
        <g id="Grupo_1149979" data-name="Grupo 1149979" transform="translate(37.152 31.104)">
          <path id="Trazado_985565" data-name="Trazado 985565" d="M45,38h6.912A3.456,3.456,0,1,1,45,38Z" transform="translate(-45 -38)" fill="#ff826e"/>
        </g>
      </g>
      <g id="Grupo_1149981" data-name="Grupo 1149981" transform="translate(1 1)">
        <path id="Trazado_985566" data-name="Trazado 985566" d="M52.59,32A2.6,2.6,0,0,0,50,34.592h1.728a.864.864,0,1,1,1.728,0h1.728A2.6,2.6,0,0,0,52.59,32Z" transform="translate(-7.664 -5.216)"/>
        <path id="Trazado_985567" data-name="Trazado 985567" d="M44.59,33.728a.865.865,0,0,1,.864.864h1.728a2.592,2.592,0,1,0-5.184,0h1.728A.865.865,0,0,1,44.59,33.728Z" transform="translate(-6.576 -5.216)"/>
        <path id="Trazado_985568" data-name="Trazado 985568" d="M44,37.864a4.32,4.32,0,1,0,8.64,0V37H44Zm6.764.864a2.593,2.593,0,0,1-4.889,0Z" transform="translate(-6.847 -5.896)"/>
        <circle id="Elipse_11698" data-name="Elipse 11698" cx="1.047" cy="1.047" r="1.047" transform="translate(16.757 43.095)"/>
        <ellipse id="Elipse_11699" data-name="Elipse 11699" cx="0.524" cy="1.047" rx="0.524" ry="1.047" transform="translate(20.946 43.095)"/>
        <circle id="Elipse_11700" data-name="Elipse 11700" cx="1.047" cy="1.047" r="1.047" transform="translate(24.088 43.095)"/>
        <path id="Trazado_985569" data-name="Trazado 985569" d="M51,5h6.912V6.728H51Z" transform="translate(-7.8 -1.544)"/>
        <path id="Trazado_985570" data-name="Trazado 985570" d="M51,9h6.912v1.728H51Z" transform="translate(-7.8 -2.088)"/>
        <path id="Trazado_985571" data-name="Trazado 985571" d="M58.232,1h-8.64A2.6,2.6,0,0,0,47,3.592V10.5A2.6,2.6,0,0,0,49.592,13.1h2.592v.6a1.99,1.99,0,0,0,3.645,1.1L56.966,13.1h1.266A2.6,2.6,0,0,0,60.824,10.5V3.592A2.6,2.6,0,0,0,58.232,1Zm.864,9.5a.865.865,0,0,1-.864.864h-2.19l-1.65,2.476a.272.272,0,0,1-.48-.146v-2.33h-4.32a.865.865,0,0,1-.864-.864V3.592a.865.865,0,0,1,.864-.864h8.64a.865.865,0,0,1,.864.864Z" transform="translate(-7.256 -1)"/>
        <path id="Trazado_985572" data-name="Trazado 985572" d="M42.472,16.048a12.024,12.024,0,0,0-3.456.51v-4.83A1.73,1.73,0,0,0,37.288,10H7.912a1.73,1.73,0,0,0-1.728,1.728v9.5H5.32A4.325,4.325,0,0,0,1,25.552V46.288a4.325,4.325,0,0,0,4.32,4.32h6.048v1.728H7.912v1.728H32.1v1.729h9.5a6.055,6.055,0,0,0,6.048-6.048V47.153h.865a6.055,6.055,0,0,0,6.048-6.048V28.144A12.109,12.109,0,0,0,42.472,16.048ZM30.444,41.968H7.912V18.64h27.1a12.071,12.071,0,0,0-4.638,9.5V41.1A6.07,6.07,0,0,0,30.444,41.968Zm6.844-30.24v5.184H7.912V11.728ZM5.32,22.96h.864V41.968H2.728V25.552A2.6,2.6,0,0,1,5.32,22.96ZM2.728,46.288V43.7H30.962a6.047,6.047,0,0,0,3.631,3.173,11.553,11.553,0,0,0-.622,2.012h-1v0H5.32A2.6,2.6,0,0,1,2.728,46.288ZM43.334,40.24H41.607a6.057,6.057,0,0,1-6.049-6.048v-6.08a11.2,11.2,0,0,0,6.914-3.072,11.193,11.193,0,0,0,6.911,3.071v6.081A6.055,6.055,0,0,1,43.334,40.24ZM40.743,43.7v5.185H35.759a10.056,10.056,0,0,1,5.265-6.546A3.431,3.431,0,0,0,40.743,43.7ZM13.1,52.336V50.608H27.08a2.542,2.542,0,0,0-.16.864v.864Zm15.552,0v-.864a.866.866,0,0,1,.865-.864l2.591,0v1.726Zm17.279-2.592a4.325,4.325,0,0,1-4.32,4.32H33.832V50.608H41.25l1.474,1.476,1.223-1.221-1.475-1.475V43.7a1.729,1.729,0,0,1,1.712-1.726H44.2v0A1.73,1.73,0,0,1,45.927,43.7ZM52.84,41.1a4.325,4.325,0,0,1-4.32,4.32h-.865V43.7a3.442,3.442,0,0,0-1.039-2.464,7.78,7.78,0,0,0,4.495-7.04V26.416h-.864a9.506,9.506,0,0,1-6.764-2.8L42.471,22.6l-1.014,1.014a9.506,9.506,0,0,1-6.763,2.8H33.83v7.776A7.784,7.784,0,0,0,38.985,41.5a11.846,11.846,0,0,0-3.6,3.779A4.306,4.306,0,0,1,32.1,41.1V28.144a10.368,10.368,0,0,1,20.736,0Z" transform="translate(-1 -2.224)"/>
        <path id="Trazado_985573" data-name="Trazado 985573" d="M11,14h1.728v1.728H11Z" transform="translate(-2.36 -2.768)"/>
        <path id="Trazado_985574" data-name="Trazado 985574" d="M19,14h1.728v1.728H19Z" transform="translate(-3.448 -2.768)"/>
        <path id="Trazado_985575" data-name="Trazado 985575" d="M15,14h1.728v1.728H15Z" transform="translate(-2.904 -2.768)"/>
        <path id="Trazado_985576" data-name="Trazado 985576" d="M16.184,22a5.184,5.184,0,1,0,5.184,5.184A5.189,5.189,0,0,0,16.184,22Zm0,8.64a3.456,3.456,0,1,1,3.456-3.456A3.459,3.459,0,0,1,16.184,30.64Z" transform="translate(-2.36 -3.856)"/>
        <path id="Trazado_985577" data-name="Trazado 985577" d="M23,44.184h8.64V39H23Zm1.728-3.456h5.184v1.728H24.728Z" transform="translate(-3.992 -6.168)"/>
        <path id="Trazado_985578" data-name="Trazado 985578" d="M11,39h8.64v1.728H11Z" transform="translate(-2.36 -6.168)"/>
        <path id="Trazado_985579" data-name="Trazado 985579" d="M11,43h8.64v1.728H11Z" transform="translate(-2.36 -6.712)"/>
        <path id="Trazado_985580" data-name="Trazado 985580" d="M25,22h6.912v1.728H25Z" transform="translate(-4.264 -3.856)"/>
        <path id="Trazado_985581" data-name="Trazado 985581" d="M25,26h6.912v1.728H25Z" transform="translate(-4.264 -4.4)"/>
        <path id="Trazado_985582" data-name="Trazado 985582" d="M25,30h6.912v1.728H25Z" transform="translate(-4.264 -4.944)"/>
      </g>
    </g>
  </g>
</svg>
