<svg xmlns="http://www.w3.org/2000/svg" width="36.825" height="37.373" viewBox="0 0 36.825 37.373">
  <g id="Industry" transform="translate(-4.26 -3.848)">
    <path id="Trazado_984115" data-name="Trazado 984115" d="M21.173,41.622a.664.664,0,0,0-.664-.664h-.564v-3.9A6,6,0,0,0,14.232,31.6a.547.547,0,0,1-.351-.151l-2.655-2.518a2.408,2.408,0,0,0-1.368-.64l-.65-1.569a1.1,1.1,0,0,1-.017-.767A5.1,5.1,0,0,0,6.576,19.67a1.151,1.151,0,0,0-1.65.818,40.139,40.139,0,0,0-.333,12.435,3.413,3.413,0,0,0,.989,1.991c5.583,5.479,5.691,5.357,5.711,6.021v.023H10.5a.664.664,0,0,0-.664.664v4.213a.664.664,0,0,0,.664.664H20.509a.664.664,0,0,0,.664-.664ZM12.619,40.9c-.038-1.281-.349-1.279-6.108-6.931a2.08,2.08,0,0,1-.6-1.213,38.808,38.808,0,0,1,.279-11.786,3.759,3.759,0,0,1,1.743,4.571,2.425,2.425,0,0,0,.051,1.7l.529,1.276A2.142,2.142,0,0,0,8.126,31.9l3.313,3.74a.664.664,0,0,0,.994-.88L9.12,31.02c-.345-.389-.5-1.118,0-1.335a1.1,1.1,0,0,1,1.19.212l2.655,2.518a1.879,1.879,0,0,0,1.2.513,4.7,4.7,0,0,1,4.446,4.147v3.882h-6Zm7.226,4.274H11.167V42.286h8.678Z" transform="translate(0 -5.278)"/>
    <path id="Trazado_984116" data-name="Trazado 984116" d="M34.261,45.836a.664.664,0,0,0,.664.664H44.931a.664.664,0,0,0,.664-.664V41.622a.664.664,0,0,0-.664-.664h-.79v-.023c.019-.664.127-.542,5.711-6.021a3.413,3.413,0,0,0,.989-1.991,40.139,40.139,0,0,0-.333-12.435,1.151,1.151,0,0,0-1.65-.818,5.1,5.1,0,0,0-2.615,6.288,1.1,1.1,0,0,1-.018.767l-.65,1.569a2.408,2.408,0,0,0-1.368.64l-2.655,2.518a.547.547,0,0,1-.351.151,6,6,0,0,0-5.712,5.457v3.9h-.564a.664.664,0,0,0-.664.664Zm8.551-4.877h-6V37.076a4.7,4.7,0,0,1,4.446-4.147,1.879,1.879,0,0,0,1.2-.513L45.12,29.9a1.1,1.1,0,0,1,1.19-.212c.508.216.349.945,0,1.335L43,34.76a.664.664,0,0,0,.994.88l3.313-3.74a2.142,2.142,0,0,0-.385-3.391l.529-1.276a2.425,2.425,0,0,0,.051-1.7,3.759,3.759,0,0,1,1.743-4.571,38.809,38.809,0,0,1,.279,11.786,2.08,2.08,0,0,1-.6,1.213c-5.759,5.651-6.07,5.65-6.108,6.931Zm-7.224,1.328h8.678v2.886H35.589Z" transform="translate(-10.087 -5.278)"/>
    <path id="Trazado_984117" data-name="Trazado 984117" d="M25.556,21.914a5.307,5.307,0,1,1,3.755,1.557A5.31,5.31,0,0,1,25.556,21.914Zm.939-6.571h0a3.98,3.98,0,1,0,2.816-1.167,3.983,3.983,0,0,0-2.816,1.167Z" transform="translate(-6.637 -3.026)"/>
    <path id="Trazado_984118" data-name="Trazado 984118" d="M27.973,21.515a3.323,3.323,0,0,1,0-4.694h0a3.319,3.319,0,1,1,0,4.694Zm.939-3.755a1.992,1.992,0,1,0,2.817,0,1.992,1.992,0,0,0-2.817,0Z" transform="translate(-7.646 -4.035)"/>
    <path id="Trazado_984119" data-name="Trazado 984119" d="M27.291,10.613a7.889,7.889,0,0,1,.813-.35.664.664,0,1,1,.455,1.247,6.419,6.419,0,0,0-.676.292.664.664,0,1,1-.592-1.189Z" transform="translate(-7.62 -2.143)"/>
    <path id="Trazado_984120" data-name="Trazado 984120" d="M21.687,15.475a7.924,7.924,0,0,1,2.162-3.061.664.664,0,1,1,.875,1,6.6,6.6,0,0,0-1.8,2.549.664.664,0,1,1-1.236-.486Z" transform="translate(-5.844 -2.825)"/>
    <path id="Trazado_984121" data-name="Trazado 984121" d="M28.456,25.592l.439-1.754a8.994,8.994,0,0,0,1.62-.661l1.575.944a1.087,1.087,0,0,0,1.329-.165l1.634-1.634a1.087,1.087,0,0,0,.164-1.33l-.93-1.55a9.041,9.041,0,0,0,.677-1.614l1.781-.445a1.087,1.087,0,0,0,.824-1.056v-2.31a1.087,1.087,0,0,0-.825-1.056l-1.754-.438a9.044,9.044,0,0,0-.662-1.622l.943-1.573A1.085,1.085,0,0,0,35.108,8L33.474,6.364A1.084,1.084,0,0,0,32.145,6.2l-1.551.93a9.044,9.044,0,0,0-1.614-.677l-.445-1.779a1.087,1.087,0,0,0-1.056-.826h-2.31a1.087,1.087,0,0,0-1.056.825l-.439,1.754a9.061,9.061,0,0,0-1.621.661L20.48,6.145a1.087,1.087,0,0,0-1.33.164L17.517,7.942a1.085,1.085,0,0,0-.164,1.33l.93,1.551a9.031,9.031,0,0,0-.677,1.613l-1.781.446A1.087,1.087,0,0,0,15,13.938v2.31a1.087,1.087,0,0,0,.825,1.056l1.754.439a9.038,9.038,0,0,0,.661,1.621L17.3,20.937a1.087,1.087,0,0,0,.164,1.33L19.093,23.9a1.085,1.085,0,0,0,1.33.165l1.551-.93a9.069,9.069,0,0,0,1.614.677l.445,1.78a1.087,1.087,0,0,0,1.056.825H27.4A1.087,1.087,0,0,0,28.456,25.592ZM27.7,23.141l-.487,1.949H25.276l-.493-1.971a.664.664,0,0,0-.475-.48,7.716,7.716,0,0,1-2-.841.664.664,0,0,0-.682,0L19.9,22.83l-1.37-1.37,1.045-1.742a.664.664,0,0,0,0-.676,7.723,7.723,0,0,1-.819-2.011.663.663,0,0,0-.483-.482l-1.949-.487V14.125l1.971-.494a.664.664,0,0,0,.481-.475,7.7,7.7,0,0,1,.841-2,.665.665,0,0,0,0-.683L18.587,8.749l1.37-1.37L21.7,8.424a.661.661,0,0,0,.676,0,7.733,7.733,0,0,1,2.011-.819.663.663,0,0,0,.482-.483l.487-1.949h1.937l.493,1.972a.665.665,0,0,0,.476.481,7.667,7.667,0,0,1,2,.841.664.664,0,0,0,.682,0l1.723-1.033,1.369,1.37-1.044,1.742a.664.664,0,0,0,0,.676,7.716,7.716,0,0,1,.82,2.011.662.662,0,0,0,.483.482l1.949.487v1.937l-1.972.493a.664.664,0,0,0-.481.475,7.684,7.684,0,0,1-.841,2,.665.665,0,0,0,0,.683l1.033,1.722-1.37,1.37-1.742-1.045a.668.668,0,0,0-.676,0,7.714,7.714,0,0,1-2.01.82.663.663,0,0,0-.482.483Z" transform="translate(-3.611)"/>
  </g>
</svg>
