<svg xmlns="http://www.w3.org/2000/svg" xmlns:xlink="http://www.w3.org/1999/xlink" width="190" height="101" viewBox="0 0 190 101">
  <defs>
    <linearGradient id="linear-gradient" y1="0.5" x2="1" y2="0.5" gradientUnits="objectBoundingBox">
      <stop offset="0" stop-color="#d2deff" stop-opacity="0"/>
      <stop offset="1" stop-color="#b7c5ff"/>
    </linearGradient>
  </defs>
  <g id="Grupo_1149812" data-name="Grupo 1149812" transform="translate(-1230 -284)">
    <g id="Grupo_1149677" data-name="Grupo 1149677">
      <rect id="Rect치ngulo_407965" data-name="Rect치ngulo 407965" width="190" height="59" rx="7" transform="translate(1230 305)" fill="#5a1a8a"/>
      <rect id="Rect치ngulo_407966" data-name="Rect치ngulo 407966" width="126" height="101" rx="7" transform="translate(1262 284)" fill="#a530fe"/>
    </g>
    <g id="Grupo_1149811" data-name="Grupo 1149811" transform="translate(3185.912 648.925)">
      <g id="Grupo_1149787" data-name="Grupo 1149787" transform="translate(-1914 -363)">
        <path id="Trazado_984446" data-name="Trazado 984446" d="M87.239,30.376C50.35,36.128,49.9,18,23.282,22.483-6.676,27.525-4.638,76.525,12.039,96.676,41.272,132,100.773,122.492,93.507,65.859c-.974-7.588,4.547-11.675,9.754-16.2,6.541-5.686,2.444-22.159-16.022-19.28Z" transform="translate(0 -21.764)" fill="url(#linear-gradient)"/>
      </g>
      <g id="Grupo_1149810" data-name="Grupo 1149810" transform="translate(-1904.207 -360.857)">
        <g id="Grupo_1149808" data-name="Grupo 1149808" transform="translate(0 0)">
          <g id="Grupo_1149801" data-name="Grupo 1149801" transform="translate(1.866 1.719)">
            <g id="Grupo_1149792" data-name="Grupo 1149792" transform="translate(1.037 6.014)">
              <g id="Grupo_1149791" data-name="Grupo 1149791" transform="translate(43.683 57.177)" opacity="0.1">
                <g id="Grupo_1149788" data-name="Grupo 1149788">
                  <path id="Trazado_984447" data-name="Trazado 984447" d="M276.759,347.175H272.9a1.037,1.037,0,1,1,0-2.074h3.854a1.037,1.037,0,1,1,0,2.074Z" transform="translate(-271.868 -345.101)" fill="#00c"/>
                </g>
                <g id="Grupo_1149789" data-name="Grupo 1149789" transform="translate(0 4.227)">
                  <path id="Trazado_984448" data-name="Trazado 984448" d="M285.054,367.557H272.9a1.037,1.037,0,1,1,0-2.074h12.149a1.037,1.037,0,0,1,0,2.074Z" transform="translate(-271.868 -365.483)" fill="#00c"/>
                </g>
                <g id="Grupo_1149790" data-name="Grupo 1149790" transform="translate(0 8.453)">
                  <path id="Trazado_984449" data-name="Trazado 984449" d="M285.054,387.938H272.9a1.037,1.037,0,1,1,0-2.074h12.149a1.037,1.037,0,0,1,0,2.074Z" transform="translate(-271.868 -385.864)" fill="#00c"/>
                </g>
              </g>
              <path id="Trazado_984450" data-name="Trazado 984450" d="M141.482,91.214l-4.851-.771a19.549,19.549,0,0,0-1.4-3.382l2.887-3.977a2.14,2.14,0,0,0-.219-2.77l-4.131-4.131a2.14,2.14,0,0,0-2.77-.219l-3.977,2.887a19.548,19.548,0,0,0-3.382-1.4l-.771-4.851a2.14,2.14,0,0,0-2.113-1.8H114.91a2.14,2.14,0,0,0-2.113,1.8l-.771,4.851a19.534,19.534,0,0,0-3.244,1.334,27.059,27.059,0,1,0-40.7,35.666A53.456,53.456,0,0,1,79.017,133.2a2.393,2.393,0,0,0-1.878,2.336v12.137a2.393,2.393,0,0,0,2.393,2.393h.778a8.115,8.115,0,0,0,15.944,0h.778a2.393,2.393,0,0,0,2.393-2.393V135.532a2.393,2.393,0,0,0-1.88-2.337,52.957,52.957,0,0,1,10.9-18.7c.194-.216.383-.437.57-.66a19.509,19.509,0,0,0,3.01,1.217l.771,4.851a2.14,2.14,0,0,0,2.113,1.8h5.842a2.14,2.14,0,0,0,2.113-1.8l.771-4.852a19.561,19.561,0,0,0,3.382-1.4l3.977,2.887a2.14,2.14,0,0,0,2.77-.219l4.131-4.131a2.14,2.14,0,0,0,.219-2.77l-2.887-3.977a19.529,19.529,0,0,0,1.4-3.382l4.851-.771a2.14,2.14,0,0,0,1.8-2.113V93.328a2.139,2.139,0,0,0-1.8-2.113ZM117.83,106.532a10.24,10.24,0,0,1-4.1-.854,27.161,27.161,0,0,0-.126-18.8,10.283,10.283,0,1,1,4.229,19.656Z" transform="translate(-61.223 -69.385)" fill="#00c" opacity="0.1"/>
            </g>
            <g id="Grupo_1149800" data-name="Grupo 1149800">
              <g id="Grupo_1149793" data-name="Grupo 1149793" transform="translate(32.191 2.445)">
                <path id="Trazado_984451" data-name="Trazado 984451" d="M260.555,72.6l-4.851-.771a19.548,19.548,0,0,0-1.4-3.382l2.887-3.977a2.14,2.14,0,0,0-.219-2.77l-4.131-4.131a2.14,2.14,0,0,0-2.77-.219l-3.977,2.887a19.548,19.548,0,0,0-3.382-1.4l-.771-4.851a2.14,2.14,0,0,0-2.113-1.8h-5.842a2.14,2.14,0,0,0-2.113,1.8l-.771,4.851a19.545,19.545,0,0,0-3.382,1.4l-3.977-2.887a2.14,2.14,0,0,0-2.77.219L216.839,61.7a2.139,2.139,0,0,0-.219,2.77l2.887,3.977a19.562,19.562,0,0,0-1.4,3.382l-4.851.771a2.14,2.14,0,0,0-1.8,2.113v5.842a2.14,2.14,0,0,0,1.8,2.113l4.851.771a19.547,19.547,0,0,0,1.4,3.382L216.621,90.8a2.14,2.14,0,0,0,.219,2.77L220.97,97.7a2.14,2.14,0,0,0,2.77.219l3.977-2.887a19.547,19.547,0,0,0,3.382,1.4l.771,4.851a2.14,2.14,0,0,0,2.113,1.8h5.842a2.14,2.14,0,0,0,2.113-1.8l.771-4.852a19.561,19.561,0,0,0,3.382-1.4l3.977,2.887a2.14,2.14,0,0,0,2.77-.219l4.131-4.131a2.14,2.14,0,0,0,.219-2.77L254.3,86.82a19.526,19.526,0,0,0,1.4-3.382l4.851-.771a2.14,2.14,0,0,0,1.8-2.113V74.712A2.14,2.14,0,0,0,260.555,72.6Zm-13.368,5.035A10.283,10.283,0,1,1,236.9,67.349,10.283,10.283,0,0,1,247.187,77.634Z" transform="translate(-211.449 -52.178)" fill="#a0f0cb"/>
                <path id="Trazado_984452" data-name="Trazado 984452" d="M226.622,102.793a10.268,10.268,0,0,1,4.21-8.3A27.18,27.18,0,0,0,219.778,83.92l-2.939,2.939a2.14,2.14,0,0,0-.218,2.771l2.887,3.977a19.447,19.447,0,0,0-1.4,3.38l-4.851.771a2.141,2.141,0,0,0-1.8,2.113v5.842a2.14,2.14,0,0,0,1.8,2.113l4.851.771a19.535,19.535,0,0,0,1.4,3.382l-2.887,3.975a2.14,2.14,0,0,0,.218,2.771l4.131,4.131a2.14,2.14,0,0,0,2.771.22l3.977-2.887a19.61,19.61,0,0,0,3.077,1.3,26.825,26.825,0,0,0,3.212-8.834,10.285,10.285,0,0,1-7.387-9.867Z" transform="translate(-211.45 -77.337)" fill="#8383ff"/>
                <path id="Trazado_984453" data-name="Trazado 984453" d="M255.166,116.977l-.857-5.394q.693.064,1.4.064t1.4-.064l-.857,5.394Zm10.254-8.84a15.352,15.352,0,0,0,1.986-1.986l3.212,4.426-.773.773Zm-24.613,2.439,3.212-4.425a15.359,15.359,0,0,0,1.986,1.986l-4.425,3.212Zm-5.628-13.586V95.9l5.394-.857q-.064.694-.064,1.4t.064,1.4Zm35.674.857q.064-.693.064-1.4t-.064-1.4l5.394.857v1.093Zm-3.447-11.111a15.346,15.346,0,0,0-1.986-1.986l4.426-3.212.773.773Zm-26.6-4.426.773-.773,4.426,3.212a15.336,15.336,0,0,0-1.986,1.987Zm16.31-1.007q-.694-.064-1.4-.064t-1.4.064l.857-5.393h1.093Z" transform="translate(-230.258 -70.988)" fill="#fff"/>
              </g>
              <g id="Grupo_1149798" data-name="Grupo 1149798" transform="translate(1.037 1.036)">
                <path id="Trazado_984454" data-name="Trazado 984454" d="M168.806,427.1a8.116,8.116,0,1,1-16.231,0Z" transform="translate(-133.631 -347.942)" fill="#fff"/>
                <path id="Trazado_984455" data-name="Trazado 984455" d="M87.883,45.387a27.059,27.059,0,0,0-19.8,45.061,52.771,52.771,0,0,1,12.212,23.317H96.272A52.456,52.456,0,0,1,108.446,90.49a27.059,27.059,0,0,0-20.564-45.1Z" transform="translate(-61.224 -45.384)" fill="#fff"/>
                <path id="Trazado_984456" data-name="Trazado 984456" d="M145.838,150.632c0,10.332-7.277,23.813-16.254,23.813s-16.254-13.481-16.254-23.813,7.277-13.6,16.254-13.6,16.254,3.271,16.254,13.6Z" transform="translate(-102.524 -118.023)" fill="#15da7e"/>
                <g id="Grupo_1149794" data-name="Grupo 1149794" transform="translate(19.34 38.534)">
                  <path id="Trazado_984457" data-name="Trazado 984457" d="M169.176,231.249a1.07,1.07,0,0,0-1.342.7q-.234.741-.443,1.509l-1.7-1.228a1.071,1.071,0,0,0-1.268.013l-2.227,1.674-2.341-1.687a1.071,1.071,0,0,0-1.268.013l-1.573,1.182q-.205-.75-.434-1.476a1.07,1.07,0,1,0-2.04.644c3.022,9.568,2.739,23.423,2.736,23.562a1.07,1.07,0,0,0,1.045,1.094h.025a1.07,1.07,0,0,0,1.069-1.045,105.454,105.454,0,0,0-.994-15.869l.822-.618,2.342,1.688a1.07,1.07,0,0,0,1.269-.013l2.227-1.675.913.659A105.49,105.49,0,0,0,165,256.2a1.07,1.07,0,0,0,1.069,1.045h.026a1.07,1.07,0,0,0,1.045-1.095c0-.139-.288-13.987,2.736-23.562A1.07,1.07,0,0,0,169.176,231.249Zm-3.49,6.271a1.071,1.071,0,0,0-1.269.013l-2.227,1.675-2.341-1.688a1.07,1.07,0,0,0-1.269.013l-.556.418c-.139-.762-.291-1.521-.458-2.271l1.671-1.256,2.341,1.687a1.07,1.07,0,0,0,1.268-.013l2.227-1.674,1.764,1.271c-.17.766-.325,1.541-.466,2.32Z" transform="translate(-154.485 -231.199)" fill="#0b7744"/>
                </g>
                <g id="Grupo_1149797" data-name="Grupo 1149797" transform="translate(15.916 63.754)">
                  <path id="Trazado_984458" data-name="Trazado 984458" d="M157.868,369.739h-17.5a2.393,2.393,0,0,1-2.393-2.393V355.209a2.393,2.393,0,0,1,2.393-2.393h17.5a2.393,2.393,0,0,1,2.393,2.393v12.137A2.393,2.393,0,0,1,157.868,369.739Z" transform="translate(-137.975 -352.816)" fill="#15da7e"/>
                  <g id="Grupo_1149796" data-name="Grupo 1149796" transform="translate(0 3.669)">
                    <g id="Grupo_1149795" data-name="Grupo 1149795">
                      <path id="Trazado_984459" data-name="Trazado 984459" d="M137.976,370.507h22.287v3.019H137.976Z" transform="translate(-137.976 -370.507)" fill="#fff"/>
                    </g>
                    <path id="Trazado_984460" data-name="Trazado 984460" d="M137.976,400.171h22.287v3.019H137.976Z" transform="translate(-137.976 -394.019)" fill="#fff"/>
                  </g>
                </g>
              </g>
              <g id="Grupo_1149799" data-name="Grupo 1149799">
                <path id="Trazado_984461" data-name="Trazado 984461" d="M137.682,62.229l-4.226-.672a20.743,20.743,0,0,0-.979-2.36l2.514-3.464a3.164,3.164,0,0,0-.326-4.112l-4.131-4.131a3.16,3.16,0,0,0-4.111-.326l-3.464,2.516A20.613,20.613,0,0,0,120.6,48.7l-.672-4.223a3.16,3.16,0,0,0-3.137-2.68h-5.842a3.164,3.164,0,0,0-3.137,2.678l-.672,4.225a20.778,20.778,0,0,0-2.067.84q-.5-.545-1.028-1.068a28.1,28.1,0,0,0-40.7,38.706,52.217,52.217,0,0,1,10.414,17.485,3.427,3.427,0,0,0-1.62,2.908v12.137a3.433,3.433,0,0,0,3.389,3.428,9.154,9.154,0,0,0,17.582,0,3.433,3.433,0,0,0,3.389-3.428V107.57a3.427,3.427,0,0,0-1.623-2.91,51.732,51.732,0,0,1,10.379-17.44l.062-.071c.6.272,1.206.516,1.82.727l.672,4.225a3.164,3.164,0,0,0,3.137,2.678h5.842a3.16,3.16,0,0,0,3.137-2.678l.672-4.224a20.734,20.734,0,0,0,2.362-.981l3.464,2.515a3.16,3.16,0,0,0,4.111-.325l4.131-4.131a3.164,3.164,0,0,0,.326-4.113l-2.514-3.462a20.827,20.827,0,0,0,.98-2.362l4.225-.672a3.159,3.159,0,0,0,2.678-3.137V65.366a3.164,3.164,0,0,0-2.677-3.137ZM94.425,119.707a1.358,1.358,0,0,1-1.356,1.356H87.22a1.037,1.037,0,0,0,0,2.074h3.7a7.083,7.083,0,0,1-13.209,0h3.531a1.037,1.037,0,1,0,0-2.074H75.569a1.358,1.358,0,0,1-1.356-1.356V107.571a1.358,1.358,0,0,1,1.356-1.356h17.5a1.358,1.358,0,0,1,1.356,1.356v12.137Zm-1.563-15.567H75.773A54.258,54.258,0,0,0,64.892,85.8a26.024,26.024,0,1,1,38.818.04,53.775,53.775,0,0,0-10.848,18.3Zm45.423-32.933a1.1,1.1,0,0,1-.928,1.089l-4.853.771a1.037,1.037,0,0,0-.828.719,18.709,18.709,0,0,1-1.328,3.2,1.037,1.037,0,0,0,.078,1.093l2.886,3.975a1.1,1.1,0,0,1-.113,1.429l-4.131,4.131a1.1,1.1,0,0,1-1.426.114l-3.977-2.889a1.036,1.036,0,0,0-1.094-.078,18.562,18.562,0,0,1-3.2,1.33,1.037,1.037,0,0,0-.719.828l-.772,4.852a1.1,1.1,0,0,1-1.089.929h-5.842a1.1,1.1,0,0,1-1.089-.93l-.771-4.851a1.037,1.037,0,0,0-.719-.828c-.564-.174-1.125-.381-1.679-.613a28.038,28.038,0,0,0,3.668-6.433,11.32,11.32,0,1,0,4.869-22,1.037,1.037,0,0,0-.247,2.059,9.246,9.246,0,1,1-3.915,17.99,28.116,28.116,0,0,0-4.6-25.912,18.465,18.465,0,0,1,1.9-.709,1.037,1.037,0,0,0,.718-.828l.771-4.85a1.1,1.1,0,0,1,1.089-.931h5.842a1.1,1.1,0,0,1,1.089.93l.771,4.851a1.037,1.037,0,0,0,.719.828,18.542,18.542,0,0,1,3.2,1.33,1.037,1.037,0,0,0,1.094-.078l3.978-2.889a1.1,1.1,0,0,1,1.426.114l4.131,4.131a1.1,1.1,0,0,1,.114,1.428l-2.887,3.977a1.038,1.038,0,0,0-.078,1.093,18.6,18.6,0,0,1,1.328,3.2,1.037,1.037,0,0,0,.828.719l4.852.771a1.1,1.1,0,0,1,.929,1.089Z" transform="translate(-56.222 -40.387)" fill="#0b7744"/>
                <path id="Trazado_984462" data-name="Trazado 984462" d="M272.9,323.175h3.854a1.037,1.037,0,0,0,0-2.074H272.9a1.037,1.037,0,0,0,0,2.074Z" transform="translate(-227.148 -262.887)" fill="#0b7744"/>
                <path id="Trazado_984463" data-name="Trazado 984463" d="M285.053,341.482H272.9a1.037,1.037,0,1,0,0,2.074h12.149a1.037,1.037,0,1,0,0-2.074Z" transform="translate(-227.147 -279.042)" fill="#0b7744"/>
                <path id="Trazado_984464" data-name="Trazado 984464" d="M285.053,361.864H272.9a1.037,1.037,0,1,0,0,2.074h12.149a1.037,1.037,0,1,0,0-2.074Z" transform="translate(-227.147 -295.197)" fill="#0b7744"/>
              </g>
            </g>
          </g>
          <g id="Grupo_1149807" data-name="Grupo 1149807">
            <g id="Grupo_1149802" data-name="Grupo 1149802" transform="translate(3.315 63.122)">
              <path id="Trazado_984465" data-name="Trazado 984465" d="M66.6,343.257a1.037,1.037,0,0,1-1.037-1.037,1.315,1.315,0,0,0-1.313-1.313,1.037,1.037,0,0,1,0-2.074,1.315,1.315,0,0,0,1.313-1.313,1.037,1.037,0,1,1,2.074,0,1.315,1.315,0,0,0,1.313,1.313,1.037,1.037,0,1,1,0,2.074,1.315,1.315,0,0,0-1.313,1.313A1.037,1.037,0,0,1,66.6,343.257Z" transform="translate(-63.211 -336.483)" fill="#15da7e"/>
            </g>
            <g id="Grupo_1149803" data-name="Grupo 1149803" transform="translate(68.431 58.14)">
              <path id="Trazado_984466" data-name="Trazado 984466" d="M380.6,319.23a1.037,1.037,0,0,1-1.037-1.037,1.315,1.315,0,0,0-1.313-1.313,1.037,1.037,0,1,1,0-2.074,1.315,1.315,0,0,0,1.313-1.313,1.037,1.037,0,0,1,2.074,0,1.315,1.315,0,0,0,1.313,1.313,1.037,1.037,0,1,1,0,2.074,1.315,1.315,0,0,0-1.313,1.313A1.037,1.037,0,0,1,380.6,319.23Z" transform="translate(-377.208 -312.456)" fill="#15da7e"/>
            </g>
            <g id="Grupo_1149804" data-name="Grupo 1149804" transform="translate(67.809)">
              <path id="Trazado_984467" data-name="Trazado 984467" d="M378.978,36.038a1.034,1.034,0,0,1-.733-.3L377.112,34.6l-1.133,1.133a1.037,1.037,0,0,1-1.466-1.466l1.866-1.866a1.037,1.037,0,0,1,1.466,0l1.866,1.866a1.037,1.037,0,0,1-.733,1.77Z" transform="translate(-374.208 -32.098)" fill="#15da7e"/>
            </g>
            <g id="Grupo_1149805" data-name="Grupo 1149805" transform="translate(76.312 66.155)">
              <path id="Trazado_984468" data-name="Trazado 984468" d="M419.979,355.049a1.034,1.034,0,0,1-.733-.3l-1.133-1.133-1.133,1.133a1.037,1.037,0,1,1-1.466-1.466l1.866-1.866a1.037,1.037,0,0,1,1.466,0l1.866,1.866a1.037,1.037,0,0,1-.733,1.77Z" transform="translate(-415.209 -351.109)" fill="#15da7e"/>
            </g>
            <g id="Grupo_1149806" data-name="Grupo 1149806" transform="translate(0 52.344)">
              <path id="Trazado_984469" data-name="Trazado 984469" d="M51.993,288.447a1.034,1.034,0,0,1-.733-.3l-1.133-1.133-1.133,1.133a1.037,1.037,0,0,1-1.466-1.466l1.866-1.866a1.037,1.037,0,0,1,1.466,0l1.866,1.866a1.037,1.037,0,0,1-.733,1.77Z" transform="translate(-47.223 -284.507)" fill="#15da7e"/>
            </g>
          </g>
        </g>
        <g id="Grupo_1149809" data-name="Grupo 1149809" transform="translate(24.857 30.422)">
          <circle id="Elipse_11675" data-name="Elipse 11675" cx="1.037" cy="1.037" r="1.037" fill="#fff"/>
          <circle id="Elipse_11676" data-name="Elipse 11676" cx="1.037" cy="1.037" r="1.037" transform="translate(4.069)" fill="#fff"/>
          <circle id="Elipse_11677" data-name="Elipse 11677" cx="1.037" cy="1.037" r="1.037" transform="translate(8.139)" fill="#fff"/>
        </g>
      </g>
    </g>
  </g>
</svg>
