<svg xmlns="http://www.w3.org/2000/svg" xmlns:xlink="http://www.w3.org/1999/xlink" width="108" height="108" viewBox="0 0 108 108">
  <defs>
    <filter id="Trazado_982547" x="0" y="0" width="108" height="108" filterUnits="userSpaceOnUse">
      <feOffset dy="3" input="SourceAlpha"/>
      <feGaussianBlur stdDeviation="3" result="blur"/>
      <feFlood flood-opacity="0.161"/>
      <feComposite operator="in" in2="blur"/>
      <feComposite in="SourceGraphic"/>
    </filter>
  </defs>
  <g id="Grupo_1149835" data-name="Grupo 1149835" transform="translate(-274 -4859)">
    <g id="Grupo_1149673" data-name="Grupo 1149673" transform="translate(-52 -2821)">
      <g id="Grupo_1148532" data-name="Grupo 1148532" transform="translate(51 4253)">
        <g id="Grupo_1147065" data-name="Grupo 1147065" transform="translate(-341 -556)">
          <g transform="matrix(1, 0, 0, 1, 616, 3983)" filter="url(#Trazado_982547)">
            <g id="Trazado_982547-2" data-name="Trazado 982547" transform="translate(9 6)" fill="#f6f9fc">
              <path d="M 45 88.5 C 39.12687683105469 88.5 33.43022537231445 87.35007476806641 28.06830024719238 85.08217620849609 C 22.88852500915527 82.89131164550781 18.23629951477051 79.75458526611328 14.2408504486084 75.75914764404297 C 10.24541282653809 71.76370239257812 7.108687400817871 67.11147308349609 4.917825222015381 61.93170166015625 C 2.649924993515015 56.56977462768555 1.5 50.87312316894531 1.5 45 C 1.5 39.12687683105469 2.649924993515015 33.43022537231445 4.917825222015381 28.06830024719238 C 7.108687400817871 22.88852500915527 10.24541282653809 18.23629951477051 14.2408504486084 14.2408504486084 C 18.23629951477051 10.24541282653809 22.88852500915527 7.108687400817871 28.06830024719238 4.917825222015381 C 33.43022537231445 2.649924993515015 39.12687683105469 1.5 45 1.5 C 50.87312316894531 1.5 56.56977462768555 2.649924993515015 61.93170166015625 4.917825222015381 C 67.11147308349609 7.108687400817871 71.76370239257812 10.24541282653809 75.75914764404297 14.2408504486084 C 79.75458526611328 18.23629951477051 82.89131164550781 22.88852500915527 85.08217620849609 28.06830024719238 C 87.35007476806641 33.43022537231445 88.5 39.12687683105469 88.5 45 C 88.5 50.87312316894531 87.35007476806641 56.56977462768555 85.08217620849609 61.93170166015625 C 82.89131164550781 67.11147308349609 79.75458526611328 71.76370239257812 75.75914764404297 75.75914764404297 C 71.76370239257812 79.75458526611328 67.11147308349609 82.89131164550781 61.93170166015625 85.08217620849609 C 56.56977462768555 87.35007476806641 50.87312316894531 88.5 45 88.5 Z" stroke="none"/>
              <path d="M 45 3 C 39.32871246337891 3 33.82865524291992 4.110054016113281 28.65262985229492 6.299339294433594 C 23.65165710449219 8.414573669433594 19.15968322753906 11.44334411621094 15.301513671875 15.301513671875 C 11.44334411621094 19.15968322753906 8.414573669433594 23.65165710449219 6.299339294433594 28.65262985229492 C 4.110054016113281 33.82865524291992 3 39.32871246337891 3 45 C 3 50.67128753662109 4.110054016113281 56.17134475708008 6.299339294433594 61.34737396240234 C 8.414573669433594 66.34834289550781 11.44334411621094 70.84031677246094 15.301513671875 74.698486328125 C 19.15968322753906 78.55665588378906 23.65165710449219 81.58542633056641 28.65262985229492 83.70066070556641 C 33.82865524291992 85.88994598388672 39.32871246337891 87 45 87 C 50.67128753662109 87 56.17134475708008 85.88994598388672 61.34737396240234 83.70066070556641 C 66.34834289550781 81.58542633056641 70.84031677246094 78.55665588378906 74.698486328125 74.698486328125 C 78.55665588378906 70.84031677246094 81.58542633056641 66.34834289550781 83.70066070556641 61.34737396240234 C 85.88994598388672 56.17134475708008 87 50.67128753662109 87 45 C 87 39.32871246337891 85.88994598388672 33.82865524291992 83.70066070556641 28.65262985229492 C 81.58542633056641 23.65165710449219 78.55665588378906 19.15968322753906 74.698486328125 15.301513671875 C 70.84031677246094 11.44334411621094 66.34834289550781 8.414573669433594 61.34737396240234 6.299339294433594 C 56.17134475708008 4.110054016113281 50.67128753662109 3 45 3 M 45 0 C 69.85281372070312 0 90 20.14718627929688 90 45 C 90 69.85281372070312 69.85281372070312 90 45 90 C 20.14718627929688 90 0 69.85281372070312 0 45 C 0 20.14718627929688 20.14718627929688 0 45 0 Z" stroke="none" fill="#a530fe"/>
            </g>
          </g>
        </g>
      </g>
    </g>
    <g id="educacion-en-linea" transform="translate(298 4882.001)">
      <path id="Trazado_984494" data-name="Trazado 984494" d="M288,401.233h20.329a1.847,1.847,0,0,0,1.848-1.848V393.84a1.848,1.848,0,0,0-1.848-1.848H288Zm0,0" transform="translate(-254.734 -346.715)" fill="#33c0db"/>
      <path id="Trazado_984495" data-name="Trazado 984495" d="M50.506,121.741a21.253,21.253,0,1,0-42.506,0c0,.069.008.134.009.2s-.009.134-.009.2a21.253,21.253,0,0,0,42.506,0c0-.068-.009-.134-.009-.2S50.506,121.81,50.506,121.741Zm0,0" transform="translate(-7.076 -88.882)" fill="#33c0db"/>
      <path id="Trazado_984496" data-name="Trazado 984496" d="M120.72,309.536v4.62a.924.924,0,0,1-.924.924h-1.354a.924.924,0,0,1-.769-.411l-1.3-1.949a.924.924,0,0,0-.769-.412h-1.611a.925.925,0,0,0-.877.632l-2.75,8.251a21.244,21.244,0,0,0,24.214-3.787V310.46a.925.925,0,0,0-.924-.924h-3.2a.924.924,0,0,1-.769-.411l-3.148-4.721a.924.924,0,0,0-.769-.412h-4.126a.925.925,0,0,0-.924.924v2.772" transform="translate(-97.619 -268.88)" fill="#fcb641"/>
      <path id="Trazado_984497" data-name="Trazado 984497" d="M162.8,100.958l2.377-.244A21.205,21.205,0,0,0,162.8,100.958Zm0,0" transform="translate(-143.997 -89.082)" fill="#33c0db"/>
      <path id="Trazado_984498" data-name="Trazado 984498" d="M95.259,102.959a20.787,20.787,0,0,0-7.329,3.324,21.127,21.127,0,0,1,8.648-3.459Zm0,0" transform="translate(-77.774 -90.948)" fill="#33c0db"/>
      <path id="Trazado_984499" data-name="Trazado 984499" d="M72.533,113.713a.922.922,0,0,0,.826.511h2.2a.925.925,0,0,1,.924.924v4.62a.924.924,0,0,0,.924.924h5.859a.922.922,0,0,0,.849-.56l2.292-5.348a.923.923,0,0,1,.849-.56h4.011a.924.924,0,0,0,.924-.924v-6.908a21.853,21.853,0,0,0-7.392-1.279c-.333,0-.666.009-1,.024l-2.377.236A20.369,20.369,0,0,0,70.8,110.252Zm0,0" transform="translate(-62.623 -92.973)" fill="#fcb641"/>
      <path id="Trazado_984500" data-name="Trazado 984500" d="M44.354,122.333a22.129,22.129,0,0,0-5.734-14.881l-1.369,1.241a20.309,20.309,0,0,1,.635,26.529V130.65a1.85,1.85,0,0,0-1.848-1.848h-3.2l-3.148-4.721a1.845,1.845,0,0,0-1.538-.823H24.025a1.85,1.85,0,0,0-1.848,1.848v2.772h1.848v-2.772h4.126l3.148,4.721a1.845,1.845,0,0,0,1.538.823h3.2v6.536l-.118.113c-.37.341-.754.663-1.146.973-.118.093-.235.188-.355.279-.383.29-.775.562-1.175.823-.141.092-.283.185-.427.274-.4.245-.8.474-1.215.69-.153.08-.307.16-.462.237q-.633.312-1.287.579c-.149.061-.3.119-.448.176-.458.175-.922.335-1.392.475-.128.039-.257.074-.385.11-.5.139-1.007.262-1.519.363-.1.019-.2.035-.295.052-.547.1-1.1.18-1.655.234-.059.006-.118.009-.177.014-.6.051-1.2.083-1.8.083-.352,0-.7-.009-1.053-.027-.278-.014-.554-.038-.83-.063-.066-.007-.134-.009-.2-.016-.318-.032-.633-.074-.946-.121l-.068-.009c-.31-.047-.616-.1-.92-.164l-.085-.016c-.287-.059-.569-.127-.852-.2l-.148-.036c-.254-.066-.505-.139-.756-.215l-.243-.072c-.222-.07-.441-.146-.66-.224-.11-.039-.22-.077-.329-.117-.195-.073-.388-.151-.58-.229-.13-.054-.26-.106-.389-.162-.079-.034-.155-.07-.233-.106l2.49-7.466h1.611l1.3,1.949a1.845,1.845,0,0,0,1.538.823h1.354a1.85,1.85,0,0,0,1.848-1.848v-4.62H22.177v4.62H20.824l-1.3-1.949a1.845,1.845,0,0,0-1.538-.823H16.375a1.844,1.844,0,0,0-1.752,1.263l-2.4,7.21a20.254,20.254,0,0,1-4.3-32.142l1.16,2.318a1.835,1.835,0,0,0,1.653,1.022h2.2v4.62a1.85,1.85,0,0,0,1.848,1.848h5.859a1.845,1.845,0,0,0,1.7-1.12l2.292-5.348h4.011a1.85,1.85,0,0,0,1.848-1.848v-1.848H28.646V109.4H24.634a1.845,1.845,0,0,0-1.7,1.12l-2.292,5.348H14.785v-4.62a1.85,1.85,0,0,0-1.848-1.848h-2.2l-1.39-2.778a20.345,20.345,0,0,1,3.351-2.256c.081-.042.162-.086.244-.128.46-.236.928-.46,1.408-.662.048-.02.1-.037.147-.056.416-.171.841-.325,1.271-.468.154-.052.31-.1.466-.149.444-.137.895-.263,1.352-.368.035-.009.07-.019.106-.027l-.135-.6-.272-1.207c-.03.006-.058.017-.088.024-.515.118-1.024.26-1.529.416-.18.055-.357.116-.534.175-.393.132-.782.276-1.167.43-.14.056-.282.108-.421.167q-.791.335-1.556.732l-.069.037c-.527.276-1.042.578-1.548.9l-.026.017a22.28,22.28,0,0,0-2.777,2.061.851.851,0,0,0-.105.129,22.13,22.13,0,0,0,4.84,36.4c.013.007.021.019.034.026.052.026.1.047.156.072.186.09.374.174.563.259.314.143.63.276.948.4.19.076.379.154.571.225.222.081.446.153.67.227.143.047.286.1.43.141.231.071.465.135.7.2.141.038.282.077.424.113.234.058.469.113.7.163q.225.048.45.091c.229.045.457.086.688.123.171.028.344.051.517.074.213.028.424.058.638.081s.442.04.664.056c.171.013.341.03.513.039.4.022.8.034,1.206.034.691,0,1.373-.036,2.048-.1l.149-.011c.638-.063,1.268-.158,1.889-.274.092-.017.183-.031.273-.049.585-.117,1.16-.262,1.727-.423.129-.037.258-.071.385-.11.532-.162,1.055-.348,1.57-.55.156-.061.313-.12.467-.185.49-.2.968-.429,1.44-.666.167-.084.333-.167.5-.256.46-.247.909-.513,1.35-.79.158-.1.315-.2.47-.3.445-.3.877-.612,1.3-.939.135-.1.27-.208.4-.316.43-.35.846-.719,1.249-1.1.067-.064.141-.118.208-.184.013-.013.018-.031.031-.045a22.107,22.107,0,0,0,6.719-15.88Zm0,0" transform="translate(0 -89.069)"/>
      <path id="Trazado_984501" data-name="Trazado 984501" d="M57.694,275.217l-1.008-1.007a.925.925,0,0,0-.878-.243l-2.557.639a.925.925,0,0,1-.994-.384L51.046,272.4a.921.921,0,0,0-.768-.412H48.924a.925.925,0,0,0-.924.924v2.39a.922.922,0,0,0,.271.653l3.155,3.154a.923.923,0,0,0,.653.271h3.666a.922.922,0,0,0,.826-.511l1.294-2.59a.922.922,0,0,0-.172-1.066Zm0,0" transform="translate(-42.456 -240.576)" fill="#fcb641"/>
      <path id="Trazado_984502" data-name="Trazado 984502" d="M48.67,273.233H45a1.858,1.858,0,0,1-1.307-.541l-3.155-3.155A1.835,1.835,0,0,1,40,268.23v-2.39a1.85,1.85,0,0,1,1.848-1.848H43.2a1.845,1.845,0,0,1,1.538.823l1.212,1.819,2.558-.64a1.855,1.855,0,0,1,1.755.487l1.006,1.006a1.846,1.846,0,0,1,.347,2.134l-1.294,2.59a1.836,1.836,0,0,1-1.653,1.021Zm-6.821-7.392v2.39L45,271.384H48.67l1.295-2.59-1.008-1.007-2.558.639a1.852,1.852,0,0,1-1.985-.768L43.2,265.84Zm0,0" transform="translate(-35.38 -233.5)"/>
      <path id="Trazado_984503" data-name="Trazado 984503" d="M265.263,227.347l-1.421-2.843a.925.925,0,0,0-.827-.511h-1.921a.922.922,0,0,0-.513.156l-1.861,1.24a.924.924,0,0,0-.314,1.182l1.363,2.726a.926.926,0,0,0,.351.379l4.17,2.5a.922.922,0,0,0,.476.132h2.516a.924.924,0,0,0,.924-.924v-2.106a.923.923,0,0,0-.632-.877l-1.777-.592a.923.923,0,0,1-.534-.463Zm0,0" transform="translate(-228.472 -198.12)" fill="#fcb641"/>
      <path id="Trazado_984504" data-name="Trazado 984504" d="M260.205,226.156h-2.516a1.851,1.851,0,0,1-.951-.263l-4.17-2.5a1.852,1.852,0,0,1-.7-.758l-1.364-2.726a1.851,1.851,0,0,1,.629-2.365l1.861-1.24a1.839,1.839,0,0,1,1.025-.311h1.921a1.836,1.836,0,0,1,1.653,1.022l1.42,2.84,0,0,1.777.592a1.847,1.847,0,0,1,1.264,1.754v2.106A1.85,1.85,0,0,1,260.205,226.156Zm-4.267-8.316h-1.921l-1.861,1.24,1.364,2.726,4.169,2.5h2.516V222.2l-1.778-.592a1.839,1.839,0,0,1-1.068-.925h0Zm0,0" transform="translate(-221.395 -191.044)"/>
      <path id="Trazado_984505" data-name="Trazado 984505" d="M224,63.665l9.241,3.192,9.241-3.192V57.617l-3.472-1.033a20.324,20.324,0,0,0-11.684.027L224,57.617Zm0,0" transform="translate(-198.127 -49.302)" fill="#9c9792"/>
      <path id="Trazado_984506" data-name="Trazado 984506" d="M155.405,7.992,136,15.385,146.165,20v-4.62l3.4-1.02a20.331,20.331,0,0,1,11.682,0l3.4,1.02V20l10.165-4.62Zm0,0" transform="translate(-120.291 -7.07)" fill="#706d69"/>
      <path id="Trazado_984507" data-name="Trazado 984507" d="M456,132.612V129.84a1.848,1.848,0,1,1,3.7,0v2.772" transform="translate(-403.329 -113.209)" fill="#9bc53d"/>
      <path id="Trazado_984508" data-name="Trazado 984508" d="M453.544,125.536H451.7v-2.772a.924.924,0,0,0-1.848,0v2.772H448v-2.772a2.772,2.772,0,1,1,5.544,0Zm0,0" transform="translate(-396.253 -106.133)"/>
      <path id="Trazado_984509" data-name="Trazado 984509" d="M464,191.992h1.848v2.772H464Zm0,0" transform="translate(-410.405 -169.817)"/>
      <path id="Trazado_984510" data-name="Trazado 984510" d="M483.086,182.507l1.6-.924,1.386,2.4-1.6.924Zm0,0" transform="translate(-427.287 -160.609)"/>
      <path id="Trazado_984511" data-name="Trazado 984511" d="M435.07,183.987l1.386-2.4,1.6.924-1.386,2.4Zm0,0" transform="translate(-384.817 -160.612)"/>
      <path id="Trazado_984512" data-name="Trazado 984512" d="M168.65,8.315c0-.01,0-.019,0-.028a.922.922,0,0,0-.594-.834L148.654.06a.926.926,0,0,0-.659,0L128.59,7.452a.924.924,0,0,0-.054,1.7l9.624,4.374v.834a.925.925,0,0,0,.623.873l9.241,3.193a.93.93,0,0,0,.3.05.907.907,0,0,0,.3-.051l9.241-3.193a.923.923,0,0,0,.623-.873v-.834l8.316-3.78v3.186h1.848V8.315ZM156.642,13.7l-8.316,2.873L140.009,13.7V9l2.741-.823a19.38,19.38,0,0,1,4.164-.768c.059,0,.118,0,.177-.007.1-.006.209-.006.314-.011l0,6.465h1.848l0-6.465.156.005c.086,0,.172,0,.258.009a19.463,19.463,0,0,1,4.164.76L156.642,9Zm1.848-2.2V8.315a.924.924,0,0,0-.048-.294,1,1,0,0,0-.09-.172.865.865,0,0,0-.046-.086.87.87,0,0,0-.134-.13,1.043,1.043,0,0,0-.075-.073.9.9,0,0,0-.122-.059,1,1,0,0,0-.145-.071l-3.4-1.02a21.319,21.319,0,0,0-4.641-.845l-.042,0c-.473-.031-.947-.051-1.422-.051l-.046,0c-.331,0-.661.02-.991.036-.173.008-.347.007-.519.02a21.251,21.251,0,0,0-4.627.855l-3.291,1-.032.009h0a.9.9,0,0,0-.212.1c-.017.01-.038.015-.054.026a.922.922,0,0,0-.392.754V11.5l-6.842-3.11,17.006-6.479L165.331,8.39Zm0,0" transform="translate(-113.212 0)"/>
      <path id="Trazado_984513" data-name="Trazado 984513" d="M392,247.992h9.241a1.848,1.848,0,0,1,1.848,1.848v5.544a1.847,1.847,0,0,1-1.848,1.848H392Zm0,0" transform="translate(-346.722 -219.348)" fill="#fcb641"/>
      <path id="Trazado_984514" data-name="Trazado 984514" d="M408,391.992h3.7v9.241H408Zm0,0" transform="translate(-360.873 -346.715)" fill="#c7ebf2"/>
      <path id="Trazado_984515" data-name="Trazado 984515" d="M392,327.992h11.089a1.848,1.848,0,0,1,1.848,1.848v3.7a1.847,1.847,0,0,1-1.848,1.848H392Zm0,0" transform="translate(-346.722 -290.108)" fill="#9bc53d"/>
      <path id="Trazado_984516" data-name="Trazado 984516" d="M432,327.992h3.7v7.392H432Zm0,0" transform="translate(-382.101 -290.108)" fill="#c5d998"/>
      <path id="Trazado_984517" data-name="Trazado 984517" d="M408,247.992h3.7v9.241H408Zm0,0" transform="translate(-360.873 -219.348)" fill="#fce0b0"/>
      <path id="Trazado_984518" data-name="Trazado 984518" d="M311.822,249.34a2.756,2.756,0,0,0,.2-1.031v-5.544a2.776,2.776,0,0,0-2.772-2.772h-9.241v1.848h.924v7.392h-.924v1.848h3.7v5.544H297.24v1.848h3.7v7.392H288v1.848h20.329a2.775,2.775,0,0,0,2.772-2.772V259.4a2.737,2.737,0,0,0-.17-.924h.17a2.775,2.775,0,0,0,2.772-2.772V252A2.767,2.767,0,0,0,311.822,249.34Zm-1.645-6.576v5.544a.925.925,0,0,1-.924.924h-2.772V241.84h2.772A.925.925,0,0,1,310.177,242.764Zm-7.392-.924h1.848v7.392h-1.848Zm2.772,9.241H307.4v5.544h-1.848Zm-2.772,14.785v-7.392h1.848v7.392Zm6.468-6.468v5.544a.925.925,0,0,1-.924.924h-1.848v-7.392h1.848A.925.925,0,0,1,309.253,259.4Zm2.772-3.7a.925.925,0,0,1-.924.924h-1.848v-5.544H311.1a.925.925,0,0,1,.924.924Zm0,0" transform="translate(-254.734 -212.273)"/>
    </g>
  </g>
</svg>
