<svg xmlns="http://www.w3.org/2000/svg" xmlns:xlink="http://www.w3.org/1999/xlink" width="108" height="108" viewBox="0 0 108 108">
  <defs>
    <filter id="Trazado_982547" x="0" y="0" width="108" height="108" filterUnits="userSpaceOnUse">
      <feOffset dy="3" input="SourceAlpha"/>
      <feGaussianBlur stdDeviation="3" result="blur"/>
      <feFlood flood-opacity="0.161"/>
      <feComposite operator="in" in2="blur"/>
      <feComposite in="SourceGraphic"/>
    </filter>
  </defs>
  <g id="Grupo_1149837" data-name="Grupo 1149837" transform="translate(-903 -4859)">
    <g id="Grupo_1149675" data-name="Grupo 1149675" transform="translate(157 -2821)">
      <g id="Grupo_1148534" data-name="Grupo 1148534" transform="translate(156 4253)">
        <g id="Grupo_1147066" data-name="Grupo 1147066" transform="translate(-26 -556)">
          <g transform="matrix(1, 0, 0, 1, 616, 3983)" filter="url(#Trazado_982547)">
            <g id="Trazado_982547-2" data-name="Trazado 982547" transform="translate(9 6)" fill="#f6f9fc">
              <path d="M 45 88.5 C 39.12687683105469 88.5 33.43022537231445 87.35007476806641 28.06830024719238 85.08217620849609 C 22.88852500915527 82.89131164550781 18.23629951477051 79.75458526611328 14.2408504486084 75.75914764404297 C 10.24541282653809 71.76370239257812 7.108687400817871 67.11147308349609 4.917825222015381 61.93170166015625 C 2.649924993515015 56.56977462768555 1.5 50.87312316894531 1.5 45 C 1.5 39.12687683105469 2.649924993515015 33.43022537231445 4.917825222015381 28.06830024719238 C 7.108687400817871 22.88852500915527 10.24541282653809 18.23629951477051 14.2408504486084 14.2408504486084 C 18.23629951477051 10.24541282653809 22.88852500915527 7.108687400817871 28.06830024719238 4.917825222015381 C 33.43022537231445 2.649924993515015 39.12687683105469 1.5 45 1.5 C 50.87312316894531 1.5 56.56977462768555 2.649924993515015 61.93170166015625 4.917825222015381 C 67.11147308349609 7.108687400817871 71.76370239257812 10.24541282653809 75.75914764404297 14.2408504486084 C 79.75458526611328 18.23629951477051 82.89131164550781 22.88852500915527 85.08217620849609 28.06830024719238 C 87.35007476806641 33.43022537231445 88.5 39.12687683105469 88.5 45 C 88.5 50.87312316894531 87.35007476806641 56.56977462768555 85.08217620849609 61.93170166015625 C 82.89131164550781 67.11147308349609 79.75458526611328 71.76370239257812 75.75914764404297 75.75914764404297 C 71.76370239257812 79.75458526611328 67.11147308349609 82.89131164550781 61.93170166015625 85.08217620849609 C 56.56977462768555 87.35007476806641 50.87312316894531 88.5 45 88.5 Z" stroke="none"/>
              <path d="M 45 3 C 39.32871246337891 3 33.82865524291992 4.110054016113281 28.65262985229492 6.299339294433594 C 23.65165710449219 8.414573669433594 19.15968322753906 11.44334411621094 15.301513671875 15.301513671875 C 11.44334411621094 19.15968322753906 8.414573669433594 23.65165710449219 6.299339294433594 28.65262985229492 C 4.110054016113281 33.82865524291992 3 39.32871246337891 3 45 C 3 50.67128753662109 4.110054016113281 56.17134475708008 6.299339294433594 61.34737396240234 C 8.414573669433594 66.34834289550781 11.44334411621094 70.84031677246094 15.301513671875 74.698486328125 C 19.15968322753906 78.55665588378906 23.65165710449219 81.58542633056641 28.65262985229492 83.70066070556641 C 33.82865524291992 85.88994598388672 39.32871246337891 87 45 87 C 50.67128753662109 87 56.17134475708008 85.88994598388672 61.34737396240234 83.70066070556641 C 66.34834289550781 81.58542633056641 70.84031677246094 78.55665588378906 74.698486328125 74.698486328125 C 78.55665588378906 70.84031677246094 81.58542633056641 66.34834289550781 83.70066070556641 61.34737396240234 C 85.88994598388672 56.17134475708008 87 50.67128753662109 87 45 C 87 39.32871246337891 85.88994598388672 33.82865524291992 83.70066070556641 28.65262985229492 C 81.58542633056641 23.65165710449219 78.55665588378906 19.15968322753906 74.698486328125 15.301513671875 C 70.84031677246094 11.44334411621094 66.34834289550781 8.414573669433594 61.34737396240234 6.299339294433594 C 56.17134475708008 4.110054016113281 50.67128753662109 3 45 3 M 45 0 C 69.85281372070312 0 90 20.14718627929688 90 45 C 90 69.85281372070312 69.85281372070312 90 45 90 C 20.14718627929688 90 0 69.85281372070312 0 45 C 0 20.14718627929688 20.14718627929688 0 45 0 Z" stroke="none" fill="#a530fe"/>
            </g>
          </g>
        </g>
      </g>
    </g>
    <g id="latido-del-corazon" transform="translate(924 4882.5)">
      <path id="Trazado_984554" data-name="Trazado 984554" d="M98.055,22.509A14.508,14.508,0,0,0,71,15.223a14.508,14.508,0,0,0-27.055,7.286C43.945,42.814,71,60.3,71,60.3S98.055,42.814,98.055,22.509Zm0,0" transform="translate(-38.338 -6.543)" fill="#f55"/>
      <path id="Trazado_984555" data-name="Trazado 984555" d="M238.321,25.472c0,20.305-27.058,37.788-27.058,37.788a78.741,78.741,0,0,1-6.54-4.892c4.32-2.968,26.322-18.985,26.322-37.3a14.443,14.443,0,0,0-3.7-9.677,14.515,14.515,0,0,1,10.975,14.077Zm0,0" transform="translate(-178.603 -9.505)" fill="#f72b2b"/>
      <path id="Trazado_984556" data-name="Trazado 984556" d="M39.025,125.818a1.636,1.636,0,0,1-1.608-1.334l-4-21.231L29.167,113.36a1.637,1.637,0,0,1-2.97.1L25.06,111.2H9.137a1.637,1.637,0,1,1,0-3.273H26.068a1.638,1.638,0,0,1,1.458.893l4.987-11.852a1.637,1.637,0,0,1,3.117.332l3.3,17.508,1.364-8.192a1.637,1.637,0,0,1,1.614-1.368h5.342a1.637,1.637,0,0,1,1.371.743l2.508,3.85,1.082-1.316a1.637,1.637,0,0,1,1.264-.6h15.8a1.637,1.637,0,1,1,0,3.273H54.244l-2.008,2.443A1.636,1.636,0,0,1,49.6,113.5l-3.243-4.976H43.291L40.64,124.45a1.637,1.637,0,0,1-1.6,1.368h-.018Zm0,0" transform="translate(-6.543 -83.286)" fill="#60daff"/>
      <path id="Trazado_984557" data-name="Trazado 984557" d="M62.731,23.685H59.473a26.529,26.529,0,0,0,1.2-7.718,15.505,15.505,0,0,0-3.411-9.688.957.957,0,0,0-1.491,1.2,13.4,13.4,0,0,1,2.988,8.488,24.882,24.882,0,0,1-1.294,7.718H54.435a.957.957,0,1,0,0,1.914h8.3a.68.68,0,1,1,0,1.36H47.7a.957.957,0,0,0-.739.349L44.955,29.75a.68.68,0,0,1-1.095-.06l-3.243-4.976a.957.957,0,0,0-.8-.435H36.748a.957.957,0,0,0-.944.8L33.153,41.008a.676.676,0,0,1-.653.568h-.017a.679.679,0,0,1-.668-.554l-4-21.232a.957.957,0,0,0-1.823-.194L21.742,29.7a.68.68,0,0,1-1.234.041l-1.136-2.26a.957.957,0,0,0-.855-.527H2.593a.68.68,0,1,1,0-1.36H19.525a.677.677,0,0,1,.606.371.957.957,0,0,0,1.734-.064l4.987-11.852a.685.685,0,0,1,.7-.412.676.676,0,0,1,.6.55l3.3,17.508a.957.957,0,0,0,.94.779h.01a.957.957,0,0,0,.934-.8l1.363-8.193a.678.678,0,0,1,.671-.568H40.7a.676.676,0,0,1,.569.309l2.508,3.85a.957.957,0,0,0,1.542.085L46.4,25.847a.68.68,0,0,1,.525-.248h3.146a.957.957,0,0,0,0-1.914H46.928a2.585,2.585,0,0,0-2,.947l-.253.308-1.8-2.756A2.584,2.584,0,0,0,40.7,21.006H35.361A2.586,2.586,0,0,0,32.8,23.173l-.477,2.869-2.3-12.205a2.578,2.578,0,0,0-2.274-2.1,2.609,2.609,0,0,0-2.665,1.573L20.622,23.926a2.6,2.6,0,0,0-1.1-.241H7.858a24.867,24.867,0,0,1-1.294-7.718,13.552,13.552,0,0,1,25.271-6.8.956.956,0,0,0,1.654,0A13.553,13.553,0,0,1,52.766,4.717a.957.957,0,0,0,1.069-1.588,15.465,15.465,0,0,0-21.174,3.8A15.464,15.464,0,0,0,4.65,15.967a26.512,26.512,0,0,0,1.2,7.718H2.593a2.594,2.594,0,1,0,0,5.187H7.927a54.6,54.6,0,0,0,9,12.669.957.957,0,0,0,1.405-1.3,53.938,53.938,0,0,1-8.256-11.37h7.853L18.8,30.6a2.594,2.594,0,0,0,4.707-.159l3.019-7.175,3.408,18.106a2.6,2.6,0,0,0,2.549,2.114h.027a2.59,2.59,0,0,0,2.531-2.168l2.518-15.129H39.3l2.959,4.542a2.593,2.593,0,0,0,4.177.231l1.72-2.094h7.1C51.6,35.815,45.76,41.83,41.392,45.727a89.074,89.074,0,0,1-8.73,6.877,90.143,90.143,0,0,1-11.32-9.283A.957.957,0,0,0,20.011,44.7a88.1,88.1,0,0,0,12.132,9.863.958.958,0,0,0,1.039,0,85.357,85.357,0,0,0,9.459-7.381C47.321,43,53.655,36.458,57.4,28.872h5.334a2.593,2.593,0,1,0,0-5.187Zm0,0" transform="translate(0 0)"/>
    </g>
  </g>
</svg>
