<svg xmlns="http://www.w3.org/2000/svg" xmlns:xlink="http://www.w3.org/1999/xlink" width="108" height="108" viewBox="0 0 108 108">
  <defs>
    <filter id="Trazado_982547" x="0" y="0" width="108" height="108" filterUnits="userSpaceOnUse">
      <feOffset dy="3" input="SourceAlpha"/>
      <feGaussianBlur stdDeviation="3" result="blur"/>
      <feFlood flood-opacity="0.161"/>
      <feComposite operator="in" in2="blur"/>
      <feComposite in="SourceGraphic"/>
    </filter>
  </defs>
  <g id="Grupo_1149838" data-name="Grupo 1149838" transform="translate(-1218 -4859)">
    <g id="Grupo_1149676" data-name="Grupo 1149676" transform="translate(472 -2821)">
      <g id="Grupo_1148534" data-name="Grupo 1148534" transform="translate(156 4253)">
        <g id="Grupo_1147066" data-name="Grupo 1147066" transform="translate(-26 -556)">
          <g transform="matrix(1, 0, 0, 1, 616, 3983)" filter="url(#Trazado_982547)">
            <g id="Trazado_982547-2" data-name="Trazado 982547" transform="translate(9 6)" fill="#f6f9fc">
              <path d="M 45 88.5 C 39.12687683105469 88.5 33.43022537231445 87.35007476806641 28.06830024719238 85.08217620849609 C 22.88852500915527 82.89131164550781 18.23629951477051 79.75458526611328 14.2408504486084 75.75914764404297 C 10.24541282653809 71.76370239257812 7.108687400817871 67.11147308349609 4.917825222015381 61.93170166015625 C 2.649924993515015 56.56977462768555 1.5 50.87312316894531 1.5 45 C 1.5 39.12687683105469 2.649924993515015 33.43022537231445 4.917825222015381 28.06830024719238 C 7.108687400817871 22.88852500915527 10.24541282653809 18.23629951477051 14.2408504486084 14.2408504486084 C 18.23629951477051 10.24541282653809 22.88852500915527 7.108687400817871 28.06830024719238 4.917825222015381 C 33.43022537231445 2.649924993515015 39.12687683105469 1.5 45 1.5 C 50.87312316894531 1.5 56.56977462768555 2.649924993515015 61.93170166015625 4.917825222015381 C 67.11147308349609 7.108687400817871 71.76370239257812 10.24541282653809 75.75914764404297 14.2408504486084 C 79.75458526611328 18.23629951477051 82.89131164550781 22.88852500915527 85.08217620849609 28.06830024719238 C 87.35007476806641 33.43022537231445 88.5 39.12687683105469 88.5 45 C 88.5 50.87312316894531 87.35007476806641 56.56977462768555 85.08217620849609 61.93170166015625 C 82.89131164550781 67.11147308349609 79.75458526611328 71.76370239257812 75.75914764404297 75.75914764404297 C 71.76370239257812 79.75458526611328 67.11147308349609 82.89131164550781 61.93170166015625 85.08217620849609 C 56.56977462768555 87.35007476806641 50.87312316894531 88.5 45 88.5 Z" stroke="none"/>
              <path d="M 45 3 C 39.32871246337891 3 33.82865524291992 4.110054016113281 28.65262985229492 6.299339294433594 C 23.65165710449219 8.414573669433594 19.15968322753906 11.44334411621094 15.301513671875 15.301513671875 C 11.44334411621094 19.15968322753906 8.414573669433594 23.65165710449219 6.299339294433594 28.65262985229492 C 4.110054016113281 33.82865524291992 3 39.32871246337891 3 45 C 3 50.67128753662109 4.110054016113281 56.17134475708008 6.299339294433594 61.34737396240234 C 8.414573669433594 66.34834289550781 11.44334411621094 70.84031677246094 15.301513671875 74.698486328125 C 19.15968322753906 78.55665588378906 23.65165710449219 81.58542633056641 28.65262985229492 83.70066070556641 C 33.82865524291992 85.88994598388672 39.32871246337891 87 45 87 C 50.67128753662109 87 56.17134475708008 85.88994598388672 61.34737396240234 83.70066070556641 C 66.34834289550781 81.58542633056641 70.84031677246094 78.55665588378906 74.698486328125 74.698486328125 C 78.55665588378906 70.84031677246094 81.58542633056641 66.34834289550781 83.70066070556641 61.34737396240234 C 85.88994598388672 56.17134475708008 87 50.67128753662109 87 45 C 87 39.32871246337891 85.88994598388672 33.82865524291992 83.70066070556641 28.65262985229492 C 81.58542633056641 23.65165710449219 78.55665588378906 19.15968322753906 74.698486328125 15.301513671875 C 70.84031677246094 11.44334411621094 66.34834289550781 8.414573669433594 61.34737396240234 6.299339294433594 C 56.17134475708008 4.110054016113281 50.67128753662109 3 45 3 M 45 0 C 69.85281372070312 0 90 20.14718627929688 90 45 C 90 69.85281372070312 69.85281372070312 90 45 90 C 20.14718627929688 90 0 69.85281372070312 0 45 C 0 20.14718627929688 20.14718627929688 0 45 0 Z" stroke="none" fill="#a530fe"/>
            </g>
          </g>
        </g>
      </g>
    </g>
    <g id="mantenimiento" transform="translate(1227 4879)">
      <path id="Trazado_984558" data-name="Trazado 984558" d="M151.378,25.781H151.2c0-5.23-.869-16.735-10.283-16.735V8h-6.276V9.046c-9.413,0-10.283,11.505-10.283,16.735H120v4.184h35.562V25.781Z" transform="translate(-90.403 -6.954)" fill="#e3ac34"/>
      <path id="Trazado_984559" data-name="Trazado 984559" d="M59.562,220.919v-6.276H53.921a12.465,12.465,0,0,0-1.337-3.228l3.988-3.989-4.437-4.437-3.988,3.988a12.462,12.462,0,0,0-3.229-1.337V200H38.643v5.641a12.463,12.463,0,0,0-3.228,1.337l-3.989-3.988-4.437,4.437,3.988,3.989a12.462,12.462,0,0,0-1.337,3.228H24v6.276h5.641a12.464,12.464,0,0,0,1.337,3.228l-3.988,3.989,4.437,4.437,3.988-3.988a12.462,12.462,0,0,0,3.229,1.337v5.641h6.276v-5.641a12.462,12.462,0,0,0,3.228-1.337l3.989,3.988,4.437-4.437-3.988-3.988a12.462,12.462,0,0,0,1.337-3.229ZM41.781,225.1a7.322,7.322,0,1,1,7.322-7.322A7.322,7.322,0,0,1,41.781,225.1Z" transform="translate(-6.954 -173.852)" fill="#dbdce0"/>
      <path id="Trazado_984560" data-name="Trazado 984560" d="M330.827,211.505v-4.184h-3.5a6.466,6.466,0,0,0-.252-.609l2.477-2.477-2.958-2.958-2.478,2.477a6.066,6.066,0,0,0-.608-.252V200h-4.184v3.5a6.068,6.068,0,0,0-.608.252l-2.478-2.477-2.958,2.958,2.477,2.477a6.458,6.458,0,0,0-.252.609H312v4.184h3.5a6.331,6.331,0,0,0,.252.608l-2.477,2.478,2.958,2.958,2.477-2.477a6.21,6.21,0,0,0,.609.252v3.5h4.184v-3.5a6.217,6.217,0,0,0,.609-.252l2.477,2.477,2.958-2.958-2.477-2.478a6.323,6.323,0,0,0,.252-.608Zm-9.413,1.046a3.138,3.138,0,1,1,3.138-3.138A3.138,3.138,0,0,1,321.413,212.551Z" transform="translate(-257.301 -173.852)" fill="#989aa0"/>
      <path id="Trazado_984561" data-name="Trazado 984561" d="M104.367,272a8.367,8.367,0,1,0,8.367,8.367A8.367,8.367,0,0,0,104.367,272Zm0,14.643a6.276,6.276,0,1,1,6.276-6.276A6.276,6.276,0,0,1,104.367,286.643Z" transform="translate(-69.541 -236.438)"/>
      <path id="Trazado_984562" data-name="Trazado 984562" d="M52.608,215.01a1.046,1.046,0,0,0,1.046-1.046v-6.276a1.046,1.046,0,0,0-1.046-1.046H47.751a13.431,13.431,0,0,0-.826-2l3.434-3.433a1.046,1.046,0,0,0,0-1.479L45.92,195.3a1.046,1.046,0,0,0-1.479,0l-3.433,3.433a13.5,13.5,0,0,0-2-.826v-4.856A1.046,1.046,0,0,0,37.965,192H31.689a1.046,1.046,0,0,0-1.046,1.046V197.9a13.5,13.5,0,0,0-2,.826L25.213,195.3a1.046,1.046,0,0,0-1.479,0l-4.439,4.438a1.046,1.046,0,0,0,0,1.479l3.434,3.433a13.432,13.432,0,0,0-.826,2H17.046A1.046,1.046,0,0,0,16,207.689v6.276a1.046,1.046,0,0,0,1.046,1.046H21.9a13.43,13.43,0,0,0,.826,2l-3.434,3.433a1.046,1.046,0,0,0,0,1.479l4.439,4.438a1.046,1.046,0,0,0,1.479,0l3.433-3.433a13.5,13.5,0,0,0,2,.826v4.856a1.046,1.046,0,0,0,1.046,1.046h6.276a1.046,1.046,0,0,0,1.046-1.046v-4.856a13.5,13.5,0,0,0,2-.826l3.433,3.433a1.046,1.046,0,0,0,1.479,0l4.439-4.438a1.046,1.046,0,0,0,0-1.479l-3.434-3.433a13.43,13.43,0,0,0,.826-2h4.856ZM45.953,213.7a11.436,11.436,0,0,1-1.224,2.958,1.046,1.046,0,0,0,.161,1.271l3.25,3.25-2.959,2.958-3.249-3.249a1.046,1.046,0,0,0-1.272-.161,11.42,11.42,0,0,1-2.957,1.224,1.046,1.046,0,0,0-.784,1.012v4.6H32.735v-4.6a1.046,1.046,0,0,0-.784-1.012,11.42,11.42,0,0,1-2.957-1.224,1.046,1.046,0,0,0-1.272.161l-3.25,3.249-2.959-2.958,3.25-3.249a1.046,1.046,0,0,0,.161-1.271A11.437,11.437,0,0,1,23.7,213.7a1.046,1.046,0,0,0-1.012-.784h-4.6v-4.185h4.6a1.046,1.046,0,0,0,1.012-.784,11.437,11.437,0,0,1,1.224-2.958,1.046,1.046,0,0,0-.161-1.271l-3.25-3.25,2.96-2.959,3.249,3.249a1.046,1.046,0,0,0,1.272.161A11.419,11.419,0,0,1,31.95,199.7a1.046,1.046,0,0,0,.784-1.012v-4.595h4.184v4.6A1.046,1.046,0,0,0,37.7,199.7a11.418,11.418,0,0,1,2.957,1.224,1.046,1.046,0,0,0,1.272-.161l3.25-3.249,2.96,2.959-3.25,3.249a1.046,1.046,0,0,0-.161,1.271,11.437,11.437,0,0,1,1.224,2.958,1.046,1.046,0,0,0,1.012.784h4.595v4.184h-4.6A1.046,1.046,0,0,0,45.953,213.7Z" transform="translate(0 -166.898)"/>
      <path id="Trazado_984563" data-name="Trazado 984563" d="M149.654,23.01V18.827a1.046,1.046,0,0,0-1.046-1.046h-3.337c-.244-6.066-2.625-15.85-10.261-16.673V1.046A1.046,1.046,0,0,0,133.965,0h-6.276a1.046,1.046,0,0,0-1.046,1.046v.062c-7.635.823-10.017,10.607-10.261,16.673h-3.337A1.046,1.046,0,0,0,112,18.827V23.01a1.046,1.046,0,0,0,1.046,1.046h35.562A1.046,1.046,0,0,0,149.654,23.01Zm-2.092-1.046h-33.47V19.873h8.367V17.781h-3.983c.218-5.3,2.138-13.688,8.167-14.563v9.333h2.092V2.092h4.184V12.551h2.092V3.218c6.029.874,7.949,9.262,8.167,14.563H124.551v2.092h23.01Z" transform="translate(-83.449)"/>
      <path id="Trazado_984564" data-name="Trazado 984564" d="M324.919,204.551v-4.184a1.046,1.046,0,0,0-1.046-1.046h-1.838l1.3-1.3a1.046,1.046,0,0,0,0-1.479l-2.958-2.958a1.046,1.046,0,0,0-1.479,0l-1.3,1.3v-1.838A1.046,1.046,0,0,0,316.551,192h-4.184a1.046,1.046,0,0,0-1.046,1.046v1.838l-1.3-1.3a1.046,1.046,0,0,0-1.479,0l-2.958,2.958a1.046,1.046,0,0,0,0,1.479l1.3,1.3h-1.838A1.046,1.046,0,0,0,304,200.367v4.184a1.046,1.046,0,0,0,1.046,1.046h1.838l-1.3,1.3a1.046,1.046,0,0,0,0,1.479l2.958,2.958a1.046,1.046,0,0,0,1.479,0l1.3-1.3v1.839a1.046,1.046,0,0,0,1.046,1.046h4.184a1.046,1.046,0,0,0,1.046-1.046v-1.839l1.3,1.3a1.076,1.076,0,0,0,1.479,0l2.958-2.958a1.046,1.046,0,0,0,0-1.479l-1.3-1.3h1.838A1.046,1.046,0,0,0,324.919,204.551Zm-2.092-1.046H320.37a1.046,1.046,0,0,0-.984.692q-.092.261-.209.511a1.046,1.046,0,0,0,.209,1.19l1.737,1.737-1.486,1.479-1.737-1.74a1.046,1.046,0,0,0-1.188-.209,5.305,5.305,0,0,1-.508.209,1.046,1.046,0,0,0-.7.986v2.465h-2.092V208.37a1.046,1.046,0,0,0-.7-.986,5.305,5.305,0,0,1-.508-.209,1.046,1.046,0,0,0-1.188.209l-1.737,1.732-1.479-1.479,1.74-1.737a1.046,1.046,0,0,0,.209-1.19q-.117-.25-.209-.511a1.046,1.046,0,0,0-.995-.692h-2.457v-2.092h2.457a1.046,1.046,0,0,0,.984-.692q.092-.261.209-.511a1.046,1.046,0,0,0-.209-1.19l-1.73-1.737,1.479-1.479,1.738,1.74a1.046,1.046,0,0,0,1.19.209,4.891,4.891,0,0,1,.505-.209,1.046,1.046,0,0,0,.7-.995v-2.457h2.092v2.457a1.046,1.046,0,0,0,.7.986,4.887,4.887,0,0,1,.505.209,1.046,1.046,0,0,0,1.19-.209l1.738-1.737,1.479,1.479-1.74,1.743a1.046,1.046,0,0,0-.209,1.19q.117.25.209.511a1.046,1.046,0,0,0,.984.692h2.467Z" transform="translate(-250.346 -166.898)"/>
      <path id="Trazado_984565" data-name="Trazado 984565" d="M356.184,240a4.184,4.184,0,1,0,4.184,4.184A4.184,4.184,0,0,0,356.184,240Zm0,6.276a2.092,2.092,0,1,1,2.092-2.092A2.092,2.092,0,0,1,356.184,246.276Z" transform="translate(-292.071 -208.622)"/>
    </g>
  </g>
</svg>
