<svg xmlns="http://www.w3.org/2000/svg" xmlns:xlink="http://www.w3.org/1999/xlink" width="108" height="108" viewBox="0 0 108 108">
  <defs>
    <filter id="Trazado_982419" x="0" y="0" width="108" height="108" filterUnits="userSpaceOnUse">
      <feOffset dy="3" input="SourceAlpha"/>
      <feGaussianBlur stdDeviation="3" result="blur"/>
      <feFlood flood-opacity="0.161"/>
      <feComposite operator="in" in2="blur"/>
      <feComposite in="SourceGraphic"/>
    </filter>
  </defs>
  <g id="Grupo_1149842" data-name="Grupo 1149842" transform="translate(-617 -5970)">
    <g id="Grupo_1149446" data-name="Grupo 1149446" transform="translate(626 5976)">
      <g id="Grupo_1148767" data-name="Grupo 1148767">
        <g transform="matrix(1, 0, 0, 1, -9, -6)" filter="url(#Trazado_982419)">
          <g id="Trazado_982419-2" data-name="Trazado 982419" transform="translate(9 6)" fill="#f3f3f3">
            <path d="M 45 88.5 C 39.12687683105469 88.5 33.43022537231445 87.35007476806641 28.06830024719238 85.08217620849609 C 22.88852500915527 82.89131164550781 18.23629951477051 79.75458526611328 14.2408504486084 75.75914764404297 C 10.24541282653809 71.76370239257812 7.108687400817871 67.11147308349609 4.917825222015381 61.93170166015625 C 2.649924993515015 56.56977462768555 1.5 50.87312316894531 1.5 45 C 1.5 39.12687683105469 2.649924993515015 33.43022537231445 4.917825222015381 28.06830024719238 C 7.108687400817871 22.88852500915527 10.24541282653809 18.23629951477051 14.2408504486084 14.2408504486084 C 18.23629951477051 10.24541282653809 22.88852500915527 7.108687400817871 28.06830024719238 4.917825222015381 C 33.43022537231445 2.649924993515015 39.12687683105469 1.5 45 1.5 C 50.87312316894531 1.5 56.56977462768555 2.649924993515015 61.93170166015625 4.917825222015381 C 67.11147308349609 7.108687400817871 71.76370239257812 10.24541282653809 75.75914764404297 14.2408504486084 C 79.75458526611328 18.23629951477051 82.89131164550781 22.88852500915527 85.08217620849609 28.06830024719238 C 87.35007476806641 33.43022537231445 88.5 39.12687683105469 88.5 45 C 88.5 50.87312316894531 87.35007476806641 56.56977462768555 85.08217620849609 61.93170166015625 C 82.89131164550781 67.11147308349609 79.75458526611328 71.76370239257812 75.75914764404297 75.75914764404297 C 71.76370239257812 79.75458526611328 67.11147308349609 82.89131164550781 61.93170166015625 85.08217620849609 C 56.56977462768555 87.35007476806641 50.87312316894531 88.5 45 88.5 Z" stroke="none"/>
            <path d="M 45 3 C 39.32871246337891 3 33.82865524291992 4.110054016113281 28.65262985229492 6.299339294433594 C 23.65165710449219 8.414573669433594 19.15968322753906 11.44334411621094 15.301513671875 15.301513671875 C 11.44334411621094 19.15968322753906 8.414573669433594 23.65165710449219 6.299339294433594 28.65262985229492 C 4.110054016113281 33.82865524291992 3 39.32871246337891 3 45 C 3 50.67128753662109 4.110054016113281 56.17134475708008 6.299339294433594 61.34737396240234 C 8.414573669433594 66.34834289550781 11.44334411621094 70.84031677246094 15.301513671875 74.698486328125 C 19.15968322753906 78.55665588378906 23.65165710449219 81.58542633056641 28.65262985229492 83.70066070556641 C 33.82865524291992 85.88994598388672 39.32871246337891 87 45 87 C 50.67128753662109 87 56.17134475708008 85.88994598388672 61.34737396240234 83.70066070556641 C 66.34834289550781 81.58542633056641 70.84031677246094 78.55665588378906 74.698486328125 74.698486328125 C 78.55665588378906 70.84031677246094 81.58542633056641 66.34834289550781 83.70066070556641 61.34737396240234 C 85.88994598388672 56.17134475708008 87 50.67128753662109 87 45 C 87 39.32871246337891 85.88994598388672 33.82865524291992 83.70066070556641 28.65262985229492 C 81.58542633056641 23.65165710449219 78.55665588378906 19.15968322753906 74.698486328125 15.301513671875 C 70.84031677246094 11.44334411621094 66.34834289550781 8.414573669433594 61.34737396240234 6.299339294433594 C 56.17134475708008 4.110054016113281 50.67128753662109 3 45 3 M 45 0 C 69.85281372070312 0 90 20.14718627929688 90 45 C 90 69.85281372070312 69.85281372070312 90 45 90 C 20.14718627929688 90 0 69.85281372070312 0 45 C 0 20.14718627929688 20.14718627929688 0 45 0 Z" stroke="none" fill="#a530fe"/>
          </g>
        </g>
      </g>
    </g>
    <g id="resolucion-de-problemas" transform="translate(618.822 5990)">
      <g id="Grupo_1149840" data-name="Grupo 1149840" transform="translate(30.444 0.923)">
        <path id="Trazado_984566" data-name="Trazado 984566" d="M123.275,66.109A20.514,20.514,0,1,0,89.067,81.381a14.891,14.891,0,0,1,4.78,9.226h17.83a15.2,15.2,0,0,1,4.886-9.321,20.46,20.46,0,0,0,6.713-15.177Z" transform="translate(-82.248 -40.909)" fill="#ffe177"/>
        <path id="Trazado_984567" data-name="Trazado 984567" d="M254.525,66.109a20.457,20.457,0,0,1-6.713,15.176,15.444,15.444,0,0,0-3.277,4.228,14.977,14.977,0,0,0-1.608,5.094h-4.212a14.974,14.974,0,0,1,1.608-5.094,15.444,15.444,0,0,1,3.277-4.228A20.514,20.514,0,0,0,231.907,45.7q.96-.1,1.945-.107A20.514,20.514,0,0,1,254.525,66.109Z" transform="translate(-213.498 -40.909)" fill="#ffd15b"/>
        <g id="Grupo_1149839" data-name="Grupo 1149839" transform="translate(30.865 0)">
          <circle id="Elipse_11678" data-name="Elipse 11678" cx="9.112" cy="9.112" r="9.112" fill="#bbec6c"/>
        </g>
        <path id="Trazado_984568" data-name="Trazado 984568" d="M392.231,7.5a9.129,9.129,0,0,0-2.106.247,9.111,9.111,0,0,1,0,17.729A9.111,9.111,0,1,0,392.231,7.5Z" transform="translate(-352.255 -7.5)" fill="#a2e62e"/>
        <path id="Trazado_984569" data-name="Trazado 984569" d="M175.729,233.932a1.588,1.588,0,0,1-1.591,1.588h-1.591v1.75a2.021,2.021,0,0,1-2.021,2.021h-6.457a2.247,2.247,0,0,1-2.247-2.247v-6.456a2.021,2.021,0,0,1,2.021-2.021h8.7v3.771h1.544A1.635,1.635,0,0,1,175.729,233.932Z" transform="translate(-152.034 -201.375)" fill="#6bd9e7"/>
        <path id="Trazado_984570" data-name="Trazado 984570" d="M172.549,143.391v8.7h-3.773v1.589a1.59,1.59,0,0,1-1.589,1.591h0a1.59,1.59,0,0,1-1.589-1.591V152.1h-1.751a2.021,2.021,0,0,1-2.021-2.021v-6.457a2.247,2.247,0,0,1,2.247-2.247h6.457A2.021,2.021,0,0,1,172.549,143.391Z" transform="translate(-152.035 -124.903)" fill="#fe76a8"/>
        <path id="Trazado_984571" data-name="Trazado 984571" d="M237.063,143.617v6.457a2.021,2.021,0,0,1-2.021,2.021h-8.7v-3.773h-1.544a1.634,1.634,0,0,1-1.637-1.594,1.59,1.59,0,0,1,1.591-1.586h1.591v-1.751a2.021,2.021,0,0,1,2.021-2.021h6.457A2.247,2.247,0,0,1,237.063,143.617Z" transform="translate(-205.824 -124.903)" fill="#d9b1ee"/>
        <path id="Trazado_984572" data-name="Trazado 984572" d="M295.21,141.371h-3.189a2.247,2.247,0,0,1,2.247,2.247v6.457a2.021,2.021,0,0,1-2.021,2.021h3.189a2.021,2.021,0,0,0,2.021-2.021v-6.457A2.247,2.247,0,0,0,295.21,141.371Z" transform="translate(-266.218 -124.904)" fill="#cb97e7"/>
        <path id="Trazado_984573" data-name="Trazado 984573" d="M257.723,205.883a2.021,2.021,0,0,1,2.021,2.021v6.456a2.247,2.247,0,0,1-2.247,2.247H251.04a2.021,2.021,0,0,1-2.021-2.021v-8.7h3.773v-1.591a1.59,1.59,0,0,1,1.589-1.591h0a1.59,1.59,0,0,1,1.589,1.591v1.591h1.751Z" transform="translate(-228.505 -178.691)" fill="#bbec6c"/>
        <path id="Trazado_984574" data-name="Trazado 984574" d="M284.622,205.886h-1.751V204.3a1.59,1.59,0,0,0-1.589-1.591h0a1.59,1.59,0,0,0-1.589,1.591v1.591h1.743a2.021,2.021,0,0,1,2.021,2.021v6.456a2.247,2.247,0,0,1-2.247,2.247H284.4a2.247,2.247,0,0,0,2.247-2.247v-6.456A2.022,2.022,0,0,0,284.622,205.886Z" transform="translate(-255.405 -178.694)" fill="#a2e62e"/>
        <path id="Trazado_984575" data-name="Trazado 984575" d="M192.037,419.44H178.878a2.335,2.335,0,0,1-2.335-2.335v-5.576h17.83V417.1A2.335,2.335,0,0,1,192.037,419.44Z" transform="translate(-164.944 -361.831)" fill="#9facba"/>
        <path id="Trazado_984576" data-name="Trazado 984576" d="M274.813,411.533v5.576a2.335,2.335,0,0,1-2.335,2.335h-4.212a2.335,2.335,0,0,0,2.335-2.335v-5.576Z" transform="translate(-245.384 -361.835)" fill="#8d9ca8"/>
        <path id="Trazado_984577" data-name="Trazado 984577" d="M243.895,259.228h1.544a1.635,1.635,0,0,1,1.637,1.594,1.588,1.588,0,0,1-1.591,1.588h-1.591l-.719-1.591Z" transform="translate(-223.381 -228.264)" fill="#6bd9e7"/>
        <path id="Trazado_984578" data-name="Trazado 984578" d="M214.761,475.847H203.584a3.524,3.524,0,0,0,3.524,3.524h4.129A3.524,3.524,0,0,0,214.761,475.847Z" transform="translate(-188.659 -418.238)" fill="#dcf5f8"/>
        <path id="Trazado_984579" data-name="Trazado 984579" d="M235.379,475.847a3.524,3.524,0,0,1-3.483,3.523h4.17a3.524,3.524,0,0,0,3.524-3.524Z" transform="translate(-213.489 -418.238)" fill="#d4f2f6"/>
      </g>
      <g id="Grupo_1149841" data-name="Grupo 1149841" transform="translate(23.178)">
        <path id="Trazado_984580" data-name="Trazado 984580" d="M125.679,10.034a10.034,10.034,0,0,0-19.627-2.942A21.436,21.436,0,0,0,81.869,42.08a13.963,13.963,0,0,1,4.482,8.656.957.957,0,0,0,.915.807h7.992V53.68a.923.923,0,1,0,1.845,0V51.543h7.07V56.2a1.414,1.414,0,0,1-1.413,1.413H89.6A1.414,1.414,0,0,1,88.189,56.2V54.962a.923.923,0,1,0-1.845,0V56.2a3.306,3.306,0,0,0,3.423,3.258,4.454,4.454,0,0,0,4.35,3.524h4.129a4.454,4.454,0,0,0,4.35-3.524,3.309,3.309,0,0,0,3.423-3.258V50.69a14.014,14.014,0,0,1,1.5-4.733,14.476,14.476,0,0,1,3.082-3.975,21.517,21.517,0,0,0,3.873-4.682.923.923,0,0,0-1.574-.963,19.67,19.67,0,0,1-3.541,4.28,16.314,16.314,0,0,0-3.473,4.481,15.873,15.873,0,0,0-1.583,4.6H88.059A15.766,15.766,0,0,0,83.1,40.707,19.551,19.551,0,0,1,82.233,12.4a19.549,19.549,0,0,1,23.433-3.421,10.082,10.082,0,0,0,9.139,11.053,19.681,19.681,0,0,1-.128,12.565.923.923,0,1,0,1.742.61,21.536,21.536,0,0,0,.312-13.2,10.048,10.048,0,0,0,8.948-9.975Zm-27.433,51.1H94.117a2.606,2.606,0,0,1-2.433-1.679h8.994A2.607,2.607,0,0,1,98.246,61.133Zm9.21-51.1a8.189,8.189,0,1,1,8.189,8.189,8.2,8.2,0,0,1-8.189-8.189Z" transform="translate(-68.402)"/>
        <path id="Trazado_984581" data-name="Trazado 984581" d="M374.691,49.368a.923.923,0,0,0-1.3,0L368,54.755,366.145,52.7a.923.923,0,1,0-1.37,1.236l2.505,2.777a.923.923,0,0,0,.661.3h.024a.923.923,0,0,0,.652-.27l6.074-6.074A.923.923,0,0,0,374.691,49.368Z" transform="translate(-322.548 -43.059)"/>
        <path id="Trazado_984582" data-name="Trazado 984582" d="M177.618,137.04a3.174,3.174,0,0,0-3.17-3.17h-6.457a2.933,2.933,0,0,0-2.021.807,2.933,2.933,0,0,0-2.021-.807h-6.457a3.174,3.174,0,0,0-3.17,3.17V143.5a2.933,2.933,0,0,0,.807,2.021,2.933,2.933,0,0,0-.807,2.021V154a3.174,3.174,0,0,0,3.17,3.17h6.457a2.932,2.932,0,0,0,2.021-.807,2.933,2.933,0,0,0,2.021.807h6.457a3.174,3.174,0,0,0,3.17-3.17V147.54a2.933,2.933,0,0,0-.807-2.021,2.933,2.933,0,0,0,.807-2.021V137.04Zm-9.627-1.325h6.457a1.326,1.326,0,0,1,1.325,1.325V143.5a1.1,1.1,0,0,1-1.1,1.1h-.829v-.668a2.513,2.513,0,1,0-5.025,0v.668h-1.928v-2.85a.922.922,0,0,0-.923-.923h-1.544a.741.741,0,0,1-.519-.221.642.642,0,0,1-.2-.448.668.668,0,0,1,.668-.666h1.591a.922.922,0,0,0,.923-.923v-1.751A1.1,1.1,0,0,1,167.992,135.715Zm-11.824,1.325a1.326,1.326,0,0,1,1.325-1.325h6.457a1.1,1.1,0,0,1,1.1,1.1v.829h-.668a2.513,2.513,0,0,0-2.513,2.506,2.467,2.467,0,0,0,.734,1.756,2.6,2.6,0,0,0,1.826.763h.622V144.6H162.2a.922.922,0,0,0-.923.923v1.589a.667.667,0,1,1-1.335,0v-1.589a.922.922,0,0,0-.923-.923h-1.751a1.1,1.1,0,0,1-1.1-1.1V137.04Zm7.782,18.28h-6.457a1.326,1.326,0,0,1-1.325-1.325v-6.456a1.1,1.1,0,0,1,1.1-1.1h.829v.667a2.513,2.513,0,1,0,5.025,0v-.667h1.928v2.849a.922.922,0,0,0,.923.923h1.544a.741.741,0,0,1,.519.22.644.644,0,0,1,.2.449.665.665,0,0,1-.668.667H165.97a.922.922,0,0,0-.923.923v1.75a1.1,1.1,0,0,1-1.1,1.1Zm11.824-1.325a1.326,1.326,0,0,1-1.325,1.325h-6.457a1.1,1.1,0,0,1-1.1-1.1v-.828h.668a2.51,2.51,0,0,0,2.513-2.508,2.468,2.468,0,0,0-.735-1.756,2.6,2.6,0,0,0-1.825-.762h-.621v-1.926h2.85a.922.922,0,0,0,.923-.923v-1.591a.667.667,0,1,1,1.335,0v1.591a.923.923,0,0,0,.923.923h1.751a1.1,1.1,0,0,1,1.1,1.1Z" transform="translate(-138.191 -117.403)"/>
        <path id="Trazado_984583" data-name="Trazado 984583" d="M43.593,291.9l-2.191,1a.923.923,0,1,0,.766,1.678l2.191-1a.923.923,0,1,0-.766-1.678Z" transform="translate(-38.687 -255.921)"/>
        <path id="Trazado_984584" data-name="Trazado 984584" d="M26.485,179.11a.923.923,0,0,0,.13-1.836l-2.384-.343a.923.923,0,1,0-.263,1.826l2.384.343A.909.909,0,0,0,26.485,179.11Z" transform="translate(-23.178 -155.16)"/>
        <path id="Trazado_984585" data-name="Trazado 984585" d="M75.128,65.479l1.82,1.577a.923.923,0,0,0,1.208-1.394l-1.82-1.577a.923.923,0,0,0-1.208,1.394Z" transform="translate(-68.459 -56.004)"/>
        <path id="Trazado_984586" data-name="Trazado 984586" d="M443.656,176.932l-2.384.343a.923.923,0,1,0,.263,1.826l2.384-.343a.923.923,0,0,0-.263-1.826Z" transform="translate(-389.15 -155.16)"/>
        <path id="Trazado_984587" data-name="Trazado 984587" d="M427.857,292.9l-2.191-1a.922.922,0,1,0-.766,1.678l2.191,1a.923.923,0,1,0,.766-1.678Z" transform="translate(-375.013 -255.921)"/>
        <circle id="Elipse_11679" data-name="Elipse 11679" cx="0.923" cy="0.923" r="0.923" transform="translate(19.891 1.9)"/>
        <circle id="Elipse_11680" data-name="Elipse 11680" cx="0.923" cy="0.923" r="0.923" transform="translate(33.823 1.9)"/>
      </g>
    </g>
  </g>
</svg>
