<svg xmlns="http://www.w3.org/2000/svg" xmlns:xlink="http://www.w3.org/1999/xlink" width="1240" height="523" viewBox="0 0 1240 523">
  <defs>
    <filter id="Trazado_985666" x="384" y="43" width="82" height="442" filterUnits="userSpaceOnUse">
      <feOffset dy="3" input="SourceAlpha"/>
      <feGaussianBlur stdDeviation="3" result="blur"/>
      <feFlood flood-opacity="0.161"/>
      <feComposite operator="in" in2="blur"/>
      <feComposite in="SourceGraphic"/>
    </filter>
  </defs>
  <g id="Grupo_1150000" data-name="Grupo 1150000" transform="translate(-180 -912)">
    <rect id="Rectángulo_407969" data-name="Rectángulo 407969" width="1240" height="523" rx="8" transform="translate(180 912)" fill="#edf3fc"/>
    <g id="Grupo_1149999" data-name="Grupo 1149999">
      <path id="Trazado_983296" data-name="Trazado 983296" d="M2529,885.789h-33.82v349.5h39.742" transform="translate(-1830 118.71)" fill="none" stroke="#5a1a8a" stroke-width="1"/>
      <path id="Trazado_984101" data-name="Trazado 984101" d="M2472.242,1042h47.047" transform="translate(-1807.061 46.5)" fill="none" stroke="#5a1a8a" stroke-width="1"/>
      <path id="Trazado_984103" data-name="Trazado 984103" d="M2472.242,1042h47.047" transform="translate(-1807.061 215.5)" fill="none" stroke="#5a1a8a" stroke-width="1"/>
      <g id="Trazado_985656" data-name="Trazado 985656" transform="translate(700 961)" fill="#a0f0cb">
        <path d="M 327.5 62.5 L 0.5 62.5 L 0.5 0.5 L 327.5 0.5 L 327.5 62.5 Z" stroke="none"/>
        <path d="M 1 1 L 1 62 L 327 62 L 327 1 L 1 1 M 0 0 L 328 0 L 328 63 L 0 63 L 0 0 Z" stroke="none" fill="#15da7e"/>
      </g>
      <g id="Trazado_985657" data-name="Trazado 985657" transform="translate(700 1057)" fill="#a0f0cb">
        <path d="M 327.5 62.5 L 0.5 62.5 L 0.5 0.5 L 327.5 0.5 L 327.5 62.5 Z" stroke="none"/>
        <path d="M 1 1 L 1 62 L 327 62 L 327 1 L 1 1 M 0 0 L 328 0 L 328 63 L 0 63 L 0 0 Z" stroke="none" fill="#15da7e"/>
      </g>
      <g id="Trazado_985658" data-name="Trazado 985658" transform="translate(700 1141.5)" fill="#a0f0cb">
        <path d="M 327.5 62.5 L 0.5 62.5 L 0.5 0.5 L 327.5 0.5 L 327.5 62.5 Z" stroke="none"/>
        <path d="M 1 1 L 1 62 L 327 62 L 327 1 L 1 1 M 0 0 L 328 0 L 328 63 L 0 63 L 0 0 Z" stroke="none" fill="#15da7e"/>
      </g>
      <g id="Trazado_985659" data-name="Trazado 985659" transform="translate(700 1226)" fill="#a0f0cb">
        <path d="M 327.5 62.5 L 0.5 62.5 L 0.5 0.5 L 327.5 0.5 L 327.5 62.5 Z" stroke="none"/>
        <path d="M 1 1 L 1 62 L 327 62 L 327 1 L 1 1 M 0 0 L 328 0 L 328 63 L 0 63 L 0 0 Z" stroke="none" fill="#15da7e"/>
      </g>
      <g id="Trazado_985660" data-name="Trazado 985660" transform="translate(700 1322)" fill="#a0f0cb">
        <path d="M 327.5 62.5 L 0.5 62.5 L 0.5 0.5 L 327.5 0.5 L 327.5 62.5 Z" stroke="none"/>
        <path d="M 1 1 L 1 62 L 327 62 L 327 1 L 1 1 M 0 0 L 328 0 L 328 63 L 0 63 L 0 0 Z" stroke="none" fill="#15da7e"/>
      </g>
      <path id="Trazado_985661" data-name="Trazado 985661" d="M11.65,1.089h1.767V14H11.65Zm5.4,8.314a4.666,4.666,0,0,0,.642,2.531,2.248,2.248,0,0,0,2.057,1.02,2.166,2.166,0,0,0,1.806-.945A4.462,4.462,0,0,0,22.26,9.3a4.009,4.009,0,0,0-.729-2.641,2.276,2.276,0,0,0-1.8-.857,2.378,2.378,0,0,0-1.938.914A4.186,4.186,0,0,0,17.049,9.4ZM19.43,4.42a3.349,3.349,0,0,1,1.811.457A4.253,4.253,0,0,1,22.2,5.8V1.045h1.521V14H22.3V12.69a3.423,3.423,0,0,1-1.31,1.257,3.748,3.748,0,0,1-1.731.387,3.506,3.506,0,0,1-2.725-1.323,5.172,5.172,0,0,1-1.151-3.52,6.076,6.076,0,0,1,1.05-3.564A3.439,3.439,0,0,1,19.43,4.42Zm10.549-.044a4.294,4.294,0,0,1,1.942.47,3.582,3.582,0,0,1,1.433,1.217,4.2,4.2,0,0,1,.633,1.661A10.868,10.868,0,0,1,34.127,9.8h-6.9a4.026,4.026,0,0,0,.677,2.3,2.266,2.266,0,0,0,1.96.866,2.534,2.534,0,0,0,1.978-.817,2.755,2.755,0,0,0,.6-1.1H34a3.276,3.276,0,0,1-.409,1.156,4.111,4.111,0,0,1-.778,1.042,3.687,3.687,0,0,1-1.784.949,5.42,5.42,0,0,1-1.292.141,3.964,3.964,0,0,1-2.979-1.279,4.976,4.976,0,0,1-1.222-3.582,5.41,5.41,0,0,1,1.23-3.683A4.059,4.059,0,0,1,29.979,4.376ZM32.5,8.542A4.1,4.1,0,0,0,32.053,6.9a2.3,2.3,0,0,0-2.171-1.143,2.406,2.406,0,0,0-1.828.787,2.972,2.972,0,0,0-.782,2Zm3.57-3.955h1.5V5.923A4.215,4.215,0,0,1,38.99,4.736a3.773,3.773,0,0,1,1.661-.36,2.739,2.739,0,0,1,2.707,1.4,4.962,4.962,0,0,1,.387,2.188V14H42.136V8.067a3.212,3.212,0,0,0-.255-1.389A1.545,1.545,0,0,0,40.352,5.8a3.114,3.114,0,0,0-.923.114,2.377,2.377,0,0,0-1.143.773,2.329,2.329,0,0,0-.514.962,6.478,6.478,0,0,0-.119,1.419V14H36.072ZM46.4,1.959H48V4.587h1.5V5.879H48v6.144a.665.665,0,0,0,.334.659,1.42,1.42,0,0,0,.615.1q.114,0,.246,0t.308-.022V14a3.532,3.532,0,0,1-.567.114,5.39,5.39,0,0,1-.637.035,1.717,1.717,0,0,1-1.5-.567,2.519,2.519,0,0,1-.4-1.472V5.879H45.126V4.587H46.4Zm4.686,2.672H52.7V14H51.087Zm0-3.542H52.7V2.882H51.087Zm4.4,2.065a2.821,2.821,0,0,1,.343-1.441A2.423,2.423,0,0,1,57.962.9q.149,0,.308.009t.36.026V2.381q-.246-.018-.356-.022t-.207,0q-.721,0-.861.374a7.385,7.385,0,0,0-.141,1.9H58.63V5.879H57.048V14H55.483V5.879h-1.31V4.631h1.31Zm4.607,1.477H61.7V14H60.091Zm0-3.542H61.7V2.882H60.091Zm7.631,3.226a4.1,4.1,0,0,1,2.588.773,3.705,3.705,0,0,1,1.2,2.663H69.971a2.839,2.839,0,0,0-.642-1.446,2.027,2.027,0,0,0-1.608-.576,2.222,2.222,0,0,0-2.162,1.477,5.865,5.865,0,0,0-.422,2.364,4.449,4.449,0,0,0,.6,2.382,2.317,2.317,0,0,0,3.441.365,3.311,3.311,0,0,0,.8-1.648h1.538a4.129,4.129,0,0,1-1.318,2.738,4.113,4.113,0,0,1-2.7.866,3.6,3.6,0,0,1-2.944-1.349,5.164,5.164,0,0,1-1.1-3.371,5.678,5.678,0,0,1,1.2-3.858A3.891,3.891,0,0,1,67.721,4.314ZM74.306,11.5a1.3,1.3,0,0,0,.5,1.081,1.857,1.857,0,0,0,1.187.4,3.608,3.608,0,0,0,1.617-.387,2.176,2.176,0,0,0,1.318-2.1V9.21a2.707,2.707,0,0,1-.747.308,6.366,6.366,0,0,1-.9.176l-.958.123a3.664,3.664,0,0,0-1.292.36A1.4,1.4,0,0,0,74.306,11.5Zm3.832-3.2a.859.859,0,0,0,.729-.457,1.391,1.391,0,0,0,.105-.606A1.285,1.285,0,0,0,78.4,6.059a3.089,3.089,0,0,0-1.648-.365,2.094,2.094,0,0,0-1.758.668,2.2,2.2,0,0,0-.378,1.1H73.137A2.718,2.718,0,0,1,74.267,5.04a4.637,4.637,0,0,1,2.518-.681,5.124,5.124,0,0,1,2.7.633A2.147,2.147,0,0,1,80.511,6.96v5.423a.694.694,0,0,0,.1.4.487.487,0,0,0,.426.149q.105,0,.237-.013t.281-.04v1.169a4.406,4.406,0,0,1-.562.132,4.111,4.111,0,0,1-.527.026,1.3,1.3,0,0,1-1.187-.58,2.239,2.239,0,0,1-.272-.87,4.025,4.025,0,0,1-1.389,1.1,4.3,4.3,0,0,1-2,.466,2.967,2.967,0,0,1-2.14-.8,2.642,2.642,0,0,1-.831-1.991,2.564,2.564,0,0,1,.817-2.03,3.889,3.889,0,0,1,2.145-.888Zm8.6-3.981a4.1,4.1,0,0,1,2.588.773,3.705,3.705,0,0,1,1.2,2.663H88.986a2.839,2.839,0,0,0-.642-1.446,2.027,2.027,0,0,0-1.608-.576,2.222,2.222,0,0,0-2.162,1.477,5.865,5.865,0,0,0-.422,2.364,4.449,4.449,0,0,0,.6,2.382,2.317,2.317,0,0,0,3.441.365,3.311,3.311,0,0,0,.8-1.648h1.538a4.129,4.129,0,0,1-1.318,2.738,4.113,4.113,0,0,1-2.7.866,3.6,3.6,0,0,1-2.944-1.349,5.164,5.164,0,0,1-1.1-3.371,5.678,5.678,0,0,1,1.2-3.858A3.891,3.891,0,0,1,86.736,4.314Zm5.372.316h1.608V14H92.108Zm0-3.542h1.608V2.882H92.108ZM99.844,12.98A2.182,2.182,0,0,0,102,11.79a5.933,5.933,0,0,0,.584-2.65A4.718,4.718,0,0,0,102.164,7a2.373,2.373,0,0,0-2.3-1.3A2.271,2.271,0,0,0,97.752,6.8a5.133,5.133,0,0,0-.659,2.672,4.465,4.465,0,0,0,.659,2.5A2.322,2.322,0,0,0,99.844,12.98Zm.062-8.666a4.262,4.262,0,0,1,3.076,1.213A4.736,4.736,0,0,1,104.238,9.1a6.122,6.122,0,0,1-1.107,3.762,4.006,4.006,0,0,1-3.437,1.485,3.88,3.88,0,0,1-3.085-1.314A5.19,5.19,0,0,1,95.467,9.5a5.615,5.615,0,0,1,1.2-3.779A4.041,4.041,0,0,1,99.905,4.314ZM101.742.8,99.4,3.339H98.183L99.791.8Zm4.379,3.788h1.5V5.923a4.215,4.215,0,0,1,1.415-1.187,3.773,3.773,0,0,1,1.661-.36,2.739,2.739,0,0,1,2.707,1.4,4.962,4.962,0,0,1,.387,2.188V14h-1.608V8.067a3.212,3.212,0,0,0-.255-1.389A1.545,1.545,0,0,0,110.4,5.8a3.114,3.114,0,0,0-.923.114,2.377,2.377,0,0,0-1.143.773,2.329,2.329,0,0,0-.514.962,6.478,6.478,0,0,0-.119,1.419V14h-1.582ZM122.138,9.4a4.666,4.666,0,0,0,.642,2.531,2.248,2.248,0,0,0,2.057,1.02,2.166,2.166,0,0,0,1.806-.945A4.462,4.462,0,0,0,127.35,9.3a4.009,4.009,0,0,0-.729-2.641,2.276,2.276,0,0,0-1.8-.857,2.378,2.378,0,0,0-1.938.914A4.186,4.186,0,0,0,122.138,9.4ZM124.52,4.42a3.349,3.349,0,0,1,1.811.457,4.253,4.253,0,0,1,.958.923V1.045h1.521V14h-1.424V12.69a3.423,3.423,0,0,1-1.31,1.257,3.748,3.748,0,0,1-1.731.387,3.506,3.506,0,0,1-2.725-1.323,5.172,5.172,0,0,1-1.151-3.52,6.076,6.076,0,0,1,1.05-3.564A3.439,3.439,0,0,1,124.52,4.42Zm10.549-.044a4.294,4.294,0,0,1,1.942.47,3.582,3.582,0,0,1,1.433,1.217,4.2,4.2,0,0,1,.633,1.661,10.868,10.868,0,0,1,.141,2.074h-6.9a4.026,4.026,0,0,0,.677,2.3,2.266,2.266,0,0,0,1.96.866,2.534,2.534,0,0,0,1.978-.817,2.755,2.755,0,0,0,.6-1.1h1.556a3.276,3.276,0,0,1-.409,1.156,4.111,4.111,0,0,1-.778,1.042,3.687,3.687,0,0,1-1.784.949,5.42,5.42,0,0,1-1.292.141,3.964,3.964,0,0,1-2.979-1.279,4.976,4.976,0,0,1-1.222-3.582,5.41,5.41,0,0,1,1.23-3.683A4.059,4.059,0,0,1,135.069,4.376Zm2.522,4.166a4.1,4.1,0,0,0-.448-1.644,2.3,2.3,0,0,0-2.171-1.143,2.406,2.406,0,0,0-1.828.787,2.972,2.972,0,0,0-.782,2ZM149.9,12.98a2.182,2.182,0,0,0,2.158-1.191,5.933,5.933,0,0,0,.584-2.65A4.718,4.718,0,0,0,152.22,7a2.373,2.373,0,0,0-2.3-1.3A2.271,2.271,0,0,0,147.808,6.8a5.133,5.133,0,0,0-.659,2.672,4.465,4.465,0,0,0,.659,2.5A2.322,2.322,0,0,0,149.9,12.98Zm.062-8.666a4.262,4.262,0,0,1,3.076,1.213A4.736,4.736,0,0,1,154.294,9.1a6.122,6.122,0,0,1-1.107,3.762,4.006,4.006,0,0,1-3.437,1.485,3.88,3.88,0,0,1-3.085-1.314A5.19,5.19,0,0,1,145.522,9.5a5.615,5.615,0,0,1,1.2-3.779A4.041,4.041,0,0,1,149.961,4.314Zm10.188,8.622a2.257,2.257,0,0,0,1.841-.927,4.413,4.413,0,0,0,.734-2.773A5.176,5.176,0,0,0,162.4,7.3a2.383,2.383,0,0,0-4.5.088,6.514,6.514,0,0,0-.325,2.232,4.732,4.732,0,0,0,.325,1.854A2.243,2.243,0,0,0,160.149,12.937Zm-4.1-8.306h1.538V5.879a3.84,3.84,0,0,1,1.037-.993,3.338,3.338,0,0,1,1.881-.527,3.537,3.537,0,0,1,2.716,1.226,5.023,5.023,0,0,1,1.116,3.5q0,3.076-1.608,4.395a3.634,3.634,0,0,1-2.373.835,3.221,3.221,0,0,1-1.784-.466,4.111,4.111,0,0,1-.94-.905v4.808h-1.582Zm13.871,8.35a2.182,2.182,0,0,0,2.158-1.191,5.933,5.933,0,0,0,.584-2.65A4.718,4.718,0,0,0,172.245,7a2.373,2.373,0,0,0-2.3-1.3A2.271,2.271,0,0,0,167.833,6.8a5.133,5.133,0,0,0-.659,2.672,4.465,4.465,0,0,0,.659,2.5A2.322,2.322,0,0,0,169.925,12.98Zm.062-8.666a4.262,4.262,0,0,1,3.076,1.213A4.736,4.736,0,0,1,174.319,9.1a6.122,6.122,0,0,1-1.107,3.762,4.006,4.006,0,0,1-3.437,1.485,3.88,3.88,0,0,1-3.085-1.314A5.19,5.19,0,0,1,165.548,9.5a5.615,5.615,0,0,1,1.2-3.779A4.041,4.041,0,0,1,169.986,4.314Zm6.26.272h1.5V6.213a3.592,3.592,0,0,1,.905-1.156,2.347,2.347,0,0,1,1.661-.681q.044,0,.149.009t.36.035V6.09a2.363,2.363,0,0,0-.259-.035q-.119-.009-.259-.009a2.258,2.258,0,0,0-1.837.769,2.684,2.684,0,0,0-.642,1.771V14h-1.582Zm6.268-2.628h1.6V4.587h1.5V5.879h-1.5v6.144a.665.665,0,0,0,.334.659,1.42,1.42,0,0,0,.615.1q.114,0,.246,0t.308-.022V14a3.532,3.532,0,0,1-.567.114,5.39,5.39,0,0,1-.637.035,1.717,1.717,0,0,1-1.5-.567,2.519,2.519,0,0,1-.4-1.472V5.879H181.24V4.587h1.274Zm6.268,2.628v6.249a2.635,2.635,0,0,0,.229,1.178,1.6,1.6,0,0,0,1.573.844,2.224,2.224,0,0,0,2.25-1.477,5.858,5.858,0,0,0,.325-2.171V4.587h1.582V14h-1.494l.018-1.389a3.191,3.191,0,0,1-.765.905,3.365,3.365,0,0,1-2.2.738,2.834,2.834,0,0,1-2.742-1.345,4,4,0,0,1-.4-1.925v-6.4Zm8.431,0h1.5V5.923a4.215,4.215,0,0,1,1.415-1.187,3.773,3.773,0,0,1,1.661-.36,2.739,2.739,0,0,1,2.707,1.4,4.962,4.962,0,0,1,.387,2.188V14h-1.608V8.067a3.212,3.212,0,0,0-.255-1.389,1.545,1.545,0,0,0-1.529-.879,3.114,3.114,0,0,0-.923.114,2.377,2.377,0,0,0-1.143.773,2.329,2.329,0,0,0-.514.962,6.478,6.478,0,0,0-.119,1.419V14h-1.582Zm10.013.044h1.608V14h-1.608Zm0-3.542h1.608V2.882h-1.608Zm5,8.314a4.666,4.666,0,0,0,.642,2.531,2.248,2.248,0,0,0,2.057,1.02,2.166,2.166,0,0,0,1.806-.945A4.462,4.462,0,0,0,217.44,9.3a4.009,4.009,0,0,0-.729-2.641,2.276,2.276,0,0,0-1.8-.857,2.378,2.378,0,0,0-1.938.914A4.186,4.186,0,0,0,212.228,9.4ZM214.61,4.42a3.349,3.349,0,0,1,1.811.457,4.253,4.253,0,0,1,.958.923V1.045H218.9V14h-1.424V12.69a3.423,3.423,0,0,1-1.31,1.257,3.748,3.748,0,0,1-1.731.387,3.506,3.506,0,0,1-2.725-1.323,5.172,5.172,0,0,1-1.151-3.52,6.076,6.076,0,0,1,1.05-3.564A3.439,3.439,0,0,1,214.61,4.42Zm7.842,7.075a1.3,1.3,0,0,0,.5,1.081,1.857,1.857,0,0,0,1.187.4,3.608,3.608,0,0,0,1.617-.387,2.176,2.176,0,0,0,1.318-2.1V9.21a2.707,2.707,0,0,1-.747.308,6.366,6.366,0,0,1-.9.176l-.958.123a3.664,3.664,0,0,0-1.292.36A1.4,1.4,0,0,0,222.452,11.5Zm3.832-3.2a.859.859,0,0,0,.729-.457,1.391,1.391,0,0,0,.105-.606,1.285,1.285,0,0,0-.576-1.173,3.089,3.089,0,0,0-1.648-.365,2.094,2.094,0,0,0-1.758.668,2.2,2.2,0,0,0-.378,1.1h-1.477a2.718,2.718,0,0,1,1.129-2.421,4.637,4.637,0,0,1,2.518-.681,5.124,5.124,0,0,1,2.7.633,2.147,2.147,0,0,1,1.028,1.969v5.423a.694.694,0,0,0,.1.4.487.487,0,0,0,.426.149q.105,0,.237-.013t.281-.04v1.169a4.406,4.406,0,0,1-.562.132,4.111,4.111,0,0,1-.527.026,1.3,1.3,0,0,1-1.187-.58,2.239,2.239,0,0,1-.272-.87,4.025,4.025,0,0,1-1.389,1.1,4.3,4.3,0,0,1-2,.466,2.967,2.967,0,0,1-2.14-.8,2.642,2.642,0,0,1-.831-1.991,2.564,2.564,0,0,1,.817-2.03,3.889,3.889,0,0,1,2.145-.888Zm5.97,1.107a4.666,4.666,0,0,0,.642,2.531,2.248,2.248,0,0,0,2.057,1.02,2.166,2.166,0,0,0,1.806-.945,4.462,4.462,0,0,0,.708-2.711,4.009,4.009,0,0,0-.729-2.641,2.276,2.276,0,0,0-1.8-.857A2.378,2.378,0,0,0,233,6.714,4.186,4.186,0,0,0,232.253,9.4Zm2.382-4.983a3.349,3.349,0,0,1,1.811.457,4.253,4.253,0,0,1,.958.923V1.045h1.521V14H237.5V12.69a3.423,3.423,0,0,1-1.31,1.257,3.748,3.748,0,0,1-1.731.387,3.506,3.506,0,0,1-2.725-1.323,5.172,5.172,0,0,1-1.151-3.52,6.076,6.076,0,0,1,1.05-3.564A3.439,3.439,0,0,1,234.635,4.42Zm10.549-.044a4.294,4.294,0,0,1,1.942.47,3.582,3.582,0,0,1,1.433,1.217,4.2,4.2,0,0,1,.633,1.661,10.868,10.868,0,0,1,.141,2.074h-6.9a4.026,4.026,0,0,0,.677,2.3,2.266,2.266,0,0,0,1.96.866,2.534,2.534,0,0,0,1.978-.817,2.755,2.755,0,0,0,.6-1.1H249.2a3.276,3.276,0,0,1-.409,1.156,4.111,4.111,0,0,1-.778,1.042,3.687,3.687,0,0,1-1.784.949,5.42,5.42,0,0,1-1.292.141,3.964,3.964,0,0,1-2.979-1.279,4.976,4.976,0,0,1-1.222-3.582,5.41,5.41,0,0,1,1.23-3.683A4.059,4.059,0,0,1,245.184,4.376Zm2.522,4.166a4.1,4.1,0,0,0-.448-1.644,2.3,2.3,0,0,0-2.171-1.143,2.406,2.406,0,0,0-1.828.787,2.972,2.972,0,0,0-.782,2Zm4.511,2.5a2.3,2.3,0,0,0,.4,1.213,2.485,2.485,0,0,0,2.074.765,3.059,3.059,0,0,0,1.547-.382,1.27,1.27,0,0,0,.668-1.182,1.011,1.011,0,0,0-.536-.923,6.374,6.374,0,0,0-1.354-.448l-1.257-.316A6.131,6.131,0,0,1,251.98,9.1a2,2,0,0,1-1.02-1.775,2.713,2.713,0,0,1,.962-2.162,3.839,3.839,0,0,1,2.588-.826,3.593,3.593,0,0,1,3.067,1.248,2.708,2.708,0,0,1,.571,1.705h-1.494a1.83,1.83,0,0,0-.378-.976,2.41,2.41,0,0,0-1.89-.624,2.259,2.259,0,0,0-1.358.343,1.074,1.074,0,0,0-.461.905,1.114,1.114,0,0,0,.606.984,3.644,3.644,0,0,0,1.037.387l1.046.255a8.087,8.087,0,0,1,2.285.8,2.118,2.118,0,0,1,.923,1.907,2.906,2.906,0,0,1-.954,2.171,4.059,4.059,0,0,1-2.9.914,3.9,3.9,0,0,1-2.975-.954,3.606,3.606,0,0,1-.936-2.36Z" transform="translate(730 981)" fill="#0b0a0a"/>
      <path id="Trazado_985662" data-name="Trazado 985662" d="M102.233,1.089H104V14h-1.767Zm5.4,8.314a4.666,4.666,0,0,0,.642,2.531,2.248,2.248,0,0,0,2.057,1.02,2.166,2.166,0,0,0,1.806-.945,4.462,4.462,0,0,0,.708-2.711,4.009,4.009,0,0,0-.729-2.641,2.276,2.276,0,0,0-1.8-.857,2.378,2.378,0,0,0-1.938.914A4.186,4.186,0,0,0,107.632,9.4Zm2.382-4.983a3.349,3.349,0,0,1,1.811.457,4.253,4.253,0,0,1,.958.923V1.045H114.3V14h-1.424V12.69a3.423,3.423,0,0,1-1.31,1.257,3.748,3.748,0,0,1-1.731.387,3.506,3.506,0,0,1-2.725-1.323,5.172,5.172,0,0,1-1.151-3.52,6.076,6.076,0,0,1,1.05-3.564A3.439,3.439,0,0,1,110.014,4.42Zm10.549-.044a4.294,4.294,0,0,1,1.942.47,3.582,3.582,0,0,1,1.433,1.217,4.2,4.2,0,0,1,.633,1.661,10.868,10.868,0,0,1,.141,2.074h-6.9a4.026,4.026,0,0,0,.677,2.3,2.266,2.266,0,0,0,1.96.866,2.534,2.534,0,0,0,1.978-.817,2.755,2.755,0,0,0,.6-1.1h1.556a3.276,3.276,0,0,1-.409,1.156,4.111,4.111,0,0,1-.778,1.042,3.687,3.687,0,0,1-1.784.949,5.42,5.42,0,0,1-1.292.141,3.964,3.964,0,0,1-2.979-1.279,4.976,4.976,0,0,1-1.222-3.582,5.41,5.41,0,0,1,1.23-3.683A4.059,4.059,0,0,1,120.562,4.376Zm2.522,4.166a4.1,4.1,0,0,0-.448-1.644,2.3,2.3,0,0,0-2.171-1.143,2.406,2.406,0,0,0-1.828.787,2.972,2.972,0,0,0-.782,2Zm4.783,2.953a1.3,1.3,0,0,0,.5,1.081,1.857,1.857,0,0,0,1.187.4,3.608,3.608,0,0,0,1.617-.387,2.176,2.176,0,0,0,1.318-2.1V9.21a2.707,2.707,0,0,1-.747.308,6.366,6.366,0,0,1-.9.176l-.958.123a3.664,3.664,0,0,0-1.292.36A1.4,1.4,0,0,0,127.868,11.5ZM131.7,8.3a.859.859,0,0,0,.729-.457,1.391,1.391,0,0,0,.105-.606,1.285,1.285,0,0,0-.576-1.173,3.089,3.089,0,0,0-1.648-.365,2.094,2.094,0,0,0-1.758.668,2.2,2.2,0,0,0-.378,1.1H126.7a2.718,2.718,0,0,1,1.129-2.421,4.637,4.637,0,0,1,2.518-.681,5.124,5.124,0,0,1,2.7.633,2.147,2.147,0,0,1,1.028,1.969v5.423a.694.694,0,0,0,.1.4.487.487,0,0,0,.426.149q.105,0,.237-.013t.281-.04v1.169a4.406,4.406,0,0,1-.562.132,4.111,4.111,0,0,1-.527.026,1.3,1.3,0,0,1-1.187-.58,2.239,2.239,0,0,1-.272-.87,4.025,4.025,0,0,1-1.389,1.1,4.3,4.3,0,0,1-2,.466,2.967,2.967,0,0,1-2.14-.8,2.642,2.642,0,0,1-.831-1.991,2.564,2.564,0,0,1,.817-2.03,3.889,3.889,0,0,1,2.145-.888Zm8.6-3.981a4.1,4.1,0,0,1,2.588.773,3.705,3.705,0,0,1,1.2,2.663h-1.538a2.839,2.839,0,0,0-.642-1.446,2.027,2.027,0,0,0-1.608-.576,2.222,2.222,0,0,0-2.162,1.477,5.865,5.865,0,0,0-.422,2.364,4.449,4.449,0,0,0,.6,2.382,2.317,2.317,0,0,0,3.441.365,3.311,3.311,0,0,0,.8-1.648h1.538a4.129,4.129,0,0,1-1.318,2.738,4.113,4.113,0,0,1-2.7.866,3.6,3.6,0,0,1-2.944-1.349,5.164,5.164,0,0,1-1.1-3.371,5.678,5.678,0,0,1,1.2-3.858A3.891,3.891,0,0,1,140.3,4.314Zm5.372.316h1.608V14h-1.608Zm0-3.542h1.608V2.882h-1.608Zm7.736,11.892a2.182,2.182,0,0,0,2.158-1.191,5.933,5.933,0,0,0,.584-2.65A4.718,4.718,0,0,0,155.726,7a2.373,2.373,0,0,0-2.3-1.3A2.271,2.271,0,0,0,151.314,6.8a5.133,5.133,0,0,0-.659,2.672,4.465,4.465,0,0,0,.659,2.5A2.322,2.322,0,0,0,153.405,12.98Zm.062-8.666a4.262,4.262,0,0,1,3.076,1.213A4.736,4.736,0,0,1,157.8,9.1a6.122,6.122,0,0,1-1.107,3.762,4.006,4.006,0,0,1-3.437,1.485,3.88,3.88,0,0,1-3.085-1.314A5.19,5.19,0,0,1,149.028,9.5a5.615,5.615,0,0,1,1.2-3.779A4.041,4.041,0,0,1,153.467,4.314ZM155.3.8l-2.347,2.54h-1.213L153.353.8Zm4.379,3.788h1.5V5.923A4.215,4.215,0,0,1,162.6,4.736a3.773,3.773,0,0,1,1.661-.36,2.739,2.739,0,0,1,2.707,1.4,4.962,4.962,0,0,1,.387,2.188V14h-1.608V8.067a3.212,3.212,0,0,0-.255-1.389,1.545,1.545,0,0,0-1.529-.879,3.114,3.114,0,0,0-.923.114,2.377,2.377,0,0,0-1.143.773,2.329,2.329,0,0,0-.514.962,6.478,6.478,0,0,0-.119,1.419V14h-1.582Z" transform="translate(730 1077)" fill="#0b0a0a"/>
      <path id="Trazado_985663" data-name="Trazado 985663" d="M90,1.089h5.81a3.938,3.938,0,0,1,2.777.971,3.524,3.524,0,0,1,1.055,2.729,3.968,3.968,0,0,1-.94,2.632,3.563,3.563,0,0,1-2.892,1.121H91.745V14H90ZM97.871,4.8a1.943,1.943,0,0,0-1.055-1.934,3.808,3.808,0,0,0-1.591-.272h-3.48V7.065h3.48a3.326,3.326,0,0,0,1.912-.5A1.985,1.985,0,0,0,97.871,4.8Zm3.8-.211h1.5V6.213a3.592,3.592,0,0,1,.905-1.156,2.347,2.347,0,0,1,1.661-.681q.044,0,.149.009t.36.035V6.09a2.363,2.363,0,0,0-.259-.035q-.119-.009-.259-.009a2.258,2.258,0,0,0-1.837.769,2.684,2.684,0,0,0-.642,1.771V14H101.67Zm9.687,8.394a2.182,2.182,0,0,0,2.158-1.191,5.933,5.933,0,0,0,.584-2.65A4.718,4.718,0,0,0,113.678,7a2.373,2.373,0,0,0-2.3-1.3A2.271,2.271,0,0,0,109.266,6.8a5.133,5.133,0,0,0-.659,2.672,4.465,4.465,0,0,0,.659,2.5A2.322,2.322,0,0,0,111.357,12.98Zm.062-8.666A4.262,4.262,0,0,1,114.5,5.527,4.736,4.736,0,0,1,115.752,9.1a6.122,6.122,0,0,1-1.107,3.762,4.006,4.006,0,0,1-3.437,1.485,3.88,3.88,0,0,1-3.085-1.314A5.19,5.19,0,0,1,106.98,9.5a5.615,5.615,0,0,1,1.2-3.779A4.041,4.041,0,0,1,111.419,4.314Zm6.532-2.355h1.6V4.587h1.5V5.879h-1.5v6.144a.665.665,0,0,0,.334.659,1.42,1.42,0,0,0,.615.1q.114,0,.246,0t.308-.022V14a3.532,3.532,0,0,1-.567.114,5.39,5.39,0,0,1-.637.035,1.717,1.717,0,0,1-1.5-.567,2.519,2.519,0,0,1-.4-1.472V5.879h-1.274V4.587h1.274Zm8.422,11.021a2.182,2.182,0,0,0,2.158-1.191,5.933,5.933,0,0,0,.584-2.65A4.718,4.718,0,0,0,128.693,7a2.373,2.373,0,0,0-2.3-1.3A2.271,2.271,0,0,0,124.281,6.8a5.133,5.133,0,0,0-.659,2.672,4.465,4.465,0,0,0,.659,2.5A2.322,2.322,0,0,0,126.373,12.98Zm.062-8.666a4.262,4.262,0,0,1,3.076,1.213A4.736,4.736,0,0,1,130.767,9.1a6.122,6.122,0,0,1-1.107,3.762,4.006,4.006,0,0,1-3.437,1.485,3.88,3.88,0,0,1-3.085-1.314A5.19,5.19,0,0,1,122,9.5a5.615,5.615,0,0,1,1.2-3.779A4.041,4.041,0,0,1,126.434,4.314Zm6.532-2.355h1.6V4.587h1.5V5.879h-1.5v6.144a.665.665,0,0,0,.334.659,1.42,1.42,0,0,0,.615.1q.114,0,.246,0t.308-.022V14a3.532,3.532,0,0,1-.567.114,5.39,5.39,0,0,1-.637.035,1.717,1.717,0,0,1-1.5-.567,2.519,2.519,0,0,1-.4-1.472V5.879h-1.274V4.587h1.274Zm4.686,2.672h1.608V14h-1.608Zm0-3.542h1.608V2.882h-1.608Zm7.973,11.848a2.257,2.257,0,0,0,1.841-.927,4.413,4.413,0,0,0,.734-2.773,5.176,5.176,0,0,0-.325-1.934,2.383,2.383,0,0,0-4.5.088,6.514,6.514,0,0,0-.325,2.232,4.732,4.732,0,0,0,.325,1.854A2.243,2.243,0,0,0,145.626,12.937Zm-4.1-8.306h1.538V5.879a3.84,3.84,0,0,1,1.037-.993,3.338,3.338,0,0,1,1.881-.527A3.537,3.537,0,0,1,148.7,5.584a5.023,5.023,0,0,1,1.116,3.5q0,3.076-1.608,4.395a3.634,3.634,0,0,1-2.373.835,3.221,3.221,0,0,1-1.784-.466,4.111,4.111,0,0,1-.94-.905v4.808H141.53ZM152.879,11.5a1.3,1.3,0,0,0,.5,1.081,1.857,1.857,0,0,0,1.187.4,3.608,3.608,0,0,0,1.617-.387,2.176,2.176,0,0,0,1.318-2.1V9.21a2.707,2.707,0,0,1-.747.308,6.366,6.366,0,0,1-.9.176l-.958.123a3.664,3.664,0,0,0-1.292.36A1.4,1.4,0,0,0,152.879,11.5Zm3.832-3.2a.859.859,0,0,0,.729-.457,1.391,1.391,0,0,0,.105-.606,1.285,1.285,0,0,0-.576-1.173,3.089,3.089,0,0,0-1.648-.365,2.094,2.094,0,0,0-1.758.668,2.2,2.2,0,0,0-.378,1.1H151.71a2.718,2.718,0,0,1,1.129-2.421,4.637,4.637,0,0,1,2.518-.681,5.124,5.124,0,0,1,2.7.633,2.147,2.147,0,0,1,1.028,1.969v5.423a.694.694,0,0,0,.1.4.487.487,0,0,0,.426.149q.105,0,.237-.013t.281-.04v1.169a4.406,4.406,0,0,1-.562.132,4.111,4.111,0,0,1-.527.026,1.3,1.3,0,0,1-1.187-.58,2.239,2.239,0,0,1-.272-.87,4.025,4.025,0,0,1-1.389,1.1,4.3,4.3,0,0,1-2,.466,2.967,2.967,0,0,1-2.14-.8,2.642,2.642,0,0,1-.831-1.991,2.564,2.564,0,0,1,.817-2.03,3.889,3.889,0,0,1,2.145-.888Zm5.97,1.107a4.666,4.666,0,0,0,.642,2.531,2.248,2.248,0,0,0,2.057,1.02,2.166,2.166,0,0,0,1.806-.945,4.462,4.462,0,0,0,.708-2.711,4.009,4.009,0,0,0-.729-2.641,2.276,2.276,0,0,0-1.8-.857,2.378,2.378,0,0,0-1.938.914A4.186,4.186,0,0,0,162.681,9.4Zm2.382-4.983a3.349,3.349,0,0,1,1.811.457,4.253,4.253,0,0,1,.958.923V1.045h1.521V14h-1.424V12.69a3.423,3.423,0,0,1-1.31,1.257,3.748,3.748,0,0,1-1.731.387,3.506,3.506,0,0,1-2.725-1.323,5.172,5.172,0,0,1-1.151-3.52,6.076,6.076,0,0,1,1.05-3.564A3.439,3.439,0,0,1,165.062,4.42Zm10.364,8.561a2.182,2.182,0,0,0,2.158-1.191,5.933,5.933,0,0,0,.584-2.65A4.718,4.718,0,0,0,177.747,7a2.373,2.373,0,0,0-2.3-1.3A2.271,2.271,0,0,0,173.335,6.8a5.133,5.133,0,0,0-.659,2.672,4.465,4.465,0,0,0,.659,2.5A2.322,2.322,0,0,0,175.426,12.98Zm.062-8.666a4.262,4.262,0,0,1,3.076,1.213A4.736,4.736,0,0,1,179.821,9.1a6.122,6.122,0,0,1-1.107,3.762,4.006,4.006,0,0,1-3.437,1.485,3.88,3.88,0,0,1-3.085-1.314A5.19,5.19,0,0,1,171.05,9.5a5.615,5.615,0,0,1,1.2-3.779A4.041,4.041,0,0,1,175.488,4.314Z" transform="translate(730 1161.5)" fill="#0b0a0a"/>
      <path id="Trazado_985664" data-name="Trazado 985664" d="M72.723,1.089H74.49V14H72.723Zm4.4,3.5h1.564V5.923A5.258,5.258,0,0,1,79.7,4.912a3.066,3.066,0,0,1,1.775-.536,2.794,2.794,0,0,1,1.811.554,2.894,2.894,0,0,1,.7.932,3.419,3.419,0,0,1,1.239-1.121,3.457,3.457,0,0,1,1.6-.365,2.616,2.616,0,0,1,2.584,1.371,4.482,4.482,0,0,1,.369,1.986V14H88.141V7.461a1.523,1.523,0,0,0-.47-1.292,1.861,1.861,0,0,0-1.147-.352,2.277,2.277,0,0,0-1.6.624,2.74,2.74,0,0,0-.672,2.083V14H82.639V7.856a3.192,3.192,0,0,0-.229-1.4A1.394,1.394,0,0,0,81.066,5.8a2.32,2.32,0,0,0-1.63.694A3.4,3.4,0,0,0,78.7,9.008V14H77.119Zm18.969,8.35a2.257,2.257,0,0,0,1.841-.927,4.413,4.413,0,0,0,.734-2.773A5.176,5.176,0,0,0,98.338,7.3a2.383,2.383,0,0,0-4.5.088,6.514,6.514,0,0,0-.325,2.232,4.732,4.732,0,0,0,.325,1.854A2.243,2.243,0,0,0,96.088,12.937Zm-4.1-8.306H93.53V5.879a3.84,3.84,0,0,1,1.037-.993,3.338,3.338,0,0,1,1.881-.527,3.537,3.537,0,0,1,2.716,1.226,5.023,5.023,0,0,1,1.116,3.5q0,3.076-1.608,4.395a3.634,3.634,0,0,1-2.373.835,3.221,3.221,0,0,1-1.784-.466,4.111,4.111,0,0,1-.94-.905v4.808H91.992Zm10.18-3.542h1.582V14h-1.582Zm7.877,3.287a4.294,4.294,0,0,1,1.942.47,3.582,3.582,0,0,1,1.433,1.217,4.2,4.2,0,0,1,.633,1.661A10.868,10.868,0,0,1,114.2,9.8h-6.9a4.026,4.026,0,0,0,.677,2.3,2.266,2.266,0,0,0,1.96.866,2.534,2.534,0,0,0,1.978-.817,2.755,2.755,0,0,0,.6-1.1h1.556a3.276,3.276,0,0,1-.409,1.156,4.111,4.111,0,0,1-.778,1.042,3.687,3.687,0,0,1-1.784.949,5.42,5.42,0,0,1-1.292.141,3.964,3.964,0,0,1-2.979-1.279A4.976,4.976,0,0,1,105.6,9.474a5.41,5.41,0,0,1,1.23-3.683A4.059,4.059,0,0,1,110.049,4.376Zm2.522,4.166a4.1,4.1,0,0,0-.448-1.644,2.3,2.3,0,0,0-2.171-1.143,2.406,2.406,0,0,0-1.828.787,2.972,2.972,0,0,0-.782,2Zm3.57-3.955h1.564V5.923a5.258,5.258,0,0,1,1.02-1.011,3.066,3.066,0,0,1,1.775-.536,2.794,2.794,0,0,1,1.811.554,2.894,2.894,0,0,1,.7.932,3.419,3.419,0,0,1,1.239-1.121,3.457,3.457,0,0,1,1.6-.365,2.616,2.616,0,0,1,2.584,1.371,4.482,4.482,0,0,1,.369,1.986V14h-1.644V7.461a1.523,1.523,0,0,0-.47-1.292,1.861,1.861,0,0,0-1.147-.352,2.277,2.277,0,0,0-1.6.624,2.74,2.74,0,0,0-.672,2.083V14h-1.608V7.856a3.192,3.192,0,0,0-.229-1.4,1.394,1.394,0,0,0-1.345-.659,2.32,2.32,0,0,0-1.63.694,3.4,3.4,0,0,0-.734,2.514V14h-1.582Zm18.916-.211a4.294,4.294,0,0,1,1.942.47,3.582,3.582,0,0,1,1.433,1.217,4.2,4.2,0,0,1,.633,1.661,10.868,10.868,0,0,1,.141,2.074h-6.9a4.026,4.026,0,0,0,.677,2.3,2.266,2.266,0,0,0,1.96.866,2.534,2.534,0,0,0,1.978-.817,2.755,2.755,0,0,0,.6-1.1h1.556a3.276,3.276,0,0,1-.409,1.156,4.111,4.111,0,0,1-.778,1.042,3.687,3.687,0,0,1-1.784.949,5.42,5.42,0,0,1-1.292.141,3.964,3.964,0,0,1-2.979-1.279,4.976,4.976,0,0,1-1.222-3.582,5.41,5.41,0,0,1,1.23-3.683A4.059,4.059,0,0,1,135.057,4.376Zm2.522,4.166a4.1,4.1,0,0,0-.448-1.644,2.3,2.3,0,0,0-2.171-1.143,2.406,2.406,0,0,0-1.828.787,2.972,2.972,0,0,0-.782,2Zm3.57-3.955h1.5V5.923a4.215,4.215,0,0,1,1.415-1.187,3.773,3.773,0,0,1,1.661-.36,2.739,2.739,0,0,1,2.707,1.4,4.962,4.962,0,0,1,.387,2.188V14h-1.608V8.067a3.212,3.212,0,0,0-.255-1.389A1.545,1.545,0,0,0,145.43,5.8a3.114,3.114,0,0,0-.923.114,2.377,2.377,0,0,0-1.143.773,2.329,2.329,0,0,0-.514.962,6.478,6.478,0,0,0-.119,1.419V14H141.15Zm10.329-2.628h1.6V4.587h1.5V5.879h-1.5v6.144a.665.665,0,0,0,.334.659,1.42,1.42,0,0,0,.615.1q.114,0,.246,0t.308-.022V14a3.532,3.532,0,0,1-.567.114,5.39,5.39,0,0,1-.637.035,1.717,1.717,0,0,1-1.5-.567,2.519,2.519,0,0,1-.4-1.472V5.879H150.2V4.587h1.274Zm5.9,9.536a1.3,1.3,0,0,0,.5,1.081,1.857,1.857,0,0,0,1.187.4,3.608,3.608,0,0,0,1.617-.387,2.176,2.176,0,0,0,1.318-2.1V9.21a2.707,2.707,0,0,1-.747.308,6.366,6.366,0,0,1-.9.176l-.958.123a3.664,3.664,0,0,0-1.292.36A1.4,1.4,0,0,0,157.378,11.5Zm3.832-3.2a.859.859,0,0,0,.729-.457,1.391,1.391,0,0,0,.105-.606,1.285,1.285,0,0,0-.576-1.173,3.089,3.089,0,0,0-1.648-.365,2.094,2.094,0,0,0-1.758.668,2.2,2.2,0,0,0-.378,1.1h-1.477a2.718,2.718,0,0,1,1.129-2.421,4.637,4.637,0,0,1,2.518-.681,5.124,5.124,0,0,1,2.7.633,2.147,2.147,0,0,1,1.028,1.969v5.423a.694.694,0,0,0,.1.4.487.487,0,0,0,.426.149q.105,0,.237-.013t.281-.04v1.169a4.406,4.406,0,0,1-.562.132,4.111,4.111,0,0,1-.527.026,1.3,1.3,0,0,1-1.187-.58,2.239,2.239,0,0,1-.272-.87,4.025,4.025,0,0,1-1.389,1.1,4.3,4.3,0,0,1-2,.466,2.967,2.967,0,0,1-2.14-.8,2.642,2.642,0,0,1-.831-1.991,2.564,2.564,0,0,1,.817-2.03,3.889,3.889,0,0,1,2.145-.888Zm8.6-3.981a4.1,4.1,0,0,1,2.588.773,3.705,3.705,0,0,1,1.2,2.663h-1.538a2.839,2.839,0,0,0-.642-1.446,2.027,2.027,0,0,0-1.608-.576,2.222,2.222,0,0,0-2.162,1.477,5.865,5.865,0,0,0-.422,2.364,4.449,4.449,0,0,0,.6,2.382,2.317,2.317,0,0,0,3.441.365,3.311,3.311,0,0,0,.8-1.648H173.6a4.129,4.129,0,0,1-1.318,2.738,4.113,4.113,0,0,1-2.7.866,3.6,3.6,0,0,1-2.944-1.349,5.164,5.164,0,0,1-1.1-3.371,5.678,5.678,0,0,1,1.2-3.858A3.891,3.891,0,0,1,169.808,4.314Zm5.372.316h1.608V14h-1.608Zm0-3.542h1.608V2.882h-1.608Zm7.736,11.892a2.182,2.182,0,0,0,2.158-1.191,5.933,5.933,0,0,0,.584-2.65A4.718,4.718,0,0,0,185.236,7a2.373,2.373,0,0,0-2.3-1.3A2.271,2.271,0,0,0,180.824,6.8a5.133,5.133,0,0,0-.659,2.672,4.465,4.465,0,0,0,.659,2.5A2.322,2.322,0,0,0,182.916,12.98Zm.062-8.666a4.262,4.262,0,0,1,3.076,1.213A4.736,4.736,0,0,1,187.31,9.1a6.122,6.122,0,0,1-1.107,3.762,4.006,4.006,0,0,1-3.437,1.485,3.88,3.88,0,0,1-3.085-1.314A5.19,5.19,0,0,1,178.539,9.5a5.615,5.615,0,0,1,1.2-3.779A4.041,4.041,0,0,1,182.977,4.314ZM184.814.8l-2.347,2.54h-1.213L182.863.8Zm4.379,3.788h1.5V5.923a4.215,4.215,0,0,1,1.415-1.187,3.773,3.773,0,0,1,1.661-.36,2.739,2.739,0,0,1,2.707,1.4,4.962,4.962,0,0,1,.387,2.188V14h-1.608V8.067A3.212,3.212,0,0,0,195,6.679a1.545,1.545,0,0,0-1.529-.879,3.114,3.114,0,0,0-.923.114,2.377,2.377,0,0,0-1.143.773,2.329,2.329,0,0,0-.514.962,6.478,6.478,0,0,0-.119,1.419V14h-1.582Z" transform="translate(730 1246)" fill="#0b0a0a"/>
      <path id="Trazado_985665" data-name="Trazado 985665" d="M92,1.089h9.413V2.671H93.706v3.92h7.128V8.085H93.706v4.377h7.84V14H92Zm12.4,3.5,2.514,7.664,2.628-7.664h1.731L107.727,14h-1.687l-3.472-9.413Zm9.441,6.908a1.3,1.3,0,0,0,.5,1.081,1.857,1.857,0,0,0,1.187.4,3.608,3.608,0,0,0,1.617-.387,2.176,2.176,0,0,0,1.318-2.1V9.21a2.707,2.707,0,0,1-.747.308,6.366,6.366,0,0,1-.9.176l-.958.123a3.664,3.664,0,0,0-1.292.36A1.4,1.4,0,0,0,113.846,11.5Zm3.832-3.2a.859.859,0,0,0,.729-.457,1.391,1.391,0,0,0,.105-.606,1.285,1.285,0,0,0-.576-1.173,3.089,3.089,0,0,0-1.648-.365,2.094,2.094,0,0,0-1.758.668,2.2,2.2,0,0,0-.378,1.1h-1.477a2.718,2.718,0,0,1,1.129-2.421,4.637,4.637,0,0,1,2.518-.681,5.124,5.124,0,0,1,2.7.633,2.147,2.147,0,0,1,1.028,1.969v5.423a.694.694,0,0,0,.1.4.487.487,0,0,0,.426.149q.105,0,.237-.013t.281-.04v1.169a4.406,4.406,0,0,1-.562.132,4.111,4.111,0,0,1-.527.026,1.3,1.3,0,0,1-1.187-.58,2.239,2.239,0,0,1-.272-.87,4.025,4.025,0,0,1-1.389,1.1,4.3,4.3,0,0,1-2,.466,2.967,2.967,0,0,1-2.14-.8,2.642,2.642,0,0,1-.831-1.991,2.564,2.564,0,0,1,.817-2.03,3.889,3.889,0,0,1,2.145-.888Zm5.012-7.207h1.582V14h-1.582Zm5.539,3.5v6.249a2.635,2.635,0,0,0,.229,1.178,1.6,1.6,0,0,0,1.573.844,2.224,2.224,0,0,0,2.25-1.477,5.858,5.858,0,0,0,.325-2.171V4.587h1.582V14h-1.494l.018-1.389a3.191,3.191,0,0,1-.765.905,3.365,3.365,0,0,1-2.2.738,2.834,2.834,0,0,1-2.742-1.345,4,4,0,0,1-.4-1.925v-6.4Zm9.643,6.908a1.3,1.3,0,0,0,.5,1.081,1.857,1.857,0,0,0,1.187.4,3.608,3.608,0,0,0,1.617-.387,2.176,2.176,0,0,0,1.318-2.1V9.21a2.707,2.707,0,0,1-.747.308,6.366,6.366,0,0,1-.9.176l-.958.123a3.664,3.664,0,0,0-1.292.36A1.4,1.4,0,0,0,137.872,11.5ZM141.7,8.3a.859.859,0,0,0,.729-.457,1.391,1.391,0,0,0,.105-.606,1.285,1.285,0,0,0-.576-1.173,3.089,3.089,0,0,0-1.648-.365,2.094,2.094,0,0,0-1.758.668,2.2,2.2,0,0,0-.378,1.1H136.7a2.718,2.718,0,0,1,1.129-2.421,4.637,4.637,0,0,1,2.518-.681,5.124,5.124,0,0,1,2.7.633,2.147,2.147,0,0,1,1.028,1.969v5.423a.694.694,0,0,0,.1.4.487.487,0,0,0,.426.149q.105,0,.237-.013t.281-.04v1.169a4.406,4.406,0,0,1-.562.132,4.111,4.111,0,0,1-.527.026,1.3,1.3,0,0,1-1.187-.58,2.239,2.239,0,0,1-.272-.87,4.025,4.025,0,0,1-1.389,1.1,4.3,4.3,0,0,1-2,.466,2.967,2.967,0,0,1-2.14-.8,2.642,2.642,0,0,1-.831-1.991,2.564,2.564,0,0,1,.817-2.03,3.889,3.889,0,0,1,2.145-.888Zm8.6-3.981a4.1,4.1,0,0,1,2.588.773,3.705,3.705,0,0,1,1.2,2.663h-1.538a2.839,2.839,0,0,0-.642-1.446,2.027,2.027,0,0,0-1.608-.576,2.222,2.222,0,0,0-2.162,1.477,5.865,5.865,0,0,0-.422,2.364,4.449,4.449,0,0,0,.6,2.382,2.317,2.317,0,0,0,3.441.365,3.311,3.311,0,0,0,.8-1.648h1.538a4.129,4.129,0,0,1-1.318,2.738,4.113,4.113,0,0,1-2.7.866,3.6,3.6,0,0,1-2.944-1.349,5.164,5.164,0,0,1-1.1-3.371,5.678,5.678,0,0,1,1.2-3.858A3.891,3.891,0,0,1,150.3,4.314Zm5.372.316h1.608V14h-1.608Zm0-3.542h1.608V2.882h-1.608Zm7.736,11.892a2.182,2.182,0,0,0,2.158-1.191,5.933,5.933,0,0,0,.584-2.65A4.718,4.718,0,0,0,165.729,7a2.373,2.373,0,0,0-2.3-1.3A2.271,2.271,0,0,0,161.317,6.8a5.133,5.133,0,0,0-.659,2.672,4.465,4.465,0,0,0,.659,2.5A2.322,2.322,0,0,0,163.409,12.98Zm.062-8.666a4.262,4.262,0,0,1,3.076,1.213A4.736,4.736,0,0,1,167.8,9.1a6.122,6.122,0,0,1-1.107,3.762,4.006,4.006,0,0,1-3.437,1.485,3.88,3.88,0,0,1-3.085-1.314A5.19,5.19,0,0,1,159.032,9.5a5.615,5.615,0,0,1,1.2-3.779A4.041,4.041,0,0,1,163.471,4.314ZM165.308.8l-2.347,2.54h-1.213L163.356.8Zm4.379,3.788h1.5V5.923A4.215,4.215,0,0,1,172.6,4.736a3.773,3.773,0,0,1,1.661-.36,2.739,2.739,0,0,1,2.707,1.4,4.962,4.962,0,0,1,.387,2.188V14h-1.608V8.067a3.212,3.212,0,0,0-.255-1.389,1.545,1.545,0,0,0-1.529-.879,3.114,3.114,0,0,0-.923.114,2.377,2.377,0,0,0-1.143.773,2.329,2.329,0,0,0-.514.962,6.478,6.478,0,0,0-.119,1.419V14h-1.582Z" transform="translate(730 1342)" fill="#0b0a0a"/>
      <path id="Trazado_983297" data-name="Trazado 983297" d="M2472.242,1042h63" transform="translate(-1835.242 131.5)" fill="none" stroke="#5a1a8a" stroke-width="1"/>
      <g transform="matrix(1, 0, 0, 1, 180, 912)" filter="url(#Trazado_985666)">
        <path id="Trazado_985666-2" data-name="Trazado 985666" d="M0,0H64V424H0Z" transform="translate(393 49)" fill="#a530fe"/>
      </g>
      <path id="Contenido" d="M36.012,3.339h-6.5V6.318H35.2v2.25H29.517V14H26.828V1.063h9.185Zm1.969,2.118a4.09,4.09,0,0,1,3.41-1.266,6.059,6.059,0,0,1,2.795.624,2.4,2.4,0,0,1,1.222,2.355v4.395q0,.457.018,1.107a1.392,1.392,0,0,0,.149.668.9.9,0,0,0,.369.29V14H43.219a2.79,2.79,0,0,1-.158-.545q-.044-.255-.07-.58a5.146,5.146,0,0,1-1.2.958,3.6,3.6,0,0,1-1.828.466,3.143,3.143,0,0,1-2.149-.743,2.649,2.649,0,0,1-.848-2.1,2.732,2.732,0,0,1,1.362-2.558,6.049,6.049,0,0,1,2.2-.615l.853-.105a3.91,3.91,0,0,0,.993-.22.753.753,0,0,0,.536-.712.845.845,0,0,0-.409-.813A2.553,2.553,0,0,0,41.3,6.2a1.563,1.563,0,0,0-1.257.439,1.827,1.827,0,0,0-.352.879H37.278A3.676,3.676,0,0,1,37.981,5.457Zm1.863,6.732a1.309,1.309,0,0,0,.861.29A2.551,2.551,0,0,0,42.2,12a2.024,2.024,0,0,0,.708-1.731V9.342a2.722,2.722,0,0,1-.479.242,4.006,4.006,0,0,1-.664.171L41.2,9.86a3.632,3.632,0,0,0-1.134.343,1.149,1.149,0,0,0-.58,1.063A1.1,1.1,0,0,0,39.844,12.189Zm14.388-7.33a3.086,3.086,0,0,1,1.292,2.479h-2.5a1.482,1.482,0,0,0-.272-.765,1.714,1.714,0,0,0-1.406-.51,2.021,2.021,0,0,0-1.165.255.734.734,0,0,0-.347.6.654.654,0,0,0,.369.624,15.98,15.98,0,0,0,2.61.694A4.8,4.8,0,0,1,55.049,9.3a2.415,2.415,0,0,1,.738,1.8,2.911,2.911,0,0,1-1.059,2.325,4.976,4.976,0,0,1-3.274.9,4.929,4.929,0,0,1-3.335-.954,3.1,3.1,0,0,1-1.077-2.43h2.54a1.673,1.673,0,0,0,.343.949,2.317,2.317,0,0,0,1.723.5,2.626,2.626,0,0,0,1.173-.22.737.737,0,0,0,.083-1.3,14.3,14.3,0,0,0-2.61-.756A5.437,5.437,0,0,1,48,9.1a2.191,2.191,0,0,1-.668-1.723A2.988,2.988,0,0,1,48.374,5.1a4.183,4.183,0,0,1,2.931-.954A5.427,5.427,0,0,1,54.232,4.859Zm11.61,6.328a3.178,3.178,0,0,1-.888,1.731,4.349,4.349,0,0,1-3.445,1.4,4.858,4.858,0,0,1-3.226-1.178,4.75,4.75,0,0,1-1.4-3.832,5.326,5.326,0,0,1,1.261-3.814,4.312,4.312,0,0,1,3.274-1.327,5.021,5.021,0,0,1,2.153.448,3.772,3.772,0,0,1,1.582,1.415,4.828,4.828,0,0,1,.729,1.978,12.771,12.771,0,0,1,.079,1.9H59.409a2.381,2.381,0,0,0,.905,2.021,2.132,2.132,0,0,0,1.248.36,1.8,1.8,0,0,0,1.257-.439,2.087,2.087,0,0,0,.466-.659ZM63.364,8.252a2.181,2.181,0,0,0-.6-1.507,1.87,1.87,0,0,0-1.34-.514,1.7,1.7,0,0,0-1.349.545,2.72,2.72,0,0,0-.6,1.477Zm10.89-3.393a3.086,3.086,0,0,1,1.292,2.479h-2.5a1.482,1.482,0,0,0-.272-.765,1.714,1.714,0,0,0-1.406-.51,2.021,2.021,0,0,0-1.165.255.734.734,0,0,0-.347.6.654.654,0,0,0,.369.624,15.98,15.98,0,0,0,2.61.694A4.8,4.8,0,0,1,75.071,9.3a2.415,2.415,0,0,1,.738,1.8,2.911,2.911,0,0,1-1.059,2.325,4.976,4.976,0,0,1-3.274.9,4.929,4.929,0,0,1-3.335-.954,3.1,3.1,0,0,1-1.077-2.43H69.6a1.673,1.673,0,0,0,.343.949,2.317,2.317,0,0,0,1.723.5,2.626,2.626,0,0,0,1.173-.22.737.737,0,0,0,.083-1.3,14.3,14.3,0,0,0-2.61-.756A5.437,5.437,0,0,1,68.022,9.1a2.191,2.191,0,0,1-.668-1.723A2.988,2.988,0,0,1,68.4,5.1a4.183,4.183,0,0,1,2.931-.954A5.427,5.427,0,0,1,74.253,4.859Zm17.13-3.8V14H88.949V12.673a3.533,3.533,0,0,1-1.222,1.239,3.43,3.43,0,0,1-1.705.387A3.56,3.56,0,0,1,83.2,12.941a5.215,5.215,0,0,1-1.147-3.485A6,6,0,0,1,83.179,5.6,3.674,3.674,0,0,1,86.2,4.191a3.09,3.09,0,0,1,1.547.382,3.043,3.043,0,0,1,1.1,1.059V1.063Zm-6.75,8.209a3.767,3.767,0,0,0,.527,2.118,1.756,1.756,0,0,0,1.582.8A1.849,1.849,0,0,0,88.36,11.4a3.5,3.5,0,0,0,.554-2.048,3.141,3.141,0,0,0-.888-2.514A1.91,1.91,0,0,0,86.76,6.38a1.759,1.759,0,0,0-1.613.831A3.848,3.848,0,0,0,84.633,9.271Zm17.227,1.916a3.178,3.178,0,0,1-.888,1.731,4.349,4.349,0,0,1-3.445,1.4A4.858,4.858,0,0,1,94.3,13.139a4.75,4.75,0,0,1-1.4-3.832,5.326,5.326,0,0,1,1.261-3.814,4.312,4.312,0,0,1,3.274-1.327,5.021,5.021,0,0,1,2.153.448,3.772,3.772,0,0,1,1.582,1.415,4.828,4.828,0,0,1,.729,1.978,12.771,12.771,0,0,1,.079,1.9H95.426a2.381,2.381,0,0,0,.905,2.021,2.132,2.132,0,0,0,1.248.36,1.8,1.8,0,0,0,1.257-.439,2.087,2.087,0,0,0,.466-.659ZM99.381,8.252a2.181,2.181,0,0,0-.6-1.507,1.87,1.87,0,0,0-1.34-.514,1.7,1.7,0,0,0-1.349.545,2.72,2.72,0,0,0-.6,1.477Zm4.342-7.207h2.5V14h-2.5Zm17.974,4.4a5.14,5.14,0,0,1,1.16,3.639,5.771,5.771,0,0,1-1.138,3.858,3.685,3.685,0,0,1-2.931,1.327,3.059,3.059,0,0,1-1.9-.571,3.683,3.683,0,0,1-.809-.923v4.992H113.6V4.42H116V5.835a4.021,4.021,0,0,1,.861-.984,3.165,3.165,0,0,1,1.986-.642A3.767,3.767,0,0,1,121.7,5.448ZM120.273,9.21a3.77,3.77,0,0,0-.505-1.96,1.759,1.759,0,0,0-1.639-.853,1.865,1.865,0,0,0-1.872,1.292,4.9,4.9,0,0,0-.264,1.74,2.776,2.776,0,0,0,.888,2.347,2.021,2.021,0,0,0,1.248.4,1.809,1.809,0,0,0,1.6-.809A3.771,3.771,0,0,0,120.273,9.21Zm9.211-2.479a2.078,2.078,0,0,0-2.03.984,3.829,3.829,0,0,0-.29,1.705V14h-2.522V4.42h2.391V6.09a5.3,5.3,0,0,1,1.011-1.31,2.752,2.752,0,0,1,1.828-.589q.07,0,.119,0l.215.013V6.775q-.237-.026-.422-.035T129.484,6.731Zm10.178-1.1a5.59,5.59,0,0,1,1.213,3.595,5.553,5.553,0,0,1-1.213,3.608,5.274,5.274,0,0,1-7.365,0,5.553,5.553,0,0,1-1.213-3.608A5.59,5.59,0,0,1,132.3,5.633a5.22,5.22,0,0,1,7.365,0Zm-3.691.6a2,2,0,0,0-1.692.778,3.6,3.6,0,0,0-.593,2.219,3.619,3.619,0,0,0,.593,2.224,2.216,2.216,0,0,0,3.379,0,3.639,3.639,0,0,0,.589-2.224,3.619,3.619,0,0,0-.589-2.219A1.99,1.99,0,0,0,135.97,6.23Zm14.985,1.626h-2.566a2.223,2.223,0,0,0-.36-.967,1.511,1.511,0,0,0-1.31-.58,1.725,1.725,0,0,0-1.731,1.257,5.255,5.255,0,0,0-.246,1.775,4.832,4.832,0,0,0,.246,1.7,1.671,1.671,0,0,0,1.688,1.2,1.488,1.488,0,0,0,1.248-.475,2.362,2.362,0,0,0,.448-1.23h2.558a4.191,4.191,0,0,1-.826,2.162,4.016,4.016,0,0,1-3.489,1.644,4.082,4.082,0,0,1-3.4-1.371,5.548,5.548,0,0,1-1.09-3.56,5.63,5.63,0,0,1,1.2-3.841,4.191,4.191,0,0,1,3.322-1.371A5,5,0,0,1,149.6,5,3.761,3.761,0,0,1,150.956,7.856Zm9.923,3.331a3.178,3.178,0,0,1-.888,1.731,4.349,4.349,0,0,1-3.445,1.4,4.858,4.858,0,0,1-3.226-1.178,4.75,4.75,0,0,1-1.4-3.832,5.326,5.326,0,0,1,1.261-3.814,4.312,4.312,0,0,1,3.274-1.327,5.021,5.021,0,0,1,2.153.448,3.772,3.772,0,0,1,1.582,1.415,4.828,4.828,0,0,1,.729,1.978A12.771,12.771,0,0,1,161,9.9h-6.557a2.381,2.381,0,0,0,.905,2.021,2.132,2.132,0,0,0,1.248.36,1.8,1.8,0,0,0,1.257-.439,2.087,2.087,0,0,0,.466-.659ZM158.4,8.252a2.181,2.181,0,0,0-.6-1.507,1.87,1.87,0,0,0-1.34-.514,1.7,1.7,0,0,0-1.349.545,2.72,2.72,0,0,0-.6,1.477Zm10.89-3.393a3.086,3.086,0,0,1,1.292,2.479h-2.5a1.482,1.482,0,0,0-.272-.765,1.714,1.714,0,0,0-1.406-.51,2.021,2.021,0,0,0-1.165.255.734.734,0,0,0-.347.6.654.654,0,0,0,.369.624,15.98,15.98,0,0,0,2.61.694A4.8,4.8,0,0,1,170.107,9.3a2.415,2.415,0,0,1,.738,1.8,2.911,2.911,0,0,1-1.059,2.325,6.354,6.354,0,0,1-6.609-.053,3.1,3.1,0,0,1-1.077-2.43h2.54a1.673,1.673,0,0,0,.343.949,2.317,2.317,0,0,0,1.723.5,2.626,2.626,0,0,0,1.173-.22.737.737,0,0,0,.083-1.3,14.3,14.3,0,0,0-2.61-.756A5.437,5.437,0,0,1,163.058,9.1a2.191,2.191,0,0,1-.668-1.723A2.988,2.988,0,0,1,163.432,5.1a4.183,4.183,0,0,1,2.931-.954A5.427,5.427,0,0,1,169.29,4.859Zm11.4.773A5.59,5.59,0,0,1,181.9,9.228a5.553,5.553,0,0,1-1.213,3.608,5.274,5.274,0,0,1-7.365,0,5.553,5.553,0,0,1-1.213-3.608,5.59,5.59,0,0,1,1.213-3.595,5.22,5.22,0,0,1,7.365,0ZM177,6.23a2,2,0,0,0-1.692.778,3.6,3.6,0,0,0-.593,2.219,3.619,3.619,0,0,0,.593,2.224,2.216,2.216,0,0,0,3.379,0,3.639,3.639,0,0,0,.589-2.224,3.619,3.619,0,0,0-.589-2.219A1.99,1.99,0,0,0,177,6.23Zm20.417-5.168V14H194.98V12.673a3.533,3.533,0,0,1-1.222,1.239,3.43,3.43,0,0,1-1.705.387,3.56,3.56,0,0,1-2.826-1.358,5.215,5.215,0,0,1-1.147-3.485A6,6,0,0,1,189.21,5.6a3.674,3.674,0,0,1,3.019-1.406,3.09,3.09,0,0,1,1.547.382,3.043,3.043,0,0,1,1.1,1.059V1.063Zm-6.75,8.209a3.767,3.767,0,0,0,.527,2.118,1.756,1.756,0,0,0,1.582.8,1.849,1.849,0,0,0,1.617-.791,3.5,3.5,0,0,0,.554-2.048,3.141,3.141,0,0,0-.888-2.514,1.91,1.91,0,0,0-1.266-.457,1.759,1.759,0,0,0-1.613.831A3.848,3.848,0,0,0,190.665,9.271Zm17.227,1.916A3.178,3.178,0,0,1,207,12.919a4.349,4.349,0,0,1-3.445,1.4,4.858,4.858,0,0,1-3.226-1.178,4.75,4.75,0,0,1-1.4-3.832A5.326,5.326,0,0,1,200.2,5.492a4.312,4.312,0,0,1,3.274-1.327,5.021,5.021,0,0,1,2.153.448,3.772,3.772,0,0,1,1.582,1.415,4.828,4.828,0,0,1,.729,1.978,12.771,12.771,0,0,1,.079,1.9h-6.557a2.381,2.381,0,0,0,.905,2.021,2.132,2.132,0,0,0,1.248.36,1.8,1.8,0,0,0,1.257-.439,2.087,2.087,0,0,0,.466-.659Zm-2.479-2.936a2.181,2.181,0,0,0-.6-1.507,1.87,1.87,0,0,0-1.34-.514,1.7,1.7,0,0,0-1.349.545,2.72,2.72,0,0,0-.6,1.477ZM217.278,4.42V14h-2.54V4.42Zm0-3.454V3.277h-2.54V.966Zm6.935,5.309a1.744,1.744,0,0,0-1.749,1.081,3.713,3.713,0,0,0-.246,1.459V14h-2.5V4.438h2.417v1.4a4.252,4.252,0,0,1,.914-1.063,3.177,3.177,0,0,1,1.96-.58,3.7,3.7,0,0,1,2.43.778,3.163,3.163,0,0,1,.945,2.58V14h-2.566V8.173a2.659,2.659,0,0,0-.2-1.16A1.422,1.422,0,0,0,224.212,6.274Zm11,0a1.744,1.744,0,0,0-1.749,1.081,3.713,3.713,0,0,0-.246,1.459V14h-2.5V4.438h2.417v1.4a4.252,4.252,0,0,1,.914-1.063,3.177,3.177,0,0,1,1.96-.58,3.7,3.7,0,0,1,2.43.778,3.163,3.163,0,0,1,.945,2.58V14h-2.566V8.173a2.659,2.659,0,0,0-.2-1.16A1.422,1.422,0,0,0,235.208,6.274Zm14.476-.642A5.59,5.59,0,0,1,250.9,9.228a5.553,5.553,0,0,1-1.213,3.608,5.274,5.274,0,0,1-7.365,0A5.553,5.553,0,0,1,241.1,9.228a5.59,5.59,0,0,1,1.213-3.595,5.22,5.22,0,0,1,7.365,0Zm-3.691.6a2,2,0,0,0-1.692.778,3.6,3.6,0,0,0-.593,2.219,3.619,3.619,0,0,0,.593,2.224,2.216,2.216,0,0,0,3.379,0,3.639,3.639,0,0,0,.589-2.224,3.619,3.619,0,0,0-.589-2.219A1.99,1.99,0,0,0,245.992,6.23Zm5.757-1.811h2.813l2,7.066L258.6,4.42h2.689L257.831,14h-2.646ZM263.06,5.457a4.09,4.09,0,0,1,3.41-1.266,6.059,6.059,0,0,1,2.795.624,2.4,2.4,0,0,1,1.222,2.355v4.395q0,.457.018,1.107a1.392,1.392,0,0,0,.149.668.9.9,0,0,0,.369.29V14H268.3a2.79,2.79,0,0,1-.158-.545q-.044-.255-.07-.58a5.146,5.146,0,0,1-1.2.958,3.6,3.6,0,0,1-1.828.466,3.143,3.143,0,0,1-2.149-.743,2.649,2.649,0,0,1-.848-2.1,2.732,2.732,0,0,1,1.362-2.558,6.049,6.049,0,0,1,2.2-.615l.853-.105a3.91,3.91,0,0,0,.993-.22.753.753,0,0,0,.536-.712.845.845,0,0,0-.409-.813,2.553,2.553,0,0,0-1.2-.224,1.563,1.563,0,0,0-1.257.439,1.827,1.827,0,0,0-.352.879h-2.417A3.676,3.676,0,0,1,263.06,5.457Zm1.863,6.732a1.309,1.309,0,0,0,.861.29,2.551,2.551,0,0,0,1.49-.475,2.024,2.024,0,0,0,.708-1.731V9.342a2.722,2.722,0,0,1-.479.242,4.006,4.006,0,0,1-.664.171l-.562.105a3.632,3.632,0,0,0-1.134.343,1.149,1.149,0,0,0-.58,1.063A1.1,1.1,0,0,0,264.923,12.189ZM281,7.856h-2.566a2.223,2.223,0,0,0-.36-.967,1.511,1.511,0,0,0-1.31-.58,1.725,1.725,0,0,0-1.731,1.257,5.255,5.255,0,0,0-.246,1.775,4.832,4.832,0,0,0,.246,1.7,1.671,1.671,0,0,0,1.688,1.2,1.488,1.488,0,0,0,1.248-.475,2.362,2.362,0,0,0,.448-1.23h2.558a4.191,4.191,0,0,1-.826,2.162,4.016,4.016,0,0,1-3.489,1.644,4.082,4.082,0,0,1-3.4-1.371,5.548,5.548,0,0,1-1.09-3.56,5.63,5.63,0,0,1,1.2-3.841,4.191,4.191,0,0,1,3.322-1.371A5,5,0,0,1,279.641,5,3.761,3.761,0,0,1,281,7.856Zm4.3-3.437V14h-2.54V4.42Zm0-3.454V3.277h-2.54V.966Zm10.415,4.667a5.59,5.59,0,0,1,1.213,3.595,5.553,5.553,0,0,1-1.213,3.608,5.274,5.274,0,0,1-7.365,0,5.553,5.553,0,0,1-1.213-3.608,5.59,5.59,0,0,1,1.213-3.595,5.22,5.22,0,0,1,7.365,0Zm-3.691.6a2,2,0,0,0-1.692.778,3.6,3.6,0,0,0-.593,2.219,3.619,3.619,0,0,0,.593,2.224,2.216,2.216,0,0,0,3.379,0,3.639,3.639,0,0,0,.589-2.224,3.619,3.619,0,0,0-.589-2.219A1.99,1.99,0,0,0,292.02,6.23Zm-1.477-3.1L292.231.5h2.795l-2.672,2.628Zm12.683,3.146a1.744,1.744,0,0,0-1.749,1.081,3.713,3.713,0,0,0-.246,1.459V14h-2.5V4.438h2.417v1.4a4.252,4.252,0,0,1,.914-1.063,3.177,3.177,0,0,1,1.96-.58,3.7,3.7,0,0,1,2.43.778,3.163,3.163,0,0,1,.945,2.58V14h-2.566V8.173a2.659,2.659,0,0,0-.2-1.16A1.422,1.422,0,0,0,303.226,6.274Z" transform="translate(594 1340) rotate(-90)" fill="#fff"/>
    </g>
  </g>
</svg>
