<svg xmlns="http://www.w3.org/2000/svg" xmlns:xlink="http://www.w3.org/1999/xlink" width="108" height="108" viewBox="0 0 108 108">
  <defs>
    <filter id="Trazado_982548" x="0" y="0" width="108" height="108" filterUnits="userSpaceOnUse">
      <feOffset dy="3" input="SourceAlpha"/>
      <feGaussianBlur stdDeviation="3" result="blur"/>
      <feFlood flood-opacity="0.161"/>
      <feComposite operator="in" in2="blur"/>
      <feComposite in="SourceGraphic"/>
    </filter>
  </defs>
  <g id="Grupo_1149866" data-name="Grupo 1149866" transform="translate(-616 -1653)">
    <g id="Grupo_1149689" data-name="Grupo 1149689" transform="translate(625 1659)">
      <g id="Grupo_1149263" data-name="Grupo 1149263" transform="translate(0)">
        <g transform="matrix(1, 0, 0, 1, -9, -6)" filter="url(#Trazado_982548)">
          <g id="Trazado_982548-2" data-name="Trazado 982548" transform="translate(9 6)" fill="#f6f9fc">
            <path d="M 45 88.5 C 39.12687683105469 88.5 33.43022537231445 87.35007476806641 28.06830024719238 85.08217620849609 C 22.88852500915527 82.89131164550781 18.23629951477051 79.75458526611328 14.2408504486084 75.75914764404297 C 10.24541282653809 71.76370239257812 7.108687400817871 67.11147308349609 4.917825222015381 61.93170166015625 C 2.649924993515015 56.56977462768555 1.5 50.87312316894531 1.5 45 C 1.5 39.12687683105469 2.649924993515015 33.43022537231445 4.917825222015381 28.06830024719238 C 7.108687400817871 22.88852500915527 10.24541282653809 18.23629951477051 14.2408504486084 14.2408504486084 C 18.23629951477051 10.24541282653809 22.88852500915527 7.108687400817871 28.06830024719238 4.917825222015381 C 33.43022537231445 2.649924993515015 39.12687683105469 1.5 45 1.5 C 50.87312316894531 1.5 56.56977462768555 2.649924993515015 61.93170166015625 4.917825222015381 C 67.11147308349609 7.108687400817871 71.76370239257812 10.24541282653809 75.75914764404297 14.2408504486084 C 79.75458526611328 18.23629951477051 82.89131164550781 22.88852500915527 85.08217620849609 28.06830024719238 C 87.35007476806641 33.43022537231445 88.5 39.12687683105469 88.5 45 C 88.5 50.87312316894531 87.35007476806641 56.56977462768555 85.08217620849609 61.93170166015625 C 82.89131164550781 67.11147308349609 79.75458526611328 71.76370239257812 75.75914764404297 75.75914764404297 C 71.76370239257812 79.75458526611328 67.11147308349609 82.89131164550781 61.93170166015625 85.08217620849609 C 56.56977462768555 87.35007476806641 50.87312316894531 88.5 45 88.5 Z" stroke="none"/>
            <path d="M 45 3 C 39.32871246337891 3 33.82865524291992 4.110054016113281 28.65262985229492 6.299339294433594 C 23.65165710449219 8.414573669433594 19.15968322753906 11.44334411621094 15.301513671875 15.301513671875 C 11.44334411621094 19.15968322753906 8.414573669433594 23.65165710449219 6.299339294433594 28.65262985229492 C 4.110054016113281 33.82865524291992 3 39.32871246337891 3 45 C 3 50.67128753662109 4.110054016113281 56.17134475708008 6.299339294433594 61.34737396240234 C 8.414573669433594 66.34834289550781 11.44334411621094 70.84031677246094 15.301513671875 74.698486328125 C 19.15968322753906 78.55665588378906 23.65165710449219 81.58542633056641 28.65262985229492 83.70066070556641 C 33.82865524291992 85.88994598388672 39.32871246337891 87 45 87 C 50.67128753662109 87 56.17134475708008 85.88994598388672 61.34737396240234 83.70066070556641 C 66.34834289550781 81.58542633056641 70.84031677246094 78.55665588378906 74.698486328125 74.698486328125 C 78.55665588378906 70.84031677246094 81.58542633056641 66.34834289550781 83.70066070556641 61.34737396240234 C 85.88994598388672 56.17134475708008 87 50.67128753662109 87 45 C 87 39.32871246337891 85.88994598388672 33.82865524291992 83.70066070556641 28.65262985229492 C 81.58542633056641 23.65165710449219 78.55665588378906 19.15968322753906 74.698486328125 15.301513671875 C 70.84031677246094 11.44334411621094 66.34834289550781 8.414573669433594 61.34737396240234 6.299339294433594 C 56.17134475708008 4.110054016113281 50.67128753662109 3 45 3 M 45 0 C 69.85281372070312 0 90 20.14718627929688 90 45 C 90 69.85281372070312 69.85281372070312 90 45 90 C 20.14718627929688 90 0 69.85281372070312 0 45 C 0 20.14718627929688 20.14718627929688 0 45 0 Z" stroke="none" fill="#3ad1e9"/>
          </g>
        </g>
      </g>
    </g>
    <g id="idea" transform="translate(634.75 1668.455)">
      <g id="Grupo_1149864" data-name="Grupo 1149864" transform="translate(6.152 11.279)">
        <path id="Trazado_984622" data-name="Trazado 984622" d="M75.147,58.433h8.7v5.552a1.3,1.3,0,0,1-1.3,1.3H76.444a1.3,1.3,0,0,1-1.3-1.3Z" transform="translate(-40.006 -37.037)" fill="#e1e4fb"/>
        <path id="Trazado_984623" data-name="Trazado 984623" d="M78.738,38.337l.3-1.12A6.8,6.8,0,0,1,81,33.969a9.8,9.8,0,1,0-13.229,0,6.815,6.815,0,0,1,1.962,3.253l.3,1.12Z" transform="translate(-34.893 -16.942)" fill="#ffd92e"/>
        <path id="Trazado_984624" data-name="Trazado 984624" d="M65.161,76.367a3.046,3.046,0,0,0-4.269-.574l-12.17,9.282A3.047,3.047,0,0,0,47.5,79.682L34.292,76.846a9.774,9.774,0,0,0-8.2-2.712,9.876,9.876,0,0,0-4.834,1.981L7,86.993l8.595,11.264,5.237-4,24.2,0a5.031,5.031,0,0,0,3.048-1.031l16.5-12.59a3.046,3.046,0,0,0,.574-4.269Z" transform="translate(-7 -44.597)" fill="#ffd3c2"/>
      </g>
      <g id="Grupo_1149865" data-name="Grupo 1149865" transform="translate(5.249 5.25)">
        <path id="Trazado_984625" data-name="Trazado 984625" d="M81.865,25.811a.9.9,0,0,0-1.238.3l-2.66,4.392a.9.9,0,0,0,.773,1.37h2.524L79.436,34.9a.9.9,0,1,0,1.544.934l2.658-4.392a.9.9,0,0,0-.773-1.37H80.338l1.829-3.022a.9.9,0,0,0-.3-1.239Z" transform="translate(-40.406 -15.146)"/>
        <path id="Trazado_984626" data-name="Trazado 984626" d="M82.739,8.813a.9.9,0,0,0,.9-.9V6.152a.9.9,0,0,0-1.8,0V7.911A.9.9,0,0,0,82.739,8.813Z" transform="translate(-42.343 -5.25)"/>
        <path id="Trazado_984627" data-name="Trazado 984627" d="M64.476,20.209a10.679,10.679,0,0,0,1.833,13.574,5.9,5.9,0,0,1,1.7,2.823l.271,1v5.432a2.2,2.2,0,0,0,2.2,2.2h6.111a2.2,2.2,0,0,0,2.2-2.2V37.611l.271-1a5.887,5.887,0,0,1,1.7-2.819A10.695,10.695,0,0,0,68.013,16.736a.9.9,0,1,0,.935,1.543,8.891,8.891,0,0,1,10.59,14.176,7.688,7.688,0,0,0-2.217,3.68l-.122.452H69.877l-.123-.452a7.7,7.7,0,0,0-2.224-3.683A8.874,8.874,0,0,1,66,21.173a.9.9,0,1,0-1.526-.964ZM76.591,43.436H70.48a.4.4,0,0,1-.393-.393V41.817h6.9v1.226A.4.4,0,0,1,76.591,43.436Zm.394-5.043v1.619h-6.9V38.393Z" transform="translate(-33.139 -10.066)"/>
        <path id="Trazado_984628" data-name="Trazado 984628" d="M58.14,104.684l-3.38,2.578a4.141,4.141,0,0,1-2.5.846l-24.2,0a.9.9,0,0,0-.548.185l-5.237,4a.9.9,0,1,0,1.095,1.435l4.995-3.811h23.9a5.958,5.958,0,0,0,3.6-1.215l3.38-2.578a.9.9,0,0,0-1.095-1.435Z" transform="translate(-13.322 -53.321)"/>
        <path id="Trazado_984629" data-name="Trazado 984629" d="M101.145,96.111,99.1,97.671a.9.9,0,1,0,1.095,1.435l2.045-1.56a.9.9,0,1,0-1.095-1.435Z" transform="translate(-50.532 -49.167)"/>
        <path id="Trazado_984630" data-name="Trazado 984630" d="M89.463,76.03a3.948,3.948,0,0,0-5.534-.745l-9.546,7.282a3.954,3.954,0,0,0-3.105-3.558l-8.615-1.851a.9.9,0,1,0-.379,1.765L70.9,80.78a2.144,2.144,0,1,1-.9,4.191L56.785,82.129a.9.9,0,1,0-.379,1.765L69.62,86.733a3.924,3.924,0,0,0,3.206-.713l12.2-9.3a2.144,2.144,0,1,1,2.6,3.409l-3.582,2.733A.9.9,0,0,0,85.137,84.3l3.582-2.733a3.949,3.949,0,0,0,.745-5.534Z" transform="translate(-29.681 -38.779)"/>
        <path id="Trazado_984631" data-name="Trazado 984631" d="M25.359,74.177A8.8,8.8,0,0,1,32.774,76.6a.9.9,0,1,0,1.341-1.208,10.619,10.619,0,0,0-8.987-3.006,10.755,10.755,0,0,0-5.266,2.158L5.6,85.424A.9.9,0,1,0,6.7,86.859L20.961,75.978a8.973,8.973,0,0,1,4.4-1.8Z" transform="translate(-5.249 -37.716)"/>
        <path id="Trazado_984632" data-name="Trazado 984632" d="M108.276,36h1.758a.9.9,0,1,0,0-1.8h-1.758a.9.9,0,1,0,0,1.8Z" transform="translate(-54.712 -19.271)"/>
        <path id="Trazado_984633" data-name="Trazado 984633" d="M53.792,36h1.758a.9.9,0,1,0,0-1.8H53.792a.9.9,0,0,0,0,1.8Z" transform="translate(-28.323 -19.271)"/>
        <path id="Trazado_984634" data-name="Trazado 984634" d="M101.435,52.52a.9.9,0,1,0-1.276,1.276l1.243,1.244a.9.9,0,1,0,1.276-1.276Z" transform="translate(-51.089 -28.016)"/>
        <path id="Trazado_984635" data-name="Trazado 984635" d="M62.876,16.512a.9.9,0,0,0,1.276-1.276l-1.244-1.243a.9.9,0,1,0-1.276,1.276Z" transform="translate(-32.43 -9.356)"/>
        <path id="Trazado_984636" data-name="Trazado 984636" d="M100.8,16.777a.9.9,0,0,0,.638-.265l1.243-1.243a.9.9,0,0,0-1.276-1.276l-1.243,1.243a.9.9,0,0,0,.638,1.541Z" transform="translate(-51.09 -9.356)"/>
        <path id="Trazado_984637" data-name="Trazado 984637" d="M62.271,55.3a.9.9,0,0,0,.638-.265L64.152,53.8a.9.9,0,1,0-1.276-1.276l-1.243,1.243a.9.9,0,0,0,.638,1.54Z" transform="translate(-32.43 -28.016)"/>
      </g>
    </g>
  </g>
</svg>
