<svg xmlns="http://www.w3.org/2000/svg" xmlns:xlink="http://www.w3.org/1999/xlink" width="98" height="98" viewBox="0 0 98 98">
  <defs>
    <filter id="Trazado_982548" x="0" y="0" width="98" height="98" filterUnits="userSpaceOnUse">
      <feOffset dy="3" input="SourceAlpha"/>
      <feGaussianBlur stdDeviation="3" result="blur"/>
      <feFlood flood-opacity="0.161"/>
      <feComposite operator="in" in2="blur"/>
      <feComposite in="SourceGraphic"/>
    </filter>
  </defs>
  <g id="Grupo_1149868" data-name="Grupo 1149868" transform="translate(-206 -2777.076)">
    <g id="Grupo_1149690" data-name="Grupo 1149690" transform="translate(5 2322.076)">
      <g id="Grupo_1149263" data-name="Grupo 1149263" transform="translate(210 461)">
        <g transform="matrix(1, 0, 0, 1, -9, -6)" filter="url(#Trazado_982548)">
          <g id="Trazado_982548-2" data-name="Trazado 982548" transform="translate(9 6)" fill="#f6f9fc">
            <path d="M 40 78.5 C 34.80187606811523 78.5 29.76003265380859 77.48227691650391 25.01452255249023 75.47509765625 C 20.43014526367188 73.53606414794922 16.31264495849609 70.75986480712891 12.77638912200928 67.22360992431641 C 9.240133285522461 63.68735504150391 6.46393346786499 59.56985473632812 4.524899959564209 54.98547744750977 C 2.517722129821777 50.23996734619141 1.5 45.19812393188477 1.5 40 C 1.5 34.80187606811523 2.517722129821777 29.76003265380859 4.524899959564209 25.01452255249023 C 6.46393346786499 20.43014526367188 9.240133285522461 16.31264495849609 12.77638912200928 12.77638912200928 C 16.31264495849609 9.240133285522461 20.43014526367188 6.46393346786499 25.01452255249023 4.524899959564209 C 29.76003265380859 2.517722129821777 34.80187606811523 1.5 40 1.5 C 45.19812393188477 1.5 50.23996734619141 2.517722129821777 54.98547744750977 4.524899959564209 C 59.56985473632812 6.46393346786499 63.68735504150391 9.240133285522461 67.22360992431641 12.77638912200928 C 70.75986480712891 16.31264495849609 73.53606414794922 20.43014526367188 75.47509765625 25.01452255249023 C 77.48227691650391 29.76003265380859 78.5 34.80187606811523 78.5 40 C 78.5 45.19812393188477 77.48227691650391 50.23996734619141 75.47509765625 54.98547744750977 C 73.53606414794922 59.56985473632812 70.75986480712891 63.68735504150391 67.22360992431641 67.22360992431641 C 63.68735504150391 70.75986480712891 59.56985473632812 73.53606414794922 54.98547744750977 75.47509765625 C 50.23996734619141 77.48227691650391 45.19812393188477 78.5 40 78.5 Z" stroke="none"/>
            <path d="M 40 3 C 35.00370788574219 3 30.15846633911133 3.977851867675781 25.59885406494141 5.906410217285156 C 21.19326782226562 7.769813537597656 17.23602676391602 10.43806457519531 13.83704376220703 13.83705139160156 C 10.43806457519531 17.23603820800781 7.769813537597656 21.19327926635742 5.906410217285156 25.59885406494141 C 3.977851867675781 30.15846633911133 3 35.00370788574219 3 40 C 3 44.99629211425781 3.977851867675781 49.84153366088867 5.906410217285156 54.40114593505859 C 7.769813537597656 58.80672073364258 10.43806457519531 62.76396179199219 13.83704376220703 66.16294860839844 C 17.23602676391602 69.56193542480469 21.19326782226562 72.23018646240234 25.59885406494141 74.09358978271484 C 30.15846633911133 76.02214813232422 35.00370788574219 77 40 77 C 44.99629211425781 77 49.84153366088867 76.02214813232422 54.40114593505859 74.09358978271484 C 58.80672073364258 72.23018646240234 62.76396179199219 69.56193542480469 66.16294860839844 66.16294860839844 C 69.56193542480469 62.76396179199219 72.23018646240234 58.80672073364258 74.09358978271484 54.40114593505859 C 76.02214813232422 49.84153366088867 77 44.99629211425781 77 40 C 77 35.00370788574219 76.02214813232422 30.15846633911133 74.09358978271484 25.59885406494141 C 72.23018646240234 21.19327926635742 69.56193542480469 17.23603820800781 66.16294860839844 13.83705139160156 C 62.76396179199219 10.43806457519531 58.80672073364258 7.769813537597656 54.40114593505859 5.906410217285156 C 49.84153366088867 3.977851867675781 44.99629211425781 3 40 3 M 40 0 C 62.09138488769531 0 80 17.90861511230469 80 40 C 80 62.09138488769531 62.09138488769531 80 40 80 C 17.90859985351562 80 0 62.09138488769531 0 40 C 0 17.90861511230469 17.90859985351562 0 40 0 Z" stroke="none" fill="#15da7e"/>
          </g>
        </g>
      </g>
    </g>
    <g id="_07-Advertisement" data-name="07-Advertisement" transform="translate(231.458 2799.534)">
      <path id="Trazado_984638" data-name="Trazado 984638" d="M36.657,53.1l1.471,4.414H19L20.471,53.1Z" transform="translate(-5.022 -14.035)" fill="#848484"/>
      <path id="Trazado_984639" data-name="Trazado 984639" d="M22.8,55.307H34.33a3.228,3.228,0,0,1,3.062,2.207h.736L36.657,53.1H20.471L19,57.514h.736A3.228,3.228,0,0,1,22.8,55.307Z" transform="translate(-5.022 -14.034)" fill="#6e6e6e"/>
      <path id="Trazado_984640" data-name="Trazado 984640" d="M40.014,62.043H15A2.939,2.939,0,0,1,17.943,59.1H37.071A2.943,2.943,0,0,1,40.014,62.043Z" transform="translate(-3.965 -15.62)" fill="#9c9c9c"/>
      <path id="Trazado_984641" data-name="Trazado 984641" d="M21.5,45.1H36.95a2.882,2.882,0,0,1-2.943,2.943H24.443A2.882,2.882,0,0,1,21.5,45.1Z" transform="translate(-5.682 -11.92)" fill="#cfcfcf"/>
      <path id="Trazado_984642" data-name="Trazado 984642" d="M34.007,46.571H24.443A2.649,2.649,0,0,1,21.868,45.1H21.5a2.882,2.882,0,0,0,2.943,2.943h9.564A2.882,2.882,0,0,0,36.95,45.1h-.331A3.139,3.139,0,0,1,34.007,46.571Z" transform="translate(-5.682 -11.92)" fill="#adadad"/>
      <path id="Trazado_984643" data-name="Trazado 984643" d="M46.613,45.1v5.886H1V45.1H16.082a2.882,2.882,0,0,0,2.943,2.943h9.564A2.882,2.882,0,0,0,31.531,45.1Z" transform="translate(-0.264 -11.92)" fill="#e4e4e4"/>
      <path id="Trazado_984644" data-name="Trazado 984644" d="M46.613,9.1V35.585H1V9.1Z" transform="translate(-0.264 -2.405)" fill="#80dbff"/>
      <path id="Trazado_984645" data-name="Trazado 984645" d="M1,9.1H3.943V35.587H1Z" transform="translate(-0.264 -2.406)" fill="#19cffc"/>
      <path id="Trazado_984646" data-name="Trazado 984646" d="M1,45.1H3.943v5.886H1Z" transform="translate(-0.264 -11.921)" fill="#cfcfcf"/>
      <path id="Trazado_984647" data-name="Trazado 984647" d="M59,9.1h2.943V35.587H59Z" transform="translate(-15.594 -2.406)" fill="#19cffc"/>
      <path id="Trazado_984648" data-name="Trazado 984648" d="M59,45.1h2.943v5.886H59Z" transform="translate(-15.594 -11.921)" fill="#cfcfcf"/>
      <path id="Trazado_984649" data-name="Trazado 984649" d="M47,26h2.943v8.093H47Z" transform="translate(-12.422 -6.872)" fill="#ff9696"/>
      <path id="Trazado_984650" data-name="Trazado 984650" d="M48.471,30.414V26H47v8.093h2.943V31.886A1.471,1.471,0,0,1,48.471,30.414Z" transform="translate(-12.422 -6.872)" fill="#ff475a"/>
      <path id="Trazado_984651" data-name="Trazado 984651" d="M39,29h2.943v5.886H39Z" transform="translate(-10.308 -7.665)" fill="#ffc170"/>
      <path id="Trazado_984652" data-name="Trazado 984652" d="M40.471,31.207V29H39v5.886h2.943V32.678A1.471,1.471,0,0,1,40.471,31.207Z" transform="translate(-10.308 -7.665)" fill="#ffac5a"/>
      <ellipse id="Elipse_11687" data-name="Elipse 11687" cx="1.5" cy="1" rx="1.5" ry="1" transform="translate(25 7.085)" fill="#ffac5a"/>
      <ellipse id="Elipse_11688" data-name="Elipse 11688" cx="1.5" cy="1" rx="1.5" ry="1" transform="translate(31 7.085)" fill="#ffac5a"/>
      <ellipse id="Elipse_11689" data-name="Elipse 11689" cx="1.5" cy="1" rx="1.5" ry="1" transform="translate(37 7.085)" fill="#ffac5a"/>
      <path id="Trazado_984653" data-name="Trazado 984653" d="M51.071,2.471V14.243A1.476,1.476,0,0,1,49.6,15.714H37.093l-3.678,3.678V15.714H30.471A1.476,1.476,0,0,1,29,14.243V2.471A1.476,1.476,0,0,1,30.471,1H49.6a1.476,1.476,0,0,1,1.471,1.471ZM47.392,8.357a1.471,1.471,0,1,0-1.471,1.471,1.471,1.471,0,0,0,1.471-1.471Zm-5.886,0a1.471,1.471,0,1,0-1.471,1.471,1.471,1.471,0,0,0,1.471-1.471Zm-5.886,0A1.471,1.471,0,1,0,34.15,9.828a1.471,1.471,0,0,0,1.471-1.471Z" transform="translate(-7.665 -0.264)" fill="#f0f0f0"/>
      <g id="Grupo_1149867" data-name="Grupo 1149867" transform="translate(21.335 0.736)">
        <path id="Trazado_984654" data-name="Trazado 984654" d="M37.736,9A1.453,1.453,0,0,0,37,9.205a1.457,1.457,0,0,1,0,2.532,1.453,1.453,0,0,0,.736.205,1.471,1.471,0,0,0,0-2.943Z" transform="translate(-31.114 -3.114)" fill="#d9d9d9"/>
        <path id="Trazado_984655" data-name="Trazado 984655" d="M53.736,9A1.453,1.453,0,0,0,53,9.205a1.457,1.457,0,0,1,0,2.532,1.453,1.453,0,0,0,.736.205,1.471,1.471,0,0,0,0-2.943Z" transform="translate(-35.343 -3.114)" fill="#d9d9d9"/>
        <path id="Trazado_984656" data-name="Trazado 984656" d="M45,11.738a1.453,1.453,0,0,0,.736.205,1.471,1.471,0,0,0,0-2.943A1.453,1.453,0,0,0,45,9.205a1.457,1.457,0,0,1,0,2.532Z" transform="translate(-33.229 -3.114)" fill="#d9d9d9"/>
        <path id="Trazado_984657" data-name="Trazado 984657" d="M30.471,14.243V2.471A1.476,1.476,0,0,1,31.943,1H30.471A1.476,1.476,0,0,0,29,2.471V14.243a1.476,1.476,0,0,0,1.471,1.471h1.471a1.476,1.476,0,0,1-1.471-1.471Z" transform="translate(-29 -1)" fill="#d9d9d9"/>
        <path id="Trazado_984658" data-name="Trazado 984658" d="M36.471,21H35v3.678l1.471-1.471Z" transform="translate(-30.586 -6.286)" fill="#d9d9d9"/>
      </g>
      <path id="Trazado_984659" data-name="Trazado 984659" d="M58,40h1.471v1.471H58Z" transform="translate(-15.329 -10.572)" fill="#96e8ff"/>
      <path id="Trazado_984660" data-name="Trazado 984660" d="M58,24h1.471V34.3H58Z" transform="translate(-15.329 -6.343)" fill="#96e8ff"/>
      <path id="Trazado_984661" data-name="Trazado 984661" d="M49.978,34.3H36V32.828H49.243V24h1.471v9.564A.736.736,0,0,1,49.978,34.3Z" transform="translate(-9.515 -6.343)" fill="#6e6e6e"/>
      <path id="Trazado_984662" data-name="Trazado 984662" d="M54,40h1.471v1.471H54Z" transform="translate(-14.272 -10.572)" fill="#96e8ff"/>
      <path id="Trazado_984663" data-name="Trazado 984663" d="M29,40H45.921v1.471H29Z" transform="translate(-7.665 -10.572)" fill="#96e8ff"/>
      <path id="Trazado_984664" data-name="Trazado 984664" d="M5.471,15.678H4V12.736A.736.736,0,0,1,4.736,12H7.678v1.471H5.471Z" transform="translate(-1.057 -3.172)" fill="#96e8ff"/>
      <path id="Trazado_984665" data-name="Trazado 984665" d="M4,19H5.471v1.471H4Z" transform="translate(-1.057 -5.022)" fill="#96e8ff"/>
      <path id="Trazado_984666" data-name="Trazado 984666" d="M0,0H2.828V4.385H0Z" transform="translate(6.662 25.37) rotate(-22.153)" fill="#9c9c9c"/>
      <path id="Trazado_984667" data-name="Trazado 984667" d="M18.9,17.29l4.407,10.829-3.016.081L16.68,19.343Z" transform="translate(-4.409 -4.57)" fill="#9c9c9c"/>
      <path id="Trazado_984668" data-name="Trazado 984668" d="M21.725,14l5.51,13.537-1.31.53a1.443,1.443,0,0,1-1.861-.817L19.658,16.42a1.44,1.44,0,0,1,.758-1.891Z" transform="translate(-5.165 -3.7)" fill="#ff7d81"/>
      <path id="Trazado_984669" data-name="Trazado 984669" d="M7.728,31.961l-.655.265a1.441,1.441,0,0,1-1.861-.817L4.109,28.7a1.446,1.446,0,0,1,.758-1.891L9.45,24.95l2.207,5.415-1.31.53Z" transform="translate(-1.056 -6.594)" fill="#ff7d81"/>
      <path id="Trazado_984670" data-name="Trazado 984670" d="M15.287,20.08,18.9,28.938l-5.282.14L11.41,23.663Z" transform="translate(-3.016 -5.307)" fill="#f0f0f0"/>
      <path id="Trazado_984671" data-name="Trazado 984671" d="M19.38,26.073l1.626,3.986,3.016-.081-2.3-5.65a18.82,18.82,0,0,1-2.343,1.745Z" transform="translate(-5.122 -6.43)" fill="#848484"/>
      <path id="Trazado_984672" data-name="Trazado 984672" d="M24.7,21.28a16.806,16.806,0,0,1-2.139,2.244l2.3,5.65a1.443,1.443,0,0,0,1.861.817l1.31-.53Z" transform="translate(-5.964 -5.624)" fill="#ff475a"/>
      <path id="Trazado_984673" data-name="Trazado 984673" d="M4.779,31.072l.641,1.573a1.441,1.441,0,0,0,1.861.817l.655-.265,2.619-1.067,1.31-.53-.8-1.975a29.6,29.6,0,0,1-6.281,1.447Z" transform="translate(-1.263 -7.83)" fill="#ff636e"/>
      <path id="Trazado_984674" data-name="Trazado 984674" d="M13.316,28.852l.8,1.975,5.282-.14L17.777,26.7a22.21,22.21,0,0,1-4.461,2.152Z" transform="translate(-3.519 -7.057)" fill="#d9d9d9"/>
      <path id="Trazado_984675" data-name="Trazado 984675" d="M46.349,5.886H44.142V2.207A2.207,2.207,0,0,0,41.935,0H22.807A2.207,2.207,0,0,0,20.6,2.207V13.978a2.207,2.207,0,0,0,2.207,2.207h2.207v2.943a.736.736,0,0,0,1.256.52l3.463-3.463h12.2a2.207,2.207,0,0,0,2.207-2.207V7.357h1.471V32.371H1.471V7.357H19.128V5.886H.736A.736.736,0,0,0,0,6.621V38.992a.736.736,0,0,0,.736.736H14.429l-1,3a3.674,3.674,0,0,0-3.13,3.623.736.736,0,0,0,.736.736H36.049a.736.736,0,0,0,.736-.736,3.674,3.674,0,0,0-3.13-3.623l-1-3H46.349a.736.736,0,0,0,.736-.736V6.621a.736.736,0,0,0-.736-.736Zm-3.678,8.093a.736.736,0,0,1-.736.736H29.428a.736.736,0,0,0-.52.215l-2.423,2.423v-1.9a.736.736,0,0,0-.736-.736H22.807a.736.736,0,0,1-.736-.736V2.207a.736.736,0,0,1,.736-.736H41.935a.736.736,0,0,1,.736.736ZM30.417,33.842a1.973,1.973,0,0,1-2.092,1.471h-9.56a2.144,2.144,0,0,1-2.117-1.471Zm4.771,11.771H11.9a2.212,2.212,0,0,1,2.081-1.471H33.106a2.212,2.212,0,0,1,2.081,1.471Zm-3.1-2.943H15l.981-2.943H31.1Zm-.451-4.414H1.471V33.842H15.145a3.559,3.559,0,0,0,3.615,2.943h9.564a3.447,3.447,0,0,0,3.6-2.943H45.613v4.414Z"/>
      <path id="Trazado_984676" data-name="Trazado 984676" d="M58,40h1.471v1.471H58Z" transform="translate(-15.329 -10.572)"/>
      <path id="Trazado_984677" data-name="Trazado 984677" d="M58,24h1.471V34.3H58Z" transform="translate(-15.329 -6.343)"/>
      <path id="Trazado_984678" data-name="Trazado 984678" d="M41.15,26.943H38.207a.736.736,0,0,0-.736.736v5.15H36V34.3H49.978a.736.736,0,0,0,.736-.736V24H49.243v8.828H47.771V25.471a.736.736,0,0,0-.736-.736H44.093a.736.736,0,0,0-.736.736v7.357H41.886v-5.15A.736.736,0,0,0,41.15,26.943Zm-2.207,5.886V28.414h1.471v4.414Zm5.886-6.621H46.3v6.621H44.828Z" transform="translate(-9.515 -6.343)"/>
      <path id="Trazado_984679" data-name="Trazado 984679" d="M54,40h1.471v1.471H54Z" transform="translate(-14.272 -10.572)"/>
      <path id="Trazado_984680" data-name="Trazado 984680" d="M29,40H45.921v1.471H29Z" transform="translate(-7.665 -10.572)"/>
      <path id="Trazado_984681" data-name="Trazado 984681" d="M18.033,13.459a.736.736,0,0,0-.956-.4l-1.309.532a2.111,2.111,0,0,0-1.17,1.177,2.191,2.191,0,0,0-.128,1.14L8.788,21.156l-4.46,1.817a2.109,2.109,0,0,0-1.17,1.177,2.207,2.207,0,0,0,.008,1.664l1.1,2.708a2.207,2.207,0,0,0,1.158,1.2,2.138,2.138,0,0,0,.867.185,2.093,2.093,0,0,0,.767-.147l1.377,3.384a.736.736,0,0,0,.682.458.721.721,0,0,0,.277-.054l2.618-1.065a.736.736,0,0,0,.4-.956l-1.376-3.379.5-.205,7.734-.206a2.189,2.189,0,0,0,1.76.911,2.1,2.1,0,0,0,.792-.161l1.309-.532a.736.736,0,0,0,.4-.956Zm.579,12.819-1.448.038L13.941,18.4,15,17.414ZM6.02,28.376a.745.745,0,0,1-.388-.405l-1.1-2.708a.745.745,0,0,1-.005-.561.654.654,0,0,1,.359-.368l3.9-1.586L10.43,26.8l-3.9,1.587a.654.654,0,0,1-.511-.012Zm4.758,3.016L9.522,31.9l-1.1-2.7,1.255-.511Zm-.715-9.407,2.722-2.52,2.806,6.892-3.712.1Zm11.215,5.14a.7.7,0,0,1-.9-.417L15.966,15.879a.747.747,0,0,1-.005-.562.648.648,0,0,1,.358-.368l.628-.255,4.96,12.175Z" transform="translate(-0.793 -3.436)"/>
      <path id="Trazado_984682" data-name="Trazado 984682" d="M35.207,8a2.207,2.207,0,1,0,2.207,2.207A2.207,2.207,0,0,0,35.207,8Zm0,2.943a.736.736,0,1,1,.736-.736A.736.736,0,0,1,35.207,10.943Z" transform="translate(-8.722 -2.114)"/>
      <path id="Trazado_984683" data-name="Trazado 984683" d="M43.207,8a2.207,2.207,0,1,0,2.207,2.207A2.207,2.207,0,0,0,43.207,8Zm0,2.943a.736.736,0,1,1,.736-.736A.736.736,0,0,1,43.207,10.943Z" transform="translate(-10.836 -2.114)"/>
      <path id="Trazado_984684" data-name="Trazado 984684" d="M51.207,8a2.207,2.207,0,1,0,2.207,2.207A2.207,2.207,0,0,0,51.207,8Zm0,2.943a.736.736,0,1,1,.736-.736A.736.736,0,0,1,51.207,10.943Z" transform="translate(-12.951 -2.114)"/>
      <path id="Trazado_984685" data-name="Trazado 984685" d="M5.471,13.471H7.678V12H4.736A.736.736,0,0,0,4,12.736v2.943H5.471Z" transform="translate(-1.057 -3.172)"/>
      <path id="Trazado_984686" data-name="Trazado 984686" d="M4,19H5.471v1.471H4Z" transform="translate(-1.057 -5.022)"/>
    </g>
  </g>
</svg>
