<svg xmlns="http://www.w3.org/2000/svg" xmlns:xlink="http://www.w3.org/1999/xlink" width="98" height="98" viewBox="0 0 98 98">
  <defs>
    <filter id="Trazado_982548" x="0" y="0" width="98" height="98" filterUnits="userSpaceOnUse">
      <feOffset dy="3" input="SourceAlpha"/>
      <feGaussianBlur stdDeviation="3" result="blur"/>
      <feFlood flood-opacity="0.161"/>
      <feComposite operator="in" in2="blur"/>
      <feComposite in="SourceGraphic"/>
    </filter>
  </defs>
  <g id="Grupo_1149870" data-name="Grupo 1149870" transform="translate(-836 -2777.076)">
    <g id="Grupo_1149691" data-name="Grupo 1149691" transform="translate(635 2322.076)">
      <g id="Grupo_1149263" data-name="Grupo 1149263" transform="translate(210 461)">
        <g transform="matrix(1, 0, 0, 1, -9, -6)" filter="url(#Trazado_982548)">
          <g id="Trazado_982548-2" data-name="Trazado 982548" transform="translate(9 6)" fill="#f6f9fc">
            <path d="M 40 78.5 C 34.80187606811523 78.5 29.76003265380859 77.48227691650391 25.01452255249023 75.47509765625 C 20.43014526367188 73.53606414794922 16.31264495849609 70.75986480712891 12.77638912200928 67.22360992431641 C 9.240133285522461 63.68735504150391 6.46393346786499 59.56985473632812 4.524899959564209 54.98547744750977 C 2.517722129821777 50.23996734619141 1.5 45.19812393188477 1.5 40 C 1.5 34.80187606811523 2.517722129821777 29.76003265380859 4.524899959564209 25.01452255249023 C 6.46393346786499 20.43014526367188 9.240133285522461 16.31264495849609 12.77638912200928 12.77638912200928 C 16.31264495849609 9.240133285522461 20.43014526367188 6.46393346786499 25.01452255249023 4.524899959564209 C 29.76003265380859 2.517722129821777 34.80187606811523 1.5 40 1.5 C 45.19812393188477 1.5 50.23996734619141 2.517722129821777 54.98547744750977 4.524899959564209 C 59.56985473632812 6.46393346786499 63.68735504150391 9.240133285522461 67.22360992431641 12.77638912200928 C 70.75986480712891 16.31264495849609 73.53606414794922 20.43014526367188 75.47509765625 25.01452255249023 C 77.48227691650391 29.76003265380859 78.5 34.80187606811523 78.5 40 C 78.5 45.19812393188477 77.48227691650391 50.23996734619141 75.47509765625 54.98547744750977 C 73.53606414794922 59.56985473632812 70.75986480712891 63.68735504150391 67.22360992431641 67.22360992431641 C 63.68735504150391 70.75986480712891 59.56985473632812 73.53606414794922 54.98547744750977 75.47509765625 C 50.23996734619141 77.48227691650391 45.19812393188477 78.5 40 78.5 Z" stroke="none"/>
            <path d="M 40 3 C 35.00370788574219 3 30.15846633911133 3.977851867675781 25.59885406494141 5.906410217285156 C 21.19326782226562 7.769813537597656 17.23602676391602 10.43806457519531 13.83704376220703 13.83705139160156 C 10.43806457519531 17.23603820800781 7.769813537597656 21.19327926635742 5.906410217285156 25.59885406494141 C 3.977851867675781 30.15846633911133 3 35.00370788574219 3 40 C 3 44.99629211425781 3.977851867675781 49.84153366088867 5.906410217285156 54.40114593505859 C 7.769813537597656 58.80672073364258 10.43806457519531 62.76396179199219 13.83704376220703 66.16294860839844 C 17.23602676391602 69.56193542480469 21.19326782226562 72.23018646240234 25.59885406494141 74.09358978271484 C 30.15846633911133 76.02214813232422 35.00370788574219 77 40 77 C 44.99629211425781 77 49.84153366088867 76.02214813232422 54.40114593505859 74.09358978271484 C 58.80672073364258 72.23018646240234 62.76396179199219 69.56193542480469 66.16294860839844 66.16294860839844 C 69.56193542480469 62.76396179199219 72.23018646240234 58.80672073364258 74.09358978271484 54.40114593505859 C 76.02214813232422 49.84153366088867 77 44.99629211425781 77 40 C 77 35.00370788574219 76.02214813232422 30.15846633911133 74.09358978271484 25.59885406494141 C 72.23018646240234 21.19327926635742 69.56193542480469 17.23603820800781 66.16294860839844 13.83705139160156 C 62.76396179199219 10.43806457519531 58.80672073364258 7.769813537597656 54.40114593505859 5.906410217285156 C 49.84153366088867 3.977851867675781 44.99629211425781 3 40 3 M 40 0 C 62.09138488769531 0 80 17.90861511230469 80 40 C 80 62.09138488769531 62.09138488769531 80 40 80 C 17.90859985351562 80 0 62.09138488769531 0 40 C 0 17.90861511230469 17.90859985351562 0 40 0 Z" stroke="none" fill="#15da7e"/>
          </g>
        </g>
      </g>
    </g>
    <g id="sistematico" transform="translate(851.547 2793.842)">
      <g id="Grupo_1149869" data-name="Grupo 1149869" transform="translate(18.759 8.079)">
        <path id="Trazado_984687" data-name="Trazado 984687" d="M136.2,255.937a4.048,4.048,0,0,1-6.526-1.354c-3.283-.61-5.045-3-4.785-5.694a3.729,3.729,0,0,1-2.382-5.268c-1.932-2.834-1.031-7.4,2.358-8.7-.059-2.533,1.688-4.718,4.809-5.3a4.048,4.048,0,0,1,6.526-1.354,4.048,4.048,0,0,1,6.526,1.354c3.121.58,4.868,2.765,4.809,5.3,3.389,1.3,4.29,5.864,2.358,8.7a3.729,3.729,0,0,1-2.382,5.268c.26,2.7-1.5,5.084-4.785,5.694a4.048,4.048,0,0,1-6.526,1.354Z" transform="translate(-121.505 -206.831)" fill="#ff6b84" fill-rule="evenodd"/>
        <path id="Trazado_984688" data-name="Trazado 984688" d="M343.295,43.7l1.375-.922,2.174,2.174-.922,1.375.915,2.209,1.624.32v3.074l-1.624.32-.915,2.209.922,1.375-2.174,2.174-1.375-.922L341.086,58l-.32,1.624h-3.074L337.371,58l-2.209-.915-1.375.922-2.174-2.174.922-1.375-.915-2.209L330,51.931V48.857l1.624-.32.915-2.209-.922-1.375,2.174-2.174,1.375.922,2.209-.915.32-1.624h3.074l.32,1.624Z" transform="translate(-307.217 -41.162)" fill="#f9ac00" fill-rule="evenodd"/>
        <path id="Trazado_984689" data-name="Trazado 984689" d="M343.295,43.7l.781-.524,1.776,1.776-.922,1.375.915,2.209,1.624.32v3.074l-1.624.32-.915,2.209.922,1.375-1.776,1.776-.781-.524-.8-.539-2.3.952-.419,2.126h-2.082L337.371,58l-2.209-.915-.822-.341-1.086.729-1.64-1.64.922-1.375-.915-2.209L330,51.931V48.857l1.624-.32.915-2.209-.922-1.375,1.64-1.64,1.086.729.822-.341,2.209-.915.32-1.624h2.082l.419,2.126,2.3.952Z" transform="translate(-307.217 -41.162)" fill="#fcdb35" fill-rule="evenodd"/>
      </g>
      <circle id="Elipse_11690" data-name="Elipse 11690" cx="4.735" cy="4.735" r="4.735" transform="translate(43.741 14.737) rotate(-22.514)" fill="#f9ac00"/>
      <circle id="Elipse_11691" data-name="Elipse 11691" cx="4.735" cy="4.735" r="4.735" transform="translate(46.035 12.577)" fill="#fff"/>
      <path id="Trazado_984690" data-name="Trazado 984690" d="M26.312,43.7l1.375-.922,2.174,2.174-.922,1.375.915,2.209,1.624.32v3.074l-1.624.32-.915,2.209.922,1.375-2.174,2.174-1.375-.922L24.1,58l-.32,1.624H20.708L20.388,58l-2.209-.915-1.375.922L14.63,55.835l.922-1.375-.915-2.209-1.624-.32V48.857l1.624-.32.915-2.209-.922-1.375L16.8,42.779l1.375.922,2.209-.915.32-1.624h3.074l.32,1.624Z" transform="translate(-6.108 -33.083)" fill="#1176e8" fill-rule="evenodd"/>
      <path id="Trazado_984691" data-name="Trazado 984691" d="M26.312,43.7l.781-.524,1.776,1.776-.922,1.375.915,2.209,1.624.32v3.074l-1.624.32-.915,2.209.922,1.375-1.776,1.776-.781-.524-.8-.539-2.3.952-.419,2.126H20.708L20.388,58l-2.209-.915-.822-.341-1.086.729-1.64-1.64.922-1.375-.915-2.209-1.624-.32V48.857l1.624-.32.915-2.209-.922-1.375,1.64-1.64,1.086.729.822-.341,2.209-.915.32-1.624H22.79l.419,2.126,2.3.952Z" transform="translate(-6.108 -33.083)" fill="#4eb1fc" fill-rule="evenodd"/>
      <circle id="Elipse_11692" data-name="Elipse 11692" cx="4.735" cy="4.735" r="4.735" transform="translate(9.105 14.748) rotate(-22.514)" fill="#1176e8"/>
      <circle id="Elipse_11693" data-name="Elipse 11693" cx="4.735" cy="4.735" r="4.735" transform="translate(11.403 12.577)" fill="#fff"/>
      <path id="Trazado_984692" data-name="Trazado 984692" d="M13.065,36.823a.764.764,0,1,0-1.371.676l.834,1.694a.765.765,0,1,0,1.372-.676Zm21.346-32.8H32.5a.765.765,0,0,0,.01,1.53H34.4a.765.765,0,0,0,.01-1.53Zm-18.844,37.1a.765.765,0,0,0-1.189.964l1.19,1.466a.765.765,0,1,0,1.188-.963l-1.189-1.467Zm-3.549-7.2-.439-1.836a.765.765,0,0,0-1.488.355l.439,1.836a.765.765,0,0,0,1.488-.356Zm-1.574-4.13a.765.765,0,0,0,.756-.773l-.021-1.887a.764.764,0,0,0-.765-.757h-.007a.765.765,0,0,0-.757.773l.021,1.888a.765.765,0,0,0,.765.756h.008Zm45.8,1.736a.766.766,0,0,0-.922.566l-.439,1.836a.763.763,0,0,0,.565.922.778.778,0,0,0,.18.021.766.766,0,0,0,.743-.587l.44-1.836a.765.765,0,0,0-.566-.922Zm.255-5.144H56.5a.765.765,0,0,0-.765.755l-.022,1.888a.764.764,0,0,0,.756.774h.009a.766.766,0,0,0,.765-.756l.022-1.887a.764.764,0,0,0-.755-.774Zm-1.644,10.1a.764.764,0,0,0-1.024.347L53,38.522a.765.765,0,1,0,1.371.677l.837-1.693A.764.764,0,0,0,54.861,36.482Zm-2.454,4.529a.764.764,0,0,0-1.075.111l-1.191,1.465a.765.765,0,0,0,1.188.965l1.19-1.465a.764.764,0,0,0-.112-1.076ZM42.231,7.33l1.7.816a.765.765,0,1,0,.661-1.379l-1.7-.816a.765.765,0,1,0-.661,1.379Zm-19.638.923a.763.763,0,0,0,.332-.076l1.7-.821a.765.765,0,1,0-.665-1.377l-1.7.821a.765.765,0,0,0,.333,1.453ZM37.471,5.9l1.841.419a.8.8,0,0,0,.171.019.765.765,0,0,0,.169-1.51L37.811,4.4a.765.765,0,0,0-.34,1.491Zm-10.1.455a.773.773,0,0,0,.172-.019l1.84-.424a.765.765,0,0,0-.343-1.49L27.2,4.84a.765.765,0,0,0,.172,1.51ZM20.1,17.311a3.962,3.962,0,1,0-3.962,3.961A3.966,3.966,0,0,0,20.1,17.311ZM16.137,22.8a5.491,5.491,0,1,1,5.492-5.491A5.5,5.5,0,0,1,16.137,22.8ZM17.7,24.2a.766.766,0,0,0-.458.559l-.2,1H15.231l-.2-1a.764.764,0,0,0-.458-.559l-2.205-.913a.761.761,0,0,0-.718.071l-.85.57L9.52,22.646l.57-.85a.764.764,0,0,0,.071-.719l-.914-2.205a.763.763,0,0,0-.558-.457l-1-.2V16.405l1-.2a.766.766,0,0,0,.558-.458l.914-2.205a.764.764,0,0,0-.071-.719l-.57-.85L10.8,10.695l.85.57a.762.762,0,0,0,.718.072l2.205-.914a.764.764,0,0,0,.458-.559l.2-1h1.812l.2,1a.765.765,0,0,0,.458.559l2.206.914a.763.763,0,0,0,.718-.072l.85-.57,1.282,1.281-.57.85a.765.765,0,0,0-.071.719l.913,2.205a.767.767,0,0,0,.558.458l1,.2v1.812l-1,.2a.767.767,0,0,0-.558.457l-.913,2.205a.764.764,0,0,0,.071.719l.57.85-1.282,1.281-.85-.57a.763.763,0,0,0-.718-.071Zm-.027,3.092H14.6a.765.765,0,0,1-.75-.617l-.24-1.219-1.449-.6-1.033.692a.764.764,0,0,1-.966-.094l-2.171-2.17a.766.766,0,0,1-.094-.967l.692-1.032-.6-1.448L6.772,19.6a.764.764,0,0,1-.616-.75V15.776a.764.764,0,0,1,.616-.75l1.22-.24.6-1.449L7.9,12.305a.765.765,0,0,1,.094-.966l2.171-2.17a.764.764,0,0,1,.966-.094l1.033.692,1.449-.6.24-1.219a.765.765,0,0,1,.75-.617h3.068a.765.765,0,0,1,.751.617l.24,1.219,1.449.6,1.033-.692a.764.764,0,0,1,.966.094l2.171,2.17a.765.765,0,0,1,.094.966l-.691,1.032.6,1.449,1.219.24a.764.764,0,0,1,.616.75v3.069a.764.764,0,0,1-.616.75l-1.219.241-.6,1.448.691,1.032a.766.766,0,0,1-.094.967l-2.171,2.17a.764.764,0,0,1-.966.094l-1.033-.692-1.449.6-.24,1.219a.765.765,0,0,1-.751.617Zm37.06-9.98a3.961,3.961,0,1,0-3.962,3.961A3.966,3.966,0,0,0,54.73,17.311Zm1.53,0a5.491,5.491,0,1,1-5.492-5.491A5.5,5.5,0,0,1,56.26,17.311Zm2.961-.906v1.812l-1,.2a.767.767,0,0,0-.559.457l-.913,2.205a.766.766,0,0,0,.071.719l.571.85L56.1,23.928l-.85-.57a.765.765,0,0,0-.719-.071L52.33,24.2a.763.763,0,0,0-.457.559l-.2,1H49.863l-.2-1a.762.762,0,0,0-.458-.559L47,23.286a.762.762,0,0,0-.719.071l-.85.57-1.281-1.281.569-.85a.766.766,0,0,0,.072-.719l-.915-2.205a.762.762,0,0,0-.558-.457l-1-.2V16.405l1-.2a.761.761,0,0,0,.558-.458l.915-2.205a.766.766,0,0,0-.072-.719l-.569-.85,1.281-1.281.85.57a.764.764,0,0,0,.719.072l2.205-.914a.762.762,0,0,0,.458-.559l.2-1h1.812l.2,1a.763.763,0,0,0,.457.559l2.206.914a.765.765,0,0,0,.719-.072l.85-.57,1.281,1.281-.571.85a.766.766,0,0,0-.071.719l.913,2.205a.766.766,0,0,0,.559.458Zm1.529-.629v3.069a.765.765,0,0,1-.617.75l-1.219.241-.6,1.448.691,1.032a.764.764,0,0,1-.094.967l-2.17,2.17a.765.765,0,0,1-.967.094l-1.032-.692-1.448.6-.241,1.219a.765.765,0,0,1-.75.617H49.235a.766.766,0,0,1-.75-.617l-.24-1.219-1.449-.6-1.031.692a.765.765,0,0,1-.967-.094l-2.17-2.17a.764.764,0,0,1-.1-.967l.693-1.032-.6-1.448L41.406,19.6a.765.765,0,0,1-.618-.75V15.777a.765.765,0,0,1,.618-.75l1.218-.24.6-1.449-.693-1.032a.764.764,0,0,1,.1-.966l2.17-2.17a.765.765,0,0,1,.967-.094l1.031.692,1.449-.6.24-1.219a.766.766,0,0,1,.75-.617H52.3a.765.765,0,0,1,.75.617L53.3,9.166l1.448.6,1.032-.692a.765.765,0,0,1,.967.094l2.17,2.17a.763.763,0,0,1,.094.966l-.691,1.032.6,1.449,1.219.24a.765.765,0,0,1,.617.75ZM28.43,40.31a.765.765,0,1,0-.967,1.184,2.4,2.4,0,0,1,0,3.716A.765.765,0,0,0,28.43,46.4a3.929,3.929,0,0,0,0-6.086Zm17.529,4.17a2.963,2.963,0,0,0-.847-.615.765.765,0,1,1,.665-1.377,4.49,4.49,0,0,1,1.28.927,5.624,5.624,0,0,0,.1-3.562,4.628,4.628,0,0,0-1.734-2.494,7.409,7.409,0,0,1-.706,1.917.765.765,0,0,1-1.353-.715,4.772,4.772,0,0,0,.289-4.288,4.6,4.6,0,0,0-2.614-2.325,4.674,4.674,0,0,1,.008.913,4.842,4.842,0,0,1-3.507,4.215.765.765,0,1,1-.41-1.473,3.288,3.288,0,1,0-2.916-5.75v2.723a3.876,3.876,0,0,1,1.942-.934.765.765,0,0,1,.256,1.508,2.86,2.86,0,0,0-2.2,2.878V56.852a3.288,3.288,0,1,0,2.916-5.75.765.765,0,1,1,.41-1.474,4.842,4.842,0,0,1,3.507,4.215,4.664,4.664,0,0,1-.008.912,4.6,4.6,0,0,0,2.6-2.3,4.759,4.759,0,0,0-.278-4.311.765.765,0,0,1,1.353-.715,7.351,7.351,0,0,1,.635,1.646,2.965,2.965,0,0,0,.6-4.595ZM32.688,56.849A3.287,3.287,0,1,1,29.773,51.1a.765.765,0,0,0-.411-1.474,4.815,4.815,0,0,0-3.5,5.128,4.6,4.6,0,0,1-2.613-2.327,4.771,4.771,0,0,1,.288-4.286.765.765,0,0,0-1.352-.715,7.506,7.506,0,0,0-.64,1.644,2.969,2.969,0,0,1,.249-5.208.765.765,0,1,0-.665-1.377,4.5,4.5,0,0,0-1.28.927,5.616,5.616,0,0,1-.1-3.583,4.629,4.629,0,0,1,1.727-2.472,7.439,7.439,0,0,0,.706,1.917.766.766,0,0,0,.677.408.754.754,0,0,0,.356-.089.764.764,0,0,0,.319-1.033,4.773,4.773,0,0,1-.287-4.29,4.6,4.6,0,0,1,2.612-2.323,4.814,4.814,0,0,0,3.5,5.128.756.756,0,0,0,.205.028.765.765,0,0,0,.205-1.5,3.287,3.287,0,1,1,2.915-5.747V50.677a2.859,2.859,0,0,1-2.2,2.878.765.765,0,0,0,.128,1.519.789.789,0,0,0,.13-.011,3.873,3.873,0,0,0,1.941-.934v2.72ZM48.023,44.932a4.5,4.5,0,0,1-2.463,5.749,5.711,5.711,0,0,1-.53,2.423,6.377,6.377,0,0,1-4.523,3.41,4.817,4.817,0,0,1-7.055,1.674,4.85,4.85,0,0,1-2.808.894A4.782,4.782,0,0,1,26.4,56.515a6.372,6.372,0,0,1-4.54-3.445,5.713,5.713,0,0,1-.524-2.391,4.5,4.5,0,0,1-2.452-5.746,7.065,7.065,0,0,1-.595-5.548,6.011,6.011,0,0,1,3.058-3.721,5.709,5.709,0,0,1,.515-2.035A6.373,6.373,0,0,1,26.4,30.19a4.807,4.807,0,0,1,7.055-1.673,4.806,4.806,0,0,1,7.055,1.673,6.374,6.374,0,0,1,4.537,3.442,5.693,5.693,0,0,1,.513,2.033,6.02,6.02,0,0,1,3.067,3.747,7.072,7.072,0,0,1-.6,5.521Zm-9.462-1.58a2.393,2.393,0,0,0,.882,1.858.765.765,0,0,1-.968,1.185,3.929,3.929,0,0,1,0-6.086.765.765,0,1,1,.968,1.184A2.394,2.394,0,0,0,38.562,43.353Z" fill-rule="evenodd"/>
    </g>
  </g>
</svg>
