<svg xmlns="http://www.w3.org/2000/svg" xmlns:xlink="http://www.w3.org/1999/xlink" width="98" height="98" viewBox="0 0 98 98">
  <defs>
    <filter id="Trazado_982548" x="0" y="0" width="98" height="98" filterUnits="userSpaceOnUse">
      <feOffset dy="3" input="SourceAlpha"/>
      <feGaussianBlur stdDeviation="3" result="blur"/>
      <feFlood flood-opacity="0.161"/>
      <feComposite operator="in" in2="blur"/>
      <feComposite in="SourceGraphic"/>
    </filter>
  </defs>
  <g id="Grupo_1149886" data-name="Grupo 1149886" transform="translate(-192 -4559)">
    <g id="Grupo_1149694" data-name="Grupo 1149694" transform="translate(-9 4104)">
      <g id="Grupo_1149263" data-name="Grupo 1149263" transform="translate(210 461)">
        <g transform="matrix(1, 0, 0, 1, -9, -6)" filter="url(#Trazado_982548)">
          <g id="Trazado_982548-2" data-name="Trazado 982548" transform="translate(9 6)" fill="#f6f9fc">
            <path d="M 40 78.5 C 34.80187606811523 78.5 29.76003265380859 77.48227691650391 25.01452255249023 75.47509765625 C 20.43014526367188 73.53606414794922 16.31264495849609 70.75986480712891 12.77638912200928 67.22360992431641 C 9.240133285522461 63.68735504150391 6.46393346786499 59.56985473632812 4.524899959564209 54.98547744750977 C 2.517722129821777 50.23996734619141 1.5 45.19812393188477 1.5 40 C 1.5 34.80187606811523 2.517722129821777 29.76003265380859 4.524899959564209 25.01452255249023 C 6.46393346786499 20.43014526367188 9.240133285522461 16.31264495849609 12.77638912200928 12.77638912200928 C 16.31264495849609 9.240133285522461 20.43014526367188 6.46393346786499 25.01452255249023 4.524899959564209 C 29.76003265380859 2.517722129821777 34.80187606811523 1.5 40 1.5 C 45.19812393188477 1.5 50.23996734619141 2.517722129821777 54.98547744750977 4.524899959564209 C 59.56985473632812 6.46393346786499 63.68735504150391 9.240133285522461 67.22360992431641 12.77638912200928 C 70.75986480712891 16.31264495849609 73.53606414794922 20.43014526367188 75.47509765625 25.01452255249023 C 77.48227691650391 29.76003265380859 78.5 34.80187606811523 78.5 40 C 78.5 45.19812393188477 77.48227691650391 50.23996734619141 75.47509765625 54.98547744750977 C 73.53606414794922 59.56985473632812 70.75986480712891 63.68735504150391 67.22360992431641 67.22360992431641 C 63.68735504150391 70.75986480712891 59.56985473632812 73.53606414794922 54.98547744750977 75.47509765625 C 50.23996734619141 77.48227691650391 45.19812393188477 78.5 40 78.5 Z" stroke="none"/>
            <path d="M 40 3 C 35.00370788574219 3 30.15846633911133 3.977851867675781 25.59885406494141 5.906410217285156 C 21.19326782226562 7.769813537597656 17.23602676391602 10.43806457519531 13.83704376220703 13.83705139160156 C 10.43806457519531 17.23603820800781 7.769813537597656 21.19327926635742 5.906410217285156 25.59885406494141 C 3.977851867675781 30.15846633911133 3 35.00370788574219 3 40 C 3 44.99629211425781 3.977851867675781 49.84153366088867 5.906410217285156 54.40114593505859 C 7.769813537597656 58.80672073364258 10.43806457519531 62.76396179199219 13.83704376220703 66.16294860839844 C 17.23602676391602 69.56193542480469 21.19326782226562 72.23018646240234 25.59885406494141 74.09358978271484 C 30.15846633911133 76.02214813232422 35.00370788574219 77 40 77 C 44.99629211425781 77 49.84153366088867 76.02214813232422 54.40114593505859 74.09358978271484 C 58.80672073364258 72.23018646240234 62.76396179199219 69.56193542480469 66.16294860839844 66.16294860839844 C 69.56193542480469 62.76396179199219 72.23018646240234 58.80672073364258 74.09358978271484 54.40114593505859 C 76.02214813232422 49.84153366088867 77 44.99629211425781 77 40 C 77 35.00370788574219 76.02214813232422 30.15846633911133 74.09358978271484 25.59885406494141 C 72.23018646240234 21.19327926635742 69.56193542480469 17.23603820800781 66.16294860839844 13.83705139160156 C 62.76396179199219 10.43806457519531 58.80672073364258 7.769813537597656 54.40114593505859 5.906410217285156 C 49.84153366088867 3.977851867675781 44.99629211425781 3 40 3 M 40 0 C 62.09138488769531 0 80 17.90861511230469 80 40 C 80 62.09138488769531 62.09138488769531 80 40 80 C 17.90859985351562 80 0 62.09138488769531 0 40 C 0 17.90861511230469 17.90859985351562 0 40 0 Z" stroke="none" fill="#15da7e"/>
          </g>
        </g>
      </g>
    </g>
    <g id="criterios" transform="translate(212.5 4540.491)">
      <g id="Grupo_1149885" data-name="Grupo 1149885" transform="translate(1.141 42.566)">
        <g id="Grupo_1149872" data-name="Grupo 1149872" transform="translate(7.399 2.495)">
          <path id="Trazado_985249" data-name="Trazado 985249" d="M84.3,74.562a8.979,8.979,0,0,1,8.979,8.976,9.227,9.227,0,0,1-.159,1.688,2.33,2.33,0,0,0-1.211-.339H77.076a2.341,2.341,0,0,0-1.541.576,8.984,8.984,0,0,1,8.77-10.9Z" transform="translate(-75.328 -74.562)" fill="#353965" fill-rule="evenodd"/>
        </g>
        <g id="Grupo_1149873" data-name="Grupo 1149873" transform="translate(6.785 12.82)">
          <path id="Trazado_985250" data-name="Trazado 985250" d="M71.971,170.652H86.808a2.361,2.361,0,0,1,0,4.722H71.971a2.361,2.361,0,1,1,0-4.722Z" transform="translate(-69.608 -170.652)" fill="#f2a183" fill-rule="evenodd"/>
        </g>
        <g id="Grupo_1149874" data-name="Grupo 1149874" transform="translate(11.984 18.367)">
          <path id="Trazado_985251" data-name="Trazado 985251" d="M117.988,222.268h9.066v7.741h-9.066Z" transform="translate(-117.988 -222.268)" fill="#f2a183" fill-rule="evenodd"/>
        </g>
        <g id="Grupo_1149875" data-name="Grupo 1149875" transform="translate(10.137 9.147)">
          <path id="Trazado_985252" data-name="Trazado 985252" d="M113.657,139.393v4.041a6.428,6.428,0,0,1-12.856,0v-4.107a7.266,7.266,0,0,0,1.709.2,11.389,11.389,0,0,0,7.217-3.055,3.546,3.546,0,0,0,3.16,3.031A2.738,2.738,0,0,0,113.657,139.393Z" transform="translate(-100.801 -136.473)" fill="#f7c5b8" fill-rule="evenodd"/>
        </g>
        <g id="Grupo_1149876" data-name="Grupo 1149876" transform="translate(0 24.483)">
          <path id="Trazado_985253" data-name="Trazado 985253" d="M23.429,280.955l7.312-1.769c3.58,1.331,6.056,2.264,6.995,4.054a26.767,26.767,0,0,1,1.862,5.789v.861a3.364,3.364,0,0,1-3.358,3.358H9.827a3.364,3.364,0,0,1-3.358-3.358v-.861a26.767,26.767,0,0,1,1.862-5.789c.938-1.79,3.415-2.722,6.995-4.054l7.33,2.018Z" transform="translate(-6.469 -279.186)" fill="#bbdefb" fill-rule="evenodd"/>
        </g>
        <g id="Grupo_1149877" data-name="Grupo 1149877" transform="translate(17.548 22.475)">
          <path id="Trazado_985254" data-name="Trazado 985254" d="M172.675,267.158l3.55-4.26a.757.757,0,0,0,.165-.642.743.743,0,0,0-.393-.531l-2.1-1.127a.775.775,0,0,0-.884.1l-3.235,2.806,1.613,3.487a.767.767,0,0,0,1.289.168Z" transform="translate(-169.773 -260.503)" fill="#e83d62" fill-rule="evenodd"/>
        </g>
        <g id="Grupo_1149878" data-name="Grupo 1149878" transform="translate(8.863 22.475)">
          <path id="Trazado_985255" data-name="Trazado 985255" d="M92.674,267.158l-3.55-4.26a.757.757,0,0,1-.165-.642.743.743,0,0,1,.393-.531l2.1-1.127a.775.775,0,0,1,.884.1l3.235,2.806-1.613,3.487a.767.767,0,0,1-1.289.168Z" transform="translate(-88.944 -260.503)" fill="#e83d62" fill-rule="evenodd"/>
        </g>
        <g id="Grupo_1149879" data-name="Grupo 1149879" transform="translate(12.886 27.346)">
          <path id="Trazado_985256" data-name="Trazado 985256" d="M130.044,305.831l1.811,1.823,1.889,9.375h-7.358l1.892-9.48Z" transform="translate(-126.386 -305.831)" fill="#e83d62" fill-rule="evenodd"/>
        </g>
        <g id="Grupo_1149880" data-name="Grupo 1149880" transform="translate(14.133 25.475)">
          <path id="Trazado_985257" data-name="Trazado 985257" d="M140.365,293.689l2.492-2.12-1.448-3.148h-2.054l-1.361,2.962Z" transform="translate(-137.993 -288.421)" fill="#1665c0" fill-rule="evenodd"/>
        </g>
        <g id="Grupo_1149881" data-name="Grupo 1149881" transform="translate(28.611 0)">
          <path id="Trazado_985258" data-name="Trazado 985258" d="M272.726,51.348h9.33v9.33h-9.33Z" transform="translate(-272.726 -51.348)" fill="#66b49d" fill-rule="evenodd"/>
        </g>
        <g id="Grupo_1149882" data-name="Grupo 1149882" transform="translate(28.611 11.819)">
          <path id="Trazado_985259" data-name="Trazado 985259" d="M272.726,161.333h9.33v9.33h-9.33Z" transform="translate(-272.726 -161.333)" fill="#66b49d" fill-rule="evenodd"/>
        </g>
        <g id="Grupo_1149883" data-name="Grupo 1149883" transform="translate(25.898 24.075)">
          <path id="Trazado_985260" data-name="Trazado 985260" d="M259.041,276.617l.231.831a1.675,1.675,0,0,0,2.438,1.01l.75-.426a1.674,1.674,0,0,1,2.282,2.282l-.423.75a1.674,1.674,0,0,0,1.007,2.437l.831.231a1.674,1.674,0,0,1,0,3.226l-.831.231a1.674,1.674,0,0,0-1.007,2.438l.423.75a1.674,1.674,0,0,1-2.282,2.282l-.75-.423a1.676,1.676,0,0,0-2.438,1.007l-.231.83a1.674,1.674,0,0,1-3.226,0l-.231-.83a1.674,1.674,0,0,0-2.438-1.007l-.75.423a1.675,1.675,0,0,1-2.282-2.282l.426-.75a1.673,1.673,0,0,0-1.01-2.438l-.83-.231a1.674,1.674,0,0,1,0-3.226l.83-.231a1.673,1.673,0,0,0,1.01-2.437l-.426-.75a1.675,1.675,0,0,1,2.282-2.282l.75.426a1.673,1.673,0,0,0,2.438-1.01l.231-.831a1.674,1.674,0,0,1,3.226,0Z" transform="translate(-247.474 -275.391)" fill="#ffe177" fill-rule="evenodd"/>
        </g>
        <g id="Grupo_1149884" data-name="Grupo 1149884" transform="translate(32.155 30.332)">
          <path id="Trazado_985261" data-name="Trazado 985261" d="M309.4,341.016a3.7,3.7,0,1,0-3.7-3.7A3.706,3.706,0,0,0,309.4,341.016Z" transform="translate(-305.704 -333.62)" fill="#e3fbff" fill-rule="evenodd"/>
        </g>
      </g>
      <path id="Trazado_985262" data-name="Trazado 985262" d="M30.261,52.469h9.461a.749.749,0,0,0,.749-.749V42.258a.749.749,0,0,0-.749-.749H30.261a.749.749,0,0,0-.749.749v9.461A.749.749,0,0,0,30.261,52.469Zm.749-9.461h7.962V50.97H31.011ZM30.261,64.45h9.461a.749.749,0,0,0,.749-.749V54.242a.749.749,0,0,0-.749-.749H30.261a.749.749,0,0,0-.749.749V63.7A.749.749,0,0,0,30.261,64.45Zm.749-9.458h7.962v7.959H31.011Zm6.5-9.764a.749.749,0,0,1,0,1.06l-2.466,2.466a.749.749,0,0,1-1.06,0l-1.511-1.511a.749.749,0,0,1,1.06-1.06l.981.981,1.936-1.936A.749.749,0,0,1,37.51,45.228Zm5.078-.075a.749.749,0,0,1,.749-.749H54.661a.749.749,0,0,1,0,1.5H43.337A.749.749,0,0,1,42.588,45.153Zm12.823,3.675a.749.749,0,0,1-.749.749H43.337a.749.749,0,1,1,0-1.5H54.661A.749.749,0,0,1,55.411,48.828Zm0,8.306a.749.749,0,0,1-.749.749H43.337a.749.749,0,0,1,0-1.5H54.661A.749.749,0,0,1,55.411,57.134Zm0,3.675a.749.749,0,0,1-.749.749H43.337a.749.749,0,1,1,0-1.5H54.661A.749.749,0,0,1,55.411,60.809Zm-8.757,13.6-.844-.235a.948.948,0,0,1-.567-1.381l.428-.759A2.447,2.447,0,0,0,42.334,68.7l-.757.43a.949.949,0,0,1-1.383-.572l-.234-.842a2.447,2.447,0,0,0-4.715,0l-.235.844a.946.946,0,0,1-1.379.571l-.761-.432a2.428,2.428,0,0,0-1.823-.241A34.365,34.365,0,0,0,26.44,66.5a1.5,1.5,0,0,0-.732-.872l-2.137-1.145a1.581,1.581,0,0,0-.228-.1v-.823A7.271,7.271,0,0,0,24.971,60.8h.6a3.141,3.141,0,0,0,2.044-5.529,9.853,9.853,0,1,0-19.461.326,3.142,3.142,0,0,0,2.371,5.2h.6a7.268,7.268,0,0,0,1.531,2.661v.93a1.6,1.6,0,0,0-.222.1L10.3,65.627a1.5,1.5,0,0,0-.744.909C5.834,67.92,3.5,68.89,2.473,70.847A19.593,19.593,0,0,0,.5,77.937a4.159,4.159,0,0,0,4.154,4.154H29.3a2.449,2.449,0,0,0,3.575,2.74l.762-.43a.947.947,0,0,1,1.379.57l.234.842a2.447,2.447,0,0,0,4.715,0l.234-.84a.949.949,0,0,1,1.382-.571l.76.429A2.447,2.447,0,0,0,45.671,81.5l-.43-.762a.948.948,0,0,1,.57-1.38l.841-.234a2.447,2.447,0,0,0,0-4.715ZM29.537,72.032l.43.757a.947.947,0,0,1-.572,1.383l-.842.234a2.447,2.447,0,0,0,0,4.715l.84.234a.947.947,0,0,1,.641,1.238H22.39L20.8,72.712a1.542,1.542,0,0,0,.593.117,1.5,1.5,0,0,0,1.169-.554l3.572-4.29c1.455.544,2.6.987,3.528,1.439A2.419,2.419,0,0,0,29.537,72.032Zm-11.518.387-1.542-1.5.963-2.081h1.124L19.6,71.075Zm.745-5.078H17.241L14.4,64.873a7.245,7.245,0,0,0,7.052.14ZM16.7,73.226l.764.743A.749.749,0,0,0,18.471,74l.905-.77,1.485,7.36H15.23ZM25,66.948l.013.007a.1.1,0,0,1,0,.012c0,.008,0,.013,0,.014a.086.086,0,0,1-.009.013l-3.6,4.323h0a.069.069,0,0,1-.011.011h-.012a.071.071,0,0,1-.018,0,.05.05,0,0,1-.009-.014l-1.4-3.024,2.855-2.476a.038.038,0,0,1,.052-.006Zm.566-7.652h-.289c.022-.232.035-.466.035-.7V56.007h.254a1.645,1.645,0,1,1,0,3.289ZM17.855,45.537A8.364,8.364,0,0,1,26.21,53.89c0,.224-.011.451-.03.679a3.148,3.148,0,0,0-.613-.06h-.254v-.014a.749.749,0,0,0-.958-.72,2.058,2.058,0,0,1-1.715-.3,3.044,3.044,0,0,1-1.319-2.044.749.749,0,0,0-1.259-.441C18.158,52.8,14.73,54.426,11.7,53.7a.749.749,0,0,0-.924.729v.081h-.257a3.13,3.13,0,0,0-.982.158c-.024-.258-.038-.517-.038-.777a8.362,8.362,0,0,1,8.353-8.353ZM10.522,59.3a1.643,1.643,0,0,1-1.071-2.89l0,0a1.635,1.635,0,0,1,1.068-.4h.257v2.586c0,.237.012.472.035.7Zm1.756-3.978A11.574,11.574,0,0,0,20.2,52.841a4.581,4.581,0,0,0,1.627,1.892,3.67,3.67,0,0,0,1.991.616v3.243a5.751,5.751,0,0,1-1.695,4.08.754.754,0,0,0-.075.072,5.756,5.756,0,0,1-8.065-.065A.751.751,0,0,0,13.9,62.6a5.748,5.748,0,0,1-1.627-4.01Zm-1.29,11.648,0-.01L11,66.948l2.132-1.142a.04.04,0,0,1,.055,0l2.855,2.476-1.4,3.024a.057.057,0,0,1-.009.015.036.036,0,0,1-.011,0,.074.074,0,0,1-.019,0,.052.052,0,0,1-.012-.011h0l-3.6-4.324-.008-.01a.07.07,0,0,1,0-.015ZM2,77.937a18.072,18.072,0,0,1,1.8-6.4c.743-1.421,2.8-2.3,6.089-3.532l3.551,4.265a1.5,1.5,0,0,0,1.172.553,1.645,1.645,0,0,0,.2-.013,1.562,1.562,0,0,0,.464-.139L13.7,80.593H4.654A2.658,2.658,0,0,1,2,77.937Zm44.254-.26-.844.235a2.446,2.446,0,0,0-1.472,3.561l.428.759a.948.948,0,0,1-1.292,1.293l-.758-.428a2.448,2.448,0,0,0-3.564,1.473l-.234.842a.948.948,0,0,1-1.827,0l-.234-.84a2.394,2.394,0,0,0-1.42-1.606,2.46,2.46,0,0,0-.944-.192,2.414,2.414,0,0,0-1.2.323l-.761.429a.949.949,0,0,1-1.293-1.291l.291-.512.019-.034.123-.217a2.445,2.445,0,0,0-1.477-3.56l-.842-.234a.948.948,0,0,1,0-1.827l.84-.234a2.445,2.445,0,0,0,1.478-3.564l-.431-.759A.949.949,0,0,1,32.132,70l.763.433a2.445,2.445,0,0,0,3.56-1.477l.234-.842a.948.948,0,0,1,1.827,0h0l.235.844a2.447,2.447,0,0,0,3.563,1.474l.757-.43a.948.948,0,0,1,1.293,1.292l-.428.758a2.446,2.446,0,0,0,1.472,3.564l.843.234a.948.948,0,0,1,0,1.827ZM37.6,72.266a4.5,4.5,0,1,0,4.5,4.5A4.5,4.5,0,0,0,37.6,72.266Zm0,7.5a3,3,0,1,1,3-3A3,3,0,0,1,37.6,79.766ZM37.51,57.209a.749.749,0,0,1,0,1.06l-2.466,2.466a.749.749,0,0,1-1.059,0l-1.511-1.508a.749.749,0,0,1,1.059-1.061l.981.979,1.936-1.936a.749.749,0,0,1,1.06,0Z"/>
    </g>
  </g>
</svg>
