<svg xmlns="http://www.w3.org/2000/svg" xmlns:xlink="http://www.w3.org/1999/xlink" width="1240" height="1143" viewBox="0 0 1240 1143">
  <defs>
    <filter id="Trazado_985601" x="274" y="312.375" width="102" height="256" filterUnits="userSpaceOnUse">
      <feOffset dy="3" input="SourceAlpha"/>
      <feGaussianBlur stdDeviation="3" result="blur"/>
      <feFlood flood-opacity="0.161"/>
      <feComposite operator="in" in2="blur"/>
      <feComposite in="SourceGraphic"/>
    </filter>
    <filter id="Trazado_985604" x="665" y="969.375" width="302" height="63" filterUnits="userSpaceOnUse">
      <feOffset dy="3" input="SourceAlpha"/>
      <feGaussianBlur stdDeviation="3" result="blur-2"/>
      <feFlood flood-opacity="0.161"/>
      <feComposite operator="in" in2="blur-2"/>
      <feComposite in="SourceGraphic"/>
    </filter>
    <filter id="Trazado_985606" x="665" y="1039" width="302" height="63" filterUnits="userSpaceOnUse">
      <feOffset dy="3" input="SourceAlpha"/>
      <feGaussianBlur stdDeviation="3" result="blur-3"/>
      <feFlood flood-opacity="0.161"/>
      <feComposite operator="in" in2="blur-3"/>
      <feComposite in="SourceGraphic"/>
    </filter>
    <filter id="Trazado_985610" x="665" y="759" width="302" height="63" filterUnits="userSpaceOnUse">
      <feOffset dy="3" input="SourceAlpha"/>
      <feGaussianBlur stdDeviation="3" result="blur-4"/>
      <feFlood flood-opacity="0.161"/>
      <feComposite operator="in" in2="blur-4"/>
      <feComposite in="SourceGraphic"/>
    </filter>
    <filter id="Trazado_985612" x="665" y="899.375" width="302" height="63" filterUnits="userSpaceOnUse">
      <feOffset dy="3" input="SourceAlpha"/>
      <feGaussianBlur stdDeviation="3" result="blur-5"/>
      <feFlood flood-opacity="0.161"/>
      <feComposite operator="in" in2="blur-5"/>
      <feComposite in="SourceGraphic"/>
    </filter>
    <filter id="Trazado_985614" x="665" y="830" width="302" height="63" filterUnits="userSpaceOnUse">
      <feOffset dy="3" input="SourceAlpha"/>
      <feGaussianBlur stdDeviation="3" result="blur-6"/>
      <feFlood flood-opacity="0.161"/>
      <feComposite operator="in" in2="blur-6"/>
      <feComposite in="SourceGraphic"/>
    </filter>
  </defs>
  <g id="Grupo_1149997" data-name="Grupo 1149997" transform="translate(-180 -640)">
    <rect id="Rectángulo_407890" data-name="Rectángulo 407890" width="1240" height="1143" rx="8" transform="translate(180 640)" fill="#edf3fc"/>
    <path id="Trazado_983296" data-name="Trazado 983296" d="M2529,885.79h-33.82v749.5h39.742" transform="translate(-1920 -130.289)" fill="none" stroke="#5a1a8a" stroke-width="1"/>
    <path id="Trazado_983297" data-name="Trazado 983297" d="M2472.242,1042h75.227" transform="translate(-1925.242 35)" fill="none" stroke="#5a1a8a" stroke-width="1"/>
    <path id="Trazado_983296-2" data-name="Trazado 983296" d="M2528,885.79h-32.82v80h28.862" transform="translate(-1660.59 -170.29)" fill="none" stroke="#5a1a8a" stroke-width="1"/>
    <path id="Trazado_983296-3" data-name="Trazado 983296" d="M2528,885.791h-32.82v422.625h28.862" transform="translate(-1665.687 399.709)" fill="none" stroke="#5a1a8a" stroke-width="1"/>
    <path id="Trazado_983298" data-name="Trazado 983298" d="M2472.242,1042h26.493" transform="translate(-1664.145 -286)" fill="none" stroke="#5a1a8a" stroke-width="1"/>
    <g id="Trazado_985599" data-name="Trazado 985599" transform="translate(609.5 728)" fill="#15da7e">
      <path d="M 200.5 54.5 L 0.5 54.5 L 0.5 0.5 L 200.5 0.5 L 200.5 54.5 Z" stroke="none"/>
      <path d="M 1 1 L 1 54 L 200 54 L 200 1 L 1 1 M 0 0 L 201 0 L 201 55 L 0 55 L 0 0 Z" stroke="none" fill="#15da7e"/>
    </g>
    <path id="Trazado_985600" data-name="Trazado 985600" d="M11.277.737a5.291,5.291,0,0,1,3.806,1.292,4.563,4.563,0,0,1,1.5,2.936H14.881a3.549,3.549,0,0,0-1.156-1.978,3.663,3.663,0,0,0-2.43-.729A3.9,3.9,0,0,0,8.214,3.6,6.11,6.11,0,0,0,7.041,7.707,5.968,5.968,0,0,0,8.1,11.385,3.7,3.7,0,0,0,11.26,12.8,3.338,3.338,0,0,0,14.2,11.311,5.649,5.649,0,0,0,15,9.254h1.705A5.826,5.826,0,0,1,15.2,12.673a5.379,5.379,0,0,1-4.148,1.661A5.475,5.475,0,0,1,7.27,12.972q-2.013-1.8-2.013-5.563A7.107,7.107,0,0,1,6.769,2.724,5.522,5.522,0,0,1,11.277.737ZM22.362,12.98A2.182,2.182,0,0,0,24.52,11.79,5.933,5.933,0,0,0,25.1,9.14,4.718,4.718,0,0,0,24.683,7a2.373,2.373,0,0,0-2.3-1.3A2.271,2.271,0,0,0,20.27,6.8a5.133,5.133,0,0,0-.659,2.672,4.465,4.465,0,0,0,.659,2.5A2.322,2.322,0,0,0,22.362,12.98Zm.062-8.666A4.262,4.262,0,0,1,25.5,5.527,4.736,4.736,0,0,1,26.757,9.1a6.122,6.122,0,0,1-1.107,3.762,4.006,4.006,0,0,1-3.437,1.485,3.88,3.88,0,0,1-3.085-1.314A5.19,5.19,0,0,1,17.985,9.5a5.615,5.615,0,0,1,1.2-3.779A4.041,4.041,0,0,1,22.424,4.314Zm6.216.272h1.5V5.923a4.215,4.215,0,0,1,1.415-1.187,3.773,3.773,0,0,1,1.661-.36,2.739,2.739,0,0,1,2.707,1.4,4.962,4.962,0,0,1,.387,2.188V14H34.7V8.067a3.212,3.212,0,0,0-.255-1.389A1.545,1.545,0,0,0,32.92,5.8,3.114,3.114,0,0,0,32,5.914a2.377,2.377,0,0,0-1.143.773,2.329,2.329,0,0,0-.514.962,6.478,6.478,0,0,0-.119,1.419V14H28.639Zm13.642-.272a4.1,4.1,0,0,1,2.588.773,3.705,3.705,0,0,1,1.2,2.663H44.532a2.839,2.839,0,0,0-.642-1.446,2.027,2.027,0,0,0-1.608-.576A2.222,2.222,0,0,0,40.12,7.206,5.865,5.865,0,0,0,39.7,9.57a4.449,4.449,0,0,0,.6,2.382,2.317,2.317,0,0,0,3.441.365,3.311,3.311,0,0,0,.8-1.648H46.07a4.129,4.129,0,0,1-1.318,2.738,4.113,4.113,0,0,1-2.7.866,3.6,3.6,0,0,1-2.944-1.349,5.164,5.164,0,0,1-1.1-3.371,5.678,5.678,0,0,1,1.2-3.858A3.891,3.891,0,0,1,42.282,4.314Zm9.292.062a4.294,4.294,0,0,1,1.942.47,3.582,3.582,0,0,1,1.433,1.217,4.2,4.2,0,0,1,.633,1.661A10.868,10.868,0,0,1,55.722,9.8h-6.9a4.026,4.026,0,0,0,.677,2.3,2.266,2.266,0,0,0,1.96.866,2.534,2.534,0,0,0,1.978-.817,2.755,2.755,0,0,0,.6-1.1H55.59a3.276,3.276,0,0,1-.409,1.156,4.111,4.111,0,0,1-.778,1.042,3.687,3.687,0,0,1-1.784.949,5.42,5.42,0,0,1-1.292.141,3.964,3.964,0,0,1-2.979-1.279,4.976,4.976,0,0,1-1.222-3.582,5.41,5.41,0,0,1,1.23-3.683A4.059,4.059,0,0,1,51.574,4.376ZM54.1,8.542A4.1,4.1,0,0,0,53.648,6.9a2.3,2.3,0,0,0-2.171-1.143,2.406,2.406,0,0,0-1.828.787,2.972,2.972,0,0,0-.782,2Zm7.543,4.395a2.257,2.257,0,0,0,1.841-.927,4.413,4.413,0,0,0,.734-2.773A5.176,5.176,0,0,0,63.889,7.3a2.383,2.383,0,0,0-4.5.088,6.514,6.514,0,0,0-.325,2.232,4.732,4.732,0,0,0,.325,1.854A2.243,2.243,0,0,0,61.639,12.937Zm-4.1-8.306h1.538V5.879a3.84,3.84,0,0,1,1.037-.993A3.338,3.338,0,0,1,62,4.358a3.537,3.537,0,0,1,2.716,1.226,5.023,5.023,0,0,1,1.116,3.5q0,3.076-1.608,4.395a3.634,3.634,0,0,1-2.373.835,3.221,3.221,0,0,1-1.784-.466,4.111,4.111,0,0,1-.94-.905v4.808H57.543ZM68,1.959h1.6V4.587h1.5V5.879h-1.5v6.144a.665.665,0,0,0,.334.659,1.42,1.42,0,0,0,.615.1q.114,0,.246,0t.308-.022V14a3.532,3.532,0,0,1-.567.114,5.39,5.39,0,0,1-.637.035,1.717,1.717,0,0,1-1.5-.567A2.519,2.519,0,0,1,68,12.11V5.879H66.721V4.587H68ZM76.417,12.98a2.182,2.182,0,0,0,2.158-1.191,5.933,5.933,0,0,0,.584-2.65A4.718,4.718,0,0,0,78.737,7a2.373,2.373,0,0,0-2.3-1.3A2.271,2.271,0,0,0,74.325,6.8a5.133,5.133,0,0,0-.659,2.672,4.465,4.465,0,0,0,.659,2.5A2.322,2.322,0,0,0,76.417,12.98Zm.062-8.666a4.262,4.262,0,0,1,3.076,1.213A4.736,4.736,0,0,1,80.812,9.1,6.122,6.122,0,0,1,79.7,12.857a4.006,4.006,0,0,1-3.437,1.485,3.88,3.88,0,0,1-3.085-1.314A5.19,5.19,0,0,1,72.04,9.5a5.615,5.615,0,0,1,1.2-3.779A4.041,4.041,0,0,1,76.479,4.314Zm7.156,6.732a2.3,2.3,0,0,0,.4,1.213,2.485,2.485,0,0,0,2.074.765,3.059,3.059,0,0,0,1.547-.382,1.27,1.27,0,0,0,.668-1.182,1.011,1.011,0,0,0-.536-.923,6.374,6.374,0,0,0-1.354-.448l-1.257-.316A6.131,6.131,0,0,1,83.4,9.1a2,2,0,0,1-1.02-1.775,2.713,2.713,0,0,1,.962-2.162,3.839,3.839,0,0,1,2.588-.826A3.593,3.593,0,0,1,89,5.589a2.708,2.708,0,0,1,.571,1.705H88.073a1.83,1.83,0,0,0-.378-.976,2.41,2.41,0,0,0-1.89-.624,2.259,2.259,0,0,0-1.358.343,1.074,1.074,0,0,0-.461.905,1.114,1.114,0,0,0,.606.984,3.644,3.644,0,0,0,1.037.387l1.046.255a8.087,8.087,0,0,1,2.285.8,2.118,2.118,0,0,1,.923,1.907,2.906,2.906,0,0,1-.954,2.171,4.059,4.059,0,0,1-2.9.914,3.9,3.9,0,0,1-2.975-.954,3.606,3.606,0,0,1-.936-2.36Z" transform="translate(662 744)" fill="#0b0a0a"/>
    <g transform="matrix(1, 0, 0, 1, 180, 640)" filter="url(#Trazado_985601)">
      <path id="Trazado_985601-2" data-name="Trazado 985601" d="M0,0H84V238H0Z" transform="translate(283 318.38)" fill="#a530fe"/>
    </g>
    <path id="Contenido" d="M18.555,3.339h-6.5V6.318h5.687v2.25H12.06V14H9.37V1.063h9.185Zm7.752,9.308q-.035.044-.176.264a1.764,1.764,0,0,1-.334.387,3.488,3.488,0,0,1-1.138.721,3.879,3.879,0,0,1-1.288.193,2.87,2.87,0,0,1-2.865-1.529,5.852,5.852,0,0,1-.413-2.487V4.42h2.566v5.774a3.023,3.023,0,0,0,.193,1.23,1.338,1.338,0,0,0,1.345.729,1.758,1.758,0,0,0,1.758-1.037A3.754,3.754,0,0,0,26.2,9.632V4.42h2.54V14H26.307Zm9.36-6.372a1.744,1.744,0,0,0-1.749,1.081,3.713,3.713,0,0,0-.246,1.459V14h-2.5V4.438h2.417v1.4a4.252,4.252,0,0,1,.914-1.063,3.177,3.177,0,0,1,1.96-.58,3.7,3.7,0,0,1,2.43.778,3.163,3.163,0,0,1,.945,2.58V14H37.275V8.173a2.659,2.659,0,0,0-.2-1.16A1.422,1.422,0,0,0,35.667,6.274ZM50.872,1.063V14H48.438V12.673a3.533,3.533,0,0,1-1.222,1.239,3.43,3.43,0,0,1-1.705.387,3.56,3.56,0,0,1-2.826-1.358,5.215,5.215,0,0,1-1.147-3.485A6,6,0,0,1,42.667,5.6a3.674,3.674,0,0,1,3.019-1.406,3.09,3.09,0,0,1,1.547.382,3.043,3.043,0,0,1,1.1,1.059V1.063Zm-6.75,8.209a3.767,3.767,0,0,0,.527,2.118,1.756,1.756,0,0,0,1.582.8,1.849,1.849,0,0,0,1.617-.791A3.5,3.5,0,0,0,48.4,9.351a3.141,3.141,0,0,0-.888-2.514,1.91,1.91,0,0,0-1.266-.457,1.759,1.759,0,0,0-1.613.831A3.848,3.848,0,0,0,44.122,9.271Zm9.387-3.814a4.09,4.09,0,0,1,3.41-1.266,6.059,6.059,0,0,1,2.795.624,2.4,2.4,0,0,1,1.222,2.355v4.395q0,.457.018,1.107a1.392,1.392,0,0,0,.149.668.9.9,0,0,0,.369.29V14H58.747a2.79,2.79,0,0,1-.158-.545q-.044-.255-.07-.58a5.146,5.146,0,0,1-1.2.958A3.6,3.6,0,0,1,55.5,14.3a3.143,3.143,0,0,1-2.149-.743,2.649,2.649,0,0,1-.848-2.1A2.732,2.732,0,0,1,53.86,8.894a6.049,6.049,0,0,1,2.2-.615l.853-.105a3.91,3.91,0,0,0,.993-.22.753.753,0,0,0,.536-.712.845.845,0,0,0-.409-.813,2.553,2.553,0,0,0-1.2-.224,1.563,1.563,0,0,0-1.257.439,1.827,1.827,0,0,0-.352.879H52.806A3.676,3.676,0,0,1,53.509,5.457Zm1.863,6.732a1.309,1.309,0,0,0,.861.29A2.551,2.551,0,0,0,57.723,12a2.024,2.024,0,0,0,.708-1.731V9.342a2.722,2.722,0,0,1-.479.242,4.006,4.006,0,0,1-.664.171l-.562.105a3.632,3.632,0,0,0-1.134.343,1.149,1.149,0,0,0-.58,1.063A1.1,1.1,0,0,0,55.372,12.189ZM68.538,7.057A1.227,1.227,0,0,0,67.3,6.362a1.479,1.479,0,0,0-1.441.694,2.675,2.675,0,0,0-.2,1.178V14h-2.54V4.438H65.55v1.4a4.031,4.031,0,0,1,.879-1.063,3.478,3.478,0,0,1,3.665-.079,2.812,2.812,0,0,1,.826,1.151A3.185,3.185,0,0,1,72.142,4.6a3.728,3.728,0,0,1,1.723-.4,3.335,3.335,0,0,1,1.248.246,2.784,2.784,0,0,1,1.116.861,2.752,2.752,0,0,1,.545,1.23,8.5,8.5,0,0,1,.088,1.415L76.844,14H74.277V7.9A2,2,0,0,0,74.1,7a1.249,1.249,0,0,0-1.23-.668,1.44,1.44,0,0,0-1.433.861,2.7,2.7,0,0,0-.2,1.1V14H68.714V8.3A3.2,3.2,0,0,0,68.538,7.057Zm18.826,4.131a3.178,3.178,0,0,1-.888,1.731,4.349,4.349,0,0,1-3.445,1.4,4.858,4.858,0,0,1-3.226-1.178,4.75,4.75,0,0,1-1.4-3.832,5.326,5.326,0,0,1,1.261-3.814,4.312,4.312,0,0,1,3.274-1.327,5.021,5.021,0,0,1,2.153.448,3.772,3.772,0,0,1,1.582,1.415,4.828,4.828,0,0,1,.729,1.978,12.771,12.771,0,0,1,.079,1.9H80.931a2.381,2.381,0,0,0,.905,2.021,2.132,2.132,0,0,0,1.248.36,1.8,1.8,0,0,0,1.257-.439,2.087,2.087,0,0,0,.466-.659ZM84.886,8.252a2.181,2.181,0,0,0-.6-1.507,1.87,1.87,0,0,0-1.34-.514,1.7,1.7,0,0,0-1.349.545,2.72,2.72,0,0,0-.6,1.477Zm8.8-1.978a1.744,1.744,0,0,0-1.749,1.081,3.713,3.713,0,0,0-.246,1.459V14h-2.5V4.438h2.417v1.4a4.252,4.252,0,0,1,.914-1.063,3.177,3.177,0,0,1,1.96-.58,3.7,3.7,0,0,1,2.43.778,3.163,3.163,0,0,1,.945,2.58V14H95.292V8.173a2.659,2.659,0,0,0-.2-1.16A1.422,1.422,0,0,0,93.684,6.274Zm10.872,5.941v1.872l-1.187.044a3.184,3.184,0,0,1-2.426-.615,1.832,1.832,0,0,1-.422-1.327v-5.9H99.186V4.508h1.336V1.836H103V4.508h1.556V6.292H103v5.063a1.14,1.14,0,0,0,.149.734,1.645,1.645,0,0,0,.914.145q.114,0,.242,0T104.556,12.216Zm9.6-6.583a5.59,5.59,0,0,1,1.213,3.595,5.553,5.553,0,0,1-1.213,3.608,5.274,5.274,0,0,1-7.365,0,5.553,5.553,0,0,1-1.213-3.608,5.59,5.59,0,0,1,1.213-3.595,5.22,5.22,0,0,1,7.365,0Zm-3.691.6a2,2,0,0,0-1.692.778,3.6,3.6,0,0,0-.593,2.219,3.619,3.619,0,0,0,.593,2.224,2.216,2.216,0,0,0,3.379,0,3.639,3.639,0,0,0,.589-2.224,3.619,3.619,0,0,0-.589-2.219A1.99,1.99,0,0,0,110.462,6.23Zm13.3-1.371a3.086,3.086,0,0,1,1.292,2.479h-2.5a1.482,1.482,0,0,0-.272-.765,1.714,1.714,0,0,0-1.406-.51,2.021,2.021,0,0,0-1.165.255.734.734,0,0,0-.347.6.654.654,0,0,0,.369.624,15.98,15.98,0,0,0,2.61.694A4.8,4.8,0,0,1,124.577,9.3a2.415,2.415,0,0,1,.738,1.8,2.911,2.911,0,0,1-1.059,2.325,6.354,6.354,0,0,1-6.609-.053,3.1,3.1,0,0,1-1.077-2.43h2.54a1.673,1.673,0,0,0,.343.949,2.317,2.317,0,0,0,1.723.5,2.626,2.626,0,0,0,1.173-.22.737.737,0,0,0,.083-1.3,14.3,14.3,0,0,0-2.61-.756A5.437,5.437,0,0,1,117.528,9.1a2.191,2.191,0,0,1-.668-1.723A2.988,2.988,0,0,1,117.9,5.1a4.183,4.183,0,0,1,2.931-.954A5.427,5.427,0,0,1,123.76,4.859ZM20.655,28.045h2.689V41H20.655Zm9.519,5.229a1.744,1.744,0,0,0-1.749,1.081,3.713,3.713,0,0,0-.246,1.459V41h-2.5V31.438H28.1v1.4a4.252,4.252,0,0,1,.914-1.063,3.177,3.177,0,0,1,1.96-.58,3.7,3.7,0,0,1,2.43.778,3.163,3.163,0,0,1,.945,2.58V41H31.782V35.173a2.659,2.659,0,0,0-.2-1.16A1.422,1.422,0,0,0,30.174,33.274Zm11,0a1.744,1.744,0,0,0-1.749,1.081,3.713,3.713,0,0,0-.246,1.459V41h-2.5V31.438h2.417v1.4a4.252,4.252,0,0,1,.914-1.063,3.177,3.177,0,0,1,1.96-.58,3.7,3.7,0,0,1,2.43.778,3.163,3.163,0,0,1,.945,2.58V41H42.777V35.173a2.659,2.659,0,0,0-.2-1.16A1.422,1.422,0,0,0,41.169,33.274Zm14.476-.642a5.953,5.953,0,0,1,0,7.2,4.456,4.456,0,0,1-3.683,1.5,4.456,4.456,0,0,1-3.683-1.5,5.953,5.953,0,0,1,0-7.2,4.426,4.426,0,0,1,3.683-1.521A4.426,4.426,0,0,1,55.645,32.633Zm-3.691.6a2,2,0,0,0-1.692.778,3.6,3.6,0,0,0-.593,2.219,3.619,3.619,0,0,0,.593,2.224,2.216,2.216,0,0,0,3.379,0,3.639,3.639,0,0,0,.589-2.224,3.619,3.619,0,0,0-.589-2.219A1.99,1.99,0,0,0,51.953,33.23ZM57.71,31.42h2.813l2,7.066,2.039-7.066h2.689L63.792,41H61.146Zm11.312,1.037a4.09,4.09,0,0,1,3.41-1.266,6.059,6.059,0,0,1,2.795.624,2.4,2.4,0,0,1,1.222,2.355v4.395q0,.457.018,1.107a1.392,1.392,0,0,0,.149.668.9.9,0,0,0,.369.29V41H74.26a2.79,2.79,0,0,1-.158-.545q-.044-.255-.07-.58a5.146,5.146,0,0,1-1.2.958,3.6,3.6,0,0,1-1.828.466,3.143,3.143,0,0,1-2.149-.743,2.649,2.649,0,0,1-.848-2.1,2.732,2.732,0,0,1,1.362-2.558,6.049,6.049,0,0,1,2.2-.615l.853-.105a3.91,3.91,0,0,0,.993-.22.753.753,0,0,0,.536-.712.845.845,0,0,0-.409-.813,2.553,2.553,0,0,0-1.2-.224,1.563,1.563,0,0,0-1.257.439,1.827,1.827,0,0,0-.352.879H68.318A3.676,3.676,0,0,1,69.021,32.457Zm1.863,6.732a1.309,1.309,0,0,0,.861.29A2.551,2.551,0,0,0,73.236,39a2.024,2.024,0,0,0,.708-1.731v-.932a2.722,2.722,0,0,1-.479.242,4.006,4.006,0,0,1-.664.171l-.562.105A3.632,3.632,0,0,0,71.1,37.2a1.149,1.149,0,0,0-.58,1.063A1.1,1.1,0,0,0,70.885,39.189ZM86.96,34.856H84.394a2.223,2.223,0,0,0-.36-.967,1.511,1.511,0,0,0-1.31-.58,1.725,1.725,0,0,0-1.731,1.257,5.255,5.255,0,0,0-.246,1.775,4.832,4.832,0,0,0,.246,1.7,1.671,1.671,0,0,0,1.688,1.2,1.488,1.488,0,0,0,1.248-.475,2.362,2.362,0,0,0,.448-1.23h2.558a4.191,4.191,0,0,1-.826,2.162,4.016,4.016,0,0,1-3.489,1.644,4.082,4.082,0,0,1-3.4-1.371,5.548,5.548,0,0,1-1.09-3.56,5.63,5.63,0,0,1,1.2-3.841,4.191,4.191,0,0,1,3.322-1.371A5,5,0,0,1,85.6,32,3.761,3.761,0,0,1,86.96,34.856Zm4.3-3.437V41h-2.54V31.42Zm0-3.454v2.312h-2.54V27.966Zm10.415,4.667a5.953,5.953,0,0,1,0,7.2,5.274,5.274,0,0,1-7.365,0,5.953,5.953,0,0,1,0-7.2,5.22,5.22,0,0,1,7.365,0Zm-3.691.6a2,2,0,0,0-1.692.778,3.6,3.6,0,0,0-.593,2.219,3.619,3.619,0,0,0,.593,2.224,2.216,2.216,0,0,0,3.379,0,3.639,3.639,0,0,0,.589-2.224,3.619,3.619,0,0,0-.589-2.219A1.99,1.99,0,0,0,97.981,33.23Zm-1.477-3.1L98.192,27.5h2.795l-2.672,2.628Zm12.683,3.146a1.744,1.744,0,0,0-1.749,1.081,3.713,3.713,0,0,0-.246,1.459V41h-2.5V31.438h2.417v1.4a4.252,4.252,0,0,1,.914-1.063,3.177,3.177,0,0,1,1.96-.58,3.7,3.7,0,0,1,2.43.778,3.163,3.163,0,0,1,.945,2.58V41H110.8V35.173a2.659,2.659,0,0,0-.2-1.16A1.422,1.422,0,0,0,109.188,33.274Z" transform="translate(480 1144.375) rotate(-90)" fill="#fff"/>
    <g id="Trazado_985602" data-name="Trazado 985602" transform="translate(854 1264)" fill="#a0f0cb">
      <path d="M 283.5 44.5 L 0.5 44.5 L 0.5 0.5 L 283.5 0.5 L 283.5 44.5 Z" stroke="none"/>
      <path d="M 1 1 L 1 44 L 283 44 L 283 1 L 1 1 M 0 0 L 284 0 L 284 45 L 0 45 L 0 0 Z" stroke="none" fill="#0b7744"/>
    </g>
    <path id="Trazado_985603" data-name="Trazado 985603" d="M88.757,7.3l-1.742-5.07L85.163,7.3ZM86.2.523H87.96L92.124,12h-1.7L89.257,8.563H84.718L83.476,12H81.882ZM93.243.484H94.61V4.648A3.064,3.064,0,0,1,97.1,3.414a3.26,3.26,0,0,1,2.535,1.074,4.576,4.576,0,0,1,.973,3.168,5.433,5.433,0,0,1-.961,3.3,3.117,3.117,0,0,1-2.664,1.313,2.73,2.73,0,0,1-1.609-.461,3.887,3.887,0,0,1-.836-.875V12h-1.3ZM96.9,11.023a1.879,1.879,0,0,0,1.707-.906,4.462,4.462,0,0,0,.566-2.391,3.924,3.924,0,0,0-.566-2.187,1.865,1.865,0,0,0-1.668-.867,2.327,2.327,0,0,0-1.684.711,3.193,3.193,0,0,0-.723,2.344,5.18,5.18,0,0,0,.3,1.914A2.051,2.051,0,0,0,96.9,11.023Zm5.353-7.352h1.43V12h-1.43Zm0-3.148h1.43V2.117h-1.43Zm7.041,2.922a3.817,3.817,0,0,1,1.727.418,3.184,3.184,0,0,1,1.273,1.082,3.733,3.733,0,0,1,.563,1.477,9.66,9.66,0,0,1,.125,1.844h-6.133a3.579,3.579,0,0,0,.6,2.043,2.014,2.014,0,0,0,1.742.77,2.252,2.252,0,0,0,1.758-.727,2.449,2.449,0,0,0,.531-.977h1.383A2.912,2.912,0,0,1,112.5,10.4a3.654,3.654,0,0,1-.691.926,3.277,3.277,0,0,1-1.586.844,4.818,4.818,0,0,1-1.148.125,3.524,3.524,0,0,1-2.648-1.137,4.423,4.423,0,0,1-1.086-3.184A4.809,4.809,0,0,1,106.434,4.7,3.608,3.608,0,0,1,109.293,3.445Zm2.242,3.7a3.643,3.643,0,0,0-.4-1.461,2.042,2.042,0,0,0-1.93-1.016,2.139,2.139,0,0,0-1.625.7,2.641,2.641,0,0,0-.7,1.777Zm3.213-3.516h1.336V5.078a3.193,3.193,0,0,1,.8-1.027,2.086,2.086,0,0,1,1.477-.605q.039,0,.133.008l.32.031V4.969a2.1,2.1,0,0,0-.23-.031q-.105-.008-.23-.008a2.007,2.007,0,0,0-1.633.684,2.386,2.386,0,0,0-.57,1.574V12h-1.406ZM120.32,1.3h1.422V3.633h1.336V4.781h-1.336v5.461a.591.591,0,0,0,.3.586,1.262,1.262,0,0,0,.547.086q.1,0,.219,0t.273-.02V12a3.139,3.139,0,0,1-.5.1,4.791,4.791,0,0,1-.566.031,1.527,1.527,0,0,1-1.336-.5,2.239,2.239,0,0,1-.352-1.309V4.781h-1.133V3.633h1.133Zm5.244,8.477a1.158,1.158,0,0,0,.445.961,1.651,1.651,0,0,0,1.055.352,3.207,3.207,0,0,0,1.437-.344,1.935,1.935,0,0,0,1.172-1.867V7.742a2.406,2.406,0,0,1-.664.273,5.658,5.658,0,0,1-.8.156l-.852.109a3.257,3.257,0,0,0-1.148.32A1.248,1.248,0,0,0,125.563,9.773ZM128.97,6.93a.764.764,0,0,0,.648-.406,1.236,1.236,0,0,0,.094-.539,1.142,1.142,0,0,0-.512-1.043,2.745,2.745,0,0,0-1.465-.324,1.861,1.861,0,0,0-1.562.594,1.953,1.953,0,0,0-.336.977h-1.312a2.416,2.416,0,0,1,1-2.152,4.122,4.122,0,0,1,2.238-.605,4.554,4.554,0,0,1,2.4.563,1.908,1.908,0,0,1,.914,1.75v4.82a.617.617,0,0,0,.09.352.433.433,0,0,0,.379.133q.094,0,.211-.012t.25-.035v1.039a3.917,3.917,0,0,1-.5.117,3.654,3.654,0,0,1-.469.023,1.157,1.157,0,0,1-1.055-.516,1.99,1.99,0,0,1-.242-.773,3.578,3.578,0,0,1-1.234.977,3.818,3.818,0,0,1-1.773.414,2.637,2.637,0,0,1-1.9-.707,2.349,2.349,0,0,1-.738-1.77,2.279,2.279,0,0,1,.727-1.8,3.457,3.457,0,0,1,1.906-.789Z" transform="translate(889 1276)" fill="#0b0a0a"/>
    <g transform="matrix(1, 0, 0, 1, 180, 640)" filter="url(#Trazado_985604)">
      <g id="Trazado_985604-2" data-name="Trazado 985604" transform="translate(674 975.38)" fill="#a0f0cb">
        <path d="M 283.5 44.5 L 0.5 44.5 L 0.5 0.5 L 283.5 0.5 L 283.5 44.5 Z" stroke="none"/>
        <path d="M 1 1 L 1 44 L 283 44 L 283 1 L 1 1 M 0 0 L 284 0 L 284 45 L 0 45 L 0 0 Z" stroke="none" fill="#0b7744"/>
      </g>
    </g>
    <path id="Trazado_985605" data-name="Trazado 985605" d="M64.621.523h1.555V10.633h5.813V12H64.621Zm12.2,2.922a3.817,3.817,0,0,1,1.727.418,3.184,3.184,0,0,1,1.273,1.082,3.733,3.733,0,0,1,.563,1.477,9.66,9.66,0,0,1,.125,1.844H74.373a3.579,3.579,0,0,0,.6,2.043,2.014,2.014,0,0,0,1.742.77,2.252,2.252,0,0,0,1.758-.727,2.449,2.449,0,0,0,.531-.977h1.383a2.912,2.912,0,0,1-.363,1.027,3.654,3.654,0,0,1-.691.926,3.277,3.277,0,0,1-1.586.844A4.818,4.818,0,0,1,76.6,12.3a3.524,3.524,0,0,1-2.648-1.137,4.423,4.423,0,0,1-1.086-3.184A4.809,4.809,0,0,1,73.958,4.7,3.608,3.608,0,0,1,76.818,3.445Zm2.242,3.7a3.643,3.643,0,0,0-.4-1.461,2.042,2.042,0,0,0-1.93-1.016,2.139,2.139,0,0,0-1.625.7,2.641,2.641,0,0,0-.7,1.777Zm4.252,2.625a1.158,1.158,0,0,0,.445.961,1.651,1.651,0,0,0,1.055.352,3.207,3.207,0,0,0,1.438-.344,1.935,1.935,0,0,0,1.172-1.867V7.742a2.406,2.406,0,0,1-.664.273,5.659,5.659,0,0,1-.8.156l-.852.109a3.257,3.257,0,0,0-1.148.32A1.248,1.248,0,0,0,83.312,9.773ZM86.718,6.93a.764.764,0,0,0,.648-.406,1.236,1.236,0,0,0,.094-.539,1.142,1.142,0,0,0-.512-1.043,2.745,2.745,0,0,0-1.465-.324,1.861,1.861,0,0,0-1.562.594,1.953,1.953,0,0,0-.336.977H82.273a2.416,2.416,0,0,1,1-2.152,4.122,4.122,0,0,1,2.238-.605,4.554,4.554,0,0,1,2.4.563,1.908,1.908,0,0,1,.914,1.75v4.82a.617.617,0,0,0,.09.352.433.433,0,0,0,.379.133q.094,0,.211-.012t.25-.035v1.039a3.916,3.916,0,0,1-.5.117,3.654,3.654,0,0,1-.469.023,1.157,1.157,0,0,1-1.055-.516,1.99,1.99,0,0,1-.242-.773,3.578,3.578,0,0,1-1.234.977,3.818,3.818,0,0,1-1.773.414,2.637,2.637,0,0,1-1.9-.707,2.349,2.349,0,0,1-.738-1.77A2.279,2.279,0,0,1,82.569,8a3.457,3.457,0,0,1,1.906-.789Zm4.416-3.3h1.336V4.82a3.747,3.747,0,0,1,1.258-1.055,3.354,3.354,0,0,1,1.477-.32A2.435,2.435,0,0,1,97.61,4.688a4.411,4.411,0,0,1,.344,1.945V12h-1.43V6.727A2.856,2.856,0,0,0,96.3,5.492a1.374,1.374,0,0,0-1.359-.781,2.768,2.768,0,0,0-.82.1A2.113,2.113,0,0,0,93.1,5.5a2.07,2.07,0,0,0-.457.855,5.758,5.758,0,0,0-.105,1.262V12H91.134Zm10.1,4.664a3.136,3.136,0,0,0,.461,1.586,3.055,3.055,0,0,0,2.727,1.141,4.826,4.826,0,0,0,1.594-.25,1.771,1.771,0,0,0,1.391-1.734,1.5,1.5,0,0,0-.586-1.336,5.916,5.916,0,0,0-1.859-.68l-1.555-.352a7.04,7.04,0,0,1-2.156-.758,2.4,2.4,0,0,1-1.094-2.148,3.308,3.308,0,0,1,1.07-2.539A4.294,4.294,0,0,1,104.26.234a5.265,5.265,0,0,1,3.066.871,3.144,3.144,0,0,1,1.262,2.785h-1.461a2.876,2.876,0,0,0-.5-1.414,2.9,2.9,0,0,0-2.414-.9,2.793,2.793,0,0,0-1.977.578,1.809,1.809,0,0,0-.6,1.344,1.312,1.312,0,0,0,.7,1.234,10.318,10.318,0,0,0,2.086.625l1.609.367a4.931,4.931,0,0,1,1.8.727,2.721,2.721,0,0,1,1.094,2.336,2.916,2.916,0,0,1-1.387,2.727,6.21,6.21,0,0,1-3.223.82,4.819,4.819,0,0,1-3.352-1.094A3.69,3.69,0,0,1,99.776,8.3Zm9.752-7h1.422V3.633h1.336V4.781H112.41v5.461a.591.591,0,0,0,.3.586,1.262,1.262,0,0,0,.547.086q.1,0,.219,0t.273-.02V12a3.139,3.139,0,0,1-.5.1,4.791,4.791,0,0,1-.566.031,1.527,1.527,0,0,1-1.336-.5,2.239,2.239,0,0,1-.352-1.309V4.781h-1.133V3.633h1.133Zm5.244,8.477a1.158,1.158,0,0,0,.445.961,1.651,1.651,0,0,0,1.055.352,3.207,3.207,0,0,0,1.438-.344,1.935,1.935,0,0,0,1.172-1.867V7.742a2.406,2.406,0,0,1-.664.273,5.659,5.659,0,0,1-.8.156l-.852.109a3.257,3.257,0,0,0-1.148.32A1.248,1.248,0,0,0,116.232,9.773Zm3.406-2.844a.764.764,0,0,0,.648-.406,1.236,1.236,0,0,0,.094-.539,1.142,1.142,0,0,0-.512-1.043,2.745,2.745,0,0,0-1.465-.324,1.861,1.861,0,0,0-1.562.594,1.953,1.953,0,0,0-.336.977h-1.312a2.416,2.416,0,0,1,1-2.152,4.122,4.122,0,0,1,2.238-.605,4.554,4.554,0,0,1,2.4.563,1.908,1.908,0,0,1,.914,1.75v4.82a.617.617,0,0,0,.09.352.433.433,0,0,0,.379.133q.094,0,.211-.012t.25-.035v1.039a3.916,3.916,0,0,1-.5.117,3.654,3.654,0,0,1-.469.023,1.157,1.157,0,0,1-1.055-.516,1.99,1.99,0,0,1-.242-.773,3.578,3.578,0,0,1-1.234.977,3.818,3.818,0,0,1-1.773.414,2.637,2.637,0,0,1-1.9-.707,2.349,2.349,0,0,1-.738-1.77A2.279,2.279,0,0,1,115.49,8a3.457,3.457,0,0,1,1.906-.789Zm4.455-3.3h1.336V5.078a3.193,3.193,0,0,1,.8-1.027,2.086,2.086,0,0,1,1.477-.605q.039,0,.133.008l.32.031V4.969a2.1,2.1,0,0,0-.23-.031q-.105-.008-.23-.008a2.007,2.007,0,0,0-1.633.684,2.386,2.386,0,0,0-.57,1.574V12h-1.406ZM129.665,1.3h1.422V3.633h1.336V4.781h-1.336v5.461a.591.591,0,0,0,.3.586,1.262,1.262,0,0,0,.547.086q.1,0,.219,0t.273-.02V12a3.139,3.139,0,0,1-.5.1,4.791,4.791,0,0,1-.566.031,1.527,1.527,0,0,1-1.336-.5,2.239,2.239,0,0,1-.352-1.309V4.781h-1.133V3.633h1.133Zm5.572,2.336V9.188a2.342,2.342,0,0,0,.2,1.047,1.417,1.417,0,0,0,1.4.75,1.977,1.977,0,0,0,2-1.312,5.207,5.207,0,0,0,.289-1.93V3.633h1.406V12h-1.328l.016-1.234a2.837,2.837,0,0,1-.68.8,2.991,2.991,0,0,1-1.953.656,2.519,2.519,0,0,1-2.437-1.2A3.56,3.56,0,0,1,133.8,9.32V3.633Zm11.025,7.422a2.006,2.006,0,0,0,1.637-.824,3.922,3.922,0,0,0,.652-2.465,4.6,4.6,0,0,0-.289-1.719,2.118,2.118,0,0,0-4,.078,5.79,5.79,0,0,0-.289,1.984,4.207,4.207,0,0,0,.289,1.648A1.994,1.994,0,0,0,146.262,11.055Zm-3.641-7.383h1.367V4.781a3.413,3.413,0,0,1,.922-.883,2.967,2.967,0,0,1,1.672-.469A3.144,3.144,0,0,1,149,4.52a4.465,4.465,0,0,1,.992,3.113,4.781,4.781,0,0,1-1.43,3.906,3.23,3.23,0,0,1-2.109.742,2.863,2.863,0,0,1-1.586-.414,3.654,3.654,0,0,1-.836-.8v4.273h-1.406Z" transform="translate(889 1626.375)" fill="#0b0a0a"/>
    <g transform="matrix(1, 0, 0, 1, 180, 640)" filter="url(#Trazado_985606)">
      <g id="Trazado_985606-2" data-name="Trazado 985606" transform="translate(674 1045)" fill="#a0f0cb">
        <path d="M 283.5 44.5 L 0.5 44.5 L 0.5 0.5 L 283.5 0.5 L 283.5 44.5 Z" stroke="none"/>
        <path d="M 1 1 L 1 44 L 283 44 L 283 1 L 1 1 M 0 0 L 284 0 L 284 45 L 0 45 L 0 0 Z" stroke="none" fill="#0b7744"/>
      </g>
    </g>
    <path id="Trazado_985607" data-name="Trazado 985607" d="M73.725.523V1.891H69.858V12H68.279V1.891H64.412V.523Zm.689,3.109H75.75V5.078a3.193,3.193,0,0,1,.8-1.027,2.086,2.086,0,0,1,1.477-.605q.039,0,.133.008l.32.031V4.969a2.1,2.1,0,0,0-.23-.031q-.105-.008-.23-.008a2.007,2.007,0,0,0-1.633.684,2.386,2.386,0,0,0-.57,1.574V12H74.414Zm5.291.039h1.43V12H79.7Zm0-3.148h1.43V2.117H79.7Zm7.088,10.531a2.006,2.006,0,0,0,1.637-.824,3.922,3.922,0,0,0,.652-2.465,4.6,4.6,0,0,0-.289-1.719,2.118,2.118,0,0,0-4,.078A5.79,5.79,0,0,0,84.5,8.109a4.206,4.206,0,0,0,.289,1.648A1.994,1.994,0,0,0,86.792,11.055ZM83.151,3.672h1.367V4.781a3.413,3.413,0,0,1,.922-.883,2.967,2.967,0,0,1,1.672-.469,3.144,3.144,0,0,1,2.414,1.09,4.465,4.465,0,0,1,.992,3.113,4.781,4.781,0,0,1-1.43,3.906,3.23,3.23,0,0,1-2.109.742,2.863,2.863,0,0,1-1.586-.414,3.654,3.654,0,0,1-.836-.8v4.273H83.151ZM92.2.523h1.406V12H92.2Zm7,2.922a3.817,3.817,0,0,1,1.727.418A3.184,3.184,0,0,1,102.2,4.945a3.733,3.733,0,0,1,.563,1.477,9.66,9.66,0,0,1,.125,1.844H96.756a3.579,3.579,0,0,0,.6,2.043,2.014,2.014,0,0,0,1.742.77,2.252,2.252,0,0,0,1.758-.727,2.449,2.449,0,0,0,.531-.977h1.383a2.912,2.912,0,0,1-.363,1.027,3.654,3.654,0,0,1-.691.926,3.277,3.277,0,0,1-1.586.844,4.818,4.818,0,0,1-1.148.125,3.524,3.524,0,0,1-2.648-1.137,4.423,4.423,0,0,1-1.086-3.184A4.809,4.809,0,0,1,96.342,4.7,3.608,3.608,0,0,1,99.2,3.445Zm2.242,3.7a3.643,3.643,0,0,0-.4-1.461,2.042,2.042,0,0,0-1.93-1.016,2.139,2.139,0,0,0-1.625.7,2.641,2.641,0,0,0-.7,1.777Zm7.62-6.664h1.406V4.766a4.06,4.06,0,0,1,.9-.891,3.031,3.031,0,0,1,1.7-.445A2.507,2.507,0,0,1,115.533,4.7a4.343,4.343,0,0,1,.352,1.93V12h-1.445V6.727a2.949,2.949,0,0,0-.234-1.352,1.5,1.5,0,0,0-1.437-.687,2.4,2.4,0,0,0-1.586.6,2.892,2.892,0,0,0-.711,2.273V12h-1.406Zm12.384,2.961a3.817,3.817,0,0,1,1.727.418,3.184,3.184,0,0,1,1.273,1.082,3.733,3.733,0,0,1,.563,1.477,9.66,9.66,0,0,1,.125,1.844H119a3.579,3.579,0,0,0,.6,2.043,2.014,2.014,0,0,0,1.742.77,2.252,2.252,0,0,0,1.758-.727,2.449,2.449,0,0,0,.531-.977h1.383a2.912,2.912,0,0,1-.363,1.027,3.654,3.654,0,0,1-.691.926,3.277,3.277,0,0,1-1.586.844,4.818,4.818,0,0,1-1.148.125,3.524,3.524,0,0,1-2.648-1.137A4.423,4.423,0,0,1,117.5,7.977,4.809,4.809,0,0,1,118.589,4.7,3.608,3.608,0,0,1,121.449,3.445Zm2.242,3.7a3.643,3.643,0,0,0-.4-1.461,2.042,2.042,0,0,0-1.93-1.016,2.139,2.139,0,0,0-1.625.7,2.641,2.641,0,0,0-.7,1.777ZM123.074.266l-2.086,2.258h-1.078l1.43-2.258Zm3.83.258h1.406V12H126.9Zm3.517,3.148h1.43V12h-1.43Zm0-3.148h1.43V2.117h-1.43ZM137.2,3.391a3.648,3.648,0,0,1,2.3.688,3.294,3.294,0,0,1,1.066,2.367H139.2a2.524,2.524,0,0,0-.57-1.285,1.8,1.8,0,0,0-1.43-.512,1.975,1.975,0,0,0-1.922,1.313,5.214,5.214,0,0,0-.375,2.1,3.955,3.955,0,0,0,.531,2.117,2.06,2.06,0,0,0,3.059.324,2.943,2.943,0,0,0,.707-1.465h1.367a3.67,3.67,0,0,1-1.172,2.434,3.656,3.656,0,0,1-2.4.77,3.2,3.2,0,0,1-2.617-1.2,4.59,4.59,0,0,1-.977-3,5.047,5.047,0,0,1,1.07-3.43A3.459,3.459,0,0,1,137.2,3.391Zm8.259.055a3.817,3.817,0,0,1,1.727.418,3.184,3.184,0,0,1,1.273,1.082,3.733,3.733,0,0,1,.563,1.477,9.661,9.661,0,0,1,.125,1.844h-6.133a3.579,3.579,0,0,0,.6,2.043,2.014,2.014,0,0,0,1.742.77,2.252,2.252,0,0,0,1.758-.727,2.449,2.449,0,0,0,.531-.977h1.383a2.912,2.912,0,0,1-.363,1.027,3.654,3.654,0,0,1-.691.926,3.277,3.277,0,0,1-1.586.844,4.818,4.818,0,0,1-1.148.125A3.524,3.524,0,0,1,142.6,11.16a4.423,4.423,0,0,1-1.086-3.184A4.809,4.809,0,0,1,142.6,4.7,3.608,3.608,0,0,1,145.463,3.445Zm2.242,3.7a3.643,3.643,0,0,0-.4-1.461,2.042,2.042,0,0,0-1.93-1.016,2.139,2.139,0,0,0-1.625.7,2.641,2.641,0,0,0-.7,1.777Z" transform="translate(889 1698)" fill="#0b0a0a"/>
    <path id="Trazado_983296-4" data-name="Trazado 983296" d="M2528,885.79h-32.82v344h28.862" transform="translate(-1665.687 -20.79)" fill="none" stroke="#5a1a8a" stroke-width="1"/>
    <path id="Trazado_983299" data-name="Trazado 983299" d="M2472.242,1042h26.493" transform="translate(-1664.145 31.5)" fill="none" stroke="#5a1a8a" stroke-width="1"/>
    <g id="Trazado_985608" data-name="Trazado 985608" transform="translate(609 1049)" fill="#15da7e">
      <path d="M 200.5 54.5 L 0.5 54.5 L 0.5 0.5 L 200.5 0.5 L 200.5 54.5 Z" stroke="none"/>
      <path d="M 1 1 L 1 54 L 200 54 L 200 1 L 1 1 M 0 0 L 201 0 L 201 55 L 0 55 L 0 0 Z" stroke="none" fill="#15da7e"/>
    </g>
    <path id="Trazado_985609" data-name="Trazado 985609" d="M21.085,1.089V2.627H16.734V14H14.959V2.627H10.608V1.089Zm.731,3.542h1.608V14H21.816Zm0-3.542h1.608V2.882H21.816ZM29.79,12.937a2.257,2.257,0,0,0,1.841-.927,4.413,4.413,0,0,0,.734-2.773A5.176,5.176,0,0,0,32.04,7.3a2.383,2.383,0,0,0-4.5.088,6.514,6.514,0,0,0-.325,2.232,4.732,4.732,0,0,0,.325,1.854A2.243,2.243,0,0,0,29.79,12.937Zm-4.1-8.306h1.538V5.879a3.84,3.84,0,0,1,1.037-.993,3.338,3.338,0,0,1,1.881-.527,3.537,3.537,0,0,1,2.716,1.226,5.023,5.023,0,0,1,1.116,3.5q0,3.076-1.608,4.395A3.634,3.634,0,0,1,30,14.316a3.221,3.221,0,0,1-1.784-.466,4.111,4.111,0,0,1-.94-.905v4.808H25.694Zm13.871,8.35a2.182,2.182,0,0,0,2.158-1.191,5.933,5.933,0,0,0,.584-2.65A4.718,4.718,0,0,0,41.885,7a2.373,2.373,0,0,0-2.3-1.3A2.271,2.271,0,0,0,37.473,6.8a5.133,5.133,0,0,0-.659,2.672,4.465,4.465,0,0,0,.659,2.5A2.322,2.322,0,0,0,39.565,12.98Zm.062-8.666A4.262,4.262,0,0,1,42.7,5.527,4.736,4.736,0,0,1,43.959,9.1a6.122,6.122,0,0,1-1.107,3.762,4.006,4.006,0,0,1-3.437,1.485,3.88,3.88,0,0,1-3.085-1.314A5.19,5.19,0,0,1,35.188,9.5a5.615,5.615,0,0,1,1.2-3.779A4.041,4.041,0,0,1,39.626,4.314Zm7.156,6.732a2.3,2.3,0,0,0,.4,1.213,2.485,2.485,0,0,0,2.074.765,3.059,3.059,0,0,0,1.547-.382,1.27,1.27,0,0,0,.668-1.182,1.011,1.011,0,0,0-.536-.923,6.374,6.374,0,0,0-1.354-.448L48.32,9.772A6.131,6.131,0,0,1,46.545,9.1a2,2,0,0,1-1.02-1.775,2.713,2.713,0,0,1,.962-2.162,3.839,3.839,0,0,1,2.588-.826,3.593,3.593,0,0,1,3.067,1.248,2.708,2.708,0,0,1,.571,1.705H51.221a1.83,1.83,0,0,0-.378-.976,2.41,2.41,0,0,0-1.89-.624,2.259,2.259,0,0,0-1.358.343,1.074,1.074,0,0,0-.461.905,1.114,1.114,0,0,0,.606.984,3.644,3.644,0,0,0,1.037.387l1.046.255a8.087,8.087,0,0,1,2.285.8,2.118,2.118,0,0,1,.923,1.907,2.906,2.906,0,0,1-.954,2.171,4.059,4.059,0,0,1-2.9.914,3.9,3.9,0,0,1-2.975-.954,3.606,3.606,0,0,1-.936-2.36Z" transform="translate(678 1065)" fill="#0b0a0a"/>
    <g transform="matrix(1, 0, 0, 1, 180, 640)" filter="url(#Trazado_985610)">
      <g id="Trazado_985610-2" data-name="Trazado 985610" transform="translate(674 765)" fill="#a0f0cb">
        <path d="M 283.5 44.5 L 0.5 44.5 L 0.5 0.5 L 283.5 0.5 L 283.5 44.5 Z" stroke="none"/>
        <path d="M 1 1 L 1 44 L 283 44 L 283 1 L 1 1 M 0 0 L 284 0 L 284 45 L 0 45 L 0 0 Z" stroke="none" fill="#0b7744"/>
      </g>
    </g>
    <path id="Trazado_985611" data-name="Trazado 985611" d="M66.765.523h1.57V12h-1.57Zm3.908,3.109h1.336V4.82a3.747,3.747,0,0,1,1.258-1.055,3.354,3.354,0,0,1,1.477-.32A2.435,2.435,0,0,1,77.15,4.688a4.411,4.411,0,0,1,.344,1.945V12h-1.43V6.727a2.856,2.856,0,0,0-.227-1.234,1.374,1.374,0,0,0-1.359-.781,2.768,2.768,0,0,0-.82.1,2.113,2.113,0,0,0-1.016.688,2.07,2.07,0,0,0-.457.855,5.758,5.758,0,0,0-.105,1.262V12H70.673ZM82.8,3.391a3.648,3.648,0,0,1,2.3.688,3.294,3.294,0,0,1,1.066,2.367H84.8a2.524,2.524,0,0,0-.57-1.285,1.8,1.8,0,0,0-1.43-.512,1.975,1.975,0,0,0-1.922,1.313,5.214,5.214,0,0,0-.375,2.1,3.955,3.955,0,0,0,.531,2.117,2.06,2.06,0,0,0,3.059.324A2.943,2.943,0,0,0,84.8,9.039h1.367A3.67,3.67,0,0,1,85,11.473a3.656,3.656,0,0,1-2.4.77,3.2,3.2,0,0,1-2.617-1.2,4.59,4.59,0,0,1-.977-3,5.048,5.048,0,0,1,1.07-3.43A3.459,3.459,0,0,1,82.8,3.391Zm4.814.242H88.95V5.078a3.193,3.193,0,0,1,.8-1.027,2.086,2.086,0,0,1,1.477-.605q.039,0,.133.008l.32.031V4.969a2.1,2.1,0,0,0-.23-.031q-.105-.008-.23-.008a2.007,2.007,0,0,0-1.633.684,2.386,2.386,0,0,0-.57,1.574V12H87.614Zm8.775-.187a3.817,3.817,0,0,1,1.727.418,3.184,3.184,0,0,1,1.273,1.082,3.733,3.733,0,0,1,.563,1.477,9.66,9.66,0,0,1,.125,1.844H93.944a3.579,3.579,0,0,0,.6,2.043,2.014,2.014,0,0,0,1.742.77,2.252,2.252,0,0,0,1.758-.727,2.449,2.449,0,0,0,.531-.977h1.383A2.912,2.912,0,0,1,99.6,10.4a3.654,3.654,0,0,1-.691.926,3.277,3.277,0,0,1-1.586.844,4.818,4.818,0,0,1-1.148.125,3.524,3.524,0,0,1-2.648-1.137,4.423,4.423,0,0,1-1.086-3.184A4.809,4.809,0,0,1,93.53,4.7,3.608,3.608,0,0,1,96.389,3.445Zm2.242,3.7a3.643,3.643,0,0,0-.4-1.461A2.042,2.042,0,0,0,96.3,4.672a2.139,2.139,0,0,0-1.625.7,2.641,2.641,0,0,0-.7,1.777ZM101.8,3.633H103.2V4.82a4.674,4.674,0,0,1,.906-.9,2.726,2.726,0,0,1,1.578-.477,2.484,2.484,0,0,1,1.609.492,2.573,2.573,0,0,1,.625.828,3.039,3.039,0,0,1,1.1-1,3.073,3.073,0,0,1,1.422-.324,2.325,2.325,0,0,1,2.3,1.219,3.984,3.984,0,0,1,.328,1.766V12H111.6V6.188a1.354,1.354,0,0,0-.418-1.148,1.654,1.654,0,0,0-1.02-.312,2.024,2.024,0,0,0-1.426.555,2.436,2.436,0,0,0-.6,1.852V12h-1.43V6.539a2.837,2.837,0,0,0-.2-1.242,1.239,1.239,0,0,0-1.2-.586,2.062,2.062,0,0,0-1.449.617,3.025,3.025,0,0,0-.652,2.234V12H101.8Zm16.814-.187a3.817,3.817,0,0,1,1.727.418,3.184,3.184,0,0,1,1.273,1.082,3.733,3.733,0,0,1,.563,1.477,9.66,9.66,0,0,1,.125,1.844h-6.133a3.579,3.579,0,0,0,.6,2.043,2.014,2.014,0,0,0,1.742.77,2.252,2.252,0,0,0,1.758-.727,2.449,2.449,0,0,0,.531-.977h1.383a2.912,2.912,0,0,1-.363,1.027,3.654,3.654,0,0,1-.691.926,3.277,3.277,0,0,1-1.586.844,4.818,4.818,0,0,1-1.148.125,3.524,3.524,0,0,1-2.648-1.137,4.423,4.423,0,0,1-1.086-3.184A4.809,4.809,0,0,1,115.759,4.7,3.608,3.608,0,0,1,118.619,3.445Zm2.242,3.7a3.643,3.643,0,0,0-.4-1.461,2.042,2.042,0,0,0-1.93-1.016,2.139,2.139,0,0,0-1.625.7,2.641,2.641,0,0,0-.7,1.777Zm3.173-3.516h1.336V4.82a3.747,3.747,0,0,1,1.258-1.055,3.354,3.354,0,0,1,1.477-.32,2.435,2.435,0,0,1,2.406,1.242,4.411,4.411,0,0,1,.344,1.945V12h-1.43V6.727a2.855,2.855,0,0,0-.227-1.234,1.374,1.374,0,0,0-1.359-.781,2.768,2.768,0,0,0-.82.1A2.113,2.113,0,0,0,126,5.5a2.07,2.07,0,0,0-.457.855,5.758,5.758,0,0,0-.105,1.262V12h-1.406ZM133.216,1.3h1.422V3.633h1.336V4.781h-1.336v5.461a.591.591,0,0,0,.3.586,1.262,1.262,0,0,0,.547.086q.1,0,.219,0t.273-.02V12a3.139,3.139,0,0,1-.5.1,4.791,4.791,0,0,1-.566.031,1.527,1.527,0,0,1-1.336-.5,2.239,2.239,0,0,1-.352-1.309V4.781h-1.133V3.633h1.133Zm5.244,8.477a1.158,1.158,0,0,0,.445.961,1.651,1.651,0,0,0,1.055.352,3.207,3.207,0,0,0,1.438-.344,1.935,1.935,0,0,0,1.172-1.867V7.742a2.406,2.406,0,0,1-.664.273,5.658,5.658,0,0,1-.8.156l-.852.109a3.257,3.257,0,0,0-1.148.32A1.248,1.248,0,0,0,138.46,9.773Zm3.406-2.844a.764.764,0,0,0,.648-.406,1.236,1.236,0,0,0,.094-.539,1.142,1.142,0,0,0-.512-1.043,2.745,2.745,0,0,0-1.465-.324,1.861,1.861,0,0,0-1.562.594,1.953,1.953,0,0,0-.336.977H137.42a2.416,2.416,0,0,1,1-2.152,4.122,4.122,0,0,1,2.238-.605,4.554,4.554,0,0,1,2.4.563,1.908,1.908,0,0,1,.914,1.75v4.82a.617.617,0,0,0,.09.352.433.433,0,0,0,.379.133q.094,0,.211-.012T144.9,11v1.039a3.917,3.917,0,0,1-.5.117,3.654,3.654,0,0,1-.469.023,1.157,1.157,0,0,1-1.055-.516,1.99,1.99,0,0,1-.242-.773,3.578,3.578,0,0,1-1.234.977,3.818,3.818,0,0,1-1.773.414,2.637,2.637,0,0,1-1.9-.707,2.349,2.349,0,0,1-.738-1.77,2.279,2.279,0,0,1,.727-1.8,3.457,3.457,0,0,1,1.906-.789ZM146.32.523h1.406V12H146.32Z" transform="translate(889 1417)" fill="#0b0a0a"/>
    <g transform="matrix(1, 0, 0, 1, 180, 640)" filter="url(#Trazado_985612)">
      <g id="Trazado_985612-2" data-name="Trazado 985612" transform="translate(674 905.38)" fill="#a0f0cb">
        <path d="M 283.5 44.5 L 0.5 44.5 L 0.5 0.5 L 283.5 0.5 L 283.5 44.5 Z" stroke="none"/>
        <path d="M 1 1 L 1 44 L 283 44 L 283 1 L 1 1 M 0 0 L 284 0 L 284 45 L 0 45 L 0 0 Z" stroke="none" fill="#0b7744"/>
      </g>
    </g>
    <path id="Trazado_985613" data-name="Trazado 985613" d="M77.051,10.672a4.3,4.3,0,0,0,1.3-.164,2.852,2.852,0,0,0,1.484-1.172A4.8,4.8,0,0,0,80.5,7.555a6.794,6.794,0,0,0,.117-1.2,5.6,5.6,0,0,0-.848-3.312,3.131,3.131,0,0,0-2.73-1.18H74.278v8.813ZM72.715.523h4.648A4.381,4.381,0,0,1,81.036,2.2,6.193,6.193,0,0,1,82.2,6.086a7.736,7.736,0,0,1-.687,3.3A4.242,4.242,0,0,1,77.348,12H72.715Zm11.3,3.148h1.43V12h-1.43Zm0-3.148h1.43V2.117h-1.43Zm4.392,8.852a2.045,2.045,0,0,0,.352,1.078,2.209,2.209,0,0,0,1.844.68,2.719,2.719,0,0,0,1.375-.34,1.129,1.129,0,0,0,.594-1.051.9.9,0,0,0-.477-.82,5.666,5.666,0,0,0-1.2-.4l-1.117-.281A5.45,5.45,0,0,1,88.2,7.648a1.775,1.775,0,0,1-.906-1.578,2.411,2.411,0,0,1,.855-1.922,3.413,3.413,0,0,1,2.3-.734,3.194,3.194,0,0,1,2.727,1.109,2.407,2.407,0,0,1,.508,1.516H92.351a1.627,1.627,0,0,0-.336-.867,2.143,2.143,0,0,0-1.68-.555,2.008,2.008,0,0,0-1.207.3.955.955,0,0,0-.41.8.991.991,0,0,0,.539.875,3.239,3.239,0,0,0,.922.344l.93.227a7.188,7.188,0,0,1,2.031.711,1.882,1.882,0,0,1,.82,1.7,2.584,2.584,0,0,1-.848,1.93,3.608,3.608,0,0,1-2.582.813,3.464,3.464,0,0,1-2.645-.848,3.206,3.206,0,0,1-.832-2.1Zm7.2-5.742h1.336V5.078a3.193,3.193,0,0,1,.8-1.027,2.086,2.086,0,0,1,1.477-.605q.039,0,.133.008l.32.031V4.969a2.1,2.1,0,0,0-.23-.031q-.105-.008-.23-.008a2.007,2.007,0,0,0-1.633.684,2.386,2.386,0,0,0-.57,1.574V12H95.611Zm6.7,0V9.188a2.342,2.342,0,0,0,.2,1.047,1.417,1.417,0,0,0,1.4.75,1.977,1.977,0,0,0,2-1.312,5.207,5.207,0,0,0,.289-1.93V3.633H107.6V12h-1.328l.016-1.234a2.837,2.837,0,0,1-.68.8,2.991,2.991,0,0,1-1.953.656,2.519,2.519,0,0,1-2.437-1.2,3.56,3.56,0,0,1-.352-1.711V3.633Zm11.025,7.422a2.006,2.006,0,0,0,1.637-.824,3.922,3.922,0,0,0,.652-2.465,4.6,4.6,0,0,0-.289-1.719,2.118,2.118,0,0,0-4,.078,5.79,5.79,0,0,0-.289,1.984,4.206,4.206,0,0,0,.289,1.648A1.994,1.994,0,0,0,113.333,11.055Zm-3.641-7.383h1.367V4.781a3.413,3.413,0,0,1,.922-.883,2.967,2.967,0,0,1,1.672-.469,3.144,3.144,0,0,1,2.414,1.09,4.465,4.465,0,0,1,.992,3.113,4.781,4.781,0,0,1-1.43,3.906,3.23,3.23,0,0,1-2.109.742,2.863,2.863,0,0,1-1.586-.414,3.654,3.654,0,0,1-.836-.8v4.273h-1.406ZM118.983,1.3H120.4V3.633h1.336V4.781H120.4v5.461a.591.591,0,0,0,.3.586,1.262,1.262,0,0,0,.547.086q.1,0,.219,0t.273-.02V12a3.139,3.139,0,0,1-.5.1,4.791,4.791,0,0,1-.566.031,1.527,1.527,0,0,1-1.336-.5,2.239,2.239,0,0,1-.352-1.309V4.781H117.85V3.633h1.133Zm4.166,2.375h1.43V12h-1.43Zm0-3.148h1.43V2.117h-1.43Zm4.244,3.109,2.234,6.813,2.336-6.812H133.5L130.345,12h-1.5L125.76,3.633Zm8.392,6.141a1.158,1.158,0,0,0,.445.961,1.651,1.651,0,0,0,1.055.352,3.207,3.207,0,0,0,1.438-.344,1.935,1.935,0,0,0,1.172-1.867V7.742a2.406,2.406,0,0,1-.664.273,5.658,5.658,0,0,1-.8.156l-.852.109a3.257,3.257,0,0,0-1.148.32A1.248,1.248,0,0,0,135.785,9.773Zm3.406-2.844a.764.764,0,0,0,.648-.406,1.236,1.236,0,0,0,.094-.539,1.142,1.142,0,0,0-.512-1.043,2.745,2.745,0,0,0-1.465-.324,1.861,1.861,0,0,0-1.562.594,1.953,1.953,0,0,0-.336.977h-1.312a2.416,2.416,0,0,1,1-2.152,4.122,4.122,0,0,1,2.238-.605,4.554,4.554,0,0,1,2.4.563,1.908,1.908,0,0,1,.914,1.75v4.82a.617.617,0,0,0,.09.352.433.433,0,0,0,.379.133q.094,0,.211-.012t.25-.035v1.039a3.917,3.917,0,0,1-.5.117,3.654,3.654,0,0,1-.469.023,1.157,1.157,0,0,1-1.055-.516,1.99,1.99,0,0,1-.242-.773,3.578,3.578,0,0,1-1.234.977,3.818,3.818,0,0,1-1.773.414,2.637,2.637,0,0,1-1.9-.707,2.349,2.349,0,0,1-.738-1.77,2.279,2.279,0,0,1,.727-1.8,3.457,3.457,0,0,1,1.906-.789Z" transform="translate(889 1556.375)" fill="#0b0a0a"/>
    <path id="Trazado_983794" data-name="Trazado 983794" d="M2472.242,1042h26.493" transform="translate(-1637.652 31.5)" fill="none" stroke="#5a1a8a" stroke-width="1"/>
    <g transform="matrix(1, 0, 0, 1, 180, 640)" filter="url(#Trazado_985614)">
      <g id="Trazado_985614-2" data-name="Trazado 985614" transform="translate(674 836)" fill="#a0f0cb">
        <path d="M 283.5 44.5 L 0.5 44.5 L 0.5 0.5 L 283.5 0.5 L 283.5 44.5 Z" stroke="none"/>
        <path d="M 1 1 L 1 44 L 283 44 L 283 1 L 1 1 M 0 0 L 284 0 L 284 45 L 0 45 L 0 0 Z" stroke="none" fill="#0b7744"/>
      </g>
    </g>
    <path id="Trazado_985615" data-name="Trazado 985615" d="M86.87,5.781a3.013,3.013,0,0,0,1.73-.437,1.781,1.781,0,0,0,.637-1.578,1.693,1.693,0,0,0-.891-1.672,2.911,2.911,0,0,0-1.273-.234h-3.8V5.781ZM81.722.523h5.313A5.3,5.3,0,0,1,89.2.906a2.71,2.71,0,0,1,1.617,2.711A3.049,3.049,0,0,1,90.39,5.3,3.077,3.077,0,0,1,89.2,6.359a2.348,2.348,0,0,1,1.012.719,2.581,2.581,0,0,1,.379,1.445l.055,1.539a4.731,4.731,0,0,0,.109.977.96.96,0,0,0,.5.7V12H89.347a1.434,1.434,0,0,1-.125-.383,7.348,7.348,0,0,1-.078-.906L89.05,8.8a1.608,1.608,0,0,0-.836-1.508,3.458,3.458,0,0,0-1.4-.211H83.276V12H81.722Zm12.259,9.25a1.158,1.158,0,0,0,.445.961,1.651,1.651,0,0,0,1.055.352,3.207,3.207,0,0,0,1.438-.344,1.935,1.935,0,0,0,1.172-1.867V7.742a2.406,2.406,0,0,1-.664.273,5.659,5.659,0,0,1-.8.156l-.852.109a3.257,3.257,0,0,0-1.148.32A1.248,1.248,0,0,0,93.981,9.773ZM97.387,6.93a.764.764,0,0,0,.648-.406,1.236,1.236,0,0,0,.094-.539,1.142,1.142,0,0,0-.512-1.043,2.745,2.745,0,0,0-1.465-.324,1.861,1.861,0,0,0-1.562.594,1.953,1.953,0,0,0-.336.977H92.942a2.416,2.416,0,0,1,1-2.152,4.122,4.122,0,0,1,2.238-.605,4.554,4.554,0,0,1,2.4.563,1.908,1.908,0,0,1,.914,1.75v4.82a.617.617,0,0,0,.09.352.433.433,0,0,0,.379.133q.094,0,.211-.012t.25-.035v1.039a3.916,3.916,0,0,1-.5.117,3.654,3.654,0,0,1-.469.023,1.157,1.157,0,0,1-1.055-.516,1.99,1.99,0,0,1-.242-.773,3.578,3.578,0,0,1-1.234.977,3.818,3.818,0,0,1-1.773.414,2.637,2.637,0,0,1-1.9-.707,2.349,2.349,0,0,1-.738-1.77A2.279,2.279,0,0,1,93.239,8a3.457,3.457,0,0,1,1.906-.789Zm5.306.984a4.147,4.147,0,0,0,.57,2.25,2,2,0,0,0,1.828.906,1.925,1.925,0,0,0,1.605-.84,3.966,3.966,0,0,0,.629-2.41,3.564,3.564,0,0,0-.648-2.348,2.023,2.023,0,0,0-1.6-.762,2.114,2.114,0,0,0-1.723.813A3.721,3.721,0,0,0,102.694,7.914Zm2.117-4.43a2.977,2.977,0,0,1,1.609.406,3.78,3.78,0,0,1,.852.82V.484h1.352V12h-1.266V10.836a3.043,3.043,0,0,1-1.164,1.117,3.332,3.332,0,0,1-1.539.344,3.117,3.117,0,0,1-2.422-1.176,4.6,4.6,0,0,1-1.023-3.129,5.4,5.4,0,0,1,.934-3.168A3.057,3.057,0,0,1,104.811,3.484Zm5.892.188h1.43V12H110.7Zm0-3.148h1.43V2.117H110.7Zm6.783,2.867a3.648,3.648,0,0,1,2.3.688,3.294,3.294,0,0,1,1.066,2.367h-1.367a2.524,2.524,0,0,0-.57-1.285,1.8,1.8,0,0,0-1.43-.512,1.975,1.975,0,0,0-1.922,1.313,5.214,5.214,0,0,0-.375,2.1,3.955,3.955,0,0,0,.531,2.117,2.06,2.06,0,0,0,3.059.324,2.943,2.943,0,0,0,.707-1.465h1.367a3.67,3.67,0,0,1-1.172,2.434,3.656,3.656,0,0,1-2.4.77,3.2,3.2,0,0,1-2.617-1.2,4.59,4.59,0,0,1-.977-3,5.048,5.048,0,0,1,1.07-3.43A3.459,3.459,0,0,1,117.486,3.391Zm5.853,6.383a1.158,1.158,0,0,0,.445.961,1.651,1.651,0,0,0,1.055.352,3.207,3.207,0,0,0,1.438-.344,1.935,1.935,0,0,0,1.172-1.867V7.742a2.406,2.406,0,0,1-.664.273,5.659,5.659,0,0,1-.8.156l-.852.109a3.257,3.257,0,0,0-1.148.32A1.248,1.248,0,0,0,123.339,9.773Zm3.406-2.844a.764.764,0,0,0,.648-.406,1.236,1.236,0,0,0,.094-.539,1.142,1.142,0,0,0-.512-1.043,2.745,2.745,0,0,0-1.465-.324,1.861,1.861,0,0,0-1.562.594,1.953,1.953,0,0,0-.336.977H122.3a2.416,2.416,0,0,1,1-2.152,4.122,4.122,0,0,1,2.238-.605,4.554,4.554,0,0,1,2.4.563,1.908,1.908,0,0,1,.914,1.75v4.82a.617.617,0,0,0,.09.352.433.433,0,0,0,.379.133q.094,0,.211-.012t.25-.035v1.039a3.917,3.917,0,0,1-.5.117,3.654,3.654,0,0,1-.469.023,1.157,1.157,0,0,1-1.055-.516,1.99,1.99,0,0,1-.242-.773,3.578,3.578,0,0,1-1.234.977,3.818,3.818,0,0,1-1.773.414,2.637,2.637,0,0,1-1.9-.707,2.349,2.349,0,0,1-.738-1.77A2.279,2.279,0,0,1,122.6,8a3.457,3.457,0,0,1,1.906-.789ZM131.2.523h1.406V12H131.2Z" transform="translate(889 1488)" fill="#0b0a0a"/>
    <path id="Trazado_984078" data-name="Trazado 984078" d="M2472.242,1042h25.327" transform="translate(-1642.749 520)" fill="none" stroke="#5a1a8a" stroke-width="1"/>
    <path id="Trazado_984079" data-name="Trazado 984079" d="M2472.241,1048.5h49.431" transform="translate(-1666.853 450)" fill="none" stroke="#5a1a8a" stroke-width="1"/>
    <g id="Trazado_985616" data-name="Trazado 985616" transform="translate(854 1334)" fill="#a0f0cb">
      <path d="M 283.5 44.5 L 0.5 44.5 L 0.5 0.5 L 283.5 0.5 L 283.5 44.5 Z" stroke="none"/>
      <path d="M 1 1 L 1 44 L 283 44 L 283 1 L 1 1 M 0 0 L 284 0 L 284 45 L 0 45 L 0 0 Z" stroke="none" fill="#0b7744"/>
    </g>
    <path id="Trazado_985617" data-name="Trazado 985617" d="M84.148.211A4.7,4.7,0,0,1,87.53,1.359a4.056,4.056,0,0,1,1.336,2.609H87.351a3.154,3.154,0,0,0-1.027-1.758,3.256,3.256,0,0,0-2.16-.648,3.464,3.464,0,0,0-2.738,1.191,5.431,5.431,0,0,0-1.043,3.652,5.3,5.3,0,0,0,.941,3.27,3.289,3.289,0,0,0,2.809,1.254,2.967,2.967,0,0,0,2.617-1.32,5.021,5.021,0,0,0,.711-1.828h1.516a5.179,5.179,0,0,1-1.344,3.039A4.781,4.781,0,0,1,83.944,12.3a4.867,4.867,0,0,1-3.359-1.211A6.31,6.31,0,0,1,78.8,6.141,6.317,6.317,0,0,1,80.14,1.977,4.908,4.908,0,0,1,84.148.211ZM94.165,3.445a3.817,3.817,0,0,1,1.727.418,3.184,3.184,0,0,1,1.273,1.082,3.733,3.733,0,0,1,.563,1.477,9.66,9.66,0,0,1,.125,1.844H91.719a3.579,3.579,0,0,0,.6,2.043,2.014,2.014,0,0,0,1.742.77,2.252,2.252,0,0,0,1.758-.727,2.449,2.449,0,0,0,.531-.977h1.383a2.912,2.912,0,0,1-.363,1.027,3.654,3.654,0,0,1-.691.926,3.277,3.277,0,0,1-1.586.844,4.818,4.818,0,0,1-1.148.125A3.524,3.524,0,0,1,91.3,11.16a4.423,4.423,0,0,1-1.086-3.184A4.809,4.809,0,0,1,91.305,4.7,3.608,3.608,0,0,1,94.165,3.445Zm2.242,3.7a3.643,3.643,0,0,0-.4-1.461,2.042,2.042,0,0,0-1.93-1.016,2.139,2.139,0,0,0-1.625.7,2.641,2.641,0,0,0-.7,1.777Zm3.213-3.516h1.336V5.078a3.193,3.193,0,0,1,.8-1.027,2.086,2.086,0,0,1,1.477-.605q.039,0,.133.008l.32.031V4.969a2.1,2.1,0,0,0-.23-.031q-.105-.008-.23-.008a2.007,2.007,0,0,0-1.633.684,2.386,2.386,0,0,0-.57,1.574V12H99.619Zm5.33,0h1.336V5.078a3.193,3.193,0,0,1,.8-1.027,2.086,2.086,0,0,1,1.477-.605q.039,0,.133.008l.32.031V4.969a2.1,2.1,0,0,0-.23-.031q-.105-.008-.23-.008a2.007,2.007,0,0,0-1.633.684,2.386,2.386,0,0,0-.57,1.574V12h-1.406Zm6.369,6.141a1.158,1.158,0,0,0,.445.961,1.651,1.651,0,0,0,1.055.352,3.207,3.207,0,0,0,1.438-.344,1.935,1.935,0,0,0,1.172-1.867V7.742a2.406,2.406,0,0,1-.664.273,5.659,5.659,0,0,1-.8.156l-.852.109a3.257,3.257,0,0,0-1.148.32A1.248,1.248,0,0,0,111.318,9.773Zm3.406-2.844a.764.764,0,0,0,.648-.406,1.236,1.236,0,0,0,.094-.539,1.142,1.142,0,0,0-.512-1.043,2.745,2.745,0,0,0-1.465-.324,1.861,1.861,0,0,0-1.562.594,1.953,1.953,0,0,0-.336.977h-1.312a2.416,2.416,0,0,1,1-2.152,4.122,4.122,0,0,1,2.238-.605,4.554,4.554,0,0,1,2.4.563,1.908,1.908,0,0,1,.914,1.75v4.82a.617.617,0,0,0,.09.352.433.433,0,0,0,.379.133q.094,0,.211-.012t.25-.035v1.039a3.916,3.916,0,0,1-.5.117,3.654,3.654,0,0,1-.469.023,1.157,1.157,0,0,1-1.055-.516,1.99,1.99,0,0,1-.242-.773,3.578,3.578,0,0,1-1.234.977,3.818,3.818,0,0,1-1.773.414,2.637,2.637,0,0,1-1.9-.707,2.349,2.349,0,0,1-.738-1.77,2.279,2.279,0,0,1,.727-1.8,3.457,3.457,0,0,1,1.906-.789Zm5.306.984a4.147,4.147,0,0,0,.57,2.25,2,2,0,0,0,1.828.906,1.925,1.925,0,0,0,1.605-.84,3.966,3.966,0,0,0,.629-2.41,3.564,3.564,0,0,0-.648-2.348,2.023,2.023,0,0,0-1.6-.762,2.114,2.114,0,0,0-1.723.813A3.721,3.721,0,0,0,120.031,7.914Zm2.117-4.43a2.977,2.977,0,0,1,1.609.406,3.78,3.78,0,0,1,.852.82V.484h1.352V12h-1.266V10.836a3.043,3.043,0,0,1-1.164,1.117,3.332,3.332,0,0,1-1.539.344,3.117,3.117,0,0,1-2.422-1.176,4.6,4.6,0,0,1-1.023-3.129,5.4,5.4,0,0,1,.934-3.168A3.057,3.057,0,0,1,122.148,3.484Zm6.97,6.289a1.158,1.158,0,0,0,.445.961,1.651,1.651,0,0,0,1.055.352,3.207,3.207,0,0,0,1.438-.344,1.935,1.935,0,0,0,1.172-1.867V7.742a2.406,2.406,0,0,1-.664.273,5.658,5.658,0,0,1-.8.156l-.852.109a3.257,3.257,0,0,0-1.148.32A1.248,1.248,0,0,0,129.118,9.773Zm3.406-2.844a.764.764,0,0,0,.648-.406,1.236,1.236,0,0,0,.094-.539,1.142,1.142,0,0,0-.512-1.043,2.745,2.745,0,0,0-1.465-.324,1.861,1.861,0,0,0-1.562.594,1.953,1.953,0,0,0-.336.977h-1.312a2.416,2.416,0,0,1,1-2.152,4.122,4.122,0,0,1,2.238-.605,4.554,4.554,0,0,1,2.4.563,1.908,1.908,0,0,1,.914,1.75v4.82a.617.617,0,0,0,.09.352.433.433,0,0,0,.379.133q.094,0,.211-.012t.25-.035v1.039a3.917,3.917,0,0,1-.5.117,3.654,3.654,0,0,1-.469.023,1.157,1.157,0,0,1-1.055-.516,1.99,1.99,0,0,1-.242-.773,3.578,3.578,0,0,1-1.234.977,3.818,3.818,0,0,1-1.773.414,2.637,2.637,0,0,1-1.9-.707,2.349,2.349,0,0,1-.738-1.77,2.279,2.279,0,0,1,.727-1.8,3.457,3.457,0,0,1,1.906-.789Z" transform="translate(889 1346)" fill="#0b0a0a"/>
    <g id="Trazado_985618" data-name="Trazado 985618" transform="translate(854 766)" fill="#a0f0cb">
      <path d="M 283.5 44.5 L 0.5 44.5 L 0.5 0.5 L 283.5 0.5 L 283.5 44.5 Z" stroke="none"/>
      <path d="M 1 1 L 1 44 L 283 44 L 283 1 L 1 1 M 0 0 L 284 0 L 284 45 L 0 45 L 0 0 Z" stroke="none" fill="#0b7744"/>
    </g>
    <path id="Trazado_985619" data-name="Trazado 985619" d="M69.868.523h1.57V12h-1.57Zm3.908,3.109h1.336V4.82a3.747,3.747,0,0,1,1.258-1.055,3.354,3.354,0,0,1,1.477-.32,2.435,2.435,0,0,1,2.406,1.242A4.411,4.411,0,0,1,80.6,6.633V12h-1.43V6.727a2.856,2.856,0,0,0-.227-1.234,1.374,1.374,0,0,0-1.359-.781,2.768,2.768,0,0,0-.82.1,2.113,2.113,0,0,0-1.016.688,2.07,2.07,0,0,0-.457.855,5.758,5.758,0,0,0-.105,1.262V12H73.776Zm8.9,0h1.336V4.82a3.747,3.747,0,0,1,1.258-1.055,3.354,3.354,0,0,1,1.477-.32,2.435,2.435,0,0,1,2.406,1.242A4.411,4.411,0,0,1,89.5,6.633V12h-1.43V6.727a2.856,2.856,0,0,0-.227-1.234,1.374,1.374,0,0,0-1.359-.781,2.768,2.768,0,0,0-.82.1,2.113,2.113,0,0,0-1.016.688,2.07,2.07,0,0,0-.457.855,5.758,5.758,0,0,0-.105,1.262V12H82.676ZM94.9,11.094a1.939,1.939,0,0,0,1.918-1.059,5.274,5.274,0,0,0,.52-2.355,4.194,4.194,0,0,0-.375-1.906,2.11,2.11,0,0,0-2.047-1.156,2.018,2.018,0,0,0-1.875.984,4.563,4.563,0,0,0-.586,2.375,3.969,3.969,0,0,0,.586,2.227A2.064,2.064,0,0,0,94.9,11.094Zm.055-7.7a3.789,3.789,0,0,1,2.734,1.078A4.21,4.21,0,0,1,98.8,7.641a5.442,5.442,0,0,1-.984,3.344,3.561,3.561,0,0,1-3.055,1.32,3.449,3.449,0,0,1-2.742-1.168A4.613,4.613,0,0,1,91.005,8a4.991,4.991,0,0,1,1.07-3.359A3.592,3.592,0,0,1,94.951,3.391Zm6.213.242,2.234,6.813,2.336-6.812h1.539L104.116,12h-1.5L99.53,3.633Zm8.392,6.141a1.158,1.158,0,0,0,.445.961,1.651,1.651,0,0,0,1.055.352,3.207,3.207,0,0,0,1.438-.344,1.935,1.935,0,0,0,1.172-1.867V7.742a2.406,2.406,0,0,1-.664.273,5.659,5.659,0,0,1-.8.156l-.852.109a3.257,3.257,0,0,0-1.148.32A1.248,1.248,0,0,0,109.555,9.773Zm3.406-2.844a.764.764,0,0,0,.648-.406,1.236,1.236,0,0,0,.094-.539,1.142,1.142,0,0,0-.512-1.043,2.745,2.745,0,0,0-1.465-.324,1.861,1.861,0,0,0-1.562.594,1.953,1.953,0,0,0-.336.977h-1.312a2.416,2.416,0,0,1,1-2.152,4.122,4.122,0,0,1,2.238-.605,4.554,4.554,0,0,1,2.4.563,1.908,1.908,0,0,1,.914,1.75v4.82a.617.617,0,0,0,.09.352.433.433,0,0,0,.379.133q.094,0,.211-.012T116,11v1.039a3.916,3.916,0,0,1-.5.117,3.654,3.654,0,0,1-.469.023,1.157,1.157,0,0,1-1.055-.516,1.99,1.99,0,0,1-.242-.773,3.578,3.578,0,0,1-1.234.977,3.818,3.818,0,0,1-1.773.414,2.637,2.637,0,0,1-1.9-.707,2.349,2.349,0,0,1-.738-1.77,2.279,2.279,0,0,1,.727-1.8,3.457,3.457,0,0,1,1.906-.789ZM120.6,3.391a3.648,3.648,0,0,1,2.3.688,3.294,3.294,0,0,1,1.066,2.367H122.6a2.524,2.524,0,0,0-.57-1.285,1.8,1.8,0,0,0-1.43-.512,1.975,1.975,0,0,0-1.922,1.313,5.214,5.214,0,0,0-.375,2.1,3.955,3.955,0,0,0,.531,2.117,2.06,2.06,0,0,0,3.059.324,2.943,2.943,0,0,0,.707-1.465h1.367a3.67,3.67,0,0,1-1.172,2.434,3.656,3.656,0,0,1-2.4.77,3.2,3.2,0,0,1-2.617-1.2,4.59,4.59,0,0,1-.977-3,5.048,5.048,0,0,1,1.07-3.43A3.459,3.459,0,0,1,120.6,3.391Zm4.775.281h1.43V12h-1.43Zm0-3.148h1.43V2.117h-1.43Zm6.877,10.57a1.939,1.939,0,0,0,1.918-1.059,5.274,5.274,0,0,0,.52-2.355,4.194,4.194,0,0,0-.375-1.906,2.11,2.11,0,0,0-2.047-1.156A2.018,2.018,0,0,0,130.4,5.6a4.563,4.563,0,0,0-.586,2.375A3.969,3.969,0,0,0,130.4,10.2,2.064,2.064,0,0,0,132.256,11.094Zm.055-7.7a3.789,3.789,0,0,1,2.734,1.078,4.21,4.21,0,0,1,1.117,3.172,5.442,5.442,0,0,1-.984,3.344,3.561,3.561,0,0,1-3.055,1.32,3.449,3.449,0,0,1-2.742-1.168A4.613,4.613,0,0,1,128.365,8a4.991,4.991,0,0,1,1.07-3.359A3.592,3.592,0,0,1,132.31,3.391ZM133.943.266l-2.086,2.258h-1.078l1.43-2.258Zm3.892,3.367h1.336V4.82a3.747,3.747,0,0,1,1.258-1.055,3.354,3.354,0,0,1,1.477-.32,2.435,2.435,0,0,1,2.406,1.242,4.411,4.411,0,0,1,.344,1.945V12h-1.43V6.727A2.855,2.855,0,0,0,143,5.492a1.374,1.374,0,0,0-1.359-.781,2.768,2.768,0,0,0-.82.1A2.113,2.113,0,0,0,139.8,5.5a2.07,2.07,0,0,0-.457.855,5.758,5.758,0,0,0-.105,1.262V12h-1.406Z" transform="translate(889 779)" fill="#0b0a0a"/>
    <g id="Trazado_985620" data-name="Trazado 985620" transform="translate(609 1471)" fill="#a0f0cb">
      <path d="M 200.5 54.5 L 0.5 54.5 L 0.5 0.5 L 200.5 0.5 L 200.5 54.5 Z" stroke="none"/>
      <path d="M 1 1 L 1 54 L 200 54 L 200 1 L 1 1 M 0 0 L 201 0 L 201 55 L 0 55 L 0 0 Z" stroke="none" fill="#15da7e"/>
    </g>
    <g id="Trazado_985621" data-name="Trazado 985621" transform="translate(609 1471)" fill="#15da7e">
      <path d="M 200.5 54.5 L 0.5 54.5 L 0.5 0.5 L 200.5 0.5 L 200.5 54.5 Z" stroke="none"/>
      <path d="M 1 1 L 1 54 L 200 54 L 200 1 L 1 1 M 0 0 L 201 0 L 201 55 L 0 55 L 0 0 Z" stroke="none" fill="#15da7e"/>
    </g>
    <g id="Trazado_985622" data-name="Trazado 985622" transform="translate(854 693)" fill="#a0f0cb">
      <path d="M 283.5 44.5 L 0.5 44.5 L 0.5 0.5 L 283.5 0.5 L 283.5 44.5 Z" stroke="none"/>
      <path d="M 1 1 L 1 44 L 283 44 L 283 1 L 1 1 M 0 0 L 284 0 L 284 45 L 0 45 L 0 0 Z" stroke="none" fill="#0b7744"/>
    </g>
    <path id="Trazado_984080" data-name="Trazado 984080" d="M2472.242,1111.452h26.493" transform="translate(-1642.749 27.548)" fill="none" stroke="#5a1a8a" stroke-width="1"/>
    <path id="Trazado_984081" data-name="Trazado 984081" d="M2472.242,1111.452h26.493" transform="translate(-1642.749 -110.452)" fill="none" stroke="#5a1a8a" stroke-width="1"/>
    <path id="Trazado_984082" data-name="Trazado 984082" d="M2472.242,1111.452h26.493" transform="translate(-1642.749 -180.452)" fill="none" stroke="#5a1a8a" stroke-width="1"/>
    <g id="Trazado_985623" data-name="Trazado 985623" transform="translate(854 1187)" fill="#a0f0cb">
      <path d="M 283.5 44.5 L 0.5 44.5 L 0.5 0.5 L 283.5 0.5 L 283.5 44.5 Z" stroke="none"/>
      <path d="M 1 1 L 1 44 L 283 44 L 283 1 L 1 1 M 0 0 L 284 0 L 284 45 L 0 45 L 0 0 Z" stroke="none" fill="#0b7744"/>
    </g>
    <path id="Trazado_985624" data-name="Trazado 985624" d="M87.441,8.3A3.136,3.136,0,0,0,87.9,9.883a3.055,3.055,0,0,0,2.727,1.141,4.826,4.826,0,0,0,1.594-.25,1.771,1.771,0,0,0,1.391-1.734A1.5,1.5,0,0,0,93.027,7.7a5.916,5.916,0,0,0-1.859-.68l-1.555-.352a7.04,7.04,0,0,1-2.156-.758,2.4,2.4,0,0,1-1.094-2.148,3.308,3.308,0,0,1,1.07-2.539A4.294,4.294,0,0,1,90.465.234a5.265,5.265,0,0,1,3.066.871,3.144,3.144,0,0,1,1.262,2.785H93.332a2.876,2.876,0,0,0-.5-1.414,2.9,2.9,0,0,0-2.414-.9,2.793,2.793,0,0,0-1.977.578,1.809,1.809,0,0,0-.6,1.344,1.312,1.312,0,0,0,.7,1.234,10.318,10.318,0,0,0,2.086.625l1.609.367a4.931,4.931,0,0,1,1.8.727,2.721,2.721,0,0,1,1.094,2.336,2.916,2.916,0,0,1-1.387,2.727,6.21,6.21,0,0,1-3.223.82,4.819,4.819,0,0,1-3.352-1.094A3.69,3.69,0,0,1,85.98,8.3Zm12.791,2.8a1.939,1.939,0,0,0,1.918-1.059,5.274,5.274,0,0,0,.52-2.355,4.194,4.194,0,0,0-.375-1.906,2.11,2.11,0,0,0-2.047-1.156,2.018,2.018,0,0,0-1.875.984,4.563,4.563,0,0,0-.586,2.375,3.969,3.969,0,0,0,.586,2.227A2.064,2.064,0,0,0,100.232,11.094Zm.055-7.7a3.789,3.789,0,0,1,2.734,1.078,4.21,4.21,0,0,1,1.117,3.172,5.442,5.442,0,0,1-.984,3.344A3.561,3.561,0,0,1,100.1,12.3a3.449,3.449,0,0,1-2.742-1.168A4.613,4.613,0,0,1,96.341,8a4.991,4.991,0,0,1,1.07-3.359A3.592,3.592,0,0,1,100.287,3.391Zm8.752,0a3.648,3.648,0,0,1,2.3.688,3.294,3.294,0,0,1,1.066,2.367h-1.367a2.524,2.524,0,0,0-.57-1.285,1.8,1.8,0,0,0-1.43-.512,1.975,1.975,0,0,0-1.922,1.313,5.214,5.214,0,0,0-.375,2.1,3.955,3.955,0,0,0,.531,2.117,2.06,2.06,0,0,0,3.059.324,2.943,2.943,0,0,0,.707-1.465h1.367a3.67,3.67,0,0,1-1.172,2.434,3.656,3.656,0,0,1-2.4.77,3.2,3.2,0,0,1-2.617-1.2,4.59,4.59,0,0,1-.977-3,5.048,5.048,0,0,1,1.07-3.43A3.459,3.459,0,0,1,109.038,3.391Zm4.775.281h1.43V12h-1.43Zm0-3.148h1.43V2.117h-1.43Zm4.634,9.25a1.158,1.158,0,0,0,.445.961,1.651,1.651,0,0,0,1.055.352,3.207,3.207,0,0,0,1.438-.344,1.935,1.935,0,0,0,1.172-1.867V7.742a2.406,2.406,0,0,1-.664.273,5.659,5.659,0,0,1-.8.156l-.852.109a3.257,3.257,0,0,0-1.148.32A1.248,1.248,0,0,0,118.448,9.773Zm3.406-2.844a.764.764,0,0,0,.648-.406,1.236,1.236,0,0,0,.094-.539,1.142,1.142,0,0,0-.512-1.043,2.745,2.745,0,0,0-1.465-.324,1.861,1.861,0,0,0-1.562.594,1.953,1.953,0,0,0-.336.977h-1.312a2.416,2.416,0,0,1,1-2.152,4.122,4.122,0,0,1,2.238-.605,4.554,4.554,0,0,1,2.4.563,1.908,1.908,0,0,1,.914,1.75v4.82a.617.617,0,0,0,.09.352.433.433,0,0,0,.379.133q.094,0,.211-.012t.25-.035v1.039a3.916,3.916,0,0,1-.5.117,3.654,3.654,0,0,1-.469.023,1.157,1.157,0,0,1-1.055-.516,1.99,1.99,0,0,1-.242-.773,3.578,3.578,0,0,1-1.234.977,3.818,3.818,0,0,1-1.773.414,2.637,2.637,0,0,1-1.9-.707,2.349,2.349,0,0,1-.738-1.77,2.279,2.279,0,0,1,.727-1.8,3.457,3.457,0,0,1,1.906-.789ZM126.309.523h1.406V12h-1.406Z" transform="translate(889 1199)" fill="#0b0a0a"/>
    <g id="Trazado_985625" data-name="Trazado 985625" transform="translate(854 1117)" fill="#a0f0cb">
      <path d="M 283.5 44.5 L 0.5 44.5 L 0.5 0.5 L 283.5 0.5 L 283.5 44.5 Z" stroke="none"/>
      <path d="M 1 1 L 1 44 L 283 44 L 283 1 L 1 1 M 0 0 L 284 0 L 284 45 L 0 45 L 0 0 Z" stroke="none" fill="#0b7744"/>
    </g>
    <path id="Trazado_985626" data-name="Trazado 985626" d="M59.8.211a5.254,5.254,0,0,1,4.5,1.953,6.329,6.329,0,0,1,1.141,3.9,6.822,6.822,0,0,1-1.3,4.273,5.8,5.8,0,0,1-8.531.25A6.608,6.608,0,0,1,54.251,6.32a6.785,6.785,0,0,1,1.156-3.984A5.009,5.009,0,0,1,59.8.211Zm.156,10.734a3.237,3.237,0,0,0,2.973-1.473,6.268,6.268,0,0,0,.918-3.387,4.831,4.831,0,0,0-1.059-3.258,3.613,3.613,0,0,0-2.895-1.234,3.769,3.769,0,0,0-2.906,1.223,5.153,5.153,0,0,0-1.125,3.605,5.268,5.268,0,0,0,.965,3.215A3.629,3.629,0,0,0,59.954,10.945Zm7.189-7.312h1.336V5.078a3.193,3.193,0,0,1,.8-1.027,2.086,2.086,0,0,1,1.477-.605q.039,0,.133.008l.32.031V4.969a2.1,2.1,0,0,0-.23-.031q-.105-.008-.23-.008a2.007,2.007,0,0,0-1.633.684,2.386,2.386,0,0,0-.57,1.574V12H67.144Zm8.244-.148a3.05,3.05,0,0,1,1.719.484,3.86,3.86,0,0,1,.813.8V3.711h1.3V11.32a5.611,5.611,0,0,1-.469,2.516,3.366,3.366,0,0,1-3.3,1.7,4.054,4.054,0,0,1-2.273-.605,2.361,2.361,0,0,1-1.031-1.895h1.43a1.591,1.591,0,0,0,.406.867,2.572,2.572,0,0,0,3.617-.672,6.424,6.424,0,0,0,.273-2.4,2.759,2.759,0,0,1-1.016.953,3.642,3.642,0,0,1-3.949-.652,4.243,4.243,0,0,1-1.02-3.191,4.833,4.833,0,0,1,1.027-3.281A3.177,3.177,0,0,1,75.387,3.484Zm2.531,4.3a3.488,3.488,0,0,0-.641-2.3,2.052,2.052,0,0,0-1.633-.75,2.016,2.016,0,0,0-2.031,1.391,5.453,5.453,0,0,0-.289,1.945,3.453,3.453,0,0,0,.574,2.152,1.854,1.854,0,0,0,1.543.738,2.166,2.166,0,0,0,2.133-1.367A4.41,4.41,0,0,0,77.919,7.781Zm4.494,1.992a1.158,1.158,0,0,0,.445.961,1.651,1.651,0,0,0,1.055.352,3.207,3.207,0,0,0,1.438-.344,1.935,1.935,0,0,0,1.172-1.867V7.742a2.406,2.406,0,0,1-.664.273,5.659,5.659,0,0,1-.8.156l-.852.109a3.257,3.257,0,0,0-1.148.32A1.248,1.248,0,0,0,82.412,9.773ZM85.819,6.93a.764.764,0,0,0,.648-.406,1.236,1.236,0,0,0,.094-.539,1.142,1.142,0,0,0-.512-1.043,2.745,2.745,0,0,0-1.465-.324,1.861,1.861,0,0,0-1.562.594,1.953,1.953,0,0,0-.336.977H81.373a2.416,2.416,0,0,1,1-2.152,4.122,4.122,0,0,1,2.238-.605,4.554,4.554,0,0,1,2.4.563,1.908,1.908,0,0,1,.914,1.75v4.82a.617.617,0,0,0,.09.352.433.433,0,0,0,.379.133q.094,0,.211-.012t.25-.035v1.039a3.916,3.916,0,0,1-.5.117,3.654,3.654,0,0,1-.469.023,1.157,1.157,0,0,1-1.055-.516,1.99,1.99,0,0,1-.242-.773,3.578,3.578,0,0,1-1.234.977,3.818,3.818,0,0,1-1.773.414,2.637,2.637,0,0,1-1.9-.707,2.349,2.349,0,0,1-.738-1.77A2.279,2.279,0,0,1,81.67,8a3.457,3.457,0,0,1,1.906-.789Zm4.416-3.3H91.57V4.82a3.747,3.747,0,0,1,1.258-1.055,3.354,3.354,0,0,1,1.477-.32,2.435,2.435,0,0,1,2.406,1.242,4.411,4.411,0,0,1,.344,1.945V12h-1.43V6.727A2.856,2.856,0,0,0,95.4,5.492a1.374,1.374,0,0,0-1.359-.781,2.768,2.768,0,0,0-.82.1A2.113,2.113,0,0,0,92.2,5.5a2.07,2.07,0,0,0-.457.855,5.758,5.758,0,0,0-.105,1.262V12H90.234Zm8.9.039h1.43V12h-1.43Zm0-3.148h1.43V2.117h-1.43Zm2.931,10.367,4.961-6h-4.594V3.633h6.484V4.781l-4.93,5.961h5.078V12h-7Zm9.7-1.117a1.158,1.158,0,0,0,.445.961,1.651,1.651,0,0,0,1.055.352,3.207,3.207,0,0,0,1.438-.344,1.935,1.935,0,0,0,1.172-1.867V7.742a2.406,2.406,0,0,1-.664.273,5.659,5.659,0,0,1-.8.156l-.852.109a3.257,3.257,0,0,0-1.148.32A1.248,1.248,0,0,0,111.77,9.773Zm3.406-2.844a.764.764,0,0,0,.648-.406,1.236,1.236,0,0,0,.094-.539,1.142,1.142,0,0,0-.512-1.043,2.745,2.745,0,0,0-1.465-.324,1.861,1.861,0,0,0-1.562.594,1.953,1.953,0,0,0-.336.977h-1.312a2.416,2.416,0,0,1,1-2.152,4.122,4.122,0,0,1,2.238-.605,4.554,4.554,0,0,1,2.4.563,1.908,1.908,0,0,1,.914,1.75v4.82a.617.617,0,0,0,.09.352.433.433,0,0,0,.379.133q.094,0,.211-.012t.25-.035v1.039a3.916,3.916,0,0,1-.5.117,3.654,3.654,0,0,1-.469.023,1.157,1.157,0,0,1-1.055-.516,1.99,1.99,0,0,1-.242-.773,3.578,3.578,0,0,1-1.234.977,3.818,3.818,0,0,1-1.773.414,2.637,2.637,0,0,1-1.9-.707A2.349,2.349,0,0,1,110.3,9.8a2.279,2.279,0,0,1,.727-1.8,3.457,3.457,0,0,1,1.906-.789Zm7.642-3.539a3.648,3.648,0,0,1,2.3.688,3.294,3.294,0,0,1,1.066,2.367h-1.367a2.524,2.524,0,0,0-.57-1.285,1.8,1.8,0,0,0-1.43-.512A1.975,1.975,0,0,0,120.9,5.961a5.214,5.214,0,0,0-.375,2.1,3.955,3.955,0,0,0,.531,2.117,2.06,2.06,0,0,0,3.059.324,2.943,2.943,0,0,0,.707-1.465h1.367a3.67,3.67,0,0,1-1.172,2.434,3.656,3.656,0,0,1-2.4.77,3.2,3.2,0,0,1-2.617-1.2,4.59,4.59,0,0,1-.977-3,5.048,5.048,0,0,1,1.07-3.43A3.459,3.459,0,0,1,122.819,3.391Zm4.775.281h1.43V12h-1.43Zm0-3.148h1.43V2.117h-1.43Zm6.877,10.57a1.939,1.939,0,0,0,1.918-1.059,5.274,5.274,0,0,0,.52-2.355,4.194,4.194,0,0,0-.375-1.906,2.11,2.11,0,0,0-2.047-1.156,2.018,2.018,0,0,0-1.875.984,4.563,4.563,0,0,0-.586,2.375,3.969,3.969,0,0,0,.586,2.227A2.064,2.064,0,0,0,134.47,11.094Zm.055-7.7a3.789,3.789,0,0,1,2.734,1.078,4.21,4.21,0,0,1,1.117,3.172,5.442,5.442,0,0,1-.984,3.344,3.561,3.561,0,0,1-3.055,1.32,3.449,3.449,0,0,1-2.742-1.168A4.613,4.613,0,0,1,130.58,8a4.991,4.991,0,0,1,1.07-3.359A3.592,3.592,0,0,1,134.525,3.391Zm5.525.242h1.336V4.82a3.747,3.747,0,0,1,1.258-1.055,3.354,3.354,0,0,1,1.477-.32,2.435,2.435,0,0,1,2.406,1.242,4.411,4.411,0,0,1,.344,1.945V12h-1.43V6.727a2.855,2.855,0,0,0-.227-1.234,1.374,1.374,0,0,0-1.359-.781,2.768,2.768,0,0,0-.82.1,2.113,2.113,0,0,0-1.016.688,2.07,2.07,0,0,0-.457.855,5.758,5.758,0,0,0-.105,1.262V12H140.05Zm9.978,6.141a1.158,1.158,0,0,0,.445.961,1.651,1.651,0,0,0,1.055.352,3.207,3.207,0,0,0,1.438-.344,1.935,1.935,0,0,0,1.172-1.867V7.742a2.406,2.406,0,0,1-.664.273,5.658,5.658,0,0,1-.8.156l-.852.109a3.257,3.257,0,0,0-1.148.32A1.248,1.248,0,0,0,150.028,9.773Zm3.406-2.844a.764.764,0,0,0,.648-.406,1.236,1.236,0,0,0,.094-.539,1.142,1.142,0,0,0-.512-1.043,2.745,2.745,0,0,0-1.465-.324,1.861,1.861,0,0,0-1.562.594,1.953,1.953,0,0,0-.336.977h-1.312a2.416,2.416,0,0,1,1-2.152,4.122,4.122,0,0,1,2.238-.605,4.554,4.554,0,0,1,2.4.563,1.908,1.908,0,0,1,.914,1.75v4.82a.617.617,0,0,0,.09.352.433.433,0,0,0,.379.133q.094,0,.211-.012t.25-.035v1.039a3.917,3.917,0,0,1-.5.117,3.654,3.654,0,0,1-.469.023,1.157,1.157,0,0,1-1.055-.516,1.99,1.99,0,0,1-.242-.773,3.578,3.578,0,0,1-1.234.977,3.818,3.818,0,0,1-1.773.414,2.637,2.637,0,0,1-1.9-.707,2.349,2.349,0,0,1-.738-1.77,2.279,2.279,0,0,1,.727-1.8,3.457,3.457,0,0,1,1.906-.789ZM157.889.523H159.3V12h-1.406Z" transform="translate(889 1129)" fill="#0b0a0a"/>
    <g id="Trazado_985627" data-name="Trazado 985627" transform="translate(854 1049)" fill="#a0f0cb">
      <path d="M 283.5 44.5 L 0.5 44.5 L 0.5 0.5 L 283.5 0.5 L 283.5 44.5 Z" stroke="none"/>
      <path d="M 1 1 L 1 44 L 283 44 L 283 1 L 1 1 M 0 0 L 284 0 L 284 45 L 0 45 L 0 0 Z" stroke="none" fill="#0b7744"/>
    </g>
    <path id="Trazado_985628" data-name="Trazado 985628" d="M77.05.523h2.227l3.3,9.7,3.273-9.7h2.2V12H86.573V5.227q0-.352.016-1.164T86.6,2.32L83.331,12H81.792L78.5,2.32v.352q0,.422.02,1.285t.02,1.27V12H77.05ZM93.716,3.445a3.817,3.817,0,0,1,1.727.418,3.184,3.184,0,0,1,1.273,1.082,3.733,3.733,0,0,1,.563,1.477A9.66,9.66,0,0,1,97.4,8.266H91.27a3.579,3.579,0,0,0,.6,2.043,2.014,2.014,0,0,0,1.742.77,2.252,2.252,0,0,0,1.758-.727,2.449,2.449,0,0,0,.531-.977h1.383a2.912,2.912,0,0,1-.363,1.027,3.654,3.654,0,0,1-.691.926,3.277,3.277,0,0,1-1.586.844A4.818,4.818,0,0,1,93.5,12.3a3.524,3.524,0,0,1-2.648-1.137,4.423,4.423,0,0,1-1.086-3.184A4.809,4.809,0,0,1,90.856,4.7,3.608,3.608,0,0,1,93.716,3.445Zm2.242,3.7a3.643,3.643,0,0,0-.4-1.461,2.042,2.042,0,0,0-1.93-1.016,2.139,2.139,0,0,0-1.625.7,2.641,2.641,0,0,0-.7,1.777ZM99.17,3.633h1.336V5.078a3.193,3.193,0,0,1,.8-1.027,2.086,2.086,0,0,1,1.477-.605q.039,0,.133.008l.32.031V4.969a2.1,2.1,0,0,0-.23-.031q-.105-.008-.23-.008a2.007,2.007,0,0,0-1.633.684,2.386,2.386,0,0,0-.57,1.574V12H99.17Zm8.517-.242a3.648,3.648,0,0,1,2.3.688,3.294,3.294,0,0,1,1.066,2.367h-1.367a2.524,2.524,0,0,0-.57-1.285,1.8,1.8,0,0,0-1.43-.512,1.975,1.975,0,0,0-1.922,1.313,5.214,5.214,0,0,0-.375,2.1,3.955,3.955,0,0,0,.531,2.117,2.06,2.06,0,0,0,3.059.324,2.943,2.943,0,0,0,.707-1.465h1.367a3.67,3.67,0,0,1-1.172,2.434,3.656,3.656,0,0,1-2.4.77,3.2,3.2,0,0,1-2.617-1.2,4.59,4.59,0,0,1-.977-3,5.048,5.048,0,0,1,1.07-3.43A3.459,3.459,0,0,1,107.688,3.391Zm5.853,6.383a1.158,1.158,0,0,0,.445.961,1.651,1.651,0,0,0,1.055.352,3.207,3.207,0,0,0,1.438-.344,1.935,1.935,0,0,0,1.172-1.867V7.742a2.406,2.406,0,0,1-.664.273,5.659,5.659,0,0,1-.8.156l-.852.109a3.257,3.257,0,0,0-1.148.32A1.248,1.248,0,0,0,113.541,9.773Zm3.406-2.844a.764.764,0,0,0,.648-.406,1.236,1.236,0,0,0,.094-.539,1.142,1.142,0,0,0-.512-1.043,2.745,2.745,0,0,0-1.465-.324,1.861,1.861,0,0,0-1.562.594,1.953,1.953,0,0,0-.336.977H112.5a2.416,2.416,0,0,1,1-2.152,4.122,4.122,0,0,1,2.238-.605,4.554,4.554,0,0,1,2.4.563,1.908,1.908,0,0,1,.914,1.75v4.82a.617.617,0,0,0,.09.352.433.433,0,0,0,.379.133q.094,0,.211-.012t.25-.035v1.039a3.916,3.916,0,0,1-.5.117,3.654,3.654,0,0,1-.469.023,1.157,1.157,0,0,1-1.055-.516,1.99,1.99,0,0,1-.242-.773,3.578,3.578,0,0,1-1.234.977,3.818,3.818,0,0,1-1.773.414,2.637,2.637,0,0,1-1.9-.707,2.349,2.349,0,0,1-.738-1.77A2.279,2.279,0,0,1,112.8,8a3.457,3.457,0,0,1,1.906-.789Zm5.306.984a4.147,4.147,0,0,0,.57,2.25,2,2,0,0,0,1.828.906,1.925,1.925,0,0,0,1.605-.84,3.966,3.966,0,0,0,.629-2.41,3.564,3.564,0,0,0-.648-2.348,2.023,2.023,0,0,0-1.6-.762,2.114,2.114,0,0,0-1.723.813A3.721,3.721,0,0,0,122.253,7.914Zm2.117-4.43a2.977,2.977,0,0,1,1.609.406,3.78,3.78,0,0,1,.852.82V.484h1.352V12h-1.266V10.836a3.043,3.043,0,0,1-1.164,1.117,3.332,3.332,0,0,1-1.539.344,3.117,3.117,0,0,1-2.422-1.176,4.6,4.6,0,0,1-1.023-3.129,5.4,5.4,0,0,1,.934-3.168A3.057,3.057,0,0,1,124.37,3.484Zm9.213,7.609a1.939,1.939,0,0,0,1.918-1.059,5.274,5.274,0,0,0,.52-2.355,4.194,4.194,0,0,0-.375-1.906A2.11,2.11,0,0,0,133.6,4.617a2.018,2.018,0,0,0-1.875.984,4.563,4.563,0,0,0-.586,2.375,3.969,3.969,0,0,0,.586,2.227A2.064,2.064,0,0,0,133.583,11.094Zm.055-7.7a3.789,3.789,0,0,1,2.734,1.078,4.21,4.21,0,0,1,1.117,3.172,5.442,5.442,0,0,1-.984,3.344,3.561,3.561,0,0,1-3.055,1.32,3.449,3.449,0,0,1-2.742-1.168A4.613,4.613,0,0,1,129.692,8a4.991,4.991,0,0,1,1.07-3.359A3.592,3.592,0,0,1,133.638,3.391Z" transform="translate(889 1062)" fill="#0b0a0a"/>
    <g id="Trazado_985629" data-name="Trazado 985629" transform="translate(854 979)" fill="#a0f0cb">
      <path d="M 283.5 44.5 L 0.5 44.5 L 0.5 0.5 L 283.5 0.5 L 283.5 44.5 Z" stroke="none"/>
      <path d="M 1 1 L 1 44 L 283 44 L 283 1 L 1 1 M 0 0 L 284 0 L 284 45 L 0 45 L 0 0 Z" stroke="none" fill="#0b7744"/>
    </g>
    <path id="Trazado_985630" data-name="Trazado 985630" d="M40.561.523h2.227l3.3,9.7,3.273-9.7h2.2V12H50.085V5.227q0-.352.016-1.164t.016-1.742L46.843,12H45.3l-3.3-9.68v.352q0,.422.02,1.285t.02,1.27V12H40.561Zm16.5,10.57a1.939,1.939,0,0,0,1.918-1.059A5.274,5.274,0,0,0,59.5,7.68a4.194,4.194,0,0,0-.375-1.906,2.11,2.11,0,0,0-2.047-1.156A2.018,2.018,0,0,0,55.2,5.6a4.563,4.563,0,0,0-.586,2.375A3.969,3.969,0,0,0,55.2,10.2,2.064,2.064,0,0,0,57.063,11.094Zm.055-7.7a3.789,3.789,0,0,1,2.734,1.078,4.21,4.21,0,0,1,1.117,3.172,5.442,5.442,0,0,1-.984,3.344A3.561,3.561,0,0,1,56.93,12.3a3.449,3.449,0,0,1-2.742-1.168A4.613,4.613,0,0,1,53.172,8a4.991,4.991,0,0,1,1.07-3.359A3.592,3.592,0,0,1,57.118,3.391Zm6.416,4.523a4.147,4.147,0,0,0,.57,2.25,2,2,0,0,0,1.828.906,1.925,1.925,0,0,0,1.605-.84,3.966,3.966,0,0,0,.629-2.41,3.564,3.564,0,0,0-.648-2.348,2.023,2.023,0,0,0-1.6-.762,2.114,2.114,0,0,0-1.723.813A3.721,3.721,0,0,0,63.533,7.914Zm2.117-4.43a2.977,2.977,0,0,1,1.609.406,3.78,3.78,0,0,1,.852.82V.484h1.352V12H68.2V10.836a3.043,3.043,0,0,1-1.164,1.117,3.332,3.332,0,0,1-1.539.344,3.117,3.117,0,0,1-2.422-1.176,4.6,4.6,0,0,1-1.023-3.129,5.4,5.4,0,0,1,.934-3.168A3.057,3.057,0,0,1,65.651,3.484Zm9.377-.039a3.817,3.817,0,0,1,1.727.418,3.184,3.184,0,0,1,1.273,1.082,3.733,3.733,0,0,1,.563,1.477,9.66,9.66,0,0,1,.125,1.844H72.582a3.579,3.579,0,0,0,.6,2.043,2.014,2.014,0,0,0,1.742.77,2.252,2.252,0,0,0,1.758-.727,2.449,2.449,0,0,0,.531-.977H78.6a2.912,2.912,0,0,1-.363,1.027,3.654,3.654,0,0,1-.691.926,3.277,3.277,0,0,1-1.586.844,4.818,4.818,0,0,1-1.148.125A3.524,3.524,0,0,1,72.16,11.16a4.423,4.423,0,0,1-1.086-3.184A4.809,4.809,0,0,1,72.168,4.7,3.608,3.608,0,0,1,75.027,3.445Zm2.242,3.7a3.643,3.643,0,0,0-.4-1.461,2.042,2.042,0,0,0-1.93-1.016,2.139,2.139,0,0,0-1.625.7,2.641,2.641,0,0,0-.7,1.777ZM80.482.523h1.406V12H80.482Zm6.838,10.57a1.939,1.939,0,0,0,1.918-1.059,5.274,5.274,0,0,0,.52-2.355,4.194,4.194,0,0,0-.375-1.906,2.11,2.11,0,0,0-2.047-1.156A2.018,2.018,0,0,0,85.46,5.6a4.563,4.563,0,0,0-.586,2.375A3.969,3.969,0,0,0,85.46,10.2,2.064,2.064,0,0,0,87.319,11.094Zm.055-7.7a3.789,3.789,0,0,1,2.734,1.078,4.21,4.21,0,0,1,1.117,3.172,5.442,5.442,0,0,1-.984,3.344,3.561,3.561,0,0,1-3.055,1.32,3.449,3.449,0,0,1-2.742-1.168A4.613,4.613,0,0,1,83.429,8,4.991,4.991,0,0,1,84.5,4.641,3.592,3.592,0,0,1,87.374,3.391ZM98.237,7.914a4.147,4.147,0,0,0,.57,2.25,2,2,0,0,0,1.828.906,1.925,1.925,0,0,0,1.605-.84,3.966,3.966,0,0,0,.629-2.41,3.564,3.564,0,0,0-.648-2.348,2.023,2.023,0,0,0-1.6-.762,2.114,2.114,0,0,0-1.723.813A3.721,3.721,0,0,0,98.237,7.914Zm2.117-4.43a2.977,2.977,0,0,1,1.609.406,3.78,3.78,0,0,1,.852.82V.484h1.352V12H102.9V10.836a3.043,3.043,0,0,1-1.164,1.117,3.332,3.332,0,0,1-1.539.344,3.117,3.117,0,0,1-2.422-1.176,4.6,4.6,0,0,1-1.023-3.129,5.4,5.4,0,0,1,.934-3.168A3.057,3.057,0,0,1,100.354,3.484Zm9.377-.039a3.817,3.817,0,0,1,1.727.418,3.184,3.184,0,0,1,1.273,1.082,3.733,3.733,0,0,1,.563,1.477,9.66,9.66,0,0,1,.125,1.844h-6.133a3.579,3.579,0,0,0,.6,2.043,2.014,2.014,0,0,0,1.742.77,2.252,2.252,0,0,0,1.758-.727,2.449,2.449,0,0,0,.531-.977H113.3a2.912,2.912,0,0,1-.363,1.027,3.654,3.654,0,0,1-.691.926,3.277,3.277,0,0,1-1.586.844,4.818,4.818,0,0,1-1.148.125,3.524,3.524,0,0,1-2.648-1.137,4.423,4.423,0,0,1-1.086-3.184A4.809,4.809,0,0,1,106.871,4.7,3.608,3.608,0,0,1,109.73,3.445Zm2.242,3.7a3.643,3.643,0,0,0-.4-1.461,2.042,2.042,0,0,0-1.93-1.016,2.139,2.139,0,0,0-1.625.7,2.641,2.641,0,0,0-.7,1.777Zm7.62-3.516h1.336V4.82a3.747,3.747,0,0,1,1.258-1.055,3.354,3.354,0,0,1,1.477-.32,2.435,2.435,0,0,1,2.406,1.242,4.411,4.411,0,0,1,.344,1.945V12h-1.43V6.727a2.856,2.856,0,0,0-.227-1.234,1.374,1.374,0,0,0-1.359-.781,2.768,2.768,0,0,0-.82.1,2.113,2.113,0,0,0-1.016.688,2.07,2.07,0,0,0-.457.855A5.758,5.758,0,0,0,121,7.617V12h-1.406Zm12.384-.187a3.817,3.817,0,0,1,1.727.418,3.184,3.184,0,0,1,1.273,1.082,3.733,3.733,0,0,1,.563,1.477,9.661,9.661,0,0,1,.125,1.844h-6.133a3.579,3.579,0,0,0,.6,2.043,2.014,2.014,0,0,0,1.742.77,2.252,2.252,0,0,0,1.758-.727,2.449,2.449,0,0,0,.531-.977h1.383a2.912,2.912,0,0,1-.363,1.027,3.654,3.654,0,0,1-.691.926,3.277,3.277,0,0,1-1.586.844,4.818,4.818,0,0,1-1.148.125,3.524,3.524,0,0,1-2.648-1.137,4.423,4.423,0,0,1-1.086-3.184A4.809,4.809,0,0,1,129.118,4.7,3.608,3.608,0,0,1,131.977,3.445Zm2.242,3.7a3.643,3.643,0,0,0-.4-1.461,2.042,2.042,0,0,0-1.93-1.016,2.139,2.139,0,0,0-1.625.7,2.641,2.641,0,0,0-.7,1.777Zm6.127-3.664a3.05,3.05,0,0,1,1.719.484,3.861,3.861,0,0,1,.813.8V3.711h1.3V11.32a5.611,5.611,0,0,1-.469,2.516,3.366,3.366,0,0,1-3.3,1.7,4.054,4.054,0,0,1-2.273-.605,2.361,2.361,0,0,1-1.031-1.895h1.43a1.591,1.591,0,0,0,.406.867,2.572,2.572,0,0,0,3.617-.672,6.424,6.424,0,0,0,.273-2.4,2.759,2.759,0,0,1-1.016.953,3.642,3.642,0,0,1-3.949-.652,4.243,4.243,0,0,1-1.02-3.191,4.833,4.833,0,0,1,1.027-3.281A3.177,3.177,0,0,1,140.346,3.484Zm2.531,4.3a3.488,3.488,0,0,0-.641-2.3,2.052,2.052,0,0,0-1.633-.75,2.016,2.016,0,0,0-2.031,1.391,5.453,5.453,0,0,0-.289,1.945,3.453,3.453,0,0,0,.574,2.152,1.854,1.854,0,0,0,1.543.738,2.166,2.166,0,0,0,2.133-1.367A4.41,4.41,0,0,0,142.878,7.781Zm6.736,3.313a1.939,1.939,0,0,0,1.918-1.059,5.274,5.274,0,0,0,.52-2.355,4.194,4.194,0,0,0-.375-1.906,2.11,2.11,0,0,0-2.047-1.156,2.018,2.018,0,0,0-1.875.984,4.563,4.563,0,0,0-.586,2.375,3.969,3.969,0,0,0,.586,2.227A2.064,2.064,0,0,0,149.613,11.094Zm.055-7.7A3.789,3.789,0,0,1,152.4,4.469a4.21,4.21,0,0,1,1.117,3.172,5.442,5.442,0,0,1-.984,3.344,3.561,3.561,0,0,1-3.055,1.32,3.449,3.449,0,0,1-2.742-1.168A4.613,4.613,0,0,1,145.723,8a4.991,4.991,0,0,1,1.07-3.359A3.592,3.592,0,0,1,149.668,3.391Zm8.752,0a3.648,3.648,0,0,1,2.3.688,3.294,3.294,0,0,1,1.066,2.367H160.42a2.524,2.524,0,0,0-.57-1.285,1.8,1.8,0,0,0-1.43-.512A1.975,1.975,0,0,0,156.5,5.961a5.214,5.214,0,0,0-.375,2.1,3.955,3.955,0,0,0,.531,2.117,2.06,2.06,0,0,0,3.059.324,2.943,2.943,0,0,0,.707-1.465h1.367a3.67,3.67,0,0,1-1.172,2.434,3.656,3.656,0,0,1-2.4.77,3.2,3.2,0,0,1-2.617-1.2,4.59,4.59,0,0,1-.977-3,5.047,5.047,0,0,1,1.07-3.43A3.459,3.459,0,0,1,158.42,3.391Zm4.775.281h1.43V12h-1.43Zm0-3.148h1.43V2.117h-1.43Zm6.877,10.57a1.939,1.939,0,0,0,1.918-1.059,5.274,5.274,0,0,0,.52-2.355,4.194,4.194,0,0,0-.375-1.906,2.11,2.11,0,0,0-2.047-1.156,2.018,2.018,0,0,0-1.875.984,4.563,4.563,0,0,0-.586,2.375,3.969,3.969,0,0,0,.586,2.227A2.064,2.064,0,0,0,170.071,11.094Zm.055-7.7a3.789,3.789,0,0,1,2.734,1.078,4.21,4.21,0,0,1,1.117,3.172,5.442,5.442,0,0,1-.984,3.344,3.561,3.561,0,0,1-3.055,1.32,3.449,3.449,0,0,1-2.742-1.168A4.613,4.613,0,0,1,166.181,8a4.991,4.991,0,0,1,1.07-3.359A3.592,3.592,0,0,1,170.126,3.391Z" transform="translate(889 992)" fill="#0b0a0a"/>
    <g id="Trazado_985631" data-name="Trazado 985631" transform="translate(854 909)" fill="#a0f0cb">
      <path d="M 283.5 44.5 L 0.5 44.5 L 0.5 0.5 L 283.5 0.5 L 283.5 44.5 Z" stroke="none"/>
      <path d="M 1 1 L 1 44 L 283 44 L 283 1 L 1 1 M 0 0 L 284 0 L 284 45 L 0 45 L 0 0 Z" stroke="none" fill="#0b7744"/>
    </g>
    <path id="Trazado_985632" data-name="Trazado 985632" d="M79.015.523h5.164a3.5,3.5,0,0,1,2.469.863,3.133,3.133,0,0,1,.938,2.426,3.527,3.527,0,0,1-.836,2.34,3.167,3.167,0,0,1-2.57,1H80.569V12H79.015Zm7,3.3A1.727,1.727,0,0,0,85.077,2.1a3.385,3.385,0,0,0-1.414-.242H80.569V5.836h3.094a2.957,2.957,0,0,0,1.7-.445A1.765,1.765,0,0,0,86.015,3.82Zm3.377-.187h1.336V5.078a3.193,3.193,0,0,1,.8-1.027,2.086,2.086,0,0,1,1.477-.605q.039,0,.133.008l.32.031V4.969a2.1,2.1,0,0,0-.23-.031Q93.126,4.93,93,4.93a2.007,2.007,0,0,0-1.633.684,2.386,2.386,0,0,0-.57,1.574V12H89.391ZM98,11.094a1.939,1.939,0,0,0,1.918-1.059,5.274,5.274,0,0,0,.52-2.355,4.194,4.194,0,0,0-.375-1.906,2.11,2.11,0,0,0-2.047-1.156,2.018,2.018,0,0,0-1.875.984,4.563,4.563,0,0,0-.586,2.375,3.969,3.969,0,0,0,.586,2.227A2.064,2.064,0,0,0,98,11.094Zm.055-7.7a3.789,3.789,0,0,1,2.734,1.078,4.21,4.21,0,0,1,1.117,3.172,5.442,5.442,0,0,1-.984,3.344,3.561,3.561,0,0,1-3.055,1.32,3.449,3.449,0,0,1-2.742-1.168A4.613,4.613,0,0,1,94.112,8a4.991,4.991,0,0,1,1.07-3.359A3.592,3.592,0,0,1,98.057,3.391Zm8.752,0a3.648,3.648,0,0,1,2.3.688,3.294,3.294,0,0,1,1.066,2.367h-1.367a2.524,2.524,0,0,0-.57-1.285,1.8,1.8,0,0,0-1.43-.512,1.975,1.975,0,0,0-1.922,1.313,5.214,5.214,0,0,0-.375,2.1,3.955,3.955,0,0,0,.531,2.117,2.06,2.06,0,0,0,3.059.324,2.943,2.943,0,0,0,.707-1.465h1.367A3.67,3.67,0,0,1,109,11.473a3.656,3.656,0,0,1-2.4.77,3.2,3.2,0,0,1-2.617-1.2,4.59,4.59,0,0,1-.977-3,5.048,5.048,0,0,1,1.07-3.43A3.459,3.459,0,0,1,106.809,3.391Zm8.259.055a3.817,3.817,0,0,1,1.727.418,3.184,3.184,0,0,1,1.273,1.082,3.733,3.733,0,0,1,.563,1.477,9.66,9.66,0,0,1,.125,1.844h-6.133a3.579,3.579,0,0,0,.6,2.043,2.014,2.014,0,0,0,1.742.77,2.252,2.252,0,0,0,1.758-.727,2.449,2.449,0,0,0,.531-.977h1.383a2.912,2.912,0,0,1-.363,1.027,3.654,3.654,0,0,1-.691.926,3.277,3.277,0,0,1-1.586.844,4.818,4.818,0,0,1-1.148.125A3.524,3.524,0,0,1,112.2,11.16a4.423,4.423,0,0,1-1.086-3.184A4.809,4.809,0,0,1,112.209,4.7,3.608,3.608,0,0,1,115.068,3.445Zm2.242,3.7a3.643,3.643,0,0,0-.4-1.461,2.042,2.042,0,0,0-1.93-1.016,2.139,2.139,0,0,0-1.625.7,2.641,2.641,0,0,0-.7,1.777Zm4.009,2.227a2.045,2.045,0,0,0,.352,1.078,2.209,2.209,0,0,0,1.844.68,2.719,2.719,0,0,0,1.375-.34,1.129,1.129,0,0,0,.594-1.051.9.9,0,0,0-.477-.82,5.666,5.666,0,0,0-1.2-.4l-1.117-.281a5.45,5.45,0,0,1-1.578-.594A1.775,1.775,0,0,1,120.2,6.07a2.411,2.411,0,0,1,.855-1.922,3.413,3.413,0,0,1,2.3-.734,3.194,3.194,0,0,1,2.727,1.109,2.407,2.407,0,0,1,.508,1.516h-1.328a1.627,1.627,0,0,0-.336-.867,2.143,2.143,0,0,0-1.68-.555,2.008,2.008,0,0,0-1.207.3.955.955,0,0,0-.41.8.991.991,0,0,0,.539.875,3.239,3.239,0,0,0,.922.344l.93.227a7.188,7.188,0,0,1,2.031.711,1.882,1.882,0,0,1,.82,1.7,2.584,2.584,0,0,1-.848,1.93,3.608,3.608,0,0,1-2.582.813,3.464,3.464,0,0,1-2.645-.848,3.206,3.206,0,0,1-.832-2.1Zm10.486,1.719a1.939,1.939,0,0,0,1.918-1.059,5.274,5.274,0,0,0,.52-2.355,4.194,4.194,0,0,0-.375-1.906,2.11,2.11,0,0,0-2.047-1.156,2.018,2.018,0,0,0-1.875.984,4.563,4.563,0,0,0-.586,2.375,3.969,3.969,0,0,0,.586,2.227A2.064,2.064,0,0,0,131.806,11.094Zm.055-7.7a3.789,3.789,0,0,1,2.734,1.078,4.21,4.21,0,0,1,1.117,3.172,5.442,5.442,0,0,1-.984,3.344,3.561,3.561,0,0,1-3.055,1.32,3.449,3.449,0,0,1-2.742-1.168A4.613,4.613,0,0,1,127.915,8a4.991,4.991,0,0,1,1.07-3.359A3.592,3.592,0,0,1,131.86,3.391Z" transform="translate(889 922)" fill="#0b0a0a"/>
    <g id="Trazado_985633" data-name="Trazado 985633" transform="translate(854 843)" fill="#a0f0cb">
      <path d="M 283.5 44.5 L 0.5 44.5 L 0.5 0.5 L 283.5 0.5 L 283.5 44.5 Z" stroke="none"/>
      <path d="M 1 1 L 1 44 L 283 44 L 283 1 L 1 1 M 0 0 L 284 0 L 284 45 L 0 45 L 0 0 Z" stroke="none" fill="#0b7744"/>
    </g>
    <path id="Trazado_985634" data-name="Trazado 985634" d="M47,.523h5.164a3.5,3.5,0,0,1,2.469.863,3.133,3.133,0,0,1,.938,2.426,3.527,3.527,0,0,1-.836,2.34,3.167,3.167,0,0,1-2.57,1H48.55V12H47Zm7,3.3A1.727,1.727,0,0,0,53.058,2.1a3.385,3.385,0,0,0-1.414-.242H48.55V5.836h3.094a2.957,2.957,0,0,0,1.7-.445A1.765,1.765,0,0,0,54,3.82Zm3.377-.187h1.336V5.078a3.193,3.193,0,0,1,.8-1.027,2.086,2.086,0,0,1,1.477-.605q.039,0,.133.008l.32.031V4.969a2.1,2.1,0,0,0-.23-.031q-.105-.008-.23-.008a2.007,2.007,0,0,0-1.633.684,2.386,2.386,0,0,0-.57,1.574V12H57.372Zm8.611,7.461A1.939,1.939,0,0,0,67.9,10.035a5.274,5.274,0,0,0,.52-2.355,4.194,4.194,0,0,0-.375-1.906A2.11,2.11,0,0,0,66,4.617a2.018,2.018,0,0,0-1.875.984,4.563,4.563,0,0,0-.586,2.375,3.969,3.969,0,0,0,.586,2.227A2.064,2.064,0,0,0,65.983,11.094Zm.055-7.7a3.789,3.789,0,0,1,2.734,1.078,4.21,4.21,0,0,1,1.117,3.172,5.442,5.442,0,0,1-.984,3.344A3.561,3.561,0,0,1,65.85,12.3a3.449,3.449,0,0,1-2.742-1.168A4.613,4.613,0,0,1,62.092,8a4.991,4.991,0,0,1,1.07-3.359A3.592,3.592,0,0,1,66.037,3.391Zm6.416,4.523a4.147,4.147,0,0,0,.57,2.25,2,2,0,0,0,1.828.906,1.925,1.925,0,0,0,1.605-.84,3.966,3.966,0,0,0,.629-2.41,3.564,3.564,0,0,0-.648-2.348,2.023,2.023,0,0,0-1.6-.762,2.114,2.114,0,0,0-1.723.813A3.721,3.721,0,0,0,72.453,7.914Zm2.117-4.43a2.977,2.977,0,0,1,1.609.406,3.78,3.78,0,0,1,.852.82V.484h1.352V12H77.117V10.836a3.043,3.043,0,0,1-1.164,1.117,3.332,3.332,0,0,1-1.539.344,3.117,3.117,0,0,1-2.422-1.176,4.6,4.6,0,0,1-1.023-3.129A5.4,5.4,0,0,1,71.9,4.824,3.057,3.057,0,0,1,74.57,3.484Zm7.3.148V9.188a2.342,2.342,0,0,0,.2,1.047,1.417,1.417,0,0,0,1.4.75,1.977,1.977,0,0,0,2-1.312,5.207,5.207,0,0,0,.289-1.93V3.633h1.406V12H85.837l.016-1.234a2.837,2.837,0,0,1-.68.8,2.991,2.991,0,0,1-1.953.656,2.519,2.519,0,0,1-2.437-1.2,3.56,3.56,0,0,1-.352-1.711V3.633Zm10.72-.242a3.648,3.648,0,0,1,2.3.688,3.294,3.294,0,0,1,1.066,2.367H94.589a2.524,2.524,0,0,0-.57-1.285,1.8,1.8,0,0,0-1.43-.512,1.975,1.975,0,0,0-1.922,1.313,5.214,5.214,0,0,0-.375,2.1,3.955,3.955,0,0,0,.531,2.117,2.06,2.06,0,0,0,3.059.324,2.943,2.943,0,0,0,.707-1.465h1.367a3.67,3.67,0,0,1-1.172,2.434,3.656,3.656,0,0,1-2.4.77,3.2,3.2,0,0,1-2.617-1.2,4.59,4.59,0,0,1-.977-3,5.048,5.048,0,0,1,1.07-3.43A3.459,3.459,0,0,1,92.589,3.391ZM97.645,1.3h1.422V3.633H100.4V4.781H99.067v5.461a.591.591,0,0,0,.3.586,1.262,1.262,0,0,0,.547.086q.1,0,.219,0t.273-.02V12a3.139,3.139,0,0,1-.5.1,4.791,4.791,0,0,1-.566.031,1.527,1.527,0,0,1-1.336-.5,2.239,2.239,0,0,1-.352-1.309V4.781H96.512V3.633h1.133Zm7.486,9.8a1.939,1.939,0,0,0,1.918-1.059,5.274,5.274,0,0,0,.52-2.355,4.194,4.194,0,0,0-.375-1.906,2.11,2.11,0,0,0-2.047-1.156,2.018,2.018,0,0,0-1.875.984,4.563,4.563,0,0,0-.586,2.375,3.969,3.969,0,0,0,.586,2.227A2.064,2.064,0,0,0,105.131,11.094Zm.055-7.7a3.789,3.789,0,0,1,2.734,1.078,4.21,4.21,0,0,1,1.117,3.172,5.442,5.442,0,0,1-.984,3.344A3.561,3.561,0,0,1,105,12.3a3.449,3.449,0,0,1-2.742-1.168A4.613,4.613,0,0,1,101.241,8a4.991,4.991,0,0,1,1.07-3.359A3.592,3.592,0,0,1,105.186,3.391ZM113.32.523h1.188L110.867,12H109.68Zm2.673,8.852a2.045,2.045,0,0,0,.352,1.078,2.209,2.209,0,0,0,1.844.68,2.719,2.719,0,0,0,1.375-.34,1.129,1.129,0,0,0,.594-1.051.9.9,0,0,0-.477-.82,5.666,5.666,0,0,0-1.2-.4l-1.117-.281a5.45,5.45,0,0,1-1.578-.594,1.775,1.775,0,0,1-.906-1.578,2.411,2.411,0,0,1,.855-1.922,3.413,3.413,0,0,1,2.3-.734,3.194,3.194,0,0,1,2.727,1.109,2.407,2.407,0,0,1,.508,1.516h-1.328a1.627,1.627,0,0,0-.336-.867,2.143,2.143,0,0,0-1.68-.555,2.008,2.008,0,0,0-1.207.3.955.955,0,0,0-.41.8.991.991,0,0,0,.539.875,3.239,3.239,0,0,0,.922.344l.93.227a7.188,7.188,0,0,1,2.031.711,1.882,1.882,0,0,1,.82,1.7,2.584,2.584,0,0,1-.848,1.93,3.608,3.608,0,0,1-2.582.813,3.464,3.464,0,0,1-2.645-.848,3.206,3.206,0,0,1-.832-2.1Zm10.65-5.93a3.817,3.817,0,0,1,1.727.418,3.184,3.184,0,0,1,1.273,1.082,3.733,3.733,0,0,1,.563,1.477,9.661,9.661,0,0,1,.125,1.844H124.2a3.579,3.579,0,0,0,.6,2.043,2.014,2.014,0,0,0,1.742.77,2.252,2.252,0,0,0,1.758-.727,2.449,2.449,0,0,0,.531-.977h1.383a2.912,2.912,0,0,1-.363,1.027,3.654,3.654,0,0,1-.691.926,3.277,3.277,0,0,1-1.586.844,4.818,4.818,0,0,1-1.148.125,3.524,3.524,0,0,1-2.648-1.137,4.423,4.423,0,0,1-1.086-3.184A4.809,4.809,0,0,1,123.784,4.7,3.608,3.608,0,0,1,126.644,3.445Zm2.242,3.7a3.643,3.643,0,0,0-.4-1.461,2.042,2.042,0,0,0-1.93-1.016,2.139,2.139,0,0,0-1.625.7,2.641,2.641,0,0,0-.7,1.777ZM132.1,3.633h1.336V5.078a3.193,3.193,0,0,1,.8-1.027,2.086,2.086,0,0,1,1.477-.605q.039,0,.133.008l.32.031V4.969a2.1,2.1,0,0,0-.23-.031q-.105-.008-.23-.008a2.007,2.007,0,0,0-1.633.684,2.386,2.386,0,0,0-.57,1.574V12H132.1Zm5.978,0,2.234,6.813,2.336-6.812h1.539L141.03,12h-1.5l-3.086-8.367Zm7.314.039h1.43V12h-1.43Zm0-3.148h1.43V2.117h-1.43Zm6.783,2.867a3.648,3.648,0,0,1,2.3.688,3.294,3.294,0,0,1,1.066,2.367h-1.367a2.524,2.524,0,0,0-.57-1.285,1.8,1.8,0,0,0-1.43-.512,1.975,1.975,0,0,0-1.922,1.313,5.214,5.214,0,0,0-.375,2.1,3.955,3.955,0,0,0,.531,2.117,2.06,2.06,0,0,0,3.059.324,2.943,2.943,0,0,0,.707-1.465h1.367a3.67,3.67,0,0,1-1.172,2.434,3.656,3.656,0,0,1-2.4.77,3.2,3.2,0,0,1-2.617-1.2,4.59,4.59,0,0,1-.977-3,5.047,5.047,0,0,1,1.07-3.43A3.459,3.459,0,0,1,152.174,3.391Zm4.775.281h1.43V12h-1.43Zm0-3.148h1.43V2.117h-1.43Zm6.877,10.57a1.939,1.939,0,0,0,1.918-1.059,5.274,5.274,0,0,0,.52-2.355,4.194,4.194,0,0,0-.375-1.906,2.11,2.11,0,0,0-2.047-1.156,2.018,2.018,0,0,0-1.875.984,4.563,4.563,0,0,0-.586,2.375,3.969,3.969,0,0,0,.586,2.227A2.064,2.064,0,0,0,163.825,11.094Zm.055-7.7a3.789,3.789,0,0,1,2.734,1.078,4.21,4.21,0,0,1,1.117,3.172,5.442,5.442,0,0,1-.984,3.344,3.561,3.561,0,0,1-3.055,1.32,3.449,3.449,0,0,1-2.742-1.168A4.613,4.613,0,0,1,159.935,8,4.991,4.991,0,0,1,161,4.641,3.592,3.592,0,0,1,163.88,3.391Z" transform="translate(889 856)" fill="#0b0a0a"/>
    <path id="Trazado_984083" data-name="Trazado 984083" d="M2472.242,1118.375h25.327" transform="translate(-1642.749 520)" fill="none" stroke="#5a1a8a" stroke-width="1"/>
    <path id="Trazado_984084" data-name="Trazado 984084" d="M2472.242,1042h25.327" transform="translate(-1642.749 314)" fill="none" stroke="#5a1a8a" stroke-width="1"/>
    <path id="Trazado_984085" data-name="Trazado 984085" d="M2472.242,1048.5h25.327" transform="translate(-1642.749 379)" fill="none" stroke="#5a1a8a" stroke-width="1"/>
    <path id="Trazado_985635" data-name="Trazado 985635" d="M10.3,1.089h2.5L16.518,12,20.2,1.089h2.479V14H21.018V6.38q0-.4.018-1.31t.018-1.96L17.37,14H15.639L11.93,3.11v.4q0,.475.022,1.446t.022,1.428V14H10.3ZM28.868,12.98a2.182,2.182,0,0,0,2.158-1.191,5.933,5.933,0,0,0,.584-2.65A4.718,4.718,0,0,0,31.188,7a2.373,2.373,0,0,0-2.3-1.3A2.271,2.271,0,0,0,26.776,6.8a5.133,5.133,0,0,0-.659,2.672,4.465,4.465,0,0,0,.659,2.5A2.322,2.322,0,0,0,28.868,12.98Zm.062-8.666a4.262,4.262,0,0,1,3.076,1.213A4.736,4.736,0,0,1,33.263,9.1a6.122,6.122,0,0,1-1.107,3.762,4.006,4.006,0,0,1-3.437,1.485,3.88,3.88,0,0,1-3.085-1.314A5.19,5.19,0,0,1,24.491,9.5a5.615,5.615,0,0,1,1.2-3.779A4.041,4.041,0,0,1,28.93,4.314ZM36.147,9.4a4.666,4.666,0,0,0,.642,2.531,2.248,2.248,0,0,0,2.057,1.02,2.166,2.166,0,0,0,1.806-.945A4.462,4.462,0,0,0,41.359,9.3a4.009,4.009,0,0,0-.729-2.641,2.276,2.276,0,0,0-1.8-.857,2.378,2.378,0,0,0-1.938.914A4.186,4.186,0,0,0,36.147,9.4ZM38.529,4.42a3.349,3.349,0,0,1,1.811.457A4.253,4.253,0,0,1,41.3,5.8V1.045h1.521V14H41.394V12.69a3.423,3.423,0,0,1-1.31,1.257,3.748,3.748,0,0,1-1.731.387,3.506,3.506,0,0,1-2.725-1.323,5.172,5.172,0,0,1-1.151-3.52,6.076,6.076,0,0,1,1.05-3.564A3.439,3.439,0,0,1,38.529,4.42Zm10.549-.044a4.294,4.294,0,0,1,1.942.47,3.582,3.582,0,0,1,1.433,1.217,4.2,4.2,0,0,1,.633,1.661A10.868,10.868,0,0,1,53.226,9.8h-6.9A4.026,4.026,0,0,0,47,12.1a2.266,2.266,0,0,0,1.96.866,2.534,2.534,0,0,0,1.978-.817,2.755,2.755,0,0,0,.6-1.1h1.556a3.276,3.276,0,0,1-.409,1.156,4.111,4.111,0,0,1-.778,1.042,3.687,3.687,0,0,1-1.784.949,5.42,5.42,0,0,1-1.292.141,3.964,3.964,0,0,1-2.979-1.279A4.976,4.976,0,0,1,44.63,9.474a5.41,5.41,0,0,1,1.23-3.683A4.059,4.059,0,0,1,49.078,4.376ZM51.6,8.542A4.1,4.1,0,0,0,51.152,6.9a2.3,2.3,0,0,0-2.171-1.143,2.406,2.406,0,0,0-1.828.787,2.972,2.972,0,0,0-.782,2Zm3.614-7.453H56.8V14H55.214ZM62.906,12.98a2.182,2.182,0,0,0,2.158-1.191,5.933,5.933,0,0,0,.584-2.65A4.718,4.718,0,0,0,65.227,7a2.373,2.373,0,0,0-2.3-1.3A2.271,2.271,0,0,0,60.815,6.8a5.133,5.133,0,0,0-.659,2.672,4.465,4.465,0,0,0,.659,2.5A2.322,2.322,0,0,0,62.906,12.98Zm.062-8.666a4.262,4.262,0,0,1,3.076,1.213A4.736,4.736,0,0,1,67.3,9.1a6.122,6.122,0,0,1-1.107,3.762,4.006,4.006,0,0,1-3.437,1.485,3.88,3.88,0,0,1-3.085-1.314A5.19,5.19,0,0,1,58.529,9.5a5.615,5.615,0,0,1,1.2-3.779A4.041,4.041,0,0,1,62.968,4.314Zm7.156,6.732a2.3,2.3,0,0,0,.4,1.213,2.485,2.485,0,0,0,2.074.765,3.059,3.059,0,0,0,1.547-.382,1.27,1.27,0,0,0,.668-1.182,1.011,1.011,0,0,0-.536-.923,6.374,6.374,0,0,0-1.354-.448l-1.257-.316A6.131,6.131,0,0,1,69.887,9.1a2,2,0,0,1-1.02-1.775,2.713,2.713,0,0,1,.962-2.162,3.839,3.839,0,0,1,2.588-.826,3.593,3.593,0,0,1,3.067,1.248,2.708,2.708,0,0,1,.571,1.705H74.563a1.83,1.83,0,0,0-.378-.976,2.41,2.41,0,0,0-1.89-.624,2.259,2.259,0,0,0-1.358.343,1.074,1.074,0,0,0-.461.905,1.114,1.114,0,0,0,.606.984,3.644,3.644,0,0,0,1.037.387l1.046.255a8.087,8.087,0,0,1,2.285.8,2.118,2.118,0,0,1,.923,1.907,2.906,2.906,0,0,1-.954,2.171,4.059,4.059,0,0,1-2.9.914,3.9,3.9,0,0,1-2.975-.954,3.606,3.606,0,0,1-.936-2.36Z" transform="translate(667 1487)" fill="#0b0a0a"/>
    <path id="Trazado_985636" data-name="Trazado 985636" d="M72.582.211a4.7,4.7,0,0,1,3.383,1.148A4.056,4.056,0,0,1,77.3,3.969H75.785a3.154,3.154,0,0,0-1.027-1.758,3.256,3.256,0,0,0-2.16-.648,3.464,3.464,0,0,0-2.738,1.191,5.431,5.431,0,0,0-1.043,3.652,5.3,5.3,0,0,0,.941,3.27,3.289,3.289,0,0,0,2.809,1.254,2.967,2.967,0,0,0,2.617-1.32,5.021,5.021,0,0,0,.711-1.828H77.41a5.179,5.179,0,0,1-1.344,3.039A4.781,4.781,0,0,1,72.379,12.3a4.867,4.867,0,0,1-3.359-1.211A6.31,6.31,0,0,1,67.23,6.141a6.317,6.317,0,0,1,1.344-4.164A4.908,4.908,0,0,1,72.582.211Zm6.572,3.422H80.49V5.078a3.193,3.193,0,0,1,.8-1.027,2.086,2.086,0,0,1,1.477-.605q.039,0,.133.008l.32.031V4.969a2.1,2.1,0,0,0-.23-.031q-.105-.008-.23-.008a2.007,2.007,0,0,0-1.633.684,2.386,2.386,0,0,0-.57,1.574V12H79.154Zm8.775-.187a3.817,3.817,0,0,1,1.727.418,3.184,3.184,0,0,1,1.273,1.082,3.733,3.733,0,0,1,.563,1.477,9.66,9.66,0,0,1,.125,1.844H85.483a3.579,3.579,0,0,0,.6,2.043,2.014,2.014,0,0,0,1.742.77,2.252,2.252,0,0,0,1.758-.727,2.449,2.449,0,0,0,.531-.977H91.5a2.912,2.912,0,0,1-.363,1.027,3.654,3.654,0,0,1-.691.926,3.277,3.277,0,0,1-1.586.844,4.818,4.818,0,0,1-1.148.125,3.524,3.524,0,0,1-2.648-1.137,4.423,4.423,0,0,1-1.086-3.184A4.809,4.809,0,0,1,85.069,4.7,3.608,3.608,0,0,1,87.929,3.445Zm2.242,3.7a3.643,3.643,0,0,0-.4-1.461,2.042,2.042,0,0,0-1.93-1.016,2.139,2.139,0,0,0-1.625.7,2.641,2.641,0,0,0-.7,1.777Zm4.252,2.625a1.158,1.158,0,0,0,.445.961,1.651,1.651,0,0,0,1.055.352,3.207,3.207,0,0,0,1.438-.344,1.935,1.935,0,0,0,1.172-1.867V7.742a2.406,2.406,0,0,1-.664.273,5.659,5.659,0,0,1-.8.156l-.852.109a3.257,3.257,0,0,0-1.148.32A1.248,1.248,0,0,0,94.423,9.773ZM97.829,6.93a.764.764,0,0,0,.648-.406,1.236,1.236,0,0,0,.094-.539,1.142,1.142,0,0,0-.512-1.043,2.745,2.745,0,0,0-1.465-.324,1.861,1.861,0,0,0-1.562.594,1.953,1.953,0,0,0-.336.977H93.384a2.416,2.416,0,0,1,1-2.152,4.122,4.122,0,0,1,2.238-.605,4.554,4.554,0,0,1,2.4.563,1.908,1.908,0,0,1,.914,1.75v4.82a.617.617,0,0,0,.09.352.433.433,0,0,0,.379.133q.094,0,.211-.012t.25-.035v1.039a3.916,3.916,0,0,1-.5.117,3.654,3.654,0,0,1-.469.023,1.157,1.157,0,0,1-1.055-.516,1.99,1.99,0,0,1-.242-.773,3.578,3.578,0,0,1-1.234.977,3.818,3.818,0,0,1-1.773.414,2.637,2.637,0,0,1-1.9-.707,2.349,2.349,0,0,1-.738-1.77A2.279,2.279,0,0,1,93.68,8a3.457,3.457,0,0,1,1.906-.789Zm4.7-5.633h1.422V3.633h1.336V4.781h-1.336v5.461a.591.591,0,0,0,.3.586,1.262,1.262,0,0,0,.547.086q.1,0,.219,0t.273-.02V12a3.139,3.139,0,0,1-.5.1,4.791,4.791,0,0,1-.566.031,1.527,1.527,0,0,1-1.336-.5,2.239,2.239,0,0,1-.352-1.309V4.781h-1.133V3.633h1.133Zm4.166,2.375h1.43V12h-1.43Zm0-3.148h1.43V2.117h-1.43Zm4.244,3.109,2.234,6.813,2.336-6.812h1.539L113.888,12h-1.5L109.3,3.633Zm7.314.039h1.43V12h-1.43Zm0-3.148h1.43V2.117h-1.43ZM122.7,7.914a4.147,4.147,0,0,0,.57,2.25,2,2,0,0,0,1.828.906,1.925,1.925,0,0,0,1.605-.84,3.966,3.966,0,0,0,.629-2.41,3.564,3.564,0,0,0-.648-2.348,2.023,2.023,0,0,0-1.6-.762,2.114,2.114,0,0,0-1.723.813A3.721,3.721,0,0,0,122.7,7.914Zm2.117-4.43a2.977,2.977,0,0,1,1.609.406,3.78,3.78,0,0,1,.852.82V.484h1.352V12H127.36V10.836a3.043,3.043,0,0,1-1.164,1.117,3.332,3.332,0,0,1-1.539.344,3.117,3.117,0,0,1-2.422-1.176,4.6,4.6,0,0,1-1.023-3.129,5.4,5.4,0,0,1,.934-3.168A3.057,3.057,0,0,1,124.813,3.484Zm6.97,6.289a1.158,1.158,0,0,0,.445.961,1.651,1.651,0,0,0,1.055.352,3.207,3.207,0,0,0,1.438-.344,1.935,1.935,0,0,0,1.172-1.867V7.742a2.406,2.406,0,0,1-.664.273,5.658,5.658,0,0,1-.8.156l-.852.109a3.257,3.257,0,0,0-1.148.32A1.248,1.248,0,0,0,131.784,9.773ZM135.19,6.93a.764.764,0,0,0,.648-.406,1.236,1.236,0,0,0,.094-.539,1.142,1.142,0,0,0-.512-1.043,2.745,2.745,0,0,0-1.465-.324,1.861,1.861,0,0,0-1.562.594,1.953,1.953,0,0,0-.336.977h-1.312a2.416,2.416,0,0,1,1-2.152,4.122,4.122,0,0,1,2.238-.605,4.554,4.554,0,0,1,2.4.563,1.908,1.908,0,0,1,.914,1.75v4.82a.617.617,0,0,0,.09.352.433.433,0,0,0,.379.133q.094,0,.211-.012t.25-.035v1.039a3.917,3.917,0,0,1-.5.117,3.654,3.654,0,0,1-.469.023,1.157,1.157,0,0,1-1.055-.516,1.99,1.99,0,0,1-.242-.773,3.578,3.578,0,0,1-1.234.977,3.818,3.818,0,0,1-1.773.414,2.637,2.637,0,0,1-1.9-.707,2.349,2.349,0,0,1-.738-1.77,2.279,2.279,0,0,1,.727-1.8,3.457,3.457,0,0,1,1.906-.789Zm5.306.984a4.148,4.148,0,0,0,.57,2.25,2,2,0,0,0,1.828.906,1.925,1.925,0,0,0,1.605-.84,3.966,3.966,0,0,0,.629-2.41,3.564,3.564,0,0,0-.648-2.348,2.023,2.023,0,0,0-1.6-.762,2.114,2.114,0,0,0-1.723.813A3.721,3.721,0,0,0,140.5,7.914Zm2.117-4.43a2.977,2.977,0,0,1,1.609.406,3.78,3.78,0,0,1,.852.82V.484h1.352V12H145.16V10.836A3.042,3.042,0,0,1,144,11.953a3.332,3.332,0,0,1-1.539.344,3.117,3.117,0,0,1-2.422-1.176,4.6,4.6,0,0,1-1.023-3.129,5.4,5.4,0,0,1,.934-3.168A3.057,3.057,0,0,1,142.613,3.484Z" transform="translate(889 704)" fill="#0b0a0a"/>
  </g>
</svg>
