<svg xmlns="http://www.w3.org/2000/svg" xmlns:xlink="http://www.w3.org/1999/xlink" width="98" height="98" viewBox="0 0 98 98">
  <defs>
    <filter id="Trazado_982548" x="0" y="0" width="98" height="98" filterUnits="userSpaceOnUse">
      <feOffset dy="3" input="SourceAlpha"/>
      <feGaussianBlur stdDeviation="3" result="blur"/>
      <feFlood flood-opacity="0.161"/>
      <feComposite operator="in" in2="blur"/>
      <feComposite in="SourceGraphic"/>
    </filter>
  </defs>
  <g id="Grupo_1149898" data-name="Grupo 1149898" transform="translate(-612 -4559)">
    <g id="Grupo_1149695" data-name="Grupo 1149695" transform="translate(411 4104)">
      <g id="Grupo_1149263" data-name="Grupo 1149263" transform="translate(210 461)">
        <g transform="matrix(1, 0, 0, 1, -9, -6)" filter="url(#Trazado_982548)">
          <g id="Trazado_982548-2" data-name="Trazado 982548" transform="translate(9 6)" fill="#f6f9fc">
            <path d="M 40 78.5 C 34.80187606811523 78.5 29.76003265380859 77.48227691650391 25.01452255249023 75.47509765625 C 20.43014526367188 73.53606414794922 16.31264495849609 70.75986480712891 12.77638912200928 67.22360992431641 C 9.240133285522461 63.68735504150391 6.46393346786499 59.56985473632812 4.524899959564209 54.98547744750977 C 2.517722129821777 50.23996734619141 1.5 45.19812393188477 1.5 40 C 1.5 34.80187606811523 2.517722129821777 29.76003265380859 4.524899959564209 25.01452255249023 C 6.46393346786499 20.43014526367188 9.240133285522461 16.31264495849609 12.77638912200928 12.77638912200928 C 16.31264495849609 9.240133285522461 20.43014526367188 6.46393346786499 25.01452255249023 4.524899959564209 C 29.76003265380859 2.517722129821777 34.80187606811523 1.5 40 1.5 C 45.19812393188477 1.5 50.23996734619141 2.517722129821777 54.98547744750977 4.524899959564209 C 59.56985473632812 6.46393346786499 63.68735504150391 9.240133285522461 67.22360992431641 12.77638912200928 C 70.75986480712891 16.31264495849609 73.53606414794922 20.43014526367188 75.47509765625 25.01452255249023 C 77.48227691650391 29.76003265380859 78.5 34.80187606811523 78.5 40 C 78.5 45.19812393188477 77.48227691650391 50.23996734619141 75.47509765625 54.98547744750977 C 73.53606414794922 59.56985473632812 70.75986480712891 63.68735504150391 67.22360992431641 67.22360992431641 C 63.68735504150391 70.75986480712891 59.56985473632812 73.53606414794922 54.98547744750977 75.47509765625 C 50.23996734619141 77.48227691650391 45.19812393188477 78.5 40 78.5 Z" stroke="none"/>
            <path d="M 40 3 C 35.00370788574219 3 30.15846633911133 3.977851867675781 25.59885406494141 5.906410217285156 C 21.19326782226562 7.769813537597656 17.23602676391602 10.43806457519531 13.83704376220703 13.83705139160156 C 10.43806457519531 17.23603820800781 7.769813537597656 21.19327926635742 5.906410217285156 25.59885406494141 C 3.977851867675781 30.15846633911133 3 35.00370788574219 3 40 C 3 44.99629211425781 3.977851867675781 49.84153366088867 5.906410217285156 54.40114593505859 C 7.769813537597656 58.80672073364258 10.43806457519531 62.76396179199219 13.83704376220703 66.16294860839844 C 17.23602676391602 69.56193542480469 21.19326782226562 72.23018646240234 25.59885406494141 74.09358978271484 C 30.15846633911133 76.02214813232422 35.00370788574219 77 40 77 C 44.99629211425781 77 49.84153366088867 76.02214813232422 54.40114593505859 74.09358978271484 C 58.80672073364258 72.23018646240234 62.76396179199219 69.56193542480469 66.16294860839844 66.16294860839844 C 69.56193542480469 62.76396179199219 72.23018646240234 58.80672073364258 74.09358978271484 54.40114593505859 C 76.02214813232422 49.84153366088867 77 44.99629211425781 77 40 C 77 35.00370788574219 76.02214813232422 30.15846633911133 74.09358978271484 25.59885406494141 C 72.23018646240234 21.19327926635742 69.56193542480469 17.23603820800781 66.16294860839844 13.83705139160156 C 62.76396179199219 10.43806457519531 58.80672073364258 7.769813537597656 54.40114593505859 5.906410217285156 C 49.84153366088867 3.977851867675781 44.99629211425781 3 40 3 M 40 0 C 62.09138488769531 0 80 17.90861511230469 80 40 C 80 62.09138488769531 62.09138488769531 80 40 80 C 17.90859985351562 80 0 62.09138488769531 0 40 C 0 17.90861511230469 17.90859985351562 0 40 0 Z" stroke="none" fill="#15da7e"/>
          </g>
        </g>
      </g>
    </g>
    <g id="soporte-tecnico" transform="translate(631.501 4580)">
      <g id="Grupo_1149887" data-name="Grupo 1149887" transform="translate(15.431 0.744)">
        <path id="Trazado_985263" data-name="Trazado 985263" d="M137.875,10.759a16.155,16.155,0,0,1,4.285,1.772L143.4,11.3a1.523,1.523,0,0,1,2.145,0l3.586,3.575a1.521,1.521,0,0,1,0,2.14l-1.24,1.235a16.221,16.221,0,0,1,1.779,4.275h1.747a1.52,1.52,0,0,1,1.518,1.512v5.058a1.521,1.521,0,0,1-1.518,1.515h-1.747a16.162,16.162,0,0,1-1.779,4.272l1.24,1.237a1.521,1.521,0,0,1,0,2.14l-3.586,3.575a1.523,1.523,0,0,1-2.145,0L142.16,40.6a16.248,16.248,0,0,1-4.285,1.772v1.746a1.518,1.518,0,0,1-1.515,1.512h-5.069a1.52,1.52,0,0,1-1.518-1.512V42.368a16.232,16.232,0,0,1-4.282-1.772l-1.237,1.235a1.523,1.523,0,0,1-2.145,0l-3.586-3.575a1.515,1.515,0,0,1,0-2.14l1.237-1.235a16.306,16.306,0,0,1-1.776-4.275h-1.747a1.519,1.519,0,0,1-1.518-1.515V24.033a1.518,1.518,0,0,1,1.518-1.512h1.747a16.31,16.31,0,0,1,1.776-4.275l-1.237-1.234a1.515,1.515,0,0,1,0-2.14l3.586-3.575a1.523,1.523,0,0,1,2.145,0l1.237,1.235a16.269,16.269,0,0,1,4.282-1.772V9.013A1.52,1.52,0,0,1,131.291,7.5h5.069a1.518,1.518,0,0,1,1.515,1.512Z" transform="translate(-114.719 -7.501)" fill="#737a93" fill-rule="evenodd"/>
      </g>
      <g id="Grupo_1149888" data-name="Grupo 1149888" transform="translate(33.641 0.744)">
        <path id="Trazado_985264" data-name="Trazado 985264" d="M314.521,14.871,310.935,11.3a1.523,1.523,0,0,0-2.145,0l-1.237,1.235a16.155,16.155,0,0,0-4.285-1.772V9.013A1.518,1.518,0,0,0,301.753,7.5h-3.431a39.775,39.775,0,0,1,2.538,6.876,12.292,12.292,0,0,1,1.04,24.188c-.146.034-.295.063-.441.091a43.6,43.6,0,0,1-2.094,6.97h2.389a1.518,1.518,0,0,0,1.515-1.512V42.368a16.251,16.251,0,0,0,4.285-1.772l1.237,1.235a1.524,1.524,0,0,0,2.145,0l3.586-3.575a1.521,1.521,0,0,0,0-2.14l-1.24-1.237a16.162,16.162,0,0,0,1.779-4.272h1.747a1.521,1.521,0,0,0,1.518-1.515V24.033a1.52,1.52,0,0,0-1.518-1.512H315.06a16.221,16.221,0,0,0-1.779-4.275l1.24-1.235a1.521,1.521,0,0,0,0-2.141Z" transform="translate(-298.322 -7.501)" fill="#606b82" fill-rule="evenodd"/>
      </g>
      <g id="Grupo_1149889" data-name="Grupo 1149889" transform="translate(22.216 7.511)">
        <path id="Trazado_985265" data-name="Trazado 985265" d="M195.45,100.319a12.294,12.294,0,1,0-12.321-12.294A12.331,12.331,0,0,0,195.45,100.319Z" transform="translate(-183.129 -75.731)" fill="#fe636e" fill-rule="evenodd"/>
      </g>
      <g id="Grupo_1149890" data-name="Grupo 1149890" transform="translate(27.225 13.056)">
        <path id="Trazado_985266" data-name="Trazado 985266" d="M243.629,144.532a7.043,7.043,0,0,0,1.529-12.454c-1.962-1.337-1.584.774-1.584,1.129v4.241a2.632,2.632,0,1,1-5.253,0v-4.241c0-.354.378-2.466-1.584-1.129a7.043,7.043,0,0,0,1.529,12.454v5.858a12.472,12.472,0,0,0,5.362,0Z" transform="translate(-233.636 -131.639)" fill="#c1eaf4" fill-rule="evenodd"/>
      </g>
      <g id="Grupo_1149891" data-name="Grupo 1149891" transform="translate(35.479 13.058)">
        <path id="Trazado_985267" data-name="Trazado 985267" d="M318.595,150.407v-5.858a7.043,7.043,0,0,0,1.529-12.454,2.237,2.237,0,0,0-.962-.437,7.039,7.039,0,0,1-1.993,11.742c-.421.177-.295.674-.295,1.18v6.084a12.262,12.262,0,0,0,1.721-.257Z" transform="translate(-316.856 -131.658)" fill="#99cfe0" fill-rule="evenodd"/>
      </g>
      <g id="Grupo_1149892" data-name="Grupo 1149892" transform="translate(33.116 7.511)">
        <path id="Trazado_985268" data-name="Trazado 985268" d="M306.779,88.025a12.315,12.315,0,0,0-13.742-12.211,12.289,12.289,0,0,1,4.1,23.022v1.192A12.3,12.3,0,0,0,306.779,88.025Z" transform="translate(-293.037 -75.731)" fill="#f93e55" fill-rule="evenodd"/>
      </g>
      <g id="Grupo_1149893" data-name="Grupo 1149893" transform="translate(8.528 33.776)">
        <path id="Trazado_985269" data-name="Trazado 985269" d="M48.407,343.855,45.122,349l3.285,5.044,6.347,1.1,8.664,1.5a8.3,8.3,0,0,0,4.1-.18l15.764-4.7c2.752-.82,1.948-4.755-1.18-3.978l-1.618.377-8.429,1.966a5.548,5.548,0,0,1-1.524.131c-.7-.031-1.4-.157-2.185-.217l-5.625-.937a1.582,1.582,0,1,1,.332-3.146h1.79c4,0,3.915-4.824.4-5.4H62.914c-.833,0-1.59.023-2.354.091A28.814,28.814,0,0,0,54.436,342l-3.829,1.18Z" transform="translate(-45.122 -340.554)" fill="#ffe5c1" fill-rule="evenodd"/>
      </g>
      <g id="Grupo_1149894" data-name="Grupo 1149894" transform="translate(5.243 35.828)">
        <path id="Trazado_985270" data-name="Trazado 985270" d="M12,362.379V372.9a1.139,1.139,0,0,0,1.137,1.129h4.3a1.139,1.139,0,0,0,1.137-1.137V362.378a1.139,1.139,0,0,0-1.137-1.137h-4.3A1.139,1.139,0,0,0,12,362.37Z" transform="translate(-12 -361.241)" fill="#6bd9e7" fill-rule="evenodd"/>
      </g>
      <g id="Grupo_1149895" data-name="Grupo 1149895" transform="translate(11.813 41.621)">
        <path id="Trazado_985271" data-name="Trazado 985271" d="M78.245,421.936v3.355l6.347,1.1,8.664,1.5a8.3,8.3,0,0,0,4.1-.18l15.764-4.7a2.114,2.114,0,0,0,1.229-3.361,2.348,2.348,0,0,1-1.229.769l-2.8.774-9.039,2.895-4.474,1.234a6.228,6.228,0,0,1-3.74-.274c-5-.974-9.824-2.132-14.827-3.109Z" transform="translate(-78.245 -419.647)" fill="#fed1a3" fill-rule="evenodd"/>
      </g>
      <g id="Grupo_1149896" data-name="Grupo 1149896" transform="translate(5.243 43.91)">
        <path id="Trazado_985272" data-name="Trazado 985272" d="M18.57,446.081v-3.355a1.139,1.139,0,0,1-1.137,1.137h-4.3A1.139,1.139,0,0,1,12,442.735V446.3a1.139,1.139,0,0,0,1.137,1.129h4.3a1.139,1.139,0,0,0,1.137-1.137v-.211Z" transform="translate(-12 -442.726)" fill="#00c7dd" fill-rule="evenodd"/>
      </g>
      <g id="Grupo_1149897" data-name="Grupo 1149897" transform="translate(4.499)">
        <path id="Trazado_985273" data-name="Trazado 985273" d="M188.693,68.23a13.026,13.026,0,0,0-5.49,1.2.744.744,0,1,0,.623,1.351A11.559,11.559,0,1,1,192.118,92.3V87.911a7.785,7.785,0,0,0,1.2-13.568c-.316-.215-1.276-.87-2.083-.4-.789.455-.665,2.124-.664,2.148v4.241a1.89,1.89,0,1,1-3.765,0V76.09c0-.028.125-1.7-.664-2.151-.806-.465-1.767.19-2.082.4a7.784,7.784,0,0,0,1.2,13.568V92.3a11.54,11.54,0,0,1-4.205-19.722.744.744,0,0,0-.979-1.12,13.069,13.069,0,1,0,8.609-3.233Zm-1.937,24.428V87.412a.744.744,0,0,0-.486-.7A6.3,6.3,0,0,1,184.9,75.573a2.733,2.733,0,0,1,.444-.255l-.023,5.011a3.564,3.564,0,0,0,3.321,3.546.778.778,0,0,0,.1,0,3.564,3.564,0,0,0,3.321-3.546l-.023-5.011a2.75,2.75,0,0,1,.444.256,6.3,6.3,0,0,1-1.369,11.141.744.744,0,0,0-.486.7v5.246a11.621,11.621,0,0,1-3.874,0Z" transform="translate(-158.655 -61.463)"/>
        <path id="Trazado_985274" data-name="Trazado 985274" d="M52.126,15.021h-1.18a16.879,16.879,0,0,0-1.417-3.407l.838-.834a2.263,2.263,0,0,0,0-3.192L46.78,4.012a2.268,2.268,0,0,0-3.2,0l-.835.834a16.932,16.932,0,0,0-3.417-1.413V2.256A2.26,2.26,0,0,0,37.071,0H32a2.261,2.261,0,0,0-2.261,2.255V3.434a17,17,0,0,0-3.414,1.412l-.836-.834a2.266,2.266,0,0,0-3.2,0L18.709,7.588a2.26,2.26,0,0,0,0,3.194l.835.832a17.039,17.039,0,0,0-1.415,3.407H16.949a2.261,2.261,0,0,0-2.262,2.255v5.058a2.263,2.263,0,0,0,2.262,2.258h1.179A17.038,17.038,0,0,0,19.544,28l-.835.833a2.261,2.261,0,0,0,0,3.194l1.705,1.7c-.817.2-1.73.456-2.79.783L12.359,36.13a1.881,1.881,0,0,0-1.683-1.046H6.38A1.883,1.883,0,0,0,4.5,36.966V47.476A1.883,1.883,0,0,0,6.38,49.358h4.3a1.882,1.882,0,0,0,1.762-1.23l4.61.8a.8.8,0,0,0,.128.011.744.744,0,0,0,.126-1.477l-4.745-.822V37.627l5.5-1.7c1.439-.442,2.591-.751,3.6-.963.661-.139,1.259-.237,1.835-.3.307-.037.609-.064.909-.085.621-.044,1.242-.058,1.915-.058h2.264a2.173,2.173,0,0,1,1.937,2.245A1.673,1.673,0,0,1,29.834,38a2.615,2.615,0,0,1-1.581.438H26.488a2.316,2.316,0,0,0-2.5,1.968,2.359,2.359,0,0,0,1.972,2.646l.049.01L31.633,44,31.7,44c.333.025.656.063.967.1a8.033,8.033,0,0,0,2.969-.033l10.046-2.344.011,0c1.149-.286,1.728.237,1.888.822a1.4,1.4,0,0,1-1.1,1.721l-15.763,4.7a7.558,7.558,0,0,1-3.727.168l-.038-.007-6.022-1.043a.744.744,0,0,0-.254,1.466l6,1.039a8.428,8.428,0,0,0,1.814.188,9.3,9.3,0,0,0,2.648-.385l15.763-4.7a2.9,2.9,0,0,0,2.11-3.538,2.84,2.84,0,0,0-3.676-1.877L35.3,42.623a6.756,6.756,0,0,1-2.454,0c-.317-.038-.645-.076-1-.1L26.279,41.6c-.585-.146-.892-.506-.821-.967a.839.839,0,0,1,.95-.708l.055,0h1.79a4.078,4.078,0,0,0,2.453-.719,2.241,2.241,0,0,0,1.3.41h5.069a2.26,2.26,0,0,0,2.259-2.255V36.18a17.049,17.049,0,0,0,3.417-1.413l.836.834a2.266,2.266,0,0,0,3.2,0l3.586-3.577a2.263,2.263,0,0,0,0-3.192L49.528,28a16.877,16.877,0,0,0,1.417-3.4h1.18a2.263,2.263,0,0,0,2.261-2.258V17.276a2.261,2.261,0,0,0-2.261-2.256ZM10.676,47.87H6.38a.4.4,0,0,1-.393-.394V36.966a.4.4,0,0,1,.393-.393h4.3a.394.394,0,0,1,.393.393v.1c0,.007,0,.015,0,.023v10.39A.394.394,0,0,1,10.676,47.87ZM52.9,22.334a.773.773,0,0,1-.774.771H50.378a.744.744,0,0,0-.72.559,15.425,15.425,0,0,1-1.7,4.076.744.744,0,0,0,.113.908l1.239,1.236a.774.774,0,0,1,0,1.089l-3.586,3.575a.775.775,0,0,1-1.094,0L43.4,33.313a.746.746,0,0,0-.906-.114A15.487,15.487,0,0,1,38.4,34.89a.744.744,0,0,0-.56.721v1.746a.77.77,0,0,1-.772.768H32a.753.753,0,0,1-.323-.071A3.211,3.211,0,0,0,32,36.885a3.639,3.639,0,0,0-3.235-3.842.7.7,0,0,0-.12-.01H26.32a22.527,22.527,0,0,0-4.17.323l-2.39-2.383a.771.771,0,0,1,0-1.087L21,28.65a.743.743,0,0,0,.114-.907,15.565,15.565,0,0,1-1.694-4.079.744.744,0,0,0-.721-.559H16.949a.774.774,0,0,1-.775-.771V17.276a.772.772,0,0,1,.775-.768H18.7a.744.744,0,0,0,.721-.559,15.554,15.554,0,0,1,1.694-4.08A.743.743,0,0,0,21,10.962L19.76,9.728a.771.771,0,0,1,0-1.087l3.585-3.576a.776.776,0,0,1,1.094,0L25.677,6.3a.743.743,0,0,0,.9.113,15.557,15.557,0,0,1,4.086-1.691.744.744,0,0,0,.56-.72V2.255A.771.771,0,0,1,32,1.488h5.069a.77.77,0,0,1,.772.768V4a.744.744,0,0,0,.561.721,15.413,15.413,0,0,1,4.087,1.69A.744.744,0,0,0,43.4,6.3l1.237-1.235a.778.778,0,0,1,1.095,0l3.584,3.574a.773.773,0,0,1,0,1.088l-1.24,1.235a.743.743,0,0,0-.114.908,15.489,15.489,0,0,1,1.7,4.079.744.744,0,0,0,.72.559h1.748a.771.771,0,0,1,.774.768Z" transform="translate(-4.499)"/>
      </g>
    </g>
  </g>
</svg>
