<svg xmlns="http://www.w3.org/2000/svg" xmlns:xlink="http://www.w3.org/1999/xlink" width="98" height="98" viewBox="0 0 98 98">
  <defs>
    <filter id="Trazado_982548" x="0" y="0" width="98" height="98" filterUnits="userSpaceOnUse">
      <feOffset dy="3" input="SourceAlpha"/>
      <feGaussianBlur stdDeviation="3" result="blur"/>
      <feFlood flood-opacity="0.161"/>
      <feComposite operator="in" in2="blur"/>
      <feComposite in="SourceGraphic"/>
    </filter>
  </defs>
  <g id="Grupo_1149914" data-name="Grupo 1149914" transform="translate(-1031.5 -4559)">
    <g id="Grupo_1149696" data-name="Grupo 1149696" transform="translate(830.5 4104)">
      <g id="Grupo_1149263" data-name="Grupo 1149263" transform="translate(210 461)">
        <g transform="matrix(1, 0, 0, 1, -9, -6)" filter="url(#Trazado_982548)">
          <g id="Trazado_982548-2" data-name="Trazado 982548" transform="translate(9 6)" fill="#f6f9fc">
            <path d="M 40 78.5 C 34.80187606811523 78.5 29.76003265380859 77.48227691650391 25.01452255249023 75.47509765625 C 20.43014526367188 73.53606414794922 16.31264495849609 70.75986480712891 12.77638912200928 67.22360992431641 C 9.240133285522461 63.68735504150391 6.46393346786499 59.56985473632812 4.524899959564209 54.98547744750977 C 2.517722129821777 50.23996734619141 1.5 45.19812393188477 1.5 40 C 1.5 34.80187606811523 2.517722129821777 29.76003265380859 4.524899959564209 25.01452255249023 C 6.46393346786499 20.43014526367188 9.240133285522461 16.31264495849609 12.77638912200928 12.77638912200928 C 16.31264495849609 9.240133285522461 20.43014526367188 6.46393346786499 25.01452255249023 4.524899959564209 C 29.76003265380859 2.517722129821777 34.80187606811523 1.5 40 1.5 C 45.19812393188477 1.5 50.23996734619141 2.517722129821777 54.98547744750977 4.524899959564209 C 59.56985473632812 6.46393346786499 63.68735504150391 9.240133285522461 67.22360992431641 12.77638912200928 C 70.75986480712891 16.31264495849609 73.53606414794922 20.43014526367188 75.47509765625 25.01452255249023 C 77.48227691650391 29.76003265380859 78.5 34.80187606811523 78.5 40 C 78.5 45.19812393188477 77.48227691650391 50.23996734619141 75.47509765625 54.98547744750977 C 73.53606414794922 59.56985473632812 70.75986480712891 63.68735504150391 67.22360992431641 67.22360992431641 C 63.68735504150391 70.75986480712891 59.56985473632812 73.53606414794922 54.98547744750977 75.47509765625 C 50.23996734619141 77.48227691650391 45.19812393188477 78.5 40 78.5 Z" stroke="none"/>
            <path d="M 40 3 C 35.00370788574219 3 30.15846633911133 3.977851867675781 25.59885406494141 5.906410217285156 C 21.19326782226562 7.769813537597656 17.23602676391602 10.43806457519531 13.83704376220703 13.83705139160156 C 10.43806457519531 17.23603820800781 7.769813537597656 21.19327926635742 5.906410217285156 25.59885406494141 C 3.977851867675781 30.15846633911133 3 35.00370788574219 3 40 C 3 44.99629211425781 3.977851867675781 49.84153366088867 5.906410217285156 54.40114593505859 C 7.769813537597656 58.80672073364258 10.43806457519531 62.76396179199219 13.83704376220703 66.16294860839844 C 17.23602676391602 69.56193542480469 21.19326782226562 72.23018646240234 25.59885406494141 74.09358978271484 C 30.15846633911133 76.02214813232422 35.00370788574219 77 40 77 C 44.99629211425781 77 49.84153366088867 76.02214813232422 54.40114593505859 74.09358978271484 C 58.80672073364258 72.23018646240234 62.76396179199219 69.56193542480469 66.16294860839844 66.16294860839844 C 69.56193542480469 62.76396179199219 72.23018646240234 58.80672073364258 74.09358978271484 54.40114593505859 C 76.02214813232422 49.84153366088867 77 44.99629211425781 77 40 C 77 35.00370788574219 76.02214813232422 30.15846633911133 74.09358978271484 25.59885406494141 C 72.23018646240234 21.19327926635742 69.56193542480469 17.23603820800781 66.16294860839844 13.83705139160156 C 62.76396179199219 10.43806457519531 58.80672073364258 7.769813537597656 54.40114593505859 5.906410217285156 C 49.84153366088867 3.977851867675781 44.99629211425781 3 40 3 M 40 0 C 62.09138488769531 0 80 17.90861511230469 80 40 C 80 62.09138488769531 62.09138488769531 80 40 80 C 17.90859985351562 80 0 62.09138488769531 0 40 C 0 17.90861511230469 17.90859985351562 0 40 0 Z" stroke="none" fill="#15da7e"/>
          </g>
        </g>
      </g>
    </g>
    <g id="cuantitativo" transform="translate(1055.158 4579.658)">
      <g id="Grupo_1149912" data-name="Grupo 1149912" transform="translate(0.817 0.817)">
        <g id="Grupo_1149899" data-name="Grupo 1149899" transform="translate(11.445 33.966)">
          <path id="Trazado_985275" data-name="Trazado 985275" d="M21.54,42.55v3.638H15V42.55a14.717,14.717,0,0,0,6.54,0Z" transform="translate(-15 -42.55)" fill="#fcd770"/>
        </g>
        <g id="Grupo_1149900" data-name="Grupo 1149900" transform="translate(11.445 37.604)">
          <path id="Trazado_985276" data-name="Trazado 985276" d="M21.54,47v9.81A1.64,1.64,0,0,1,19.9,58.445h-3.27A1.64,1.64,0,0,1,15,56.81V47Z" transform="translate(-15 -47)" fill="#d3a06c"/>
        </g>
        <g id="Grupo_1149901" data-name="Grupo 1149901" transform="translate(0 4.905)">
          <path id="Trazado_985277" data-name="Trazado 985277" d="M16.123,7.008a14.5,14.5,0,0,1,7.218,2.125l.008.016a4.932,4.932,0,0,0-2.322,2.428,11.432,11.432,0,1,0,5.616,6.736,4.924,4.924,0,0,0,2.82-1.856,14.778,14.778,0,0,1,.965,5.256,15.41,15.41,0,0,1-.09,1.635A14.76,14.76,0,0,1,18.984,36.061a14.717,14.717,0,0,1-6.54,0A14.714,14.714,0,0,1,15.714,7C15.853,7,15.984,7,16.123,7.008Z" transform="translate(-1 -7)" fill="#d3a06c"/>
        </g>
        <g id="Grupo_1149902" data-name="Grupo 1149902" transform="translate(3.27 8.175)">
          <path id="Trazado_985278" data-name="Trazado 985278" d="M17.466,20.548a3.263,3.263,0,1,0,.613,1.9A3.245,3.245,0,0,0,17.466,20.548Zm4.8-3.425a4.9,4.9,0,0,0,3.989,2.052,4.615,4.615,0,0,0,1.12-.131,11.447,11.447,0,1,1-5.616-6.736,4.9,4.9,0,0,0-.409,1.962A4.848,4.848,0,0,0,22.265,17.123Z" transform="translate(-5 -11)" fill="#4fc1e9"/>
        </g>
        <g id="Grupo_1149903" data-name="Grupo 1149903" transform="translate(15.123)">
          <path id="Trazado_985279" data-name="Trazado 985279" d="M33.479,14.2a4.831,4.831,0,0,0,.327-1.758,4.909,4.909,0,0,0-4.9-4.9,4.737,4.737,0,0,0-2.174.515l-.008-.016A14.5,14.5,0,0,0,19.5,5.913a11.43,11.43,0,0,1,17.24-1.79A7.347,7.347,0,0,1,48.52,9.992a7.729,7.729,0,0,1-.057.875,5.719,5.719,0,0,1-.76,11.387H33.716a15.411,15.411,0,0,0,.09-1.635,14.778,14.778,0,0,0-.965-5.256A4.715,4.715,0,0,0,33.479,14.2Zm7.243.188a2.452,2.452,0,1,0,1.259,2.142,2.448,2.448,0,0,0-1.259-2.142Zm2.1-3.785a1.635,1.635,0,1,0-.842-1.431A1.654,1.654,0,0,0,42.822,10.605Z" transform="translate(-19.5 -1)" fill="#4fc1e9"/>
        </g>
        <g id="Grupo_1149904" data-name="Grupo 1149904" transform="translate(9.81 16.349)">
          <path id="Trazado_985280" data-name="Trazado 985280" d="M18.927,22.373A3.265,3.265,0,1,1,16.27,21,3.262,3.262,0,0,1,18.927,22.373Z" transform="translate(-13 -21)" fill="#ef7385"/>
        </g>
        <g id="Grupo_1149905" data-name="Grupo 1149905" transform="translate(37.604 6.54)">
          <path id="Trazado_985281" data-name="Trazado 985281" d="M48.635,9A1.635,1.635,0,1,1,47,10.635,1.64,1.64,0,0,1,48.635,9Z" transform="translate(-47 -9)" fill="#ef7385"/>
        </g>
        <g id="Grupo_1149906" data-name="Grupo 1149906" transform="translate(32.699 13.08)">
          <path id="Trazado_985282" data-name="Trazado 985282" d="M44.646,17.311A2.452,2.452,0,1,1,43.452,17,2.442,2.442,0,0,1,44.646,17.311Z" transform="translate(-41 -17)" fill="#ef7385"/>
        </g>
        <g id="Grupo_1149907" data-name="Grupo 1149907" transform="translate(19.619 6.54)">
          <path id="Trazado_985283" data-name="Trazado 985283" d="M34.81,13.9a4.831,4.831,0,0,1-.327,1.758,4.715,4.715,0,0,1-.638,1.161,4.924,4.924,0,0,1-2.82,1.856,4.615,4.615,0,0,1-1.12.131,4.9,4.9,0,0,1-3.989-2.052A4.848,4.848,0,0,1,25,13.9a4.885,4.885,0,0,1,2.73-4.39A4.737,4.737,0,0,1,29.9,9,4.909,4.909,0,0,1,34.81,13.9Z" transform="translate(-25 -9)" fill="#ef7385"/>
        </g>
        <g id="Grupo_1149908" data-name="Grupo 1149908" transform="translate(24.516 19.538)">
          <path id="Trazado_985284" data-name="Trazado 985284" d="M53.887,24.9V51.958a.82.82,0,0,1-.817.817H31.816A.82.82,0,0,1,31,51.958V35.952l-.008-.008a14.61,14.61,0,0,0,4.823-9.327H49.8A5.69,5.69,0,0,0,53.887,24.9ZM37.538,49.506v-6.54h-3.27v6.54Zm6.54,0V39.7h-3.27v9.81Zm3.27,0h3.27V36.426h-3.27Z" transform="translate(-30.99 -24.9)" fill="#fcd770"/>
        </g>
        <g id="Grupo_1149909" data-name="Grupo 1149909" transform="translate(40.873 31.064)">
          <path id="Trazado_985285" data-name="Trazado 985285" d="M51,39h3.27V52.08H51Z" transform="translate(-51 -39)" fill="#b4dd7f"/>
        </g>
        <g id="Grupo_1149910" data-name="Grupo 1149910" transform="translate(34.334 34.334)">
          <path id="Trazado_985286" data-name="Trazado 985286" d="M43,43h3.27v9.81H43Z" transform="translate(-43 -43)" fill="#b4dd7f"/>
        </g>
        <g id="Grupo_1149911" data-name="Grupo 1149911" transform="translate(27.794 37.604)">
          <path id="Trazado_985287" data-name="Trazado 985287" d="M35,47h3.27v6.54H35Z" transform="translate(-35 -47)" fill="#b4dd7f"/>
        </g>
      </g>
      <g id="Grupo_1149913" data-name="Grupo 1149913">
        <path id="Trazado_985288" data-name="Trazado 985288" d="M50.683,16.349a6.556,6.556,0,0,0-4.908-6.327c0-.072,0-.143,0-.213A8.184,8.184,0,0,0,37.6,1.635,8.082,8.082,0,0,0,33.246,2.9a12.216,12.216,0,0,0-17.691,2h-.023a15.523,15.523,0,0,0-4.087,30.5V48.231A2.455,2.455,0,0,0,13.9,50.683h3.27a2.455,2.455,0,0,0,2.452-2.452V35.4a15.478,15.478,0,0,0,4.9-2.327V47.413a1.637,1.637,0,0,0,1.635,1.635H47.413a1.637,1.637,0,0,0,1.635-1.635V20.661a6.5,6.5,0,0,0,1.635-4.311ZM25.342,1.635a10.584,10.584,0,0,1,7.28,2.9l.5.473.55-.416a6.515,6.515,0,0,1,10.419,6l-.1.8.8.106a4.9,4.9,0,0,1-.652,9.761H31.022c.015-.272.042-.541.042-.817A15.465,15.465,0,0,0,30.18,15.3c.052-.081.1-.162.15-.246l2.406.925a3.221,3.221,0,0,0-.037.368,3.27,3.27,0,1,0,5.518-2.363L39.651,11.4a2.471,2.471,0,1,0-1.427-.8L36.786,13.2a3.22,3.22,0,0,0-.817-.116,3.263,3.263,0,0,0-2.654,1.373l-2.4-.922a5.711,5.711,0,0,0-7.693-6.58,15.463,15.463,0,0,0-5.665-1.91,10.631,10.631,0,0,1,7.782-3.406Zm.817,18.8a10.68,10.68,0,1,1-6.327-9.7,5.644,5.644,0,0,0,.43,4.149l-3.593,2.566a4.082,4.082,0,1,0,.956,1.326l3.589-2.564a5.7,5.7,0,0,0,4.128,1.77c.177,0,.351-.011.524-.026a10.662,10.662,0,0,1,.293,2.479Zm-9.81,0A2.452,2.452,0,1,1,13.9,17.984,2.455,2.455,0,0,1,16.349,20.437Zm8.992-4.087a4.087,4.087,0,1,1,4.087-4.087A4.092,4.092,0,0,1,25.342,16.349Zm12.262,0a1.635,1.635,0,1,1-1.635-1.635A1.637,1.637,0,0,1,37.6,16.349Zm1.635-7.357a.817.817,0,1,1,.817.817A.818.818,0,0,1,39.239,8.992ZM1.635,20.437A13.89,13.89,0,0,1,21.6,7.94a5.742,5.742,0,0,0-1.113,1.3,12.226,12.226,0,1,0,6.965,8.332,5.718,5.718,0,0,0,1.47-.858,13.9,13.9,0,1,1-27.29,3.72ZM17.167,49.048H13.9a.818.818,0,0,1-.817-.817V39.239h4.9v8.992A.818.818,0,0,1,17.167,49.048ZM17.984,37.6h-4.9V35.755a15.454,15.454,0,0,0,2.452.213,15.454,15.454,0,0,0,2.452-.213Zm8.175,9.81V31.733a15.488,15.488,0,0,0,4.691-8.843H44.143A6.491,6.491,0,0,0,47.413,22V47.413Z"/>
        <path id="Trazado_985289" data-name="Trazado 985289" d="M47.08,51.08H45.445V41.27h-4.9v9.81H38.9V44.54H34v8.175H51.984V38h-4.9Zm-9.81,0H35.635v-4.9H37.27Zm4.9-8.175H43.81V51.08H42.175Zm6.54-3.27h1.635V51.08H48.714Z" transform="translate(-6.206 -6.936)"/>
        <path id="Trazado_985290" data-name="Trazado 985290" d="M40,30h3.27v1.635H40Z" transform="translate(-7.301 -5.476)"/>
        <path id="Trazado_985291" data-name="Trazado 985291" d="M46,30h8.175v1.635H46Z" transform="translate(-8.396 -5.476)"/>
        <path id="Trazado_985292" data-name="Trazado 985292" d="M40,34h8.175v1.635H40Z" transform="translate(-7.301 -6.206)"/>
        <path id="Trazado_985293" data-name="Trazado 985293" d="M40,38h6.54v1.635H40Z" transform="translate(-7.301 -6.936)"/>
      </g>
    </g>
  </g>
</svg>
