<svg xmlns="http://www.w3.org/2000/svg" xmlns:xlink="http://www.w3.org/1999/xlink" width="98" height="98" viewBox="0 0 98 98">
  <defs>
    <filter id="Trazado_982548" x="0" y="0" width="98" height="98" filterUnits="userSpaceOnUse">
      <feOffset dy="3" input="SourceAlpha"/>
      <feGaussianBlur stdDeviation="3" result="blur"/>
      <feFlood flood-opacity="0.161"/>
      <feComposite operator="in" in2="blur"/>
      <feComposite in="SourceGraphic"/>
    </filter>
  </defs>
  <g id="Grupo_1149917" data-name="Grupo 1149917" transform="translate(-192 -4719)">
    <g id="Grupo_1149701" data-name="Grupo 1149701" transform="translate(-9 4264)">
      <g id="Grupo_1149263" data-name="Grupo 1149263" transform="translate(210 461)">
        <g transform="matrix(1, 0, 0, 1, -9, -6)" filter="url(#Trazado_982548)">
          <g id="Trazado_982548-2" data-name="Trazado 982548" transform="translate(9 6)" fill="#f6f9fc">
            <path d="M 40 78.5 C 34.80187606811523 78.5 29.76003265380859 77.48227691650391 25.01452255249023 75.47509765625 C 20.43014526367188 73.53606414794922 16.31264495849609 70.75986480712891 12.77638912200928 67.22360992431641 C 9.240133285522461 63.68735504150391 6.46393346786499 59.56985473632812 4.524899959564209 54.98547744750977 C 2.517722129821777 50.23996734619141 1.5 45.19812393188477 1.5 40 C 1.5 34.80187606811523 2.517722129821777 29.76003265380859 4.524899959564209 25.01452255249023 C 6.46393346786499 20.43014526367188 9.240133285522461 16.31264495849609 12.77638912200928 12.77638912200928 C 16.31264495849609 9.240133285522461 20.43014526367188 6.46393346786499 25.01452255249023 4.524899959564209 C 29.76003265380859 2.517722129821777 34.80187606811523 1.5 40 1.5 C 45.19812393188477 1.5 50.23996734619141 2.517722129821777 54.98547744750977 4.524899959564209 C 59.56985473632812 6.46393346786499 63.68735504150391 9.240133285522461 67.22360992431641 12.77638912200928 C 70.75986480712891 16.31264495849609 73.53606414794922 20.43014526367188 75.47509765625 25.01452255249023 C 77.48227691650391 29.76003265380859 78.5 34.80187606811523 78.5 40 C 78.5 45.19812393188477 77.48227691650391 50.23996734619141 75.47509765625 54.98547744750977 C 73.53606414794922 59.56985473632812 70.75986480712891 63.68735504150391 67.22360992431641 67.22360992431641 C 63.68735504150391 70.75986480712891 59.56985473632812 73.53606414794922 54.98547744750977 75.47509765625 C 50.23996734619141 77.48227691650391 45.19812393188477 78.5 40 78.5 Z" stroke="none"/>
            <path d="M 40 3 C 35.00370788574219 3 30.15846633911133 3.977851867675781 25.59885406494141 5.906410217285156 C 21.19326782226562 7.769813537597656 17.23602676391602 10.43806457519531 13.83704376220703 13.83705139160156 C 10.43806457519531 17.23603820800781 7.769813537597656 21.19327926635742 5.906410217285156 25.59885406494141 C 3.977851867675781 30.15846633911133 3 35.00370788574219 3 40 C 3 44.99629211425781 3.977851867675781 49.84153366088867 5.906410217285156 54.40114593505859 C 7.769813537597656 58.80672073364258 10.43806457519531 62.76396179199219 13.83704376220703 66.16294860839844 C 17.23602676391602 69.56193542480469 21.19326782226562 72.23018646240234 25.59885406494141 74.09358978271484 C 30.15846633911133 76.02214813232422 35.00370788574219 77 40 77 C 44.99629211425781 77 49.84153366088867 76.02214813232422 54.40114593505859 74.09358978271484 C 58.80672073364258 72.23018646240234 62.76396179199219 69.56193542480469 66.16294860839844 66.16294860839844 C 69.56193542480469 62.76396179199219 72.23018646240234 58.80672073364258 74.09358978271484 54.40114593505859 C 76.02214813232422 49.84153366088867 77 44.99629211425781 77 40 C 77 35.00370788574219 76.02214813232422 30.15846633911133 74.09358978271484 25.59885406494141 C 72.23018646240234 21.19327926635742 69.56193542480469 17.23603820800781 66.16294860839844 13.83705139160156 C 62.76396179199219 10.43806457519531 58.80672073364258 7.769813537597656 54.40114593505859 5.906410217285156 C 49.84153366088867 3.977851867675781 44.99629211425781 3 40 3 M 40 0 C 62.09138488769531 0 80 17.90861511230469 80 40 C 80 62.09138488769531 62.09138488769531 80 40 80 C 17.90859985351562 80 0 62.09138488769531 0 40 C 0 17.90861511230469 17.90859985351562 0 40 0 Z" stroke="none" fill="#15da7e"/>
          </g>
        </g>
      </g>
    </g>
    <g id="escoger" transform="translate(190 4738)">
      <g id="Grupo_1149915" data-name="Grupo 1149915" transform="translate(27.073 1.073)">
        <path id="Trazado_985294" data-name="Trazado 985294" d="M47.014,24.86a2.145,2.145,0,0,1-3.033,0L41.2,22.082a2.145,2.145,0,0,1,3.033-3.033L45.5,20.31l3.719-3.719a2.145,2.145,0,0,1,3.033,3.033Zm-.288,6.591a10.726,10.726,0,0,0,4.261-.883,2.514,2.514,0,0,1,2.434-2.121,2.343,2.343,0,0,1,.652.092,10.726,10.726,0,1,0-7.346,2.911Z" transform="translate(-36 -10)" fill="#cbe558" fill-rule="evenodd"/>
        <path id="Trazado_985295" data-name="Trazado 985295" d="M82.054,74.494a2.145,2.145,0,0,0,3.033,0l5.236-5.236a2.145,2.145,0,0,0-3.033-3.033L83.57,69.944l-1.261-1.261a2.145,2.145,0,0,0-3.033,3.033Z" transform="translate(-74.073 -59.633)" fill="#fff" fill-rule="evenodd"/>
        <path id="Trazado_985296" data-name="Trazado 985296" d="M328.367,65.4l1.517,1.517-1.517,1.517a2.145,2.145,0,0,0,3.034,3.034l1.517-1.517,1.517,1.517a2.145,2.145,0,1,0,3.034-3.034l-1.517-1.517,1.517-1.517a2.145,2.145,0,0,0-3.034-3.034l-1.517,1.517L331.4,62.366a2.145,2.145,0,0,0-3.034,3.034Z" transform="translate(-296.45 -56.191)" fill="#fff" fill-rule="evenodd"/>
        <path id="Trazado_985297" data-name="Trazado 985297" d="M283.693,20.726l-1.517-1.517a2.145,2.145,0,0,1,3.034-3.034l1.517,1.517,1.517-1.517a2.145,2.145,0,0,1,3.034,3.034l-1.517,1.517,1.517,1.517a2.145,2.145,0,1,1-3.034,3.034l-1.517-1.517-1.517,1.517a2.145,2.145,0,1,1-3.034-3.034Zm13.76,0a10.726,10.726,0,1,0-10.726,10.726A10.726,10.726,0,0,0,297.453,20.726Z" transform="translate(-250.259 -10)" fill="#ff5d7d" fill-rule="evenodd"/>
        <path id="Trazado_985298" data-name="Trazado 985298" d="M145.893,198.63c-1.293.529-2.014.749-2.668,2.1-.614,1.27-1.182,3.9-.676,5.259,1.982,5.309,4.985,5.062,5.029,10.333h15.593c.015-2.964,2.508-7.614,2.508-10.578v-7.256c0-3.7-3.979-4.7-5.169-3.463h0a3.376,3.376,0,0,0-4.752-1.43h0c-.966-1.958-4.013-2.186-4.737-.881l-.177-8.137a2.617,2.617,0,0,0-1.821-2.488,2.339,2.339,0,0,0-.652-.092,2.514,2.514,0,0,0-2.434,2.121,2.677,2.677,0,0,0-.039.459Z" transform="translate(-130.946 -163.554)" fill="#ffdcd5" fill-rule="evenodd"/>
      </g>
      <g id="Grupo_1149916" data-name="Grupo 1149916" transform="translate(26)">
        <path id="Trazado_985299" data-name="Trazado 985299" d="M59.815,31.321A4.279,4.279,0,0,0,57,31.127a4.325,4.325,0,0,0-1.405-1.08,4.572,4.572,0,0,0-3.371-.3A4.32,4.32,0,0,0,50.09,28.5a4.41,4.41,0,0,0-1.914-.082l-.138-6.337a3.773,3.773,0,0,0-1.194-2.707A11.8,11.8,0,0,0,33.958.64a1.073,1.073,0,0,0,.7,2.028A9.654,9.654,0,0,1,44.782,18.462c-.1-.008-.192-.013-.289-.013a3.559,3.559,0,0,0-3.329,2.4,9.656,9.656,0,0,1-12.5-12.187,1.073,1.073,0,0,0-2.028-.7A11.8,11.8,0,0,0,40.947,23.17V35.429a4.324,4.324,0,0,0-2.562,2.358c-.708,1.465-1.35,4.4-.715,6.1a15.828,15.828,0,0,0,2.966,4.933,6.642,6.642,0,0,1,2,5.033A1.073,1.073,0,0,0,43.7,54.917H59.3a1.073,1.073,0,0,0,1.073-1.067,19.033,19.033,0,0,1,1.2-4.938,20.063,20.063,0,0,0,1.309-5.646V36.01a4.862,4.862,0,0,0-3.063-4.69Zm.918,11.945a18.887,18.887,0,0,1-1.2,4.976,27.916,27.916,0,0,0-1.223,4.529H44.725a8.676,8.676,0,0,0-2.433-5.316,13.61,13.61,0,0,1-2.612-4.319,7.638,7.638,0,0,1,.637-4.417,2.319,2.319,0,0,1,.63-.865v3.229a1.073,1.073,0,0,0,2.145,0V22.1a1.459,1.459,0,0,1,1.4-1.507,1.5,1.5,0,0,1,1.4,1.53L46.141,33.5a1.073,1.073,0,0,0,2.145-.047l-.061-2.814a1.939,1.939,0,0,1,1.328-.063,1.9,1.9,0,0,1,1.55,1.873,1.073,1.073,0,0,0,2.145,0,4.216,4.216,0,0,0-.063-.728,2.632,2.632,0,0,1,1.464.255,1.885,1.885,0,0,1,1.137,1.715,1.073,1.073,0,1,0,2.145,0,4.1,4.1,0,0,0-.039-.564,2.466,2.466,0,0,1,1.12.186,2.739,2.739,0,0,1,1.72,2.7v7.256Z" transform="translate(-26)"/>
        <path id="Trazado_985300" data-name="Trazado 985300" d="M277.8,0a11.8,11.8,0,1,0,11.8,11.8A11.812,11.812,0,0,0,277.8,0Zm0,21.452a9.653,9.653,0,1,1,9.653-9.653A9.664,9.664,0,0,1,277.8,21.452Z" transform="translate(-240.26)"/>
        <path id="Trazado_985301" data-name="Trazado 985301" d="M328.531,57.979l.758-.758a3.218,3.218,0,0,0-4.551-4.551l-.758.758-.758-.758a3.218,3.218,0,1,0-4.551,4.551l.758.758-.758.758a3.218,3.218,0,0,0,4.551,4.551l.758-.758.758.758a3.218,3.218,0,0,0,4.551-4.551Zm-.758,3.792a1.074,1.074,0,0,1-1.517,0l-1.517-1.517a1.073,1.073,0,0,0-1.517,0l-1.517,1.517a1.073,1.073,0,0,1-1.517-1.517l1.517-1.517a1.073,1.073,0,0,0,0-1.517L320.188,55.7a1.073,1.073,0,0,1,1.517-1.517l1.517,1.517a1.073,1.073,0,0,0,1.517,0l1.517-1.517a1.073,1.073,0,0,1,1.517,1.517l-1.517,1.517a1.073,1.073,0,0,0,0,1.517l1.517,1.517A1.074,1.074,0,0,1,327.773,61.771Z" transform="translate(-286.44 -46.181)"/>
        <path id="Trazado_985302" data-name="Trazado 985302" d="M69.6,63.547l2.778,2.778a3.218,3.218,0,0,0,4.55,0l5.236-5.236a3.218,3.218,0,0,0-4.55-4.55l-2.96,2.96-.5-.5a3.218,3.218,0,0,0-4.55,4.55Zm1.517-3.033a1.073,1.073,0,0,1,1.517,0L73.9,61.775a1.073,1.073,0,0,0,1.517,0l3.719-3.719a1.072,1.072,0,0,1,1.516,1.517l-5.236,5.236a1.072,1.072,0,0,1-1.516,0L71.118,62.03A1.074,1.074,0,0,1,71.118,60.514Z" transform="translate(-64.084 -49.634)"/>
        <path id="Trazado_985303" data-name="Trazado 985303" d="M56.358,31.435a1.073,1.073,0,1,0-.793-1.794h0a1.072,1.072,0,0,0,.794,1.794Z" transform="translate(-52.144 -26.148)"/>
      </g>
    </g>
  </g>
</svg>
