<svg xmlns="http://www.w3.org/2000/svg" xmlns:xlink="http://www.w3.org/1999/xlink" width="98" height="98" viewBox="0 0 98 98">
  <defs>
    <filter id="Trazado_982548" x="0" y="0" width="98" height="98" filterUnits="userSpaceOnUse">
      <feOffset dy="3" input="SourceAlpha"/>
      <feGaussianBlur stdDeviation="3" result="blur"/>
      <feFlood flood-opacity="0.161"/>
      <feComposite operator="in" in2="blur"/>
      <feComposite in="SourceGraphic"/>
    </filter>
  </defs>
  <g id="Grupo_1149923" data-name="Grupo 1149923" transform="translate(-612 -4719)">
    <g id="Grupo_1149700" data-name="Grupo 1149700" transform="translate(621 4725)">
      <g id="Grupo_1149263" data-name="Grupo 1149263" transform="translate(0 0)">
        <g transform="matrix(1, 0, 0, 1, -9, -6)" filter="url(#Trazado_982548)">
          <g id="Trazado_982548-2" data-name="Trazado 982548" transform="translate(9 6)" fill="#f6f9fc">
            <path d="M 40 78.5 C 34.80187606811523 78.5 29.76003265380859 77.48227691650391 25.01452255249023 75.47509765625 C 20.43014526367188 73.53606414794922 16.31264495849609 70.75986480712891 12.77638912200928 67.22360992431641 C 9.240133285522461 63.68735504150391 6.46393346786499 59.56985473632812 4.524899959564209 54.98547744750977 C 2.517722129821777 50.23996734619141 1.5 45.19812393188477 1.5 40 C 1.5 34.80187606811523 2.517722129821777 29.76003265380859 4.524899959564209 25.01452255249023 C 6.46393346786499 20.43014526367188 9.240133285522461 16.31264495849609 12.77638912200928 12.77638912200928 C 16.31264495849609 9.240133285522461 20.43014526367188 6.46393346786499 25.01452255249023 4.524899959564209 C 29.76003265380859 2.517722129821777 34.80187606811523 1.5 40 1.5 C 45.19812393188477 1.5 50.23996734619141 2.517722129821777 54.98547744750977 4.524899959564209 C 59.56985473632812 6.46393346786499 63.68735504150391 9.240133285522461 67.22360992431641 12.77638912200928 C 70.75986480712891 16.31264495849609 73.53606414794922 20.43014526367188 75.47509765625 25.01452255249023 C 77.48227691650391 29.76003265380859 78.5 34.80187606811523 78.5 40 C 78.5 45.19812393188477 77.48227691650391 50.23996734619141 75.47509765625 54.98547744750977 C 73.53606414794922 59.56985473632812 70.75986480712891 63.68735504150391 67.22360992431641 67.22360992431641 C 63.68735504150391 70.75986480712891 59.56985473632812 73.53606414794922 54.98547744750977 75.47509765625 C 50.23996734619141 77.48227691650391 45.19812393188477 78.5 40 78.5 Z" stroke="none"/>
            <path d="M 40 3 C 35.00370788574219 3 30.15846633911133 3.977851867675781 25.59885406494141 5.906410217285156 C 21.19327926635742 7.769813537597656 17.23603820800781 10.43806457519531 13.83705139160156 13.83705139160156 C 10.43806457519531 17.23603820800781 7.769813537597656 21.19327926635742 5.906410217285156 25.59885406494141 C 3.977851867675781 30.15846633911133 3 35.00370788574219 3 40 C 3 44.99629211425781 3.977851867675781 49.84153366088867 5.906410217285156 54.40114593505859 C 7.769813537597656 58.80672073364258 10.43806457519531 62.76396179199219 13.83705139160156 66.16294860839844 C 17.23603820800781 69.56193542480469 21.19327926635742 72.23018646240234 25.59885406494141 74.09358978271484 C 30.15846633911133 76.02214813232422 35.00370788574219 77 40 77 C 44.99629211425781 77 49.84153366088867 76.02214813232422 54.40114593505859 74.09358978271484 C 58.80672073364258 72.23018646240234 62.76396179199219 69.56193542480469 66.16294860839844 66.16294860839844 C 69.56193542480469 62.76396179199219 72.23018646240234 58.80672073364258 74.09358978271484 54.40114593505859 C 76.02214813232422 49.84153366088867 77 44.99629211425781 77 40 C 77 35.00370788574219 76.02214813232422 30.15846633911133 74.09358978271484 25.59885406494141 C 72.23018646240234 21.19327926635742 69.56193542480469 17.23603820800781 66.16294860839844 13.83705139160156 C 62.76396179199219 10.43806457519531 58.80672073364258 7.769813537597656 54.40114593505859 5.906410217285156 C 49.84153366088867 3.977851867675781 44.99629211425781 3 40 3 M 40 0 C 62.09138488769531 0 80 17.90861511230469 80 40 C 80 62.09138488769531 62.09138488769531 80 40 80 C 17.90861511230469 80 0 62.09138488769531 0 40 C 0 17.90861511230469 17.90861511230469 0 40 0 Z" stroke="none" fill="#15da7e"/>
          </g>
        </g>
      </g>
    </g>
    <g id="idea_1_" data-name="idea (1)" transform="translate(636 4740)">
      <g id="Grupo_1149921" data-name="Grupo 1149921" transform="translate(7.792 0.741)">
        <path id="Trazado_985304" data-name="Trazado 985304" d="M237.186,46.325l2.609,2.32V81.558l-2.609,2.319H231.7V80.483a.7.7,0,0,0-.386-.625A17.679,17.679,0,0,1,221.466,64c0-9.763,9.125-17.678,15.721-17.678Z" transform="translate(-219.509 -42.442)" fill="#ffe177"/>
        <path id="Trazado_985305" data-name="Trazado 985305" d="M262.879,46.325l.24.213A17.682,17.682,0,0,0,248.2,64c0,6.952,4.013,11.47,9.849,14.357a.7.7,0,0,1,.386.625v4.891h-2.995V80.483a.7.7,0,0,0-.386-.625,17.681,17.681,0,0,1,7.829-33.532Z" transform="translate(-245.201 -42.442)" fill="#f9d45d"/>
        <path id="Trazado_985306" data-name="Trazado 985306" d="M190.775,412.548a1.554,1.554,0,0,1,1.554-1.554h11.525v9.325h-8.292a1.5,1.5,0,0,1-1.5-1.5v-1.607h-1.731a3.475,3.475,0,0,0-1.554-4.663Z" transform="translate(-180.503 -370.71)" fill="#808b95"/>
        <path id="Trazado_985307" data-name="Trazado 985307" d="M264.851,412.548a1.554,1.554,0,0,1,1.554-1.554H269.4a3.475,3.475,0,0,1-1.554,4.663,1.554,1.554,0,0,0,1.554,1.554h1.731v1.607a1.5,1.5,0,0,0,1.5,1.5h-2.995a1.5,1.5,0,0,1-1.5-1.5v-1.607h-1.731a3.475,3.475,0,0,0-1.554-4.662Z" transform="translate(-256.675 -370.71)" fill="#5e6b75"/>
        <g id="Grupo_1149918" data-name="Grupo 1149918" transform="translate(5.531 10.277)">
          <path id="Trazado_985308" data-name="Trazado 985308" d="M221.543,122.528a10.989,10.989,0,0,1,0-2.622l2.684-.954a8.337,8.337,0,0,1,.763-1.84l-1.223-2.573a10.9,10.9,0,0,1,1.854-1.854l2.573,1.223a8.336,8.336,0,0,1,1.84-.763l.954-2.684a10.99,10.99,0,0,1,2.622,0l2.611,2.009v17.393l-2.611,2.111a10.989,10.989,0,0,1-2.622,0l-.954-2.684a8.336,8.336,0,0,1-1.84-.763l-2.573,1.223a10.9,10.9,0,0,1-1.854-1.854l1.223-2.573a8.331,8.331,0,0,1-.763-1.84Z" transform="translate(-221.465 -110.383)" fill="#9dcffd"/>
          <path id="Trazado_985309" data-name="Trazado 985309" d="M226.214,167.834l2.611,5.093-2.611,5.094c-.425.111-4.749-.917-4.749-5.094C221.465,168.928,225.789,167.723,226.214,167.834Z" transform="translate(-214.069 -162.093)" fill="#f0fcff"/>
          <path id="Trazado_985310" data-name="Trazado 985310" d="M254.217,166.339v.1a5.265,5.265,0,0,0,0,9.989v.1a5.264,5.264,0,1,1,0-10.187Z" transform="translate(-242.071 -160.598)" fill="#d7ecfe"/>
        </g>
        <g id="Grupo_1149919" data-name="Grupo 1149919" transform="translate(19.547 0.171)">
          <path id="Trazado_985311" data-name="Trazado 985311" d="M21,58.39a6.193,6.193,0,0,0,4.274-3.839,7.338,7.338,0,0,0,7.271-11.757A4.37,4.37,0,0,0,34.033,34.4,6.181,6.181,0,0,0,32.6,23.369a8.908,8.908,0,0,0,.049-.932,8.8,8.8,0,0,0-8.8-8.8h-.157a6.4,6.4,0,0,0-1.541-2.865,5.825,5.825,0,0,0-2.76-1.629c-.217-.061-3.864.869-3.864,4.217v39.4c0,6.047,4.987,5.758,5.473,5.635Z" transform="translate(-15.526 -9.14)" fill="#fd8087"/>
        </g>
        <g id="Grupo_1149920" data-name="Grupo 1149920" transform="translate(17.677)">
          <path id="Trazado_985312" data-name="Trazado 985312" d="M100.831,464.073l.041.009-.048.01Z" transform="translate(-86.219 -418.491)" fill="#fe646f"/>
          <path id="Trazado_985313" data-name="Trazado 985313" d="M178.9,7.447a5.81,5.81,0,0,1,.891.149q.106.03.214.064a4.395,4.395,0,0,0-2.954,4.153v39.4a5.826,5.826,0,0,0,4.349,5.635,6.191,6.191,0,0,1-1.52.188,5.823,5.823,0,0,1-5.823-5.823v-39.4A4.385,4.385,0,0,1,178.9,7.447Z" transform="translate(-174.052 -7.422)" fill="#fe646f"/>
        </g>
      </g>
      <g id="Grupo_1149922" data-name="Grupo 1149922">
        <path id="Trazado_985314" data-name="Trazado 985314" d="M149.651,156.084a.749.749,0,0,1-.733-.6,2.652,2.652,0,0,0-3.128-2.062.749.749,0,0,1-.3-1.467,4.151,4.151,0,0,1,4.9,3.227A.749.749,0,0,1,149.651,156.084Z" transform="translate(-114.678 -136.713)"/>
        <path id="Trazado_985315" data-name="Trazado 985315" d="M140.9,303.272a2.653,2.653,0,0,1-.874,2.874,5.2,5.2,0,0,1,.378,4.907.749.749,0,0,1-1.369-.606,3.7,3.7,0,0,0-1.885-4.88.749.749,0,0,1,.606-1.369,5.181,5.181,0,0,1,1.289.814,1.153,1.153,0,0,0,.429-1.286.749.749,0,0,1,1.427-.454Z" transform="translate(-104.482 -272.53)"/>
        <path id="Trazado_985316" data-name="Trazado 985316" d="M15.26,8.591a.749.749,0,0,1,1,1.114,16.934,16.934,0,0,0,3.813,27.781,1.437,1.437,0,0,1,.8,1.3v1.494h5.944V33.422a11.731,11.731,0,0,1-1.963-.07.749.749,0,0,1-.616-.492l-.828-2.328A9.1,9.1,0,0,1,22.133,30L19.9,31.061a.749.749,0,0,1-.783-.087,11.661,11.661,0,0,1-1.982-1.982.749.749,0,0,1-.087-.783l1.061-2.232a9.093,9.093,0,0,1-.531-1.281l-2.328-.828a.749.749,0,0,1-.493-.616,11.743,11.743,0,0,1,0-2.8.748.748,0,0,1,.493-.616l2.328-.828a9.1,9.1,0,0,1,.531-1.281L17.05,15.5a.749.749,0,0,1,.087-.783,11.662,11.662,0,0,1,1.982-1.982.749.749,0,0,1,.783-.087l2.232,1.061a9.1,9.1,0,0,1,1.281-.531l.828-2.328a.749.749,0,0,1,.616-.492,11.786,11.786,0,0,1,1.963-.07V5.389a16.89,16.89,0,0,0-7.978,2.4.749.749,0,1,1-.773-1.282,18.391,18.391,0,0,1,8.905-2.626,5.152,5.152,0,0,1,1.552-2.58C31.51-1.375,36.716.231,38.175,4.668A9.561,9.561,0,0,1,47.3,14.641a6.91,6.91,0,0,1,3.937,4.53.749.749,0,0,1-1.444.4A5.415,5.415,0,0,0,47.1,16.205a9.477,9.477,0,0,1-.529,1.691.749.749,0,0,1-1.381-.578,8.077,8.077,0,0,0-7.574-11.16,11.277,11.277,0,0,0-3.254.679A.749.749,0,0,1,34.075,5.4,9.464,9.464,0,0,1,36.6,4.728,5.1,5.1,0,0,0,32.333,1.51a3.638,3.638,0,0,0-4.015,3.621c0,44.766-.174,40.015.612,41.81a5.259,5.259,0,0,0,9.209-.13,8.048,8.048,0,0,1-2.093-1.07.749.749,0,0,1,.868-1.22,6.588,6.588,0,1,0,7.5-10.835.749.749,0,1,1,.838-1.241,8.119,8.119,0,0,1,1.529,1.339,3.55,3.55,0,0,0,1.5-.581,3.624,3.624,0,0,0-2.024-6.623.749.749,0,1,1,0-1.5,5.1,5.1,0,0,1,1.581.25,5.426,5.426,0,0,0,1.96-2.9.749.749,0,0,1,1.445.394,6.915,6.915,0,0,1-1.96,3.242A5.123,5.123,0,0,1,47.731,35.1a8.1,8.1,0,0,1-8.088,12.057A6.965,6.965,0,0,1,33.479,51.1H22.855a2.252,2.252,0,0,1-2.25-2.25V47.99h-.982a2.3,2.3,0,0,1-1.7-3.857,2.3,2.3,0,0,1,1.455-3.844V38.812A18.431,18.431,0,0,1,15.26,8.591Zm11.561,8.784a4.515,4.515,0,1,0,0,8.955ZM25.493,11.8l-.8,2.236a.748.748,0,0,1-.5.47c-1.632.457-1.757,1.006-2.364.718L19.687,14.2a10.154,10.154,0,0,0-1.082,1.082l1.019,2.144a.749.749,0,0,1-.024.689c-.826,1.468-.54,1.956-1.165,2.178l-2.236.8a10.254,10.254,0,0,0,0,1.53l2.236.8c.627.223.336.707,1.164,2.178a.748.748,0,0,1,.024.689l-1.019,2.144A10.173,10.173,0,0,0,19.687,29.5l2.144-1.019c.6-.287.737.263,2.364.718a.748.748,0,0,1,.5.47l.8,2.236a10.3,10.3,0,0,0,1.328.013V27.836a6.012,6.012,0,1,1,0-11.967V11.782a10.3,10.3,0,0,0-1.328.013ZM22.1,48.849a.753.753,0,0,0,.752.752h6.367A6.625,6.625,0,0,1,27.81,47.99H22.1Zm-3.285-6.27a.807.807,0,0,0,.806.806h1.9a.749.749,0,1,1,0,1.5h-1.9a.806.806,0,1,0,0,1.611h7.5a6.533,6.533,0,0,1-.291-1.611H24.788a.749.749,0,1,1,0-1.5h2.033V41.773h-7.2a.807.807,0,0,0-.806.806Z" transform="translate(-2.1 0)"/>
        <path id="Trazado_985317" data-name="Trazado 985317" d="M450.738,219.168h3.772a.749.749,0,1,1,0,1.5h-3.772a.749.749,0,0,1,0-1.5Z" transform="translate(-449.989 -197.291)"/>
        <path id="Trazado_985318" data-name="Trazado 985318" d="M438.528,92.02l-3.89-3.881a.749.749,0,0,1,1.058-1.06l3.89,3.881a.749.749,0,0,1-1.058,1.06Z" transform="translate(-432.983 -78.19)"/>
        <path id="Trazado_985319" data-name="Trazado 985319" d="M434.78,315.032l3.89-2.335a.749.749,0,0,1,.771,1.284l-3.89,2.335a.749.749,0,0,1-.771-1.284Z" transform="translate(-432.98 -281.388)"/>
      </g>
    </g>
  </g>
</svg>
