<svg xmlns="http://www.w3.org/2000/svg" xmlns:xlink="http://www.w3.org/1999/xlink" width="98" height="98" viewBox="0 0 98 98">
  <defs>
    <filter id="Trazado_982548" x="0" y="0" width="98" height="98" filterUnits="userSpaceOnUse">
      <feOffset dy="3" input="SourceAlpha"/>
      <feGaussianBlur stdDeviation="3" result="blur"/>
      <feFlood flood-opacity="0.161"/>
      <feComposite operator="in" in2="blur"/>
      <feComposite in="SourceGraphic"/>
    </filter>
  </defs>
  <g id="Grupo_1149940" data-name="Grupo 1149940" transform="translate(-1032 -4719)">
    <g id="Grupo_1149699" data-name="Grupo 1149699" transform="translate(831 4264)">
      <g id="Grupo_1149263" data-name="Grupo 1149263" transform="translate(210 461)">
        <g transform="matrix(1, 0, 0, 1, -9, -6)" filter="url(#Trazado_982548)">
          <g id="Trazado_982548-2" data-name="Trazado 982548" transform="translate(9 6)" fill="#f6f9fc">
            <path d="M 40 78.5 C 34.80187606811523 78.5 29.76003265380859 77.48227691650391 25.01452255249023 75.47509765625 C 20.43014526367188 73.53606414794922 16.31264495849609 70.75986480712891 12.77638912200928 67.22360992431641 C 9.240133285522461 63.68735504150391 6.46393346786499 59.56985473632812 4.524899959564209 54.98547744750977 C 2.517722129821777 50.23996734619141 1.5 45.19812393188477 1.5 40 C 1.5 34.80187606811523 2.517722129821777 29.76003265380859 4.524899959564209 25.01452255249023 C 6.46393346786499 20.43014526367188 9.240133285522461 16.31264495849609 12.77638912200928 12.77638912200928 C 16.31264495849609 9.240133285522461 20.43014526367188 6.46393346786499 25.01452255249023 4.524899959564209 C 29.76003265380859 2.517722129821777 34.80187606811523 1.5 40 1.5 C 45.19812393188477 1.5 50.23996734619141 2.517722129821777 54.98547744750977 4.524899959564209 C 59.56985473632812 6.46393346786499 63.68735504150391 9.240133285522461 67.22360992431641 12.77638912200928 C 70.75986480712891 16.31264495849609 73.53606414794922 20.43014526367188 75.47509765625 25.01452255249023 C 77.48227691650391 29.76003265380859 78.5 34.80187606811523 78.5 40 C 78.5 45.19812393188477 77.48227691650391 50.23996734619141 75.47509765625 54.98547744750977 C 73.53606414794922 59.56985473632812 70.75986480712891 63.68735504150391 67.22360992431641 67.22360992431641 C 63.68735504150391 70.75986480712891 59.56985473632812 73.53606414794922 54.98547744750977 75.47509765625 C 50.23996734619141 77.48227691650391 45.19812393188477 78.5 40 78.5 Z" stroke="none"/>
            <path d="M 40 3 C 35.00370788574219 3 30.15846633911133 3.977851867675781 25.59885406494141 5.906410217285156 C 21.19326782226562 7.769813537597656 17.23602676391602 10.43806457519531 13.83704376220703 13.83705139160156 C 10.43806457519531 17.23603820800781 7.769813537597656 21.19327926635742 5.906410217285156 25.59885406494141 C 3.977851867675781 30.15846633911133 3 35.00370788574219 3 40 C 3 44.99629211425781 3.977851867675781 49.84153366088867 5.906410217285156 54.40114593505859 C 7.769813537597656 58.80672073364258 10.43806457519531 62.76396179199219 13.83704376220703 66.16294860839844 C 17.23602676391602 69.56193542480469 21.19326782226562 72.23018646240234 25.59885406494141 74.09358978271484 C 30.15846633911133 76.02214813232422 35.00370788574219 77 40 77 C 44.99629211425781 77 49.84153366088867 76.02214813232422 54.40114593505859 74.09358978271484 C 58.80672073364258 72.23018646240234 62.76396179199219 69.56193542480469 66.16294860839844 66.16294860839844 C 69.56193542480469 62.76396179199219 72.23018646240234 58.80672073364258 74.09358978271484 54.40114593505859 C 76.02214813232422 49.84153366088867 77 44.99629211425781 77 40 C 77 35.00370788574219 76.02214813232422 30.15846633911133 74.09358978271484 25.59885406494141 C 72.23018646240234 21.19327926635742 69.56193542480469 17.23603820800781 66.16294860839844 13.83705139160156 C 62.76396179199219 10.43806457519531 58.80672073364258 7.769813537597656 54.40114593505859 5.906410217285156 C 49.84153366088867 3.977851867675781 44.99629211425781 3 40 3 M 40 0 C 62.09138488769531 0 80 17.90861511230469 80 40 C 80 62.09138488769531 62.09138488769531 80 40 80 C 17.90859985351562 80 0 62.09138488769531 0 40 C 0 17.90861511230469 17.90859985351562 0 40 0 Z" stroke="none" fill="#15da7e"/>
          </g>
        </g>
      </g>
    </g>
    <g id="lista-de-verificacion" transform="translate(1057 4741)">
      <g id="Grupo_1149938" data-name="Grupo 1149938" transform="translate(0.769 0.769)">
        <g id="Grupo_1149924" data-name="Grupo 1149924" transform="translate(18.447 4.612)">
          <path id="Trazado_985320" data-name="Trazado 985320" d="M48.827,45.431H25V7.769A.769.769,0,0,1,25.769,7H48.827a.769.769,0,0,1,.769.769V44.662A.769.769,0,0,1,48.827,45.431Z" transform="translate(-25 -7)" fill="#e6e9ed"/>
        </g>
        <g id="Grupo_1149925" data-name="Grupo 1149925" transform="translate(15.372 1.537)">
          <path id="Trazado_985321" data-name="Trazado 985321" d="M23.306,44.505H47.9a.771.771,0,0,0,.769-.769V6.843a.771.771,0,0,0-.769-.769H43.29a.771.771,0,0,0,.769-.769V3h6.918a.771.771,0,0,1,.769.769V46.811a.771.771,0,0,1-.769.769H21.769A.771.771,0,0,1,21,46.811V42.968a1.542,1.542,0,0,0,1.537,1.537Z" transform="translate(-21 -3)" fill="#cf9e76"/>
        </g>
        <g id="Grupo_1149926" data-name="Grupo 1149926" transform="translate(15.372 1.537)">
          <path id="Trazado_985322" data-name="Trazado 985322" d="M29.455,6.074H24.843a.771.771,0,0,0-.769.769V9.18c-.254-.023-.507-.031-.769-.031A9.114,9.114,0,0,0,21,9.441V3.769A.771.771,0,0,1,21.769,3h6.918V5.306A.771.771,0,0,0,29.455,6.074Z" transform="translate(-21 -3)" fill="#cf9e76"/>
        </g>
        <g id="Grupo_1149927" data-name="Grupo 1149927" transform="translate(23.059)">
          <path id="Trazado_985323" data-name="Trazado 985323" d="M46.372,2.537V4.843a.771.771,0,0,1-.769.769H31.769A.771.771,0,0,1,31,4.843V1.769A.771.771,0,0,1,31.769,1H45.6a.771.771,0,0,1,.769.769Z" transform="translate(-31 -1)" fill="#b4dd7f"/>
        </g>
        <g id="Grupo_1149928" data-name="Grupo 1149928" transform="translate(29.976 10.761)">
          <path id="Trazado_985324" data-name="Trazado 985324" d="M53.066,34.946V39.6H49.223v-.807a1.664,1.664,0,0,0-1.038-1.545l-.023-.008a1.657,1.657,0,0,0-1.814.361l-.576.569L41.43,33.823l.576-.584a1.66,1.66,0,0,0,.361-1.8l-.015-.038a1.658,1.658,0,0,0-1.537-1.03H40V24.223h.807a1.664,1.664,0,0,0,1.545-1.038l.008-.023A1.657,1.657,0,0,0,42,21.349l-.569-.576,4.343-4.343.584.576a1.642,1.642,0,0,0,1.806.354.028.028,0,0,0,.023-.008,1.653,1.653,0,0,0,1.038-1.537V15h3.843v4.65c-.254-.023-.507-.038-.769-.038a7.686,7.686,0,1,0,0,15.372c.261,0,.523-.015.769-.038Z" transform="translate(-40 -15)" fill="#ffc729"/>
        </g>
        <g id="Grupo_1149929" data-name="Grupo 1149929" transform="translate(34.588 15.372)">
          <path id="Trazado_985325" data-name="Trazado 985325" d="M54.455,33.229v3.105c-.246.023-.507.038-.769.038a7.686,7.686,0,1,1,0-15.372c.261,0,.515.015.769.038v3.1a5.1,5.1,0,0,0-.769-.061,4.612,4.612,0,0,0,0,9.223A4.2,4.2,0,0,0,54.455,33.229Z" transform="translate(-46 -21)" fill="#fcd770"/>
        </g>
        <g id="Grupo_1149930" data-name="Grupo 1149930" transform="translate(0 29.207)">
          <path id="Trazado_985326" data-name="Trazado 985326" d="M7.149,39.769v7.686a.771.771,0,0,1-.769.769H1V39H6.38A.771.771,0,0,1,7.149,39.769Z" transform="translate(-1 -39)" fill="#ff826e"/>
        </g>
        <g id="Grupo_1149931" data-name="Grupo 1149931" transform="translate(15.372 29.161)">
          <path id="Trazado_985327" data-name="Trazado 985327" d="M25.3,39.017a1.543,1.543,0,0,0-.776.423,1.5,1.5,0,0,0-.453,1.084,1.542,1.542,0,0,0,1.537,1.537A1.548,1.548,0,0,0,24.074,43.6a1.542,1.542,0,0,0,1.537,1.537,1.548,1.548,0,0,0-1.537,1.537,1.542,1.542,0,0,0,1.537,1.537v3.074a1.542,1.542,0,0,1-1.537,1.537H22.537A1.542,1.542,0,0,1,21,51.284V41.292a8.365,8.365,0,0,0,1.537-2.306h2.306a2.214,2.214,0,0,0,.453-.046Z" transform="translate(-21 -38.94)" fill="#969faa"/>
        </g>
        <g id="Grupo_1149932" data-name="Grupo 1149932" transform="translate(18.447 29.207)">
          <path id="Trazado_985328" data-name="Trazado 985328" d="M28.074,39a1.542,1.542,0,0,1,1.537,1.537,1.548,1.548,0,0,1-1.537,1.537H26.537A1.542,1.542,0,0,1,25,40.537a1.5,1.5,0,0,1,.453-1.084,1.543,1.543,0,0,1,.776-.423A1.346,1.346,0,0,1,26.537,39Z" transform="translate(-25 -39)" fill="#f0d0b4"/>
        </g>
        <g id="Grupo_1149933" data-name="Grupo 1149933" transform="translate(18.447 32.282)">
          <path id="Trazado_985329" data-name="Trazado 985329" d="M28.074,43a1.542,1.542,0,0,1,1.537,1.537,1.548,1.548,0,0,1-1.537,1.537H26.537A1.542,1.542,0,0,1,25,44.537,1.548,1.548,0,0,1,26.537,43Z" transform="translate(-25 -43)" fill="#f0d0b4"/>
        </g>
        <g id="Grupo_1149934" data-name="Grupo 1149934" transform="translate(18.447 35.356)">
          <path id="Trazado_985330" data-name="Trazado 985330" d="M26.537,50.074A1.542,1.542,0,0,1,25,48.537,1.548,1.548,0,0,1,26.537,47h1.537a1.542,1.542,0,0,1,1.537,1.537,1.548,1.548,0,0,1-1.537,1.537Z" transform="translate(-25 -47)" fill="#f0d0b4"/>
        </g>
        <g id="Grupo_1149935" data-name="Grupo 1149935" transform="translate(6.149 26.133)">
          <path id="Trazado_985331" data-name="Trazado 985331" d="M18.223,40.38v8.455H14.565A7.878,7.878,0,0,1,9,46.529V38.843A7.914,7.914,0,0,1,15.787,35H23.6a.771.771,0,0,1,.769.769A2.3,2.3,0,0,1,23.7,37.4a2.26,2.26,0,0,1-1.176.63,2.214,2.214,0,0,1-.453.046H19.761A8.366,8.366,0,0,1,18.223,40.38Z" transform="translate(-9 -35)" fill="#f0d0b4"/>
        </g>
        <g id="Grupo_1149936" data-name="Grupo 1149936" transform="translate(8.455 7.686)">
          <path id="Trazado_985332" data-name="Trazado 985332" d="M21.992,11.031a9.225,9.225,0,1,1-3.074.261A9.114,9.114,0,0,1,21.223,11C21.485,11,21.738,11.008,21.992,11.031Z" transform="translate(-12 -11)" fill="#aab2bd"/>
        </g>
        <g id="Grupo_1149937" data-name="Grupo 1149937" transform="translate(11.529 10.761)">
          <ellipse id="Elipse_11694" data-name="Elipse 11694" cx="6.5" cy="6" rx="6.5" ry="6" transform="translate(-0.298 0.125)" fill="#69d6f4"/>
        </g>
      </g>
      <g id="Grupo_1149939" data-name="Grupo 1149939" transform="translate(0)">
        <path id="Trazado_985333" data-name="Trazado 985333" d="M28.835,20.918a6.918,6.918,0,1,0-6.918,6.918A6.926,6.926,0,0,0,28.835,20.918Zm-12.3,0a5.38,5.38,0,1,1,5.38,5.38A5.386,5.386,0,0,1,16.537,20.918Z" transform="translate(-3.471 -3.239)"/>
        <path id="Trazado_985334" data-name="Trazado 985334" d="M25.442,19.293l-4.068,4.068-.994-.994-1.087,1.087,2.081,2.081,5.155-5.155Z" transform="translate(-4.464 -4.464)"/>
        <path id="Trazado_985335" data-name="Trazado 985335" d="M4,56H5.537v1.537H4Z" transform="translate(-0.926 -12.957)"/>
        <path id="Trazado_985336" data-name="Trazado 985336" d="M8,56H9.537v1.537H8Z" transform="translate(-1.851 -12.957)"/>
        <path id="Trazado_985337" data-name="Trazado 985337" d="M12,56h1.537v1.537H12Z" transform="translate(-2.777 -12.957)"/>
        <path id="Trazado_985338" data-name="Trazado 985338" d="M2,3H12.761V4.537H2Z" transform="translate(-0.463 -0.694)"/>
        <path id="Trazado_985339" data-name="Trazado 985339" d="M2,7h9.223V8.537H2Z" transform="translate(-0.463 -1.62)"/>
        <path id="Trazado_985340" data-name="Trazado 985340" d="M2,11H9.686v1.537H2Z" transform="translate(-0.463 -2.545)"/>
        <path id="Trazado_985341" data-name="Trazado 985341" d="M2,15H3.537v1.537H2Z" transform="translate(-0.463 -3.471)"/>
        <path id="Trazado_985342" data-name="Trazado 985342" d="M6,15H7.537v1.537H6Z" transform="translate(-1.388 -3.471)"/>
        <path id="Trazado_985343" data-name="Trazado 985343" d="M46.117,1.537H39.968A1.539,1.539,0,0,0,38.431,0H24.6a1.539,1.539,0,0,0-1.537,1.537H16.91a1.539,1.539,0,0,0-1.537,1.537v5.1A9.976,9.976,0,0,0,13.2,26.166a8.732,8.732,0,0,0-6.293,3.249,1.524,1.524,0,0,0-.759-.208H0V39.968H6.149a1.519,1.519,0,0,0,.958-.345,8.568,8.568,0,0,0,5.377,1.882h2.888v4.612a1.539,1.539,0,0,0,1.537,1.537H46.117a1.539,1.539,0,0,0,1.537-1.537V3.074A1.539,1.539,0,0,0,46.117,1.537ZM6.149,38.431H1.537V30.745H6.149ZM43.043,27.67a3.843,3.843,0,1,1,0-7.686Zm-5.38-3.843a5.386,5.386,0,0,0,5.38,5.38v1.537a6.918,6.918,0,1,1,0-13.835v1.537A5.386,5.386,0,0,0,37.662,23.827Zm-3.074,0a8.465,8.465,0,0,0,8.455,8.455v3.074H40.737v-.038a2.459,2.459,0,0,0-4.189-1.736l-.027.027L33.26,30.348l.034-.033a2.459,2.459,0,0,0-1.732-4.182h-.048V21.521h.038a2.459,2.459,0,0,0,1.736-4.189l-.027-.027,3.261-3.261.033.034a2.459,2.459,0,0,0,4.183-1.733V12.3h2.306v3.074A8.465,8.465,0,0,0,34.588,23.827Zm8.455-13.067H39.2v1.585a.922.922,0,0,1-1.559.646L36.52,11.871l-5.435,5.435L32.2,18.419a.921.921,0,0,1-.648,1.565H29.976V27.67h1.585a.9.9,0,0,1,.839.59.889.889,0,0,1-.194.968L31.086,30.35l5.435,5.435,1.114-1.114a.921.921,0,0,1,1.565.648v1.575h3.843v6.149H21.38a2.28,2.28,0,0,0,.141-.769V39.968h.769A2.3,2.3,0,0,0,24,36.125a2.271,2.271,0,0,0,0-3.074,2.287,2.287,0,0,0-1.384-3.811,3.038,3.038,0,0,0,.446-1.57,1.522,1.522,0,0,0-.352-.967A9.975,9.975,0,0,0,19.984,7.817V6.149H43.043ZM19.984,34.588a.77.77,0,0,1,.769-.769H22.29a.769.769,0,1,1,0,1.537H20.753A.77.77,0,0,1,19.984,34.588Zm2.306-2.306H20.753a.769.769,0,0,1,0-1.537H22.29a.769.769,0,0,1,0,1.537Zm0,4.612a.769.769,0,1,1,0,1.537H20.753a.769.769,0,1,1,0-1.537ZM24.6,1.537H38.431V4.612H24.6ZM16.91,3.074h6.149V4.612H19.984a1.539,1.539,0,0,0-1.537,1.537V7.686a10.035,10.035,0,0,0-1.537.131Zm-6.918,14.6a8.455,8.455,0,1,1,8.455,8.455A8.465,8.465,0,0,1,9.992,17.678Zm2.493,22.29a7.05,7.05,0,0,1-4.8-1.876v-7.11a7.178,7.178,0,0,1,6.019-3.312h7.816a1.539,1.539,0,0,1-1.537,1.537h-2.86l-.175.526a4.465,4.465,0,0,1-2.582,2.739l-1.586.635.571,1.427,1.586-.634c.148-.059.292-.128.434-.2v6.268Zm4.425-7.355a6,6,0,0,0,1.3-1.869h.384a2.235,2.235,0,0,0,.458,2.306,2.271,2.271,0,0,0,0,3.074,2.285,2.285,0,0,0,.938,3.7v2.447a.77.77,0,0,1-.769.769H17.678a.77.77,0,0,1-.769-.769Zm29.207,13.5H16.91V44.438a2.28,2.28,0,0,0,.769.141H43.043a1.539,1.539,0,0,0,1.537-1.537V6.149a1.539,1.539,0,0,0-1.537-1.537H39.968V3.074h6.149Z" transform="translate(0)"/>
        <path id="Trazado_985344" data-name="Trazado 985344" d="M36,52h1.537v1.537H36Z" transform="translate(-8.33 -12.032)"/>
        <path id="Trazado_985345" data-name="Trazado 985345" d="M40,52h1.537v1.537H40Z" transform="translate(-9.255 -12.032)"/>
        <path id="Trazado_985346" data-name="Trazado 985346" d="M44,52h1.537v1.537H44Z" transform="translate(-10.181 -12.032)"/>
      </g>
    </g>
  </g>
</svg>
