<svg xmlns="http://www.w3.org/2000/svg" xmlns:xlink="http://www.w3.org/1999/xlink" width="190" height="137" viewBox="0 0 190 137">
  <defs>
    <linearGradient id="linear-gradient" y1="0.5" x2="1" y2="0.5" gradientUnits="objectBoundingBox">
      <stop offset="0" stop-color="#d2deff" stop-opacity="0"/>
      <stop offset="1" stop-color="#b7c5ff"/>
    </linearGradient>
  </defs>
  <g id="Grupo_1149941" data-name="Grupo 1149941" transform="translate(-1230 -5627)">
    <g id="Grupo_1149706" data-name="Grupo 1149706" transform="translate(0 5343)">
      <rect id="Rect치ngulo_407965" data-name="Rect치ngulo 407965" width="190" height="75" rx="7" transform="translate(1230 315)" fill="#5a1a8a"/>
      <rect id="Rect치ngulo_407966" data-name="Rect치ngulo 407966" width="126" height="137" rx="7" transform="translate(1262 284)" fill="#a530fe"/>
    </g>
    <g id="objetivo_1_" data-name="objetivo (1)" transform="translate(1219.776 5631.247)">
      <g id="Grupo_1149813" data-name="Grupo 1149813" transform="translate(55.085 0)">
        <path id="Trazado_984470" data-name="Trazado 984470" d="M155.38,93.154c-6.609-22.316-29.674-44.82-13.78-69.118,3.04-4.648,2.709-12.425.181-15.712C125.9-12.33,90.812,8.966,91.06,33.947c.163,16.426-11.979,26.708-22.68,37.341C11.45,120.141,174.139,160.023,155.38,93.154Z" transform="translate(-56.232 0)" fill="url(#linear-gradient)"/>
      </g>
      <g id="Grupo_1149834" data-name="Grupo 1149834" transform="translate(54.7 10.184)">
        <g id="Grupo_1149827" data-name="Grupo 1149827">
          <path id="Trazado_984471" data-name="Trazado 984471" d="M154.523,102.521h1.8a1.255,1.255,0,1,0,0-2.51h-1.8l3.532-5.706a.753.753,0,0,0-.64-1.149H140.608a32.756,32.756,0,0,0-64.118,6.856H69.524c-.015,0-.029,0-.043,0L71.5,96.747a.753.753,0,0,0-.76-1.14l-7.3,1.175a1.129,1.129,0,0,0-.689.393l-2.8,3.371a1.128,1.128,0,0,0,0,1.44l2.8,3.371a1.129,1.129,0,0,0,.689.393l7.3,1.174a.753.753,0,0,0,.76-1.14l-2.023-3.268c.015,0,.029,0,.043,0h6.885a32.628,32.628,0,0,0,8.3,21.6,64.69,64.69,0,0,1,13.235,22.689,2.9,2.9,0,0,0-2.273,2.827v14.689a2.9,2.9,0,0,0,2.9,2.9h.942a9.821,9.821,0,0,0,19.3,0h.942a2.9,2.9,0,0,0,2.9-2.9V149.633a2.9,2.9,0,0,0-2.276-2.828,64.118,64.118,0,0,1,13.192-22.639,32.66,32.66,0,0,0,7.585-14.79h16.266a.753.753,0,0,0,.64-1.149Z" transform="translate(-58.444 -62.297)" fill="#00c" opacity="0.1"/>
          <g id="Grupo_1149817" data-name="Grupo 1149817" transform="translate(13.37 78.243)" opacity="0.1">
            <g id="Grupo_1149814" data-name="Grupo 1149814" transform="translate(10.039)">
              <path id="Trazado_984472" data-name="Trazado 984472" d="M149.225,354.827h4.664a1.255,1.255,0,1,0,0-2.51h-4.664a1.255,1.255,0,1,0,0,2.51Z" transform="translate(-147.97 -352.317)" fill="#00c"/>
            </g>
            <g id="Grupo_1149815" data-name="Grupo 1149815" transform="translate(0 5.116)">
              <path id="Trazado_984473" data-name="Trazado 984473" d="M109.225,375.209h14.7a1.255,1.255,0,1,0,0-2.51h-14.7a1.255,1.255,0,1,0,0,2.51Z" transform="translate(-107.97 -372.699)" fill="#00c"/>
            </g>
            <g id="Grupo_1149816" data-name="Grupo 1149816" transform="translate(0 10.231)">
              <path id="Trazado_984474" data-name="Trazado 984474" d="M109.225,395.59h14.7a1.255,1.255,0,0,0,0-2.51h-14.7a1.255,1.255,0,0,0,0,2.51Z" transform="translate(-107.97 -393.08)" fill="#00c"/>
            </g>
          </g>
          <g id="Grupo_1149826" data-name="Grupo 1149826">
            <g id="Grupo_1149821" data-name="Grupo 1149821" transform="translate(17.965 1.255)">
              <path id="Trazado_984475" data-name="Trazado 984475" d="M237.276,427.291a9.822,9.822,0,1,1-19.645,0Z" transform="translate(-194.702 -331.485)" fill="#fff"/>
              <path id="Trazado_984476" data-name="Trazado 984476" d="M191.779,78.326a32.625,32.625,0,0,1-8.348,21.841A63.5,63.5,0,0,0,168.7,128.335H149.359a63.878,63.878,0,0,0-14.781-28.218,32.75,32.75,0,1,1,57.2-21.791Z" transform="translate(-126.276 -45.576)" fill="#fff"/>
              <path id="Trazado_984477" data-name="Trazado 984477" d="M217.732,153.683c0,12.505-8.808,28.821-19.672,28.821s-19.672-16.315-19.672-28.821,8.808-16.465,19.672-16.465,19.672,3.959,19.672,16.465Z" transform="translate(-165.308 -114.217)" fill="#6583fe"/>
              <g id="Grupo_1149820" data-name="Grupo 1149820" transform="translate(19.265 77.161)">
                <path id="Trazado_984478" data-name="Trazado 984478" d="M227.109,373.488H205.928a2.9,2.9,0,0,1-2.9-2.9V355.9a2.9,2.9,0,0,1,2.9-2.9h21.181a2.9,2.9,0,0,1,2.9,2.9v14.689A2.9,2.9,0,0,1,227.109,373.488Z" transform="translate(-203.032 -353.006)" fill="#6583fe"/>
                <g id="Grupo_1149819" data-name="Grupo 1149819" transform="translate(0 4.44)">
                  <g id="Grupo_1149818" data-name="Grupo 1149818">
                    <path id="Trazado_984479" data-name="Trazado 984479" d="M203.032,370.7h26.973v3.654H203.032Z" transform="translate(-203.032 -370.698)" fill="#fff"/>
                  </g>
                  <path id="Trazado_984480" data-name="Trazado 984480" d="M203.032,400.361h26.973v3.654H203.032Z" transform="translate(-203.032 -392.916)" fill="#fff"/>
                </g>
              </g>
            </g>
            <g id="Grupo_1149823" data-name="Grupo 1149823" transform="translate(41.922 24.15)">
              <g id="Grupo_1149822" data-name="Grupo 1149822">
                <path id="Trazado_984481" data-name="Trazado 984481" d="M230.523,154.385a8.794,8.794,0,1,1,8.794-8.794A8.8,8.8,0,0,1,230.523,154.385Z" transform="translate(-221.729 -136.797)" fill="#fff"/>
              </g>
            </g>
            <g id="Grupo_1149824" data-name="Grupo 1149824" transform="translate(76.318 24.834)">
              <path id="Trazado_984482" data-name="Trazado 984482" d="M377.757,147.632H358.773l4.652-7.516a1.255,1.255,0,0,1,1.067-.595h16.933a.753.753,0,0,1,.64,1.149Z" transform="translate(-358.773 -139.521)" fill="#6583fe"/>
              <path id="Trazado_984483" data-name="Trazado 984483" d="M364.492,179.947h16.933a.753.753,0,0,0,.64-1.149l-4.308-6.961H358.773l4.652,7.516a1.255,1.255,0,0,0,1.067.595Z" transform="translate(-358.773 -163.725)" fill="#6583fe"/>
            </g>
            <path id="Trazado_984484" data-name="Trazado 984484" d="M69.075,154.325,71.5,150.4a.753.753,0,0,0-.76-1.14l-7.3,1.174a1.129,1.129,0,0,0-.689.393l-2.8,3.371a1.128,1.128,0,0,0,0,1.44l2.8,3.371a1.127,1.127,0,0,0,.689.393l7.3,1.174a.753.753,0,0,0,.76-1.14l-2.43-3.925A1.128,1.128,0,0,1,69.075,154.325Z" transform="translate(-58.444 -121.974)" fill="#6583fe"/>
            <g id="Grupo_1149825" data-name="Grupo 1149825">
              <path id="Trazado_984485" data-name="Trazado 984485" d="M153.889,328.317h-4.664a1.255,1.255,0,1,0,0,2.51h4.664a1.255,1.255,0,0,0,0-2.51Z" transform="translate(-124.561 -256.098)" fill="#00c"/>
              <path id="Trazado_984486" data-name="Trazado 984486" d="M123.929,348.7h-14.7a1.255,1.255,0,0,0,0,2.51h14.7a1.255,1.255,0,0,0,0-2.51Z" transform="translate(-94.6 -271.364)" fill="#00c"/>
              <path id="Trazado_984487" data-name="Trazado 984487" d="M123.929,369.081h-14.7a1.255,1.255,0,0,0,0,2.51h14.7a1.255,1.255,0,0,0,0-2.51Z" transform="translate(-94.6 -286.63)" fill="#00c"/>
              <path id="Trazado_984488" data-name="Trazado 984488" d="M152.256,74.776h.324a1.255,1.255,0,0,0,0-2.51h-.324l3.123-5.046a2.008,2.008,0,0,0-1.707-3.065h-4.349a1.255,1.255,0,0,0,0,2.51h3.448l-3.466,5.6H133.272l3.466-5.6h5.353a1.255,1.255,0,1,0,0-2.51h-4.3a34.1,34.1,0,0,0-32.38-23.579q-.248,0-.5,0A34.113,34.113,0,0,0,71.489,72.266H67.217l1.611-2.6A2.008,2.008,0,0,0,66.8,66.623L59.5,67.8a2.382,2.382,0,0,0-1.455.831L55.249,72a2.384,2.384,0,0,0,0,3.042l2.8,3.371a2.382,2.382,0,0,0,1.455.831l7.3,1.175a2.059,2.059,0,0,0,.329.026,2.009,2.009,0,0,0,1.7-3.066l-1.611-2.6h4.195a33.911,33.911,0,0,0,8.62,22.431,64.386,64.386,0,0,1,10.577,16.13,1.255,1.255,0,1,0,2.283-1.042A66.882,66.882,0,0,0,81.9,95.537,31.494,31.494,0,0,1,104.951,43.09c.154,0,.306,0,.46,0A31.584,31.584,0,0,1,135.3,64.61a2.514,2.514,0,0,0-.7.735l-4.284,6.922h-6.449a18.523,18.523,0,0,0-17.2-17.2V51.041a1.255,1.255,0,0,0-2.51,0v4.025a18.523,18.523,0,0,0-17.2,17.2H82.938a1.255,1.255,0,0,0,0,2.51h4.025a18.523,18.523,0,0,0,17.2,17.2V96a1.255,1.255,0,1,0,2.51,0V91.974a18.523,18.523,0,0,0,17.2-17.2h6.449L134.6,81.7a2.494,2.494,0,0,0,1.241,1.024,31.477,31.477,0,0,1-6.96,12.863,65.079,65.079,0,0,0-13.13,22.153H111.6c.331-5.826,1.141-13.5,3.1-19.691a1.293,1.293,0,1,0-2.467-.778c-.191.6-.369,1.207-.537,1.825l-2.063-1.486a1.3,1.3,0,0,0-1.534.015l-2.7,2.028-2.834-2.043a1.3,1.3,0,0,0-1.536.015l-1.9,1.431q-.248-.907-.525-1.785a1.295,1.295,0,1,0-2.47.778c1.955,6.192,2.766,13.864,3.1,19.691H94.827a4.156,4.156,0,0,0-4.151,4.151v14.689a4.155,4.155,0,0,0,4.1,4.149,11.079,11.079,0,0,0,21.279,0,4.155,4.155,0,0,0,4.1-4.149V121.888a4.148,4.148,0,0,0-1.964-3.522,62.6,62.6,0,0,1,12.561-21.108A33.984,33.984,0,0,0,138.4,82.886h15.273a2.008,2.008,0,0,0,1.707-3.065Zm-87.991,0,1.851,2.991-6.169-.992-2.7-3.253,2.7-3.253,6.169-.992-1.851,2.991h0A2.37,2.37,0,0,0,64.264,74.775Zm42.352,14.688a1.247,1.247,0,0,0-2.4,0A16.01,16.01,0,0,1,89.475,74.72a1.247,1.247,0,0,0,0-2.4,16.01,16.01,0,0,1,14.742-14.742,1.247,1.247,0,0,0,2.4,0,16.009,16.009,0,0,1,14.737,14.687h-7.233a8.794,8.794,0,1,0,0,2.51h7.233A16.009,16.009,0,0,1,106.616,89.462Zm-1.2-14.687h6.158a6.284,6.284,0,1,1,0-2.51h-6.158a1.255,1.255,0,1,0,0,2.51Zm-3.589,25.489,2.831,2.043a1.3,1.3,0,0,0,1.536-.015l2.7-2.028,2.136,1.539q-.309,1.393-.565,2.809l-.831-.6a1.3,1.3,0,0,0-1.536.015l-2.7,2.028-2.834-2.043a1.3,1.3,0,0,0-1.534.015l-.675.507c-.166-.921-.351-1.84-.552-2.748Zm-1,7.153.994-.748,2.834,2.043a1.3,1.3,0,0,0,1.536-.015l2.7-2.028,1.1.8c-.531,3.64-.832,7.212-1,10.269H101.84c-.17-3.072-.474-6.663-1.009-10.32Zm4.586,38.788a8.573,8.573,0,0,1-7.993-5.476H113.41a8.573,8.573,0,0,1-7.993,5.476Zm12.232-9.628a1.643,1.643,0,0,1-1.641,1.641H94.826a1.643,1.643,0,0,1-1.641-1.641V121.888a1.643,1.643,0,0,1,1.641-1.641h21.181a1.643,1.643,0,0,1,1.641,1.641Zm19.777-56.2h-.687l-3.466-5.6H149.3l3.466,5.6Z" transform="translate(-54.7 -40.576)" fill="#00c"/>
            </g>
          </g>
        </g>
        <g id="Grupo_1149833" data-name="Grupo 1149833" transform="translate(3.115 2.404)">
          <g id="Grupo_1149828" data-name="Grupo 1149828" transform="translate(65.622 97.381)">
            <path id="Trazado_984489" data-name="Trazado 984489" d="M332.668,446.345a1.255,1.255,0,0,1-1.255-1.255,1.591,1.591,0,0,0-1.59-1.59,1.255,1.255,0,1,1,0-2.51,1.591,1.591,0,0,0,1.59-1.59,1.255,1.255,0,1,1,2.51,0,1.592,1.592,0,0,0,1.59,1.59,1.255,1.255,0,0,1,0,2.51,1.592,1.592,0,0,0-1.59,1.59A1.255,1.255,0,0,1,332.668,446.345Z" transform="translate(-328.569 -438.146)" fill="#8383ff"/>
          </g>
          <g id="Grupo_1149829" data-name="Grupo 1149829" transform="translate(0 46.124)">
            <path id="Trazado_984490" data-name="Trazado 984490" d="M71.211,242.123a1.255,1.255,0,0,1-1.255-1.255,1.591,1.591,0,0,0-1.59-1.59,1.255,1.255,0,1,1,0-2.51,1.591,1.591,0,0,0,1.59-1.589,1.255,1.255,0,1,1,2.51,0,1.592,1.592,0,0,0,1.59,1.589,1.255,1.255,0,1,1,0,2.51,1.592,1.592,0,0,0-1.59,1.59A1.255,1.255,0,0,1,71.211,242.123Z" transform="translate(-67.112 -233.924)" fill="#8383ff"/>
          </g>
          <g id="Grupo_1149830" data-name="Grupo 1149830" transform="translate(86.48 8.712)">
            <path id="Trazado_984491" data-name="Trazado 984491" d="M415.772,93.065a1.255,1.255,0,0,1-1.255-1.255,1.591,1.591,0,0,0-1.59-1.59,1.255,1.255,0,1,1,0-2.51,1.591,1.591,0,0,0,1.59-1.59,1.255,1.255,0,1,1,2.51,0,1.591,1.591,0,0,0,1.59,1.59,1.255,1.255,0,1,1,0,2.51,1.591,1.591,0,0,0-1.59,1.59A1.255,1.255,0,0,1,415.772,93.065Z" transform="translate(-411.673 -84.866)" fill="#8383ff"/>
          </g>
          <g id="Grupo_1149831" data-name="Grupo 1149831" transform="translate(12.9)">
            <path id="Trazado_984492" data-name="Trazado 984492" d="M122.61,58.354a1.255,1.255,0,0,1-1.255-1.255,1.592,1.592,0,0,0-1.59-1.59,1.255,1.255,0,1,1,0-2.51,1.592,1.592,0,0,0,1.59-1.59,1.255,1.255,0,1,1,2.51,0,1.591,1.591,0,0,0,1.59,1.59,1.255,1.255,0,1,1,0,2.51,1.591,1.591,0,0,0-1.59,1.59A1.255,1.255,0,0,1,122.61,58.354Z" transform="translate(-118.51 -50.155)" fill="#8383ff"/>
          </g>
          <g id="Grupo_1149832" data-name="Grupo 1149832" transform="translate(77.455 89.167)">
            <path id="Trazado_984493" data-name="Trazado 984493" d="M381.487,410.189a1.251,1.251,0,0,1-.887-.367l-1.372-1.371-1.372,1.371a1.255,1.255,0,0,1-1.774-1.775l2.259-2.259a1.255,1.255,0,0,1,1.774,0l2.259,2.259a1.255,1.255,0,0,1-.887,2.142Z" transform="translate(-375.714 -405.42)" fill="#8383ff"/>
          </g>
        </g>
      </g>
    </g>
  </g>
</svg>
