<svg xmlns="http://www.w3.org/2000/svg" width="464.209" height="268.438" viewBox="0 0 464.209 268.438">
  <g id="Grupo_1149942" data-name="Grupo 1149942" transform="translate(-4125.649 -6429.506)">
    <path id="Trazado_985348" data-name="Trazado 985348" d="M6795.384,1612.737c1.557.181,3.254.027,4.641.611,3.18,1.341,6.04.587,8.981-.606,1.671-.678,3.262-1.695,5.187-1.545.738.581.608,1.424.631,2.2.047,1.652-.045,3.308.042,4.959.105,1.992.877,2.875,2.8,2.906q8.816.143,17.635,0c1.9-.028,2.8-1.127,3.035-3.23.118-1.067-.247-2.231.591-3.165,5.517.058,9.931,4.047,11.036,9.865.88,4.631-.576,8.928-1.794,13.25a24.553,24.553,0,0,0-1.137,8.67,9.409,9.409,0,0,0,4.625,7.325c2.559,1.665,5.3,3.071,6.979,5.8a2.214,2.214,0,0,1,.525,1.137c.081,6.615,2.754,12.594,4.626,18.766,1.7,5.615,3.421,11.2,3.143,17.2a21.865,21.865,0,0,1-1.81,7.97,4.837,4.837,0,0,0-.234,3.206c1.028,4.515,2.147,9.009,2.027,13.71-.143,5.62-1.9,10.8-4.173,15.826-4.451,9.861-11.132,18.081-19.029,25.368-.892.823-1.932,1.485-2.893,2.235-.8.628-1.074.209-1.146-.574-.375-4.062-.854-8.119-1.058-12.189-.077-1.537-.594-1.807-1.95-1.8-5.641.048-11.283,0-16.925-.01.525-1.2,1.631-.875,2.535-.882,5.383-.043,10.767-.019,16.15-.021.55,0,1.1.025,1.651-.022.667-.057,1.449-.037,1.453-1a1.62,1.62,0,0,0-1.281-1.769,7.715,7.715,0,0,0-1.827-.116c-3.548,0-7.1,0-10.644-.005a7.681,7.681,0,0,1-2.364-.194c-1.276-1.108.136-1.264.636-1.508a17.384,17.384,0,0,0,7.148-6.4,16.984,16.984,0,0,0-4.186-22.488c-.621-.456-1.456-.717-1.684-1.6.211-1.41,1.452-1.715,2.46-2.213,3.026-1.493,6.277-2.415,9.419-3.614,3.492-1.332,6.977-2.661,10.007-4.933a14.829,14.829,0,0,0,2.336-2.057c3.511-4.023,2.663-8.806-2.058-11.345a23.026,23.026,0,0,0-8.089-2.261c-1.384-.18-2.7-.527-3.287-1.963-.43-1.054-.261-1.853,1.181-1.662,3.708,2.7,9,1.654,11.256-.79a7.925,7.925,0,0,0-3.152-13.092,22.874,22.874,0,0,1-2.273-.7,2.309,2.309,0,0,1-1.272-2.089c-.536-4.265-3.1-6.934-6.829-8.647a3.088,3.088,0,0,1-1.929-2.643,11.108,11.108,0,0,0-6.129-8.619c-.52-.277-1.276-.414-1.214-1.19.063-.8.772-1.06,1.428-1.237,1.3-.351,2.65-.472,3.962-.779a10.366,10.366,0,0,0,4.913-2.345,4.793,4.793,0,0,0,.52-7.044,20.494,20.494,0,0,0-5.643-4.353,25.069,25.069,0,0,0-18.039-3.072,3.541,3.541,0,0,0-1.874.7c-3.077,2.989-7.263,3.67-10.965,5.358-1.565.505-3.189.762-4.782,1.147-.556.134-1.2.375-1.663-.276-.537-1.764-.069-3.553.146-5.258.63-4.982-.088-9.866-.593-14.777A2.808,2.808,0,0,1,6795.384,1612.737Z" transform="translate(-2277.105 4904.187)" fill="#fdefe1"/>
    <path id="Trazado_985349" data-name="Trazado 985349" d="M2137.578,496.278a33.569,33.569,0,0,1,14.475,2.239,7.464,7.464,0,0,1,2.043,1.141,16.9,16.9,0,0,1,1.26,6.834c.01.662.007,1.324,0,1.983-.7,5.78-2.553,11.093-6.409,15.58a20.98,20.98,0,0,1-9.668,6.251,15.182,15.182,0,0,0,2.362-.893c.753-.4,1.517-.776,2.287-1.141.531-.252,1.078-.736,1.647-.123.523.564.243,1.123-.121,1.654-4.368,2.813-9.186,3.465-14.24,2.931a16.409,16.409,0,0,0-2.553-.228,7.8,7.8,0,0,1-5.017-1.424c-.939-.654-2-1.067-3.071-.323-1.09.758-.919,1.9-.706,3.006.512,2.664,1.875,4.47,4.76,4.806a5.662,5.662,0,0,1,2.117.565.445.445,0,0,1,.193.515,33.439,33.439,0,0,1-2.479,9.193,11.213,11.213,0,0,1-.9,1.6c-1.809,2.6-3.881,2.408-5.217-.474-.281-.608-.507-1.242-.806-1.981-.955,1.532-1.746,3.05-2.77,4.39-2.1,2.751-4.722,4.739-8.428,4.245-1.615-.215-3.054-.967-4.784.008-1.125.634-2-.365-2.359-1.606-.418-1.443-.019-2.874.045-4.563-1.114,1.537-2.03,2.9-3.053,4.176a13.239,13.239,0,0,1-2.1,2.048c-.915.726-1.949,1.458-3.176.8-1.116-.6-1.188-1.753-1.211-2.892a15.954,15.954,0,0,1,.482-4.029c-.924.76-2.055,1.676-3.17,2.613a9.943,9.943,0,0,1-2.559,1.767c-2.087.854-3.327.228-3.766-1.967a12.711,12.711,0,0,1,.417-5.457,46.473,46.473,0,0,1,6.13-13.7A173.152,173.152,0,0,1,2097.4,519.4a70.042,70.042,0,0,0,11.489-22.051,55.684,55.684,0,0,1,3.366-8.737c2.143-4.214,4.782-5.408,9.374-4.174a19.458,19.458,0,0,1,8.948,4.8c-.977,1.393-1.953,2.763-1.822,4.624.057.8-.476,1.214-1.331,1.03-.119-.026-.24-.042-.359-.07-1.508-.359-2.968-.438-3.863,1.142-.652,1.152-.081,2.946,1.237,4.3.455.466,1.126.788,1.09,1.593a4.366,4.366,0,0,1-1.232,1.575c-5.79,5.823-7.666,12.753-5.839,20.715a19.259,19.259,0,0,0,.754,2.789c-2.8-9.219-1.137-17.666,6.365-24.663.314-.293.581-.63.89-.925a27.553,27.553,0,0,1,4.812-3.991c1.125-.464,2.314-.718,3.474-1.071C2135.694,496.146,2136.635,495.546,2137.578,496.278Z" transform="translate(2141.277 5960.581)" fill="#502578"/>
    <path id="Trazado_985350" data-name="Trazado 985350" d="M4254.925,310.053c.329-3.63,2.444-6,5.454-7.748,1.377-1.044,2.994-.964,4.587-.965q21.894-.008,43.785,0c8.34,0,16.681-.016,25.021,0,8,.02,13.447,5.406,13.449,13.38q.026,83.33,0,166.66a19.971,19.971,0,0,1-.2,3.3,1.579,1.579,0,0,1-.36.632,12.828,12.828,0,0,1-7.474-.029c-.691-1-.429-2.135-.433-3.216-.155-52.112-.056-104.225-.084-156.338,0-3.065.029-6.131-.009-9.2-.068-5.532-3.36-8.945-8.875-9.19-2.143-.1-4.292-.029-6.437-.028-4.124,0-4.332.154-5.624,4.019-1.4,4.009-3.822,5.761-8.049,5.856-2.011.045-4.022-.1-6.033.043-6.374-.026-12.747.135-19.118-.076a7.645,7.645,0,0,1-6.7-6.163c-.763-3.065-1.557-3.663-4.732-3.693-1.47-.014-2.942-.055-4.411.025a7.453,7.453,0,0,0-7.118,5.85,19.673,19.673,0,0,0-.481,4.923c-.1,29.284-.034,58.568-.06,87.852a8.105,8.105,0,0,1-.239,3.094,7.134,7.134,0,0,1-5.448.18c-1.3-.361-.692-1.9-.935-2.921-.036-7.047-.231-14.1.021-21.138.882-24.49.118-48.985.395-73.475A5,5,0,0,1,4254.925,310.053Z" transform="translate(104.059 6131.756)" fill="#502578"/>
    <path id="Trazado_985351" data-name="Trazado 985351" d="M4437.417,431.347q-.02-46.534-.037-93.067-.007-38.533,0-77.066c0-6.422-3.787-11.2-9.8-12.493a14.055,14.055,0,0,0-2.92-.242q-34.49-.019-68.98.007c-1.519,0-3.037.245-4.557.376a7.209,7.209,0,0,1,7.152-4.461q24.352-.016,48.7-.007c8.76,0,17.529.232,26.279-.075,6.718-.236,10.784,3.077,12.21,8.961a4.572,4.572,0,0,1,.17,2.17c.011,26.35-.232,52.7.126,79.048.146,10.706.174,21.41.268,32.115a4.164,4.164,0,0,0,.112.726c-.177,14.243-.027,28.488-.073,42.732,0,1.528,0,3.057-.094,4.58a6.2,6.2,0,0,1-.844,2.695,138.656,138.656,0,0,0-6.326,12.6C4438.529,430.559,4438.439,431.438,4437.417,431.347Z" transform="translate(13.311 6185.199)" fill="#fdc467"/>
    <path id="Trazado_985352" data-name="Trazado 985352" d="M2731.874,1804.944c.777-.254,1.121.148,1.324.833a10.532,10.532,0,0,0,4.223,5.412,79.767,79.767,0,0,0,19.706,10.475,15.379,15.379,0,0,0,2.127.551c4.242.884,5.936-.013,7.647-3.968a15.215,15.215,0,0,0,.887-8.644c-.206-1.264.083-1.551,1.205-1.412.447.313,1.3-.025,1.39.865a8.971,8.971,0,0,0,1.265,4.926c3.4,6.745,4.817,14,5.594,21.413a62.489,62.489,0,0,1,.726,8.6,4.953,4.953,0,0,1-1.629,2.787,29.887,29.887,0,0,0-5.852,11.458,43.853,43.853,0,0,0-1.352,5.148,5.759,5.759,0,0,1-3.757,4.378,38.226,38.226,0,0,1-10.106,2.587,65.789,65.789,0,0,1-10.59.895c-.833-.024-1.749.139-2.341-.712a2.6,2.6,0,0,1,.123-1.791c1.241-4.078,1.36-8.314,1.731-12.511a14.667,14.667,0,0,1,.634-4.326,5.73,5.73,0,0,0,.131-2.367,78.262,78.262,0,0,0-3.852-21.722,71.049,71.049,0,0,0-6.473-14.359c-1.4-2.286-3.511-3.884-5.435-5.662C2729.218,1806.028,2731,1805.912,2731.874,1804.944Z" transform="translate(1533.353 4722.669)" fill="#fdc467"/>
    <path id="Trazado_985353" data-name="Trazado 985353" d="M6014.562,1493.3a72.773,72.773,0,0,1,.5,22.274c-.429.907-1.365.967-2.146,1.234a65.3,65.3,0,0,0-22.716,13.5c-.955.858-1.993,1.618-2.914,2.521-.374.366-.792.821-1.437.484-.853-1.119-.7-2.436-.717-3.714-.05-3.24.25-6.5-.867-9.656-1.084-3.066-1.408-3.217-3.977-1.312-4.53,3.36-7.52,7.672-8.194,13.4-.071.6-.079,1.281-.82,1.5a1.653,1.653,0,0,1-1.632-.628,10.847,10.847,0,0,1-2.347-3.492,54.32,54.32,0,0,0-5.3-9.444,1.881,1.881,0,0,1,.537-1.84,113.069,113.069,0,0,1,12.272-13.792c.363-.344.85-.476,1.2-.817a105,105,0,0,1,14.572-11.431,67.671,67.671,0,0,1,19.562-8.229c1.229-.3,1.767-.043,2.166,1.147C6013.216,1487.727,6013.886,1490.512,6014.562,1493.3Z" transform="translate(-1496.283 5023.625)" fill="#fdc163"/>
    <path id="Trazado_985354" data-name="Trazado 985354" d="M3363.912,529.886l-1.22-.68c1.473.066,2.174-1.117,2.885-2.023a29.478,29.478,0,0,1,8.12-6.746,60.386,60.386,0,0,1,16.919-6.857c2.551-.64,3.007-.4,4.119,1.968a14.1,14.1,0,0,0,1.255,2.638c1.34,1.8,2.274,1.871,3.653-.04a20.118,20.118,0,0,1,6.583-5.728c4.167-2.35,8.4-2.026,12.8.015V510.14q0-33.838.015-67.675c0-.77-.262-1.6.291-2.31q0,36.044,0,72.089,0,12.138,0,24.276c-.3,2.757-.3,2.741-3.133,2.755-8.858.044-17.706-.638-26.567-.367a4.51,4.51,0,0,0-2.666.408,5.351,5.351,0,0,0-1.327,2.551c-1.186,4.276-2.456,8.529-3.651,12.8a4.18,4.18,0,0,1-.688,1.671c-.778.4-1.029-.276-1.168-.72-1.753-5.56-4.824-10.489-7.447-15.632-.289-1.606-1.233-3.179.193-4.806.518-.59-.276-1.259-.831-1.59a23.235,23.235,0,0,0-7.467-3.271A1.127,1.127,0,0,1,3363.912,529.886Z" transform="translate(939.656 6001.654)" fill="#fdefe1"/>
    <path id="Trazado_985355" data-name="Trazado 985355" d="M3576.336,3959.08c-11.1.655-22.191,1.967-33.32,1.427-15.026-.729-30.034-1.827-45.048-2.791-1.759-.113-3.547.137-5.275-.394.239-.419.724-.383,1.261-.673a11.571,11.571,0,0,0-2.246,0,4.805,4.805,0,0,1-3.091-.952,1.72,1.72,0,0,1-.122-2.937,36.5,36.5,0,0,1,9.162-5.6,7.193,7.193,0,0,1,3.574-.461,23.4,23.4,0,0,0,7.773-.8c9.688-.208,14.121-8.844,13.837-15.751-.093-2.26-.287-4.58,1.955-6.117.5-.342.908-.84,1.609-.7,1.413.694,1.268,1.853,1.055,3.143a19.952,19.952,0,0,0,1.668,12.506c1.393,2.78,3.391,4.525,6.8,4.2,2.244-.216,4.521.018,6.784-.073,3.318.015,6.636-.091,9.949.061,1.477.094,2.615,1,3.807,1.7a56.316,56.316,0,0,0,6.319,2.92c4.324,1.9,7.844.739,10.815-2.7.557-.646,1.07-1.375,2.088-1.289,7.259.069,14.515.032,21.771.024.953,0,1.975-.179,2.77.6-.367,1.254-1.45.843-2.237.852-4.961.057-9.923.048-14.884.016a5.911,5.911,0,0,0-4.135,1.117,7.211,7.211,0,0,1-2.733,1.029c-1.99.573-2.306,1.218-1.441,3.044a9.7,9.7,0,0,1,.97,3.134c.211,1.934.918,2.679,2.787,3.146.833.208,1.705.25,2.517.516.656.215,1.511.387,1.129,1.454l-1.763.05C3579.1,3959.185,3577.684,3958.661,3576.336,3959.08Z" transform="translate(822.474 2737.311)" fill="#7687c8"/>
    <path id="Trazado_985356" data-name="Trazado 985356" d="M4864.92,4269.951c-.64-1.736-2.321-1.031-3.487-1.354-2.609-.721-3.4-1.378-3.485-4.072a7.122,7.122,0,0,0-1.16-3.049c-.807-1.569-.287-2.911,1.384-3.254,1.605-.33,3.249-.485,4.364-1.973.392-.523,1.157-.247,1.752-.25q9.366-.037,18.733-.042c.826-.73,1.846-.548,2.8-.552,8.129-.041,16.25.259,24.366.694a32.208,32.208,0,0,0,4.032.061c8.076-.01,16.144.252,24.209.652.428.021.856.057,1.285.048,7.04-.156,14.063.561,21.1.424,2.233.155,4.537-.535,6.694.544a2.639,2.639,0,0,1,.408,2.546c-.215,1.089-.021,1.862,1.153,2.251.623.206,1.219.574,1.086,1.423q-13.474.776-26.949,1.556-20.716,1.211-41.43,2.43c-7.763.445-15.529.832-23.294,1.237C4873.966,4269.506,4869.444,4269.724,4864.92,4269.951Z" transform="translate(-460.236 2426.085)" fill="#7390cb"/>
    <path id="Trazado_985357" data-name="Trazado 985357" d="M1152.193,4279.16a18.647,18.647,0,0,1-8.219.82,5.892,5.892,0,0,0-3.688.775c-2.7,1.613-5.625,2.863-8.026,4.986-1.256,1.11-1.317,1.977.185,2.777a5.6,5.6,0,0,0,3.4.5c.3-.038.621-.258.88-.192.615.159,1.646.094,1.622.866-.026.831-.985.336-1.524.456a5.621,5.621,0,0,1-.915.057c-8.137-.436-16.275-.859-24.411-1.314-4.893-.273-9.784-.6-14.676-.9q-21.193-1.269-42.387-2.52c-7.893-.455-15.794-.767-23.684-1.249-15.778-.965-31.581-1.541-47.327-2.981a46.934,46.934,0,0,1-10.451-1.738c2.412-1.094,5.021-.922,7.537-.946,11.14-.1,22.281-.047,33.421-.043,2.265,0,4.529-.033,6.794.012,2.268.2,4.54-.143,6.809.033,40.631-.12,81.263-.024,121.893-.042C1150.378,4278.52,1151.409,4278.347,1152.193,4279.16Z" transform="translate(3179.263 2404.426)" fill="#787dc5"/>
    <path id="Trazado_985358" data-name="Trazado 985358" d="M761.512,2263.637c1.844-1.35,2.474-3.569,3.772-5.317,3.779-5.09,8.126-9.429,14.239-11.6a20.685,20.685,0,0,1,6.172-1.552c.924-.033,1.724-.278,1.667-1.462.481-.115.662.248.812.567,1.621,3.443,3.537,6.725,5.428,10.02a1.716,1.716,0,0,1,.264,1.23c-.531,1.125-1.669,1.381-2.667,1.776-1.876.744-3.816,1.315-5.733,1.948a27.226,27.226,0,0,0-13.309,9.336c-1.873,2.419-3.226,5.05-3.118,8.232a3.707,3.707,0,0,1-.434,1.765c-.828,1.272-.823,2.433.464,3.421,1.485.5,2.039,1.832,2.761,3.038,3.67,6.138,2.792,10.278-1.838,15.49a42.736,42.736,0,0,1-10.023,8.291c-3.258,1.955-3.249,2.448-.289,4.926,3.8,3.184,8.218,5.3,12.715,7.3,5.11,2.263,10.4,4.018,15.685,5.812.608.206,1.551.136,1.463,1.225a3.025,3.025,0,0,1-2.665.166,28.818,28.818,0,0,0-9.115-.882c-3.379.1-6.268-.853-8.395-3.658a22.632,22.632,0,0,0-8.979-6.827,24.152,24.152,0,0,1-4.362-2.72,3.16,3.16,0,0,1-1.089-4.345,6.409,6.409,0,0,1,1.883-2.466q2.494-1.85,4.974-3.7a11.593,11.593,0,0,1-2.406-.71,3.307,3.307,0,0,1-1.926-4.368,1.923,1.923,0,0,0-.733-2.676,1.7,1.7,0,0,1-.412-2.8,4.642,4.642,0,0,0,.866-3.5c-.476-3.421.5-6.708.72-10.057.085-1.286.227-2.383-.8-3.344a1.5,1.5,0,0,1-.364-1.2c.467-.522,1.109-.437,1.711-.491a5.55,5.55,0,0,0,4.193-8.828C762.215,2265.029,761.475,2264.545,761.512,2263.637Z" transform="translate(3384.012 4311.42)" fill="#fdefe0"/>
    <path id="Trazado_985359" data-name="Trazado 985359" d="M6560.306,732.066c3.985,0,7.97-.012,11.956,0,2.7.011,3.721.986,3.729,3.616q.032,10.851,0,21.7c-.006,2.449-.963,3.6-3.387,3.625q-12.5.141-25.007.056c-2.124-.013-3.274-1.3-3.283-3.417q-.043-11.127.02-22.253c.016-2.293,1.132-3.316,3.463-3.332,4.169-.028,8.338-.008,12.507-.008Z" transform="translate(-2042.088 5728.092)" fill="#fdbb58"/>
    <path id="Trazado_985360" data-name="Trazado 985360" d="M951.893,3647.756c-12.293.026-24.586.028-36.879.092-3.659.019-7.318.212-10.976.326a16.366,16.366,0,0,1-2.325-.312c-1.352-.358-2.274-.978-2.295-2.437a3.138,3.138,0,0,1,2.274-3.2,7.249,7.249,0,0,1,2.544-.27c15.08,0,30.161-.092,45.239.079,3.8.043,5.982-1.713,7.506-4.764,2.46-4.924,2.18-10.088,1.063-15.271a24.032,24.032,0,0,0-3.422-8.468,5.431,5.431,0,0,0-4.52-2.676c-13.108-.635-26.221-.784-39.341-.678q-4.23.034-8.459.009c-1.528-.01-1.927-.646-1.366-2.093a3.505,3.505,0,0,1,3.129-2.216c1.58-.191,3.17-.29,4.756-.428a4,4,0,0,1,2.8-.572c6.653-.034,13.306.007,19.959.037,7.435.009,14.872-.2,22.3.1a21.3,21.3,0,0,1,10.395,10.919,24.5,24.5,0,0,1-4.944,27.816A12.583,12.583,0,0,1,951.893,3647.756Z" transform="translate(3248.193 3035.759)" fill="#55287a"/>
    <path id="Trazado_985361" data-name="Trazado 985361" d="M5948.137,870.642c-4.8-.191-8.141-2.074-10.329-5.495-5.147-8.048-10.127-16.205-15.059-24.388-1.3-2.153-.018-4.546.032-6.827a5.068,5.068,0,0,1,.48-1.763c.867-2.077,2.579-2.434,4.189-.831a49.749,49.749,0,0,1,5.381,6.973c.814,1.164,1.377,1.377,2.565.5a12.279,12.279,0,0,1,7.881-2.567,9.142,9.142,0,0,1,5.583,2.058c3.9,3.128,3.609,8.161-.712,10.671-1.294.752-.96,1.116-.178,1.917,2.48,2.543,4.907,5.14,7.339,7.73a11.2,11.2,0,0,1,1.133,1.443c1.018,1.525.682,2.372-1.1,2.359-1.656-.012-1.6.5-.819,1.609.71,1,1.364,2.035,2.043,3.055.431.648.34,1.414-.425,1.386C5953.045,868.356,5950.528,870.474,5948.137,870.642Z" transform="translate(-1459.043 5635.981)" fill="#fc906f"/>
    <path id="Trazado_985362" data-name="Trazado 985362" d="M2703.861,969.951c-.725-.1-1.454-.167-2.173-.294-3.74-.66-5.455-2.729-5.457-6.557a2.568,2.568,0,0,1,3.9-2.429c7.5,3.569,14.9,3.2,22.188-.639,1.229-1.112,2.617-2.017,3.928-3.021a36.61,36.61,0,0,0,9.583-11.485c.209-.374.385-.767.6-1.136.252-.426.516-.927,1.045-.95.678-.03.865.6,1.063,1.1a20.237,20.237,0,0,0,9.415,10.19,3.558,3.558,0,0,1,2.069,3.846,11.515,11.515,0,0,1-.854,4.1l-1.085,3.953c-1.606,2.344-4.079,3.452-6.576,4.44-1.274.5-2.037,1.048-2.05,2.573a2.911,2.911,0,0,1-5.592,1.212,1.4,1.4,0,0,0-1.947-.8c-4.971,1.482-9.686.585-14.23-1.606a14.607,14.607,0,0,0-8.162-1.608C2707.525,971.08,2705.744,970.264,2703.861,969.951Z" transform="translate(1564.251 5529.985)" fill="#f88a7d"/>
    <path id="Trazado_985363" data-name="Trazado 985363" d="M1469.756,1515.8c1.82,4.516,4.187,6.394,7.98,6.356a6.729,6.729,0,0,0,6.417-4.378c.878-1.931.809-1.919,2.435-.451a121.469,121.469,0,0,1,24.523,31.439,9.056,9.056,0,0,0,.636.881,1.761,1.761,0,0,1,.332,1.721,54.923,54.923,0,0,0-.551,9.3,9.084,9.084,0,0,1-2.527,4.556c-1.575-.456-2.1-1.932-2.9-3.094-2.282-3.286-4.156-6.844-6.645-10a12.459,12.459,0,0,1,.034-2.185q.074-6.743-6.63-7.9a4.289,4.289,0,0,1-.886-.21c-2.764-2.679-5.313-5.572-8.3-8.038-6.272-5.182-13.086-9.272-21.13-11.045-1.013-.223-2.067-.434-2.605-1.509a4.175,4.175,0,0,1-.328-2.6,1.464,1.464,0,0,1,.805-.716c1.532-.668,1.912-1.935,1.868-3.463-.028-.985-.348-1.936-.3-2.923.07-1.509.751-2.06,2.14-1.582,1.561.537,3.026,1.331,4.609,1.833.769.243.874.912.887,1.639A6.34,6.34,0,0,0,1469.756,1515.8Z" transform="translate(2723.288 4999.202)" fill="#fcad65"/>
    <path id="Trazado_985364" data-name="Trazado 985364" d="M6544,3754.837q7.432.01,14.864.022a2.977,2.977,0,0,1,2.613,3.536c-.277.78-1.029.521-1.6.525-6.3.047-12.6.064-18.9.109a3.656,3.656,0,0,0-2.147.259c-7.771.124-15.543.259-23.314.358a1.8,1.8,0,0,0-1.865,1.153c-.578,1.339-1.5,2.535-1.661,4.046a2.6,2.6,0,0,1-.685,2.193c-.97,4.812-1.18,9.545,1.437,13.989a7.267,7.267,0,0,1,2.215,3.267,7.122,7.122,0,0,0,6.68,3.5c10.224-.259,20.456-.163,30.684-.23,2.14-.014,4.279-.171,6.419-.208,2.307-.04,2.308-.012,1.149,2.039a2.008,2.008,0,0,1-1.82.67c-9.192.156-18.371-.462-27.56-.494a8.828,8.828,0,0,0-2.712-.3c-5.733-.037-11.467.1-17.2-.064a6.144,6.144,0,0,0-2.347-.31c-3.361.526-5.572-1.3-7.507-3.654-5.157-6.28-6.427-13.433-4.687-21.235a20.413,20.413,0,0,1,.958-3.161,1.61,1.61,0,0,1,.65-.658c1.535-.515,3.123-.227,4.687-.274a4.033,4.033,0,0,0,3.852-2.223,4.977,4.977,0,0,1,2.116-2.421,9.7,9.7,0,0,1,2.919-.223q10.649-.01,21.3,0a59.375,59.375,0,0,0,9.339-.45A2.534,2.534,0,0,1,6544,3754.837Z" transform="translate(-1996.198 2895.522)" fill="#fcbf5f"/>
    <path id="Trazado_985365" data-name="Trazado 985365" d="M7124.3,1318.388c-.012,1.163,0,2.328-.042,3.489a3.531,3.531,0,0,1-3.748,3.58c-5.752-.156-11.511-.042-17.268-.058-2.63-.008-3.587-1.011-3.614-3.705q-.034-3.489-.065-6.977.034-8.086.071-16.171c.015-2.766.973-3.708,3.782-3.712q8.456-.01,16.911,0c2.747,0,3.919,1.188,3.934,4.072C7124.294,1305.4,7124.29,1311.894,7124.3,1318.388Z" transform="translate(-2562.475 5200.668)" fill="#aad2fa"/>
    <path id="Trazado_985366" data-name="Trazado 985366" d="M1403.638,791.7c-8.276.476-15.04-6.947-14.976-14.981a14.961,14.961,0,0,1,14.989-15.252c8.7-.08,15.011,6.456,15.094,15.1C1418.83,785.32,1411.6,792.044,1403.638,791.7Z" transform="translate(2789.682 5700.529)" fill="#aad2fa"/>
    <path id="Trazado_985367" data-name="Trazado 985367" d="M1023.226,1487.443c-2.711-6.542-4.788-13.307-6.96-20.035-1.591-4.929-3.311-9.825-4.469-14.886-.395-.871.246-1.08.843-1.251,6.409-1.835,17.764-.841,22.113,5.822a13.319,13.319,0,0,0,2.6,2.569,4.261,4.261,0,0,1,.76,2.375,9.014,9.014,0,0,0,1.645,4.544,13.581,13.581,0,0,1,.364,6.856c-.21.527-.6.5-1.049.35a5.105,5.105,0,0,0-4.21.624,29.332,29.332,0,0,0-5.644,3.708,6.161,6.161,0,0,0-2.307,3.225A10.923,10.923,0,0,1,1023.226,1487.443Z" transform="translate(3142.987 5054.816)" fill="#fba067"/>
    <path id="Trazado_985368" data-name="Trazado 985368" d="M990.924,1301.388a4.861,4.861,0,0,1-2.87-2.411c-2.468-3.61-6.1-5.168-10.122-5.969a25.264,25.264,0,0,0-11.4.267c-.517.134-.949.192-1.017.809-1.27-3.506-2.1-7.14-3.131-10.716-.282-.979.083-1.328,1.018-1.449a58.143,58.143,0,0,1,30.713,4.151,85.3,85.3,0,0,1,11.827,6.266c.962.6,1.144,1,.2,1.838-2.286,2.023-2.6,4.727-2.366,7.573.184-2.978-1.693-4.087-4.19-4.7-.962-.235-1.934-1.447-2.812-.711-.8.673-.207,1.926-.016,2.947.554,2.969-.148,4.231-2.881,5.435-1.482-.574-1.347-2.1-1.822-3.23C991.633,1300.492,991.351,1300.834,990.924,1301.388Z" transform="translate(3189.273 5213.255)" fill="#fcc064"/>
    <path id="Trazado_985369" data-name="Trazado 985369" d="M1195.427,1824.813a1.547,1.547,0,0,1,.7-1.6c1.616-.855,1.914-2.386,2.262-3.957a8.07,8.07,0,0,1,3.631-4.866c2.542-1.735,4.927-3.877,8.281-3.949.649-.014,1.234.018,1.5.744a.54.54,0,0,1,.373.524c.17,8,.315,16,.719,23.991.13,2.563-.115,5.144.363,7.69-.189,4.215.636,8.36.888,12.545a5.541,5.541,0,0,1,.037,1.45c-.3.979-.95.667-1.371.223-2.34-2.468-4.631-4.983-5.915-8.216-2.174-3.868-4.4-7.709-6.308-11.717q-2.431-5.914-4.858-11.831A10.121,10.121,0,0,1,1195.427,1824.813Z" transform="translate(2970.786 4717.445)" fill="#fa856e"/>
    <path id="Trazado_985370" data-name="Trazado 985370" d="M3043.347,765.975c.125-1.763.259-3.525.371-5.289.039-.613.051-1.207-.64-1.57-5.177-2.725-9.24-6.5-11.359-12.51a43.439,43.439,0,0,1-6.412,9.726c-2.556,2.811-5.273,5.422-8.812,7,.087-.385.527-.765.047-1.159-.376-.308-.689.022-1,.16-1.746.765-3.323,1.995-5.409,1.891a24.542,24.542,0,0,0,9.632-6.446c2.259-1.753,3.3-4.317,4.385-6.806a48.9,48.9,0,0,0,2.78-10.387,6.146,6.146,0,0,0,.417-1.777c-.6,1.214-.16,2.805-1.245,3.943.268-3.112-.7-6.117-.8-9.2,2.764.744,5.017,2.445,7.343,3.986a2.546,2.546,0,0,0,2.818.3c4.541-2.033,8.429-1.054,11.354,2.945,3.7,5.064,5.321,10.659,3.051,16.775A20.3,20.3,0,0,1,3043.347,765.975Z" transform="translate(1270.07 5726.692)" fill="#784a7a"/>
    <path id="Trazado_985371" data-name="Trazado 985371" d="M2817.684,1316.008c.208-.252.487-.449.795-.3,2.154,1.013,4.451.723,6.683.623a14.041,14.041,0,0,1,6.638,1.778c4.637,2.165,9.357,2.975,14.341,1.378.747-.239,1.561-.514,1.8.753a2.34,2.34,0,0,0,2.99,1.981,2.433,2.433,0,0,0,1.912-3.069c-.269-1.484.334-1.822,1.467-2.146,2.873-.823,5.2-2.63,7.6-4.31a30.73,30.73,0,0,1-6.548,14.916c-3.674,4.677-8.661,6.323-14.428,6.073a10.618,10.618,0,0,1-5.512-.839,31.9,31.9,0,0,1-9.172-5.214c-.393-.311-.687-1.134-1.46-.585-.183.33-.208.828-.78.733a6.224,6.224,0,0,0-1.421-4.728,34.769,34.769,0,0,1-3.283-5.7c-.282-.575-.427-1.556-1.517-1.047A.422.422,0,0,1,2817.684,1316.008Z" transform="translate(1450.428 5183.928)" fill="#fca28f"/>
    <path id="Trazado_985372" data-name="Trazado 985372" d="M603.973,2796.164l-22.8.019c-3.6-4.868-6.721-10.285-13.048-12.187a25.257,25.257,0,0,0-8.853-1.015c-1.291.08-1.672-.382-1.681-1.665-.028-3.911.1-7.812.41-11.708a1.723,1.723,0,0,0-1.6-2.148c-4.948-1.082-7.216-5.608-6.448-10.548a2.279,2.279,0,0,1,3.072-1.786,10.966,10.966,0,0,1,5.075,2.768c1.2,1.232,1.732.7,2.022-.625,1.171-5.367,2.87-10.584,4.481-15.826a.239.239,0,0,1,.381-.014c.56.629.821,1.5,1.655,1.914.564.28.353.735.256,1.255a41.544,41.544,0,0,0-1.093,9.924c.078,1.357.345,2.945-.288,3.884-1.411,2.1-1.1,3.4.951,4.609.495.292.388.849.041,1.294a2.6,2.6,0,0,0-.13,3.493c.975,1.382,2.388,1.491,3.793,1.677a2.536,2.536,0,0,1,1.572.255c-2.239.98-3.751,2.627-5.632,3.753a7.359,7.359,0,0,0-2.557,2.808c-.9,1.565-.458,2.741.966,3.91,2.726,2.237,6.09,3.345,8.986,5.294a26.12,26.12,0,0,1,5.14,5.142,6.534,6.534,0,0,0,4.913,2.49,98.148,98.148,0,0,1,14.182,1.235C599.28,2793.96,602.982,2795.028,603.973,2796.164Z" transform="translate(3575.844 3845.021)" fill="#fdf0e1"/>
    <path id="Trazado_985373" data-name="Trazado 985373" d="M2860.041,1535.35c.411-.3.324-.76.395-1.171,1.136.061,1.382,1.091,1.885,1.8,2.284,3.2,4.759,6.207,8.19,8.241,2.25,1.335,4.626,2.228,7.29,1.194a101.293,101.293,0,0,0,5.232,18.278c.48,1.258,1.366,2.79.062,3.921-1.324,1.147-2.547-.251-3.623-.844a171.925,171.925,0,0,1-22.368-15.01,1.861,1.861,0,0,1-.693-2.625A48.536,48.536,0,0,0,2860.041,1535.35Z" transform="translate(1414.391 4976.354)" fill="#f98277"/>
    <path id="Trazado_985374" data-name="Trazado 985374" d="M5873.811,475.809c-3.361,3.7-7.03,7.124-10.113,11.079-1.311,1.682-2.6,3.383-3.9,5.075a2.59,2.59,0,0,1-.734,1.624c-1.563,2.169-3.113,4.347-4.677,6.516-.314.435-.553.963-1.168,1.076-.549-.57-.3-1.282-.3-1.926q-.038-56.052-.048-112.1c.663.669.359,1.514.36,2.274q.028,39.517.018,79.034c0,2.284,0,2.262,2.306,1.9,5.211-.809,10.2-.326,14.761,2.6C5871.6,473.775,5872.218,475.385,5873.811,475.809Z" transform="translate(-1394.091 6051.331)" fill="#fdefe2"/>
    <path id="Trazado_985375" data-name="Trazado 985375" d="M3709.059,518.353c-.017-7.376,4.774-13,11.821-14.862,3.507-.926,3.663-.861,3.246,2.646a42.158,42.158,0,0,1-8.961,21.183c-.871,1.119-1.492,1.107-2.356-.007A16.685,16.685,0,0,1,3709.059,518.353Z" transform="translate(615.046 5942.77)" fill="#fdc364"/>
    <path id="Trazado_985376" data-name="Trazado 985376" d="M6647.92,4297.415c9.065-.229,18.118.457,27.181.353.734-.008,1.468-.033,2.2-.05.616.293,1.8-.289,1.838.683.034.818-1.1.734-1.775.945a39.233,39.233,0,0,1-9.791,1.4q-20.368,1.061-40.736,2.142c-1.1.057-2.2.033-3.307.046-.237-.273-.447-.751-.716-.787-2.427-.325-2.5-1.77-1.882-3.654a4.98,4.98,0,0,0,.028-1.455.924.924,0,0,1,.978-.037,3.84,3.84,0,0,0,3.331.389c1.244-.45,2.538-.11,3.809-.112q8.517-.019,17.033,0A4.116,4.116,0,0,1,6647.92,4297.415Z" transform="translate(-2113.608 2387.203)" fill="#709fce"/>
    <path id="Trazado_985377" data-name="Trazado 985377" d="M2321.811,1804.76c-.294,1.441-1.879,1.53-2.62,2.5-1.854.775-3.858,1.261-5.334,2.767a39.249,39.249,0,0,0-8.567,7.119c-.425.439-.836.892-1.266,1.328-.9.91-1.664.986-2.6-.071a21.9,21.9,0,0,0-8.737-6.5,1.428,1.428,0,0,1-1.035-.954c.886-1.753,2.624-2.309,4.262-2.942a51.7,51.7,0,0,1,14.157-2.9A80.843,80.843,0,0,1,2321.811,1804.76Z" transform="translate(1943.415 4722.854)" fill="#ed7c83"/>
    <path id="Trazado_985378" data-name="Trazado 985378" d="M2279.81,1887.745a22.785,22.785,0,0,1,10.381,7.527c.711.909,1.165.21,1.6-.253a54.878,54.878,0,0,1,8.223-7.493,4.477,4.477,0,0,1,1.767-.913,1.293,1.293,0,0,1,.549,1.459c-1.575,1.164-3.011,2.507-4.611,3.645-3.827,1.588-5.838,4.931-7.86,8.224-3.54,5.767-5.493,12.145-7.017,18.677a13.772,13.772,0,0,1-.651,2.3c-.169.4-.411.78-.915.795-.53.015-.741-.4-.892-.8a16.423,16.423,0,0,1-1.282-6.588,50.237,50.237,0,0,1,.673-11.53c.643-1.387,1.219-2.81,1.95-4.148.557-1.02.095-1.9-.107-2.829a1.287,1.287,0,0,1-.17-1.027c1.288-1.257,2.761-1.076,4.215-.436a18.478,18.478,0,0,1,3.232,2,18.362,18.362,0,0,0-7.067-6.2c-.813-.444-1.363.22-2.05.157a3.737,3.737,0,0,1,.02-2.548Z" transform="translate(1955.257 4646.058)" fill="#f36c6e"/>
    <path id="Trazado_985379" data-name="Trazado 985379" d="M3745.712,1115.91a7.08,7.08,0,0,1-6.867-6.958,6.49,6.49,0,0,1,6.457-6.6c3.563.049,6.708,3.449,6.661,7.2A6.313,6.313,0,0,1,3745.712,1115.91Z" transform="translate(587.133 5381.052)" fill="#fcc264"/>
    <path id="Trazado_985380" data-name="Trazado 985380" d="M720.107,2558.547l-.381.014c-1.155-.968-2.672-1.458-3.479-2.9a6.319,6.319,0,0,1,.543-7.355,5.915,5.915,0,0,1,7.169-1.506c.28.121.564.234.845.351,2.034,1.846,3.206,4.021,2.5,6.851C726.542,2557.077,724.409,2558.4,720.107,2558.547Z" transform="translate(3420.719 4027.904)" fill="#fdc063"/>
    <path id="Trazado_985381" data-name="Trazado 985381" d="M2761.427,567.205l-2.937.4c-.378.237-.7.186-.9-.227a3.67,3.67,0,0,0-.722-1.258c-.387-.357-.7-1.039-1.306-.8-.5.2-.3.86-.338,1.333-.059.658.217,1.335-.109,1.978l-4.339,3.781c-.458.153-.871.546-1.409.259-.739-.8-1.835-1.185-2.405-2.2-.767-1.358-1.146-2.765-.27-4.147.924-1.456,2.414-1.466,3.929-1.154.469.1.934.215,1.536.355-.249-2.272.038-4.256,2.263-5.363,1.932.774,3.6,1.256,5.742-.178,1.677-1.123,3.426.773,3.248,2.974A7.748,7.748,0,0,1,2761.427,567.205Z" transform="translate(1517.428 5889.653)" fill="#fcc368"/>
    <path id="Trazado_985382" data-name="Trazado 985382" d="M1188.131,3952.707h-15.279c-.291-.771.144-.936.432-1.064,3.133-1.4,6.228-2.726,9.83-2.635,6.619.166,13.246.043,19.869.061a3,3,0,0,1,2.2.449,24.319,24.319,0,0,1-8.9,3.161A12.967,12.967,0,0,1,1188.131,3952.707Z" transform="translate(2992.025 2713.223)" fill="#562878"/>
    <path id="Trazado_985383" data-name="Trazado 985383" d="M6774.812,4179.993a8.145,8.145,0,0,1-2.215-3.268c11.315.026,22.653-.39,33.875,1.578-4.23,1.1-8.562,1.125-12.85,1.3-5.618.234-11.253.057-16.881.078C6776.093,4179.687,6775.386,4179.465,6774.812,4179.993Z" transform="translate(-2256.048 2499.824)" fill="#d6c6e2"/>
    <path id="Trazado_985384" data-name="Trazado 985384" d="M2941.44,1533.255c-.708,1.386-2,.97-3.054.833a14.042,14.042,0,0,1-7.564-3.865c-2.669-2.392-4.642-5.348-6.748-8.2-.08-.69-.09-1.165.764-.482,1.429,1.144,2.864,2.292,4.377,3.319a27.058,27.058,0,0,0,11.388,4.24Q2941.022,1531.178,2941.44,1533.255Z" transform="translate(1350.753 4988.507)" fill="#53287b"/>
    <path id="Trazado_985385" data-name="Trazado 985385" d="M2097.344,503.593a4.645,4.645,0,0,1-4.681-4.826,4.727,4.727,0,1,1,9.447.278A4.647,4.647,0,0,1,2097.344,503.593Z" transform="translate(2129.904 5951.119)" fill="#fcc162"/>
    <path id="Trazado_985386" data-name="Trazado 985386" d="M1912.55,1330.511a4.807,4.807,0,0,1-4.589,4.79,4.572,4.572,0,0,1-4.609-4.492,4.722,4.722,0,0,1,4.618-4.913A4.845,4.845,0,0,1,1912.55,1330.511Z" transform="translate(2307.324 5171.553)" fill="#50c5b2"/>
    <path id="Trazado_985387" data-name="Trazado 985387" d="M3760.9,1424.19a4.6,4.6,0,0,1,.155,9.19,4.657,4.657,0,0,1-4.755-4.594A4.8,4.8,0,0,1,3760.9,1424.19Z" transform="translate(570.776 5079.434)" fill="#aad4fa"/>
    <path id="Trazado_985388" data-name="Trazado 985388" d="M6863.945,1244.441a4.5,4.5,0,1,1,4.54-4.493A4.387,4.387,0,0,1,6863.945,1244.441Z" transform="translate(-2337.549 5256.317)" fill="#4cc6b1"/>
    <path id="Trazado_985389" data-name="Trazado 985389" d="M6749.709,3921.423a3.844,3.844,0,0,1,.685-2.193c8.48.019,16.969-.226,25.453.8a1.025,1.025,0,0,1-1.057.633c-2.25.147-4.5.331-6.754.387C6761.928,3921.208,6755.818,3921.3,6749.709,3921.423Z" transform="translate(-2234.598 2741.137)" fill="#d9c7e3"/>
    <path id="Trazado_985390" data-name="Trazado 985390" d="M1321.654,4007.535l8.156-.029c-2.152,1.6-4.214,3.349-6.482,4.766-2.325,1.453-5.017.582-7.536.552-1.067-.012-.361-.773.041-1.045,1.467-.993,3-1.9,4.454-2.9C1320.8,4008.522,1321.592,4008.377,1321.654,4007.535Z" transform="translate(2858.502 2658.394)" fill="#9951a8"/>
    <path id="Trazado_985391" data-name="Trazado 985391" d="M1009.445,3897.064a193.876,193.876,0,0,1-23.486.863c-.68,0-1.227-.1-1.19-.977.039-.925.7-.867,1.311-.852,4.46.111,8.919.254,13.379.341C1002.629,3896.5,1005.811,3896.3,1009.445,3897.064Z" transform="translate(3168.206 2762.81)" fill="#dacbe4"/>
    <path id="Trazado_985392" data-name="Trazado 985392" d="M3894.248,908.216c1.321-.135,1.683.336,1.159,1.584a5.229,5.229,0,0,1-5.789,3.084c-1.087-.276-1.429-.792-.759-1.806A6.445,6.445,0,0,1,3894.248,908.216Z" transform="translate(446.863 5563.016)" fill="#fcc063"/>
    <path id="Trazado_985393" data-name="Trazado 985393" d="M989.841,3756.83h28.687c-9.544,1.046-19.1.457-28.653.644Z" transform="translate(3163.45 2893.324)" fill="#dfd9e4"/>
    <path id="Trazado_985394" data-name="Trazado 985394" d="M3739.449,368.707c-.1-.034-.477-.044-.628-.233-.273-.343.052-.671.24-.976a7.336,7.336,0,0,1,5.008-3.365c.4-.084.878-.264,1.155.2.213.36-.07.7-.226,1.019A6.843,6.843,0,0,1,3739.449,368.707Z" transform="translate(587.253 6072.998)" fill="#f8b467"/>
    <path id="Trazado_985395" data-name="Trazado 985395" d="M6797.823,1470.51a2.055,2.055,0,0,1,2.069,2.336c-.064,1.22-.612,2.169-2,2.125a2.04,2.04,0,0,1-2.166-2.209A2.083,2.083,0,0,1,6797.823,1470.51Z" transform="translate(-2277.727 5036.023)" fill="#53cbaf"/>
    <path id="Trazado_985396" data-name="Trazado 985396" d="M3987.984,1052.314a1.818,1.818,0,0,1-1.926,1.789,1.743,1.743,0,0,1-1.806-1.9,1.787,1.787,0,0,1,1.929-1.973C3987.272,1050.242,3988,1050.882,3987.984,1052.314Z" transform="translate(357.141 5429.905)" fill="#f9c46c"/>
    <path id="Trazado_985397" data-name="Trazado 985397" d="M2253.192,719.605a1.684,1.684,0,0,1-1.907-1.849,1.712,1.712,0,0,1,1.844-1.814,1.576,1.576,0,0,1,1.754,1.66C2254.87,718.759,2254.362,719.575,2253.192,719.605Z" transform="translate(1981.247 5743.19)" fill="#f9c470"/>
    <path id="Trazado_985398" data-name="Trazado 985398" d="M2049.9,882.958c-.014-1.468.667-2.063,1.691-2.075a1.551,1.551,0,0,1,1.713,1.716c-.024,1.144-.574,1.876-1.791,1.843A1.487,1.487,0,0,1,2049.9,882.958Z" transform="translate(2169.984 5588.61)" fill="#fac66f"/>
    <path id="Trazado_985399" data-name="Trazado 985399" d="M1325.09,3826.989a30.12,30.12,0,0,1,12.444,0Z" transform="translate(2849.26 2828.182)" fill="#ded3e0"/>
    <path id="Trazado_985400" data-name="Trazado 985400" d="M2286.165,1911.853l.011,1.052a12.972,12.972,0,0,1-2.247-6.2c-.053-.635-.192-1.345.426-1.85.092.852-.294,1.757.285,2.555A6.413,6.413,0,0,1,2286.165,1911.853Z" transform="translate(1950.702 4628.966)" fill="#ed7c83"/>
    <path id="Trazado_985401" data-name="Trazado 985401" d="M4898.29,4487.239c1.325-.706,2.742-.185,4.111-.306A12.33,12.33,0,0,1,4898.29,4487.239Z" transform="translate(-499.48 2209.152)" fill="#7390cb"/>
    <path id="Trazado_985402" data-name="Trazado 985402" d="M3795.947,2154.66c-3.789.848-7.636.716-11.48.722-8.183.012-16.367.062-24.551.1-.992.8-2.175.556-3.3.569-1.5.017-3,.069-4.5-.021-36.539.107-73.078.024-109.616.045a9.393,9.393,0,0,1-1.828-.123c-2.032-.484-2.437-2.468-3.521-3.83-.281-.58-.912-.965-.957-1.682a4.484,4.484,0,0,1,3.534-1.416c1.106.059,2.21.036,3.314.036q70,0,140,0c3.311,0,6.622-.045,9.932-.088,4.49-.058,7.611-2.247,8.991-6.518,1.544-4.778.962-9.2-2.777-12.9a8.334,8.334,0,0,0-6.112-2.542c-2.759.012-5.517-.083-8.276-.083q-75.336-.015-150.666-.01a3.217,3.217,0,0,0-.984.038c.6.931,1.3,1.72,1.9,2.586.3.43.99.854.273,1.5-1.355.3-2.509-.43-3.709-.8-6.661-2.037-13.458-3.616-20.03-5.951-4.26-1.514-8.289-3.62-12.659-4.855a83.662,83.662,0,0,0-9.216-2.373,1.774,1.774,0,0,1-1.308-.895c-1.8-2.3-4.037-4.213-5.837-6.516a4.955,4.955,0,0,0-2.1-1.706c-.761-.622-1.923-.991-1.5-2.364a65.016,65.016,0,0,1,6.58-2.681,67.442,67.442,0,0,0-11.23.382,71.558,71.558,0,0,0-9.686-.69c-1.112.023-1.756-.6-1.49-1.774q1.911-8.416,4.432-16.671a1.3,1.3,0,0,1,.324-.439c.985-.708,2.125-.464,3.206-.463,2.021,0,3.651-.45,4.1-2.773.166-.854.991-1.193,1.6-1.692,1.619-1.319,1.5-2.747-.28-3.786-.212-.123-.437-.221-.653-.339-1.9-1.04-1.931-1.327-.355-2.875,1.714-1.683,1.448-2.916-.807-3.784a8.907,8.907,0,0,0-2.9-.359c-.77-.033-1.619.185-2.227-.544.039-.26.167-.536.413-.546,2.11-.089,2.372-1.66,2.786-3.25,1.3-4.978,2.8-9.9,4.055-14.888.13-.519.187-1.115.844-1.313,6.544.09,13.087-.274,19.631.256,3.284.266,6.6.3,9.894.388,5.623.155,11.24.67,16.873.439a5.163,5.163,0,0,1,1.814.2c1.339.813.518,1.876.2,2.748-1.627,4.431-3.269,8.858-4.967,13.263-.746,1.935-1.161,4.01-2.372,5.752-1.339.432-1.528-.708-1.868-1.471a23.075,23.075,0,0,0-2.488-4.691c-.351-.463-.693-1.2-1.406-.922-.676.266-.5,1.041-.5,1.635a9.666,9.666,0,0,0,1.02,3.5c.149.389.332.863-.144,1.152-.369.224-.69-.085-1-.273-.208-.128-.391-.295-.6-.428-.632-.412-1.307-.809-2.028-.284-.7.509-.589,1.289-.462,2.024a13.352,13.352,0,0,0,.86,2.417c.335.883.33,1.585-.919,1.593s-.886.672-.5,1.312a3.554,3.554,0,0,0,.82.985c4.084,3.177,4.211,7.225,2.692,11.713a42.871,42.871,0,0,0-2.243,7.362c-1.149,1.389-.49,2.513.5,3.627.8.9,1.734,1.676,2.476,2.632,4.729,6.023,9.709,11.839,14.574,17.749a3.7,3.7,0,0,0,1.789,1.248,139.893,139.893,0,0,0,15.708-.27c1.765-.168,3.532-.01,5.3-.08,5.486-.026,10.97-.043,16.455.016,5.244-.05,10.488-.07,15.732.014a61.931,61.931,0,0,1,8.376.174,2.94,2.94,0,0,1,.595.376l7.3-.031a5.814,5.814,0,0,1,3.031-.569q10.391.007,20.78,0a43.576,43.576,0,0,0,6.417-.262,6.261,6.261,0,0,0,3.2.632c13.217-.048,26.433.048,39.648.064,7.132-.384,14.266-.108,21.4.01,1.939.032,3.92.291,5.3,1.974a17.493,17.493,0,0,1-1.655,31.078C3796.576,2154.291,3796.267,2154.487,3795.947,2154.66Z" transform="translate(751.86 4495.699)" fill="#984ea8"/>
    <path id="Trazado_985403" data-name="Trazado 985403" d="M6755.447,1950.006c-3.564-1.9-7.463-1.582-11.285-1.638-5.123-.075-10.248-.013-15.372-.01-.373-.016-.771,0-.647-.578a12.106,12.106,0,0,1,2.6-2.569,36.587,36.587,0,0,0,12-20.745c.364-1.739.3-1.849-1.45-1.562-6.833,1.12-13.58,2.643-20.268,4.435-.915.245-1.824.815-2.822.255-.221-.979.341-1.77.645-2.616a109.835,109.835,0,0,0,4.922-17.428,322.817,322.817,0,0,0,6.6-36.243,4.439,4.439,0,0,0-.327-2.319,20.5,20.5,0,0,1,4.035-1.61,15.623,15.623,0,0,0,6.16-3.438c1.736-1.583,4.157-1.25,6.3-1.45,7.322-.684,13.471,2.255,19.037,6.645,1.829,1.443,3.2,3.33,2.655,5.859-.693,3.216-3.2,4.625-6.063,5.449-1.746.5-3.562.753-5.347,1.119-.372.076-.769.209-.832.611-.081.516.442.471.743.621,4.006,2,6.421,5.121,6.8,9.66a1.762,1.762,0,0,0,1.235,1.629c4.291,1.743,7.013,4.769,7.556,9.483a2.3,2.3,0,0,0,.784,1.558c-.542.6-1.326.561-2.018.733-6.1,1.518-8.344,7.848-4.541,12.834.336.441.991.81.57,1.549-.814-.042-1.152.237-.819,1.093a3,3,0,0,0,2.932,1.809,24.828,24.828,0,0,1,6.916,1.6,8.986,8.986,0,0,1,5.744,5.524c1.158,3.428-1.228,7.008-3.972,9.087-4.264,3.23-9.272,4.844-14.206,6.608-2.244.8-4.451,1.675-6.608,2.68A3,3,0,0,0,6755.447,1950.006Z" transform="translate(-2205.024 4668.759)" fill="#fde3c6"/>
    <path id="Trazado_985404" data-name="Trazado 985404" d="M6294.316,1967.4c1.03-.008,1.155.564,1.036,1.444-1.4,10.3-3.041,20.548-5.273,30.7a44.62,44.62,0,0,1-1.6,6.578,2.164,2.164,0,0,1-2.083.9c-6.889.039-13.63,1.581-20.48,2.036-1.654.11-3.3.174-4.957.185a17.547,17.547,0,0,0-4.016.366,2.206,2.206,0,0,1-3-1.635,9.551,9.551,0,0,1-.444-5.253c.591-2.793.894-5.571-.155-8.335-.352-.929.178-1.654.652-2.374,1.162-2.073,3.2-3.42,4.51-5.374.095-.142.333-.077.5,0,3.333-2.845,6.5-5.871,10.11-8.406a68.323,68.323,0,0,1,18.964-9.384Z" transform="translate(-1769.297 4570.348)" fill="#53c6b1"/>
    <path id="Trazado_985405" data-name="Trazado 985405" d="M7454.41,2557.771c-1.359-1.645-2.708-3.279-2.867-5.56-.392-5.585,2.969-9.228,8.855-9.556,6.987.718,9.878,7.4,7.162,12.54C7464.73,2560.542,7457.153,2560.719,7454.41,2557.771Z" transform="translate(-2892.315 4031.229)" fill="#fcba5a"/>
    <path id="Trazado_985406" data-name="Trazado 985406" d="M2248.84,778.064c1.687-10.254,5.842-19.374,11.264-28,4.331-6.894,8.466-13.911,12.692-20.871.17-.28.25-.655.912-.808a106.882,106.882,0,0,1-5.195,10.222c-2.669,4.609-5.314,9.234-8.129,13.754a105.3,105.3,0,0,0-10.677,23.313C2249.447,776.476,2249.131,777.265,2248.84,778.064Z" transform="translate(1983.538 5731.534)" fill="#dfcee6"/>
    <path id="Trazado_985407" data-name="Trazado 985407" d="M2673.647,762.487a1.945,1.945,0,0,1,1.409-.259c-3.705,3.5-6.708,7.4-7.879,12.524a26.555,26.555,0,0,0,.346,12.162c.165.7.351,1.4.587,2.342C2664.094,783.319,2663.471,770.49,2673.647,762.487Z" transform="translate(1593.153 5699.844)" fill="#e1cce4"/>
    <path id="Trazado_985408" data-name="Trazado 985408" d="M2795.63,820.495c16.206,1.337,24.165-8.537,26.68-22.558C2821.969,810.262,2811.546,823.545,2795.63,820.495Z" transform="translate(1471.096 5666.346)" fill="#9f84b7"/>
    <path id="Trazado_985409" data-name="Trazado 985409" d="M3169.8,813.052l1.2-4.485c-.838,6.858-2.147,13.56-6.6,19.156-.2.245-.378.91-.937.355A30.249,30.249,0,0,0,3169.8,813.052Z" transform="translate(1126.366 5656.383)" fill="#b28cab"/>
    <path id="Trazado_985410" data-name="Trazado 985410" d="M2881.838,641.788c-.115-.345-.371-.713-.32-1.03.175-1.07-.692-2.843.663-3.031,1.019-.142,2.258,1.184,2.493,2.66.051.32.308.317.533.374Z" transform="translate(1390.71 5816.502)" fill="#f9935d"/>
    <path id="Trazado_985411" data-name="Trazado 985411" d="M2768.842,956.811c-2.35,2.734-7.841,4.733-10.893,2.937C2762.144,960.824,2765.522,959.018,2768.842,956.811Z" transform="translate(1506.41 5517.452)" fill="#8869a8"/>
    <path id="Trazado_985412" data-name="Trazado 985412" d="M5278.435,564.945l-.389,0a3.331,3.331,0,0,1-.56-2.446,155.474,155.474,0,0,0-1.362-22.161,58.622,58.622,0,0,1-.088-9.367c.1-3.265-.915-6.282-1.708-9.359a3.153,3.153,0,0,0-1.183-1.6c-.478-.394-.952-.794-.885-1.51a2.387,2.387,0,0,1,.534-1.156,8.784,8.784,0,0,0,1.738-5.855q-.041-21.232-.015-42.464,0-19.669,0-39.339c0-.8.023-1.594-.039-2.389-.316-4.055-2.822-6.5-6.879-6.732a37.1,37.1,0,0,1-3.851-.149c-.484-.07-.936-.267-1.415-.374-.883-.2-1.033-.722-.664-1.5a4.387,4.387,0,0,0,.578-2.829c-1.23-5.666-1.309-11.534-3.1-17.11-.8-2.5-2.333-4.719-2.753-7.353.12-.722.207-1.451.363-2.164a2.8,2.8,0,0,1,2.607-2.476,67.485,67.485,0,0,1,11.559.134,8.82,8.82,0,0,1,7.492,8.505c.023.551.018,1.1.018,1.654Q5278.433,480.928,5278.435,564.945Z" transform="translate(-835.086 6051.999)" fill="#898ae3"/>
    <path id="Trazado_985413" data-name="Trazado 985413" d="M4354.42,490.205q-.009-25.013-.018-50.027,0-21.244,0-42.487a10.851,10.851,0,0,1,1.008-5.181c1.52-2.882,3.833-4.552,7.218-4.485,1.717.034,3.434.012,5.151.03,2.74.028,3.8.814,4.288,3.505.643,3.553,2.608,5.714,6.182,6.369a2.006,2.006,0,0,1,.788,2.419,7.379,7.379,0,0,0,.249,3.969c1.266,4.552,2.341,9.107,1.146,13.9-.494,1.976-.062,2.3,2.07,2.334a17.109,17.109,0,0,1,2.747.086c.512.091,1.314.039.945,1.012a5.029,5.029,0,0,1-2.687.383c-4.89.013-9.781.076-14.67-.02a22.15,22.15,0,0,0-8.627,1.267,6.622,6.622,0,0,1-4.944-5.831,25.051,25.051,0,0,0-.22-3.844,48.364,48.364,0,0,1,.226,7.124q.034,33.068.007,66.135a7.484,7.484,0,0,1-.291,3.084A.462.462,0,0,1,4354.42,490.205Z" transform="translate(10.243 6050.511)" fill="#92b1fb"/>
    <path id="Trazado_985414" data-name="Trazado 985414" d="M4742.017,569.183c-1.651-.691-3.378-.241-5.064-.279-1.189-.027-1.734-.377-1.561-1.586a50.562,50.562,0,0,0,.7-5.052,29.973,29.973,0,0,0-1.619-9.868c-.473-1.564-.907-3.091-.183-4.629.4-.862-.368-1.357-.378-2.058l19.516.008c2.47.539,2.613.784,2.744,3.264.2,3.853,1.292,7.584,1.64,11.429a11.909,11.909,0,0,1-.827,6.1c-.693,1.564-.6,1.676,1.17,1.832a3.294,3.294,0,0,1,1.6.337c.381.248.464.54.023.834a3.962,3.962,0,0,1-1.794.314q-6.88.032-13.76,0A2.6,2.6,0,0,1,4742.017,569.183Z" transform="translate(-345.425 5902.729)" fill="#8f9cf6"/>
    <path id="Trazado_985415" data-name="Trazado 985415" d="M5051.315,490.229c-1.029-.606-2.152-.229-3.229-.277-1.014-.046-1.259-.331-.944-1.353.309-1,1.108-1.717,1.252-2.818.56-4.295-.3-8.44-1.242-12.568a7.853,7.853,0,0,1-.225-2.708c.235-1.88-.307-3.185-2.229-3.721,1.652-.023,3.309-.139,4.954-.049,4,.218,6.861-1.317,8.344-5.14.22-.075.536-.231.624.057,1.394,4.562,3.458,8.906,4.25,13.674.239,1.442.286,2.9.43,4.329.227,2.253.957,4.385,1.171,6.609a4.223,4.223,0,0,1-1.135,3.354c.4.625,1.221.043,1.593.611a2.088,2.088,0,0,1-1.812.647q-5,.079-9.992,0A2.089,2.089,0,0,1,5051.315,490.229Z" transform="translate(-636.692 5981.664)" fill="#8c94ee"/>
    <path id="Trazado_985416" data-name="Trazado 985416" d="M5753.675,3012.359a1.937,1.937,0,0,1-1.744.747q-14.216-.051-28.432-.049l.082-.367c1.2-1.411,1.684-3.192,2.463-4.815a100.1,100.1,0,0,1,4.818-9.2c1.79,2.376,4.651,2.1,7.089,2.728a119.271,119.271,0,0,0,15,2.4,8.878,8.878,0,0,1,5.054,1.944c.216.241.354.569.159.82C5756.664,3008.5,5755.6,3010.767,5753.675,3012.359Z" transform="translate(-1272.852 3603.855)" fill="#8b65b8"/>
    <path id="Trazado_985417" data-name="Trazado 985417" d="M3777.764,1976.737a2.589,2.589,0,0,0,.29-.032c1.038-.686,2.177-.433,3.3-.362,1.539.363,3.137.109,4.668.408.727.142,1.911-.089,1.854,1.292-2.014.822-4.126.535-6.161.32-3.418-.361-6.857-.464-10.266-.537-10.284-.217-20.566-.746-30.857-.463a1.39,1.39,0,0,1-1.5-.549c.605-.985,1.6-.725,2.483-.742,9.173-.177,18.34.208,27.507.432,1.852.045,3.169-.01,3-2.31.256,2.578.256,2.613,2.862,2.6A7.29,7.29,0,0,0,3777.764,1976.737Z" transform="translate(586.899 4563.979)" fill="#b0669b"/>
    <path id="Trazado_985418" data-name="Trazado 985418" d="M5883.956,2023.245c-1.2,1.947-3.077,3.321-4.409,5.157-2.838,4.089-6.208,7.776-9,11.9a147.884,147.884,0,0,0-9.912,14.718c-2.165,3.339-3.965,6.891-6.03,10.288-.353.582-.542,1.44-1.531,1.324q-.013-23.042-.034-46.084a4.229,4.229,0,0,1,.346-1.781c2.071-3.158,4.207-6.271,6.579-9.215,2.136,1.848,3.214,4.4,4.443,6.828,1.044,2.066,1.82,4.274,3.448,6,.357.378.7.974,1.353.717.587-.232.328-.844.383-1.3.848-6.927,4.8-11.668,10.611-15.117.842-.5,1.181-.075,1.514.621a18.006,18.006,0,0,1,1.88,7.193C5883.7,2017.409,5883.291,2020.35,5883.956,2023.245Z" transform="translate(-1394.255 4533.742)" fill="#fb826d"/>
    <path id="Trazado_985419" data-name="Trazado 985419" d="M5841.514,2787.946c2.5-3.269,4.1-7.071,6.324-10.505.295-.457.64-.882.962-1.322a11.179,11.179,0,0,0,4.75,1.1c3.239.212,6.354,1.238,9.572,1.653a3.24,3.24,0,0,1,2.721,2.426,22.771,22.771,0,0,1,.669,2.478c.652,2.981,2.626,4.332,5.727,3.822a21.654,21.654,0,0,0,4.033-1.234c3.387-1.269,6.779-2.492,10.5-2.239a8.417,8.417,0,0,1,3.863.994c.481,1.3-.727,1.18-1.305,1.392-2.872,1.051-5.75,2.064-8.515,3.4a48.671,48.671,0,0,0-10.607,6.485c-.623.529-1.211,1.259-2.2,1.136-3.791-2.12-8.042-2.039-12.17-2.623-3.176-.449-6.313-1.19-9.461-1.83-.893-.181-1.8-.744-2.642-.638-1.926.242-2.64-.766-3.031-2.344Q5841.11,2789.022,5841.514,2787.946Z" transform="translate(-1382.696 3812.429)" fill="#8175bc"/>
    <path id="Trazado_985420" data-name="Trazado 985420" d="M5765.264,1078.463q0-9.652-.008-19.3a7.159,7.159,0,0,1,.376-2.525.9.9,0,0,1,1.787.1,13.93,13.93,0,0,1,.395,2.712q-.033,18.845,0,37.689a14.247,14.247,0,0,1-.383,2.715c-.11.577-.444,1.083-1.065,1.089-.683.006-.862-.662-.985-1.165a7.8,7.8,0,0,1-.125-1.822q-.011-9.744-.005-19.488Z" transform="translate(-1311.979 5424.585)" fill="#f3756a"/>
    <path id="Trazado_985421" data-name="Trazado 985421" d="M2556.492,2649.43a1.313,1.313,0,0,0,1.165.394c7.2-.169,14.329-.75,21.167-3.3,2.185-.814,3.572-2.068,3.934-4.511a18.358,18.358,0,0,1,1.429-5.082c.761-1.163,1.717-.787,2.533-.187a24.642,24.642,0,0,0,7.055,3.428c1.127.369,1.328,1.333,1.674,2.236a20.518,20.518,0,0,1-4.652,9.521,25.431,25.431,0,0,1-8.543,3.743q-20.189,5.655-40.682,10.092c-.791.172-1.464.627-2.254.764a7.928,7.928,0,0,0-2.542.169c-2.47.393-3.186-.007-4.378-2.258-2.144-4.048-2.284-7.989.329-11.936a6.4,6.4,0,0,1,5.655-2.785c2.14-.047,4.255-.365,6.386-.408a2.04,2.04,0,0,0,2.04-1.222.4.4,0,0,1,.616-.035c1.86,1.8,2.733,1.907,4.689.578a2.011,2.011,0,0,0,2.46.848A2.769,2.769,0,0,1,2556.492,2649.43Z" transform="translate(1719.311 3943.58)" fill="#fa7e72"/>
    <path id="Trazado_985422" data-name="Trazado 985422" d="M2660.213,1908.68c-.995.678-2.168.527-3.271.691-1.064.158-1.124-.6-1.172-1.353-.766-2.116-.042-4.235.125-6.32.225-2.822.138-5.63.168-8.444a5.175,5.175,0,0,0-.529-2.126,4.362,4.362,0,0,1-.437-1.4c-.5-6.66-2.577-13.029-3.592-19.594-.477-3.083-.994-6.16-1.668-9.211a15.022,15.022,0,0,0-6.369-9.329c-.662-.463-1.612-.732-1.623-1.805q-.2-.724-.393-1.448a6.965,6.965,0,0,1,5.566-2.555c4.909,2.937,7.279,7.789,9.47,12.725a88.032,88.032,0,0,1,6.278,21.778c.087.541.074,1.1.135,1.644.2,1.825-.316,3.648.338,5.516a5.714,5.714,0,0,1-.416,3.756c-.792,2.089-.431,4.346-.586,6.522A44.249,44.249,0,0,1,2660.213,1908.68Z" transform="translate(1615.59 4684.329)" fill="#984fa6"/>
    <path id="Trazado_985423" data-name="Trazado 985423" d="M3392.018,2385.285c-.4-1.84-2.133-1.833-3.4-2.449-1.851-.9-3.85-1.524-5.412-2.944a1.662,1.662,0,0,0-2.173-.125,29.328,29.328,0,0,1,6.451-12.136,2.78,2.78,0,0,0,.965-1.507,34.8,34.8,0,0,1,6.388-3.25c.32-.119.639-.238.95-.381a12.584,12.584,0,0,1,2.261-.692,1.176,1.176,0,0,1,1.032.216c1.04.013,2.08.036,3.12.037a5.824,5.824,0,0,1,2.153.392c2.738,1.076,3.153,3.014.8,4.72-1.563,1.133-.991,1.426.275,2.007,1.072.493,2.41.839,2.473,2.392a2.987,2.987,0,0,1-2.067,2.949,1.359,1.359,0,0,0-.918,1.25c-.08,2.158-1.624,2.717-3.358,2.9-1.333.141-2.688.068-4.034.09-2.162.447-3.274,1.917-3.944,3.9A4.521,4.521,0,0,1,3392.018,2385.285Z" transform="translate(922.471 4200.747)" fill="#fa8a7a"/>
    <path id="Trazado_985424" data-name="Trazado 985424" d="M3389.707,1900.954c-1.823.927-3.79,1.588-5.4,2.917a.825.825,0,0,1-1.148.051c-.635-7.563-1.248-15.129-3.388-22.464-.948-3.247-2.529-6.242-3.765-9.374-.447-1.131-1.024-2.279-.194-3.492l.549.063c2.4.809,3.75,2.821,5.27,4.631a18.542,18.542,0,0,1,3.307,5.2,118.984,118.984,0,0,1,8.014,16.542c.581.883.077,1.749-.075,2.6a7.541,7.541,0,0,0-.2,2.331,5.7,5.7,0,0,1-2.16.579c-.935-.892-.7-2.15-.963-3.238-.437-1.773-.718-3.584-1.122-5.193.48,2.256,1.029,4.674,1.433,7.119C3389.964,1899.81,3390.231,1900.423,3389.707,1900.954Z" transform="translate(927.753 4662.948)" fill="#984fa7"/>
    <path id="Trazado_985425" data-name="Trazado 985425" d="M6499.744,1732.76c.268,2.264-.781,4.163-1.606,6.1a35.816,35.816,0,0,1-6.063,10.174c-.263.291-.548.81-1.037.534-.435-.245-.334-.8-.2-1.171C6492.957,1742.721,6495.434,1737.247,6499.744,1732.76Z" transform="translate(-1991.88 4790.247)" fill="#fa8f68"/>
    <path id="Trazado_985426" data-name="Trazado 985426" d="M6415.135,1803.115a20.048,20.048,0,0,1,.346-5.359c.091-.362.11-.828.51-.874.477-.055.759.383.877.793a29.468,29.468,0,0,1,1.162,10.447,1.489,1.489,0,0,1-1.346,1.494c-.835.017-1.1-.677-1.223-1.518A23.733,23.733,0,0,1,6415.135,1803.115Z" transform="translate(-1921.011 4730.157)" fill="#fa9368"/>
    <path id="Trazado_985427" data-name="Trazado 985427" d="M3640.435,2038.029c-.776-.124-.755-.568-.581-1.206.334-1.23.576-2.485.855-3.729q2.21-7.8,4.418-15.606a3.268,3.268,0,0,1,.867-1.575l1.04.363a2.066,2.066,0,0,1,2.288,1.8c-.625,4.29-2.11,8.359-3.2,12.53-.46,1.764-1.006,3.51-1.365,5.294-.26,1.293-.815,1.92-2.187,1.722a2.85,2.85,0,0,0-1.025.265Z" transform="translate(679.997 4524.881)" fill="#55287b"/>
    <path id="Trazado_985428" data-name="Trazado 985428" d="M3399.417,1879.429c-1.647-2.178-3.263-4.381-4.953-6.525a16.783,16.783,0,0,0-3.623-3.3,18.353,18.353,0,0,1,8.762,4.023c.462.358.816,1,.3,1.406-1.4,1.106-1.155,2.33-.534,3.678A2.063,2.063,0,0,1,3399.417,1879.429Z" transform="translate(913.275 4662.003)" fill="#fad19a"/>
    <path id="Trazado_985429" data-name="Trazado 985429" d="M1947.106,2006.03c.651-1.483,1.326-2.956,1.946-4.452a2.951,2.951,0,0,1,3.554-2.077c-1.47,5.6-2.9,11.2-4.441,16.78-.321,1.166-.174,1.58,1.075,1.511a38.685,38.685,0,0,1,9.641.782,6.028,6.028,0,0,1,4.471,3.047l1.7,1.7c2.519,1.8,4.254,4.355,6.259,6.626,5.9,6.684,11.374,13.734,17.331,20.372.56.624.891,1.437,1.481,1.816-5.179-6.007-10.391-12.217-15.545-18.474-.266-.323-.9-.547-.552-1.185.436-.489.89-.151,1.351-.043a98.607,98.607,0,0,1,17.226,5.659c6.292,2.764,13.011,4.238,19.568,6.2,2.575.769,5.161,1.5,7.742,2.248.785.093,1,.8,1.385,1.311,1.4,1.886,2.742,3.817,4.159,5.692a6.772,6.772,0,0,0,1.183,1.351,37.114,37.114,0,0,1,2.483,2.939c1.7,2.117,1.341,4.1-.917,5.6a15.72,15.72,0,0,1-3.171,1.418,4.932,4.932,0,0,1-1.319.093l-2.948,1.393a1.31,1.31,0,0,1-.82.925,145.977,145.977,0,0,0-12.954,7.3,1.225,1.225,0,0,1-.527.144c-.849-.056-1.192-.757-1.635-1.313-1.435-1.8-2.707-3.72-4.077-5.57a4.284,4.284,0,0,0-2.767-1.881c-1.979-1.074-1.975-1.07-3.455.8a129.129,129.129,0,0,1-11.741,13.009c-.433.417-.813.927-1.484.992-2.392,1.522-3.085,3.615-2.944,6.477.295,5.969-1.866,10.97-6.984,14.426a12.548,12.548,0,0,1-7.3,1.946q-18.1-.018-36.194-.035-44.28-.018-88.561-.026a1,1,0,0,1,.257-1.019c3.889-4.543,8.313-7.869,14.8-6.453a2.578,2.578,0,0,0,2.262-.416c7.146-5.476,15.51-8,24.121-9.913,6.96-1.546,14.062-2.076,21.125-2.83,9.32-1,18.3-3.427,27.276-5.951,5.789-1.628,11.444-3.667,17.173-5.474,4.2-1.325,8.355-2.817,12.656-3.811,1.123.206,1.5,1.187,1.984,2.007a38.55,38.55,0,0,0,4.3,6.119,37.055,37.055,0,0,1-3.857-5.437c-1.218-2.052-2.173-4.241-3.281-6.349-1.079-2.053-1.705-4.291-2.659-6.07.168,1.444,2,2.78,1.292,4.775a3.767,3.767,0,0,1-2.63.586c-11.214.24-22.418-.361-33.629-.477-5.259-.055-10.538-.007-15.793-.3-4.025-.221-8.1-.052-12.066-.963-6.773-1.839-10.37-6.5-10.42-13.484a16.635,16.635,0,0,1,.419-4.921c.4-1.344-.114-1.311-1.247-1.169a30.27,30.27,0,0,1-9.86-.173c-2.86-.58-5.143-1.917-6.314-4.746a3.292,3.292,0,0,0-1.45-1.6c-4.715-2.749-6.829-7.135-7.716-12.292-.566-1.978-.266-4.006-.357-6.01a58.225,58.225,0,0,1,1.1-8.08,101.331,101.331,0,0,1,4.11-15.555c.9-2.45,1.585-4.979,2.614-7.385a3.328,3.328,0,0,1,1.155-1.8l2.287-3.952c.868,2.321.764,4.923,2.1,7.236.668-.431.69-1.108.833-1.723,1.63-6.987,3.634-13.83,7.334-20.068a30.336,30.336,0,0,1,5.012-6.516,6.453,6.453,0,0,1,3.464-1.937c1.975-.759,3.616.23,5.17,1.152a17.532,17.532,0,0,1,7.893,10.882,53.3,53.3,0,0,1,2.068,12.613,38.758,38.758,0,0,1-1.7,12.883,22.771,22.771,0,0,0-.159,14.226,2.733,2.733,0,0,1,.03,2.482c.18,1.478-.393,1.942-1.94,1.941a44.718,44.718,0,0,0-8.96.573,4.225,4.225,0,0,0-2.568,1.616c-3.608,4.529-2.645,9.481.1,13.621.746,1.124,1.881.458,2.873.466.917.008,1.863-1.018,2.753.059.254,1.113-.405,1.8-1.132,2.467a13.275,13.275,0,0,1,7.352-3.049c12.053-1.681,23.342-6.134,34.958-9.392a77.731,77.731,0,0,1,10.028-2.325,4.57,4.57,0,0,1,2.384.063c-1.226-.37-2.84-.4-2.218-2.416A34.924,34.924,0,0,0,1947.106,2006.03Z" transform="translate(2367.383 4580.001)" fill="#55297b"/>
    <path id="Trazado_985430" data-name="Trazado 985430" d="M4188.934,3681.74a4.24,4.24,0,0,1,3.263,2.05c1.707,2.37,3.467,4.7,5.206,7.047,1.705,1.419,2.838,3.324,4.241,5,1.331,1.591,2.633,3.206,3.808,4.514-1.5-1.822-3.105-3.967-4.71-6.11a1.752,1.752,0,0,1,.393-2.807c3.179-2.48,6.383-4.922,9.741-7.154a2.4,2.4,0,0,1,2.019-.647c1.025,1.179,1.508,2.74,2.679,3.818a13.111,13.111,0,0,1,3.478,4.155c2.074,3.26,5.294,4.682,8.7,5.9,4.668,2.39,9.475,4.506,14,7.17a12.622,12.622,0,0,1,3.951,3.482c1.035,2.117.191,3.851-1.257,5.326a13.253,13.253,0,0,1-9.262,3.912c-3.691.149-7.366.076-10.881-1.288a1.4,1.4,0,0,0-1.9.569,2.212,2.212,0,0,1-1.062.98c-1.194,1.121-2.183,2.423-3.5,3.453a7.826,7.826,0,0,1-7.552,1.2c-3.917-1.14-7.39-3.2-10.931-5.12-3.693-1.623-6.691-4.27-9.789-6.747a80.9,80.9,0,0,1-6.667-5.759c-1.572-1.264-3.161-2.509-4.795-3.691-1-.722-1.191-1.413-.3-2.391,3.35-3.66,6.17-7.737,9.143-11.694,1.067-1.422,2.217-2.807,1.637-4.8C4188.541,3681.97,4188.76,3681.816,4188.934,3681.74Z" transform="translate(176.285 2963.697)" fill="#fdfdfd"/>
    <path id="Trazado_985431" data-name="Trazado 985431" d="M4116.926,3666.23c.975,2.142-.306,3.651-1.453,5.2a138.918,138.918,0,0,1-9.525,12.128c-.587.634-.479.93.162,1.407a35.614,35.614,0,0,1,5.017,3.994,4.144,4.144,0,0,1,.756,1.838,19.272,19.272,0,0,0,4.313,9.9,1.128,1.128,0,0,1,.4.968c-3,.017-6,.138-8.994.015-2.228-.091-3.361-1.9-4.346-3.57-2.508-4.251-2.9-8.9-2.1-13.669.2-1.182.251-2.138-.765-2.913a161.433,161.433,0,0,0,13.938-15.618C4115.546,3664.294,4116.1,3665.85,4116.926,3666.23Z" transform="translate(248.292 2979.207)" fill="#fa806f"/>
    <path id="Trazado_985432" data-name="Trazado 985432" d="M4879.3,4103.843a7.655,7.655,0,0,0,.578-1.136c.432-1.352,1.128-1.487,2.457-.981a23.915,23.915,0,0,0,13.511.968,12.144,12.144,0,0,0,6.346-3.443c1.417-1.442,1.976-3.055.995-4.977.753-.727,1.616-.449,2.415-.182,9.527,3.177,19.113,6.185,28.456,9.891.59.234,1.343.34,1.523,1.154-5.673-.105-11.352-.1-17.019-.35-4.7-.208-9.4-.249-14.095-.258a3.373,3.373,0,0,0-1.964-.25c-6.963-.054-13.927-.083-20.89-.144A3.7,3.7,0,0,1,4879.3,4103.843Z" transform="translate(-481.683 2577.513)" fill="#fb7f6c"/>
    <path id="Trazado_985433" data-name="Trazado 985433" d="M4276.676,4056.3c-2.98-2.686-4.287-6.227-5.087-10.016-.187-.885-.26-1.793-.386-2.69a184.927,184.927,0,0,0,16.218,12.725A98.95,98.95,0,0,1,4276.676,4056.3Z" transform="translate(88.216 2624.576)" fill="#fbc060"/>
    <path id="Trazado_985434" data-name="Trazado 985434" d="M5028.689,3878c-9.776-4.027-19.874-7.132-29.877-10.51a5.753,5.753,0,0,0-2.517-.352c-2.277-2.488-5.231-3.969-8.165-5.471-3.148-1.612-6.32-3.178-9.481-4.765,1.36-1.064,3.024-.872,4.566-.989,8.611-.656,17.227-1.271,25.846-1.792,5.684-.344,11.38-.551,17.066-.875,6.6-.376,13.221-.449,19.816-.993,3.052-.252,6.122-.166,9.183-.3,4.1-.176,8.192-.6,12.3-.489,2.213.337,2.338.546,1.949,2.7-.955,5.268-1.291,10.522.435,15.723a18.5,18.5,0,0,0,4.352,7.115c.608.63,1.5,1.135,1.363,2.235-7.966.1-15.918-.34-23.876-.567-6.675-.191-13.351-.342-20.027-.519C5030.644,3878.125,5029.667,3878.053,5028.689,3878Z" transform="translate(-574.791 2804.646)" fill="#fdba58"/>
    <path id="Trazado_985435" data-name="Trazado 985435" d="M6405.478,3872.364c-1.106-1.222-2.318-2.366-3.3-3.681a20.492,20.492,0,0,1-4.093-13.033c.06-3.121,0-6.242.928-9.256.439-1.427-.5-1.181-1.268-1.242-.007-.262.087-.545.327-.585,2.6-.442,5.214-.832,7.776.231-.133,2.191-1.028,4.218-1.264,6.414a22.579,22.579,0,0,0,4.422,16.8,14.416,14.416,0,0,0,.979,1.315c1.792,1.858,3.614,3.632,6.572,3.093a3.414,3.414,0,0,1,2.16.169c-1.945.746-3.9,1.1-5.883.135l-.735-.011C6409.915,3872.171,6407.674,3872.69,6405.478,3872.364Z" transform="translate(-1904.743 2811.52)" fill="#fc9f63"/>
    <path id="Trazado_985436" data-name="Trazado 985436" d="M1861.306,3612.261c-15.911,5.008-31.6,10.788-47.987,14.155a147.662,147.662,0,0,1-15.22,2.011c-11.654,1.152-23.125,3.026-33.7,8.5a21,21,0,0,0-4.92,3.166,3.226,3.226,0,0,1-3.431.826c-3.729-.989-7.052.129-9.989,2.345a25.38,25.38,0,0,0-4.672,4.64l-6.616-.01c7.71-2.927,11.854-8.759,13.7-16.573,2.032-8.6-2.232-20.554-10.074-24.661a5.761,5.761,0,0,1-1.075-.971c.625-.769,1.518-.635,2.346-.668,2.537-.1,5.074.132,7.611.017,8.074-.05,16.148-.062,24.221.012,6.518-.081,13.036,0,19.554-.051,1.1-.009,2.116.645,3.233.306,3.711.924,7.533.819,11.293.951,9.609.336,19.233.214,28.845.507q11.3.344,22.594.321c.644,0,1.559.41,1.779-.728C1860.015,3607.343,1861.544,3610.95,1861.306,3612.261Z" transform="translate(2465.312 3035.624)" fill="#994fa8"/>
    <path id="Trazado_985437" data-name="Trazado 985437" d="M862.986,2504.888l-9.933.135q-10.317-.026-20.634-.054c-.729,0-1.457-.047-2.185-.071L824,2503.1c-3.152-1.109-6.331-2.146-9.449-3.343-6.951-2.667-13.952-5.254-19.936-9.876a20.272,20.272,0,0,1-2.671-2.205c-.789-.864-1.173-1.813.208-2.729,4.221-2.8,8.423-5.615,11.835-9.452,1.993-2.241,3.653-4.656,4.055-7.641a9.815,9.815,0,0,0-1.629-6.439c-.909-1.47-1.269-3.492-3.383-3.959.358-.4.879-.386,1.342-.52a1.479,1.479,0,0,0,1.274-1.562c-.071-.938-.709-1.358-1.612-1.441-.469-.043-.985.192-1.4-.212a4.642,4.642,0,0,0,.348-1.228c-.018-6.93,4.34-11.057,9.34-14.854,3.556-2.7,7.771-3.769,11.859-5.184a10.478,10.478,0,0,0,3.918-1.9c2.218,2.882,4.081,6.046,6.787,8.541.982.7.868,1.815,1,2.8.421,3.132.81,6.267,1.436,9.365,1.41,7.667,3.638,15.046,7.681,21.786a2.7,2.7,0,0,1,.478,1.173c-.3,1.044-1.292,1.227-2.076,1.645a52.762,52.762,0,0,0-11.68,8.225c-1.723,1.635-1.77,2.017-.049,3.709a51.912,51.912,0,0,0,8.651,6.792c6.367,4.039,13.353,6.653,20.473,8.978C861.591,2503.822,862.7,2503.73,862.986,2504.888Z" transform="translate(3349.585 4136.288)" fill="#fde3c7"/>
    <path id="Trazado_985438" data-name="Trazado 985438" d="M961.811,2793.93c1.274-.5,2.477-.672,3.317.744a1.968,1.968,0,0,1-.507,2.6c-.7.706-1.592.365-2.414.392C961.048,2796.53,960.569,2795.321,961.811,2793.93Z" transform="translate(3190.405 3796.078)" fill="#fabd61"/>
    <path id="Trazado_985439" data-name="Trazado 985439" d="M6675.2,835.324a113.212,113.212,0,0,1-8.978,8.951c-.525.491-1.042.618-1.6.068a46.94,46.94,0,0,1-6.613-8.694,16.086,16.086,0,0,1,5.5,3.987c1.431,1.413,2.485,1.454,4.068.334A44.671,44.671,0,0,1,6675.2,835.324Z" transform="translate(-2148.655 5631.308)" fill="#fdfcf8"/>
    <path id="Trazado_985440" data-name="Trazado 985440" d="M3152.2,1216.344a9.983,9.983,0,0,1,.765-3.726c.457-1.171,1.089-1.46,1.879-.3a5.791,5.791,0,0,1,.99,5.346c-.345,1-.89,2.027-2.155,1.832-1.151-.178-1.4-1.218-1.477-2.239C3152.176,1216.955,3152.2,1216.649,3152.2,1216.344Z" transform="translate(1136.936 5278.687)" fill="#512679"/>
    <path id="Trazado_985441" data-name="Trazado 985441" d="M3409.98,1201.258a17.965,17.965,0,0,1,.31-1.825c.2-.74.27-1.772,1.244-1.781.856-.008.957.973,1.2,1.637a6.492,6.492,0,0,1,.213,3.769c-.182.808-.456,1.639-1.414,1.651-1,.013-1.217-.868-1.364-1.665C3410.073,1202.509,3410.052,1201.96,3409.98,1201.258Z" transform="translate(895.338 5291.741)" fill="#5e2976"/>
    <path id="Trazado_985442" data-name="Trazado 985442" d="M1455.223,1702.615q-.083-.155-.163-.311a40,40,0,0,0-.077-7.326c.092-.593.488-.751,1.021-.712a4.594,4.594,0,0,0,2.193.839c11.727,2.67,20.764,9.594,28.739,18.188a4.642,4.642,0,0,1,.575,1.119.9.9,0,0,1-.488.725,6.806,6.806,0,0,0-3.412,4.744,2.816,2.816,0,0,1-.734,1.454c-1.56,1.14-1.872,2.9-2.272,4.608-.263,1.118-.371,2.268-.581,3.4-.1.548.011,1.286-.871,1.351-.867-1.426-.4-2.966-.362-4.465.012-.485.189-.962.179-1.454-.009-.421.044-.954-.455-1.087-.536-.143-.68.41-.882.763-.791,1.379-1.5,2.806-2.327,4.163-.377.619-.834,1.359-1.716,1.061s-.853-1.183-.718-1.879c.376-1.939.172-3.908.411-5.85.078-.634.329-1.351-.565-1.82-.666,1.178-.375,2.521-.735,3.721-.192.64-.179,1.46-.951,1.641-.859.2-1.311-.516-1.69-1.146-.441-.733-.818-1.506-1.258-2.24-1.47-2.452-3.225-4.593-5.986-5.72a15.334,15.334,0,0,1-3.914-2.371c-1.964-1.613-3.351-3.541-3.123-6.285C1455.2,1706.026,1454.9,1704.311,1455.223,1702.615Z" transform="translate(2727.526 4826.328)" fill="#5db1b8"/>
    <path id="Trazado_985443" data-name="Trazado 985443" d="M1962.571,2197.977l-3.312,9.2a23.252,23.252,0,0,0-1.179,2c-1.182,1.723-2.539,1.715-3.8-.012a11.907,11.907,0,0,1-.339-1.943c-.618.49-.63,1.243-1.137,1.66-1.234,1.026-2.764,1.134-4.253,1.363-.24.037.037-.089-.175-.007-2.782,1.081-3.751-.819-4.67-2.814.162-.74.83-1.008,1.335-1.427,4.31-3.58,5.9-8.161,5.144-13.669a5.236,5.236,0,0,0-2.4-3.793.715.715,0,0,1,.514-.475,10.623,10.623,0,0,0,5.1-2.987c.973-.1,1.172.731,1.544,1.317C1957.419,2190.3,1959.82,2194.252,1962.571,2197.977Z" transform="translate(2269.503 4366.354)" fill="#61abba"/>
    <path id="Trazado_985444" data-name="Trazado 985444" d="M1904.458,2025.567c-1,2.5-3.162,3.083-5.512,3.365a2.151,2.151,0,0,1-2.083-.1,9.034,9.034,0,0,1-4.845-4.425c-.457-.887-.9-1.908-.041-2.876.381-3.024,1.625-5.448,4.621-6.656C1902.769,2014.567,1906.153,2020.246,1904.458,2025.567Z" transform="translate(2318.441 4525.862)" fill="#fdc366"/>
    <path id="Trazado_985445" data-name="Trazado 985445" d="M1421.058,1581.569l-1.021.712c-1.863-.911-1.5-2.832-1.884-4.37-.182-.735-.271-1.53-.429-2.294.119-.554-.323-1.471.379-1.595.8-.14.876.838,1.094,1.431a17.3,17.3,0,0,0,1.474,3.5Q1420.866,1580.26,1421.058,1581.569Z" transform="translate(2762.472 4939.025)" fill="#fa856e"/>
    <path id="Trazado_985446" data-name="Trazado 985446" d="M4896.833,3777.382c-2.128,0-4.256-.013-6.384.007-.585.005-1.232-.187-1.719.348-7.267.125-14.517.656-21.786.827-5.239.124-10.482.454-15.722.719-7.066.357-14.133.689-21.2,1.1-5.474.317-10.94.778-16.417,1.088-4.681.265-9.35.755-14.024,1.146-5.893-1.285-8.985-5.8-12-10.4q41.656-.016,83.313-.029c9.624,0,19.249.044,28.873.067a9.535,9.535,0,0,1-2.565,4.768Z" transform="translate(-395.727 2878.937)" fill="#fa7f6a"/>
    <path id="Trazado_985447" data-name="Trazado 985447" d="M6532.65,3777.892a26.186,26.186,0,0,1,2.565-4.768l7.734-.009c-1.336,3.193-3.257,5.458-7.2,4.8A18.762,18.762,0,0,0,6532.65,3777.892Z" transform="translate(-2031.174 2878.061)" fill="#fc9f64"/>
    <path id="Trazado_985448" data-name="Trazado 985448" d="M6637.959,4297.575l5.883-.134c6,.376,12,.077,18,.232a4.507,4.507,0,0,1,2.339.272q-8.61.016-17.22.028a18.685,18.685,0,0,0-5.962.62A2.4,2.4,0,0,1,6637.959,4297.575Z" transform="translate(-2129.868 2386.673)" fill="#7390cb"/>
    <path id="Trazado_985449" data-name="Trazado 985449" d="M7233.366,1439.752a1.509,1.509,0,0,1-1.791-1.6,1.616,1.616,0,0,1,1.639-1.656,1.64,1.64,0,0,1,1.8,1.675A1.46,1.46,0,0,1,7233.366,1439.752Z" transform="translate(-2686.193 5067.905)" fill="#f8fbfd"/>
    <path id="Trazado_985450" data-name="Trazado 985450" d="M7321.127,1437.451c-.051,1.022-.521,1.657-1.538,1.712a1.511,1.511,0,0,1-1.77-1.607,1.471,1.471,0,0,1,1.51-1.676A1.562,1.562,0,0,1,7321.127,1437.451Z" transform="translate(-2767.02 5068.483)" fill="#f6fbfd"/>
    <path id="Trazado_985451" data-name="Trazado 985451" d="M7319.387,1599.57c1.11.031,1.734.566,1.73,1.676a1.472,1.472,0,0,1-1.576,1.616,1.511,1.511,0,0,1-1.712-1.668A1.5,1.5,0,0,1,7319.387,1599.57Z" transform="translate(-2767.03 4915.07)" fill="#f7fcfd"/>
    <path id="Trazado_985452" data-name="Trazado 985452" d="M7186.921,1521.272a1.45,1.45,0,0,1-1.629,1.348c-1.006-.008-1.684-.537-1.626-1.569a1.637,1.637,0,0,1,1.661-1.641C7186.23,1519.416,7186.967,1519.929,7186.921,1521.272Z" transform="translate(-2641.292 4990.195)" fill="#f6fbfd"/>
    <path id="Trazado_985453" data-name="Trazado 985453" d="M7367.851,1520.382c-.236.891-.523,1.7-1.63,1.689a1.475,1.475,0,0,1-1.647-1.56c-.036-1.009.451-1.7,1.486-1.691A1.945,1.945,0,0,1,7367.851,1520.382Z" transform="translate(-2810.835 4990.748)" fill="#f7fcfd"/>
    <path id="Trazado_985454" data-name="Trazado 985454" d="M7235.134,1601.02a1.193,1.193,0,0,1,1.436-1.364,1.493,1.493,0,0,1,1.54,1.679c-.013,1.016-.543,1.664-1.588,1.588S7235.11,1602.088,7235.134,1601.02Z" transform="translate(-2689.528 4914.994)" fill="#f9fcfd"/>
    <path id="Trazado_985455" data-name="Trazado 985455" d="M1557.956,853.265q-3.02,5.6-6.043,11.2c-.421.778-.923.89-1.527.151-.308-.376-.673-.706-1.015-1.054-2.92-2.973-2.781-2.368.422-4.8,2.584-1.964,5.239-3.836,7.863-5.748Z" transform="translate(2641.026 5614.731)" fill="#fcfdfd"/>
    <path id="Trazado_985456" data-name="Trazado 985456" d="M1485.175,1872.215a2.411,2.411,0,0,1,1.555,1.881c.1.4.453,1.289.868.827,1.25-1.4,2.877.077,4.226-.785a22.866,22.866,0,0,1,2.18-.82c.7,1.132.048,2.247-.069,3.36a15.562,15.562,0,0,0-.414,4.365,28.322,28.322,0,0,0,1.451-5.827c.132-.577-.124-1.427.875-1.526,1.315,1.474,2.079,1.445,3.246-.092.466-.614.732-1.411,1.522-1.745-1.37,4.583-2.759,9.16-3.769,13.841-.115.532-.2,1.07-.3,1.605-2.167,1.455-4.437,1.021-6.668.261-.868-.3-1.146-1.221-1.381-2.063-.956-3.426-2.877-6.475-3.856-9.893a1.073,1.073,0,0,0-.922-.778,81.5,81.5,0,0,1-11.981-3.3,31.7,31.7,0,0,0-5.236-.938,8.241,8.241,0,0,1-4.657-2.371,14.8,14.8,0,0,0-3.684-2.7c-1.626-.866-2.823-2.122-2.625-4.229a2.783,2.783,0,0,0-.181-1.956,94.328,94.328,0,0,1-.611-10.808c-.283-6.422-.283-12.857-.383-19.286a3.2,3.2,0,0,1,.244-1.969,25.031,25.031,0,0,1,.016,3.3c-.591,4.813,2.1,7.689,6,9.42a16.222,16.222,0,0,1,8.414,8.675c.256.565.65,1.265,1.249,1.185.8-.107.431-.982.562-1.532a9.637,9.637,0,0,0,.358-2.889c-.047-.708.05-1.428.953-1.493,1.087-.078,1.254,1.025,1.14,1.523-.471,2.051-.013,4.145-.45,6.18-.175.813-.62,2,.2,2.324.942.376,1.212-.92,1.609-1.591.743-1.256,1.406-2.562,2.043-3.876.276-.569.518-1.254,1.225-1.127a1.268,1.268,0,0,1,.98,1.549,34.748,34.748,0,0,0-.348,6.377c.822,1.021.506,2.234.481,3.358a26.086,26.086,0,0,0,2.149,10.88C1482.378,1872.346,1482.353,1872.356,1485.175,1872.215Z" transform="translate(2728.147 4701.676)" fill="#699fbd"/>
    <path id="Trazado_985457" data-name="Trazado 985457" d="M1470.73,2337.69c.475.35.4.869.378,1.346-.122,2.391,1.129,3.725,3.232,4.634a8.194,8.194,0,0,1,2.744,2.075,7.394,7.394,0,0,0,5.378,2.763c3.673.133,6.909,1.9,10.413,2.661,1.464.318,3.04.38,4.3,1.379.047.037.116.085.164.075,4.187-.866,3.486,2.97,4.543,4.937.615,1.143.972,2.478,1.705,3.607a4.052,4.052,0,0,1,.667,1.87c.213,2.18.9,2.835,3.126,2.976a13.694,13.694,0,0,0,4.544-.356q-.557,4.058-1.113,8.117a1.865,1.865,0,0,0-.145.708c-.08.618.328,1.447-.575,1.739a1.905,1.905,0,0,1-2.084-.837c-1.5-1.777-2.824-3.691-4.228-5.544a2.681,2.681,0,0,0-2.4-1.427c-6.4.62-12.491-1.045-18.621-2.484a68.9,68.9,0,0,0-9.008-1.373c-1.136-4.089-1.233-8.349-2.05-12.49-.307-3.512-.638-7.021-.907-10.536C1470.7,2340.255,1470.747,2338.97,1470.73,2337.69Z" transform="translate(2712.77 4223.317)" fill="#6f90bc"/>
    <path id="Trazado_985458" data-name="Trazado 985458" d="M3419.22,881.659c3.021,1.042,5.023,3.246,6.657,5.846a26.059,26.059,0,0,1,2.258,5.011c.7,1.927,1.341,3.878,2.858,5.4a3.9,3.9,0,0,1-2.706-2.463,31.713,31.713,0,0,1-1.362-3.405A18.921,18.921,0,0,0,3419.22,881.659Z" transform="translate(886.679 5587.884)" fill="#d1b6cb"/>
    <path id="Trazado_985459" data-name="Trazado 985459" d="M3186.177,1510.78c1.392,0,2.428-.006,3.463,0,.293,0,.65-.04.768.327.108.339-.162.557-.366.771a4.273,4.273,0,0,1-2.69,1.426,15.272,15.272,0,0,1-7.01-.727c-.372-.149-.974-.2-.928-.708.052-.569.674-.66,1.135-.693C3182.542,1511.036,3184.512,1510.519,3186.177,1510.78Z" transform="translate(1111.423 4998.351)" fill="#f77571"/>
    <path id="Trazado_985460" data-name="Trazado 985460" d="M749.085,2911.705a3.391,3.391,0,0,1-.271,1.779c-.262.442-.617.916-1.125.671-.551-.266-.095-.758.067-1.1a4.341,4.341,0,0,0,.225-1.792c.022-.537-.08-1.361.566-1.358.95,0,.378.93.532,1.434A1.293,1.293,0,0,1,749.085,2911.705Z" transform="translate(3390.638 3687.045)" fill="#fdefe0"/>
    <path id="Trazado_985461" data-name="Trazado 985461" d="M775.978,2847.032c-.019.725-.183,1.238-.859,1.293a.483.483,0,0,1-.515-.708c.228-.519.081-1.376.767-1.493S775.859,2846.758,775.978,2847.032Z" transform="translate(3365.217 3746.833)" fill="#fdefe0"/>
    <path id="Trazado_985462" data-name="Trazado 985462" d="M2592.013,1967.159a11.623,11.623,0,0,0-.415-1.787c-2.581-6.434-.465-12.622.83-18.9a41.55,41.55,0,0,0-1.967-23.661,16.414,16.414,0,0,0-6.281-7.956,10.508,10.508,0,0,0-5.472-1.934c1.355-1.2,2.462-2.738,4.335-3.249,2.231,1.694,4.6,3.185,6.238,5.6,2.331,3.442,2.631,7.434,3.374,11.317,1.054,5.516,2.016,11.051,3.176,16.544.456,2.162.539,4.509,1.134,6.445,1.038,3.376.807,6.628.76,9.935-.04,2.8-.487,5.593-.753,8.39-.357.614-.322,1.759-1.493,1.351C2594.192,1968.8,2592.1,1969.6,2592.013,1967.159Z" transform="translate(1674.391 4624.448)" fill="#fcc368"/>
    <path id="Trazado_985463" data-name="Trazado 985463" d="M2297.544,1934.369a26.37,26.37,0,0,1-1.525-4.447c.081-.647.2-1.324,1.1-.929a16.027,16.027,0,0,1,8.4,7.622C2302.9,1935.574,2300.855,1932.755,2297.544,1934.369Z" transform="translate(1939.323 4606.451)" fill="#5b2576"/>
    <path id="Trazado_985464" data-name="Trazado 985464" d="M4409.617,989.042c-1.489-.868-3.163-.6-4.765-.782-.658-.074-1.312-.18-1.967-.271a3.428,3.428,0,0,1-.6-2.44q-.012-29.7.006-59.391c0-2.3.439-4.418,2.817-5.526a10.864,10.864,0,0,1,5.943-1.491c6.722.037,13.445-.022,20.167-.045l18.03-.018h13.616l4.227.085c4.48.093,7.507,3.043,7.525,7.545.051,12.2.036,24.406.037,36.609,0,15.7-.049,31.4.021,47.1.013,2.843-.557,5.316-2.615,7.343-.994,1.586-2.624,1.893-4.275,1.987-2.061.118-4.131.074-6.2.029-3.625.092-7.251.068-10.876.029-3.918-.146-7.837.158-11.756.005-4.168-.194-8.336.115-12.5,0-5.284-.178-10.568.1-15.854.023a16.3,16.3,0,0,1-2.907-.13c-1.722-1.032-3.243-4.774-2.705-6.655q3.629-9.742,7.252-19.487a4.213,4.213,0,0,0,.477-1.909A30.619,30.619,0,0,1,4409.617,989.042Z" transform="translate(-34.625 5552.815)" fill="#fdfdfd"/>
    <path id="Trazado_985465" data-name="Trazado 985465" d="M4674.627,3332.809c1.039-.488,2.118-.908,3.11-1.479,2.031-1.17,2.408-3.011,1-4.859-.84-1.1-1.788-2.125-2.687-3.183.136-1.055.985-.8,1.566-.73a37.84,37.84,0,0,0,4.773.117q57.838.012,115.676-.015c4.2,0,8.395.105,10.728.055-2.11.092-6.083-.067-10.059-.063q-59.218.064-118.435.014a13.684,13.684,0,0,1-5.226-.562l-5.331-7.309c-.9-1.195-1.771-2.405-2.691-3.58-.776-.991-.066-.863.575-.818a5.744,5.744,0,0,0,2.185.139q74.321.012,148.643.007a14.2,14.2,0,0,1,1.471.011c.612.063,1.48-.331,1.692.617.2.913-.421,1.5-1.143,1.906a6.319,6.319,0,0,1-3.24.455q-19.868.012-39.737,0c-10.547,0-21.1-.245-31.64.061-13.978.405-27.953.173-41.927.336-2.991.035-5.975.57-8.184.181,3.424.116,7.645.386,11.852.374,15.818-.044,31.632.33,47.444.535,11.339.147,22.688-.147,34.014.312,9.2.373,18.388.161,27.579.308a7.033,7.033,0,0,1,2.182.267,3.017,3.017,0,0,1,2.179,3.725,9.314,9.314,0,0,0-.2,4.669c.419,2.09-.288,2.786-2.411,2.786q-64.48,0-128.959,0c-.341,0-.68-.024-.857-.032-.408.021-.105.42-.19.19-.009-.025.03-.025.093-.053a3.843,3.843,0,0,1,1.614-.089q63.927-.012,127.854-.008c2.4,0,2.581.174,2.639,2.571.007.246.007.491,0,.736-.049,2.6-.385,2.937-2.991,2.937h-118.84c-7.481,0-14.963.014-22.444-.029C4675.76,3333.313,4674.92,3333.827,4674.627,3332.809Z" transform="translate(-282.449 3311.743)" fill="#fdfcfb"/>
    <path id="Trazado_985466" data-name="Trazado 985466" d="M4688.288,3332.321c.477.583,1.137.349,1.719.349q70.748.021,141.494.056c1.739,0,2.214-.576,2.176-2.237-.085-3.7-.012-3.7-3.667-3.7l-127.141-.015h-1.993c0-.113,0-.226-.008-.338h2.042l128.43-.021c2.724,0,3.437-.95,2.385-3.438a3.221,3.221,0,0,1,.15-3.086c1.146-2.2-.054-4.015-2.56-4.129-.184-.008-.368-.006-.552-.005-19,.132-38-.343-57-.5-10.229-.083-20.472.141-30.687-.336-7.907-.369-15.813.089-23.7-.358-4.322-.245-8.682.021-13.042-.847.482-.636,1.2-.5,1.862-.53,11.759-.516,23.528-.207,35.289-.421,29.61-.541,59.222-.213,88.833-.332.246,0,.491,0,.736,0,1.066-.024,1.927-.634,1.908-1.591-.023-1.113-1.165-.584-1.775-.584q-46.826-.044-93.653-.023-28.06,0-56.119-.026c-.711,0-1.48.232-2.127-.3,1.164-.022,2.326-.064,3.49-.064q74.049.005,148.1.019c2.575,0,5.15.018,7.726.037a9.929,9.929,0,0,1,10.009,7.36,13.281,13.281,0,0,1-.609,10.192,9.235,9.235,0,0,1-8.944,5.579q-39.092-.042-78.185.018-36.979.011-73.957-.005c-.576,0-1.239.271-1.708-.336Z" transform="translate(-296.109 3312.231)" fill="#d8c8e3"/>
    <path id="Trazado_985467" data-name="Trazado 985467" d="M5093.149,2514.35l11.047,0a10.538,10.538,0,0,1,1.665,5.9c.21,4.259-.275,8.593.885,12.758,1.795,6.442,2.161,13.133,3.6,19.637.479,2.158.41,4.44,1.227,6.552l-15.818.008c-1.735-.477-2.236-1.707-2.485-3.4-.78-5.323-1.814-10.61-2.584-15.932-.8-5.515-2.112-10.935-2.816-16.461-.331-2.59.421-5.111.476-7.679.018-.838.635-1.238,1.516-1.258A13.35,13.35,0,0,0,5093.149,2514.35Z" transform="translate(-677.076 4057.754)" fill="#8d98f3"/>
    <path id="Trazado_985468" data-name="Trazado 985468" d="M4862.964,2514.274c-.829.615-1.782.3-2.667.289-1.253-.014-1.579.493-1.773,1.72-1.085,6.866.913,13.381,2.046,20,.635,3.709,1.076,7.45,1.684,11.164a82.144,82.144,0,0,1,1.483,9.533c.054,1.2,1.446,1.244,1.835,2.151l-16.56.006a2.6,2.6,0,0,1-1.626-2.243c-.435-6.532-1.972-12.9-2.856-19.371-.415-3.033-1.15-6-1.742-9a44.758,44.758,0,0,1-.578-9.863,8.274,8.274,0,0,1,.4-2.343,2.55,2.55,0,0,1,2.739-1.935,36.336,36.336,0,0,0,5.845-.119Z" transform="translate(-446.891 4057.83)" fill="#90a6fb"/>
    <path id="Trazado_985469" data-name="Trazado 985469" d="M4351.89,2513.57l19.165.051c-.256.992-1.113.794-1.785.838-1.4.091-2.815.012-4.223.051a2.2,2.2,0,0,0-2.28,1.943c-.611,2.47-.129,4.89.321,7.28.769,4.086,1.571,8.172,2.306,12.261.6,3.349.9,6.77,1.4,10.154a103.764,103.764,0,0,1,.995,11.13c.04,1.045-.112,1.445-1.211,1.375-2.311-.147-4.637.19-6.945-.173-2.531-2.153-4.337-4.938-6.461-7.444-2.921-3.446-5.761-6.961-8.639-10.444a2.6,2.6,0,0,1-.706-1.26c-.979-2.283-.521-4.643-.383-6.985a2.959,2.959,0,0,1,1.434-1.6c.57-.359,1.152-.7,1.709-1.079,5.724-3.917,6.149-7.051,5.321-13.647C4351.8,2515.2,4351.243,2514.393,4351.89,2513.57Z" transform="translate(20.726 4058.485)" fill="#91c0f6"/>
    <path id="Trazado_985470" data-name="Trazado 985470" d="M4604.55,2559.139h7.956a5.729,5.729,0,0,1-.555-3.278c-.021-4.588-1.093-9.06-1.508-13.586-.425-4.633-1.649-9.09-2.195-13.677-.287-2.412-.912-4.773-1.283-7.182a16.771,16.771,0,0,1,.3-5.251c.171-1.1,1.152-1.554,2.361-1.6,2.116-.074,4.261.392,6.349-.286l12.518-.007c-1.462.669-3.016.346-4.5.28-2.907-.128-3.681.517-3.917,3.926-.349,5.029.532,9.931,1.553,14.854,1.072,5.167,1.863,10.4,2.529,15.65.352,2.768,1.322,5.453,1.066,8.31-.075.835.833,1.169,1.095,1.85q-9.908.145-19.817.28C4605.844,2559.432,4605.14,2559.62,4604.55,2559.139Z" transform="translate(-224.192 4057.825)" fill="#91b4fa"/>
    <path id="Trazado_985471" data-name="Trazado 985471" d="M5352.958,2536.34a5.606,5.606,0,0,1-1.509-4.52c.056-2.887-1.025-5.613-1.46-8.436-.472-3.064-.991-6.122-1.432-9.191-.373-2.589-1.29-5.045-1.582-7.678-.314-2.83.1-5.639-.234-8.458-.234-1.98.049-4.026-1.36-5.725-.111-.133.124-.553.2-.84,1.525-.023,3.052-.121,4.572-.051a9.47,9.47,0,0,0,5.741-1.484c.555,1.147,2.315,1.3,2.425,2.739.137,1.79.937,3.386,1.281,5.115.618,3.1.36,6.22.31,9.323-.071,4.412.789,8.72,1.147,13.082.443,5.367.344,10.743.361,16.117Z" transform="translate(-918.458 4080.616)" fill="#8b91eb"/>
    <path id="Trazado_985472" data-name="Trazado 985472" d="M6208.364,2925.1c6.226-5.457,13.527-8.917,21.3-11.5.515-.171,1-.421,1.5-.634a1.6,1.6,0,0,1,1.872-.66c1.344.84,1.3,2.016.59,3.168a56,56,0,0,1-3.12,4.759,6.028,6.028,0,0,1-2.9,2.153,8.21,8.21,0,0,0-4.1,2.966,2.437,2.437,0,0,0-.179,2.92c.671,1.061,1.627.587,2.463.252,3.238-1.3,5.878.424,8.461,1.838a8.616,8.616,0,0,0,4.669,1.242c1.712-.071,3.428-.034,5.143-.007.718.012,1.487-.127,2.082.467l.667.194c-3.545.042-7.087.114-10.63.121q-15.229.027-30.46-.006c-.736,0-1.87.463-1.854-1.017A36.462,36.462,0,0,1,6208.364,2925.1Z" transform="translate(-1723.05 3684.86)" fill="#f9a467"/>
    <path id="Trazado_985473" data-name="Trazado 985473" d="M4284.435,2301.461a39.3,39.3,0,0,1,.917,6.321,10.842,10.842,0,0,1-5.224,9.706c-1.214.821-2.458,1.6-3.689,2.392a3.067,3.067,0,0,1-3.025,1.193c-.641-.563-.161-1.14.013-1.682.616-1.921,1.161-3.876,1.939-5.731a12.754,12.754,0,0,0,.638-7.352,5.992,5.992,0,0,0-2.278-3.433,11.19,11.19,0,0,1-2-2.139c-.313-.47-.688-.962-.366-1.509.353-.6.965-.335,1.5-.236l.928.176c-.437-1.125-.859-2.041-1.146-3-.35-1.17-.8-2.519.513-3.322,1.189-.728,2.208.039,3.078.9.194.193.43.345,1.02.812-.825-2.037-1.791-3.563-1.653-5.407.056-.761.043-1.539.878-1.843s1.223.454,1.611.939a21.519,21.519,0,0,1,2.741,4.961c.328.751.385,1.711,1.351,2.053C4282.309,2297.559,4283.649,2299.409,4284.435,2301.461Z" transform="translate(88.182 4270.594)" fill="#fa9383"/>
    <path id="Trazado_985474" data-name="Trazado 985474" d="M3803.606,2013.915a4.353,4.353,0,0,1,3.1,2.608c-6.657.2-13.311-.118-19.946-.471-8.962-.476-17.919-.661-26.887-.659a3,3,0,0,1-1.935-.384c-.554-.864-1.519-1.2-2.288-1.8,1.706-.828,3.569-.347,5.347-.541a26.674,26.674,0,0,1,3.08.141c7.942.145,15.887.16,23.823.451C3793.132,2013.458,3798.355,2014.012,3803.606,2013.915Z" transform="translate(571.387 4527.942)" fill="#e2818f"/>
    <path id="Trazado_985475" data-name="Trazado 985475" d="M4513.847,3696.949c-4.275,2.43-8.049,5.563-11.953,8.516-.843.638-.344,1.153.058,1.691,1.392,1.864,2.8,3.718,4.192,5.581a11.574,11.574,0,0,1,1.343,2.144,15.753,15.753,0,0,1-3.818-3.719c-1.8-2.309-3.894-4.405-5.312-7.007,4.542-3.225,9.551-5.624,14.46-8.205C4513.467,3695.967,4513.632,3696.483,4513.847,3696.949Z" transform="translate(-124.67 2950.38)" fill="#f58577"/>
    <path id="Trazado_985476" data-name="Trazado 985476" d="M3850.61,3020.468l17.242,20.676c-9.28-9.476-17.313-20.032-26.216-29.831,1.234.152,1.781,1.212,2.5,1.984C3846.334,3015.65,3848.458,3018.072,3850.61,3020.468Z" transform="translate(490.798 3592.01)" fill="#dabfe1"/>
    <path id="Trazado_985477" data-name="Trazado 985477" d="M3747.881,2929.329a29.306,29.306,0,0,0-4.47-3.047c2.538-.8,5.186-.469,7.772-.613a23,23,0,0,1,4.775.357C3753.275,2927.158,3750.734,2928.61,3747.881,2929.329Z" transform="translate(582.852 3672.293)" fill="#63bdb9"/>
    <path id="Trazado_985478" data-name="Trazado 985478" d="M4290.318,2807.966l3.025-1.193q-.033,3.671-.066,7.341a20.459,20.459,0,0,1-3.377-3.522C4288.906,2809.459,4289.143,2808.677,4290.318,2807.966Z" transform="translate(71.276 3783.701)" fill="#4e287b"/>
    <path id="Trazado_985479" data-name="Trazado 985479" d="M6127.22,2367.465c2.02-3.416,4.719-6.319,7.156-9.419a6.676,6.676,0,0,1,2.1-2.248c-1.048,1.257-.769,2.5-.291,3.961a12.145,12.145,0,0,1-.237,6.866,10.24,10.24,0,0,0,.337,5.229c.3,1.184,1.079,1.916,2.485,1.247a3.5,3.5,0,0,1,1.59-.374,99.314,99.314,0,0,0,13.331-.792c3.27-.288,6.539-.686,9.775-1.227a38.894,38.894,0,0,1,4.569-.212,4.887,4.887,0,0,0,2.326-.376c-.429,3.849-1.724,7.488-2.775,11.18a66.539,66.539,0,0,1-3.067,8.632,2.135,2.135,0,0,1-1.916.9,30.724,30.724,0,0,0-18.145,1.606,12.63,12.63,0,0,1-6.167.563,3.4,3.4,0,0,1-3.212-2.758c-1.125-3.956-1.67-8.027-2.623-12.013a5.251,5.251,0,0,1,1.2-4.976c.779-.862.6-1.361-.474-1.673a37.465,37.465,0,0,1-3.982-1.413C6128.042,2369.679,6127.013,2369,6127.22,2367.465Z" transform="translate(-1651.187 4206.346)" fill="#6aa0bb"/>
    <path id="Trazado_985480" data-name="Trazado 985480" d="M6509.53,2819.841l1.854-.449c7.845-2.069,15.723-3.972,23.74-5.271,1.289-.209,1.652-.074,1.387,1.326a38.819,38.819,0,0,1-9.917,19.693c-1.662,1.774-3.619,3.271-5.442,4.9-1.287,0-2.576-.04-3.859.021-3.613.17-7.058,0-10.243-2.218a6.1,6.1,0,0,0-6.9-.549,1.439,1.439,0,0,1-2.12-.34c-.515-1-1.111-2.058-.4-3.279a7.252,7.252,0,0,1,4.11-3.484,7.822,7.822,0,0,0,4.529-3.951c.567-.936,1.217-1.823,1.842-2.723.708-1.018.885-2.006-.112-2.955C6508.126,2819.5,6509.133,2820.32,6509.53,2819.841Z" transform="translate(-1998.051 3776.888)" fill="#fdc064"/>
    <path id="Trazado_985481" data-name="Trazado 985481" d="M6979.99,2449.065c0,4.718-4.014,7.948-7.9,6.353-2.781-1.143-4.175-5.21-2.918-8.514,1.188-3.122,3.584-4.7,6.448-4.232C6978.111,2443.075,6979.988,2445.824,6979.99,2449.065Z" transform="translate(-2439.842 4125.004)" fill="#fcbc5e"/>
    <path id="Trazado_985482" data-name="Trazado 985482" d="M7286.473,2743.239a3.037,3.037,0,0,1-3.347-3.108,3.547,3.547,0,0,1,3.479-3.53,2.994,2.994,0,0,1,3.141,3.288A3.05,3.05,0,0,1,7286.473,2743.239Z" transform="translate(-2734.505 3849.464)" fill="#fcbe5b"/>
    <path id="Trazado_985483" data-name="Trazado 985483" d="M7305.094,2962.085c-1.129-.336-2.688-.062-3.305-1.547-.251-.605,2.242-1.646,3.646-1.349,1.122.237,2.973.331,2.891,1.542C7308.253,2961.8,7306.415,2961.885,7305.094,2962.085Z" transform="translate(-2751.981 3640.907)" fill="#fbaa6d"/>
    <path id="Trazado_985484" data-name="Trazado 985484" d="M7193.442,2561.808a1.594,1.594,0,0,1-1.6,1.862,1.767,1.767,0,0,1-2.057-1.648c-.081-1.251.71-1.922,1.939-1.938C7192.84,2560.07,7193.379,2560.733,7193.442,2561.808Z" transform="translate(-2647.028 4014.893)" fill="#f58570"/>
    <path id="Trazado_985485" data-name="Trazado 985485" d="M7289.836,2385.069c.889.117,1.5.564,1.49,1.518a1.32,1.32,0,0,1-1.4,1.393,1.352,1.352,0,0,1-1.5-1.479C7288.43,2385.636,7289,2385.21,7289.836,2385.069Z" transform="translate(-2739.477 4178.914)" fill="#f18273"/>
    <path id="Trazado_985486" data-name="Trazado 985486" d="M4364.842,773.982a8.619,8.619,0,0,0-2.311,6.514c.084,20.281.071,40.562.088,60.843l-3.307-.119V762.6a11.931,11.931,0,0,1,1.1,5.445A6.632,6.632,0,0,0,4364.842,773.982Z" transform="translate(5.64 5699.465)" fill="#94c3f9"/>
    <path id="Trazado_985487" data-name="Trazado 985487" d="M6014.926,2564.442l-1.528.716-1.829.38c-5.228-1.716-10.09-.332-14.907,1.685-2.567,1.075-5.2,1.758-7.918.35a3.121,3.121,0,0,1-1.877-2.708,13.574,13.574,0,0,0-.424-2.331c-.652-2.518-1.317-3.017-3.93-3.272-3.677-.359-7.214-1.682-10.979-1.541a2.283,2.283,0,0,1-1.984-1.459,100.392,100.392,0,0,1,9.93-14.737c.689,2.293,2.853,2.41,4.614,3.114.454.181.918.343,1.386.484,2.409.722,2.392.717.754,2.506a4.3,4.3,0,0,0-1.125,4.094c1.135,4.175,1.5,8.507,2.743,12.67a2.746,2.746,0,0,0,2.72,2.194,15.6,15.6,0,0,0,7.032-.887,27.772,27.772,0,0,1,10.114-1.833A35.757,35.757,0,0,1,6014.926,2564.442Z" transform="translate(-1503.446 4032.287)" fill="#728ebe"/>
    <path id="Trazado_985488" data-name="Trazado 985488" d="M2686.612,2882.52c.115,1.6,1.441,1.924,3.08,2.42-9.174,1.012-17.321,4.062-25.608,6.55-6.851,2.056-13.638,4.3-20.778,5.241a22.513,22.513,0,0,0-10.215,3.753,12.377,12.377,0,0,0,2.148-3.311c1.276-1.59,3.253-1.217,4.895-1.594q17.085-3.926,34.018-8.443A52.006,52.006,0,0,0,2686.612,2882.52Z" transform="translate(1623.424 3712.712)" fill="#fbc26a"/>
    <path id="Trazado_985489" data-name="Trazado 985489" d="M2889.464,2507c-.244,1.443-.326,3.058-2.229,3.336-1.379.2-3.115-1.348-3.378-2.865-.142-.815-.06-1.452,1.023-1.5a15.914,15.914,0,0,0,3.091-.371C2889.321,2505.262,2889.619,2505.831,2889.464,2507Z" transform="translate(1388.46 4066.046)" fill="#fcf9fc"/>
    <path id="Trazado_985490" data-name="Trazado 985490" d="M3579.64,2242.343q-.792-4.741-1.584-9.48a36.182,36.182,0,0,1,2.4,9.067A.769.769,0,0,1,3579.64,2242.343Z" transform="translate(737.821 4321.56)" fill="#e3bcca"/>
    <path id="Trazado_985491" data-name="Trazado 985491" d="M1798.575,3042.278a1.188,1.188,0,0,1-1.013.288l-21.736-.042a3.332,3.332,0,0,1-2.745-1.509c-1.554-2.2-3.32-4.227-4.673-6.59a15.246,15.246,0,0,0-8.894-7.012,22.605,22.605,0,0,1-6.693-3.332c-1.845-1.363-4.316-1.563-6.436-2.507a11.407,11.407,0,0,1-3.891-2.687c-.333-.364-.775-.771-.7-1.252.269-1.712-.77-2.86-1.539-4.183-.8-1.378-1.526-2.895-.085-4.381,3.9-1.879,8.108-2.718,12.3-3.593,2.879-.6,5.81-.864,8.727-1.211a2.06,2.06,0,0,1,1.735.375c.674,4.355,2.508,8.259,6.05,10.79a15.366,15.366,0,0,1,4.01,4.41c1.726,2.619,4.676,2.957,7.487,3.206a23.911,23.911,0,0,0,9.464-.7C1787.854,3033.9,1790.473,3039.882,1798.575,3042.278Z" transform="translate(2461.027 3598.648)" fill="#fb956b"/>
    <path id="Trazado_985492" data-name="Trazado 985492" d="M1556.241,2775.958c-7.795.673-15.475,1.886-22.785,4.842-1.987,1.1-3.862,2.49-6.287,2.486-4.588-6.92-6.939-14.664-8.369-22.746,2.654-.906,5.146.368,7.718.575,3.851.31,7.391,1.988,11.2,2.522a71.86,71.86,0,0,0,8.6.193,2.7,2.7,0,0,1,2.6,1.234c1.167,1.776,2.578,3.392,3.852,5.1.577.775.981,1.877,2.148,1.711,1.209-.173.185-1.593.943-2.116A37.253,37.253,0,0,0,1556.241,2775.958Z" transform="translate(2667.719 3827.332)" fill="#7a79bc"/>
    <path id="Trazado_985493" data-name="Trazado 985493" d="M4799.819,3497.22l99.144.032c8.83,0,17.661-.106,26.487.061,3.462.065,6.936.309,10.626.308a2.047,2.047,0,0,1-1.59.344c-21.322.67-42.648.326-63.974.371-21.889.046-43.778-.022-65.667.05-1.343,0-2.718-1.008-4.05.019Z" transform="translate(-407.195 3136.626)" fill="#dcd1e0"/>
    <path id="Trazado_985494" data-name="Trazado 985494" d="M2287.94,4114.124c11.141-.853,22.049-.32,32.944-.492,4.588-.072,9.174.017,13.769-.186,3.272-.145,6.595.24,9.9.186,4.4-.071,8.818-.409,13.21-.221,4.96.213,9.913.188,14.87.222.315,0,.788-.318.8.317.009.372-.346.453-.661.481-1.216.108-2.432.3-3.649.3q-39.263.029-78.527.008A3.232,3.232,0,0,1,2287.94,4114.124Z" transform="translate(1946.894 2559.196)" fill="#9b5bab"/>
    <path id="Trazado_985495" data-name="Trazado 985495" d="M2582.5,4178.228c-16.914.492-33.827.632-50.741-.082C2548.671,4177.435,2565.584,4177.386,2582.5,4178.228Z" transform="translate(1718.393 2498.982)" fill="#8d5aa9"/>
    <path id="Trazado_985496" data-name="Trazado 985496" d="M2218.679,2304.4c1.128-17.151,5.64-33.5,10.865-49.7C2226.31,2271.372,2220.773,2287.528,2218.679,2304.4Z" transform="translate(2011.804 4301.087)" fill="#e7d4e5"/>
    <path id="Trazado_985497" data-name="Trazado 985497" d="M3080.024,3422.873a32.212,32.212,0,0,1-12.286,7.184c-8.68,3.082-23.271,2.691-30.409,1.146,3.342,0,7.476.028,11.61-.006,6.753-.055,13.447-.563,19.894-2.816a37.979,37.979,0,0,0,9.633-4.859A2.1,2.1,0,0,1,3080.024,3422.873Z" transform="translate(1244.58 3206.304)" fill="#e4d6e8"/>
    <path id="Trazado_985498" data-name="Trazado 985498" d="M3682.779,3553.832c-.553-2.089-1.733-3.913-2.5-5.908l-1.937-5.278c3.756,6.846,6.453,14.25,11.744,20.208-1.311-.443-2.028-1.556-2.872-2.508C3685.454,3558.365,3684.381,3555.918,3682.779,3553.832Z" transform="translate(643.839 3094.054)" fill="#dac3e4"/>
    <path id="Trazado_985499" data-name="Trazado 985499" d="M2325.85,2699.336a20.737,20.737,0,0,1,15.094-6.215A40.8,40.8,0,0,0,2325.85,2699.336Z" transform="translate(1911.366 3890.213)" fill="#e0d0e8"/>
    <path id="Trazado_985500" data-name="Trazado 985500" d="M3333.637,4212.217c4.276.032,8.553-.3,12.825.577h-12.828C3333.635,4212.6,3333.636,4212.41,3333.637,4212.217Z" transform="translate(966.888 2466.576)" fill="#8e5aa5"/>
    <path id="Trazado_985501" data-name="Trazado 985501" d="M4691.839,4045.889c3.334,2.367,7.115,4.089,10.092,6.963A39.631,39.631,0,0,1,4691.839,4045.889Z" transform="translate(-305.998 2622.423)" fill="#dbcfe6"/>
    <path id="Trazado_985502" data-name="Trazado 985502" d="M1420.966,3090.344c2.123-.759,4.053-2.009,6.287-2.486-.82,1.7-.019,3.067.924,4.39a5.489,5.489,0,0,1,1.2,3.436c.013,1.828,1.923,2.991,3.563,3.471,2.025.593,3.678,2.281,6,2.01.318-.037.731.4,1.04.678a16.881,16.881,0,0,0,6.592,3.429,16.484,16.484,0,0,1,9.995,8.357c1.284,2.431,3.252,4.41,4.924,6.583.392.51,1.094.187,1.439.686l-24.283,0c-3.9-1.426-7.818-2.8-11.691-4.29a60.552,60.552,0,0,1-18.9-11.445c-3.39-3.045-3.443-3.284-.091-6.264A61.959,61.959,0,0,1,1420.966,3090.344Z" transform="translate(2773.922 3520.273)" fill="#fa806e"/>
    <path id="Trazado_985503" data-name="Trazado 985503" d="M1353.656,2846.8c-.009,3.614-2.718,6.715-5.878,6.73-3.062.015-5.212-2.53-5.169-6.118.043-3.651,2.588-6.412,5.911-6.413C1351.746,2840.995,1353.665,2843.163,1353.656,2846.8Z" transform="translate(2832.842 3751.627)" fill="#fdbd60"/>
    <path id="Trazado_985504" data-name="Trazado 985504" d="M1845.7,2147.511c-2.582,1.382-2.7,1.322-4.045-1.461-2.376-4.906-2.844-10.122-2.576-15.463.795-2.45.7-5.094,1.7-7.51.413-1.005.832-1.876,2.021-2.06.1,3.811,2.322,6.167,6.97,7.4,2.058.7,2.729,1.993,2.948,4.929C1853.17,2139.477,1850.7,2144.1,1845.7,2147.511Z" transform="translate(2367.623 4426.379)" fill="#53c3b2"/>
    <path id="Trazado_985505" data-name="Trazado 985505" d="M2069.446,2527.072c-.381,1.931-.688,3.882-1.176,5.786-.224.872-.3,2.468-1.265,2.3-1-.171-.549-1.706-.445-2.591.23-1.97.683-3.914,1.044-5.868.574-.749.3-2.455,1.508-2.235C2069.873,2524.6,2069.309,2526.163,2069.446,2527.072Z" transform="translate(2154.548 4048.292)" fill="#6f90bc"/>
    <path id="Trazado_985506" data-name="Trazado 985506" d="M1998.852,2606.51c.485,2.233,1.295,4.418.993,6.878C1998.535,2612.324,1998.066,2609.2,1998.852,2606.51Z" transform="translate(2218.182 3971.384)" fill="#6f90bc"/>
    <path id="Trazado_985507" data-name="Trazado 985507" d="M4471.211,1290.623c.4-5.806.217-11.626.257-17.441.011-1.6.64-1.917,2-1.6a157.678,157.678,0,0,0,20.639,3.283c1.526.148,2.3.8,2.121,2.5-.67,6.385-1.27,12.778-1.876,19.17-.122,1.273-.766,1.943-2.033,1.809a102.266,102.266,0,0,1-19.116-3.383C4470.813,1294.234,4471.2,1292.381,4471.211,1290.623Z" transform="translate(-99.203 5222.558)" fill="#fdbe62"/>
    <path id="Trazado_985508" data-name="Trazado 985508" d="M4629.647,1953.6q-12.595,0-25.19,0c-.49,0-.981,0-1.47-.027-.456-.027-.88-.181-.9-.716a.894.894,0,0,1,.774-.9,6.7,6.7,0,0,1,1.46-.1q25.374,0,50.749.018c.857,0,2.288-.314,2.3.826.014,1.443-1.5.866-2.345.87C4646.564,1953.617,4638.106,1953.6,4629.647,1953.6Z" transform="translate(-221.88 4584.932)" fill="#fbc36a"/>
    <path id="Trazado_985509" data-name="Trazado 985509" d="M4631.452,2227.1H4657c.368,0,.737-.017,1.1.011.574.044,1.167.155,1.106.91-.049.605-.56.763-1.08.767a44.934,44.934,0,0,1-5.326-.039,49.53,49.53,0,0,0-5.31.043c-11.517-.077-23.035.133-34.553-.069-2.441-.042-4.888-.037-7.33-.157-.607-.031-1.632.285-1.638-.645-.005-.985,1.029-.839,1.738-.84q12.868-.015,25.736-.007C4631.452,2227.081,4631.452,2227.089,4631.452,2227.1Z" transform="translate(-223.656 4326.987)" fill="#f9c66c"/>
    <path id="Trazado_985510" data-name="Trazado 985510" d="M4625.539,1888q-10.668,0-21.337,0a13.693,13.693,0,0,1-1.647-.09.617.617,0,0,1-.565-.618.605.605,0,0,1,.529-.647,8.613,8.613,0,0,1,1.459-.107q21.614.014,43.227.042c.367,0,.736,0,1.1.033.464.042.873.213.815.77a.738.738,0,0,1-.775.641c-.551.033-1.1.045-1.654.045q-10.578,0-21.154,0Z" transform="translate(-221.791 4646.132)" fill="#f8c567"/>
    <path id="Trazado_985511" data-name="Trazado 985511" d="M4622.335,1816.163c5.151,0,10.3-.007,15.454.013.681,0,1.729-.273,1.757.777.031,1.175-1.076.941-1.82.942q-15.179.009-30.357-.042c-.884,0-2.44.313-2.406-.891.036-1.262,1.573-.771,2.47-.779C4612.4,1816.138,4617.368,1816.161,4622.335,1816.163Z" transform="translate(-224.579 4712.146)" fill="#f9c66b"/>
    <path id="Trazado_985512" data-name="Trazado 985512" d="M4895.756,1138.945q-8.168,0-16.337,0c-.428,0-.858,0-1.283-.042-.453-.045-.873-.211-.825-.768.037-.431.4-.587.785-.617.365-.028.733-.028,1.1-.028q16.155,0,32.31,0a4.982,4.982,0,0,1,.55.008c.743.084,1.939-.254,1.944.8.006,1.187-1.229.677-1.9.682-5.446.046-10.892.026-16.339.026Z" transform="translate(-479.815 5348.132)" fill="#f4c568"/>
    <path id="Trazado_985513" data-name="Trazado 985513" d="M4899.055,1206.2c5.513,0,11.026-.006,16.539.011.627,0,1.612-.233,1.64.68.031,1.066-1.019.823-1.694.825q-16.722.037-33.444.032c-.58,0-1.4.171-1.437-.706-.048-1.054.877-.828,1.491-.831C4887.785,1206.189,4893.42,1206.2,4899.055,1206.2Z" transform="translate(-482.954 5283.745)" fill="#fbc26c"/>
    <path id="Trazado_985514" data-name="Trazado 985514" d="M4967.97,1465.216c4.16,0,8.32-.009,12.479.008.637,0,1.542-.187,1.632.73.1,1.054-.937.713-1.5.872a5.954,5.954,0,0,1-1.638.121c-7.765-.046-15.532.174-23.293-.223-.631-.032-1.6.223-1.649-.683-.059-1.144,1.024-.8,1.669-.808C4959.773,1465.2,4963.871,1465.217,4967.97,1465.216Z" transform="translate(-551.693 5041.008)" fill="#f8c976"/>
    <path id="Trazado_985515" data-name="Trazado 985515" d="M4969.7,1534.85c4.783,0,9.566-.01,14.348.012.615,0,1.577-.273,1.614.7s-.913.8-1.544.8q-14.427.01-28.853-.019c-.634,0-1.613.189-1.623-.719-.011-1.074,1.039-.791,1.709-.794,4.782-.022,9.565-.012,14.348-.012Z" transform="translate(-551.359 4975.778)" fill="#f9c86e"/>
    <path id="Trazado_985516" data-name="Trazado 985516" d="M4896.3,1070.816c5.025,0,10.051-.007,15.076.009.631,0,1.58-.212,1.6.734.023.979-.939.759-1.559.759q-15.075.005-30.151-.028c-.658,0-1.6.1-1.615-.771-.022-.99.97-.7,1.571-.7,5.025-.025,10.05-.014,15.076-.014Z" transform="translate(-482.012 5410.644)" fill="#f6c36a"/>
    <path id="Trazado_985517" data-name="Trazado 985517" d="M4972.588,1398.147q7.157,0,14.316,0c.427,0,.858-.008,1.283.027.467.038.851.237.818.78a.728.728,0,0,1-.747.666,10.276,10.276,0,0,1-1.1.032q-14.315-.01-28.632-.037c-.793,0-2.12.342-2.134-.757-.016-1.211,1.326-.689,2.063-.7,4.709-.051,9.421-.026,14.132-.026Z" transform="translate(-553.933 5103.924)" fill="#f8c56b"/>
    <path id="Trazado_985518" data-name="Trazado 985518" d="M4965.934,1606.493c-4.22,0-8.438.01-12.657-.012-.611,0-1.553.277-1.582-.725-.029-1.044.933-.757,1.533-.758q12.841-.031,25.682-.008c.631,0,1.574-.194,1.6.74s-.907.783-1.548.785c-4.341.011-8.683.006-13.024.006Z" transform="translate(-549.53 4910.016)" fill="#fac56a"/>
    <path id="Trazado_985519" data-name="Trazado 985519" d="M4891.96,2024.286c-3.185,0-6.371.008-9.555-.007-.592,0-1.391.1-1.45-.735-.071-.981.78-.939,1.443-.94,6.431-.011,12.863-.019,19.293.01.667,0,1.7-.134,1.636.941-.057.885-.979.755-1.628.758-3.247.015-6.493.007-9.739.007Z" transform="translate(-483.232 4518.62)" fill="#fac672"/>
    <path id="Trazado_985520" data-name="Trazado 985520" d="M4618.8,2298.22c-3.912,0-7.825.006-11.737-.012-.567,0-1.416.207-1.466-.658-.06-1.043.875-.816,1.49-.818q11.553-.022,23.107,0c.625,0,1.618-.23,1.656.658.046,1.068-1.011.812-1.68.816C4626.382,2298.235,4622.591,2298.222,4618.8,2298.22Z" transform="translate(-225.172 4261.723)" fill="#f8c165"/>
    <path id="Trazado_985521" data-name="Trazado 985521" d="M4617.313,2160.5c3.31,0,6.62-.008,9.93.012.628,0,1.559-.245,1.625.709.07,1.032-.886.805-1.5.806q-9.93.005-19.86-.04c-.628,0-1.583.167-1.547-.8.036-.995,1.008-.667,1.61-.673C4610.816,2160.482,4614.065,2160.5,4617.313,2160.5Z" transform="translate(-225.51 4389.409)" fill="#f9c367"/>
    <path id="Trazado_985522" data-name="Trazado 985522" d="M5021.839,2162.692c-3,0-6,.009-9.007-.008-.577,0-1.4.144-1.346-.782.039-.717.743-.7,1.292-.7q9.284-.015,18.567-.008c.521,0,1.266-.1,1.255.689-.012.844-.777.813-1.385.815-3.125.011-6.25.005-9.375.005Z" transform="translate(-605.564 4388.731)" fill="#f9c56a"/>
    <path id="Trazado_985523" data-name="Trazado 985523" d="M5002.218,1671.089c-1.956,0-3.912.009-5.867-.006-.561,0-1.209-.068-1.167-.822.034-.624.626-.663,1.125-.661q5.867.014,11.734.046c.544,0,1.239.013,1.162.8-.072.729-.762.668-1.3.671-1.9.01-3.789,0-5.684,0Z" transform="translate(-590.286 4849.438)" fill="#fdc16d"/>
    <path id="Trazado_985524" data-name="Trazado 985524" d="M5408.5,1887.137c-.816-.368-2.388.522-2.348-.922.03-1.1,1.519-.614,2.346-.624s2.3-.508,2.338.615C5410.883,1887.673,5409.3,1886.756,5408.5,1887.137Z" transform="translate(-975.439 4647.126)" fill="#f7c46a"/>
    <path id="Trazado_985525" data-name="Trazado 985525" d="M5223.688,3452.44c-16.7.62-33.257.272-49.821.071a2.529,2.529,0,0,1,2.223-.828c1.714,0,3.429.013,5.144-.011,7.887-.108,15.78-.468,23.659-.262,5.807.152,11.611.172,17.417.281C5222.759,3451.7,5223.312,3451.541,5223.688,3452.44Z" transform="translate(-757.746 3179.617)" fill="#d7cddd"/>
    <path id="Trazado_985526" data-name="Trazado 985526" d="M6029.679,3611.31H6071.9q0,.46,0,.92c-14.073.054-28.145.109-42.218-.04C6029.682,3611.9,6029.681,3611.6,6029.679,3611.31Z" transform="translate(-1559.798 3029.702)" fill="#d7cdde"/>
    <path id="Trazado_985527" data-name="Trazado 985527" d="M4566.367,1321.143c-.436,5.7-.245,11.322-.376,16.939-.013.573.177,1.481-.607,1.5-.994.028-.743-.969-.7-1.559.378-5.735.225-11.479.336-17.218.011-.594-.361-1.611.61-1.637,1.144-.029.6,1.068.738,1.694A.983.983,0,0,1,4566.367,1321.143Z" transform="translate(-186.773 5177.855)" fill="#fcf7ed"/>
  </g>
</svg>
