<svg xmlns="http://www.w3.org/2000/svg" xmlns:xlink="http://www.w3.org/1999/xlink" width="108" height="108" viewBox="0 0 108 108">
  <defs>
    <filter id="Trazado_982547" x="0" y="0" width="108" height="108" filterUnits="userSpaceOnUse">
      <feOffset dy="3" input="SourceAlpha"/>
      <feGaussianBlur stdDeviation="3" result="blur"/>
      <feFlood flood-opacity="0.161"/>
      <feComposite operator="in" in2="blur"/>
      <feComposite in="SourceGraphic"/>
    </filter>
  </defs>
  <g id="Grupo_1149955" data-name="Grupo 1149955" transform="translate(-174 -1188)">
    <g id="Grupo_1149736" data-name="Grupo 1149736" transform="translate(-18 -8998)">
      <g id="Grupo_1149261" data-name="Grupo 1149261" transform="translate(-83 6759)">
        <g id="Grupo_1147065" data-name="Grupo 1147065" transform="translate(-341 -556)">
          <g transform="matrix(1, 0, 0, 1, 616, 3983)" filter="url(#Trazado_982547)">
            <g id="Trazado_982547-2" data-name="Trazado 982547" transform="translate(9 6)" fill="#eff4fa">
              <path d="M 45 88.5 C 39.12687683105469 88.5 33.43022537231445 87.35007476806641 28.06830024719238 85.08217620849609 C 22.88852500915527 82.89131164550781 18.23629951477051 79.75458526611328 14.2408504486084 75.75914764404297 C 10.24541282653809 71.76370239257812 7.108687400817871 67.11147308349609 4.917825222015381 61.93170166015625 C 2.649924993515015 56.56977462768555 1.5 50.87312316894531 1.5 45 C 1.5 39.12687683105469 2.649924993515015 33.43022537231445 4.917825222015381 28.06830024719238 C 7.108687400817871 22.88852500915527 10.24541282653809 18.23629951477051 14.2408504486084 14.2408504486084 C 18.23629951477051 10.24541282653809 22.88852500915527 7.108687400817871 28.06830024719238 4.917825222015381 C 33.43022537231445 2.649924993515015 39.12687683105469 1.5 45 1.5 C 50.87312316894531 1.5 56.56977462768555 2.649924993515015 61.93170166015625 4.917825222015381 C 67.11147308349609 7.108687400817871 71.76370239257812 10.24541282653809 75.75914764404297 14.2408504486084 C 79.75458526611328 18.23629951477051 82.89131164550781 22.88852500915527 85.08217620849609 28.06830024719238 C 87.35007476806641 33.43022537231445 88.5 39.12687683105469 88.5 45 C 88.5 50.87312316894531 87.35007476806641 56.56977462768555 85.08217620849609 61.93170166015625 C 82.89131164550781 67.11147308349609 79.75458526611328 71.76370239257812 75.75914764404297 75.75914764404297 C 71.76370239257812 79.75458526611328 67.11147308349609 82.89131164550781 61.93170166015625 85.08217620849609 C 56.56977462768555 87.35007476806641 50.87312316894531 88.5 45 88.5 Z" stroke="none"/>
              <path d="M 45 3 C 39.32871246337891 3 33.82865524291992 4.110054016113281 28.65262985229492 6.299339294433594 C 23.65165710449219 8.414573669433594 19.15968322753906 11.44334411621094 15.301513671875 15.301513671875 C 11.44334411621094 19.15968322753906 8.414573669433594 23.65165710449219 6.299339294433594 28.65262985229492 C 4.110054016113281 33.82865524291992 3 39.32871246337891 3 45 C 3 50.67128753662109 4.110054016113281 56.17134475708008 6.299339294433594 61.34737396240234 C 8.414573669433594 66.34834289550781 11.44334411621094 70.84031677246094 15.301513671875 74.698486328125 C 19.15968322753906 78.55665588378906 23.65165710449219 81.58542633056641 28.65262985229492 83.70066070556641 C 33.82865524291992 85.88994598388672 39.32871246337891 87 45 87 C 50.67128753662109 87 56.17134475708008 85.88994598388672 61.34737396240234 83.70066070556641 C 66.34834289550781 81.58542633056641 70.84031677246094 78.55665588378906 74.698486328125 74.698486328125 C 78.55665588378906 70.84031677246094 81.58542633056641 66.34834289550781 83.70066070556641 61.34737396240234 C 85.88994598388672 56.17134475708008 87 50.67128753662109 87 45 C 87 39.32871246337891 85.88994598388672 33.82865524291992 83.70066070556641 28.65262985229492 C 81.58542633056641 23.65165710449219 78.55665588378906 19.15968322753906 74.698486328125 15.301513671875 C 70.84031677246094 11.44334411621094 66.34834289550781 8.414573669433594 61.34737396240234 6.299339294433594 C 56.17134475708008 4.110054016113281 50.67128753662109 3 45 3 M 45 0 C 69.85281372070312 0 90 20.14718627929688 90 45 C 90 69.85281372070312 69.85281372070312 90 45 90 C 20.14718627929688 90 0 69.85281372070312 0 45 C 0 20.14718627929688 20.14718627929688 0 45 0 Z" stroke="none" fill="#3ad1e9"/>
            </g>
          </g>
        </g>
      </g>
    </g>
    <g id="aspiraciones" transform="translate(125.1 1190)">
      <g id="Grupo_1149954" data-name="Grupo 1149954" transform="translate(82.819 18.928)">
        <path id="Trazado_985541" data-name="Trazado 985541" d="M114.222,206.594c.119.027.212.066.331.093a6.508,6.508,0,0,1,7.4-2.77,6.984,6.984,0,0,1,4.573,3.937,6.677,6.677,0,0,1,6.071-1.22,6.79,6.79,0,0,1,5.077,6.23c.146.027.292.066.437.106A6.643,6.643,0,0,1,143,220.831a5.993,5.993,0,0,1-3.234,3.884,5.509,5.509,0,0,1-.159.915,6.367,6.367,0,0,1-8.033,4.282,7.215,7.215,0,0,1-2.373-1.167,9.24,9.24,0,0,1-9,3.274c-1.644,4.679,2.041,6.084.543,7.012-3.831,2.4-6.363-3.486-6.827-6.668a6.776,6.776,0,0,1-4.971.49,6.643,6.643,0,0,1-4.891-7.861,5.759,5.759,0,0,1,.663-1.577,6.416,6.416,0,0,1-2.6-6.774,6.031,6.031,0,0,1,3.924-4.176,6.187,6.187,0,0,1,.186-1.617A6.324,6.324,0,0,1,114.222,206.594Z" transform="translate(-101.924 -179.976)" fill="#f06597" fill-rule="evenodd"/>
        <path id="Trazado_985542" data-name="Trazado 985542" d="M115.329,206.594c.119.027.212.066.331.093a6.508,6.508,0,0,1,7.4-2.77,6.984,6.984,0,0,1,4.573,3.937,6.677,6.677,0,0,1,6.071-1.22,6.791,6.791,0,0,1,5.077,6.23c.146.027.292.066.437.106a6.839,6.839,0,0,1,5,5.435c-4.215,3.857-11.466,6.416-19.7,6.416-9.412,0-17.537-3.327-21.315-8.152v-.013a6.03,6.03,0,0,1,3.924-4.176,6.188,6.188,0,0,1,.186-1.617A6.36,6.36,0,0,1,115.329,206.594Z" transform="translate(-103.031 -179.976)" fill="#f499c1" fill-rule="evenodd"/>
        <path id="Trazado_985543" data-name="Trazado 985543" d="M327.417,251.2a1.617,1.617,0,1,1-1.617,1.617A1.615,1.615,0,0,1,327.417,251.2Z" transform="translate(-296.123 -221.215)" fill="#f9c9de" fill-rule="evenodd"/>
        <path id="Trazado_985544" data-name="Trazado 985544" d="M329.748,279.2a.855.855,0,1,1-.848.848A.857.857,0,0,1,329.748,279.2Z" transform="translate(-298.812 -245.504)" fill="#f9c9de" fill-rule="evenodd"/>
        <path id="Trazado_985545" data-name="Trazado 985545" d="M168.717,237.9a1.617,1.617,0,1,1-1.617,1.617A1.632,1.632,0,0,1,168.717,237.9Z" transform="translate(-158.46 -209.678)" fill="#f9c9de" fill-rule="evenodd"/>
        <path id="Trazado_985546" data-name="Trazado 985546" d="M171.062,265.9a.846.846,0,0,1,.848.848.857.857,0,0,1-.848.862.868.868,0,0,1-.862-.862A.857.857,0,0,1,171.062,265.9Z" transform="translate(-161.149 -233.967)" fill="#f9c9de" fill-rule="evenodd"/>
        <path id="Trazado_985547" data-name="Trazado 985547" d="M212.748,227a.862.862,0,1,1-.848.862A.86.86,0,0,1,212.748,227Z" transform="translate(-197.322 -200.223)" fill="#f9c9de" fill-rule="evenodd"/>
        <path id="Trazado_985548" data-name="Trazado 985548" d="M179.61,45.639h-2.227l-2.466,6.244-2.505-6.244H154.2a2.6,2.6,0,0,1-2.6-2.6V27.6a2.6,2.6,0,0,1,2.6-2.6H179.61a2.6,2.6,0,0,1,2.6,2.6V43.041A2.611,2.611,0,0,1,179.61,45.639Z" transform="translate(-145.015 -25)" fill="#ba9570" fill-rule="evenodd"/>
        <path id="Trazado_985549" data-name="Trazado 985549" d="M178.6,25h24.444a2.6,2.6,0,0,1,2.6,2.6V42.1h-25.65a1.392,1.392,0,0,1-1.392-1.392Z" transform="translate(-168.436 -25)" fill="#fdcc9a" fill-rule="evenodd"/>
        <path id="Trazado_985550" data-name="Trazado 985550" d="M284.575,48.7h2.134a.883.883,0,0,1,.875.875v2.77a.874.874,0,0,1-.875.875h-2.134a.874.874,0,0,1-.875-.875v-2.77A.883.883,0,0,1,284.575,48.7Z" transform="translate(-259.604 -45.558)" fill="#ffebd8" fill-rule="evenodd"/>
        <path id="Trazado_985551" data-name="Trazado 985551" d="M323.607,48.7h3.553a1.03,1.03,0,0,1,1.021,1.021V52.2a1.021,1.021,0,0,1-1.021,1.021h-3.553A1.01,1.01,0,0,1,322.6,52.2V49.721a1.018,1.018,0,0,1,1.007-1.021Z" transform="translate(-293.348 -45.558)" fill="#ffebd8" fill-rule="evenodd"/>
      </g>
      <path id="Trazado_985552" data-name="Trazado 985552" d="M114.047,32.595a.928.928,0,1,1,0,1.856h-3.34a.928.928,0,0,1,0-1.856Zm-8.762,0a.928.928,0,1,1,0,1.856h-9.9a.928.928,0,1,1,0-1.856Zm-1.273-8.789a.928.928,0,1,1,0,1.856H99.346a.928.928,0,0,1,0-1.856Zm10.035,4.388a.928.928,0,0,1,0,1.856H103.058a.928.928,0,1,1,0-1.856Zm-15.549,0a.928.928,0,0,1,0,1.856H95.383a.928.928,0,0,1,0-1.856ZM79.9,31.229a.928.928,0,1,1,1.856,0v7.847a.928.928,0,1,1-1.856,0Zm1.856,13.72a.928.928,0,0,1-1.856,0V43.16a.928.928,0,0,1,1.856,0ZM117.414,40.5h-1.6l-1.7,4.321a7.762,7.762,0,0,1,5.316,6.283,7.54,7.54,0,0,1,5.342,8.934,6.931,6.931,0,0,1-3.274,4.255c-.835,4.825-6.244,7.145-10.7,4.958-.186-.093-.371-.186-.543-.292a10.209,10.209,0,0,1-8.524,3.075,5.047,5.047,0,0,0,.65,3.977c.663,1.193,1.074,1.949-.278,2.8-2.6,1.617-4.852.252-6.336-2.108a14.59,14.59,0,0,1-1.67-4.056,7.991,7.991,0,0,1-9.173-3.354,7,7,0,0,1-.49-6.641,7.028,7.028,0,0,1,1.577-11.824,7.2,7.2,0,0,1,9.054-6.244,7.716,7.716,0,0,1,11.148-.928,8.342,8.342,0,0,1,1.551,1.8,7.575,7.575,0,0,1,3.433-1.034L109.62,40.5H92a3.533,3.533,0,0,1-3.526-3.526V21.526A3.533,3.533,0,0,1,92,18h25.411a3.533,3.533,0,0,1,3.526,3.526V36.969A3.533,3.533,0,0,1,117.414,40.5Zm-4.083,6.018a.93.93,0,0,1-1.405-.239,5.729,5.729,0,0,0-3.539.968,7.512,7.512,0,0,1-1.577,5.143.925.925,0,1,1-1.458-1.14,5.711,5.711,0,0,0,1.007-2.028,5.609,5.609,0,0,0,.146-2.161,5.81,5.81,0,0,0-1.524-2.028c-2.691-2.32-7-1.9-8.736,1.074a.926.926,0,0,1-1.087.411,5.842,5.842,0,0,0-4.64.358,5.012,5.012,0,0,0-2.664,3.857c-.013.159-.027.318-.04.464a5.145,5.145,0,0,0,1.551,1.644,4.059,4.059,0,0,0,2.147.663.919.919,0,0,1,.9.941.939.939,0,0,1-.941.915A6.155,6.155,0,0,1,86.528,52.6a5.159,5.159,0,0,0-1.087,8.457A7.107,7.107,0,0,1,91.6,58.669a.928.928,0,1,1-.225,1.843A5.128,5.128,0,0,0,85.812,64.2c-1.047,4,3.009,7.768,7.185,6.814a5.148,5.148,0,0,1,1.617-7.834,4.846,4.846,0,0,1,5.1.5.927.927,0,0,1-1.127,1.471,3.075,3.075,0,0,0-4.9,2.479,3.249,3.249,0,0,0,1.577,2.93.909.909,0,0,1,.424.663c.265,1.75,1.3,4.865,3.009,6.031a2.028,2.028,0,0,0,2.426-.013c.133-.08-.225-.08-.358-.345a6.709,6.709,0,0,1-.557-6.19.926.926,0,0,1,1.034-.61,8.786,8.786,0,0,0,4.56-.371,7.9,7.9,0,0,0,3.526-2.532,1.652,1.652,0,0,0-.928-2.426.924.924,0,1,1,.464-1.79,3.469,3.469,0,0,1,2.373,4.414c3.089,1.79,7.238.61,8.285-2.8a5.231,5.231,0,0,1-4.1-3.208.934.934,0,0,1,.5-1.206.912.912,0,0,1,1.206.5,3.436,3.436,0,0,0,1.392,1.63,3.161,3.161,0,0,0,1.869.477,5.056,5.056,0,0,0,1.6-1.286c2.572-3.089.6-7.874-3.619-8.762a.947.947,0,0,1-.742-.888,5.858,5.858,0,0,0-4.308-5.342Zm1.856-7.874h2.227a1.68,1.68,0,0,0,1.67-1.67V21.526a1.68,1.68,0,0,0-1.67-1.67H92a1.68,1.68,0,0,0-1.67,1.67V36.969A1.68,1.68,0,0,0,92,38.639h18.214a.913.913,0,0,1,.862.583l1.644,4.083,1.591-4.03A.915.915,0,0,1,115.187,38.639Zm-4.454,13.72a.927.927,0,1,1,1.471,1.127,2.677,2.677,0,0,0,.53,3.778.931.931,0,1,1-1.087,1.511A4.525,4.525,0,0,1,110.733,52.359ZM107.446,59.7a.921.921,0,0,1-.384,1.246.936.936,0,0,1-1.273-.424,6.281,6.281,0,0,0-8.5-2.519.926.926,0,1,1-.848-1.644,8.111,8.111,0,0,1,10.989,3.3Z"/>
    </g>
  </g>
</svg>
