<svg xmlns="http://www.w3.org/2000/svg" xmlns:xlink="http://www.w3.org/1999/xlink" width="108" height="108" viewBox="0 0 108 108">
  <defs>
    <filter id="Trazado_982547" x="0" y="0" width="108" height="108" filterUnits="userSpaceOnUse">
      <feOffset dy="3" input="SourceAlpha"/>
      <feGaussianBlur stdDeviation="3" result="blur"/>
      <feFlood flood-opacity="0.161"/>
      <feComposite operator="in" in2="blur"/>
      <feComposite in="SourceGraphic"/>
    </filter>
  </defs>
  <g id="Grupo_1149993" data-name="Grupo 1149993" transform="translate(-174 -4187)">
    <g id="Grupo_1149750" data-name="Grupo 1149750" transform="translate(-18 -5999)">
      <g id="Grupo_1149261" data-name="Grupo 1149261" transform="translate(-83 6759)">
        <g id="Grupo_1147065" data-name="Grupo 1147065" transform="translate(-341 -556)">
          <g transform="matrix(1, 0, 0, 1, 616, 3983)" filter="url(#Trazado_982547)">
            <g id="Trazado_982547-2" data-name="Trazado 982547" transform="translate(9 6)" fill="#eff4fa">
              <path d="M 45 88.5 C 39.12687683105469 88.5 33.43022537231445 87.35007476806641 28.06830024719238 85.08217620849609 C 22.88852500915527 82.89131164550781 18.23629951477051 79.75458526611328 14.2408504486084 75.75914764404297 C 10.24541282653809 71.76370239257812 7.108687400817871 67.11147308349609 4.917825222015381 61.93170166015625 C 2.649924993515015 56.56977462768555 1.5 50.87312316894531 1.5 45 C 1.5 39.12687683105469 2.649924993515015 33.43022537231445 4.917825222015381 28.06830024719238 C 7.108687400817871 22.88852500915527 10.24541282653809 18.23629951477051 14.2408504486084 14.2408504486084 C 18.23629951477051 10.24541282653809 22.88852500915527 7.108687400817871 28.06830024719238 4.917825222015381 C 33.43022537231445 2.649924993515015 39.12687683105469 1.5 45 1.5 C 50.87312316894531 1.5 56.56977462768555 2.649924993515015 61.93170166015625 4.917825222015381 C 67.11147308349609 7.108687400817871 71.76370239257812 10.24541282653809 75.75914764404297 14.2408504486084 C 79.75458526611328 18.23629951477051 82.89131164550781 22.88852500915527 85.08217620849609 28.06830024719238 C 87.35007476806641 33.43022537231445 88.5 39.12687683105469 88.5 45 C 88.5 50.87312316894531 87.35007476806641 56.56977462768555 85.08217620849609 61.93170166015625 C 82.89131164550781 67.11147308349609 79.75458526611328 71.76370239257812 75.75914764404297 75.75914764404297 C 71.76370239257812 79.75458526611328 67.11147308349609 82.89131164550781 61.93170166015625 85.08217620849609 C 56.56977462768555 87.35007476806641 50.87312316894531 88.5 45 88.5 Z" stroke="none"/>
              <path d="M 45 3 C 39.32871246337891 3 33.82865524291992 4.110054016113281 28.65262985229492 6.299339294433594 C 23.65165710449219 8.414573669433594 19.15968322753906 11.44334411621094 15.301513671875 15.301513671875 C 11.44334411621094 19.15968322753906 8.414573669433594 23.65165710449219 6.299339294433594 28.65262985229492 C 4.110054016113281 33.82865524291992 3 39.32871246337891 3 45 C 3 50.67128753662109 4.110054016113281 56.17134475708008 6.299339294433594 61.34737396240234 C 8.414573669433594 66.34834289550781 11.44334411621094 70.84031677246094 15.301513671875 74.698486328125 C 19.15968322753906 78.55665588378906 23.65165710449219 81.58542633056641 28.65262985229492 83.70066070556641 C 33.82865524291992 85.88994598388672 39.32871246337891 87 45 87 C 50.67128753662109 87 56.17134475708008 85.88994598388672 61.34737396240234 83.70066070556641 C 66.34834289550781 81.58542633056641 70.84031677246094 78.55665588378906 74.698486328125 74.698486328125 C 78.55665588378906 70.84031677246094 81.58542633056641 66.34834289550781 83.70066070556641 61.34737396240234 C 85.88994598388672 56.17134475708008 87 50.67128753662109 87 45 C 87 39.32871246337891 85.88994598388672 33.82865524291992 83.70066070556641 28.65262985229492 C 81.58542633056641 23.65165710449219 78.55665588378906 19.15968322753906 74.698486328125 15.301513671875 C 70.84031677246094 11.44334411621094 66.34834289550781 8.414573669433594 61.34737396240234 6.299339294433594 C 56.17134475708008 4.110054016113281 50.67128753662109 3 45 3 M 45 0 C 69.85281372070312 0 90 20.14718627929688 90 45 C 90 69.85281372070312 69.85281372070312 90 45 90 C 20.14718627929688 90 0 69.85281372070312 0 45 C 0 20.14718627929688 20.14718627929688 0 45 0 Z" stroke="none" fill="#3ad1e9"/>
            </g>
          </g>
        </g>
      </g>
    </g>
    <g id="idea-creativa" transform="translate(199 4209.003)">
      <g id="Grupo_1149984" data-name="Grupo 1149984" transform="translate(12.946 9.99)">
        <g id="Grupo_1149983" data-name="Grupo 1149983">
          <path id="Trazado_985583" data-name="Trazado 985583" d="M46.8,37.868a16.462,16.462,0,0,1-14.411,6.173,10.584,10.584,0,0,0-8.5,2.947l-.053.053-9.385-9.385L14.5,37.6a10.513,10.513,0,0,0,2.949-8.459A16.5,16.5,0,1,1,46.8,37.868Z" transform="translate(-14.446 -11.119)" fill="#ffd542"/>
        </g>
      </g>
      <g id="Grupo_1149985" data-name="Grupo 1149985" transform="translate(8.708 34.671)">
        <path id="Trazado_985584" data-name="Trazado 985584" d="M22.741,53.81l1.995-1.995a1.426,1.426,0,0,0,0-2.017L14.254,39.317a1.426,1.426,0,0,0-2.017,0l-1.995,1.995a1.933,1.933,0,0,0,0,2.734l9.765,9.765a1.933,1.933,0,0,0,2.734,0Z" transform="translate(-9.676 -38.899)" fill="#0e4a77"/>
      </g>
      <g id="Grupo_1149986" data-name="Grupo 1149986" transform="translate(1.862 40.219)">
        <path id="Trazado_985585" data-name="Trazado 985585" d="M18.753,54.1,12.97,59.887,3.363,61.9A1.156,1.156,0,0,1,2,60.533l2.014-9.607,5.783-5.783Z" transform="translate(-1.97 -45.144)" fill="#f34c6e"/>
      </g>
      <g id="Grupo_1149987" data-name="Grupo 1149987" transform="translate(6.956 43.275)">
        <path id="Trazado_985586" data-name="Trazado 985586" d="M0,0H8.175V4.01H0Z" transform="translate(0 5.779) rotate(-45)" fill="#f34c6e"/>
      </g>
      <g id="Grupo_1149989" data-name="Grupo 1149989" transform="translate(1.858 46.091)">
        <g id="Grupo_1149988" data-name="Grupo 1149988" transform="translate(0)">
          <path id="Trazado_985587" data-name="Trazado 985587" d="M12.88,60.642l-6.266,1.32-3.25.681A1.168,1.168,0,0,1,1.99,61.27l.681-3.25,1.32-6.266Z" transform="translate(-1.966 -51.754)" fill="#ffd542"/>
        </g>
      </g>
      <g id="Grupo_1149991" data-name="Grupo 1149991" transform="translate(1.858 52.358)">
        <g id="Grupo_1149990" data-name="Grupo 1149990" transform="translate(0)">
          <path id="Trazado_985588" data-name="Trazado 985588" d="M6.614,62.75l-3.25.681A1.168,1.168,0,0,1,1.99,62.057l.681-3.25A4.313,4.313,0,0,1,6.614,62.75Z" transform="translate(-1.966 -58.807)" fill="#073d6f"/>
        </g>
      </g>
      <g id="Grupo_1149992" data-name="Grupo 1149992" transform="translate(1 0.996)">
        <path id="Trazado_985589" data-name="Trazado 985589" d="M54.248,48.769a.862.862,0,0,0-1.218,1.218l2.256,2.256A.862.862,0,1,0,56.5,51.025Z" transform="translate(-6.776 -6.297)" fill="#003"/>
        <path id="Trazado_985590" data-name="Trazado 985590" d="M55.286,8.994,53.03,11.25a.862.862,0,1,0,1.218,1.218L56.5,10.212a.862.862,0,1,0-1.218-1.218Z" transform="translate(-6.776 -1.86)" fill="#003"/>
        <path id="Trazado_985591" data-name="Trazado 985591" d="M41.613,5.773a.859.859,0,0,0,1.055-.609l.825-3.082a.862.862,0,1,0-1.664-.446L41,4.717a.862.862,0,0,0,.609,1.055Z" transform="translate(-5.459 -0.996)" fill="#003"/>
        <path id="Trazado_985592" data-name="Trazado 985592" d="M27.271,5.163a.862.862,0,0,0,1.664-.446l-.826-3.082a.862.862,0,1,0-1.664.446Z" transform="translate(-3.835 -0.996)" fill="#003"/>
        <path id="Trazado_985593" data-name="Trazado 985593" d="M15.51,12.468a.862.862,0,0,0,1.218-1.218L14.472,8.994a.862.862,0,0,0-1.218,1.218Z" transform="translate(-2.339 -1.86)" fill="#003"/>
        <path id="Trazado_985594" data-name="Trazado 985594" d="M5.9,23.848l3.081.825a.862.862,0,1,0,.446-1.664l-3.081-.825A.862.862,0,1,0,5.9,23.848Z" transform="translate(-1.475 -3.357)" fill="#003"/>
        <path id="Trazado_985595" data-name="Trazado 985595" d="M42.668,55.97A.862.862,0,1,0,41,56.416l.825,3.082a.862.862,0,1,0,1.664-.446Z" transform="translate(-5.459 -7.058)" fill="#003"/>
        <path id="Trazado_985596" data-name="Trazado 985596" d="M63.758,37.568l-3.081-.826a.862.862,0,1,0-.446,1.664l3.081.826a.862.862,0,0,0,.446-1.664Z" transform="translate(-7.536 -4.981)" fill="#003"/>
        <path id="Trazado_985597" data-name="Trazado 985597" d="M60.453,24.7a.859.859,0,0,0,.224-.03l3.081-.825a.862.862,0,0,0-.446-1.664l-3.081.825a.862.862,0,0,0,.222,1.694Z" transform="translate(-7.536 -3.357)" fill="#003"/>
        <path id="Trazado_985598" data-name="Trazado 985598" d="M48.807,29.148a.866.866,0,0,0-.982.724,15.608,15.608,0,0,1-16.863,13.2,11.586,11.586,0,0,0-7.583,1.913l-2.215-2.215,9.926-9.926,1.577,1.577a3.952,3.952,0,0,0,5.584,0,3.954,3.954,0,0,0-5.592-5.592l-1.568,1.577-1.62-1.611,1.577-1.577a3.954,3.954,0,1,0-5.592-.009l1.577,1.586-9.918,9.918-2.206-2.2a11.441,11.441,0,0,0,1.9-7.557A15.634,15.634,0,0,1,47.85,25.313a.861.861,0,1,0,1.706-.233A17.356,17.356,0,0,0,15.09,29.113a9.774,9.774,0,0,1-1.465,6.161,2.3,2.3,0,0,0-2.964.224l-2,2a2.787,2.787,0,0,0-.181,3.722l-5.187,5.2a.816.816,0,0,0-.233.431l-.353,1.68L1.036,56.454a2.026,2.026,0,0,0,.121,1.155,2.03,2.03,0,0,0,1.094,1.129,2.138,2.138,0,0,0,.775.147,2.2,2.2,0,0,0,.405-.034l8.074-1.706,1.534-.319a.848.848,0,0,0,.431-.233L18.657,51.4a2.8,2.8,0,0,0,1.749.629,2.77,2.77,0,0,0,1.973-.819l2-2a2.294,2.294,0,0,0,.207-2.981,9.961,9.961,0,0,1,6.221-1.448A17.337,17.337,0,0,0,49.531,30.13a.876.876,0,0,0-.724-.982Zm-14.924.9a2.23,2.23,0,1,1,0,3.154l-1.577-1.586Zm-7.212-4.059a2.223,2.223,0,0,1,1.577-3.8,2.227,2.227,0,0,1,1.577,3.8l-1.568,1.577Zm1.586,4.015,1.611,1.611-9.926,9.927L18.33,39.936ZM9.678,42.461,11.522,44.3,6.9,48.914,5.068,47.079Zm3.059,3.059,1.62,1.62L9.8,51.7l-1.62-1.62ZM3.078,57.152a.287.287,0,0,1-.172-.009.547.547,0,0,1-.095-.069.532.532,0,0,1-.069-.1.254.254,0,0,1-.009-.164L4.4,48.846l6.643,6.643Zm9.728-2.335-1.844-1.844,4.61-4.619,1.853,1.853ZM23.155,48l-1.99,1.99a1.1,1.1,0,0,1-1.516,0L9.885,40.229a1.066,1.066,0,0,1,0-1.517l1.99-1.99a.572.572,0,0,1,.8,0L23.155,47.2a.562.562,0,0,1,0,.8Z" transform="translate(-1 -2.017)" fill="#003"/>
      </g>
    </g>
  </g>
</svg>
